<?xml version="1.0" encoding="utf-8"?>
<!-- Generator: Adobe Illustrator 16.0.0, SVG Export Plug-In . SVG Version: 6.00 Build 0)  -->
<!DOCTYPE svg PUBLIC "-//W3C//DTD SVG 1.1//EN" "http://www.w3.org/Graphics/SVG/1.1/DTD/svg11.dtd">
<svg version="1.1" id="Layer_1" xmlns="http://www.w3.org/2000/svg" xmlns:xlink="http://www.w3.org/1999/xlink" x="0px" y="0px"
	 width="560px" height="420.08px" viewBox="0 0 560 420.08" enable-background="new 0 0 560 420.08" xml:space="preserve">
<g>
	<g>
		<path fill="#C4C4C4" d="M470.295,129.137c0,2.783-2.256,5.502-5.04,6.073l-142.176,29.824c-2.783,0.569-5.388-1.919-5.388-4.704
			l0.693-94.9c0-2.783,2.258-5.501,5.04-6.073l141.48-29.127c2.782-0.571,5.733,1.223,5.733,4.007L470.295,129.137z"/>
		<path fill="#A8A8A8" d="M323.369,65.649l-4.766-1.732c-0.143,0.492-0.22,1.001-0.22,1.512l-0.694,94.9
			c0,2.785,2.604,5.273,5.389,4.704l2.223-0.466l5.251-3.903L323.369,65.649z"/>
		<path fill="#474747" d="M471,129.832c0,2.783-1.914,5.502-4.697,6.073l-142.219,29.128c-2.784,0.569-5.084-1.225-5.084-4.007
			v-94.9c0-2.784,2.472-5.503,5.255-6.074l141.94-29.127c2.783-0.57,4.805,1.224,4.805,4.008V129.832z"/>
		<polygon fill="#E6E6E6" points="463,128.729 327,156.29 327,70.776 463,43.215 		"/>
		<path fill="#7AC943" d="M396.811,50.771c0,0.832-0.674,1.642-1.504,1.813c-0.832,0.169-1.506-0.366-1.506-1.197
			c0-0.83,0.674-1.643,1.506-1.812C396.137,49.403,396.811,49.94,396.811,50.771z"/>
		<g>
			<polygon fill="#292621" points="441,127.369 350,146.455 350,73.107 441,54.021 			"/>
			<polygon fill="#FCFCFC" points="441,127.369 368,142.395 368,78.435 441,63.407 			"/>
			<path fill="#4E97CE" d="M365.375,86.711c0,3.706-3.003,7.324-6.708,8.082s-6.708-1.627-6.708-5.333
				c0-3.705,3.004-7.324,6.708-8.083C362.372,80.617,365.375,83.004,365.375,86.711z"/>
			<g>
				<polygon fill="#FF9300" points="355,77.111 352,77.895 352,74.418 355,73.636 				"/>
				<polygon fill="#FFFFFF" points="367,74.831 357,76.826 357,73.35 367,71.355 				"/>
			</g>
			<g>
				<path fill="#CFEFFF" d="M359.021,88.076c-1.932,0.173-3.438,3.495-3.414,6.601c0.918,0.284,1.957,0.343,3.06,0.116
					c1.453-0.297,2.794-1.039,3.892-2.049C362.302,89.692,360.67,87.931,359.021,88.076z"/>
				<path fill="#CFEFFF" d="M358.895,82.9c-1.39,0.132-2.492,1.281-2.461,2.564c0.028,1.282,1.18,2.215,2.568,2.084
					c1.391-0.134,2.493-1.28,2.462-2.565C361.432,83.7,360.282,82.765,358.895,82.9z"/>
			</g>
			<polygon fill="#E6E6E6" points="436,75.468 375,88.321 375,82.274 436,69.421 			"/>
			<polygon fill="#F1C40F" points="423,85.695 375,95.793 375,91.043 423,80.945 			"/>
			<polygon fill="#2ECC71" points="415,94.167 375,102.397 375,98.527 415,90.296 			"/>
			<polygon fill="#CCCCCC" points="415,106.333 375,114.564 375,110.692 415,102.461 			"/>
			<polygon fill="#CCCCCC" points="401,114.677 375,120.474 375,116.602 401,110.804 			"/>
			<polygon fill="#CCCCCC" points="416,117.108 375,126.384 375,122.511 416,113.238 			"/>
			<polygon fill="#CCCCCC" points="415,124.062 375,132.293 375,128.421 415,120.19 			"/>
			<polygon fill="#CCCCCC" points="433,96.601 375,108.655 375,104.784 433,92.729 			"/>
		</g>
	</g>
	<g>
		<path fill="#C4C4C4" d="M465.561,139.173l-144.664,27.835c-0.877,2.305,0.641,4.479,3.024,5.997l79.901,50.895
			c2.385,1.521,6.579,2.291,9.365,1.722l60.832-12.454c-0.562-0.605-0.26-1.198,0.846-1.426l15.662-3.205
			c1.103-0.227,2.662-0.016,3.82,0.471l58.501-11.975c2.786-0.569,4.481-2.163,4.827-4.82l-82.752-51.319
			C472.541,139.372,468.347,138.603,465.561,139.173z"/>
		<g>
			<path fill="#A8A8A8" d="M494.35,209.005l0.368-0.076l-0.368-3.054l-3.009-0.558l0.095,3.127
				C492.392,208.432,493.48,208.641,494.35,209.005z"/>
			<path fill="#A8A8A8" d="M323.921,173.006l79.901,50.894c0.929,0.595,2.135,1.069,3.424,1.398l0.227-3.072l-74.423-57.557
				l-12.153,2.34C320.02,169.313,321.535,171.488,323.921,173.006z"/>
		</g>
		<path fill="#E8E8E8" d="M465.561,136.045L323.215,165.18c-2.787,0.571-3.111,2.271-0.726,3.786l81.332,51.807
			c2.385,1.521,6.579,2.289,9.364,1.719l60.834-12.452c-0.562-0.607-0.261-1.2,0.845-1.425l15.662-3.205
			c1.103-0.226,2.663-0.017,3.82,0.469l61.185-12.521c2.785-0.571,3.109-2.266,0.726-3.786l-81.332-51.805
			C472.541,136.244,468.347,135.474,465.561,136.045z"/>
		<polygon fill="#383838" points="434.158,145.48 361.42,160.37 357.845,158.094 430.583,143.204 		"/>
		<path fill="#AAAAAA" d="M504.783,167.516c1.188,0.757,1.027,1.601-0.361,1.884l-120.596,24.688
			c-1.389,0.284-3.475-0.1-4.664-0.855l-33.551-21.371c-1.188-0.758-1.026-1.599,0.358-1.884L466.57,145.29
			c1.388-0.284,3.475,0.1,4.663,0.856L504.783,167.516z"/>
		<path fill="#C1C1C1" d="M494.02,196.792c1.233,0.786,1.065,1.661-0.377,1.957l-36.192,7.409c-1.441,0.297-3.61-0.103-4.847-0.89
			l-16.979-10.814c-1.234-0.787-1.066-1.663,0.376-1.959l36.195-7.41c1.438-0.294,3.606,0.104,4.844,0.889L494.02,196.792z"/>
	</g>
</g>
<g>
	<g>
		<g>
			<path fill="none" stroke="#3B7393" stroke-width="3.0052" stroke-miterlimit="10" d="M408.468,257.683
				c0,0-0.168,0.61-0.522,1.727"/>
			<path fill="none" stroke="#3B7393" stroke-width="3.0052" stroke-miterlimit="10" stroke-dasharray="3.5644,3.5644" d="
				M406.79,262.774c-5.337,14.765-24.208,57.396-67.983,71.148c-41.656,13.087-79.015-1.493-93.328-8.475"/>
			<path fill="none" stroke="#3B7393" stroke-width="3.0052" stroke-miterlimit="10" d="M243.882,324.657
				c-0.587-0.299-1.122-0.576-1.601-0.831"/>
			<g>
				<polygon fill="#3B7393" points="249.998,322.202 243.08,324.224 245.105,331.141 241.311,329.062 239.288,322.148 
					246.203,320.125 				"/>
			</g>
		</g>
	</g>
	<g>
		<g>
			<path fill="none" stroke="#3B7393" stroke-width="3.0052" stroke-miterlimit="10" d="M137.943,144.872
				c0,0,0.168-0.61,0.525-1.724"/>
			<path fill="none" stroke="#3B7393" stroke-width="3.0052" stroke-miterlimit="10" stroke-dasharray="3.5644,3.5644" d="
				M139.622,139.779c5.337-14.762,24.209-57.396,67.984-71.149c41.655-13.086,79.015,1.494,93.328,8.476"/>
			<path fill="none" stroke="#3B7393" stroke-width="3.0052" stroke-miterlimit="10" d="M302.53,77.899
				c0.587,0.298,1.122,0.577,1.601,0.831"/>
			<g>
				<polygon fill="#3B7393" points="296.414,80.354 303.332,78.333 301.307,71.416 305.102,73.493 307.124,80.408 300.209,82.431 
									"/>
			</g>
		</g>
	</g>
</g>
<g>
	<g opacity="0.15">
		<circle cx="273.146" cy="204.198" r="96.484"/>
		<path d="M318.373,250.132c-2.048-0.837-3.838-0.475-5.973-0.395c-3.726,0.139-7.375-0.756-10.953-1.678
			c-2.985-0.771-6.208,0.021-9.079-1.057c-5.849-2.189-2.761-9.564-4.952-13.719c1.322-0.459,3.871-0.594,4.709-1.876
			c0.781-1.197-0.383-3.576-1.283-4.416c-0.568-0.53-1.479-0.729-2.117-1.204c-0.762-0.562-1.254-1.416-2.194-1.737
			c-1.63-0.553-4.779,0.663-5.869,1.952c-1.219,1.441-0.842,3.602-1.892,5.146c-1.958,2.882-3.801,1.24-6.408,1.028
			c-2.165-0.177-3.459,1.343-5.792,0.615c-1.747-0.544-3.758-1.388-4.521-3.183c-0.649-1.521,0.088-3.033-0.39-4.516
			c-0.528-1.631-1.49-2.578-1.72-4.408c-0.442-3.523,0.449-6.688,3.078-9.181c3.591-3.399,10.107-5.957,14.925-6.58
			c4.6-0.596,6.271,2.487,8.765,5.675c1.414,1.809,5.483,5.696,7.896,3.015c1.932-2.151-1.396-6.052-2.041-8.157
			c-1.026-3.36,0.918-5.252,1.888-8.24c1.03-3.175-0.912-6.347-0.962-9.544c-0.065-4.171,2.449-6.998,5.429-9.57
			c2.485-2.146,4.209-4.193,5.354-7.317c1.434-3.915,2.729-8.978,1.229-13.054c-1.55-4.211-4.875-2.987-7.743-0.882
			c-0.201-1.562-1.041-1.86-2.053-2.838c-1.129-1.088-1.56-2.486-2.46-3.708c-0.813-1.099-6.165-1.224-7.495-1.293
			c-2.458-0.13-4.89,0.158-7.297,0.626c-4.247,0.823-8.379,1.957-12.749,1.618c-1.352-0.104-6.588-0.403-6.023-2.698
			c0.612-2.489,7.329-4.231,9.261-5.348c4.304-2.49,5.216-6.386,3.649-11.033c-0.769-2.274-2.59-4.199-4.337-5.758
			c-3.764-3.362-8.142-5.991-13.259-6.484c-2.229-0.215-3.98,0.4-6.108,0.79c-2.386,0.437-4.619-0.554-6.793-1.44
			c3.395-0.756-1.93-2.753-2.75-3.158c-2.359-1.16-5.807-1.077-8.129,0.39c-25.227,15.931-26.666,20.896-28.231,21.89
			c-2.614,1.657-11.664,11.541-11.479,15.158c0.151,2.953,1.607,7.747,3.903,9.764c1.188,1.046,3.572,1.898,5.1,2.168
			c2.014,0.357,3.88-0.63,5.882-0.471c7.665,0.61,7.963,13.048,4.213,17.724c-1.666,2.076-3.334,3.469-3.873,6.281
			c-0.79,4.122,1.686,7.55,3.879,10.783c2.119,3.123,3.692,6.2,5.043,9.709c1.244,3.232,3.028,6.187,4.598,9.264
			c1.311,2.565,2.391,5.212,4.242,7.459c2.017,2.442,4.559,4.729,7.452,6.071c2.03,0.943,4.23,1.816,6.328,2.558
			c0.194-1.551-0.39-3.444-0.604-5c-0.123-0.896,9.293,4.267,10.873,8.468c1.743,4.639,7.012,9.258,12.227,9.331
			c3.381,0.054,6.533-1.804,9.86-2.251c4.791-0.643,10.33-1.064,14.314,2.086c3.031,2.398,4.853,4.604,2.73,8.137
			c-1.169,1.946-2.244,4.084-2.615,6.354c-0.545,3.339-3.965,10.396-1.479,13.494c1.053,1.312,3.062,0.854,4.531,1.04
			c2.146,0.273,4.902,1.455,6.352,3.133c1.857,2.152,2.162,5.105,2.48,7.816c0.488,4.136,1.203,11.07,6.971,10.252
			c4.287-0.604,10.308-4.729,11.911-8.86c1.936-4.992,0.571-10.678,3.743-15.312c2.847-4.157,5.934-8.631,5.768-13.937
			C325.189,254.966,322.71,251.905,318.373,250.132z"/>
	</g>
	<g>
		<g>
			<g>
				<circle fill="#94C1DD" cx="271.32" cy="202.373" r="96.484"/>
			</g>
			<g>
				<path fill="#EFEBDC" d="M316.548,248.308c-2.048-0.838-3.838-0.476-5.973-0.396c-3.724,0.139-7.375-0.756-10.953-1.679
					c-2.985-0.77-6.208,0.021-9.079-1.053c-5.85-2.192-2.761-9.567-4.952-13.722c1.322-0.459,3.871-0.591,4.709-1.876
					c0.781-1.197-0.383-3.576-1.282-4.416c-0.567-0.527-1.479-0.729-2.117-1.204c-0.762-0.562-1.254-1.416-2.195-1.735
					c-1.628-0.555-4.779,0.664-5.869,1.953c-1.219,1.439-0.842,3.6-1.892,5.146c-1.958,2.881-3.801,1.241-6.408,1.03
					c-2.165-0.18-3.459,1.342-5.792,0.615c-1.747-0.547-3.758-1.391-4.521-3.185c-0.649-1.521,0.088-3.034-0.39-4.519
					c-0.528-1.629-1.49-2.578-1.72-4.405c-0.442-3.524,0.449-6.689,3.078-9.179c3.591-3.399,10.107-5.957,14.925-6.58
					c4.6-0.596,6.271,2.487,8.765,5.675c1.414,1.807,5.485,5.695,7.896,3.013c1.931-2.151-1.396-6.052-2.041-8.157
					c-1.027-3.36,0.916-5.252,1.887-8.24c1.031-3.175-0.912-6.347-0.962-9.544c-0.065-4.171,2.45-6.998,5.429-9.57
					c2.486-2.146,4.209-4.193,5.354-7.317c1.437-3.915,2.731-8.978,1.231-13.054c-1.55-4.211-4.875-2.987-7.743-0.882
					c-0.201-1.562-1.041-1.86-2.053-2.838c-1.129-1.088-1.557-2.486-2.46-3.708c-0.813-1.099-6.165-1.224-7.495-1.293
					c-2.458-0.13-4.887,0.158-7.297,0.626c-4.247,0.823-8.379,1.957-12.749,1.618c-1.352-0.105-6.588-0.403-6.023-2.698
					c0.612-2.489,7.329-4.231,9.261-5.348c4.304-2.49,5.216-6.386,3.646-11.033c-0.769-2.275-2.59-4.199-4.337-5.758
					c-3.764-3.362-8.142-5.991-13.259-6.483c-2.228-0.215-3.98,0.399-6.108,0.79c-2.386,0.437-4.619-0.554-6.793-1.44
					c3.395-0.756-1.93-2.753-2.75-3.158c-2.359-1.16-5.807-1.077-8.129,0.39c-25.227,15.931-26.666,20.896-28.229,21.89
					c-2.614,1.657-11.664,11.541-11.479,15.158c0.151,2.953,1.607,7.747,3.903,9.764c1.188,1.046,3.572,1.898,5.1,2.168
					c2.014,0.357,3.88-0.63,5.882-0.471c7.665,0.61,7.963,13.048,4.213,17.724c-1.666,2.076-3.334,3.469-3.873,6.281
					c-0.79,4.122,1.686,7.55,3.879,10.783c2.119,3.123,3.689,6.2,5.043,9.709c1.244,3.23,3.028,6.188,4.598,9.264
					c1.311,2.568,2.391,5.212,4.242,7.459c2.017,2.444,4.559,4.729,7.452,6.072c2.03,0.941,4.229,1.816,6.328,2.559
					c0.194-1.553-0.39-3.445-0.604-5c-0.123-0.896,9.293,4.266,10.873,8.467c1.743,4.638,7.012,9.256,12.227,9.332
					c3.381,0.051,6.533-1.806,9.86-2.25c4.791-0.646,10.33-1.066,14.317,2.086c3.031,2.396,4.85,4.604,2.729,8.135
					c-1.169,1.947-2.242,4.083-2.613,6.354c-0.545,3.341-3.964,10.397-1.479,13.493c1.053,1.312,3.062,0.854,4.532,1.04
					c2.146,0.272,4.903,1.455,6.351,3.133c1.858,2.154,2.162,5.107,2.481,7.818c0.489,4.134,1.203,11.067,6.97,10.251
					c4.287-0.604,10.309-4.729,11.911-8.859c1.937-4.992,0.569-10.68,3.744-15.312c2.846-4.158,5.933-8.633,5.767-13.936
					C323.364,253.142,320.885,250.08,316.548,248.308z"/>
			</g>
		</g>
	</g>
</g>
<g>
	<path fill="#FFFFFF" d="M115.068,95c-0.018,0-0.028-0.606-0.028-0.963c0-10.947,8.873-19.769,19.82-19.769
		c1.111,0,2.2,0.118,3.261,0.295c4.479-8.785,13.609-14.789,24.146-14.789c12.059,0,22.274,7.784,25.784,18.675
		C197.386,78.547,204.989,86,205.53,95H115.068z"/>
	<g>
		<g>
			<path fill="#95A5A6" d="M115.28,94.919c-0.027-1.498,0.244-2.967,0.531-4.411c0.38-1.623,0.568-3.345,1.307-4.901
				c1.388-3.195,3.964-5.718,6.783-7.613c2.618-1.689,5.558-2.895,8.674-3.387c0.777-0.12,1.567-0.157,2.354-0.223
				c0.789,0.011,1.584-0.018,2.372,0.087l0.574,0.056l0.14,0.014c0.05,0.012,0.095,0.014,0.107-0.046l0.132-0.251l0.554-1.037
				c0.395-0.688,0.83-1.355,1.286-2.004c3.195-4.413,7.754-7.748,12.819-9.56c5.082-1.804,10.621-2.092,15.929-1.011
				c5.225,1.093,9.9,4.173,13.216,8.24c1.423,1.752,2.736,3.594,3.764,5.6c0.294,0.481,0.491,1.012,0.742,1.516l0.36,0.764
				l0.299,0.79l0.331,0.872c0.075,0.188,0.137,0.392,0.223,0.563l0.612,0.03l0.918,0.042c0.28,0.004,0.559,0.028,0.834,0.077
				c5.412,0.594,10.542,3.921,13.172,8.815c0.701,1.195,1.158,2.514,1.549,3.838c0.154,0.673,0.307,1.351,0.402,2.035l0.097,0.965
				l0.022,0.227c-0.011,0.059,0.064,0.195-0.053,0.159l-0.46-0.004c-2.67-0.025-5.534-0.083-8.288-0.189
				c-5.112-0.194-10.222,0.133-15.336,0.235c-4.674,0.094-9.332-0.148-14.004-0.148c-12.07,0-24.147,0.154-36.216-0.01
				c-2.64-0.036-5.278-0.224-7.908-0.483c-2.57-0.253-5.122-0.226-7.701-0.226c-0.471,0-0.471,0.802,0,0.802h4.816
				c1.792,0,3.592,0.385,5.381,0.527c3.437,0.272,6.873,0.349,10.312,0.349h19.99h15.281c2.083,0,4.168,0.144,6.256,0.142
				c2.384-0.002,4.768-0.091,7.15-0.15c2.243-0.088,4.54-0.178,6.785-0.267c3.274-0.092,6.551,0.176,9.826,0.176l2.323,0.001
				l1.313,0.001l0.978,0.001h0.245c0.071-0.009,0.203,0.037,0.155-0.081l-0.051-0.488l-0.173-1.657
				c-0.034-0.4-0.146-0.789-0.215-1.187c-0.127-0.794-0.399-1.553-0.626-2.322c-1.079-3.021-2.928-5.784-5.402-7.833
				c-1.814-1.532-3.938-2.69-6.194-3.399c-1.129-0.353-2.289-0.59-3.46-0.731c-0.291-0.055-0.586-0.052-0.88-0.071l-0.695-0.034
				c-0.169,0.045-0.17-0.137-0.226-0.249l-0.296-0.796c-0.851-2.171-1.925-4.257-3.248-6.186c-1.333-1.921-2.869-3.704-4.582-5.333
				c-3.944-3.758-9.325-5.854-14.687-6.241c-5.828-0.464-11.81,0.568-16.964,3.429c-2.377,1.302-4.582,2.939-6.502,4.875
				c-0.965,0.964-1.84,2.017-2.652,3.116c-0.401,0.554-0.759,1.137-1.137,1.707l-0.502,0.894l-0.124,0.225
				c-0.035,0.064-0.008,0.017-0.017,0.03l0.005-0.002l0.003,0.002l0.001,0.001c0.007,0.001,0.007,0.001-0.068-0.007l-0.652-0.072
				c-0.435-0.062-0.871-0.038-1.305-0.059c-0.869-0.055-1.739,0.073-2.604,0.118c-0.859,0.115-1.719,0.261-2.559,0.459
				c-0.832,0.246-1.677,0.436-2.47,0.787c-1.633,0.574-3.122,1.465-4.569,2.387c-1.379,1.022-2.749,2.083-3.895,3.382
				c-1.885,2.002-3.335,4.463-4.027,7.127c-0.183,0.557-0.222,1.142-0.343,1.699c-0.127,0.558-0.182,1.126-0.286,1.702
				c-0.062,0.312-0.124,0.627-0.187,0.944l-0.107,0.956c-0.072,0.64-0.143,1.284-0.113,1.925
				C114.435,95.433,115.287,95.383,115.28,94.919z"/>
		</g>
	</g>
</g>
<g>
	<path fill="#FFFFFF" d="M151.424,262c-0.016-1-0.024-0.801-0.024-1.099c0-9.032,7.324-16.465,16.358-16.465
		c0.917,0,1.816,0.021,2.691,0.166c3.696-7.25,11.232-12.242,19.928-12.242c9.952,0,18.384,6.707,21.28,15.695
		c7.706,0.08,13.979,5.941,14.427,13.941L151.424,262L151.424,262z"/>
	<g>
		<g>
			<path fill="#95A5A6" d="M151.599,261.328c-0.023-1.235,0.201-2.448,0.438-3.64c0.314-1.34,0.469-2.764,1.079-4.045
				c1.146-2.641,3.271-4.723,5.598-6.283c2.161-1.396,4.587-2.393,7.159-2.797c0.642-0.101,1.293-0.129,1.944-0.186
				c0.652,0.012,1.308-0.016,1.958,0.071l0.474,0.046c0.066-0.018,0.179,0.062,0.204-0.026l0.109-0.208l0.457-0.854
				c0.326-0.568,0.685-1.119,1.062-1.654c2.637-3.645,6.4-6.396,10.581-7.891c4.193-1.488,8.766-1.729,13.146-0.834
				c4.312,0.9,8.171,3.441,10.908,6.801c1.174,1.443,2.258,2.967,3.106,4.622c0.243,0.396,0.406,0.835,0.613,1.25
				c0.208,0.416,0.39,0.844,0.543,1.28l0.273,0.722c0.062,0.153,0.113,0.321,0.184,0.465l0.505,0.022l0.758,0.035
				c0.229,0.004,0.461,0.022,0.688,0.062c4.467,0.49,8.701,3.234,10.872,7.275c0.579,0.984,0.956,2.073,1.278,3.168
				c0.127,0.556,0.253,1.114,0.332,1.68l0.08,0.796l0.019,0.188c-0.009,0.049,0.053,0.162-0.043,0.131l-0.38-0.004
				c-2.204-0.021-4.567-0.067-6.84-0.155c-4.219-0.16-8.437,0.108-12.658,0.194c-3.857,0.078-7.702-0.123-11.558-0.123
				c-9.961,0-19.929,0.127-29.89-0.008c-2.179-0.029-4.356-0.188-6.527-0.398c-2.121-0.209-4.229-0.188-6.355-0.188
				c-0.389,0-0.389,0.662,0,0.662h3.976c1.479,0,2.965,0.318,4.441,0.437c2.836,0.227,5.672,0.289,8.513,0.289h16.499h12.612
				c1.72,0,3.44,0.117,5.164,0.115c1.968-0.003,3.935-0.074,5.902-0.123c1.843-0.072,3.753-0.146,5.599-0.221
				c2.702-0.076,5.407,0.146,8.11,0.146l1.917,0.002h1.084l0.807,0.002h0.202c0.06-0.008,0.167,0.029,0.127-0.067l-0.042-0.401
				l-0.143-1.369c-0.028-0.328-0.12-0.647-0.178-0.977c-0.105-0.654-0.33-1.281-0.517-1.916c-0.89-2.492-2.417-4.773-4.458-6.465
				c-1.499-1.266-3.25-2.221-5.112-2.807c-0.932-0.291-1.889-0.486-2.854-0.604c-0.24-0.045-0.484-0.043-0.729-0.059l-0.573-0.027
				c-0.14,0.037-0.14-0.112-0.186-0.205l-0.244-0.657c-0.702-1.791-1.589-3.514-2.681-5.104c-1.1-1.585-2.368-3.059-3.781-4.398
				c-3.255-3.104-7.696-4.832-12.122-5.149c-4.81-0.386-9.747,0.469-14.001,2.827c-1.962,1.074-3.781,2.428-5.367,4.023
				c-0.796,0.797-1.519,1.664-2.188,2.571c-0.331,0.457-0.626,0.938-0.938,1.407l-0.415,0.738l-0.102,0.188
				c-0.029,0.052-0.007,0.013-0.013,0.023l0.004-0.002c-0.023-0.002,0.061,0.008-0.053-0.004l-0.539-0.062
				c-0.358-0.052-0.718-0.03-1.077-0.05c-0.717-0.045-1.435,0.062-2.148,0.1c-1.42,0.188-2.827,0.495-4.15,1.029
				c-1.348,0.474-2.577,1.209-3.771,1.97c-1.138,0.845-2.268,1.722-3.215,2.791c-1.556,1.651-2.753,3.685-3.324,5.883
				c-0.224,0.943-0.371,1.855-0.52,2.808c-0.051,0.258-0.102,0.519-0.154,0.779l-0.088,0.788c-0.062,0.527-0.118,1.062-0.093,1.591
				C150.901,261.754,151.605,261.711,151.599,261.328z"/>
		</g>
	</g>
</g>
<rect x="25.833" y="122" fill="#D88B36" width="150.167" height="40"/>
<g enable-background="new    ">
	<path fill="#FFFFFF" d="M70.441,145.285v-9.813h1.141v9.813H70.441z"/>
	<path fill="#FFFFFF" d="M82.712,145.285v-4.76c0-0.6-0.136-1.047-0.409-1.342c-0.272-0.296-0.701-0.443-1.282-0.443
		c-0.774,0-1.339,0.21-1.695,0.631c-0.356,0.421-0.534,1.11-0.534,2.067v3.847h-1.114V134.84h1.114v3.162
		c0,0.38-0.018,0.696-0.054,0.946h0.067c0.219-0.354,0.531-0.632,0.937-0.836c0.405-0.203,0.867-0.305,1.386-0.305
		c0.899,0,1.574,0.213,2.024,0.641c0.45,0.428,0.674,1.105,0.674,2.037v4.8H82.712z"/>
	<path fill="#FFFFFF" d="M90.64,145.285l-0.221-1.047h-0.054c-0.367,0.461-0.733,0.771-1.098,0.937
		c-0.365,0.163-0.82,0.244-1.366,0.244c-0.729,0-1.301-0.188-1.715-0.563s-0.621-0.91-0.621-1.604c0-1.485,1.188-2.264,3.564-2.336
		l1.249-0.04v-0.457c0-0.577-0.124-1.003-0.373-1.278c-0.248-0.275-0.646-0.413-1.191-0.413c-0.613,0-1.307,0.188-2.081,0.564
		l-0.342-0.853c0.363-0.197,0.76-0.352,1.191-0.464c0.432-0.111,0.865-0.167,1.299-0.167c0.877,0,1.527,0.194,1.95,0.584
		c0.423,0.389,0.634,1.014,0.634,1.872v5.021H90.64z M88.123,144.5c0.694,0,1.239-0.19,1.635-0.571
		c0.396-0.38,0.594-0.912,0.594-1.597v-0.665l-1.114,0.047c-0.886,0.031-1.525,0.169-1.917,0.413
		c-0.393,0.244-0.587,0.623-0.587,1.138c0,0.402,0.122,0.709,0.366,0.92C87.343,144.395,87.684,144.5,88.123,144.5z"/>
	<path fill="#FFFFFF" d="M95.373,145.285l-2.792-7.357h1.195l1.584,4.363c0.358,1.021,0.568,1.683,0.631,1.987h0.054
		c0.049-0.237,0.205-0.729,0.466-1.475c0.261-0.745,0.849-2.37,1.762-4.877h1.195l-2.792,7.357L95.373,145.285L95.373,145.285z"/>
	<path fill="#FFFFFF" d="M103.757,145.419c-1.087,0-1.946-0.331-2.574-0.993c-0.629-0.662-0.943-1.582-0.943-2.759
		c0-1.186,0.292-2.128,0.876-2.826c0.584-0.698,1.368-1.047,2.353-1.047c0.922,0,1.651,0.303,2.188,0.909
		c0.537,0.606,0.806,1.406,0.806,2.4v0.704h-5.068c0.022,0.864,0.24,1.52,0.654,1.967c0.414,0.448,0.997,0.672,1.749,0.672
		c0.792,0,1.575-0.166,2.35-0.497v0.993c-0.394,0.171-0.767,0.292-1.118,0.366C104.677,145.383,104.253,145.419,103.757,145.419z
		 M103.455,138.727c-0.591,0-1.062,0.192-1.413,0.577c-0.351,0.386-0.558,0.918-0.621,1.598h3.846c0-0.702-0.157-1.24-0.47-1.614
		S104.036,138.727,103.455,138.727z"/>
	<path fill="#FFFFFF" d="M116.457,145.285l-0.221-1.047h-0.054c-0.367,0.461-0.733,0.771-1.098,0.937
		c-0.365,0.163-0.82,0.244-1.366,0.244c-0.729,0-1.301-0.188-1.715-0.563s-0.621-0.91-0.621-1.604c0-1.485,1.188-2.264,3.564-2.336
		l1.249-0.04v-0.457c0-0.577-0.124-1.003-0.373-1.278c-0.248-0.275-0.646-0.413-1.191-0.413c-0.613,0-1.307,0.188-2.081,0.564
		l-0.342-0.853c0.363-0.197,0.76-0.352,1.191-0.464c0.432-0.111,0.865-0.167,1.299-0.167c0.877,0,1.527,0.194,1.95,0.584
		c0.423,0.389,0.634,1.014,0.634,1.872v5.021H116.457z M113.94,144.5c0.694,0,1.239-0.19,1.635-0.571
		c0.396-0.38,0.594-0.912,0.594-1.597v-0.665l-1.114,0.047c-0.886,0.031-1.525,0.169-1.917,0.413s-0.587,0.623-0.587,1.138
		c0,0.402,0.122,0.709,0.366,0.92C113.16,144.395,113.501,144.5,113.94,144.5z"/>
	<path fill="#FFFFFF" d="M124.613,145.285v-4.76c0-0.6-0.136-1.047-0.409-1.342c-0.273-0.296-0.701-0.443-1.282-0.443
		c-0.77,0-1.333,0.208-1.692,0.624c-0.358,0.416-0.537,1.104-0.537,2.062v3.859h-1.114v-7.357h0.906l0.181,1.007h0.054
		c0.229-0.362,0.548-0.643,0.96-0.842c0.412-0.199,0.87-0.299,1.376-0.299c0.886,0,1.553,0.214,2,0.641
		c0.447,0.428,0.671,1.111,0.671,2.051v4.8L124.613,145.285L124.613,145.285z"/>
	<path fill="#FFFFFF" d="M131.493,135.935c0-0.255,0.062-0.442,0.188-0.561c0.125-0.119,0.282-0.178,0.47-0.178
		c0.179,0,0.333,0.061,0.463,0.181c0.13,0.121,0.195,0.307,0.195,0.558c0,0.25-0.065,0.438-0.195,0.561
		c-0.13,0.123-0.284,0.185-0.463,0.185c-0.188,0-0.344-0.062-0.47-0.185C131.555,136.373,131.493,136.185,131.493,135.935z
		 M132.702,145.285h-1.114v-7.357h1.114V145.285z"/>
	<path fill="#FFFFFF" d="M140.072,144.299h-0.061c-0.515,0.747-1.285,1.12-2.31,1.12c-0.962,0-1.71-0.328-2.245-0.986
		c-0.535-0.658-0.802-1.593-0.802-2.806s0.269-2.155,0.806-2.826c0.537-0.671,1.284-1.007,2.242-1.007
		c0.998,0,1.763,0.362,2.296,1.087h0.087l-0.047-0.53l-0.027-0.517v-2.994h1.114v10.445h-0.906L140.072,144.299z M137.844,144.486
		c0.761,0,1.312-0.207,1.655-0.621s0.514-1.082,0.514-2.004v-0.234c0-1.043-0.174-1.787-0.521-2.232
		c-0.347-0.445-0.9-0.668-1.661-0.668c-0.654,0-1.154,0.254-1.5,0.762c-0.347,0.509-0.52,1.226-0.52,2.152
		c0,0.939,0.172,1.648,0.517,2.128C136.671,144.247,137.177,144.486,137.844,144.486z"/>
	<path fill="#FFFFFF" d="M146.597,145.419c-1.087,0-1.946-0.331-2.574-0.993c-0.629-0.662-0.943-1.582-0.943-2.759
		c0-1.186,0.292-2.128,0.876-2.826c0.584-0.698,1.368-1.047,2.353-1.047c0.922,0,1.651,0.303,2.188,0.909s0.806,1.406,0.806,2.4
		v0.704h-5.068c0.022,0.864,0.24,1.52,0.654,1.967c0.414,0.448,0.997,0.672,1.749,0.672c0.792,0,1.575-0.166,2.35-0.497v0.993
		c-0.395,0.171-0.767,0.292-1.118,0.366C147.518,145.383,147.094,145.419,146.597,145.419z M146.295,138.727
		c-0.591,0-1.062,0.192-1.413,0.577c-0.351,0.386-0.558,0.918-0.621,1.598h3.846c0-0.702-0.157-1.24-0.47-1.614
		C147.324,138.914,146.876,138.727,146.295,138.727z"/>
	<path fill="#FFFFFF" d="M155.726,145.285l-0.221-1.047h-0.054c-0.367,0.461-0.733,0.771-1.098,0.937
		c-0.365,0.163-0.82,0.244-1.366,0.244c-0.729,0-1.301-0.188-1.715-0.563s-0.621-0.91-0.621-1.604c0-1.485,1.188-2.264,3.564-2.336
		l1.249-0.04v-0.457c0-0.577-0.124-1.003-0.373-1.278c-0.248-0.275-0.646-0.413-1.191-0.413c-0.613,0-1.307,0.188-2.081,0.564
		l-0.342-0.853c0.363-0.197,0.76-0.352,1.191-0.464c0.432-0.111,0.865-0.167,1.299-0.167c0.877,0,1.527,0.194,1.95,0.584
		c0.423,0.389,0.634,1.014,0.634,1.872v5.021H155.726z M153.209,144.5c0.694,0,1.239-0.19,1.635-0.571
		c0.396-0.38,0.594-0.912,0.594-1.597v-0.665l-1.114,0.047c-0.886,0.031-1.525,0.169-1.917,0.413
		c-0.392,0.244-0.587,0.623-0.587,1.138c0,0.402,0.122,0.709,0.366,0.92C152.429,144.395,152.771,144.5,153.209,144.5z"/>
	<path fill="#FFFFFF" d="M158.687,144.573c0-0.608,0.269-0.912,0.805-0.912c0.26,0,0.46,0.078,0.601,0.234
		c0.141,0.157,0.211,0.383,0.211,0.678c0,0.287-0.072,0.51-0.215,0.668c-0.144,0.159-0.342,0.238-0.598,0.238
		c-0.232,0-0.425-0.07-0.577-0.211C158.762,145.127,158.687,144.896,158.687,144.573z M159.854,142.58h-0.705l-0.342-7.108h1.39
		L159.854,142.58z"/>
</g>
<polygon fill="#D88B36" points="109.833,160 115.214,170.521 120.596,160 "/>
<g>
	<rect x="363.393" y="246" fill="#2980B9" width="188.167" height="41"/>
	<g enable-background="new    ">
		<path fill="#FFFFFF" d="M407.172,271.271v-9.813h1.141v8.778h4.33v1.035H407.172z"/>
		<path fill="#FFFFFF" d="M417.248,271.403c-1.088,0-1.946-0.331-2.574-0.993c-0.629-0.662-0.943-1.582-0.943-2.759
			c0-1.187,0.291-2.129,0.875-2.826c0.584-0.698,1.369-1.047,2.354-1.047c0.922,0,1.65,0.303,2.188,0.908
			c0.537,0.606,0.807,1.406,0.807,2.4v0.704h-5.068c0.021,0.864,0.24,1.521,0.654,1.967c0.414,0.448,0.996,0.673,1.748,0.673
			c0.793,0,1.576-0.166,2.35-0.498v0.993c-0.394,0.171-0.766,0.292-1.117,0.366C418.171,271.366,417.744,271.403,417.248,271.403z
			 M416.945,264.711c-0.592,0-1.062,0.192-1.413,0.577c-0.352,0.386-0.559,0.918-0.62,1.598h3.846c0-0.701-0.156-1.24-0.47-1.613
			C417.975,264.897,417.527,264.711,416.945,264.711z"/>
		<path fill="#FFFFFF" d="M424.229,270.483c0.197,0,0.388-0.015,0.57-0.043c0.184-0.029,0.329-0.061,0.438-0.092v0.854
			c-0.12,0.059-0.299,0.105-0.534,0.145c-0.234,0.038-0.445,0.057-0.634,0.057c-1.424,0-2.135-0.748-2.135-2.247v-4.378h-1.055
			v-0.536l1.055-0.464l0.47-1.57h0.645v1.705h2.135v0.865h-2.135v4.33c0,0.442,0.105,0.783,0.316,1.021
			C423.572,270.365,423.861,270.483,424.229,270.483z"/>
		<path fill="#FFFFFF" d="M427.598,261.456l0.103,0.146c-0.117,0.447-0.285,0.969-0.504,1.562c-0.22,0.593-0.447,1.146-0.686,1.653
			h-0.818c0.312-1.274,0.542-2.396,0.686-3.361H427.598z"/>
		<path fill="#FFFFFF" d="M433.787,269.263c0,0.686-0.255,1.213-0.766,1.584s-1.227,0.558-2.147,0.558
			c-0.976,0-1.736-0.154-2.282-0.464v-1.032c0.354,0.179,0.732,0.319,1.139,0.423c0.404,0.104,0.796,0.154,1.171,0.154
			c0.581,0,1.028-0.094,1.343-0.278c0.312-0.187,0.47-0.469,0.47-0.851c0-0.285-0.124-0.53-0.372-0.734
			c-0.249-0.203-0.732-0.443-1.454-0.723c-0.684-0.254-1.171-0.478-1.459-0.668c-0.289-0.188-0.504-0.404-0.645-0.646
			c-0.142-0.241-0.212-0.529-0.212-0.866c0-0.6,0.244-1.071,0.73-1.419c0.488-0.348,1.157-0.521,2.008-0.521
			c0.791,0,1.566,0.161,2.322,0.483l-0.396,0.905c-0.738-0.305-1.407-0.457-2.007-0.457c-0.528,0-0.928,0.083-1.194,0.249
			c-0.271,0.165-0.403,0.395-0.403,0.686c0,0.195,0.05,0.363,0.151,0.502c0.101,0.14,0.263,0.271,0.485,0.396
			c0.226,0.125,0.653,0.307,1.289,0.544c0.873,0.317,1.463,0.638,1.77,0.96C433.634,268.37,433.787,268.774,433.787,269.263z"/>
		<path fill="#FFFFFF" d="M448.549,271.271v-4.787c0-0.586-0.126-1.025-0.377-1.318c-0.25-0.293-0.64-0.439-1.168-0.439
			c-0.693,0-1.205,0.199-1.537,0.599c-0.331,0.397-0.496,1.012-0.496,1.839v4.107h-1.115v-4.785c0-0.586-0.125-1.026-0.375-1.319
			s-0.643-0.438-1.175-0.438c-0.697,0-1.21,0.209-1.534,0.627c-0.323,0.418-0.485,1.104-0.485,2.059v3.859h-1.114v-7.357h0.906
			l0.181,1.007h0.056c0.209-0.356,0.506-0.638,0.889-0.839s0.811-0.302,1.285-0.302c1.149,0,1.901,0.415,2.256,1.247h0.054
			c0.22-0.385,0.537-0.688,0.953-0.911c0.417-0.226,0.892-0.336,1.423-0.336c0.832,0,1.456,0.214,1.869,0.641
			c0.414,0.429,0.621,1.111,0.621,2.052v4.799h-1.115V271.271z"/>
		<path fill="#FFFFFF" d="M456.482,271.271l-0.222-1.047h-0.054c-0.367,0.461-0.733,0.771-1.098,0.937
			c-0.364,0.163-0.819,0.243-1.366,0.243c-0.729,0-1.301-0.188-1.715-0.562s-0.621-0.91-0.621-1.604
			c0-1.485,1.188-2.264,3.563-2.336l1.248-0.041v-0.457c0-0.576-0.123-1.002-0.372-1.277c-0.248-0.275-0.646-0.413-1.19-0.413
			c-0.613,0-1.308,0.188-2.081,0.563l-0.343-0.853c0.362-0.196,0.761-0.352,1.191-0.464c0.432-0.111,0.865-0.167,1.299-0.167
			c0.877,0,1.527,0.194,1.949,0.584c0.424,0.39,0.635,1.015,0.635,1.872v5.021H456.482z M453.966,270.483
			c0.694,0,1.239-0.189,1.636-0.57c0.396-0.38,0.594-0.912,0.594-1.598v-0.664l-1.114,0.047c-0.886,0.031-1.525,0.169-1.916,0.412
			c-0.394,0.244-0.588,0.623-0.588,1.139c0,0.402,0.122,0.709,0.366,0.92C453.186,270.379,453.527,270.483,453.966,270.483z"/>
		<path fill="#FFFFFF" d="M460.705,267.504c0.191-0.272,0.486-0.631,0.879-1.073l2.377-2.519h1.322l-2.98,3.135l3.188,4.224h-1.35
			l-2.598-3.479l-0.84,0.727v2.752h-1.101v-10.445h1.101v5.538c0,0.245-0.019,0.627-0.054,1.142L460.705,267.504L460.705,267.504z"
			/>
		<path fill="#FFFFFF" d="M469.929,271.403c-1.087,0-1.946-0.331-2.573-0.993c-0.63-0.662-0.943-1.582-0.943-2.759
			c0-1.187,0.292-2.129,0.876-2.826c0.584-0.698,1.368-1.047,2.354-1.047c0.923,0,1.65,0.303,2.188,0.908
			c0.538,0.606,0.806,1.406,0.806,2.4v0.704h-5.066c0.021,0.864,0.239,1.521,0.653,1.967c0.414,0.448,0.996,0.673,1.748,0.673
			c0.792,0,1.575-0.166,2.351-0.498v0.993c-0.396,0.171-0.768,0.292-1.117,0.366C470.85,271.367,470.426,271.403,469.929,271.403z
			 M469.627,264.711c-0.592,0-1.062,0.192-1.414,0.577c-0.351,0.386-0.558,0.918-0.62,1.598h3.847c0-0.701-0.156-1.24-0.471-1.613
			C470.656,264.897,470.208,264.711,469.627,264.711z"/>
		<path fill="#FFFFFF" d="M478.01,261.919c0-0.255,0.062-0.441,0.188-0.561s0.282-0.178,0.47-0.178c0.18,0,0.334,0.061,0.463,0.18
			c0.131,0.121,0.195,0.308,0.195,0.559c0,0.25-0.064,0.438-0.195,0.561c-0.129,0.123-0.283,0.186-0.463,0.186
			c-0.188,0-0.344-0.062-0.47-0.186S478.01,262.169,478.01,261.919z M479.219,271.271h-1.113v-7.357h1.113V271.271z"/>
		<path fill="#FFFFFF" d="M483.958,270.483c0.196,0,0.388-0.015,0.571-0.043c0.183-0.029,0.328-0.061,0.436-0.092v0.854
			c-0.121,0.059-0.299,0.105-0.533,0.145c-0.234,0.038-0.446,0.057-0.635,0.057c-1.423,0-2.135-0.748-2.135-2.247v-4.378h-1.054
			v-0.536l1.054-0.464l0.471-1.57h0.646v1.705h2.134v0.865h-2.134v4.33c0,0.442,0.104,0.783,0.313,1.021
			C483.303,270.365,483.592,270.483,483.958,270.483z"/>
		<path fill="#FFFFFF" d="M495.041,271.271v-4.761c0-0.6-0.137-1.047-0.41-1.342c-0.271-0.296-0.7-0.442-1.281-0.442
			c-0.774,0-1.34,0.209-1.694,0.631c-0.355,0.42-0.533,1.109-0.533,2.066v3.848h-1.115v-10.445h1.115v3.162
			c0,0.38-0.019,0.695-0.055,0.945h0.066c0.22-0.354,0.531-0.632,0.938-0.836c0.403-0.203,0.866-0.305,1.387-0.305
			c0.897,0,1.574,0.213,2.022,0.641c0.449,0.428,0.675,1.106,0.675,2.037v4.801H495.041L495.041,271.271z"/>
		<path fill="#FFFFFF" d="M502.969,271.271l-0.222-1.047h-0.054c-0.367,0.461-0.732,0.771-1.099,0.937
			c-0.364,0.163-0.819,0.243-1.366,0.243c-0.729,0-1.301-0.188-1.715-0.562s-0.621-0.91-0.621-1.604
			c0-1.485,1.188-2.264,3.564-2.336l1.249-0.041v-0.457c0-0.576-0.125-1.002-0.373-1.277s-0.646-0.413-1.19-0.413
			c-0.613,0-1.308,0.188-2.082,0.563l-0.343-0.853c0.363-0.196,0.761-0.352,1.191-0.464c0.433-0.111,0.865-0.167,1.3-0.167
			c0.877,0,1.526,0.194,1.95,0.584c0.422,0.39,0.634,1.015,0.634,1.872v5.021H502.969z M500.451,270.483
			c0.693,0,1.238-0.189,1.635-0.57c0.396-0.38,0.594-0.912,0.594-1.598v-0.664l-1.113,0.047c-0.887,0.031-1.524,0.169-1.918,0.412
			c-0.391,0.244-0.586,0.623-0.586,1.139c0,0.402,0.121,0.709,0.365,0.92C499.672,270.379,500.013,270.483,500.451,270.483z"/>
		<path fill="#FFFFFF" d="M509.514,271.403c-0.479,0-0.917-0.088-1.312-0.266c-0.396-0.177-0.729-0.447-0.997-0.814h-0.081
			c0.055,0.43,0.081,0.837,0.081,1.222v3.027h-1.114v-10.66h0.906l0.154,1.007h0.054c0.286-0.402,0.62-0.693,1-0.872
			s0.816-0.269,1.31-0.269c0.976,0,1.729,0.332,2.259,1c0.53,0.666,0.796,1.603,0.796,2.806c0,1.209-0.271,2.147-0.811,2.815
			C511.219,271.069,510.471,271.403,509.514,271.403z M509.352,264.726c-0.752,0-1.295,0.207-1.631,0.623s-0.508,1.079-0.517,1.987
			v0.248c0,1.034,0.172,1.772,0.517,2.219c0.346,0.446,0.897,0.668,1.658,0.668c0.635,0,1.133-0.257,1.494-0.771
			c0.359-0.516,0.539-1.225,0.539-2.128c0-0.919-0.18-1.621-0.539-2.111C510.512,264.97,510.006,264.726,509.352,264.726z"/>
		<path fill="#FFFFFF" d="M517.938,271.403c-0.479,0-0.916-0.088-1.312-0.266c-0.396-0.177-0.729-0.447-0.996-0.814h-0.081
			c0.055,0.43,0.081,0.837,0.081,1.222v3.027h-1.115v-10.66h0.906l0.154,1.007h0.055c0.285-0.402,0.619-0.693,1-0.872
			c0.38-0.179,0.816-0.269,1.31-0.269c0.976,0,1.729,0.332,2.259,1c0.53,0.666,0.796,1.603,0.796,2.806
			c0,1.209-0.271,2.147-0.811,2.815C519.645,271.069,518.895,271.403,517.938,271.403z M517.776,264.726
			c-0.753,0-1.296,0.207-1.632,0.623s-0.509,1.079-0.517,1.987v0.248c0,1.034,0.172,1.772,0.517,2.219
			c0.346,0.445,0.897,0.668,1.657,0.668c0.636,0,1.134-0.257,1.494-0.771c0.359-0.516,0.54-1.225,0.54-2.128
			c0-0.919-0.181-1.621-0.54-2.111C518.938,264.97,518.43,264.726,517.776,264.726z"/>
		<path fill="#FFFFFF" d="M526.047,271.403c-1.088,0-1.945-0.331-2.574-0.993s-0.942-1.582-0.942-2.759
			c0-1.187,0.292-2.129,0.876-2.826c0.584-0.698,1.367-1.047,2.353-1.047c0.922,0,1.651,0.303,2.188,0.908
			c0.537,0.606,0.806,1.406,0.806,2.4v0.704h-5.067c0.021,0.864,0.239,1.521,0.653,1.967c0.414,0.448,0.997,0.673,1.749,0.673
			c0.792,0,1.575-0.166,2.35-0.498v0.993c-0.394,0.171-0.767,0.292-1.117,0.366C526.969,271.366,526.543,271.403,526.047,271.403z
			 M525.744,264.711c-0.59,0-1.061,0.192-1.412,0.577c-0.352,0.386-0.559,0.918-0.621,1.598h3.846c0-0.701-0.155-1.24-0.469-1.613
			C526.773,264.897,526.326,264.711,525.744,264.711z"/>
		<path fill="#FFFFFF" d="M535.686,271.271v-4.761c0-0.6-0.136-1.047-0.407-1.342c-0.273-0.296-0.701-0.442-1.283-0.442
			c-0.771,0-1.333,0.207-1.691,0.623c-0.356,0.416-0.537,1.104-0.537,2.062v3.859h-1.112v-7.357h0.906l0.181,1.007h0.054
			c0.229-0.362,0.548-0.644,0.96-0.842c0.411-0.199,0.87-0.3,1.376-0.3c0.887,0,1.553,0.215,2,0.642
			c0.447,0.429,0.672,1.11,0.672,2.051v4.8H535.686L535.686,271.271z"/>
		<path fill="#FFFFFF" d="M538.928,270.558c0-0.607,0.271-0.912,0.807-0.912c0.26,0,0.46,0.078,0.601,0.234
			c0.142,0.157,0.212,0.383,0.212,0.678c0,0.287-0.07,0.51-0.215,0.668c-0.145,0.159-0.343,0.238-0.598,0.238
			c-0.232,0-0.426-0.07-0.577-0.211C539.004,271.11,538.928,270.88,538.928,270.558z M540.096,268.563h-0.705l-0.342-7.107h1.391
			L540.096,268.563z"/>
	</g>
	<polygon fill="#2980B9" points="452.096,247 457.477,236.478 462.856,247 	"/>
	<path fill="#FFFFFF" d="M385.071,253.546c-7.279,0-13.179,5.899-13.179,13.177s5.899,13.176,13.179,13.176
		c7.277,0,13.176-5.898,13.176-13.176S392.349,253.546,385.071,253.546z M385.065,257.309c2.042,0,3.698,1.655,3.698,3.697
		c0,2.041-1.656,3.697-3.698,3.697c-2.043,0-3.698-1.656-3.698-3.697C381.367,258.964,383.022,257.309,385.065,257.309z
		 M377.661,274.7c0-4.703,3.557-8.516,7.368-8.516s7.369,3.812,7.369,8.516H377.661z"/>
</g>
<g>
	<g>
		<path fill="#C4C4C4" d="M173.128,282.356c0,2.922-2.37,5.775-5.293,6.377L18.526,320.053c-2.924,0.602-5.658-2.016-5.658-4.938
			l0.73-99.661c0-2.922,2.37-5.776,5.292-6.377l148.579-30.589c2.923-0.602,6.023,1.285,6.023,4.208L173.128,282.356z"/>
		<path fill="#A8A8A8" d="M18.831,215.687l-5.003-1.816c-0.148,0.516-0.229,1.051-0.229,1.586l-0.73,99.661
			c0,2.924,2.734,5.538,5.658,4.938l2.334-0.486l5.514-4.099L18.831,215.687z"/>
		<path fill="#474747" d="M174,283.087c0,2.924-2.076,5.778-5,6.378L19.493,320.054c-2.925,0.602-5.493-1.285-5.493-4.208v-99.661
			c0-2.923,2.716-5.779,5.639-6.375l149.188-30.589c2.923-0.6,5.173,1.284,5.173,4.208V283.087z"/>
		<polygon fill="#E6E6E6" points="164,281.928 24,310.872 24,221.067 164,192.124 		"/>
		<path fill="#7AC943" d="M95.957,200.059c0,0.875-0.707,1.726-1.581,1.905c-0.874,0.179-1.581-0.384-1.581-1.258
			c0-0.872,0.707-1.724,1.581-1.903C95.25,198.624,95.957,199.187,95.957,200.059z"/>
		<g>
			<polygon fill="#292621" points="142,280.5 45,300.543 45,223.517 142,203.474 			"/>
			<polygon fill="#FCFCFC" points="142,280.5 65,296.282 65,229.108 142,213.33 			"/>
			<path fill="#FF9300" d="M62.944,237.802c0,3.893-3.153,7.693-7.045,8.489c-3.891,0.798-7.044-1.71-7.044-5.603
				s3.153-7.69,7.044-8.488C59.791,231.403,62.944,233.911,62.944,237.802z"/>
			<g>
				<polygon fill="#FF9300" points="52,227.722 47,228.543 47,224.894 52,224.069 				"/>
				<polygon fill="#FFFFFF" points="63,225.328 52,227.421 52,223.771 63,221.678 				"/>
			</g>
			<g>
				<path fill="#FFE7CC" d="M56.271,239.235c-2.025,0.184-3.608,3.674-3.585,6.933c0.965,0.299,2.055,0.36,3.213,0.123
					c1.526-0.312,2.934-1.092,4.087-2.151C59.717,240.937,58.002,239.084,56.271,239.235z"/>
				<path fill="#FFE7CC" d="M56.138,233.801c-1.458,0.14-2.617,1.345-2.586,2.694c0.03,1.346,1.239,2.326,2.697,2.188
					c1.461-0.141,2.618-1.345,2.585-2.69C58.803,234.64,57.596,233.659,56.138,233.801z"/>
			</g>
			<polygon points="142,280.614 73,295.187 73,234.263 142,219.69 			"/>
			<g>
				<path fill="#00F411" d="M78.084,239.663c0-0.781,0.527-1.439,1.267-1.592c0.74-0.152,1.247,0.294,1.247,1.074
					c0,0.762-0.486,1.433-1.268,1.592C78.591,240.89,78.084,240.423,78.084,239.663z"/>
				<path fill="#00F411" d="M82.457,238.765c0-0.781,0.529-1.438,1.269-1.593c0.739-0.151,1.246,0.294,1.246,1.077
					c0,0.76-0.486,1.432-1.267,1.59C82.965,239.991,82.457,239.526,82.457,238.765z"/>
				<path fill="#00F411" d="M86.831,237.865c0-0.781,0.528-1.438,1.268-1.591c0.74-0.151,1.246,0.295,1.246,1.074
					c0,0.762-0.485,1.432-1.268,1.592C87.339,239.094,86.831,238.627,86.831,237.865z"/>
				<path fill="#00F411" d="M91.205,236.969c0-0.782,0.527-1.44,1.267-1.592c0.74-0.151,1.247,0.293,1.247,1.074
					c0,0.762-0.486,1.431-1.268,1.593C91.711,238.194,91.205,237.729,91.205,236.969z"/>
				<path fill="#00F411" d="M95.578,236.069c0-0.781,0.528-1.44,1.267-1.592c0.74-0.151,1.247,0.293,1.247,1.072
					c0,0.764-0.486,1.436-1.268,1.594C96.084,237.296,95.578,236.83,95.578,236.069z"/>
				<path fill="#00F411" d="M99.951,235.171c0-0.781,0.528-1.438,1.268-1.591c0.74-0.151,1.247,0.293,1.247,1.076
					c0,0.759-0.486,1.43-1.268,1.59C100.458,236.397,99.951,235.933,99.951,235.171z"/>
				<path fill="#00F411" d="M104.324,234.274c0-0.783,0.529-1.441,1.269-1.594c0.739-0.15,1.246,0.295,1.246,1.073
					c0,0.763-0.486,1.433-1.267,1.595C104.832,235.501,104.324,235.033,104.324,234.274z"/>
				<path fill="#00F411" d="M108.698,233.375c0-0.781,0.528-1.44,1.268-1.592c0.74-0.152,1.246,0.293,1.246,1.073
					c0,0.764-0.485,1.434-1.268,1.594C109.206,234.603,108.698,234.136,108.698,233.375z"/>
				<path fill="#00F411" d="M113.072,232.476c0-0.777,0.527-1.438,1.267-1.591c0.74-0.151,1.248,0.293,1.248,1.076
					c0,0.761-0.486,1.431-1.268,1.59C113.579,233.702,113.072,233.235,113.072,232.476z"/>
				<path fill="#00F411" d="M117.444,231.578c0-0.782,0.528-1.438,1.268-1.591c0.74-0.151,1.247,0.293,1.247,1.074
					c0,0.761-0.486,1.431-1.268,1.59C117.952,232.806,117.444,232.339,117.444,231.578z"/>
				<path fill="#00F411" d="M121.818,230.679c0-0.779,0.528-1.438,1.268-1.591c0.74-0.151,1.246,0.294,1.246,1.075
					c0,0.761-0.485,1.431-1.267,1.592C122.325,231.907,121.818,231.44,121.818,230.679z"/>
				<path fill="#00F411" d="M126.191,229.781c0-0.78,0.529-1.438,1.268-1.591c0.74-0.153,1.247,0.293,1.247,1.074
					c0,0.762-0.486,1.432-1.268,1.592C126.699,231.008,126.191,230.542,126.191,229.781z"/>
				<path fill="#00F411" d="M130.565,228.883c0-0.78,0.527-1.438,1.267-1.59c0.739-0.153,1.247,0.293,1.247,1.073
					c0,0.762-0.486,1.431-1.268,1.592C131.072,230.11,130.565,229.646,130.565,228.883z"/>
				<path fill="#00F411" d="M134.938,227.985c0-0.783,0.527-1.44,1.267-1.592c0.74-0.152,1.248,0.293,1.248,1.072
					c0,0.762-0.486,1.434-1.269,1.594C135.445,229.212,134.938,228.746,134.938,227.985z"/>
			</g>
			<g>
				<path fill="#00F411" d="M78.084,247.694c0-0.783,0.527-1.44,1.267-1.592c0.74-0.152,1.247,0.293,1.247,1.072
					c0,0.764-0.486,1.434-1.268,1.594C78.591,248.921,78.084,248.455,78.084,247.694z"/>
				<path fill="#00F411" d="M84.401,246.396c0-0.777,0.528-1.438,1.268-1.59s1.247,0.293,1.247,1.075
					c0,0.761-0.486,1.431-1.268,1.591C84.908,247.623,84.401,247.156,84.401,246.396z"/>
				<path fill="#00F411" d="M90.719,245.099c0-0.781,0.527-1.438,1.267-1.591c0.74-0.151,1.247,0.293,1.247,1.075
					c0,0.76-0.486,1.432-1.268,1.592C91.226,246.326,90.719,245.858,90.719,245.099z"/>
				<path fill="#00F411" d="M97.036,243.801c0-0.78,0.528-1.438,1.268-1.59c0.739-0.153,1.247,0.292,1.247,1.073
					c0,0.762-0.487,1.432-1.268,1.592C97.543,245.026,97.036,244.563,97.036,243.801z"/>
				<path fill="#00F411" d="M103.353,242.505c0-0.783,0.529-1.439,1.267-1.592c0.74-0.152,1.248,0.293,1.248,1.074
					c0,0.76-0.486,1.431-1.268,1.593C103.86,243.731,103.353,243.265,103.353,242.505z"/>
				<path fill="#00F411" d="M109.67,241.206c0-0.781,0.528-1.438,1.268-1.592c0.74-0.15,1.247,0.293,1.247,1.076
					c0,0.761-0.486,1.431-1.268,1.591C110.178,242.433,109.67,241.968,109.67,241.206z"/>
				<path fill="#00F411" d="M115.988,239.909c0-0.782,0.529-1.439,1.268-1.592c0.74-0.151,1.247,0.293,1.247,1.074
					c0,0.76-0.486,1.431-1.269,1.592C116.495,241.137,115.988,240.669,115.988,239.909z"/>
				<path fill="#00F411" d="M122.305,238.61c0-0.78,0.528-1.439,1.268-1.592c0.74-0.151,1.246,0.293,1.246,1.074
					c0,0.764-0.485,1.434-1.267,1.594C122.812,239.838,122.305,239.372,122.305,238.61z"/>
				<path fill="#00F411" d="M128.623,237.313c0-0.782,0.528-1.44,1.268-1.592c0.74-0.152,1.246,0.295,1.246,1.072
					c0,0.764-0.485,1.434-1.268,1.594C129.129,238.541,128.623,238.074,128.623,237.313z"/>
				<path fill="#00F411" d="M134.939,236.017c0-0.781,0.529-1.438,1.269-1.593c0.739-0.151,1.247,0.294,1.247,1.077
					c0,0.759-0.487,1.43-1.268,1.589C135.447,237.243,134.939,236.774,134.939,236.017z"/>
			</g>
			<g>
				<path fill="#00F411" d="M78.084,256.229c0-0.78,0.527-1.438,1.267-1.59c0.74-0.151,1.247,0.295,1.247,1.072
					c0,0.764-0.486,1.434-1.268,1.594C78.591,257.458,78.084,256.992,78.084,256.229z"/>
				<path fill="#00F411" d="M82.457,255.334c0-0.781,0.529-1.44,1.269-1.592c0.739-0.152,1.246,0.293,1.246,1.073
					c0,0.761-0.486,1.431-1.267,1.594C82.965,256.562,82.457,256.094,82.457,255.334z"/>
				<path fill="#00F411" d="M86.831,254.435c0-0.781,0.528-1.438,1.268-1.592c0.74-0.15,1.246,0.293,1.246,1.074
					c0,0.764-0.485,1.434-1.268,1.593C87.339,255.661,86.831,255.194,86.831,254.435z"/>
				<path fill="#00F411" d="M91.205,253.535c0-0.781,0.527-1.438,1.267-1.591c0.74-0.152,1.247,0.294,1.247,1.074
					c0,0.762-0.486,1.433-1.268,1.592C91.711,254.765,91.205,254.298,91.205,253.535z"/>
				<path fill="#00F411" d="M95.578,252.638c0-0.779,0.528-1.438,1.267-1.591c0.74-0.151,1.247,0.293,1.247,1.075
					c0,0.76-0.486,1.43-1.268,1.592C96.084,253.866,95.578,253.397,95.578,252.638z"/>
				<path fill="#00F411" d="M99.951,251.74c0-0.782,0.528-1.44,1.268-1.593c0.74-0.151,1.247,0.293,1.247,1.074
					c0,0.764-0.486,1.434-1.268,1.594C100.458,252.967,99.951,252.501,99.951,251.74z"/>
				<path fill="#00F411" d="M104.324,250.841c0-0.779,0.529-1.439,1.269-1.591c0.739-0.153,1.246,0.293,1.246,1.074
					c0,0.762-0.486,1.432-1.267,1.592C104.832,252.067,104.324,251.603,104.324,250.841z"/>
				<path fill="#00F411" d="M108.698,249.942c0-0.781,0.528-1.438,1.268-1.59c0.74-0.152,1.246,0.293,1.246,1.072
					c0,0.762-0.485,1.432-1.268,1.592C109.206,251.169,108.698,250.704,108.698,249.942z"/>
				<path fill="#00F411" d="M113.072,249.046c0-0.783,0.527-1.441,1.267-1.593c0.74-0.152,1.248,0.294,1.248,1.075
					c0,0.76-0.486,1.431-1.268,1.592C113.579,250.271,113.072,249.806,113.072,249.046z"/>
				<path fill="#00F411" d="M117.444,248.146c0-0.777,0.528-1.438,1.268-1.59c0.74-0.154,1.247,0.293,1.247,1.073
					c0,0.761-0.486,1.433-1.268,1.591C117.952,249.373,117.444,248.906,117.444,248.146z"/>
				<path fill="#00F411" d="M121.818,247.248c0-0.781,0.528-1.438,1.268-1.591c0.74-0.151,1.246,0.292,1.246,1.074
					c0,0.762-0.485,1.431-1.267,1.593C122.325,248.478,121.818,248.009,121.818,247.248z"/>
				<path fill="#00F411" d="M126.191,246.351c0-0.783,0.529-1.438,1.268-1.592c0.74-0.15,1.247,0.293,1.247,1.074
					c0,0.761-0.486,1.432-1.268,1.593C126.699,247.577,126.191,247.11,126.191,246.351z"/>
				<path fill="#00F411" d="M130.565,245.451c0-0.78,0.527-1.438,1.267-1.591c0.739-0.151,1.247,0.293,1.247,1.074
					c0,0.762-0.486,1.433-1.268,1.592C131.072,246.678,130.565,246.212,130.565,245.451z"/>
				<path fill="#00F411" d="M134.938,244.554c0-0.781,0.527-1.438,1.267-1.593c0.74-0.151,1.248,0.294,1.248,1.077
					c0,0.761-0.486,1.431-1.269,1.591C135.445,245.78,134.938,245.313,134.938,244.554z"/>
			</g>
			<g>
				<path fill="#00F411" d="M78.084,264.263c0-0.781,0.527-1.438,1.267-1.591c0.74-0.153,1.247,0.292,1.247,1.073
					c0,0.763-0.486,1.433-1.268,1.593C78.591,265.489,78.084,265.022,78.084,264.263z"/>
				<path fill="#00F411" d="M84.401,262.966c0-0.783,0.528-1.441,1.268-1.593s1.247,0.295,1.247,1.075
					c0,0.762-0.486,1.431-1.268,1.592C84.908,264.192,84.401,263.726,84.401,262.966z"/>
				<path fill="#00F411" d="M90.719,261.668c0-0.782,0.527-1.438,1.267-1.593c0.74-0.149,1.247,0.294,1.247,1.076
					c0,0.761-0.486,1.431-1.268,1.591C91.226,262.896,90.719,262.429,90.719,261.668z"/>
				<path fill="#00F411" d="M97.036,260.37c0-0.781,0.528-1.439,1.268-1.592c0.739-0.151,1.247,0.293,1.247,1.074
					c0,0.762-0.487,1.432-1.268,1.592C97.543,261.597,97.036,261.131,97.036,260.37z"/>
				<path fill="#00F411" d="M103.353,259.071c0-0.78,0.529-1.439,1.267-1.59c0.74-0.153,1.248,0.291,1.248,1.074
					c0,0.76-0.486,1.432-1.268,1.59C103.86,260.299,103.353,259.834,103.353,259.071z"/>
				<path fill="#00F411" d="M109.67,257.774c0-0.782,0.528-1.439,1.268-1.592c0.74-0.15,1.247,0.293,1.247,1.072
					c0,0.764-0.486,1.434-1.268,1.596C110.178,259.002,109.67,258.535,109.67,257.774z"/>
				<path fill="#00F411" d="M115.988,256.478c0-0.779,0.529-1.438,1.268-1.593c0.74-0.149,1.247,0.293,1.247,1.076
					c0,0.761-0.486,1.431-1.269,1.591C116.495,257.703,115.988,257.239,115.988,256.478z"/>
				<path fill="#00F411" d="M122.305,255.181c0-0.783,0.528-1.438,1.268-1.592c0.74-0.152,1.246,0.293,1.246,1.074
					c0,0.76-0.485,1.431-1.267,1.592C122.812,256.407,122.305,255.94,122.305,255.181z"/>
				<path fill="#00F411" d="M128.623,253.882c0-0.781,0.528-1.438,1.268-1.591c0.74-0.153,1.246,0.292,1.246,1.073
					c0,0.763-0.485,1.433-1.268,1.593C129.129,255.108,128.623,254.644,128.623,253.882z"/>
				<path fill="#00F411" d="M134.939,252.585c0-0.783,0.529-1.439,1.269-1.593c0.739-0.151,1.247,0.295,1.247,1.075
					c0,0.762-0.487,1.431-1.268,1.592C135.447,253.812,134.939,253.345,134.939,252.585z"/>
			</g>
			<g>
				<path fill="#00F411" d="M78.084,272.8c0-0.781,0.527-1.439,1.267-1.592c0.74-0.152,1.247,0.293,1.247,1.074
					c0,0.763-0.486,1.433-1.268,1.593C78.591,274.026,78.084,273.562,78.084,272.8z"/>
				<path fill="#00F411" d="M82.457,271.899c0-0.78,0.529-1.438,1.269-1.592c0.739-0.15,1.246,0.295,1.246,1.074
					c0,0.764-0.486,1.434-1.267,1.594C82.965,273.127,82.457,272.663,82.457,271.899z"/>
				<path fill="#00F411" d="M86.831,271.003c0-0.782,0.528-1.439,1.268-1.591c0.74-0.152,1.246,0.293,1.246,1.075
					c0,0.759-0.485,1.43-1.268,1.59C87.339,272.229,86.831,271.765,86.831,271.003z"/>
				<path fill="#00F411" d="M91.205,270.104c0-0.781,0.527-1.44,1.267-1.594c0.74-0.15,1.247,0.295,1.247,1.074
					c0,0.764-0.486,1.436-1.268,1.592C91.711,271.332,91.205,270.865,91.205,270.104z"/>
				<path fill="#00F411" d="M95.578,269.206c0-0.78,0.528-1.438,1.267-1.593c0.74-0.151,1.247,0.295,1.247,1.075
					c0,0.763-0.486,1.433-1.268,1.593C96.084,270.433,95.578,269.967,95.578,269.206z"/>
				<path fill="#00F411" d="M99.951,268.31c0-0.783,0.528-1.438,1.268-1.593c0.74-0.151,1.247,0.294,1.247,1.075
					c0,0.76-0.486,1.432-1.268,1.591C100.458,269.536,99.951,269.069,99.951,268.31z"/>
				<path fill="#00F411" d="M104.324,267.41c0-0.781,0.529-1.44,1.269-1.593c0.739-0.15,1.246,0.293,1.246,1.076
					c0,0.76-0.486,1.431-1.267,1.592C104.832,268.637,104.324,268.171,104.324,267.41z"/>
				<path fill="#00F411" d="M108.698,266.512c0-0.78,0.528-1.438,1.268-1.592c0.74-0.151,1.246,0.294,1.246,1.074
					c0,0.762-0.485,1.433-1.268,1.592C109.206,267.738,108.698,267.271,108.698,266.512z"/>
				<path fill="#00F411" d="M113.072,265.613c0-0.781,0.527-1.439,1.267-1.591c0.74-0.153,1.248,0.293,1.248,1.074
					c0,0.76-0.486,1.43-1.268,1.592C113.579,266.841,113.072,266.374,113.072,265.613z"/>
				<path fill="#00F411" d="M117.444,264.714c0-0.781,0.528-1.438,1.268-1.59c0.74-0.152,1.247,0.293,1.247,1.074
					c0,0.761-0.486,1.431-1.268,1.593C117.952,265.942,117.444,265.478,117.444,264.714z"/>
				<path fill="#00F411" d="M121.818,263.815c0-0.779,0.528-1.438,1.268-1.59c0.74-0.152,1.246,0.293,1.246,1.072
					c0,0.764-0.485,1.432-1.267,1.594C122.325,265.043,121.818,264.577,121.818,263.815z"/>
				<path fill="#00F411" d="M126.191,262.918c0-0.781,0.529-1.438,1.268-1.59c0.74-0.153,1.247,0.292,1.247,1.073
					c0,0.762-0.486,1.433-1.268,1.592C126.699,264.146,126.191,263.681,126.191,262.918z"/>
				<path fill="#00F411" d="M130.565,262.021c0-0.779,0.527-1.438,1.267-1.592c0.739-0.15,1.247,0.295,1.247,1.075
					c0,0.761-0.486,1.431-1.268,1.593C131.072,263.248,130.565,262.781,130.565,262.021z"/>
				<path fill="#00F411" d="M134.938,261.122c0-0.782,0.527-1.439,1.267-1.592c0.74-0.151,1.248,0.294,1.248,1.074
					c0,0.761-0.486,1.432-1.269,1.593C135.445,262.351,134.938,261.883,134.938,261.122z"/>
			</g>
			<g>
				<path fill="#00F411" d="M78.084,288.188c0-0.782,0.527-1.439,1.267-1.594c0.74-0.15,1.247,0.295,1.247,1.075
					c0,0.763-0.486,1.433-1.268,1.59C78.591,289.416,78.084,288.949,78.084,288.188z"/>
				<path fill="#00F411" d="M82.457,287.289c0-0.781,0.529-1.438,1.269-1.591c0.739-0.151,1.246,0.293,1.246,1.074
					c0,0.762-0.486,1.432-1.267,1.593C82.965,288.517,82.457,288.051,82.457,287.289z"/>
				<path fill="#00F411" d="M86.831,286.394c0-0.779,0.528-1.438,1.268-1.593c0.74-0.151,1.246,0.293,1.246,1.074
					c0,0.763-0.485,1.431-1.268,1.592C87.339,287.619,86.831,287.151,86.831,286.394z"/>
				<path fill="#00F411" d="M91.205,285.493c0-0.781,0.527-1.44,1.267-1.592c0.74-0.152,1.247,0.293,1.247,1.074
					c0,0.763-0.486,1.433-1.268,1.592C91.711,286.72,91.205,286.254,91.205,285.493z"/>
				<path fill="#00F411" d="M95.578,284.594c0-0.78,0.528-1.438,1.267-1.592c0.74-0.149,1.247,0.296,1.247,1.076
					c0,0.761-0.486,1.432-1.268,1.591C96.084,285.821,95.578,285.356,95.578,284.594z"/>
				<path fill="#00F411" d="M99.951,283.697c0-0.782,0.528-1.44,1.268-1.593c0.74-0.151,1.247,0.295,1.247,1.076
					c0,0.76-0.486,1.43-1.268,1.59C100.458,284.925,99.951,284.457,99.951,283.697z"/>
				<path fill="#00F411" d="M104.324,282.799c0-0.78,0.529-1.44,1.269-1.593c0.739-0.15,1.246,0.294,1.246,1.075
					c0,0.763-0.486,1.433-1.267,1.593C104.832,284.024,104.324,283.56,104.324,282.799z"/>
				<path fill="#00F411" d="M108.698,281.899c0-0.78,0.528-1.438,1.268-1.592c0.74-0.15,1.246,0.293,1.246,1.072
					c0,0.764-0.485,1.436-1.268,1.594C109.206,283.126,108.698,282.662,108.698,281.899z"/>
				<path fill="#00F411" d="M113.072,281.003c0-0.783,0.527-1.439,1.267-1.592c0.74-0.152,1.248,0.293,1.248,1.074
					c0,0.761-0.486,1.431-1.268,1.593C113.579,282.229,113.072,281.763,113.072,281.003z"/>
				<path fill="#00F411" d="M117.444,280.104c0-0.782,0.528-1.441,1.268-1.596c0.74-0.148,1.247,0.297,1.247,1.075
					c0,0.763-0.486,1.433-1.268,1.593C117.952,281.33,117.444,280.864,117.444,280.104z"/>
				<path fill="#00F411" d="M121.818,279.205c0-0.781,0.528-1.438,1.268-1.593c0.74-0.151,1.246,0.295,1.246,1.076
					c0,0.761-0.485,1.432-1.267,1.592C122.325,280.433,121.818,279.965,121.818,279.205z"/>
				<path fill="#00F411" d="M126.191,278.308c0-0.781,0.529-1.438,1.268-1.592c0.74-0.152,1.247,0.294,1.247,1.075
					c0,0.76-0.486,1.431-1.268,1.591C126.699,279.535,126.191,279.067,126.191,278.308z"/>
				<path fill="#00F411" d="M130.565,277.407c0-0.781,0.527-1.438,1.267-1.59c0.739-0.151,1.247,0.293,1.247,1.074
					c0,0.76-0.486,1.432-1.268,1.592C131.072,278.636,130.565,278.17,130.565,277.407z"/>
				<path fill="#00F411" d="M134.938,276.51c0-0.78,0.527-1.438,1.267-1.591c0.74-0.152,1.248,0.293,1.248,1.075
					c0,0.761-0.486,1.43-1.269,1.591C135.445,277.735,134.938,277.271,134.938,276.51z"/>
			</g>
			<g>
				<path fill="#00F411" d="M78.084,280.831c0-0.78,0.527-1.439,1.267-1.591c0.74-0.152,1.247,0.293,1.247,1.073
					c0,0.763-0.486,1.433-1.268,1.593C78.591,282.06,78.084,281.592,78.084,280.831z"/>
				<path fill="#00F411" d="M84.401,279.533c0-0.781,0.528-1.44,1.268-1.591c0.74-0.153,1.247,0.291,1.247,1.074
					c0,0.762-0.486,1.431-1.268,1.592C84.908,280.76,84.401,280.295,84.401,279.533z"/>
				<path fill="#00F411" d="M90.719,278.235c0-0.782,0.527-1.438,1.267-1.592c0.74-0.151,1.247,0.293,1.247,1.072
					c0,0.766-0.486,1.434-1.268,1.596C91.226,279.463,90.719,278.997,90.719,278.235z"/>
				<path fill="#00F411" d="M97.036,276.938c0-0.78,0.528-1.438,1.268-1.595c0.739-0.146,1.247,0.296,1.247,1.077
					c0,0.762-0.487,1.432-1.268,1.594C97.543,278.165,97.036,277.699,97.036,276.938z"/>
				<path fill="#00F411" d="M103.353,275.642c0-0.783,0.529-1.438,1.267-1.593c0.74-0.151,1.248,0.294,1.248,1.075
					c0,0.761-0.486,1.432-1.268,1.592C103.86,276.868,103.353,276.401,103.353,275.642z"/>
				<path fill="#00F411" d="M109.67,274.343c0-0.781,0.528-1.438,1.268-1.59c0.74-0.154,1.247,0.292,1.247,1.075
					c0,0.759-0.486,1.43-1.268,1.59C110.178,275.569,109.67,275.104,109.67,274.343z"/>
				<path fill="#00F411" d="M115.988,273.046c0-0.783,0.529-1.439,1.268-1.592c0.74-0.151,1.247,0.293,1.247,1.074
					c0,0.763-0.486,1.431-1.269,1.593C116.495,274.272,115.988,273.806,115.988,273.046z"/>
				<path fill="#00F411" d="M122.305,271.747c0-0.781,0.528-1.438,1.268-1.592c0.74-0.151,1.246,0.294,1.246,1.076
					c0,0.761-0.485,1.432-1.267,1.591C122.812,272.976,122.305,272.51,122.305,271.747z"/>
				<path fill="#00F411" d="M128.623,270.451c0-0.781,0.528-1.44,1.268-1.593c0.74-0.151,1.246,0.293,1.246,1.074
					c0,0.76-0.485,1.433-1.268,1.592C129.129,271.678,128.623,271.211,128.623,270.451z"/>
				<path fill="#00F411" d="M134.939,269.151c0-0.78,0.529-1.438,1.269-1.592c0.739-0.15,1.247,0.295,1.247,1.074
					c0,0.764-0.487,1.434-1.268,1.594C135.447,270.379,134.939,269.915,134.939,269.151z"/>
			</g>
		</g>
	</g>
	<g>
		<path fill="#C4C4C4" d="M168.155,292.897L16.234,322.129c-0.922,2.42,0.671,4.704,3.177,6.3l83.909,53.446
			c2.505,1.596,6.908,2.403,9.835,1.804l63.885-13.077c-0.589-0.64-0.272-1.261,0.887-1.496l16.447-3.365
			c1.159-0.236,2.795-0.019,4.016,0.494l61.435-12.574c2.926-0.604,4.706-2.272,5.07-5.063l-86.904-53.893
			C175.485,293.104,171.082,292.297,168.155,292.897z"/>
		<g>
			<path fill="#A8A8A8" d="M198.39,366.23l0.386-0.079l-0.386-3.205l-3.16-0.585l0.098,3.278
				C196.333,365.63,197.479,365.85,198.39,366.23z"/>
			<path fill="#A8A8A8" d="M19.411,328.429l83.909,53.446c0.977,0.62,2.242,1.122,3.596,1.467l0.238-3.227l-78.157-60.443
				l-12.762,2.457C15.312,324.549,16.905,326.833,19.411,328.429z"/>
		</g>
		<path fill="#E8E8E8" d="M168.155,289.61L18.669,320.209c-2.926,0.6-3.268,2.379-0.762,3.977l85.412,54.403
			c2.505,1.596,6.908,2.404,9.835,1.804l63.885-13.073c-0.589-0.643-0.272-1.265,0.887-1.497l16.447-3.367
			c1.159-0.238,2.795-0.021,4.016,0.494l64.25-13.151c2.926-0.6,3.268-2.379,0.763-3.975l-85.413-54.404
			C175.485,289.821,171.082,289.012,168.155,289.61z"/>
		<polygon fill="#383838" points="135.177,299.521 58.791,315.156 55.035,312.768 131.423,297.13 		"/>
		<path fill="#AAAAAA" d="M209.345,322.662c1.249,0.795,1.079,1.68-0.379,1.979L82.32,350.566c-1.458,0.298-3.651-0.104-4.897-0.899
			l-35.234-22.442c-1.248-0.796-1.078-1.68,0.38-1.979l126.646-25.925c1.458-0.299,3.649,0.104,4.897,0.9L209.345,322.662z"/>
		<path fill="#C1C1C1" d="M198.042,353.406c1.296,0.825,1.12,1.745-0.395,2.055l-38.011,7.783c-1.514,0.31-3.791-0.108-5.087-0.938
			l-17.833-11.354c-1.297-0.827-1.12-1.747,0.395-2.061l38.01-7.776c1.514-0.312,3.792,0.104,5.088,0.933L198.042,353.406z"/>
	</g>
</g>
<g>
	<path fill="#FFFFFF" d="M394.025,330c-0.021-1-0.031-1.02-0.031-1.418c0-12.186,9.879-22.177,22.062-22.177
		c1.237,0,2.449,0.048,3.632,0.241c4.983-9.778,15.147-16.505,26.879-16.505c13.423,0,24.795,8.984,28.699,21.107
		c10.396,0.111,18.857,7.748,19.458,18.748L394.025,330L394.025,330z"/>
	<g>
		<g>
			<path fill="#95A5A6" d="M394.262,329.223c-0.031-1.667,0.271-3.303,0.59-4.91c0.424-1.806,0.633-3.724,1.454-5.453
				c1.546-3.56,4.413-6.365,7.554-8.478c2.912-1.881,6.187-3.223,9.652-3.771c0.865-0.137,1.745-0.178,2.622-0.248
				c0.878,0.013,1.767-0.021,2.644,0.097l0.639,0.062l0.155,0.019c0.055,0.012,0.104,0.017,0.119-0.051l0.146-0.279l0.616-1.15
				c0.438-0.77,0.924-1.512,1.432-2.231c3.56-4.912,8.633-8.625,14.271-10.642c5.656-2.012,11.822-2.33,17.729-1.127
				c5.816,1.217,11.021,4.646,14.712,9.172c1.584,1.949,3.047,4.002,4.19,6.231c0.328,0.536,0.547,1.126,0.827,1.688l0.397,0.851
				l0.333,0.879l0.369,0.971c0.083,0.211,0.153,0.438,0.247,0.629l0.683,0.032l1.021,0.047c0.312,0.008,0.622,0.031,0.929,0.087
				c6.024,0.66,11.735,4.363,14.663,9.812c0.78,1.331,1.289,2.799,1.727,4.273c0.172,0.747,0.342,1.504,0.445,2.265l0.108,1.074
				l0.024,0.253c-0.015,0.062,0.07,0.218-0.06,0.178l-0.513-0.005c-1.526-0.024-3.052-0.048-4.583-0.072
				c-1.543-0.046-3.088-0.092-4.645-0.139c-5.688-0.216-11.38,0.146-17.07,0.263c-5.204,0.104-10.391-0.165-15.591-0.165
				c-13.437,0-26.88,0.172-40.313-0.012c-2.938-0.04-5.875-0.249-8.804-0.537c-2.86-0.282-5.701-0.252-8.572-0.252
				c-0.523,0-0.523,0.895,0,0.895h5.362c1.993,0,4,0.43,5.989,0.586c3.825,0.306,7.649,0.391,11.481,0.391h22.253h17.011
				c2.319,0,4.643,0.16,6.966,0.158c2.652-0.003,5.308-0.104,7.959-0.167c2.503-0.101,5.052-0.198,7.554-0.298
				c3.645-0.104,7.293,0.194,10.938,0.194l2.586,0.002l1.462,0.001l1.09,0.001l0.271,0.001c0.081-0.009,0.226,0.038,0.17-0.092
				l-0.057-0.543l-0.193-1.845c-0.038-0.445-0.162-0.877-0.239-1.316c-0.143-0.885-0.442-1.729-0.695-2.586
				c-1.201-3.36-3.262-6.438-6.017-8.719c-2.021-1.706-4.384-2.996-6.895-3.784c-1.256-0.394-2.548-0.657-3.853-0.812
				c-0.322-0.062-0.652-0.061-0.979-0.079l-0.773-0.037c-0.188,0.051-0.188-0.153-0.25-0.277l-0.329-0.887
				c-0.945-2.416-2.144-4.738-3.614-6.888c-1.484-2.14-3.193-4.123-5.104-5.937c-4.391-4.187-10.381-6.519-16.35-6.946
				c-6.487-0.518-13.147,0.635-18.885,3.816c-2.646,1.449-5.102,3.271-7.237,5.429c-1.074,1.072-2.048,2.244-2.952,3.47
				c-0.446,0.614-0.845,1.267-1.266,1.898l-0.562,0.995l-0.138,0.25c-0.038,0.067-0.009,0.019-0.018,0.032
				c0.002-0.001,0.002-0.004,0.006-0.002l0.003,0.002l0.001,0.001c0.01,0.002,0.006,0.002-0.078-0.009l-0.728-0.08
				c-0.48-0.067-0.969-0.041-1.45-0.064c-0.969-0.062-1.938,0.081-2.897,0.132c-0.957,0.13-1.913,0.291-2.849,0.513
				c-0.926,0.273-1.866,0.484-2.749,0.878c-1.818,0.639-3.479,1.632-5.087,2.654l-1.148,0.863l-0.576,0.429l-0.536,0.479
				l-1.077,0.954l-0.995,1.041c-2.101,2.229-3.714,4.968-4.483,7.934c-0.204,0.62-0.248,1.271-0.382,1.894
				c-0.144,0.618-0.203,1.255-0.318,1.896c-0.067,0.349-0.138,0.698-0.208,1.051l-0.119,1.064c-0.078,0.712-0.158,1.43-0.125,2.144
				C393.321,329.795,394.27,329.739,394.262,329.223z"/>
		</g>
	</g>
</g>
<path fill="#FFFFFF" d="M46.07,129.213c-7.278,0-13.178,5.899-13.178,13.177c0,7.277,5.9,13.175,13.178,13.175
	c7.278,0,13.176-5.898,13.176-13.175C59.246,135.112,53.348,129.213,46.07,129.213z M46.064,132.976
	c2.042,0,3.699,1.655,3.699,3.697c0,2.041-1.656,3.697-3.699,3.697c-2.043,0-3.698-1.656-3.698-3.697
	C42.366,134.631,44.021,132.976,46.064,132.976z M38.66,150.367c0-4.703,3.556-8.516,7.368-8.516c3.812,0,7.369,3.811,7.369,8.516
	H38.66z"/>
</svg>
