<?xml version="1.0" encoding="utf-8"?>
<!-- Generator: Adobe Illustrator 16.0.0, SVG Export Plug-In . SVG Version: 6.00 Build 0)  -->
<!DOCTYPE svg PUBLIC "-//W3C//DTD SVG 1.1//EN" "http://www.w3.org/Graphics/SVG/1.1/DTD/svg11.dtd">
<svg version="1.1" id="Layer_1" xmlns="http://www.w3.org/2000/svg" xmlns:xlink="http://www.w3.org/1999/xlink" x="0px" y="0px"
	 width="524px" height="454.03px" viewBox="0 0 524 454.03" enable-background="new 0 0 524 454.03" xml:space="preserve">
<g>
	<circle fill="#BDE8EF" cx="226.213" cy="226.213" r="226.213"/>
	<circle fill="#BCD3D8" stroke="#95A5A6" stroke-width="0.2869" stroke-miterlimit="10" cx="226.214" cy="226.213" r="214.45"/>
	<g>
		<path fill="#FFFFFF" d="M0.471,304c-0.021,0-0.033-0.687-0.033-1.099c0-12.57,10.192-22.7,22.766-22.7
			c1.275,0,2.528,0.14,3.744,0.341c5.146-10.09,15.63-16.983,27.733-16.983c13.851,0,25.585,8.93,29.615,21.439
			C95.021,285.109,103.752,294,104.372,304H0.471z"/>
	</g>
	<g>
		<g>
			<polygon fill="#E8E8E8" points="196.603,238 141.738,238 135.458,327 203.216,327 			"/>
			<path fill="#474747" d="M285,285.43c0,4.277-1.236,8.57-5.673,8.57H58.439c-4.437,0-7.439-4.293-7.439-8.57V137.599
				c0-4.275,3.003-4.599,7.439-4.599h220.888c4.437,0,5.673,0.324,5.673,4.599V285.43z"/>
			<rect x="63" y="148" fill="#E6E6E6" width="209" height="132"/>
			<path fill="#7AC943" d="M171.681,138.167c0,1.295-1.048,2.346-2.346,2.346c-1.293,0-2.341-1.05-2.341-2.346
				c0-1.294,1.048-2.344,2.341-2.344C170.633,135.824,171.681,136.873,171.681,138.167z"/>
			<g>
				<g>
					<rect x="84" y="157" fill="#292621" width="167" height="115"/>
					<rect x="84" y="174" fill="#FCFCFC" width="167" height="98"/>
				</g>
				<g>
					<rect x="84" y="161" fill="#FF9300" width="9" height="5"/>
					<rect x="95" y="161" fill="#FFFFFF" width="16" height="5"/>
				</g>
			</g>
			<rect x="109" y="322" fill="#C9C9C9" width="118" height="5"/>
		</g>
		<circle fill="#FF9300" cx="168.855" cy="220.958" r="45.823"/>
		<circle fill="#292621" cx="121.878" cy="220.958" r="16.015"/>
		<g>
			<path fill="#FFFFFF" d="M146.238,232.877l-9.045-23.737h6.773l4.586,13.525c0.51,1.713,0.828,3.333,0.956,4.862h0.127
				c0.071-1.359,0.389-2.979,0.956-4.862l4.565-13.525h6.773l-9.045,23.737H146.238z"/>
			<path fill="#FFFFFF" d="M186.58,232.877h-6.476v-13.864c0-1.713-0.287-2.997-0.86-3.854c-0.573-0.856-1.476-1.284-2.707-1.284
				c-1.656,0-2.859,0.608-3.609,1.826c-0.75,1.218-1.125,3.221-1.125,6.009v11.168h-6.476V209.14h4.947l0.871,3.036h0.361
				c0.637-1.09,1.557-1.943,2.76-2.559s2.583-0.924,4.141-0.924c3.553,0,5.959,1.161,7.219,3.482h0.573
				c0.637-1.104,1.574-1.96,2.813-2.569c1.239-0.608,2.636-0.913,4.193-0.913c2.689,0,4.725,0.69,6.104,2.07
				c1.38,1.38,2.07,3.592,2.07,6.635v15.478h-6.497v-13.864c0-1.713-0.287-2.997-0.86-3.854c-0.573-0.856-1.476-1.284-2.708-1.284
				c-1.585,0-2.771,0.566-3.556,1.698c-0.786,1.133-1.179,2.93-1.179,5.393V232.877z"/>
		</g>
		<g>
			<g>
				<g>
					<path fill-rule="evenodd" clip-rule="evenodd" fill="#FFFFFF" d="M114.188,216.774v1.584h15.377v-1.584H114.188z
						 M124.981,219.866h-10.794v1.586h10.794V219.866z M114.188,224.496h15.377v-1.582h-15.377V224.496z M114.188,227.542h15.377
						v-1.537h-15.377V227.542z M114.188,230.636h9.246V229.1h-9.246V230.636z"/>
				</g>
			</g>
			<path fill-rule="evenodd" clip-rule="evenodd" fill="#F6921E" d="M114.169,210.593h15.417v4.626h-15.417V210.593z"/>
		</g>
	</g>
	<g>
		<path fill="#E8E8E8" d="M399,309.244c0,9.807-7.95,17.756-17.757,17.756h-66.486C304.95,327,297,319.051,297,309.244V105.756
			C297,95.95,304.95,88,314.757,88h66.486C391.05,88,399,95.95,399,105.756V309.244z"/>
		<g>
			<rect x="308" y="247" fill="#CCCCCC" width="80" height="3"/>
			<rect x="308" y="257" fill="#CCCCCC" width="80" height="2"/>
			<rect x="308" y="266" fill="#CCCCCC" width="80" height="4"/>
			<rect x="308" y="275" fill="#CCCCCC" width="80" height="4"/>
		</g>
		<g id="cloud_7_">
			<path fill="#CCCCCC" d="M358.933,183.447c-0.45,0-0.88,0.073-1.314,0.132c-1.66-2.939-4.734-4.901-8.224-4.901
				c-3.562,0-6.637,1.986-8.274,4.889c-0.421-0.057-0.84-0.12-1.266-0.12c-5.256,0-9.535,4.278-9.535,9.539
				c0,5.263,4.279,9.538,9.535,9.538h19.078c5.258,0,9.54-4.275,9.54-9.538C368.473,187.725,364.19,183.447,358.933,183.447z
				 M358.933,197.755h-19.078c-2.629,0-4.769-2.141-4.769-4.77c0-2.614,2.316-4.631,4.775-4.704
				c0.009,1.124,0.206,2.228,0.596,3.271l4.466-1.671c-0.2-0.53-0.297-1.091-0.297-1.666c0-2.629,2.137-4.77,4.769-4.77
				c1.542,0,2.938,0.765,3.815,1.955c-2.302,1.742-3.815,4.478-3.815,7.584h4.77c0-2.629,2.138-4.769,4.769-4.769
				c2.632,0,4.77,2.14,4.77,4.769C363.702,195.615,361.564,197.755,358.933,197.755z"/>
		</g>
		<g>
			<circle fill="#FF931E" cx="349.979" cy="225.236" r="10.73"/>
			<g>
				<g>
					<g>
						<path fill-rule="evenodd" clip-rule="evenodd" fill="#FFFFFF" d="M345.138,223.533v0.939h9.1v-0.939H345.138z
							 M351.522,225.364h-6.385v0.938h6.385V225.364z M345.138,228.104h9.1v-0.937h-9.1V228.104z M345.138,229.907h9.1v-0.909h-9.1
							V229.907z M345.138,231.736h5.47v-0.91h-5.47V231.736z"/>
					</g>
				</g>
				<path fill-rule="evenodd" clip-rule="evenodd" fill="#FFFFFF" d="M345.125,219.877h9.124v2.736h-9.124V219.877z"/>
			</g>
		</g>
		<g>
			<rect x="308" y="115" fill="#B3B3B3" width="80" height="14"/>
			<circle fill="#F2F2F2" cx="384.55" cy="121.852" r="1.303"/>
		</g>
		<g>
			<rect x="308" y="133" fill="#B3B3B3" width="80" height="14"/>
			<circle fill="#F2F2F2" cx="384.55" cy="139.738" r="1.303"/>
		</g>
		<path fill="#CCCCCC" d="M299.011,312c1.11,8,8.558,15,17.597,15h65.836c9.04,0,16.486-7,17.596-15H299.011z"/>
	</g>
	<g>
		<path fill="#FFFFFF" d="M279.418,355c-0.032-1-0.05-1.253-0.05-1.858c0-18.547,15.035-33.608,33.58-33.608
			c1.884,0,3.727,0.144,5.526,0.444c7.588-14.887,23.058-25.084,40.911-25.084c20.432,0,37.739,13.399,43.686,31.851
			C418.89,326.912,431.772,339,432.688,355H279.418z"/>
	</g>
	<g>
		<path fill="#FFFFFF" d="M42.515,372c-0.035-1-0.053-1.536-0.053-2.194c0-20.094,16.29-36.505,36.386-36.505
			c2.04,0,4.041,0.112,5.986,0.435c8.222-16.129,24.986-27.202,44.331-27.202c22.138,0,40.894,14.691,47.337,34.682
			c17.141,0.182,31.1,13.785,32.09,30.785H42.515z"/>
	</g>
	<path fill="#FF9300" d="M524,226.214c0-38.462-31.184-69.642-69.644-69.642c-38.465,0-69.645,31.18-69.645,69.642
		c0,38.462,31.18,69.642,69.645,69.642C492.816,295.855,524,264.676,524,226.214z"/>
	<g>
		<path fill="#FFFFFF" d="M429.864,220.309h-5.782v19.47h-6.68v-19.47h-3.68v-3.219l3.68-1.796v-1.796
			c0-2.789,0.687-4.825,2.059-6.11c1.372-1.285,3.57-1.927,6.592-1.927c2.308,0,4.358,0.343,6.154,1.029l-1.708,4.906
			c-1.344-0.423-2.584-0.635-3.723-0.635c-0.95,0-1.636,0.282-2.06,0.843c-0.423,0.562-0.635,1.281-0.635,2.157v1.533h5.782V220.309
			z"/>
		<path fill="#FFFFFF" d="M447.362,214.834c0.905,0,1.657,0.066,2.256,0.197l-0.504,6.264c-0.54-0.146-1.197-0.219-1.971-0.219
			c-2.132,0-3.793,0.547-4.982,1.643c-1.19,1.095-1.785,2.628-1.785,4.599v12.462h-6.68v-24.485h5.06l0.985,4.117h0.328
			c0.759-1.372,1.785-2.478,3.077-3.318C444.438,215.254,445.844,214.834,447.362,214.834z"/>
		<path fill="#FFFFFF" d="M465.146,240.218c-3.942,0-7.023-1.088-9.242-3.264c-2.22-2.176-3.329-5.256-3.329-9.243
			c0-4.103,1.025-7.274,3.077-9.516c2.051-2.241,4.888-3.362,8.509-3.362c3.46,0,6.153,0.985,8.081,2.957
			c1.927,1.971,2.891,4.694,2.891,8.169v3.241h-15.79c0.073,1.899,0.635,3.38,1.687,4.447c1.051,1.065,2.525,1.599,4.424,1.599
			c1.475,0,2.869-0.153,4.183-0.46c1.314-0.307,2.687-0.796,4.117-1.468v5.169c-1.168,0.584-2.416,1.019-3.745,1.303
			C468.679,240.075,467.058,240.218,465.146,240.218z M464.204,219.586c-1.417,0-2.526,0.449-3.329,1.347
			c-0.804,0.898-1.264,2.172-1.38,3.822h9.373c-0.029-1.649-0.46-2.924-1.292-3.822S465.62,219.586,464.204,219.586z"/>
		<path fill="#FFFFFF" d="M491.646,240.218c-3.942,0-7.023-1.088-9.242-3.264c-2.22-2.176-3.329-5.256-3.329-9.243
			c0-4.103,1.025-7.274,3.077-9.516c2.051-2.241,4.888-3.362,8.509-3.362c3.46,0,6.153,0.985,8.081,2.957
			c1.927,1.971,2.891,4.694,2.891,8.169v3.241h-15.79c0.073,1.899,0.635,3.38,1.687,4.447c1.051,1.065,2.525,1.599,4.424,1.599
			c1.475,0,2.869-0.153,4.183-0.46c1.314-0.307,2.687-0.796,4.117-1.468v5.169c-1.168,0.584-2.416,1.019-3.745,1.303
			C495.179,240.075,493.558,240.218,491.646,240.218z M490.704,219.586c-1.417,0-2.526,0.449-3.329,1.347
			c-0.804,0.898-1.264,2.172-1.38,3.822h9.373c-0.029-1.649-0.46-2.924-1.292-3.822S492.12,219.586,490.704,219.586z"/>
	</g>
</g>
<g>
</g>
<g>
</g>
<g>
</g>
<g>
</g>
<g>
</g>
<g>
</g>
<g>
</g>
<g>
</g>
<g>
</g>
<g>
</g>
<g>
</g>
<g>
</g>
<g>
</g>
<g>
</g>
<g>
</g>
</svg>
