<?xml version="1.0" encoding="utf-8"?>
<!-- Generator: Adobe Illustrator 16.0.0, SVG Export Plug-In . SVG Version: 6.00 Build 0)  -->
<!DOCTYPE svg PUBLIC "-//W3C//DTD SVG 1.1//EN" "http://www.w3.org/Graphics/SVG/1.1/DTD/svg11.dtd">
<svg version="1.1" id="Layer_1" xmlns="http://www.w3.org/2000/svg" xmlns:xlink="http://www.w3.org/1999/xlink" x="0px" y="0px"
	 width="560px" height="420.08px" viewBox="0 0 560 420.08" enable-background="new 0 0 560 420.08" xml:space="preserve">
<g>
	<path fill="#FFFFFF" stroke="#C4CECE" stroke-width="2" stroke-miterlimit="10" d="M181.195,239c0.034,0,0.052-1.349,0.052-1.995
		c0-19.771-16.028-35.835-35.801-35.835c-2.006,0-3.973,0.15-5.889,0.467c-8.09-15.866-24.583-26.743-43.615-26.743
		c-21.781,0-40.234,14.298-46.574,33.97C32.503,209.043,18.769,222,17.793,239H181.195z"/>
	<g>
		<g>
			<path fill="#C4C4C4" d="M341.562,242.259c0,3.98-3.229,7.869-7.211,8.686l-203.354,42.656c-3.981,0.814-7.706-2.744-7.706-6.728
				l0.994-135.733c0-3.982,3.228-7.872,7.209-8.688l202.357-41.662c3.981-0.817,8.205,1.75,8.205,5.732L341.562,242.259z"/>
			<path fill="#A8A8A8" d="M131.412,151.454l-6.814-2.479c-0.201,0.707-0.312,1.434-0.312,2.165l-0.994,135.733
				c0,3.981,3.725,7.542,7.706,6.728l3.179-0.668l7.51-5.578L131.412,151.454z"/>
			<path fill="#474747" d="M342,243.251c0,3.982-2.453,7.873-6.436,8.688L132.71,293.601c-3.982,0.814-6.711-1.75-6.711-5.729
				V152.132c0-3.981,3.117-7.87,7.098-8.686l202.522-41.661c3.98-0.817,6.38,1.749,6.38,5.731L342,243.251L342,243.251z"/>
			<polygon fill="#E6E6E6" points="331,241.675 137,281.097 137,158.785 331,119.363 			"/>
			<path fill="#7AC943" d="M236.456,130.173c0,1.188-0.964,2.349-2.153,2.591c-1.188,0.245-2.151-0.521-2.151-1.711
				c0-1.188,0.963-2.351,2.151-2.593C235.492,128.217,236.456,128.983,236.456,130.173z"/>
			<g>
				<g>
					<polygon fill="#292621" points="301,239.729 167,267.028 167,162.121 301,134.82 					"/>
					<polygon fill="#FCFCFC" points="301,239.729 195,261.222 195,169.737 301,148.244 					"/>
				</g>
				<path fill="#FF9300" d="M191.494,181.577c0,5.299-4.295,10.475-9.594,11.561c-5.3,1.085-9.595-2.331-9.595-7.628
					c0-5.301,4.295-10.476,9.595-11.562C187.199,172.861,191.494,176.276,191.494,181.577z"/>
				<g>
					<g>
						<path fill="#EADBCA" d="M229.95,184.14c0,6.123-4.962,12.103-11.085,13.356c-6.123,1.255-11.087-2.69-11.087-8.814
							c0-6.123,4.964-12.103,11.087-13.357C224.987,174.07,229.95,178.016,229.95,184.14z"/>
						<path fill="#F4EAE1" d="M261.026,177.772c0,6.124-4.964,12.104-11.086,13.357c-6.122,1.255-11.087-2.691-11.087-8.814
							s4.965-12.103,11.087-13.357C256.062,167.702,261.026,171.649,261.026,177.772z"/>
						<path fill="#EADBCA" d="M292.1,171.406c0,6.124-4.963,12.104-11.084,13.357c-6.124,1.254-11.089-2.691-11.089-8.814
							s4.965-12.104,11.089-13.357C287.137,161.336,292.1,165.283,292.1,171.406z"/>
					</g>
					<g>
						<path fill="#EADBCA" d="M229.95,210.492c0,6.121-4.962,12.101-11.085,13.354c-6.123,1.256-11.087-2.69-11.087-8.812
							c0-6.125,4.964-12.104,11.087-13.359C224.987,200.421,229.95,204.368,229.95,210.492z"/>
						<path fill="#F4EAE1" d="M261.026,204.124c0,6.123-4.964,12.104-11.086,13.355c-6.122,1.256-11.087-2.69-11.087-8.813
							s4.965-12.103,11.087-13.357S261.026,198,261.026,204.124z"/>
						<path fill="#EADBCA" d="M292.1,197.757c0,6.124-4.963,12.104-11.084,13.357c-6.124,1.257-11.089-2.691-11.089-8.814
							s4.965-12.104,11.089-13.357C287.137,187.688,292.1,191.634,292.1,197.757z"/>
					</g>
					<g>
						<path fill="#EADBCA" d="M229.95,236.843c0,6.122-4.962,12.104-11.085,13.357s-11.087-2.692-11.087-8.815
							s4.964-12.104,11.087-13.356C224.987,226.771,229.95,230.718,229.95,236.843z"/>
						<path fill="#F4EAE1" d="M261.026,230.478c0,6.121-4.964,12.103-11.086,13.356s-11.087-2.692-11.087-8.815
							s4.965-12.104,11.087-13.355C256.062,220.405,261.026,224.353,261.026,230.478z"/>
						<path fill="#EADBCA" d="M292.1,224.11c0,6.121-4.963,12.101-11.084,13.354c-6.124,1.258-11.089-2.689-11.089-8.812
							s4.965-12.104,11.089-13.357C287.137,214.039,292.1,217.985,292.1,224.11z"/>
					</g>
				</g>
				<g>
					<polygon fill="#FF9300" points="176,167.848 171,168.966 171,163.994 176,162.874 					"/>
					<polygon fill="#FFFFFF" points="192,164.587 177,167.439 177,162.466 192,159.614 					"/>
				</g>
				<g>
					<path fill="#FFE7CC" d="M182.405,183.529c-2.759,0.248-4.915,5.001-4.882,9.44c1.312,0.408,2.798,0.491,4.376,0.168
						c2.077-0.426,3.995-1.486,5.565-2.931C187.099,185.842,184.763,183.322,182.405,183.529z"/>
					<path fill="#FFE7CC" d="M182.224,176.126c-1.987,0.19-3.564,1.831-3.521,3.669c0.042,1.835,1.688,3.168,3.675,2.98
						c1.988-0.191,3.565-1.832,3.521-3.669C185.854,177.269,184.209,175.935,182.224,176.126z"/>
				</g>
			</g>
		</g>
		<g>
			<path fill="#C4C4C4" d="M334.788,256.613l-206.912,39.812c-1.254,3.297,0.914,6.406,4.327,8.579l114.282,72.793
				c3.411,2.174,9.409,3.274,13.396,2.456l87.01-17.809c-0.803-0.872-0.369-1.721,1.209-2.041l22.4-4.585
				c1.578-0.323,3.809-0.023,5.469,0.674l83.673-17.127c3.985-0.816,6.41-3.096,6.904-6.896L348.184,259.07
				C344.771,256.897,338.773,255.797,334.788,256.613z"/>
			<g>
				<path fill="#A8A8A8" d="M375.968,356.494l0.525-0.109l-0.525-4.366l-4.304-0.798l0.134,4.476
					C373.165,355.674,374.725,355.974,375.968,356.494z"/>
				<path fill="#A8A8A8" d="M132.202,305.006l114.282,72.793c1.33,0.848,3.054,1.527,4.897,1.999l0.324-4.396l-106.448-82.321
					l-17.381,3.346C126.621,299.722,128.79,302.833,132.202,305.006z"/>
			</g>
			<path fill="#E8E8E8" d="M334.788,252.138l-203.594,41.676c-3.986,0.816-4.452,3.24-1.039,5.414l116.33,74.099
				c3.411,2.175,9.409,3.271,13.396,2.458l87.01-17.812c-0.803-0.872-0.369-1.717,1.209-2.039l22.4-4.585
				c1.578-0.321,3.809-0.022,5.469,0.674l87.506-17.909c3.986-0.817,4.451-3.241,1.039-5.416l-116.328-74.098
				C344.771,252.424,338.773,251.322,334.788,252.138z"/>
			<polygon fill="#383838" points="289.875,265.636 185.836,286.931 180.722,283.677 284.761,262.379 			"/>
			<path fill="#AAAAAA" d="M390.891,297.151c1.698,1.084,1.467,2.289-0.519,2.697l-172.488,35.309
				c-1.985,0.405-4.972-0.146-6.67-1.227l-47.988-30.565c-1.7-1.083-1.468-2.287,0.517-2.694l172.489-35.309
				c1.982-0.406,4.97,0.142,6.67,1.225L390.891,297.151z"/>
			<path fill="#AAAAAA" d="M375.494,339.025c1.765,1.125,1.523,2.379-0.537,2.799l-51.771,10.599
				c-2.062,0.422-5.162-0.146-6.929-1.271l-24.288-15.472c-1.767-1.128-1.522-2.379,0.538-2.803l51.769-10.597
				c2.062-0.422,5.166,0.146,6.933,1.271L375.494,339.025z"/>
		</g>
	</g>
	<path fill="#FFFFFF" stroke="#C4CECE" stroke-width="3" stroke-miterlimit="10" d="M362.1,388.5c-0.035-2-0.057-1.59-0.057-2.303
		c0-21.793,17.667-39.551,39.462-39.551c2.212,0,4.379,0.14,6.491,0.485c8.917-17.485,27.095-29.489,48.074-29.489
		c24.008,0,44.348,15.856,51.335,37.54c18.589,0.195,33.726,15.314,34.802,33.314L362.1,388.5L362.1,388.5z"/>
	<g>
		<g>
			<polygon fill="#555A5B" points="153.989,335.891 41.772,355.909 41.92,256.833 154.137,236.815 			"/>
		</g>
		<g>
			<polygon fill="#34393A" points="149.787,332.927 45.985,351.443 46.123,259.798 149.924,241.278 			"/>
		</g>
		<g>
			<path fill="#00F411" d="M59.542,291.22c-0.001,0.385-0.122,0.739-0.361,1.063c-0.24,0.327-0.566,0.528-0.979,0.603
				c-0.413,0.073-0.738-0.01-0.977-0.251c-0.24-0.241-0.359-0.553-0.358-0.938c0-0.384,0.121-0.739,0.361-1.064
				s0.565-0.526,0.979-0.601c0.412-0.073,0.737,0.012,0.978,0.252C59.422,290.524,59.542,290.837,59.542,291.22z"/>
			<path fill="#00F411" d="M64.949,290.254c0,0.384-0.121,0.74-0.36,1.065c-0.241,0.328-0.566,0.527-0.979,0.603
				c-0.413,0.073-0.739-0.012-0.977-0.253c-0.24-0.24-0.359-0.553-0.358-0.938c0.001-0.383,0.121-0.738,0.361-1.063
				c0.24-0.326,0.566-0.526,0.979-0.603c0.412-0.071,0.738,0.011,0.978,0.252C64.831,289.56,64.95,289.873,64.949,290.254z"/>
			<path fill="#00F411" d="M70.358,289.289c0,0.385-0.121,0.739-0.36,1.065c-0.24,0.326-0.566,0.525-0.979,0.601
				s-0.739-0.009-0.978-0.252c-0.239-0.239-0.358-0.554-0.358-0.937c0.001-0.386,0.121-0.738,0.361-1.064
				c0.24-0.327,0.567-0.527,0.979-0.602c0.412-0.072,0.739,0.01,0.978,0.252C70.24,288.593,70.359,288.907,70.358,289.289z"/>
			<path fill="#00F411" d="M75.767,288.325c0,0.383-0.121,0.738-0.36,1.064c-0.24,0.323-0.566,0.524-0.979,0.601
				c-0.413,0.075-0.738-0.011-0.977-0.252c-0.24-0.24-0.359-0.554-0.359-0.938c0.001-0.383,0.121-0.736,0.361-1.062
				c0.239-0.329,0.565-0.527,0.978-0.604c0.413-0.072,0.738,0.014,0.979,0.251C75.648,287.63,75.768,287.94,75.767,288.325z"/>
			<path fill="#00F411" d="M81.176,287.358c0,0.386-0.12,0.74-0.36,1.063c-0.241,0.327-0.566,0.528-0.979,0.604
				c-0.413,0.074-0.738-0.01-0.977-0.254c-0.24-0.239-0.359-0.555-0.358-0.938s0.12-0.735,0.36-1.063
				c0.24-0.326,0.563-0.525,0.979-0.602s0.737,0.014,0.978,0.251C81.058,286.665,81.177,286.976,81.176,287.358z"/>
			<path fill="#00F411" d="M86.584,286.396c0,0.387-0.12,0.738-0.36,1.065c-0.24,0.327-0.567,0.527-0.979,0.603
				c-0.413,0.071-0.739-0.013-0.978-0.254c-0.239-0.242-0.359-0.553-0.359-0.938c0.002-0.382,0.122-0.736,0.361-1.064
				c0.24-0.324,0.566-0.524,0.979-0.599c0.412-0.075,0.738,0.01,0.977,0.251C86.466,285.701,86.585,286.012,86.584,286.396z"/>
			<path fill="#00F411" d="M91.994,285.433c-0.001,0.383-0.121,0.736-0.36,1.062c-0.24,0.329-0.567,0.527-0.979,0.604
				c-0.413,0.072-0.739-0.013-0.979-0.25c-0.239-0.242-0.358-0.557-0.358-0.938c0-0.385,0.121-0.738,0.361-1.064
				c0.24-0.324,0.566-0.524,0.979-0.601c0.412-0.073,0.738,0.012,0.977,0.252C91.875,284.733,91.994,285.048,91.994,285.433z"/>
			<path fill="#00F411" d="M97.403,284.465c-0.001,0.384-0.121,0.74-0.361,1.065c-0.24,0.328-0.566,0.529-0.979,0.601
				c-0.413,0.075-0.739-0.01-0.978-0.251c-0.239-0.24-0.358-0.553-0.358-0.938c0.001-0.385,0.121-0.737,0.361-1.065
				c0.24-0.326,0.566-0.524,0.979-0.601c0.412-0.071,0.738,0.012,0.977,0.252C97.284,283.771,97.404,284.083,97.403,284.465z"/>
			<path fill="#00F411" d="M102.812,283.501c0,0.384-0.121,0.74-0.361,1.062c-0.239,0.33-0.566,0.527-0.979,0.604
				c-0.412,0.073-0.738-0.011-0.978-0.253c-0.239-0.241-0.358-0.554-0.358-0.937c0.001-0.386,0.121-0.739,0.361-1.064
				c0.24-0.327,0.565-0.527,0.978-0.602c0.413-0.074,0.739,0.011,0.978,0.252C102.693,282.806,102.812,283.119,102.812,283.501z"/>
			<path fill="#00F411" d="M108.22,282.536c0,0.383-0.121,0.738-0.361,1.064c-0.24,0.323-0.566,0.524-0.978,0.603
				c-0.413,0.071-0.739-0.013-0.978-0.254c-0.239-0.24-0.358-0.554-0.358-0.938c0-0.382,0.121-0.736,0.361-1.062
				c0.24-0.325,0.566-0.526,0.979-0.602c0.412-0.074,0.738,0.01,0.979,0.25C108.101,281.841,108.221,282.151,108.22,282.536z"/>
			<path fill="#00F411" d="M113.629,281.569c-0.001,0.386-0.121,0.738-0.361,1.064c-0.24,0.326-0.566,0.527-0.979,0.604
				c-0.413,0.074-0.738-0.01-0.978-0.254c-0.238-0.238-0.357-0.553-0.357-0.938c0.001-0.384,0.121-0.736,0.361-1.062
				c0.239-0.326,0.566-0.526,0.979-0.604c0.413-0.07,0.739,0.012,0.978,0.251C113.51,280.876,113.629,281.188,113.629,281.569z"/>
			<path fill="#00F411" d="M119.038,280.606c-0.001,0.384-0.121,0.735-0.361,1.062c-0.24,0.325-0.566,0.525-0.979,0.602
				c-0.412,0.074-0.738-0.012-0.979-0.25c-0.239-0.242-0.355-0.558-0.355-0.938c0.001-0.383,0.121-0.735,0.361-1.063
				c0.24-0.326,0.567-0.522,0.979-0.6s0.738,0.01,0.977,0.25C118.919,279.91,119.038,280.224,119.038,280.606z"/>
			<path fill="#00F411" d="M124.446,279.642c-0.001,0.385-0.121,0.738-0.36,1.064c-0.24,0.327-0.566,0.527-0.979,0.602
				c-0.413,0.075-0.738-0.01-0.978-0.252c-0.239-0.24-0.358-0.554-0.358-0.938c0.001-0.383,0.121-0.738,0.361-1.064
				c0.24-0.326,0.566-0.525,0.979-0.601c0.413-0.073,0.739,0.01,0.978,0.252C124.328,278.944,124.447,279.258,124.446,279.642z"/>
			<path fill="#00F411" d="M129.856,278.676c-0.001,0.384-0.122,0.74-0.361,1.065c-0.24,0.326-0.566,0.527-0.978,0.601
				c-0.414,0.073-0.739-0.011-0.978-0.253c-0.239-0.238-0.358-0.551-0.358-0.936s0.12-0.737,0.36-1.065
				c0.239-0.325,0.566-0.526,0.979-0.599c0.412-0.075,0.738,0.01,0.978,0.252C129.737,277.979,129.856,278.294,129.856,278.676z"/>
			<path fill="#00F411" d="M135.264,277.711c0,0.386-0.121,0.741-0.36,1.065c-0.24,0.328-0.566,0.525-0.979,0.602
				c-0.413,0.073-0.738-0.011-0.978-0.253c-0.238-0.241-0.357-0.553-0.357-0.937c0-0.383,0.12-0.739,0.36-1.064
				c0.24-0.326,0.566-0.527,0.979-0.6c0.413-0.076,0.738,0.01,0.979,0.25C135.146,277.017,135.265,277.33,135.264,277.711z"/>
			<path fill="#00F411" d="M140.672,276.747c0,0.383-0.12,0.738-0.36,1.064c-0.24,0.324-0.566,0.524-0.979,0.602
				c-0.413,0.072-0.738-0.012-0.978-0.252c-0.24-0.241-0.358-0.553-0.358-0.938c0-0.387,0.121-0.738,0.36-1.065
				c0.24-0.326,0.566-0.527,0.979-0.601c0.413-0.074,0.738,0.01,0.977,0.25C140.555,276.052,140.673,276.363,140.672,276.747z"/>
		</g>
		<g>
			<path fill="#00F411" d="M59.525,301.968c-0.001,0.385-0.121,0.739-0.362,1.065c-0.24,0.325-0.566,0.526-0.979,0.602
				c-0.413,0.073-0.738-0.012-0.977-0.252c-0.239-0.241-0.359-0.556-0.358-0.938c0-0.385,0.122-0.735,0.361-1.062
				c0.24-0.328,0.566-0.524,0.979-0.604c0.412-0.069,0.738,0.014,0.977,0.255C59.406,301.271,59.526,301.584,59.525,301.968z"/>
			<path fill="#00F411" d="M65.792,300.851c0,0.383-0.121,0.738-0.36,1.065c-0.24,0.326-0.566,0.526-0.978,0.601
				c-0.413,0.073-0.739-0.012-0.979-0.252c-0.239-0.242-0.358-0.555-0.358-0.938c0.001-0.383,0.122-0.736,0.361-1.064
				c0.24-0.326,0.566-0.527,0.979-0.601c0.413-0.074,0.738,0.01,0.977,0.253C65.673,300.153,65.793,300.467,65.792,300.851z"/>
			<path fill="#00F411" d="M72.059,299.731c-0.001,0.383-0.12,0.736-0.36,1.063c-0.241,0.327-0.566,0.524-0.979,0.603
				c-0.413,0.073-0.738-0.012-0.977-0.25c-0.24-0.242-0.359-0.558-0.358-0.938c0-0.383,0.12-0.737,0.36-1.063
				c0.24-0.324,0.565-0.525,0.979-0.602c0.413-0.075,0.737,0.01,0.977,0.251C71.941,299.036,72.06,299.349,72.059,299.731z"/>
			<path fill="#00F411" d="M78.326,298.614c0,0.383-0.121,0.738-0.361,1.062c-0.239,0.326-0.566,0.526-0.978,0.602
				c-0.413,0.074-0.739-0.01-0.979-0.25c-0.24-0.241-0.359-0.555-0.358-0.938c0.001-0.386,0.121-0.737,0.361-1.063
				c0.241-0.328,0.567-0.528,0.979-0.604c0.413-0.071,0.739,0.015,0.978,0.253C78.208,297.917,78.326,298.229,78.326,298.614z"/>
			<path fill="#00F411" d="M84.593,297.495c-0.001,0.384-0.121,0.74-0.361,1.066c-0.24,0.322-0.566,0.523-0.979,0.601
				c-0.413,0.073-0.739-0.013-0.978-0.253c-0.239-0.239-0.358-0.553-0.358-0.938c0.001-0.385,0.121-0.738,0.361-1.063
				c0.24-0.328,0.567-0.526,0.979-0.601c0.412-0.076,0.738,0.01,0.977,0.25C84.474,296.801,84.594,297.112,84.593,297.495z"/>
			<path fill="#00F411" d="M90.86,296.378c-0.001,0.384-0.122,0.738-0.361,1.064c-0.24,0.328-0.567,0.524-0.979,0.603
				c-0.413,0.072-0.739-0.012-0.978-0.253s-0.358-0.553-0.358-0.938c0.001-0.383,0.122-0.737,0.361-1.064
				c0.24-0.327,0.566-0.525,0.979-0.6c0.412-0.075,0.738,0.01,0.978,0.252C90.741,295.685,90.861,295.995,90.86,296.378z"/>
			<path fill="#00F411" d="M97.127,295.261c0,0.383-0.121,0.739-0.36,1.064c-0.24,0.326-0.566,0.527-0.979,0.601
				c-0.413,0.075-0.738-0.011-0.978-0.251c-0.239-0.24-0.358-0.555-0.358-0.938c0.001-0.385,0.121-0.738,0.36-1.065
				c0.241-0.325,0.566-0.524,0.979-0.601c0.413-0.074,0.738,0.012,0.978,0.25C97.008,294.565,97.128,294.877,97.127,295.261z"/>
			<path fill="#00F411" d="M103.394,294.144c0,0.383-0.12,0.737-0.36,1.063c-0.24,0.327-0.566,0.526-0.979,0.603
				c-0.413,0.072-0.737-0.013-0.977-0.252c-0.24-0.24-0.359-0.555-0.358-0.938c0.001-0.385,0.12-0.739,0.361-1.064
				c0.24-0.328,0.565-0.527,0.979-0.602c0.412-0.073,0.737,0.01,0.977,0.251C103.276,293.447,103.395,293.758,103.394,294.144z"/>
			<path fill="#00F411" d="M109.662,293.024c-0.001,0.384-0.122,0.735-0.361,1.063c-0.24,0.326-0.566,0.524-0.978,0.601
				c-0.413,0.072-0.738-0.012-0.979-0.25c-0.24-0.241-0.355-0.556-0.355-0.938c0.001-0.383,0.122-0.738,0.361-1.065
				c0.24-0.326,0.566-0.525,0.979-0.602s0.738,0.012,0.978,0.253C109.542,292.33,109.662,292.642,109.662,293.024z"/>
			<path fill="#00F411" d="M115.928,291.903c0,0.385-0.121,0.742-0.36,1.065c-0.241,0.327-0.566,0.527-0.979,0.604
				c-0.413,0.073-0.738-0.011-0.978-0.251c-0.239-0.242-0.358-0.553-0.357-0.938c0-0.385,0.121-0.737,0.361-1.065
				c0.239-0.324,0.566-0.525,0.979-0.602c0.413-0.072,0.738,0.014,0.979,0.252C115.81,291.21,115.929,291.522,115.928,291.903z"/>
			<path fill="#00F411" d="M122.195,290.788c-0.001,0.383-0.121,0.738-0.361,1.064c-0.239,0.324-0.566,0.526-0.979,0.601
				c-0.413,0.075-0.738-0.011-0.977-0.249c-0.24-0.242-0.359-0.557-0.358-0.938c0-0.388,0.121-0.74,0.36-1.064
				c0.241-0.328,0.566-0.527,0.979-0.602c0.413-0.072,0.739,0.01,0.978,0.252C122.077,290.093,122.196,290.403,122.195,290.788z"/>
			<path fill="#00F411" d="M128.463,289.671c0,0.382-0.121,0.738-0.361,1.064s-0.566,0.524-0.979,0.601
				c-0.412,0.073-0.738-0.01-0.978-0.252c-0.238-0.24-0.358-0.554-0.358-0.938c0.001-0.383,0.121-0.733,0.361-1.062
				c0.24-0.327,0.566-0.524,0.979-0.603c0.412-0.071,0.738,0.012,0.977,0.252C128.344,288.976,128.463,289.287,128.463,289.671z"/>
			<path fill="#00F411" d="M134.729,288.554c-0.001,0.383-0.12,0.738-0.36,1.063c-0.24,0.327-0.566,0.526-0.979,0.602
				c-0.413,0.072-0.739-0.012-0.978-0.253c-0.239-0.24-0.358-0.553-0.358-0.938c0.001-0.383,0.122-0.737,0.36-1.064
				c0.241-0.324,0.567-0.525,0.98-0.6c0.412-0.074,0.738,0.01,0.977,0.251C134.611,287.856,134.73,288.17,134.729,288.554z"/>
			<path fill="#00F411" d="M140.997,287.435c-0.001,0.383-0.121,0.738-0.36,1.064c-0.24,0.327-0.567,0.527-0.979,0.602
				c-0.413,0.074-0.739-0.011-0.977-0.252c-0.24-0.24-0.358-0.553-0.357-0.937c0-0.384,0.12-0.738,0.36-1.065
				c0.24-0.324,0.566-0.525,0.979-0.602c0.412-0.071,0.738,0.012,0.978,0.253C140.878,286.739,140.997,287.051,140.997,287.435z"/>
		</g>
		<g>
			<path fill="#00F411" d="M59.472,337.605c-0.001,0.385-0.121,0.737-0.361,1.063c-0.24,0.326-0.567,0.527-0.979,0.604
				c-0.413,0.069-0.738-0.015-0.977-0.254c-0.239-0.24-0.359-0.555-0.358-0.938c0.001-0.381,0.121-0.736,0.361-1.064
				c0.239-0.323,0.566-0.521,0.979-0.599c0.413-0.075,0.739,0.01,0.979,0.25C59.353,336.912,59.472,337.224,59.472,337.605z"/>
			<path fill="#00F411" d="M65.739,336.488c-0.001,0.385-0.122,0.74-0.362,1.063c-0.24,0.326-0.566,0.526-0.979,0.604
				c-0.412,0.073-0.738-0.011-0.978-0.252c-0.238-0.241-0.358-0.558-0.357-0.938c0-0.384,0.121-0.736,0.36-1.062
				c0.241-0.326,0.566-0.527,0.979-0.603c0.413-0.074,0.739,0.011,0.978,0.251C65.62,335.793,65.739,336.105,65.739,336.488z"/>
			<path fill="#00F411" d="M72.006,335.37c-0.001,0.384-0.121,0.739-0.361,1.062c-0.24,0.328-0.566,0.528-0.979,0.604
				s-0.738-0.01-0.978-0.251c-0.239-0.24-0.358-0.555-0.358-0.938c0.001-0.384,0.122-0.736,0.361-1.062
				c0.239-0.326,0.566-0.527,0.979-0.604c0.412-0.069,0.738,0.015,0.978,0.252C71.887,334.675,72.006,334.986,72.006,335.37z"/>
			<path fill="#00F411" d="M78.272,334.253c-0.001,0.385-0.12,0.739-0.36,1.063c-0.24,0.325-0.566,0.526-0.979,0.602
				c-0.413,0.074-0.738-0.01-0.978-0.25c-0.239-0.242-0.358-0.554-0.357-0.938c0-0.385,0.12-0.737,0.36-1.065
				c0.24-0.326,0.565-0.526,0.979-0.601c0.412-0.072,0.738,0.012,0.978,0.252C78.154,333.557,78.273,333.869,78.272,334.253z"/>
			<path fill="#00F411" d="M84.54,333.135c0,0.385-0.122,0.738-0.361,1.064c-0.24,0.328-0.563,0.529-0.979,0.602
				c-0.413,0.074-0.738-0.011-0.977-0.253c-0.24-0.239-0.359-0.553-0.358-0.937c0.001-0.383,0.121-0.738,0.36-1.065
				c0.24-0.325,0.566-0.526,0.979-0.6c0.412-0.073,0.737,0.01,0.977,0.252C84.421,332.439,84.54,332.751,84.54,333.135z"/>
			<path fill="#00F411" d="M90.807,332.018c-0.001,0.385-0.122,0.738-0.361,1.063c-0.24,0.329-0.566,0.527-0.979,0.602
				c-0.412,0.074-0.738-0.01-0.977-0.252c-0.239-0.241-0.359-0.553-0.358-0.938c0.001-0.382,0.122-0.737,0.362-1.065
				c0.239-0.326,0.565-0.522,0.979-0.6c0.412-0.072,0.738,0.011,0.977,0.25C90.688,331.321,90.808,331.634,90.807,332.018z"/>
			<path fill="#00F411" d="M97.074,330.899c-0.001,0.383-0.122,0.736-0.362,1.062c-0.239,0.328-0.566,0.526-0.978,0.603
				c-0.414,0.072-0.739-0.015-0.978-0.253c-0.239-0.239-0.358-0.555-0.357-0.938c0-0.384,0.121-0.739,0.36-1.065
				c0.24-0.323,0.566-0.522,0.979-0.601c0.413-0.073,0.738,0.011,0.977,0.251C96.955,330.203,97.074,330.516,97.074,330.899z"/>
			<path fill="#00F411" d="M103.341,329.78c-0.001,0.386-0.121,0.735-0.361,1.062s-0.566,0.527-0.978,0.604
				c-0.413,0.074-0.738-0.015-0.979-0.253c-0.238-0.241-0.358-0.556-0.357-0.938c0-0.383,0.121-0.738,0.36-1.062
				c0.24-0.326,0.566-0.526,0.979-0.604s0.738,0.011,0.977,0.251C103.223,329.086,103.342,329.396,103.341,329.78z"/>
			<path fill="#00F411" d="M109.608,328.662c-0.001,0.385-0.121,0.74-0.361,1.066c-0.24,0.323-0.566,0.524-0.978,0.6
				c-0.413,0.074-0.739-0.01-0.979-0.251c-0.238-0.241-0.358-0.556-0.357-0.938c0.001-0.382,0.12-0.733,0.36-1.062
				c0.24-0.326,0.566-0.525,0.979-0.603c0.413-0.072,0.738,0.014,0.977,0.251C109.49,327.967,109.608,328.28,109.608,328.662z"/>
			<path fill="#00F411" d="M115.875,327.544c-0.001,0.383-0.121,0.741-0.361,1.065c-0.239,0.328-0.566,0.525-0.979,0.603
				c-0.412,0.072-0.738-0.01-0.977-0.254c-0.239-0.239-0.359-0.553-0.358-0.937c0-0.384,0.121-0.736,0.361-1.064
				c0.24-0.326,0.566-0.527,0.979-0.6c0.412-0.074,0.738,0.01,0.978,0.25C115.756,326.849,115.875,327.162,115.875,327.544z"/>
			<path fill="#00F411" d="M122.142,326.427c0,0.386-0.121,0.739-0.36,1.065c-0.241,0.327-0.566,0.523-0.979,0.602
				c-0.412,0.073-0.738-0.012-0.977-0.252c-0.239-0.24-0.358-0.555-0.357-0.938c0-0.383,0.12-0.737,0.361-1.063
				c0.239-0.328,0.566-0.524,0.979-0.601s0.738,0.01,0.978,0.251C122.023,325.73,122.143,326.043,122.142,326.427z"/>
			<path fill="#00F411" d="M128.409,325.308c-0.001,0.389-0.121,0.74-0.361,1.065c-0.239,0.328-0.566,0.529-0.979,0.602
				c-0.413,0.074-0.739-0.01-0.977-0.251c-0.24-0.238-0.359-0.555-0.358-0.938c0-0.383,0.121-0.738,0.36-1.064
				c0.239-0.325,0.567-0.523,0.979-0.601c0.412-0.073,0.738,0.012,0.978,0.252C128.291,324.613,128.41,324.926,128.409,325.308z"/>
			<path fill="#00F411" d="M134.676,324.191c0,0.382-0.121,0.735-0.361,1.062c-0.24,0.329-0.566,0.527-0.979,0.604
				c-0.413,0.07-0.738-0.014-0.978-0.254c-0.239-0.239-0.358-0.555-0.358-0.938c0.001-0.382,0.121-0.736,0.36-1.066
				c0.241-0.323,0.567-0.522,0.98-0.599c0.412-0.073,0.738,0.01,0.977,0.252C134.558,323.495,134.677,323.808,134.676,324.191z"/>
			<path fill="#00F411" d="M140.943,323.073c-0.001,0.383-0.12,0.739-0.361,1.062c-0.24,0.329-0.565,0.527-0.978,0.604
				c-0.413,0.073-0.739-0.011-0.978-0.252s-0.358-0.556-0.357-0.938c0-0.384,0.12-0.738,0.36-1.062
				c0.24-0.328,0.565-0.527,0.979-0.604c0.412-0.074,0.738,0.011,0.977,0.25C140.825,322.378,140.944,322.689,140.943,323.073z"/>
		</g>
		<g>
			<path fill="#00F411" d="M59.505,314.979c-0.001,0.385-0.121,0.739-0.361,1.064c-0.24,0.327-0.566,0.527-0.979,0.602
				c-0.413,0.072-0.738-0.012-0.977-0.252c-0.239-0.238-0.358-0.554-0.358-0.938c0.001-0.384,0.122-0.738,0.361-1.065
				c0.24-0.325,0.566-0.524,0.979-0.6c0.412-0.074,0.738,0.01,0.977,0.25C59.387,314.283,59.506,314.594,59.505,314.979z"/>
			<path fill="#00F411" d="M64.914,314.014c-0.001,0.387-0.121,0.739-0.361,1.065c-0.239,0.327-0.562,0.526-0.978,0.601
				c-0.414,0.075-0.739-0.01-0.978-0.251c-0.239-0.241-0.359-0.553-0.357-0.937c0-0.384,0.12-0.739,0.36-1.065
				c0.24-0.327,0.566-0.524,0.979-0.601c0.412-0.075,0.737,0.01,0.977,0.251C64.795,313.319,64.916,313.63,64.914,314.014z"/>
			<path fill="#00F411" d="M70.323,313.05c0,0.384-0.122,0.739-0.361,1.065c-0.24,0.325-0.566,0.522-0.979,0.6
				c-0.412,0.074-0.738-0.01-0.978-0.25c-0.238-0.244-0.358-0.556-0.358-0.938c0.001-0.387,0.122-0.739,0.361-1.065
				c0.24-0.326,0.566-0.526,0.978-0.601c0.413-0.073,0.739,0.01,0.978,0.251C70.204,312.354,70.323,312.666,70.323,313.05z"/>
			<path fill="#00F411" d="M75.732,312.084c-0.001,0.384-0.122,0.738-0.362,1.065c-0.239,0.323-0.566,0.524-0.979,0.6
				c-0.413,0.074-0.738-0.01-0.977-0.251c-0.239-0.241-0.359-0.553-0.358-0.936c0-0.387,0.121-0.739,0.361-1.066
				s0.566-0.525,0.979-0.6c0.412-0.073,0.738,0.01,0.977,0.25C75.613,311.39,75.732,311.701,75.732,312.084z"/>
			<path fill="#00F411" d="M81.141,311.12c-0.001,0.382-0.122,0.738-0.362,1.062c-0.239,0.326-0.566,0.527-0.979,0.602
				c-0.413,0.075-0.738-0.009-0.977-0.25c-0.239-0.241-0.359-0.556-0.358-0.938c0.001-0.382,0.121-0.735,0.362-1.062
				c0.238-0.326,0.565-0.527,0.978-0.604c0.412-0.07,0.737,0.013,0.977,0.252C81.022,310.426,81.142,310.735,81.141,311.12z"/>
			<path fill="#00F411" d="M86.549,310.155c0,0.382-0.121,0.735-0.36,1.062c-0.24,0.327-0.566,0.527-0.979,0.604
				c-0.413,0.068-0.739-0.016-0.977-0.253c-0.239-0.241-0.359-0.558-0.358-0.938s0.121-0.737,0.362-1.062
				c0.239-0.328,0.563-0.527,0.979-0.604c0.412-0.075,0.738,0.011,0.977,0.252C86.431,309.459,86.551,309.771,86.549,310.155z"/>
			<path fill="#00F411" d="M91.958,309.191c0,0.382-0.121,0.733-0.36,1.062c-0.24,0.327-0.567,0.525-0.979,0.604
				c-0.413,0.07-0.738-0.014-0.977-0.253c-0.24-0.239-0.359-0.556-0.358-0.938c0.001-0.385,0.121-0.738,0.361-1.066
				c0.241-0.323,0.566-0.524,0.979-0.6c0.412-0.074,0.738,0.01,0.977,0.25C91.839,308.493,91.958,308.806,91.958,309.191z"/>
			<path fill="#00F411" d="M97.367,308.225c-0.001,0.387-0.121,0.739-0.36,1.065c-0.239,0.326-0.566,0.528-0.979,0.601
				c-0.413,0.074-0.739-0.01-0.977-0.251c-0.24-0.239-0.359-0.555-0.358-0.937c0-0.385,0.121-0.739,0.361-1.065
				c0.24-0.327,0.566-0.524,0.979-0.603c0.413-0.071,0.739,0.013,0.978,0.253C97.248,307.529,97.368,307.842,97.367,308.225z"/>
			<path fill="#00F411" d="M102.775,307.261c0,0.384-0.121,0.737-0.36,1.065c-0.24,0.326-0.567,0.522-0.979,0.6
				c-0.413,0.074-0.738-0.012-0.977-0.25c-0.24-0.243-0.359-0.555-0.359-0.938c0.001-0.383,0.121-0.737,0.361-1.065
				s0.566-0.526,0.979-0.601c0.413-0.072,0.738,0.011,0.978,0.252C102.657,306.564,102.776,306.876,102.775,307.261z"/>
			<path fill="#00F411" d="M108.185,306.295c-0.001,0.384-0.121,0.738-0.36,1.065c-0.24,0.325-0.567,0.524-0.979,0.6
				c-0.413,0.074-0.738-0.01-0.978-0.251c-0.239-0.24-0.358-0.553-0.357-0.938c0-0.386,0.121-0.737,0.36-1.063
				c0.24-0.328,0.566-0.527,0.979-0.602c0.413-0.073,0.738,0.009,0.978,0.252C108.065,305.601,108.185,305.912,108.185,306.295z"/>
			<path fill="#00F411" d="M113.593,305.331c-0.001,0.382-0.121,0.737-0.36,1.065c-0.24,0.323-0.567,0.522-0.979,0.599
				c-0.413,0.073-0.738-0.01-0.978-0.25c-0.24-0.24-0.358-0.555-0.357-0.938c0-0.386,0.121-0.74,0.36-1.065
				c0.24-0.326,0.563-0.526,0.979-0.601c0.412-0.074,0.738,0.01,0.977,0.252C113.475,304.635,113.594,304.948,113.593,305.331z"/>
			<path fill="#00F411" d="M119.002,304.366c-0.001,0.383-0.12,0.736-0.36,1.064c-0.239,0.323-0.566,0.523-0.979,0.601
				c-0.413,0.072-0.739-0.01-0.978-0.253c-0.239-0.239-0.358-0.553-0.357-0.938c0-0.383,0.121-0.735,0.36-1.062
				c0.24-0.328,0.566-0.526,0.979-0.604c0.413-0.071,0.738,0.013,0.977,0.251C118.883,303.671,119.003,303.979,119.002,304.366z"/>
			<path fill="#00F411" d="M124.411,303.399c0,0.384-0.121,0.74-0.361,1.062c-0.24,0.328-0.566,0.528-0.978,0.604
				c-0.413,0.072-0.739-0.01-0.979-0.254c-0.238-0.24-0.358-0.554-0.357-0.938c0-0.384,0.121-0.736,0.36-1.064
				c0.24-0.326,0.566-0.525,0.979-0.601c0.412-0.074,0.738,0.01,0.977,0.251C124.292,302.705,124.411,303.017,124.411,303.399z"/>
			<path fill="#00F411" d="M129.82,302.437c-0.001,0.383-0.121,0.737-0.361,1.064c-0.24,0.326-0.567,0.525-0.979,0.602
				c-0.413,0.072-0.739-0.011-0.978-0.252c-0.239-0.244-0.358-0.555-0.357-0.938c0-0.385,0.121-0.738,0.36-1.064
				c0.24-0.326,0.566-0.524,0.979-0.601c0.413-0.074,0.738,0.01,0.977,0.251C129.701,301.741,129.82,302.052,129.82,302.437z"/>
			<path fill="#00F411" d="M135.229,301.47c-0.001,0.387-0.121,0.74-0.362,1.065c-0.239,0.327-0.565,0.526-0.979,0.601
				c-0.412,0.073-0.738-0.01-0.977-0.251c-0.239-0.239-0.358-0.553-0.358-0.937c0.001-0.385,0.121-0.739,0.36-1.065
				c0.241-0.325,0.567-0.526,0.979-0.6c0.413-0.074,0.739,0.01,0.978,0.25C135.11,300.774,135.229,301.088,135.229,301.47z"/>
			<path fill="#00F411" d="M140.637,300.506c0,0.384-0.12,0.74-0.36,1.065c-0.241,0.326-0.567,0.527-0.979,0.601
				c-0.413,0.073-0.739-0.011-0.978-0.251c-0.239-0.242-0.358-0.556-0.358-0.938c0.001-0.383,0.121-0.737,0.362-1.064
				c0.239-0.327,0.566-0.525,0.979-0.602c0.412-0.072,0.738,0.01,0.979,0.252C140.519,299.81,140.638,300.123,140.637,300.506z"/>
		</g>
		<g>
			<path fill="#00F411" d="M59.49,325.729c0,0.385-0.122,0.737-0.362,1.063s-0.566,0.527-0.979,0.602
				c-0.412,0.074-0.737-0.011-0.977-0.253c-0.239-0.237-0.358-0.553-0.358-0.936s0.121-0.739,0.361-1.064
				c0.24-0.328,0.566-0.524,0.979-0.602c0.412-0.074,0.738,0.01,0.978,0.25C59.371,325.032,59.49,325.344,59.49,325.729z"/>
			<path fill="#00F411" d="M65.756,324.61c0,0.382-0.121,0.733-0.36,1.062c-0.24,0.329-0.566,0.527-0.979,0.604
				c-0.413,0.069-0.738-0.013-0.978-0.252c-0.238-0.241-0.358-0.557-0.357-0.938c0-0.384,0.121-0.737,0.361-1.062
				c0.24-0.326,0.566-0.526,0.979-0.603c0.412-0.074,0.738,0.011,0.977,0.253C65.638,323.914,65.757,324.227,65.756,324.61z"/>
			<path fill="#00F411" d="M72.023,323.49c0,0.386-0.12,0.738-0.361,1.062c-0.239,0.328-0.566,0.528-0.978,0.604
				c-0.414,0.071-0.739-0.013-0.978-0.253s-0.358-0.556-0.358-0.938s0.121-0.737,0.361-1.062c0.239-0.325,0.565-0.526,0.979-0.603
				c0.412-0.072,0.738,0.014,0.977,0.25C71.905,322.796,72.024,323.109,72.023,323.49z"/>
			<path fill="#00F411" d="M78.291,322.373c0,0.384-0.121,0.74-0.361,1.064c-0.239,0.324-0.566,0.525-0.978,0.601
				c-0.413,0.076-0.739-0.01-0.979-0.251c-0.238-0.241-0.358-0.553-0.357-0.938c0.001-0.383,0.12-0.736,0.36-1.062
				c0.24-0.327,0.566-0.525,0.979-0.604c0.412-0.069,0.738,0.013,0.977,0.253C78.171,321.677,78.291,321.99,78.291,322.373z"/>
			<path fill="#00F411" d="M84.557,321.255c0,0.383-0.12,0.738-0.36,1.065c-0.241,0.326-0.566,0.525-0.979,0.601
				c-0.413,0.074-0.738-0.011-0.978-0.253c-0.239-0.238-0.358-0.553-0.357-0.936c0.001-0.386,0.121-0.737,0.36-1.064
				c0.241-0.327,0.566-0.527,0.979-0.601c0.413-0.073,0.738,0.01,0.977,0.251C84.439,320.56,84.558,320.871,84.557,321.255z"/>
			<path fill="#00F411" d="M90.824,320.137c0,0.385-0.121,0.739-0.36,1.065c-0.24,0.328-0.566,0.528-0.979,0.603
				c-0.413,0.072-0.738-0.012-0.977-0.254c-0.24-0.238-0.359-0.553-0.358-0.936c0-0.385,0.12-0.738,0.36-1.067
				c0.24-0.324,0.567-0.522,0.979-0.598c0.413-0.074,0.739,0.01,0.979,0.251C90.705,319.441,90.825,319.756,90.824,320.137z"/>
			<path fill="#00F411" d="M97.092,319.02c0,0.387-0.122,0.739-0.361,1.065c-0.24,0.328-0.566,0.526-0.979,0.601
				c-0.413,0.075-0.738-0.01-0.977-0.251c-0.239-0.239-0.358-0.555-0.358-0.938c0.001-0.383,0.121-0.737,0.362-1.065
				c0.239-0.322,0.563-0.522,0.979-0.601c0.412-0.071,0.738,0.012,0.977,0.252C96.973,318.323,97.092,318.636,97.092,319.02z"/>
			<path fill="#00F411" d="M103.359,317.902c-0.001,0.384-0.122,0.735-0.361,1.062c-0.24,0.326-0.566,0.527-0.979,0.604
				c-0.412,0.069-0.737-0.015-0.977-0.253c-0.239-0.24-0.358-0.556-0.357-0.938c0-0.383,0.121-0.739,0.361-1.063
				c0.239-0.325,0.565-0.525,0.978-0.603c0.412-0.072,0.738,0.01,0.977,0.252S103.36,317.518,103.359,317.902z"/>
			<path fill="#00F411" d="M109.626,316.784c0,0.382-0.121,0.733-0.362,1.062c-0.239,0.328-0.565,0.526-0.978,0.604
				c-0.413,0.071-0.738-0.011-0.978-0.253c-0.238-0.241-0.358-0.556-0.357-0.938c0-0.382,0.121-0.736,0.36-1.062
				c0.24-0.326,0.566-0.526,0.979-0.604c0.413-0.073,0.739,0.013,0.977,0.253C109.507,316.088,109.626,316.4,109.626,316.784z"/>
			<path fill="#00F411" d="M115.893,315.666c-0.001,0.383-0.12,0.739-0.361,1.064c-0.24,0.324-0.565,0.524-0.979,0.602
				c-0.413,0.074-0.738-0.01-0.978-0.252c-0.239-0.241-0.358-0.553-0.358-0.938c0-0.384,0.121-0.735,0.36-1.062
				c0.241-0.325,0.566-0.525,0.979-0.603c0.413-0.071,0.739,0.013,0.978,0.252C115.774,314.97,115.893,315.283,115.893,315.666z"/>
			<path fill="#00F411" d="M122.16,314.549c-0.001,0.382-0.122,0.737-0.361,1.063c-0.24,0.327-0.566,0.525-0.978,0.603
				c-0.413,0.073-0.739-0.013-0.979-0.253c-0.239-0.242-0.358-0.554-0.358-0.937c0-0.387,0.12-0.739,0.361-1.065
				c0.24-0.326,0.566-0.526,0.979-0.601c0.413-0.073,0.739,0.01,0.978,0.251C122.041,313.854,122.16,314.163,122.16,314.549z"/>
			<path fill="#00F411" d="M128.427,313.43c0,0.387-0.121,0.739-0.36,1.065c-0.241,0.326-0.567,0.526-0.979,0.6
				c-0.413,0.074-0.739-0.01-0.977-0.253c-0.24-0.24-0.359-0.553-0.358-0.937c0.001-0.382,0.121-0.736,0.361-1.063
				c0.24-0.327,0.566-0.524,0.979-0.6c0.413-0.074,0.738,0.01,0.979,0.25C128.308,312.735,128.427,313.047,128.427,313.43z"/>
			<path fill="#00F411" d="M134.694,312.312c0,0.383-0.121,0.734-0.361,1.062c-0.239,0.327-0.566,0.527-0.978,0.604
				c-0.414,0.069-0.739-0.015-0.979-0.257c-0.239-0.236-0.358-0.553-0.357-0.936c0-0.384,0.121-0.738,0.361-1.065
				c0.24-0.324,0.566-0.524,0.979-0.6c0.412-0.074,0.738,0.01,0.978,0.251C134.576,311.615,134.695,311.93,134.694,312.312z"/>
			<path fill="#00F411" d="M140.961,311.194c0,0.382-0.121,0.735-0.361,1.062c-0.24,0.326-0.566,0.528-0.979,0.604
				c-0.413,0.072-0.738-0.013-0.978-0.252c-0.238-0.241-0.357-0.556-0.357-0.938c0-0.386,0.12-0.739,0.36-1.063
				c0.24-0.326,0.566-0.526,0.978-0.604c0.413-0.071,0.738,0.013,0.978,0.251C140.842,310.498,140.962,310.811,140.961,311.194z"/>
		</g>
		<g enable-background="new    ">
			<path fill="#00F411" d="M56.317,269.951l0.521-1.733l8.617,2.36l-0.002,1.704l-8.629,5.436l-0.517-1.547l7.091-4.374
				L56.317,269.951z"/>
			<path fill="#00F411" d="M66.419,279.882l9.98-1.779l-0.002,1.683l-9.98,1.78L66.419,279.882z"/>
		</g>
	</g>
	<g>
		<g>
			<polygon fill="#C8CDCE" points="483,263.856 352,287.597 352,166.16 483,142.419 			"/>
		</g>
		<g>
			<polygon fill="#ECF0F1" points="479,260.781 356,282.853 356,169.965 479,147.895 			"/>
		</g>
		<g>
			<polygon fill="#3498DB" points="476,258.494 359,279.453 359,184.357 476,163.397 			"/>
		</g>
		<g>
			<path fill="#3E7696" d="M457.45,213.504c0-23.531-17.87-39.394-39.917-35.426c-22.044,3.966-39.917,26.258-39.917,49.79
				c0,23.533,17.872,39.395,39.917,35.428C439.58,259.328,457.45,237.035,457.45,213.504z"/>
		</g>
		<path fill="#2E596B" d="M446.189,245.177c-0.049-0.968-0.176-1.921-0.4-2.83c-0.418-1.685-1.173-3.426-2.835-4.188
			c-1.828-0.839-4.104-0.844-6.055-1.216c-3.699-0.704-7.423-1.816-10.695-3.716c-2.187-1.27-5.402-3.606-4.938-6.557
			c0.41-2.599,3.416-3.339,5.642-3.062c3.55,0.44,6.606,2.807,9.405,4.848c-1.411-2.344-4.291-6.27-1.343-8.674
			c1.115-0.91,2.663-0.95,3.624-2.089c1.333-1.581,1.955-3.924,2.522-5.863c0.725-2.482,1.542-4.777,3.189-6.817
			c1.358-1.682,3.142-2.922,4.587-4.52c1.53-1.693,2.834-3.586,2.184-5.923c-0.212-0.758-0.419-1.451-0.438-2.246
			c-0.011-0.462,0.043-0.951-0.007-1.418c-0.463-0.648-0.954-1.269-1.457-1.876c-0.3-0.188-0.603-0.366-0.863-0.545
			c-0.878-0.604-1.683-1.342-2.607-1.872c-0.794-0.455-1.699-0.602-2.506-1.016c-0.973-0.499-1.562-1.373-2.118-2.281
			c-1.23,1.096-2.857,3.806-4.732,2.749c-0.974-0.549-1.56-1.276-2.786-1.169c-1.275,0.111-2.409,0.936-3.551,1.443
			c-3.312,1.47-5.905,3.711-8.932,5.677c-2.389,1.552-5.323,1.651-8.122,1.556c-2.432-0.083-3.32-1.726-4.897-3.252
			c-1.708-1.652,0.622-2.701,0.454-4.427c-0.165-1.691-3.115-2.426-4.494-2.875c-6.64,3.745-12.459,9.17-16.936,15.609
			c1.17,6.602,3.037,13.018,5.842,19.149c1.251,2.734,2.54,5.519,4.121,8.082c1.136,1.842,2.669,3.275,4.357,4.607
			c1.003,0.79,2.035,1.553,3.111,2.237c0.646,0.411,1.728,1.242,2.56,1.136c1.273-0.163,0.06-3.202-0.052-3.913
			c-0.111-0.716-0.171-1.578,0.494-2.046c0.561-0.396,1.328-0.436,2.007-0.579c0.854,0.491,1.58,1.5,2.045,2.182
			c1.588,2.33,2.675,4.963,4.329,7.253c1.674,2.317,3.849,3.967,6.384,5.251c2.28,1.155,4.895,2.007,6.811,3.762
			c1.645,1.508,2.048,3.469,2.126,5.614c0.071,2.034-0.074,4.402,1.342,6.055c0.008,0.01,0.018,0.015,0.026,0.024
			C437.75,254.267,442.371,250.069,446.189,245.177z"/>
		<g>
			<path fill="#FFFFFF" d="M406.794,216.904l-3.024,0.545v-6.431l-5.668,1.02v6.431l-3.034,0.547v-14.899l3.034-0.546v5.839
				l5.668-1.02v-5.839l3.024-0.544V216.904z"/>
			<path fill="#FFFFFF" d="M415.125,215.609c-1.762,0.316-3.139,0.059-4.131-0.775s-1.487-2.179-1.487-4.033
				c0-1.908,0.458-3.467,1.375-4.675s2.185-1.958,3.803-2.249c1.547-0.278,2.751-0.036,3.612,0.726s1.292,1.952,1.292,3.568v1.509
				l-7.058,1.271c0.032,0.877,0.283,1.521,0.753,1.933c0.471,0.411,1.13,0.541,1.979,0.388c0.658-0.118,1.282-0.302,1.869-0.55
				s1.2-0.586,1.841-1.014v2.404c-0.523,0.366-1.08,0.669-1.675,0.907C416.704,215.259,415.979,215.455,415.125,215.609z
				 M414.704,206.085c-0.633,0.114-1.129,0.413-1.487,0.895c-0.359,0.481-0.564,1.112-0.617,1.889l4.189-0.754
				c-0.013-0.766-0.205-1.324-0.577-1.675S415.338,205.971,414.704,206.085z"/>
			<path fill="#FFFFFF" d="M425.002,213.627l-2.985,0.538v-15.857l2.985-0.538V213.627z"/>
			<path fill="#FFFFFF" d="M431.12,212.526l-2.985,0.537v-15.856l2.985-0.538V212.526z"/>
			<path fill="#FFFFFF" d="M444.197,204.455c0,1.854-0.47,3.39-1.409,4.605c-0.94,1.215-2.248,1.975-3.925,2.276
				c-1.052,0.188-1.979,0.115-2.781-0.219c-0.802-0.334-1.419-0.912-1.85-1.73c-0.431-0.819-0.646-1.827-0.646-3.022
				c0-1.861,0.467-3.393,1.399-4.593c0.934-1.201,2.245-1.954,3.937-2.258c1.05-0.189,1.977-0.118,2.779,0.214
				c0.803,0.331,1.42,0.903,1.85,1.715C443.981,202.256,444.197,203.26,444.197,204.455z M436.63,205.817
				c0,1.128,0.178,1.948,0.535,2.461c0.355,0.514,0.934,0.698,1.736,0.554c0.797-0.144,1.368-0.534,1.719-1.171
				c0.349-0.636,0.523-1.522,0.523-2.657c0-1.128-0.177-1.942-0.528-2.442c-0.353-0.501-0.931-0.679-1.733-0.535
				c-0.797,0.144-1.37,0.527-1.723,1.151S436.63,204.683,436.63,205.817z"/>
			<path fill="#FFFFFF" d="M405.072,242.259l-3.456,0.622l-1.938-7.478c-0.07-0.266-0.193-0.819-0.367-1.661
				c-0.173-0.843-0.271-1.41-0.298-1.705c-0.039,0.375-0.137,0.981-0.294,1.822c-0.156,0.84-0.276,1.44-0.362,1.802l-1.928,8.153
				l-3.445,0.62l-3.651-14.241l2.984-0.537l1.831,7.802c0.32,1.444,0.552,2.703,0.695,3.778c0.039-0.395,0.129-1.011,0.27-1.848
				c0.14-0.836,0.272-1.491,0.396-1.962l2.085-8.721l2.867-0.517l2.085,7.971c0.092,0.357,0.206,0.907,0.344,1.65
				c0.137,0.744,0.241,1.384,0.312,1.921c0.065-0.542,0.17-1.221,0.313-2.038s0.274-1.481,0.392-1.992l1.821-8.459l2.985-0.537
				L405.072,242.259z"/>
			<path fill="#FFFFFF" d="M420.225,233.814c0,1.854-0.47,3.389-1.409,4.605c-0.939,1.215-2.248,1.974-3.925,2.275
				c-1.052,0.189-1.978,0.116-2.78-0.219c-0.803-0.334-1.42-0.911-1.851-1.73c-0.431-0.818-0.646-1.826-0.646-3.021
				c0-1.861,0.466-3.393,1.399-4.593c0.933-1.201,2.245-1.954,3.936-2.259c1.051-0.188,1.978-0.117,2.779,0.214
				c0.803,0.331,1.42,0.902,1.851,1.715C420.01,231.615,420.225,232.619,420.225,233.814z M412.658,235.177
				c0,1.128,0.178,1.948,0.534,2.461c0.355,0.514,0.935,0.698,1.736,0.554c0.797-0.144,1.369-0.533,1.719-1.171
				c0.349-0.636,0.524-1.521,0.524-2.656c0-1.128-0.178-1.942-0.529-2.442c-0.353-0.501-0.93-0.679-1.732-0.535
				c-0.797,0.144-1.371,0.527-1.724,1.151C412.835,233.162,412.658,234.042,412.658,235.177z"/>
			<path fill="#FFFFFF" d="M428.8,226.38c0.405-0.072,0.74-0.102,1.009-0.089l-0.226,2.955c-0.242-0.024-0.535-0.006-0.881,0.056
				c-0.953,0.172-1.695,0.561-2.228,1.166c-0.531,0.605-0.797,1.366-0.797,2.283v5.799l-2.985,0.537v-11.393l2.26-0.407l0.441,1.836
				l0.146-0.026c0.339-0.698,0.798-1.296,1.375-1.791C427.493,226.812,428.121,226.502,428.8,226.38z"/>
			<path fill="#FFFFFF" d="M434.781,236.911l-2.985,0.537v-15.856l2.985-0.537V236.911z"/>
			<path fill="#FFFFFF" d="M441.378,235.928c-1.286,0.231-2.295-0.106-3.029-1.015c-0.734-0.906-1.102-2.281-1.102-4.122
				c0-1.868,0.374-3.391,1.121-4.568s1.776-1.885,3.088-2.12c1.377-0.248,2.428,0.12,3.152,1.104l0.098-0.018
				c-0.149-0.823-0.225-1.566-0.225-2.232v-3.648l2.995-0.539v15.856l-2.29,0.412l-0.578-1.373l-0.127,0.022
				C443.802,234.931,442.768,235.678,441.378,235.928z M442.426,233.263c0.763-0.138,1.322-0.469,1.678-0.995
				s0.55-1.346,0.583-2.459v-0.336c0-1.224-0.181-2.066-0.543-2.532c-0.362-0.464-0.951-0.623-1.767-0.477
				c-0.666,0.12-1.184,0.507-1.552,1.161c-0.369,0.654-0.554,1.542-0.554,2.662c0,1.121,0.187,1.929,0.559,2.422
				S441.733,233.388,442.426,233.263z"/>
		</g>
	</g>
	<g>
		<g>
			<g>
				<path fill="none" stroke="#72A1B2" stroke-width="4" stroke-miterlimit="10" stroke-dasharray="3.5126,3.5126" d="M81,224
					v-51.352c0-50.514,38.73-97.82,86.739-105.694l143.499-23.552C359.246,35.528,398,70.105,398,120.621V130"/>
				<g>
					<polygon fill="#72A1B2" points="87,216.765 80.5,222.957 74,216.765 74,222.021 80.5,228.208 87,222.021 					"/>
				</g>
				<g>
					<polygon fill="#72A1B2" points="392,122.578 398,128.771 404,122.578 404,127.833 398,134.022 392,127.833 					"/>
				</g>
			</g>
		</g>
		<g>
			<g>
				
					<line fill="none" stroke="#72A1B2" stroke-width="4" stroke-miterlimit="10" stroke-dasharray="4,4" x1="240" y1="74" x2="240" y2="106"/>
				<g>
					<polygon fill="#72A1B2" points="234,98.408 240,104.6 246,98.408 246,103.663 240,109.852 234,103.663 					"/>
				</g>
			</g>
		</g>
	</g>
	<g>
		<g>
			<circle fill="#292621" cx="240.209" cy="56.094" r="30.951"/>
		</g>
		<g>
			<circle fill="#ECF0F1" cx="240.208" cy="56.094" r="26.494"/>
		</g>
		<g>
			<g>
				<g>
					<path fill="#3D3D3D" d="M227.816,47.783v2.595H253v-2.595H227.816z M245.488,52.849h-17.672v2.596h17.672V52.849z
						 M227.816,60.431H253v-2.593h-25.184V60.431z M227.816,65.42H253v-2.518h-25.184V65.42z M227.816,70.484h15.14V67.97h-15.14
						V70.484z"/>
				</g>
			</g>
			<path fill="#E67E22" d="M228,39h25v6h-25V39z"/>
		</g>
		<g opacity="0.3">
			<path fill="#FFFFFF" d="M262.392,34.518L214.746,73.68c0.229,0.331,0.46,0.664,0.705,0.99
				c10.26,13.673,29.661,16.441,43.333,6.182c13.673-10.26,16.44-29.66,6.181-43.334C264.163,36.449,263.299,35.454,262.392,34.518z
				"/>
		</g>
	</g>
</g>
</svg>
