<svg width="302" height="306" viewBox="0 0 302 306" xmlns="http://www.w3.org/2000/svg" xmlns:xlink="http://www.w3.org/1999/xlink">
  <defs>
    <linearGradient x1="92.672%" y1="93.119%" x2="11.063%" y2="12.717%" id="c">
      <stop stop-color="#FFF" stop-opacity=".2" offset="0%"/>
      <stop stop-color="#FFF" offset="52.675%"/>
      <stop stop-color="#FFF" stop-opacity=".4" offset="100%"/>
    </linearGradient>
    <path d="M971.273 387.986c-9.803-.42-17.354-10.215-17.354-21.952 0-4.556.45-8.586 1.436-14.187.098-.558.203-1.138.33-1.84l.335-1.833c2.014-11.02 2.537-17.333 1.565-27.118-.783-7.882-2.69-15.223-5.38-21.896-1.257-3.123-2.603-5.888-3.942-8.26-.464-.822-.892-1.534-1.273-2.13-.22-.345-.368-.566-.435-.66-1.404-1.987.017-4.73 2.45-4.73h34.932V172.585c0-5.848 4.738-10.586 10.586-10.586h166.897c5.848 0 10.586 4.738 10.586 10.586v193.448c0 12.13-9.836 21.966-21.966 21.966H971.603c-.113 0-.223-.005-.33-.014zm12.664-98.607h-29.665c1.2 2.248 2.383 4.766 3.5 7.538 2.89 7.178 4.94 15.067 5.784 23.545 1.038 10.446.472 17.266-1.632 28.79l-.335 1.83c-.127.69-.23 1.26-.325 1.804-.93 5.287-1.346 9-1.346 13.147 0 8.89 5.475 15.87 11.875 15.965.428-.007.847-.03 1.254-.07 5.928-.752 10.826-7.385 10.887-15.74V289.38zM1150.04 382c8.817 0 15.966-7.15 15.966-15.966V172.586c0-2.534-2.052-4.586-4.586-4.586H994.523c-2.534 0-4.586 2.052-4.586 4.586v193.448c0 6.533-1.707 12.08-4.906 15.966h165.01zm-144.137-119.172c-1.657 0-3-1.343-3-3v-56.896c0-1.657 1.343-3 3-3h144.138c1.658 0 3 1.343 3 3v56.896c0 1.657-1.342 3-3 3h-144.137zm3-6h138.138v-50.896h-138.137v50.896zm-3-69.862c-1.658 0-3-1.344-3-3 0-1.657 1.342-3 3-3h144.137c1.657 0 3 1.343 3 3 0 1.656-1.343 3-3 3h-144.138zm0 121.38c-1.657 0-3-1.344-3-3v-22.76c0-1.656 1.343-3 3-3h22.76c1.656 0 3 1.344 3 3v22.76c0 1.656-1.344 3-3 3h-22.76zm19.76-6v-16.76h-16.76v16.76h16.76zm-19.76 47.723c-1.657 0-3-1.344-3-3v-22.76c0-1.657 1.343-3 3-3h22.76c1.656 0 3 1.343 3 3v22.76c0 1.656-1.344 3-3 3h-22.76zm19.76-6v-16.76h-16.76v16.76h16.76zm21.963-58.484c-1.657 0-3-1.343-3-3s1.343-3 3-3h102.414c1.657 0 3 1.343 3 3s-1.343 3-3 3h-102.414zm0 18.965c-1.657 0-3-1.342-3-3 0-1.655 1.343-3 3-3h37.932c1.657 0 3 1.345 3 3 0 1.658-1.343 3-3 3h-37.932zm0 22.76c-1.657 0-3-1.343-3-3s1.343-3 3-3h102.414c1.657 0 3 1.343 3 3s-1.343 3-3 3h-102.414zm0 18.966c-1.657 0-3-1.343-3-3s1.343-3 3-3h37.932c1.657 0 3 1.343 3 3s-1.343 3-3 3h-37.932z" id="b"/>
    <filter x="-50%" y="-50%" width="200%" height="200%" filterUnits="objectBoundingBox" id="a">
      <feOffset dy="2" in="SourceAlpha" result="shadowOffsetOuter1"/>
      <feGaussianBlur stdDeviation="20" in="shadowOffsetOuter1" result="shadowBlurOuter1"/>
      <feColorMatrix values="0 0 0 0 0 0 0 0 0 0 0 0 0 0 0 0 0 0 0.2 0" in="shadowBlurOuter1"/>
    </filter>
  </defs>
  <g transform="translate(-910 -124)" fill-rule="nonzero" fill="none">
    <use fill="#000" filter="url(#a)" xlink:href="#b"/>
    <use fill="url(#c)" fill-rule="evenodd" xlink:href="#b"/>
  </g>
</svg>
