<svg width="416" height="340" viewBox="0 0 416 340" xmlns="http://www.w3.org/2000/svg" xmlns:xlink="http://www.w3.org/1999/xlink">
  <defs>
    <linearGradient x1="13.012%" y1="15.342%" x2="87.472%" y2="80.054%" id="c">
      <stop stop-color="#FFF" stop-opacity=".2" offset="0%"/>
      <stop stop-color="#FFF" offset="52.675%"/>
      <stop stop-color="#FFF" stop-opacity=".4" offset="100%"/>
    </linearGradient>
    <path d="M1070.57 373.78v-29.17l-11.882 29.17h-2.31l-11.884-29.17v29.17h-5.5v-36.71h7.866l10.673 26.363 10.673-26.362h7.867v36.71h-5.502zm-134.61-93.4l31.79-18.354 2.75 4.764-27.595 15.933 8.334 14.436-4.195 2.42-11.086-19.2zm213.74 66.396l-.78-5.214c3.696.195 8.21-.894 11.827-4.51 4.2-4.203 3.54-7.82 1.67-9.69-2.723-2.724-6.458-.545-10.62 1.905-5.252 3.073-11.283 6.69-16.575 1.397-4.28-4.28-3.62-11.167 1.786-16.574 4.007-4.007 8.442-5.874 13.072-5.834l.624 5.136c-4.085-.117-7.742 1.672-10.543 4.472-2.878 2.88-3.383 6.342-1.204 8.52 2.335 2.336 5.875.275 9.92-2.137 5.37-3.11 11.634-6.73 17.16-1.203 4.047 4.048 5.02 10.624-1.98 17.626-4.63 4.63-9.688 6.34-14.357 6.106zm-39.652-124.725c4.753 7.618 8.014 17.62 8.014 25.59v137.346c0 12.154-9.86 22.014-22.002 22.014h-77.03c-12.15 0-22-9.857-22-22.014V334.24l6-3.467v54.213c0 8.84 7.165 16.01 16 16.01h77.03c8.825 0 16-7.168 16-16.01V247.64c0-4.83-1.475-10.708-3.807-16.09.64-2.978 1.185-5.808 1.63-8.487l.165-1.012zm1.097-17.986c3.593 1.995 6.83 4.325 9.33 6.826l97.082 97.12c8.59 8.594 8.59 22.54.003 31.13l-54.468 54.488c-8.592 8.595-22.525 8.593-31.117-.003l-7.965-7.968c.003-.184.005-.37.005-.554v-7.93l12.203 12.207c6.25 6.25 16.382 6.253 22.63.003l54.468-54.49c6.24-6.242 6.247-16.386-.003-22.638l-97.08-97.12c-1.4-1.4-3.102-2.75-4.998-4.005.128-2.56.102-4.908-.09-7.066zm-42.918-25.784c1.065.318 2.123.64 3.174.97 3.413 1.07 6.636 2.165 9.627 3.288 11.328 4.25 18.733 8.485 21.82 13.835 3.088 5.35 3.05 13.883 1.067 25.822-.524 3.153-1.186 6.493-1.967 9.984-1.235 5.518-2.705 11.15-4.275 16.605-.55 1.908-1.073 3.66-1.553 5.218-.17.548-.322 1.034-.455 1.453l-.144.454c-2.948 9.943-12.133 21.61-21.098 26.786l-118.9 68.674c-10.52 6.077-23.985 2.466-30.057-8.055L886.95 276.58c-6.075-10.527-2.467-23.99 8.057-30.068l118.9-68.673c5.968-3.45 14.443-5.557 22.402-5.867 2.795 2.055 5.386 4.198 7.756 6.38-8.494-1.345-20.146.635-27.16 4.685L898.01 251.71c-7.653 4.422-10.278 14.212-5.86 21.868l38.515 66.735c4.412 7.646 14.205 10.278 21.86 5.857l118.898-68.673c7.654-4.42 15.878-14.88 18.366-23.36 0 0 14.19-43.798 7.864-54.762-2.845-4.928-13.507-9.582-24.383-13.213-1.438-2.637-3.124-5.273-5.04-7.882zm-7.245 26.204c.317 2.314.11 4.352-.66 6.002-3.015-.733-6.306-.352-9.205 1.322-5.98 3.454-8.03 11.104-4.576 17.087 3.454 5.982 11.1 8.032 17.08 4.578 2.39-1.38 4.15-3.43 5.185-5.774 2.164-1.61 4.062-3.55 5.654-5.823.44-.63.847-1.27 1.223-1.923 1.065 7.285-2.3 14.813-9.06 18.718-8.852 5.112-20.17 2.08-25.28-6.775-5.11-8.855-2.077-20.177 6.774-25.29 4.05-2.337 8.614-2.97 12.865-2.123zm-8.09 22.876c-.442-.42-.833-.912-1.154-1.467-.8-1.388-1.032-2.95-.767-4.41 6.068-.416 10.89-2.54 13.657-6.493 7.92-11.318-4-33.34-26.626-49.19-22.625-15.85-47.39-19.523-55.31-8.206-4.76 6.798-2.357 17.46 5.223 28.325l-5.234 3.022c-8.715-12.684-11.316-25.634-4.906-34.79 10.47-14.962 38.677-10.778 63.67 6.73 24.993 17.507 38.57 42.59 28.1 57.55-3.672 5.246-9.523 8.138-16.652 8.928z" id="b"/>
    <filter x="-50%" y="-50%" width="200%" height="200%" filterUnits="objectBoundingBox" id="a">
      <feOffset dy="2" in="SourceAlpha" result="shadowOffsetOuter1"/>
      <feGaussianBlur stdDeviation="20" in="shadowOffsetOuter1" result="shadowBlurOuter1"/>
      <feColorMatrix values="0 0 0 0 0 0 0 0 0 0 0 0 0 0 0 0 0 0 0.2 0" in="shadowBlurOuter1"/>
    </filter>
  </defs>
  <g transform="translate(-846 -109)" fill="none" fill-rule="evenodd">
    <use fill="#000" filter="url(#a)" xlink:href="#b"/>
    <use fill="url(#c)" xlink:href="#b"/>
  </g>
</svg>
