<?xml version="1.0" encoding="UTF-8" standalone="no"?>
<svg width="416px" height="340px" viewBox="0 0 416 340" version="1.1" xmlns="http://www.w3.org/2000/svg" xmlns:xlink="http://www.w3.org/1999/xlink">
    <defs>
        <linearGradient x1="13.0124081%" y1="15.3417223%" x2="87.4724265%" y2="80.05427%" id="linearGradient-1">
            <stop stop-color="#FFFFFF" stop-opacity="0.2" offset="0%"></stop>
            <stop stop-color="#FFFFFF" offset="52.6745855%"></stop>
            <stop stop-color="#FFFFFF" stop-opacity="0.4" offset="100%"></stop>
        </linearGradient>
        <path d="M1070.57113,373.780023 L1070.57113,344.610893 L1058.68801,373.780023 L1056.3774,373.780023 L1044.49427,344.610893 L1044.49427,373.780023 L1038.99282,373.780023 L1038.99282,337.070949 L1046.85989,337.070949 L1057.5327,363.433237 L1068.20551,337.070949 L1076.07258,337.070949 L1076.07258,373.780023 L1070.57113,373.780023 Z M935.959472,280.38004 L967.750463,262.025502 L970.501187,266.789896 L942.904509,282.722845 L951.239202,297.158957 L947.044889,299.580545 L935.959472,280.38004 Z M1149.69898,346.775558 L1148.91978,341.561632 C1152.61615,341.756902 1157.12935,340.668344 1160.74715,337.050541 C1164.94847,332.849221 1164.28631,329.230577 1162.41832,327.36259 C1159.69418,324.638442 1155.95936,326.816599 1151.79661,329.267032 C1146.54453,332.339792 1140.51439,335.957121 1135.22176,330.664491 C1130.94095,326.383688 1131.60105,319.496969 1137.0083,314.089715 C1141.01512,310.0829 1145.45035,308.216152 1150.0805,308.25597 L1150.70405,313.392048 C1146.6186,313.274519 1142.96153,315.063603 1140.16065,317.864483 C1137.28197,320.743165 1136.77684,324.205944 1138.95616,326.385262 C1141.29114,328.720246 1144.83143,326.658778 1148.87747,324.24723 C1154.24626,321.135585 1160.50986,317.518301 1166.03599,323.044429 C1170.08329,327.091734 1171.05731,333.667505 1164.05511,340.669704 C1159.42587,345.298936 1154.36807,347.009928 1149.69898,346.775558 Z M1110.0477,222.050531 C1114.80095,229.667654 1118.06159,239.670668 1118.06159,247.639519 L1118.06159,384.986213 C1118.06159,397.140484 1108.20345,407 1096.06029,407 L1019.03103,407 C1006.88014,407 997.02974,397.142749 997.02974,384.986213 L997.02974,334.239868 L1003.03132,330.773494 L1003.03132,384.986213 C1003.03132,393.826778 1010.19463,400.996063 1019.03103,400.996063 L1096.06029,400.996063 C1104.88526,400.996063 1112.06001,393.828209 1112.06001,384.986213 L1112.06001,247.639519 C1112.06001,242.809893 1110.58497,236.931682 1108.25251,231.54919 C1108.8931,228.572228 1109.43756,225.741689 1109.8827,223.06293 C1109.93925,222.72264 1109.99425,222.385185 1110.0477,222.050531 Z M1111.14525,204.063757 C1114.73819,206.058935 1117.97613,208.389165 1120.47645,210.890461 L1217.55708,308.009239 C1226.14807,316.603606 1226.14631,330.548831 1217.5598,339.138713 L1163.09189,393.62803 C1154.49991,402.223383 1140.56723,402.221277 1131.97464,393.625308 L1124.00982,385.657358 C1124.0134,385.473034 1124.01519,385.288276 1124.01519,385.103099 L1124.01519,377.171887 L1136.2184,389.379883 C1142.46716,395.631107 1152.59985,395.633337 1158.84813,389.382605 L1213.31604,334.893288 C1219.55624,328.650642 1219.5631,318.506899 1213.31332,312.254664 L1116.23269,215.135886 C1114.83211,213.73475 1113.13119,212.384443 1111.23549,211.130208 C1111.36314,208.568835 1111.33697,206.222393 1111.14525,204.063757 Z M1068.22749,178.280173 C1069.29174,178.5977 1070.3502,178.921026 1071.40053,179.249946 C1074.81327,180.318679 1078.03587,181.415281 1081.02714,182.537779 C1092.35481,186.788576 1099.75962,191.022939 1102.84739,196.373213 C1105.93516,201.723488 1105.89838,210.255941 1103.9144,222.195246 C1103.39049,225.348033 1102.7285,228.688283 1101.94732,232.179328 C1100.71231,237.698499 1099.24219,243.329793 1097.67167,248.784599 C1097.12219,250.693085 1096.5989,252.444919 1096.11868,254.003197 C1095.94975,254.551355 1095.79796,255.03709 1095.66543,255.455768 C1095.60279,255.653638 1095.55423,255.805754 1095.52072,255.909964 C1092.57198,265.852539 1083.38662,277.518537 1074.42186,282.696378 L955.522858,351.369725 C945.001085,357.44686 931.536779,353.835867 925.465201,343.315453 L886.950571,276.579942 C880.875125,266.052827 884.483201,252.590151 895.006935,246.511883 L1013.90594,177.838537 C1019.87547,174.390673 1028.34984,172.283482 1036.30877,171.973299 C1039.10517,174.028446 1041.69624,176.170527 1044.06575,178.353406 C1035.57219,177.008231 1023.91975,178.987535 1016.90673,183.038099 L898.007724,251.711446 C890.354578,256.131728 887.729892,265.922421 892.148091,273.577973 L930.662721,340.313485 C935.075205,347.959134 944.867683,350.59116 952.522068,346.170162 L1071.42107,277.496816 C1079.07422,273.076533 1087.29774,262.617614 1089.78605,254.137763 C1089.78605,254.137763 1103.97715,210.338652 1097.64987,199.375182 C1094.80545,194.446566 1084.14311,189.792514 1073.26677,186.16221 C1071.82885,183.524895 1070.143,180.888881 1068.22749,178.280165 L1068.22749,178.280173 Z M1060.98168,204.484249 L1060.98168,204.484249 C1061.29879,206.797638 1061.09175,208.835677 1060.32105,210.48582 C1057.30658,209.752664 1054.01622,210.133755 1051.11745,211.808018 C1045.13722,215.262063 1043.08824,222.91196 1046.54093,228.894541 C1049.99361,234.877123 1057.64051,236.926906 1063.62074,233.472862 C1066.00953,232.093148 1067.77106,230.043948 1068.80523,227.698955 C1070.96905,226.090974 1072.86708,224.151289 1074.45896,221.876952 C1074.89923,221.247946 1075.3071,220.606866 1075.68314,219.954486 C1076.74842,227.238758 1073.38254,234.767416 1066.62153,238.672424 C1057.77078,243.78441 1046.45338,240.750731 1041.34341,231.89651 C1036.23343,223.04229 1039.26592,211.720442 1048.11666,206.608456 C1052.1656,204.269882 1056.73075,203.636014 1060.98168,204.484249 Z M1052.8924,227.359668 C1052.44971,226.939039 1052.05926,226.448454 1051.73845,225.892573 C1050.93744,224.504642 1050.70587,222.944138 1050.97123,221.481808 C1057.03847,221.066506 1061.8598,218.942399 1064.62655,214.989518 C1072.54807,203.671966 1060.62757,181.648906 1038.00136,165.799636 C1015.37514,149.950365 990.611311,146.276682 982.689789,157.594234 C977.931475,164.39248 980.332533,175.053472 987.912782,185.918839 L982.678579,188.941996 C973.964819,176.258072 971.364097,163.307809 977.773583,154.150517 C988.244906,139.190041 1016.45073,143.37434 1041.44372,160.881498 C1066.43671,178.388656 1080.01408,203.47276 1069.54276,218.433235 C1065.87159,223.678272 1060.02057,226.570121 1052.8924,227.359668 L1052.8924,227.359668 Z" id="path-2"></path>
        <filter x="-50%" y="-50%" width="200%" height="200%" filterUnits="objectBoundingBox" id="filter-3">
            <feOffset dx="0" dy="2" in="SourceAlpha" result="shadowOffsetOuter1"></feOffset>
            <feGaussianBlur stdDeviation="20" in="shadowOffsetOuter1" result="shadowBlurOuter1"></feGaussianBlur>
            <feColorMatrix values="0 0 0 0 0   0 0 0 0 0   0 0 0 0 0  0 0 0 0.2 0" type="matrix" in="shadowBlurOuter1"></feColorMatrix>
        </filter>
    </defs>
    <g id="Page-1" stroke="none" stroke-width="1" fill="none" fill-rule="evenodd">
        <g id="03-Pricing" transform="translate(-846.000000, -109.000000)">
            <g id="Hero-Icon-Pricing">
                <use fill="black" fill-opacity="1" filter="url(#filter-3)" xlink:href="#path-2"></use>
                <use fill="url(#linearGradient-1)" fill-rule="evenodd" xlink:href="#path-2"></use>
            </g>
        </g>
    </g>
</svg>