<?xml version="1.0" encoding="UTF-8" standalone="no"?>
<svg width="339px" height="337px" viewBox="0 0 339 337" version="1.1" xmlns="http://www.w3.org/2000/svg"
     xmlns:xlink="http://www.w3.org/1999/xlink">
    <defs>
        <linearGradient x1="85.200808%" y1="12.8996394%" x2="16.8028161%" y2="75.3560697%" id="linearGradient-1">
            <stop stop-color="#FFFFFF" stop-opacity="0.2" offset="0%"></stop>
            <stop stop-color="#FFFFFF" offset="52.6745855%"></stop>
            <stop stop-color="#FFFFFF" stop-opacity="0.4" offset="100%"></stop>
        </linearGradient>
        <path d="M994.807798,324.776637 C993.70967,323.407787 993.052783,321.669554 993.052783,319.776855 L993.052783,298.814264 C993.052783,296.922565 993.70959,295.184301 994.807798,293.815164 C993.70967,292.446314 993.052783,290.708081 993.052783,288.815382 L993.052783,267.852791 C993.052783,263.436881 996.631882,259.857078 1001.05002,259.857078 L1120.16688,259.857078 C1124.58364,259.857078 1128.16412,263.433962 1128.16412,267.852791 L1128.16412,288.815382 C1128.16412,290.707081 1127.50732,292.445345 1126.40911,293.814482 C1127.50724,295.183333 1128.16412,296.921565 1128.16412,298.814264 L1128.16412,319.776855 C1128.16412,321.668555 1127.50732,323.406818 1126.40911,324.775956 C1127.50724,326.144806 1128.16412,327.883039 1128.16412,329.775737 L1128.16412,350.738329 C1128.16412,355.154239 1124.58502,358.734041 1120.16688,358.734041 L1063.11051,358.734041 L1063.11051,373.245055 C1069.97547,374.351828 1075.37878,379.813839 1076.38254,386.699243 L1104.6437,386.699243 C1105.47338,386.699243 1106.14598,387.363446 1106.14598,388.195957 L1106.14598,391.195073 C1106.14598,392.021685 1105.47422,392.691786 1104.6437,392.691786 L1076.1254,392.691786 C1074.46292,399.747478 1068.11461,405 1060.53697,405 C1052.95932,405 1046.61101,399.747478 1044.94853,392.691786 L1016.57321,392.691786 C1015.74352,392.691786 1015.07093,392.027583 1015.07093,391.195073 L1015.07093,388.195957 C1015.07093,387.369345 1015.74268,386.699243 1016.57321,386.699243 L1044.69139,386.699243 C1045.65295,380.103305 1050.65192,374.813595 1057.10557,373.407517 L1057.10557,358.734041 L1001.05002,358.734041 C996.63327,358.734041 993.052783,355.157158 993.052783,350.738329 L993.052783,329.775737 C993.052783,327.884038 993.70959,326.145775 994.807798,324.776637 Z M1134.16907,310.499992 L1134.16907,304.507449 L1147.91189,304.507454 L1149.95842,304.498417 C1168.92384,304.399819 1185.99505,284.720082 1185.99505,263.637709 C1185.99505,243.441846 1169.76937,226.981582 1149.87941,226.925872 L1134.07331,226.865313 L1134.22572,220.680347 L1134.46385,211.022652 C1134.47176,210.567758 1134.48812,210.237626 1134.52948,209.555087 C1134.55727,209.130318 1134.55727,209.130318 1134.5653,209.03272 C1134.51153,176.986477 1108.77526,150.992543 1077.19422,150.992543 C1055.31497,150.992543 1034.99661,163.975778 1025.49031,184.06893 L1017.72538,200.490791 L1011.62896,194.571277 C1011.45445,194.401827 1011.00607,194.003823 1010.31513,193.453484 C1009.10851,192.492394 1007.71642,191.522943 1006.1741,190.619233 C999.127567,186.490392 991.847721,185.246271 984.773026,188.30465 C979.944587,190.391976 976.668448,193.884793 974.573498,198.560753 C973.421182,201.132739 972.687061,203.942348 972.309214,206.809876 C972.055168,208.737868 971.994512,210.392534 972.037724,211.58804 C972.044647,211.747373 972.35707,216.329877 972.35707,216.329877 L967.972422,217.846163 L962.691398,219.672426 C946.143336,225.415075 935.004948,241.170676 935.004948,258.884052 C935.004948,282.669555 954.236718,304.484187 975.88849,304.507395 L987.047835,304.507399 L987.047835,310.499939 L975.882041,310.499935 C950.85851,310.473113 929,285.952012 929,258.884052 C929,238.636437 941.740791,220.598345 960.7252,214.010219 L966.00622,212.183956 C965.976008,210.125567 966.079317,208.124735 966.355518,206.028611 C966.819433,202.507901 967.7271,199.160239 969.091523,196.114825 C971.847264,189.963971 976.27291,185.448583 982.386064,182.805877 C991.055563,179.058068 1000.24997,180.198902 1009.21456,185.451612 C1010.94352,186.464676 1012.57544,187.586531 1014.06112,188.769891 C1014.79637,189.355522 1015.4265,189.89754 1015.81659,190.276308 L1020.06016,181.510468 C1030.54972,159.339012 1052.97127,145 1077.19422,145 C1112.12237,145 1140.51098,173.705184 1140.57024,209.022686 L1140.55012,209.522949 C1140.48424,210.564383 1140.47363,210.797124 1140.46699,211.170064 L1140.22885,220.827661 L1149.89626,220.933352 C1173.12772,220.998421 1192,240.170243 1192,263.637709 C1192,287.969188 1172.34527,310.374657 1149.98499,310.490902 L1147.91188,310.499997 L1134.16907,310.499992 Z M1060.53697,399.007457 C1066.06437,399.007457 1070.54521,394.535868 1070.54521,389.019885 C1070.54521,383.503901 1066.06437,379.032313 1060.53697,379.032313 C1055.00956,379.032313 1050.52872,383.503901 1050.52872,389.019885 C1050.52872,394.535868 1055.00956,399.007457 1060.53697,399.007457 Z M1110.14928,388.195957 C1110.14928,387.369345 1110.81486,386.699243 1111.64909,386.699243 L1114.65441,386.699243 C1115.48274,386.699243 1116.15423,387.363446 1116.15423,388.195957 L1116.15423,391.195073 C1116.15423,392.021685 1115.48865,392.691786 1114.65441,392.691786 L1111.64909,392.691786 C1110.82077,392.691786 1110.14928,392.027583 1110.14928,391.195073 L1110.14928,388.195957 Z M1120.15752,388.195957 C1120.15752,387.369345 1120.8231,386.699243 1121.65734,386.699243 L1124.66266,386.699243 C1125.49098,386.699243 1126.16247,387.363446 1126.16247,388.195957 L1126.16247,391.195073 C1126.16247,392.021685 1125.49689,392.691786 1124.66266,392.691786 L1121.65734,392.691786 C1120.82901,392.691786 1120.15752,392.027583 1120.15752,391.195073 L1120.15752,388.195957 Z M1005.06268,388.195957 C1005.06268,387.369345 1005.72826,386.699243 1006.56249,386.699243 L1009.56782,386.699243 C1010.39614,386.699243 1011.06763,387.363446 1011.06763,388.195957 L1011.06763,391.195073 C1011.06763,392.021685 1010.40205,392.691786 1009.56782,392.691786 L1006.56249,392.691786 C1005.73417,392.691786 1005.06268,392.027583 1005.06268,391.195073 L1005.06268,388.195957 Z M995.054433,388.195957 C995.054433,387.369345 995.720011,386.699243 996.554245,386.699243 L999.559569,386.699243 C1000.38789,386.699243 1001.05938,387.363446 1001.05938,388.195957 L1001.05938,391.195073 C1001.05938,392.021685 1000.3938,392.691786 999.559569,392.691786 L996.554245,392.691786 C995.725921,392.691786 995.054433,392.027583 995.054433,391.195073 L995.054433,388.195957 Z M999.057732,269.847463 L999.057732,286.82071 C999.057732,289.022848 1000.84458,290.818552 1003.04876,290.818552 L1118.16814,290.818552 C1120.37152,290.818552 1122.15917,289.028657 1122.15917,286.82071 L1122.15917,269.847463 C1122.15917,267.645325 1120.37233,265.849622 1118.16814,265.849622 L1003.04876,265.849622 C1000.84538,265.849622 999.057732,267.639516 999.057732,269.847463 Z M1090.13278,278.833465 C1090.13278,277.17867 1091.47701,275.837194 1093.13047,275.837194 L1113.15654,275.837194 C1114.81211,275.837194 1116.15423,277.182037 1116.15423,278.833465 C1116.15423,280.48826 1114.80999,281.829737 1113.15654,281.829737 L1093.13047,281.829737 C1091.47489,281.829737 1090.13278,280.484893 1090.13278,278.833465 Z M1025.07917,278.833465 C1025.07917,277.17867 1026.41187,275.837194 1028.08165,275.837194 C1029.73987,275.837194 1031.08412,277.182037 1031.08412,278.833465 C1031.08412,280.48826 1029.75143,281.829737 1028.08165,281.829737 C1026.42343,281.829737 1025.07917,280.484893 1025.07917,278.833465 Z M1015.07093,278.833465 C1015.07093,277.17867 1016.40362,275.837194 1018.0734,275.837194 C1019.73162,275.837194 1021.07588,277.182037 1021.07588,278.833465 C1021.07588,280.48826 1019.74318,281.829737 1018.0734,281.829737 C1016.41518,281.829737 1015.07093,280.484893 1015.07093,278.833465 Z M1005.06268,278.833465 C1005.06268,277.17867 1006.39537,275.837194 1008.06515,275.837194 C1009.72337,275.837194 1011.06763,277.182037 1011.06763,278.833465 C1011.06763,280.48826 1009.73494,281.829737 1008.06515,281.829737 C1006.40693,281.829737 1005.06268,280.484893 1005.06268,278.833465 Z M999.057732,300.808937 L999.057732,317.782183 C999.057732,319.984321 1000.84458,321.780025 1003.04876,321.780025 L1118.16814,321.780025 C1120.37152,321.780025 1122.15917,319.99013 1122.15917,317.782183 L1122.15917,300.808937 C1122.15917,298.606799 1120.37233,296.811095 1118.16814,296.811095 L1003.04876,296.811095 C1000.84538,296.811095 999.057732,298.60099 999.057732,300.808937 Z M1090.13278,309.794938 C1090.13278,308.140143 1091.47701,306.798667 1093.13047,306.798667 L1113.15654,306.798667 C1114.81211,306.798667 1116.15423,308.14351 1116.15423,309.794938 C1116.15423,311.449734 1114.80999,312.79121 1113.15654,312.79121 L1093.13047,312.79121 C1091.47489,312.79121 1090.13278,311.446366 1090.13278,309.794938 Z M1025.07917,309.794938 C1025.07917,308.140143 1026.41187,306.798667 1028.08165,306.798667 C1029.73987,306.798667 1031.08412,308.14351 1031.08412,309.794938 C1031.08412,311.449734 1029.75143,312.79121 1028.08165,312.79121 C1026.42343,312.79121 1025.07917,311.446366 1025.07917,309.794938 Z M1015.07093,309.794938 C1015.07093,308.140143 1016.40362,306.798667 1018.0734,306.798667 C1019.73162,306.798667 1021.07588,308.14351 1021.07588,309.794938 C1021.07588,311.449734 1019.74318,312.79121 1018.0734,312.79121 C1016.41518,312.79121 1015.07093,311.446366 1015.07093,309.794938 Z M1005.06268,309.794938 C1005.06268,308.140143 1006.39537,306.798667 1008.06515,306.798667 C1009.72337,306.798667 1011.06763,308.14351 1011.06763,309.794938 C1011.06763,311.449734 1009.73494,312.79121 1008.06515,312.79121 C1006.40693,312.79121 1005.06268,311.446366 1005.06268,309.794938 Z M999.057732,331.77041 L999.057732,348.743656 C999.057732,350.945794 1000.84458,352.741498 1003.04876,352.741498 L1118.16814,352.741498 C1120.37152,352.741498 1122.15917,350.951603 1122.15917,348.743656 L1122.15917,331.77041 C1122.15917,329.568272 1120.37233,327.772568 1118.16814,327.772568 L1003.04876,327.772568 C1000.84538,327.772568 999.057732,329.562463 999.057732,331.77041 Z M1090.13278,340.756412 C1090.13278,339.101617 1091.47701,337.76014 1093.13047,337.76014 L1113.15654,337.76014 C1114.81211,337.76014 1116.15423,339.104984 1116.15423,340.756412 C1116.15423,342.411207 1114.80999,343.752683 1113.15654,343.752683 L1093.13047,343.752683 C1091.47489,343.752683 1090.13278,342.40784 1090.13278,340.756412 Z M1025.07917,340.756412 C1025.07917,339.101617 1026.41187,337.76014 1028.08165,337.76014 C1029.73987,337.76014 1031.08412,339.104984 1031.08412,340.756412 C1031.08412,342.411207 1029.75143,343.752683 1028.08165,343.752683 C1026.42343,343.752683 1025.07917,342.40784 1025.07917,340.756412 Z M1015.07093,340.756412 C1015.07093,339.101617 1016.40362,337.76014 1018.0734,337.76014 C1019.73162,337.76014 1021.07588,339.104984 1021.07588,340.756412 C1021.07588,342.411207 1019.74318,343.752683 1018.0734,343.752683 C1016.41518,343.752683 1015.07093,342.40784 1015.07093,340.756412 Z M1005.06268,340.756412 C1005.06268,339.101617 1006.39537,337.76014 1008.06515,337.76014 C1009.72337,337.76014 1011.06763,339.104984 1011.06763,340.756412 C1011.06763,342.411207 1009.73494,343.752683 1008.06515,343.752683 C1006.40693,343.752683 1005.06268,342.40784 1005.06268,340.756412 Z"
              id="path-2"></path>
        <filter x="-50%" y="-50%" width="200%" height="200%" filterUnits="objectBoundingBox" id="filter-3">
            <feOffset dx="0" dy="2" in="SourceAlpha" result="shadowOffsetOuter1"></feOffset>
            <feGaussianBlur stdDeviation="20" in="shadowOffsetOuter1" result="shadowBlurOuter1"></feGaussianBlur>
            <feColorMatrix values="0 0 0 0 0   0 0 0 0 0   0 0 0 0 0  0 0 0 0.2 0" type="matrix"
                           in="shadowBlurOuter1"></feColorMatrix>
        </filter>
    </defs>
    <g id="Page-1" stroke="none" stroke-width="1" fill="none" fill-rule="evenodd">
        <g id="02-Features" transform="translate(-891.000000, -108.000000)" fill-rule="nonzero">
            <g id="Hero-Icon-Features">
                <use fill="black" fill-opacity="1" filter="url(#filter-3)" xlink:href="#path-2"></use>
                <use fill="url(#linearGradient-1)" fill-rule="evenodd" xlink:href="#path-2"></use>
            </g>
        </g>
    </g>
</svg>