<svg width="339" height="337" viewBox="0 0 339 337" xmlns="http://www.w3.org/2000/svg" xmlns:xlink="http://www.w3.org/1999/xlink">
  <defs>
    <linearGradient x1="85.201%" y1="12.9%" x2="16.803%" y2="75.356%" id="c">
      <stop stop-color="#FFF" stop-opacity=".2" offset="0%"/>
      <stop stop-color="#FFF" offset="52.675%"/>
      <stop stop-color="#FFF" stop-opacity=".4" offset="100%"/>
    </linearGradient>
    <path d="M994.808 324.777c-1.098-1.37-1.755-3.107-1.755-5v-20.963c0-1.89.657-3.63 1.755-5-1.098-1.368-1.755-3.106-1.755-5v-20.96c0-4.417 3.58-7.997 7.997-7.997h119.117c4.417 0 7.997 3.577 7.997 7.996v20.962c0 1.892-.657 3.63-1.755 5 1.097 1.368 1.754 3.107 1.754 5v20.962c0 1.892-.657 3.63-1.755 5 1.097 1.368 1.754 3.106 1.754 5v20.96c0 4.417-3.58 7.997-7.997 7.997h-57.056v14.51c6.865 1.108 12.27 6.57 13.273 13.455h28.26c.83 0 1.503.663 1.503 1.496v3c0 .826-.672 1.496-1.502 1.496h-28.52c-1.66 7.055-8.01 12.308-15.587 12.308-7.578 0-13.926-5.253-15.588-12.308h-28.377c-.83 0-1.502-.664-1.502-1.497v-3c0-.826.673-1.496 1.503-1.496h28.118c.963-6.597 5.962-11.886 12.416-13.292v-14.674h-56.056c-4.417 0-7.997-3.577-7.997-7.996v-20.962c0-1.892.657-3.63 1.755-5zm139.36-14.277v-5.993h13.744l2.046-.01c18.966-.097 36.037-19.777 36.037-40.86 0-20.195-16.226-36.655-36.116-36.71l-15.807-.062.153-6.185.238-9.657c.008-.455.024-.785.065-1.468.027-.425.027-.425.035-.522-.053-32.047-25.79-58.04-57.37-58.04-21.88 0-42.198 12.983-51.705 33.076l-7.765 16.42-6.096-5.92c-.176-.168-.624-.566-1.315-1.117-1.206-.96-2.6-1.93-4.14-2.834-7.047-4.13-14.327-5.374-21.402-2.315-4.828 2.087-8.105 5.58-10.2 10.256-1.152 2.573-1.886 5.382-2.264 8.25-.255 1.928-.315 3.583-.272 4.778.007.16.32 4.742.32 4.742l-4.386 1.516-5.28 1.826c-16.55 5.743-27.687 21.5-27.687 39.212 0 23.786 19.232 45.6 40.883 45.623h11.16v5.993h-11.166C950.86 310.473 929 285.952 929 258.884c0-20.248 12.74-38.286 31.725-44.874l5.28-1.826c-.03-2.058.074-4.06.35-6.155.464-3.522 1.372-6.87 2.737-9.915 2.755-6.15 7.18-10.666 13.294-13.31 8.67-3.747 17.864-2.606 26.83 2.647 1.728 1.013 3.36 2.135 4.845 3.318.736.586 1.367 1.128 1.757 1.506l4.243-8.766c10.49-22.17 32.91-36.51 57.134-36.51 34.928 0 63.317 28.705 63.376 64.023l-.02.5c-.066 1.04-.076 1.274-.083 1.647l-.238 9.658 9.666.105c23.232.065 42.104 19.237 42.104 42.705 0 24.33-19.655 46.737-42.015 46.853l-2.073.01h-13.743zm-73.63 88.507c5.526 0 10.007-4.47 10.007-9.987 0-5.516-4.48-9.988-10.008-9.988-5.527 0-10.008 4.472-10.008 9.988 0 5.516 4.48 9.987 10.007 9.987zm49.61-10.81c0-.828.667-1.498 1.5-1.498h3.006c.83 0 1.5.663 1.5 1.496v3c0 .826-.665 1.496-1.5 1.496h-3.005c-.83 0-1.5-.664-1.5-1.497v-3zm10.01 0c0-.828.665-1.498 1.5-1.498h3.005c.828 0 1.5.663 1.5 1.496v3c0 .826-.666 1.496-1.5 1.496h-3.006c-.828 0-1.5-.664-1.5-1.497v-3zm-115.095 0c0-.828.665-1.498 1.5-1.498h3.005c.828 0 1.5.663 1.5 1.496v3c0 .826-.666 1.496-1.5 1.496h-3.006c-.828 0-1.5-.664-1.5-1.497v-3zm-10.01 0c0-.828.667-1.498 1.5-1.498h3.007c.828 0 1.5.663 1.5 1.496v3c0 .826-.666 1.496-1.5 1.496h-3.006c-.828 0-1.5-.664-1.5-1.497v-3zm4.005-118.35v16.974c0 2.203 1.787 4 3.99 4h115.12c2.204 0 3.99-1.79 3.99-4v-16.973c0-2.202-1.786-3.997-3.99-3.997h-115.12c-2.203 0-3.99 1.79-3.99 3.997zm91.075 8.986c0-1.654 1.344-2.996 2.997-2.996h20.027c1.655 0 2.997 1.345 2.997 2.996 0 1.655-1.344 2.997-2.997 2.997h-20.027c-1.655 0-2.997-1.345-2.997-2.997zm-65.054 0c0-1.654 1.332-2.996 3.002-2.996 1.658 0 3.002 1.345 3.002 2.996 0 1.655-1.333 2.997-3.002 2.997-1.66 0-3.003-1.345-3.003-2.997zm-10.01 0c0-1.654 1.334-2.996 3.003-2.996 1.66 0 3.003 1.345 3.003 2.996 0 1.655-1.333 2.997-3.003 2.997-1.658 0-3.002-1.345-3.002-2.997zm-10.007 0c0-1.654 1.332-2.996 3.002-2.996 1.658 0 3.003 1.345 3.003 2.996 0 1.655-1.333 2.997-3.003 2.997-1.658 0-3.002-1.345-3.002-2.997zm-6.005 21.976v16.972c0 2.202 1.787 3.998 3.99 3.998h115.12c2.204 0 3.99-1.79 3.99-3.998V300.81c0-2.203-1.786-4-3.99-4h-115.12c-2.203 0-3.99 1.79-3.99 4zm91.075 8.985c0-1.655 1.344-2.996 2.997-2.996h20.027c1.655 0 2.997 1.344 2.997 2.995 0 1.655-1.344 2.996-2.997 2.996h-20.027c-1.655 0-2.997-1.344-2.997-2.995zm-65.054 0c0-1.655 1.332-2.996 3.002-2.996 1.658 0 3.002 1.344 3.002 2.995 0 1.655-1.333 2.996-3.002 2.996-1.66 0-3.003-1.344-3.003-2.995zm-10.01 0c0-1.655 1.334-2.996 3.003-2.996 1.66 0 3.003 1.344 3.003 2.995 0 1.655-1.333 2.996-3.003 2.996-1.658 0-3.002-1.344-3.002-2.995zm-10.007 0c0-1.655 1.332-2.996 3.002-2.996 1.658 0 3.003 1.344 3.003 2.995 0 1.655-1.333 2.996-3.003 2.996-1.658 0-3.002-1.344-3.002-2.995zm-6.005 21.975v16.974c0 2.202 1.787 3.997 3.99 3.997h115.12c2.204 0 3.99-1.788 3.99-3.996V331.77c0-2.202-1.786-3.997-3.99-3.997h-115.12c-2.203 0-3.99 1.79-3.99 3.997zm91.075 8.986c0-1.654 1.344-2.996 2.997-2.996h20.027c1.655 0 2.997 1.345 2.997 2.996 0 1.655-1.344 2.997-2.997 2.997h-20.027c-1.655 0-2.997-1.345-2.997-2.997zm-65.054 0c0-1.654 1.332-2.996 3.002-2.996 1.658 0 3.002 1.345 3.002 2.996 0 1.655-1.333 2.997-3.002 2.997-1.66 0-3.003-1.345-3.003-2.997zm-10.01 0c0-1.654 1.334-2.996 3.003-2.996 1.66 0 3.003 1.345 3.003 2.996 0 1.655-1.333 2.997-3.003 2.997-1.658 0-3.002-1.345-3.002-2.997zm-10.007 0c0-1.654 1.332-2.996 3.002-2.996 1.658 0 3.003 1.345 3.003 2.996 0 1.655-1.333 2.997-3.003 2.997-1.658 0-3.002-1.345-3.002-2.997z" id="b"/>
    <filter x="-50%" y="-50%" width="200%" height="200%" filterUnits="objectBoundingBox" id="a">
      <feOffset dy="2" in="SourceAlpha" result="shadowOffsetOuter1"/>
      <feGaussianBlur stdDeviation="20" in="shadowOffsetOuter1" result="shadowBlurOuter1"/>
      <feColorMatrix values="0 0 0 0 0 0 0 0 0 0 0 0 0 0 0 0 0 0 0.2 0" in="shadowBlurOuter1"/>
    </filter>
  </defs>
  <g transform="translate(-891 -108)" fill-rule="nonzero" fill="none">
    <use fill="#000" filter="url(#a)" xlink:href="#b"/>
    <use fill="url(#c)" fill-rule="evenodd" xlink:href="#b"/>
  </g>
</svg>
