<?xml version="1.0" encoding="UTF-8" standalone="no"?>
<svg width="323px" height="330px" viewBox="0 0 323 330" version="1.1" xmlns="http://www.w3.org/2000/svg" xmlns:xlink="http://www.w3.org/1999/xlink">
    <defs>
        <linearGradient x1="85.200808%" y1="12.8996394%" x2="16.8028161%" y2="75.3560697%" id="linearGradient-1">
            <stop stop-color="#FFFFFF" stop-opacity="0.2" offset="0%"></stop>
            <stop stop-color="#FFFFFF" offset="52.6745855%"></stop>
            <stop stop-color="#FFFFFF" stop-opacity="0.4" offset="100%"></stop>
        </linearGradient>
        <path d="M998.034718,360 L927.745866,360 L940.210868,343.707855 L927,328 L1038.53708,328 C1042.09368,323.712302 1044.05721,319.074991 1044.05721,314.137695 C1044.05721,312.921434 1043.94501,311.719717 1043.70715,310.502151 C1041.00228,315.82192 1034.28763,319.075208 1024.90606,318.575005 C1023.25075,318.486747 1021.98043,317.073962 1022.06873,315.41946 C1022.15703,313.764958 1023.57051,312.495266 1025.22582,312.583523 C1038.59725,313.296457 1043.24967,305.724168 1034.73072,294.953152 C1028.84382,287.509986 1022.65979,283.827616 1008.59483,278.002067 C1003.668,275.961426 1003.15524,275.746859 1001.1509,274.865581 C998.950183,273.897957 996.983964,272.976135 995.108021,272.020942 C988.110001,268.457691 986.523924,267.627518 983.132112,265.652467 C975.065589,260.955334 969.089122,256.220334 965.098044,250.735726 C959.992192,243.719175 958.580034,235.879452 961.563462,227.319848 C965.523173,215.959243 974.519958,210.695572 985.038296,212.274368 C991.338616,213.220043 997.488431,216.568049 1002.1845,221.398399 C1002.07778,217.965526 1002.03667,214.209436 1002.03667,210 C1002.03667,206.686292 1004.72428,204 1008.03961,204 L1053.56186,204 L1099.08411,204 C1102.39943,204 1105.08704,206.686292 1105.08704,210 C1105.08704,214.118321 1105.04769,217.802708 1104.94605,221.175024 C1109.59447,216.465631 1115.62675,213.206115 1121.80551,212.274678 C1132.28855,210.694378 1141.25365,215.962185 1145.19663,227.323666 C1148.16602,235.879839 1146.76065,243.715649 1141.6778,250.730773 C1137.70348,256.215959 1131.75164,260.951831 1123.71866,265.649652 C1120.34107,267.624925 1118.76169,268.455168 1111.79346,272.018586 C1109.92526,272.973949 1107.96719,273.895919 1105.77563,274.86368 C1103.77973,275.745042 1103.26915,275.959622 1098.36335,278.000335 C1084.36085,283.825083 1078.20543,287.506265 1072.3448,294.948238 C1063.85972,305.722811 1068.49255,313.295821 1081.79338,312.583586 C1083.44867,312.494948 1084.86244,313.764316 1084.95112,315.418797 C1085.0398,317.073279 1083.76981,318.486356 1082.11452,318.574994 C1072.79466,319.074056 1066.11787,315.842106 1063.407,310.551406 C1063.1757,311.752135 1063.0665,312.937837 1063.0665,314.137695 C1063.0665,319.074991 1065.03003,323.712302 1068.58663,328 L1180,328 L1166.78913,343.707855 L1179.25413,360 L1109.089,360 L1109.089,382.994367 C1109.089,384.390513 1108.73155,385.703186 1108.1031,386.845891 C1108.465,387.021689 1108.80964,387.206926 1109.13191,387.400192 L1113.98378,390.309893 C1114.84924,390.828918 1115.59915,391.418624 1116.24118,392.175179 C1117.55185,393.719662 1118.27933,395.750216 1117.63235,398.124291 C1116.98171,400.511825 1115.30688,401.898729 1113.37767,402.556905 C1112.43358,402.878994 1111.48334,403 1110.46923,403 L997.416187,403 C996.405794,403 995.458166,402.879592 994.516963,402.55978 C992.595246,401.906799 990.924772,400.533448 990.26288,398.159361 C989.599507,395.77996 990.323444,393.73561 991.637548,392.182841 C992.280924,391.422617 993.032875,390.830896 993.901637,390.309893 L998.753512,387.400192 C998.896003,387.314739 999.042914,387.230844 999.193797,387.148631 C998.458267,385.938413 998.034718,384.516828 998.034718,382.994367 L998.034718,360 Z M998.034718,354 L998.034718,349.005633 C998.034718,344.584244 1001.61953,341 1006.04379,341 L1101.07992,341 C1105.50321,341 1109.089,344.575811 1109.089,349.005633 L1109.089,354 L1167.11736,354 L1159.11344,343.523315 L1167.11736,334 L1074.86372,334 C1076.76019,335.48148 1078.74577,336.806596 1080.73011,337.962979 C1081.62568,338.484879 1082.45139,338.931238 1083.18264,339.300095 C1083.59623,339.50872 1083.86815,339.637363 1083.97395,339.684513 C1084.08033,339.731924 1084.1853,339.78242 1084.28875,339.835936 C1084.96493,340.185765 1085.57397,340.563316 1086.12426,341 L1074.29456,341 C1067.07972,336.114395 1057.06357,327.013224 1057.06357,314.137695 C1057.06357,294.014648 1084.55021,276.443117 1091.29026,258.830078 C1098.70756,239.447234 1099.08411,229.129883 1099.08411,210 L1053.56186,210 L1008.03961,210 C1008.03961,229.129883 1008.41616,239.447234 1015.83346,258.830078 C1022.5735,276.443117 1050.06015,294.014648 1050.06015,314.137695 C1050.06015,327.013224 1040.04399,336.114395 1032.82915,341 L1020.99945,341 C1021.54974,340.563316 1022.15878,340.185765 1022.83497,339.835936 C1022.93841,339.78242 1023.04339,339.731924 1023.14977,339.684513 C1023.25556,339.637363 1023.52749,339.50872 1023.94108,339.300095 C1024.67232,338.931238 1025.49804,338.484879 1026.39361,337.962979 C1028.37795,336.806596 1030.36353,335.48148 1032.25999,334 L939.882643,334 L947.886555,343.523315 L939.882643,354 L998.034718,354 Z M1002.9127,232.757528 C1002.76095,232.57471 1002.62865,232.370815 1002.52041,232.147448 C998.982507,224.84627 991.584498,219.324228 984.146814,218.207836 C976.449806,217.052519 970.230683,220.691087 967.232244,229.293757 C962.981502,241.489347 969.908319,251.008299 986.153917,260.468104 C989.407998,262.362954 990.95063,263.170388 997.832886,266.674695 C999.599195,267.574064 1001.4649,268.448763 1003.56806,269.373488 C1005.51459,270.229348 1006.01863,270.440269 1010.8929,272.459138 C1014.22152,273.837817 1017.15043,275.112778 1019.76658,276.355377 C1014.88493,270.358306 1012.65126,266.79551 1010.63728,261.996892 C1010.4939,261.655252 1010.357,261.314183 1010.22665,260.973556 C1006.06064,250.086945 1003.93945,242.364444 1002.9127,232.757528 Z M1104.24302,232.454023 C1103.22862,242.202484 1101.10686,249.972539 1096.89706,260.973556 C1096.76671,261.314183 1096.62982,261.655252 1096.48643,261.996892 C1094.48396,266.768098 1092.26429,270.317562 1087.44053,276.252843 C1089.98968,275.043152 1092.83528,273.801012 1096.05681,272.460922 C1100.90993,270.442126 1101.41177,270.231217 1103.34973,269.375441 C1105.44352,268.450853 1107.30088,267.576302 1109.05926,266.677104 C1115.91157,263.172963 1117.44743,262.3656 1120.68712,260.470972 C1136.86216,251.011536 1143.75979,241.49173 1139.52521,229.289993 C1136.53998,220.688198 1130.35466,217.053766 1122.70076,218.207579 C1115.30139,219.323021 1107.93855,224.842571 1104.41627,232.14291 C1104.36401,232.251238 1104.30608,232.355004 1104.24302,232.454023 Z M1004.03765,350.994844 L1004.03765,381.005156 C1004.03765,383.218149 1005.83097,385 1008.04314,385 L1099.08057,385 C1101.30366,385 1103.08606,383.211448 1103.08606,381.005156 L1103.08606,350.994844 C1103.08606,348.781851 1101.29274,347 1099.08057,347 L1008.04314,347 C1005.82006,347 1004.03765,348.788552 1004.03765,350.994844 Z M1056.06308,181 C1056.06308,182.656854 1054.71928,184 1053.06161,184 C1051.40395,184 1050.06015,182.656854 1050.06015,181 L1050.06015,151 C1050.06015,149.343146 1051.40395,148 1053.06161,148 C1054.71928,148 1056.06308,149.343146 1056.06308,151 L1056.06308,181 Z M1090.18052,186.066075 C1089.35209,187.500953 1087.51675,187.99225 1086.08117,187.163418 C1084.64559,186.334586 1084.1534,184.499486 1084.98183,183.064608 L1095.98183,164.01205 C1096.81025,162.577172 1098.64559,162.085875 1100.08117,162.914707 C1101.51675,163.743539 1102.00895,165.578639 1101.18052,167.013517 L1090.18052,186.066075 Z M1021.1414,183.025546 C1021.96983,184.460424 1021.47763,186.295523 1020.04205,187.124356 C1018.60647,187.953188 1016.77113,187.461891 1015.94271,186.027013 L1004.94271,166.974454 C1004.11428,165.539576 1004.60647,163.704477 1006.04205,162.875644 C1007.47763,162.046812 1009.31297,162.538109 1010.1414,163.972987 L1021.1414,183.025546 Z M1029.04988,360 C1029.04988,358.343146 1030.39366,357 1032.05928,357 L1052.05319,357 C1053.71524,357 1055.06259,358.346517 1055.06259,360 C1055.06259,361.656854 1053.71881,363 1052.05319,363 L1032.05928,363 C1030.39723,363 1029.04988,361.653483 1029.04988,360 Z M1059.06455,360 C1059.06455,358.343146 1060.40758,357 1062.06937,357 L1070.06657,357 C1071.72609,357 1073.07139,358.346517 1073.07139,360 C1073.07139,361.656854 1071.72836,363 1070.06657,363 L1062.06937,363 C1060.40985,363 1059.06455,361.653483 1059.06455,360 Z M1019.04499,372 C1019.04499,370.343146 1020.38227,369 1022.03716,369 L1032.06064,369 C1033.71317,369 1035.05281,370.346517 1035.05281,372 C1035.05281,373.656854 1033.71553,375 1032.06064,375 L1022.03716,375 C1020.38463,375 1019.04499,373.653483 1019.04499,372 Z M1039.05477,372 C1039.05477,370.343146 1040.39855,369 1042.06417,369 L1062.05808,369 C1063.72013,369 1065.06748,370.346517 1065.06748,372 C1065.06748,373.656854 1063.7237,375 1062.05808,375 L1042.06417,375 C1040.40212,375 1039.05477,373.653483 1039.05477,372 Z M1069.06944,372 C1069.06944,370.343146 1070.40831,369 1072.06344,369 L1084.08423,369 C1085.73778,369 1087.07824,370.346517 1087.07824,372 C1087.07824,373.656854 1085.73936,375 1084.08423,375 L1072.06344,375 C1070.4099,375 1069.06944,373.653483 1069.06944,372 Z M1001.842,392.545149 L996.990121,395.454851 C995.561302,396.311724 995.757912,397 997.416187,397 L1110.46923,397 C1112.13472,397 1112.31826,396.308213 1110.8953,395.454851 L1106.04342,392.545149 C1104.6146,391.688276 1102.1216,391 1100.46207,391 L1007.42335,391 C1005.76233,391 1003.26496,391.691787 1001.842,392.545149 Z M1050.10484,268.433944 L1050.10484,235.512527 L1044.68654,239.014545 C1043.29455,239.914229 1041.43643,239.515691 1040.53631,238.124384 C1039.63618,236.733077 1040.03492,234.875862 1041.4269,233.976178 L1056.10778,224.487473 L1056.10778,268.433944 C1056.10778,270.090798 1054.76398,271.433944 1053.10631,271.433944 C1051.44865,271.433944 1050.10484,270.090798 1050.10484,268.433944 Z" id="path-2"></path>
        <filter x="-50%" y="-50%" width="200%" height="200%" filterUnits="objectBoundingBox" id="filter-3">
            <feOffset dx="0" dy="2" in="SourceAlpha" result="shadowOffsetOuter1"></feOffset>
            <feGaussianBlur stdDeviation="20" in="shadowOffsetOuter1" result="shadowBlurOuter1"></feGaussianBlur>
            <feColorMatrix values="0 0 0 0 0   0 0 0 0 0   0 0 0 0 0  0 0 0 0.2 0" type="matrix" in="shadowBlurOuter1"></feColorMatrix>
        </filter>
    </defs>
    <g id="Page-1" stroke="none" stroke-width="1" fill="none" fill-rule="evenodd">
        <g id="04-AboutUs" transform="translate(-892.000000, -115.000000)" fill-rule="nonzero">
            <g id="Hero-Icon-About-Us">
                <use fill="black" fill-opacity="1" filter="url(#filter-3)" xlink:href="#path-2"></use>
                <use fill="url(#linearGradient-1)" fill-rule="evenodd" xlink:href="#path-2"></use>
            </g>
        </g>
    </g>
</svg>