<?xml version="1.0" encoding="UTF-8" standalone="no"?>
<svg width="302px" height="306px" viewBox="0 0 302 306" version="1.1" xmlns="http://www.w3.org/2000/svg"
     xmlns:xlink="http://www.w3.org/1999/xlink">
    <defs>
        <linearGradient x1="92.6724355%" y1="93.1191233%" x2="11.0633791%" y2="12.7167821%" id="linearGradient-1">
            <stop stop-color="#FFFFFF" stop-opacity="0.2" offset="0%"></stop>
            <stop stop-color="#FFFFFF" offset="52.6745855%"></stop>
            <stop stop-color="#FFFFFF" stop-opacity="0.4" offset="100%"></stop>
        </linearGradient>
        <path d="M971.273272,387.985843 C961.470114,387.566887 953.919128,377.770807 953.919128,366.0338 C953.919128,361.478381 954.37084,357.448406 955.356053,351.847491 C955.454235,351.289325 955.558501,350.708867 955.686055,350.007978 C955.759515,349.604329 956.015774,348.203914 956.021291,348.17371 C958.033881,337.153896 958.557259,330.841305 957.585096,321.056261 C956.801938,313.173587 954.894051,305.832925 952.205684,299.159802 C950.947573,296.036892 949.602449,293.271994 948.262648,290.89919 C947.798718,290.077565 947.370669,289.366322 946.990125,288.769701 C946.770579,288.425494 946.621677,288.204147 946.555074,288.109877 C945.151151,286.122755 946.572219,283.3788 949.005252,283.3788 L983.937052,283.3788 L983.937052,172.586 C983.937052,166.738146 988.675198,162 994.523052,162 L1161.42005,162 C1167.26791,162 1172.00605,166.738146 1172.00605,172.586 L1172.00605,366.034 C1172.00605,378.164533 1162.17023,388 1150.04005,388 L971.603408,388 C971.490156,388 971.380111,387.99519 971.273272,387.985843 Z M983.937052,289.3788 L954.271668,289.3788 C955.470594,291.627585 956.654521,294.1463 957.771029,296.91772 C960.662965,304.096145 962.713425,311.985364 963.555701,320.46307 C964.593548,330.909237 964.028144,337.728718 961.923661,349.251682 C961.917684,349.284408 961.66194,350.682008 961.589097,351.082268 C961.463486,351.772476 961.361196,352.341939 961.265328,352.886944 C960.335286,358.174219 959.919128,361.886992 959.919128,366.0338 C959.919128,374.92305 965.394641,381.903276 971.794783,381.998807 C972.223357,381.99345 972.641595,381.970056 973.049333,381.928981 C978.977667,381.178205 983.875794,374.544959 983.936678,366.191328 C983.936927,366.138994 983.937052,366.086552 983.937052,366.034 L983.937052,289.3788 Z M1150.04005,382 C1158.85657,382 1166.00605,374.850776 1166.00605,366.034 L1166.00605,172.586 C1166.00605,170.051854 1163.9542,168 1161.42005,168 L994.523052,168 C991.988906,168 989.937052,170.051854 989.937052,172.586 L989.937052,366.034 C989.937052,372.567431 988.230309,378.11456 985.031047,382 L1150.04005,382 Z M1005.90275,262.8279 C1004.2459,262.8279 1002.90275,261.484754 1002.90275,259.8279 L1002.90275,202.9319 C1002.90275,201.275046 1004.2459,199.9319 1005.90275,199.9319 L1150.04075,199.9319 C1151.69761,199.9319 1153.04075,201.275046 1153.04075,202.9319 L1153.04075,259.8279 C1153.04075,261.484754 1151.69761,262.8279 1150.04075,262.8279 L1005.90275,262.8279 Z M1008.90275,256.8279 L1147.04075,256.8279 L1147.04075,205.9319 L1008.90275,205.9319 L1008.90275,256.8279 Z M1005.90235,186.9656 C1004.2455,186.9656 1002.90235,185.622454 1002.90235,183.9656 C1002.90235,182.308746 1004.2455,180.9656 1005.90235,180.9656 L1150.04035,180.9656 C1151.69721,180.9656 1153.04035,182.308746 1153.04035,183.9656 C1153.04035,185.622454 1151.69721,186.9656 1150.04035,186.9656 L1005.90235,186.9656 Z M1005.90275,308.3449 C1004.2459,308.3449 1002.90275,307.001754 1002.90275,305.3449 L1002.90275,282.5869 C1002.90275,280.930046 1004.2459,279.5869 1005.90275,279.5869 L1028.66175,279.5869 C1030.31861,279.5869 1031.66175,280.930046 1031.66175,282.5869 L1031.66175,305.3449 C1031.66175,307.001754 1030.31861,308.3449 1028.66175,308.3449 L1005.90275,308.3449 Z M1025.66175,302.3449 L1025.66175,285.5869 L1008.90275,285.5869 L1008.90275,302.3449 L1025.66175,302.3449 Z M1005.90275,350.0689 C1004.2459,350.0689 1002.90275,348.725754 1002.90275,347.0689 L1002.90275,324.3099 C1002.90275,322.653046 1004.2459,321.3099 1005.90275,321.3099 L1028.66175,321.3099 C1030.31861,321.3099 1031.66175,322.653046 1031.66175,324.3099 L1031.66175,347.0689 C1031.66175,348.725754 1030.31861,350.0689 1028.66175,350.0689 L1005.90275,350.0689 Z M1025.66175,344.0689 L1025.66175,327.3099 L1008.90275,327.3099 L1008.90275,344.0689 L1025.66175,344.0689 Z M1047.62595,285.5862 C1045.9691,285.5862 1044.62595,284.243054 1044.62595,282.5862 C1044.62595,280.929346 1045.9691,279.5862 1047.62595,279.5862 L1150.03995,279.5862 C1151.69681,279.5862 1153.03995,280.929346 1153.03995,282.5862 C1153.03995,284.243054 1151.69681,285.5862 1150.03995,285.5862 L1047.62595,285.5862 Z M1047.62595,304.5515 C1045.9691,304.5515 1044.62595,303.208354 1044.62595,301.5515 C1044.62595,299.894646 1045.9691,298.5515 1047.62595,298.5515 L1085.55795,298.5515 C1087.21481,298.5515 1088.55795,299.894646 1088.55795,301.5515 C1088.55795,303.208354 1087.21481,304.5515 1085.55795,304.5515 L1047.62595,304.5515 Z M1047.62595,327.3103 C1045.9691,327.3103 1044.62595,325.967154 1044.62595,324.3103 C1044.62595,322.653446 1045.9691,321.3103 1047.62595,321.3103 L1150.03995,321.3103 C1151.69681,321.3103 1153.03995,322.653446 1153.03995,324.3103 C1153.03995,325.967154 1151.69681,327.3103 1150.03995,327.3103 L1047.62595,327.3103 Z M1047.62595,346.2757 C1045.9691,346.2757 1044.62595,344.932554 1044.62595,343.2757 C1044.62595,341.618846 1045.9691,340.2757 1047.62595,340.2757 L1085.55795,340.2757 C1087.21481,340.2757 1088.55795,341.618846 1088.55795,343.2757 C1088.55795,344.932554 1087.21481,346.2757 1085.55795,346.2757 L1047.62595,346.2757 Z"
              id="path-2"></path>
        <filter x="-50%" y="-50%" width="200%" height="200%" filterUnits="objectBoundingBox" id="filter-3">
            <feOffset dx="0" dy="2" in="SourceAlpha" result="shadowOffsetOuter1"></feOffset>
            <feGaussianBlur stdDeviation="20" in="shadowOffsetOuter1" result="shadowBlurOuter1"></feGaussianBlur>
            <feColorMatrix values="0 0 0 0 0   0 0 0 0 0   0 0 0 0 0  0 0 0 0.2 0" type="matrix"
                           in="shadowBlurOuter1"></feColorMatrix>
        </filter>
    </defs>
    <g id="Page-1" stroke="none" stroke-width="1" fill="none" fill-rule="evenodd">
        <g id="05-Blog" transform="translate(-910.000000, -124.000000)" fill-rule="nonzero">
            <g id="Hero-Icon-Blog">
                <use fill="black" fill-opacity="1" filter="url(#filter-3)" xlink:href="#path-2"></use>
                <use fill="url(#linearGradient-1)" fill-rule="evenodd" xlink:href="#path-2"></use>
            </g>
        </g>
    </g>
</svg>