<svg width="323" height="330" viewBox="0 0 323 330" xmlns="http://www.w3.org/2000/svg" xmlns:xlink="http://www.w3.org/1999/xlink">
  <defs>
    <linearGradient x1="85.201%" y1="12.9%" x2="16.803%" y2="75.356%" id="c">
      <stop stop-color="#FFF" stop-opacity=".2" offset="0%"/>
      <stop stop-color="#FFF" offset="52.675%"/>
      <stop stop-color="#FFF" stop-opacity=".4" offset="100%"/>
    </linearGradient>
    <path d="M998.035 360h-70.29l12.466-16.292L927 328h111.537c3.557-4.288 5.52-8.925 5.52-13.862 0-1.217-.112-2.418-.35-3.636-2.705 5.32-9.42 8.573-18.8 8.073-1.656-.088-2.927-1.5-2.838-3.156.087-1.655 1.5-2.925 3.156-2.836 13.37.712 18.024-6.86 9.505-17.63-5.886-7.444-12.07-11.126-26.135-16.952-4.927-2.04-5.44-2.255-7.444-3.136-2.2-.968-4.166-1.89-6.042-2.845-6.998-3.562-8.584-4.392-11.976-6.368-8.066-4.697-14.043-9.432-18.034-14.916-5.106-7.017-6.518-14.857-3.535-23.416 3.96-11.36 12.957-16.624 23.475-15.046 6.3.946 12.45 4.294 17.146 9.124-.106-3.432-.147-7.19-.147-11.398 0-3.314 2.687-6 6.003-6h91.044c3.315 0 6.003 2.686 6.003 6 0 4.118-.04 7.803-.14 11.175 4.647-4.71 10.68-7.97 16.86-8.9 10.482-1.58 19.447 3.687 23.39 15.05 2.97 8.555 1.564 16.39-3.52 23.406-3.974 5.486-9.925 10.222-17.958 14.92-3.38 1.975-4.958 2.805-11.927 6.37-1.868.954-3.826 1.876-6.017 2.844-1.996.88-2.507 1.096-7.413 3.136-14.002 5.825-20.158 9.506-26.018 16.948-8.485 10.775-3.852 18.348 9.448 17.636 1.656-.09 3.07 1.18 3.158 2.835.09 1.653-1.18 3.066-2.835 3.155-9.32.5-15.997-2.733-18.708-8.024-.23 1.202-.34 2.388-.34 3.588 0 4.937 1.963 9.574 5.52 13.862H1180l-13.21 15.708L1179.253 360h-70.165v22.994c0 1.397-.358 2.71-.987 3.852.362.176.707.36 1.03.554l4.85 2.91c.866.52 1.616 1.11 2.258 1.865 1.312 1.545 2.04 3.575 1.392 5.95-.65 2.387-2.325 3.774-4.254 4.432-.944.322-1.895.443-2.91.443H997.417c-1.01 0-1.958-.12-2.9-.44-1.92-.653-3.59-2.027-4.253-4.4-.663-2.38.06-4.424 1.375-5.977.643-.76 1.395-1.352 2.264-1.873l4.852-2.91c.142-.085.29-.17.44-.25-.736-1.212-1.16-2.633-1.16-4.156V360zm0-6v-4.994c0-4.422 3.585-8.006 8.01-8.006h95.035c4.423 0 8.01 3.576 8.01 8.006V354h58.027l-8.004-10.477 8.004-9.523h-92.253c1.896 1.48 3.882 2.807 5.866 3.963.896.522 1.72.968 2.453 1.337.413.21.685.337.79.385.107.047.212.097.316.15.675.35 1.284.728 1.834 1.165h-11.83c-7.214-4.886-17.23-13.987-17.23-26.862 0-20.123 27.486-37.695 34.226-55.308 7.418-19.383 7.794-29.7 7.794-48.83h-91.044c0 19.13.376 29.447 7.793 48.83 6.74 17.613 34.227 35.185 34.227 55.308 0 12.875-10.016 21.976-17.23 26.862H1021c.55-.437 1.16-.814 1.835-1.164.103-.054.208-.104.315-.15.106-.05.377-.177.79-.386.732-.37 1.558-.815 2.454-1.337 1.984-1.156 3.97-2.482 5.866-3.963h-92.377l8.004 9.523L939.883 354h58.152zm4.878-121.242c-.152-.183-.284-.387-.393-.61-3.537-7.302-10.936-12.824-18.373-13.94-7.697-1.155-13.916 2.483-16.915 11.086-4.25 12.195 2.676 21.714 18.922 31.174 3.254 1.895 4.797 2.702 11.68 6.207 1.765.9 3.63 1.774 5.734 2.698 1.947.856 2.45 1.067 7.325 3.086 3.33 1.378 6.257 2.653 8.874 3.895-4.882-5.997-7.116-9.56-9.13-14.358-.143-.342-.28-.683-.41-1.023-4.166-10.887-6.288-18.61-7.314-28.216zm101.33-.304c-1.014 9.748-3.136 17.52-7.346 28.52-.13.34-.267.68-.41 1.023-2.003 4.77-4.223 8.32-9.046 14.256 2.55-1.21 5.395-2.452 8.617-3.792 4.853-2.018 5.355-2.23 7.293-3.085 2.094-.924 3.95-1.8 5.71-2.698 6.852-3.504 8.387-4.31 11.627-6.206 16.175-9.458 23.073-18.978 18.838-31.18-2.985-8.602-9.17-12.236-16.824-11.082-7.4 1.115-14.76 6.635-18.284 13.935-.052.108-.11.212-.173.31zm-100.205 118.54v30.01c0 2.214 1.793 3.996 4.005 3.996h91.038c2.224 0 4.006-1.79 4.006-3.995v-30.01c0-2.213-1.793-3.995-4.005-3.995h-91.037c-2.223 0-4.005 1.79-4.005 3.995zM1056.063 181c0 1.657-1.344 3-3 3-1.66 0-3.003-1.343-3.003-3v-30c0-1.657 1.344-3 3.002-3 1.657 0 3 1.343 3 3v30zm34.118 5.066c-.828 1.435-2.663 1.926-4.1 1.097-1.434-.828-1.927-2.664-1.098-4.098l11-19.053c.828-1.435 2.664-1.926 4.1-1.097 1.435.83 1.927 2.664 1.1 4.1l-11 19.05zm-69.04-3.04c.83 1.434.338 3.27-1.098 4.098-1.436.83-3.27.338-4.1-1.097l-11-19.053c-.828-1.434-.336-3.27 1.1-4.098 1.436-.83 3.27-.338 4.1 1.097l11 19.053zM1029.05 360c0-1.657 1.344-3 3.01-3h19.993c1.662 0 3.01 1.347 3.01 3 0 1.657-1.344 3-3.01 3h-19.994c-1.663 0-3.01-1.347-3.01-3zm30.015 0c0-1.657 1.343-3 3.004-3h7.997c1.66 0 3.004 1.347 3.004 3 0 1.657-1.342 3-3.003 3h-7.998c-1.66 0-3.005-1.347-3.005-3zm-40.02 12c0-1.657 1.337-3 2.992-3h10.024c1.653 0 2.993 1.347 2.993 3 0 1.657-1.337 3-2.992 3h-10.023c-1.652 0-2.992-1.347-2.992-3zm20.01 0c0-1.657 1.344-3 3.01-3h19.993c1.662 0 3.01 1.347 3.01 3 0 1.657-1.344 3-3.01 3h-19.994c-1.662 0-3.01-1.347-3.01-3zm30.014 0c0-1.657 1.338-3 2.993-3h12.02c1.655 0 2.995 1.347 2.995 3 0 1.657-1.34 3-2.994 3h-12.02c-1.654 0-2.995-1.347-2.995-3zm-67.228 20.545l-4.852 2.91c-1.43.857-1.232 1.545.426 1.545h113.053c1.665 0 1.848-.692.425-1.545l-4.852-2.91c-1.428-.857-3.92-1.545-5.58-1.545h-93.04c-1.66 0-4.158.692-5.58 1.545zm48.263-124.11v-32.922l-5.418 3.502c-1.392.9-3.25.5-4.15-.89-.9-1.392-.502-3.25.89-4.15l14.68-9.488v43.947c0 1.657-1.343 3-3 3-1.658 0-3.002-1.343-3.002-3z" id="b"/>
    <filter x="-50%" y="-50%" width="200%" height="200%" filterUnits="objectBoundingBox" id="a">
      <feOffset dy="2" in="SourceAlpha" result="shadowOffsetOuter1"/>
      <feGaussianBlur stdDeviation="20" in="shadowOffsetOuter1" result="shadowBlurOuter1"/>
      <feColorMatrix values="0 0 0 0 0 0 0 0 0 0 0 0 0 0 0 0 0 0 0.2 0" in="shadowBlurOuter1"/>
    </filter>
  </defs>
  <g transform="translate(-892 -115)" fill-rule="nonzero" fill="none">
    <use fill="#000" filter="url(#a)" xlink:href="#b"/>
    <use fill="url(#c)" fill-rule="evenodd" xlink:href="#b"/>
  </g>
</svg>
