<svg width="64" height="50" viewBox="0 0 64 50" xmlns="http://www.w3.org/2000/svg">
  <g fill="#DB881F" fill-rule="evenodd">
    <path d="M61 10V5.005C61 3.9 60.106 3 59.004 3H4.996C3.888 3 3 3.898 3 5.005V10h58zm0 3H3v31.995C3 46.1 3.894 47 4.996 47h54.008C60.112 47 61 46.102 61 44.995V13zM0 4.007C0 1.794 1.795 0 4.003 0h55.994C62.207 0 64 1.794 64 4.007v41.986C64 48.206 62.205 50 59.997 50H4.003C1.793 50 0 48.206 0 45.993V4.007zM6.5 8C5.672 8 5 7.328 5 6.5S5.672 5 6.5 5 8 5.672 8 6.5 7.328 8 6.5 8zm5 0c-.828 0-1.5-.672-1.5-1.5S10.672 5 11.5 5s1.5.672 1.5 1.5S12.328 8 11.5 8zm5 0c-.828 0-1.5-.672-1.5-1.5S15.672 5 16.5 5s1.5.672 1.5 1.5S17.328 8 16.5 8z"/>
    <path d="M12.44 36.44l6.94-6.947-6.94-6.932c-.586-.584-.587-1.534 0-2.12.584-.586 1.534-.587 2.12 0l9.06 9.05-9.06 9.07c-.584.586-1.534.587-2.12 0-.586-.584-.587-1.534 0-2.12zM22 37.5c0-.828.672-1.5 1.497-1.5h7.006c.827 0 1.497.666 1.497 1.5 0 .828-.672 1.5-1.497 1.5h-7.006C22.67 39 22 38.334 22 37.5z" fill-opacity=".5" fill-rule="nonzero"/>
  </g>
</svg>
