<?xml version="1.0" encoding="UTF-8" standalone="no"?>
<svg width="64px" height="50px" viewBox="0 0 64 50" version="1.1" xmlns="http://www.w3.org/2000/svg" xmlns:xlink="http://www.w3.org/1999/xlink">
    <g id="Page-1" stroke="none" stroke-width="1" fill="none" fill-rule="evenodd">
        <g id="02-Features" transform="translate(-1087.000000, -3319.000000)" fill="#DB881F">
            <g id="browser-coding" transform="translate(1087.000000, 3319.000000)">
                <path d="M61,10 L61,5.00492334 C61,3.89885511 60.1061404,3 59.0035087,3 L4.99649128,3 C3.88783214,3 3,3.89763476 3,5.00492334 L3,10 L61,10 Z M61,13 L3,13 L3,44.9950767 C3,46.1011449 3.89385959,47 4.99649128,47 L59.0035087,47 C60.1121679,47 61,46.1023652 61,44.9950767 L61,13 Z M0,4.00718972 C0,1.79407995 1.79537646,0 4.00348663,0 L59.9965134,0 C62.207578,0 64,1.79426827 64,4.00718972 L64,45.9928103 C64,48.2059201 62.2046235,50 59.9965134,50 L4.00348663,50 C1.79242202,50 0,48.2057317 0,45.9928103 L0,4.00718972 Z M6.5,8 C5.67157288,8 5,7.32842712 5,6.5 C5,5.67157288 5.67157288,5 6.5,5 C7.32842712,5 8,5.67157288 8,6.5 C8,7.32842712 7.32842712,8 6.5,8 Z M11.5,8 C10.6715729,8 10,7.32842712 10,6.5 C10,5.67157288 10.6715729,5 11.5,5 C12.3284271,5 13,5.67157288 13,6.5 C13,7.32842712 12.3284271,8 11.5,8 Z M16.5,8 C15.6715729,8 15,7.32842712 15,6.5 C15,5.67157288 15.6715729,5 16.5,5 C17.3284271,5 18,5.67157288 18,6.5 C18,7.32842712 17.3284271,8 16.5,8 Z" id="Combined-Shape"></path>
                <path d="M12.4388026,36.4398773 L19.3786794,29.4929651 L12.4398779,22.5611979 C11.8537944,21.9757087 11.8533128,21.0259613 12.4388021,20.4398779 C13.0242913,19.8537944 13.9740387,19.8533128 14.5601221,20.4388021 L23.6213206,29.4908145 L14.5611974,38.5601227 C13.9757078,39.1462058 13.0259605,39.146687 12.4398773,38.5611974 C11.8537942,37.9757078 11.853313,37.0259605 12.4388026,36.4398773 Z M22,37.5 C22,36.6715729 22.671656,36 23.497101,36 L30.502899,36 C31.329725,36 32,36.6657972 32,37.5 C32,38.3284271 31.328344,39 30.502899,39 L23.497101,39 C22.670275,39 22,38.3342028 22,37.5 Z" id="Combined-Shape" fill-opacity="0.5" fill-rule="nonzero"></path>
            </g>
        </g>
    </g>
</svg>