<svg width="74" height="50" viewBox="0 0 74 50" xmlns="http://www.w3.org/2000/svg">
  <g fill="#DB881F" fill-rule="evenodd">
    <path d="M59 6.65s-.554.015-1.455.402C56.645 7.44 56 8 56 8V5.002C56 3.896 55.104 3 54 3H10c-1.105 0-2 .897-2 2.002V40h48v-5h3v5H5V4c0-2.21 1.797-4 3.993-4h46.014C57.212 0 59 1.796 59 4v2.65zM11 6h3v7.882h-3V6zM0 40h64v5.99c0 2.215-1.795 4.01-4.003 4.01H4.003C1.793 50 0 48.212 0 45.99V40zm3 3v2c0 1.112.894 2 1.996 2h54.008C60.112 47 61 46.105 61 45v-2H3z"/>
    <path d="M48.684 17.887c-.394 0-.76.116-1.098.348-.476.327-.834.873-.91 1.39L46.52 20.7l-1.07.186c-1.662.287-3.45 1.62-3.45 3.866C42 27.095 43.778 29 45.962 29H67.04c2.183 0 3.96-1.905 3.96-4.248 0-1.607-.935-2.66-1.72-3.263l-.73-.56.23-1.233c.074-.374.143-.727.143-1.018 0-4.858-3.306-6.634-6.138-6.68h-.116c-1.968 0-3.89.79-5.16 2.126l-.623.656-.87-.246c-2.27-.64-4.456.39-5.088 2.394l-.416 1.317-1.346-.304c-.165-.037-.327-.056-.484-.056M67.04 32H45.96C42.122 32 39 28.75 39 24.752c0-3.094 2.006-5.688 4.985-6.596.37-.948 1.04-1.8 1.902-2.394.8-.548 1.714-.844 2.66-.872 1.378-2.55 4.342-3.942 7.42-3.434C57.8 9.868 60.304 8.966 62.832 9c4.38.07 9.093 3.13 9.093 9.68 0 .368-.042.72-.097 1.05C73.236 21.092 74 22.845 74 24.75 74 28.75 70.877 32 67.04 32" fill-opacity=".5"/>
  </g>
</svg>
