<?xml version="1.0" encoding="UTF-8" standalone="no"?>
<svg width="74px" height="50px" viewBox="0 0 74 50" version="1.1" xmlns="http://www.w3.org/2000/svg" xmlns:xlink="http://www.w3.org/1999/xlink">
    <g id="Page-1" stroke="none" stroke-width="1" fill="none" fill-rule="evenodd">
        <g id="02-Features" transform="translate(-683.000000, -3318.000000)" fill="#DB881F">
            <g id="Features-icon-develop-in-the-cloud" transform="translate(683.000000, 3318.000000)">
                <path d="M59,6.6505127 C59,6.6505127 58.4459229,6.66503906 57.545105,7.0524292 C56.6442871,7.43981934 56,8 56,8 L56,5.00239962 C56,3.89627863 55.1039475,3 53.9986107,3 L10.0013893,3 C8.89493844,3 8,3.89650485 8,5.00239962 L8,40 L56,40 L56,35 L59,35 L59,40 L5,40 L5,4.00002553 C5,1.79087243 6.79667664,0 8.99267864,0 L55.0073214,0 C57.2124169,0 59,1.79642476 59,4.00002553 L59,6.6505127 Z M11,6 L14,6 L14,13.8818506 L11,13.8818506 L11,6 Z M0,40 L64,40 L64,45.990237 C64,48.204768 62.2046235,50 59.9965134,50 L4.00348663,50 C1.79242202,50 0,48.2122004 0,45.990237 L0,40 Z M3,43 L3,45 C3,46.1122704 3.89385959,47 4.99649128,47 L59.0035087,47 C60.1121679,47 61,46.1045695 61,45 L61,43 L3,43 Z" id="Combined-Shape"></path>
                <path d="M48.684,17.8869822 C48.29,17.8869822 47.923,18.0029822 47.586,18.2349822 C47.11,18.5619822 46.752,19.1079822 46.677,19.6249822 L46.52,20.7009822 L45.449,20.8859822 C43.788,21.1729822 42,22.5049822 42,24.7519822 C42,27.0949822 43.778,28.9999822 45.962,28.9999822 L67.039,28.9999822 C69.223,28.9999822 71,27.0949822 71,24.7519822 C71,23.1449822 70.065,22.0909822 69.281,21.4889822 L68.551,20.9299822 L68.781,19.6969822 C68.854,19.3229822 68.923,18.9699822 68.923,18.6789822 C68.923,13.8219822 65.617,12.0459822 62.785,12.0009822 C62.746,11.9999822 62.707,11.9999822 62.669,11.9999822 C60.702,11.9999822 58.781,12.7899822 57.51,14.1259822 L56.887,14.7819822 L56.016,14.5359822 C53.746,13.8959822 51.561,14.9269822 50.929,16.9299822 L50.514,18.2469822 L49.168,17.9429822 C49.003,17.9059822 48.841,17.8869822 48.684,17.8869822 M67.039,31.9999822 L45.962,31.9999822 C42.123,31.9999822 39,28.7489822 39,24.7519822 C39,21.6579822 41.006,19.0639822 43.985,18.1559822 C44.355,17.2079822 45.025,16.3549822 45.887,15.7619822 C46.686,15.2139822 47.601,14.9179822 48.548,14.8899822 C49.925,12.3409822 52.889,10.9479822 55.968,11.4559822 C57.8,9.86798216 60.303,8.96598216 62.831,9.00098216 C67.21,9.07098216 71.923,12.1289822 71.923,18.6789822 C71.923,19.0479822 71.881,19.3999822 71.826,19.7289822 C73.235,21.0929822 74,22.8459822 74,24.7519822 C74,28.7489822 70.877,31.9999822 67.039,31.9999822" id="Fill-1" fill-opacity="0.5"></path>
            </g>
        </g>
    </g>
</svg>