<?xml version="1.0" encoding="UTF-8" standalone="no"?>
<svg width="64px" height="50px" viewBox="0 0 64 50" version="1.1" xmlns="http://www.w3.org/2000/svg" xmlns:xlink="http://www.w3.org/1999/xlink">
    <!-- Generator: Sketch 42 (36781) - http://www.bohemiancoding.com/sketch -->
    <title>Features icon flexible IDE</title>
    <desc>Created with Sketch.</desc>
    <defs></defs>
    <g id="Page-1" stroke="none" stroke-width="1" fill="none" fill-rule="evenodd">
        <g id="02-Features" transform="translate(-1087.000000, -3902.000000)" fill="#DB881F">
            <g id="Features-icon-flexible-IDE" transform="translate(1087.000000, 3902.000000)">
                <path d="M61,10 L61,5.00492334 C61,3.89885511 60.1061404,3 59.0035087,3 L4.99649128,3 C3.88783214,3 3,3.89763476 3,5.00492334 L3,10 L61,10 Z M61,13 L3,13 L3,44.9950767 C3,46.1011449 3.89385959,47 4.99649128,47 L59.0035087,47 C60.1121679,47 61,46.1023652 61,44.9950767 L61,13 Z M0,4.00718972 C0,1.79407995 1.79537646,0 4.00348663,0 L59.9965134,0 C62.207578,0 64,1.79426827 64,4.00718972 L64,45.9928103 C64,48.2059201 62.2046235,50 59.9965134,50 L4.00348663,50 C1.79242202,50 0,48.2057317 0,45.9928103 L0,4.00718972 Z M12,17.5054016 C12,16.6739913 12.6657972,16 13.5,16 C14.3284271,16 15,16.6645216 15,17.5054016 L15,42.4945984 C15,43.3260087 14.3342028,44 13.5,44 C12.6715729,44 12,43.3354784 12,42.4945984 L12,17.5054016 Z M6.5,8 C5.67157288,8 5,7.32842712 5,6.5 C5,5.67157288 5.67157288,5 6.5,5 C7.32842712,5 8,5.67157288 8,6.5 C8,7.32842712 7.32842712,8 6.5,8 Z M11.5,8 C10.6715729,8 10,7.32842712 10,6.5 C10,5.67157288 10.6715729,5 11.5,5 C12.3284271,5 13,5.67157288 13,6.5 C13,7.32842712 12.3284271,8 11.5,8 Z M16.5,8 C15.6715729,8 15,7.32842712 15,6.5 C15,5.67157288 15.6715729,5 16.5,5 C17.3284271,5 18,5.67157288 18,6.5 C18,7.32842712 17.3284271,8 16.5,8 Z" id="Combined-Shape"></path>
                <path d="M18,20.5 C18,19.6715729 18.6625444,19 19.4912653,19 L29.5087347,19 C30.3323378,19 31,19.6657972 31,20.5 C31,21.3284271 30.3374556,22 29.5087347,22 L19.4912653,22 C18.6676622,22 18,21.3342028 18,20.5 Z M34,20.5 C34,19.6715729 34.6711894,19 35.5016756,19 L39.4983244,19 C40.3276769,19 41,19.6657972 41,20.5 C41,21.3284271 40.3288106,22 39.4983244,22 L35.5016756,22 C34.6723231,22 34,21.3342028 34,20.5 Z M18,32.5 C18,31.6715729 18.6749231,31 19.4934332,31 L37.5065668,31 C38.3313672,31 39,31.6657972 39,32.5 C39,33.3284271 38.3250769,34 37.5065668,34 L19.4934332,34 C18.6686328,34 18,33.3342028 18,32.5 Z M42,32.5 C42,31.6715729 42.6711894,31 43.5016756,31 L47.4983244,31 C48.3276769,31 49,31.6657972 49,32.5 C49,33.3284271 48.3288106,34 47.4983244,34 L43.5016756,34 C42.6723231,34 42,33.3342028 42,32.5 Z M18,26.5 C18,25.6715729 18.6683155,25 19.5047388,25 L24.4952612,25 C25.3263055,25 26,25.6657972 26,26.5 C26,27.3284271 25.3316845,28 24.4952612,28 L19.5047388,28 C18.6736945,28 18,27.3342028 18,26.5 Z M29,26.5 C29,25.6715729 29.6752491,25 30.4982452,25 L41.5017548,25 C42.3292128,25 43,25.6657972 43,26.5 C43,27.3284271 42.3247509,28 41.5017548,28 L30.4982452,28 C29.6707872,28 29,27.3342028 29,26.5 Z M46,26.5 C46,25.6715729 46.6764628,25 47.5063976,25 L53.4936024,25 C54.3255628,25 55,25.6657972 55,26.5 C55,27.3284271 54.3235372,28 53.4936024,28 L47.5063976,28 C46.6744372,28 46,27.3342028 46,26.5 Z M6,20.5 C6,19.6715729 6.66579723,19 7.5,19 C8.32842712,19 9,19.6657972 9,20.5 C9,21.3284271 8.33420277,22 7.5,22 C6.67157288,22 6,21.3342028 6,20.5 Z M6,26.5 C6,25.6715729 6.66579723,25 7.5,25 C8.32842712,25 9,25.6657972 9,26.5 C9,27.3284271 8.33420277,28 7.5,28 C6.67157288,28 6,27.3342028 6,26.5 Z M6,32.5 C6,31.6715729 6.66579723,31 7.5,31 C8.32842712,31 9,31.6657972 9,32.5 C9,33.3284271 8.33420277,34 7.5,34 C6.67157288,34 6,33.3342028 6,32.5 Z" id="Combined-Shape" fill-opacity="0.5"></path>
            </g>
        </g>
    </g>
</svg>