<svg width="64" height="50" viewBox="0 0 64 50" xmlns="http://www.w3.org/2000/svg">
  <title>
    Features icon flexible IDE
  </title>
  <g fill="#DB881F" fill-rule="evenodd">
    <path d="M61 10V5.005C61 3.9 60.106 3 59.004 3H4.996C3.888 3 3 3.898 3 5.005V10h58zm0 3H3v31.995C3 46.1 3.894 47 4.996 47h54.008C60.112 47 61 46.102 61 44.995V13zM0 4.007C0 1.794 1.795 0 4.003 0h55.994C62.207 0 64 1.794 64 4.007v41.986C64 48.206 62.205 50 59.997 50H4.003C1.793 50 0 48.206 0 45.993V4.007zm12 13.498c0-.83.666-1.505 1.5-1.505.828 0 1.5.665 1.5 1.505v24.99c0 .83-.666 1.505-1.5 1.505-.828 0-1.5-.665-1.5-1.505v-24.99zM6.5 8C5.672 8 5 7.328 5 6.5S5.672 5 6.5 5 8 5.672 8 6.5 7.328 8 6.5 8zm5 0c-.828 0-1.5-.672-1.5-1.5S10.672 5 11.5 5s1.5.672 1.5 1.5S12.328 8 11.5 8zm5 0c-.828 0-1.5-.672-1.5-1.5S15.672 5 16.5 5s1.5.672 1.5 1.5S17.328 8 16.5 8z"/>
    <path d="M18 20.5c0-.828.663-1.5 1.49-1.5h10.02c.822 0 1.49.666 1.49 1.5 0 .828-.663 1.5-1.49 1.5H19.49c-.822 0-1.49-.666-1.49-1.5zm16 0c0-.828.67-1.5 1.502-1.5h3.996c.83 0 1.502.666 1.502 1.5 0 .828-.67 1.5-1.502 1.5h-3.996c-.83 0-1.502-.666-1.502-1.5zm-16 12c0-.828.675-1.5 1.493-1.5h18.014c.824 0 1.493.666 1.493 1.5 0 .828-.675 1.5-1.493 1.5H19.493C18.67 34 18 33.334 18 32.5zm24 0c0-.828.67-1.5 1.502-1.5h3.996c.83 0 1.502.666 1.502 1.5 0 .828-.67 1.5-1.502 1.5h-3.996c-.83 0-1.502-.666-1.502-1.5zm-24-6c0-.828.668-1.5 1.505-1.5h4.99c.83 0 1.505.666 1.505 1.5 0 .828-.668 1.5-1.505 1.5h-4.99c-.83 0-1.505-.666-1.505-1.5zm11 0c0-.828.675-1.5 1.498-1.5h11.004c.827 0 1.498.666 1.498 1.5 0 .828-.675 1.5-1.498 1.5H30.498C29.67 28 29 27.334 29 26.5zm17 0c0-.828.676-1.5 1.506-1.5h5.988c.832 0 1.506.666 1.506 1.5 0 .828-.676 1.5-1.506 1.5h-5.988C46.674 28 46 27.334 46 26.5zm-40-6c0-.828.666-1.5 1.5-1.5.828 0 1.5.666 1.5 1.5 0 .828-.666 1.5-1.5 1.5-.828 0-1.5-.666-1.5-1.5zm0 6c0-.828.666-1.5 1.5-1.5.828 0 1.5.666 1.5 1.5 0 .828-.666 1.5-1.5 1.5-.828 0-1.5-.666-1.5-1.5zm0 6c0-.828.666-1.5 1.5-1.5.828 0 1.5.666 1.5 1.5 0 .828-.666 1.5-1.5 1.5-.828 0-1.5-.666-1.5-1.5z" fill-opacity=".5"/>
  </g>
</svg>
