<svg width="73" height="66" viewBox="0 0 73 66" xmlns="http://www.w3.org/2000/svg">
  <title>
    Features icon looks local
  </title>
  <g fill="#DB881F" fill-rule="evenodd">
    <path d="M64.014 36.507l2.122.004c.054.004.11.005.166.004.467-.003 1.05-.1 1.587-.347 1.034-.477 1.628-1.392 1.628-3.165 0-1.635-.85-2.565-2.483-3.1-.567-.186-1.19-.305-1.827-.365-.435-.04-.812-.05-1.22-.038H49.004c-2.846 0-4.785-1.278-5.79-3.345-.323-.666-.525-1.365-.633-2.065-.07-.446-.09-.823-.086-1.136.025-.828.716-1.48 1.545-1.454.827.026 1.478.717 1.453 1.534-.007.456.1 1.156.42 1.81.513 1.057 1.42 1.655 3.09 1.655h9.428c4.33 0 4.33 0 5.595-.004.398-.012.898 0 1.465.054.844.08 1.682.24 2.48.5 2.76.905 4.548 2.864 4.548 5.952 0 2.34-.806 4.064-2.18 5.16-.36.286-.76.53-1.194.73-1.02.47-2.044.63-2.922.622-.07 0-.142-.002-.207-.007h-2c-2 0-2-3 0-3h2c.097 0 .192.003.287.007 1.522.072 2.94.677 4.035 1.648 1.325 1.174 2.18 2.885 2.18 4.838 0 2.864-1.075 4.655-2.97 5.615.613.853.95 1.978.95 3.405 0 2.4-1.412 3.94-3.648 4.77-.48.178-.997.323-1.546.437-.75.156-1.51.247-2.25.288-.64.036-1.263.036-1.85.008-.15-.007-.26-.014-.327-.02-1.913-.158-1.795-2.995.124-2.995h1.827c.063 0 .126 0 .188.003 1.674.05 3.06.775 3.834 2.28.425.828.665 1.894.665 3.214 0 2.112-1.325 3.61-3.355 4.588-1.096.528-2.165.813-2.924.934-.078.012-.157.018-.235.018l-13.787-.002-.242.01c-1.19.038-2.752-.024-4.558-.266-2.72-.365-5.41-1.073-7.94-2.21-.467-.21-.925-.432-1.374-.67-2.492-1.314-4.823-2.14-6.94-2.577-1.34-.277-2.357-.355-3.023-.33-.826.058-1.543-.564-1.602-1.39-.06-.827.564-1.544 1.52-1.61.873-.03 2.13.065 3.71.39 2.39.493 4.99 1.415 7.735 2.864.392.207.793.402 1.202.586 2.245 1.008 4.66 1.644 7.11 1.972 1.63.22 3.03.275 4.064.242l.248-.01H60.87c.122-.024.304-.064.528-.124.502-.134 1.003-.31 1.46-.53 1.102-.533 1.657-1.16 1.657-1.886 0-1.89-.48-2.424-1.462-2.49-.073-.003-.148-.006-.226-.006H61l.125-2.994c.03.002.106.007.22.012.524.025 1.093.023 1.67-.015.56-.036 1.13-.106 1.678-.22 1.886-.392 2.803-1.117 2.803-2.27 0-1.894-.93-2.517-3.208-2.517h-1.274v-3h1.974c3.198 0 4.53-.838 4.53-3.503 0-1.89-1.51-3.37-3.296-3.486-.075-.005-.15-.007-.226-.007h-1.982v-3zm-13.52-15.495c0 .83-.67 1.5-1.5 1.5-.827 0-1.5-.67-1.5-1.5l.003-8.937c-.003-.052-.01-.168-.027-.338-.03-.294-.07-.623-.126-.98-.16-1.014-.405-2.026-.75-2.956-.424-1.146-.968-2.075-1.62-2.714-1.96-1.92-3.91-2.28-4.893-1.543.04-.028-.075.203-.183.624-.136.53-.24 1.234-.308 2.06-.096 1.142-.116 2.365-.093 3.44l.006.246c.004.066.01.18.015.338.09 2.708-.167 5.986-1.08 9.182-1.45 5.065-2.49 6.807-5.51 8.805-.64.424-1.314.783-2.016 1.083-2.37 1.01-4.44 1.243-7.368 1.197-.372-.006-.42-.006-.54-.006-.83 0-1.5-.67-1.5-1.5 0-.828.67-1.5 1.5-1.5.143 0 .192 0 .587.008 2.54.04 4.26-.154 6.144-.958.54-.23 1.052-.504 1.54-.825 2.322-1.536 3.008-2.687 4.28-7.128.812-2.843 1.047-5.833.965-8.255l-.013-.288c-.003-.064-.006-.177-.01-.332-.025-1.17-.003-2.49.102-3.754.202-2.45.61-4.03 1.68-4.833 2.302-1.73 5.864-1.073 8.793 1.8 1.007.985 1.768 2.284 2.335 3.814.42 1.134.71 2.334.9 3.53.113.72.168 1.29.187 1.71v9.012z" fill-rule="nonzero"/>
    <path d="M0 29c0-2.21 1.787-4 4.006-4h10.988C17.206 25 19 26.796 19 29v32c0 2.21-1.787 4-4.006 4H4.006C1.794 65 0 63.204 0 61V29zm3 1v30c0 1.108.897 2 2.003 2h8.994c1.11 0 2.003-.895 2.003-2V30c0-1.108-.897-2-2.003-2H5.003C3.893 28 3 28.895 3 30zm6.5 5c-.828 0-1.5-.672-1.5-1.5S8.672 32 9.5 32s1.5.672 1.5 1.5-.672 1.5-1.5 1.5z" opacity=".5"/>
  </g>
</svg>
