<?xml version="1.0" encoding="UTF-8" standalone="no"?>
<svg width="73px" height="66px" viewBox="0 0 73 66" version="1.1" xmlns="http://www.w3.org/2000/svg" xmlns:xlink="http://www.w3.org/1999/xlink">
    <!-- Generator: Sketch 42 (36781) - http://www.bohemiancoding.com/sketch -->
    <title>Features icon looks local</title>
    <desc>Created with Sketch.</desc>
    <defs></defs>
    <g id="Page-1" stroke="none" stroke-width="1" fill="none" fill-rule="evenodd">
        <g id="02-Features" transform="translate(-284.000000, -3304.000000)" fill="#DB881F">
            <g id="Features-icon-looks-local" transform="translate(284.000000, 3304.000000)">
                <g id="Group-3">
                    <path d="M64.014267,36.5069885 C64.014267,36.5069885 66.1170445,36.5104969 66.1364776,36.5114942 C66.189824,36.5137348 66.2452172,36.5146845 66.3023567,36.5142383 C66.769128,36.5105935 67.352438,36.4138017 67.8885685,36.1666797 C68.9235521,35.6896181 69.5175781,34.7747437 69.5175781,33.0021362 C69.5175781,31.3668985 68.6687554,30.436896 67.0354368,29.9015959 C66.4677779,29.7155527 65.8446905,29.5970043 65.2076666,29.5367848 C64.7733559,29.4957283 64.396037,29.4866558 63.9876099,29.4989929 L58.431076,29.4989929 L49.0033264,29.4989929 C46.1568655,29.4989929 44.2180019,28.2221065 43.2134784,26.1549824 C42.8896303,25.4885627 42.6878513,24.7896735 42.5795164,24.0895958 C42.5105267,23.6437727 42.4887229,23.2666406 42.4938058,22.9543307 C42.518885,22.1262833 43.2104807,21.4753489 44.0385281,21.5004281 C44.8665756,21.5255073 45.5175099,22.217103 45.4927039,23.0344026 C45.4856138,23.4896179 45.5939664,24.18981 45.9117505,24.8437511 C46.4256005,25.9011597 47.3333689,26.4989929 49.0033264,26.4989929 L58.431076,26.4989929 C62.7597771,26.4989929 62.7597771,26.4989929 64.0249257,26.496446 C64.4233747,26.4844832 64.9229547,26.4964954 65.4900057,26.5501002 C66.3344696,26.6299296 67.1715225,26.789187 67.9697512,27.0507966 C70.7301628,27.9554876 72.5175781,29.9138479 72.5175781,33.0021362 C72.5175781,35.3411645 71.7122441,37.066491 70.3367376,38.161511 C69.9769048,38.4479685 69.5780524,38.6912911 69.1443905,38.8911817 C68.1228716,39.3620369 67.1003614,39.5233596 66.222444,39.514374 C66.1508364,39.513641 66.0801908,39.5117751 66.0153809,39.5069885 L64.014267,39.5069885 C62.014267,39.5069885 62.014267,36.5069885 64.014267,36.5069885 C64.014267,36.5069885 66.0093522,36.5069994 66.016211,36.5070211 C66.1119644,36.5073244 66.2073639,36.5097437 66.3023567,36.5142383 C67.8238668,36.5862299 69.2410315,37.1906771 70.3367376,38.161511 C71.6624486,39.3361374 72.5175781,41.0471152 72.5175781,43.0003052 C72.5175781,45.8637041 71.4422536,47.6548324 69.5467931,48.6154795 C70.1597606,49.4675052 70.4962769,50.5929048 70.4962769,52.0196533 C70.4962769,54.4214535 69.0848749,55.9600856 66.8492833,56.7897572 C66.3700972,56.9675925 65.853045,57.1128557 65.3039095,57.2270654 C64.5542247,57.3829855 63.7931023,57.4738469 63.0529353,57.5154375 C62.4140785,57.5513354 61.7908332,57.5505272 61.2040286,57.5231648 C61.0542521,57.5161808 60.9433955,57.5088823 60.8767227,57.503354 C58.9643471,57.3447874 59.0817332,54.5084839 61.0006714,54.5084839 L62.8273621,54.5084839 C62.8902892,54.5084839 62.952836,54.5094068 63.0149859,54.5112582 C64.689458,54.5611384 66.0757887,55.2849537 66.8492833,56.7897572 C67.2752696,57.6184968 67.5153809,58.6841125 67.5153809,60.0044861 C67.5153809,62.116392 66.1899532,63.6128157 64.1595404,64.591886 C63.0636931,65.1203065 61.994532,65.4053444 61.2359207,65.5258103 C61.1581134,65.5381659 61.0794536,65.5443726 61.0006714,65.5443726 L47.2130215,65.5415829 C47.1644977,65.5445464 47.0832424,65.5483705 46.9710619,65.5519895 C45.7811064,65.5903782 44.2179883,65.5281153 42.412421,65.2858425 C39.692189,64.920839 37.0010003,64.2131327 34.4709514,63.0764448 C34.0046496,62.8669471 33.5466956,62.6438811 33.0976698,62.4068762 C30.6058641,61.0916512 28.2749837,60.2651235 26.157079,59.8290606 C24.8186072,59.5534778 23.8014389,59.4753152 23.1354452,59.4994286 C22.3090949,59.5580526 21.5916815,58.9356876 21.5330574,58.1093374 C21.4744333,57.2829871 22.0967983,56.5655737 23.0516919,56.5004954 C23.9258844,56.4688436 25.1819842,56.5653666 26.7620694,56.8906959 C29.1537695,57.3831316 31.7526038,58.3046755 34.4980334,59.7537683 C34.8903631,59.9608478 35.2913229,60.1561523 35.7003955,60.3399384 C37.9450668,61.3484133 40.3606833,61.9836519 42.8113884,62.31249 C44.4407747,62.5311227 45.8408354,62.5868906 46.8743304,62.5535494 C46.9573621,62.5508707 47.009922,62.5483971 47.121582,62.5443726 L60.8687609,62.5443726 C60.9917884,62.5203848 61.1739341,62.4795764 61.3978166,62.4198894 C61.9003214,62.2859219 62.401233,62.1091798 62.8565118,61.8896432 C63.9602924,61.3573973 64.5153809,60.7306958 64.5153809,60.0044861 C64.5153809,58.1149841 64.0363752,57.5799628 63.0529353,57.5154375 C62.9804853,57.510684 62.9052976,57.5084839 62.8273621,57.5084839 L61.0006714,57.5084839 L61.1246201,54.5136138 C61.156294,54.51624 61.2312234,54.5211732 61.3437653,54.526421 C61.8692895,54.5509259 62.4377194,54.5490835 63.0149859,54.5112582 C63.5764259,54.4744699 64.1462245,54.4036446 64.6930388,54.2899176 C66.5792231,53.8976273 67.4962769,53.1733613 67.4962769,52.0196533 C67.4962769,50.1259629 66.566795,49.5028229 64.2877197,49.5028229 L63.014267,49.5028229 L63.014267,46.5028229 L64.9876099,46.5028229 C68.1857677,46.5028229 69.5175781,45.665173 69.5175781,43.0003052 C69.5175781,41.1113053 68.0085442,39.6308383 66.222444,39.514374 C66.1472989,39.5094741 66.0716634,39.5069885 65.9956292,39.5069885 L64.014267,39.5069885 L64.014267,36.5069885 Z M50.4949341,21.0124512 C50.4949341,21.8408783 49.8233612,22.5124512 48.9949341,22.5124512 C48.166507,22.5124512 47.4949341,21.8408783 47.4949341,21.0124512 L47.4968514,12.0747798 C47.4942336,12.023054 47.485912,11.9073742 47.4695245,11.7372208 C47.4412329,11.4434659 47.4001871,11.1136048 47.3441556,10.7572697 C47.1846251,9.74272976 46.9391345,8.73061342 46.5947316,7.80108382 C46.1695663,6.65357979 45.6255801,5.72528532 44.9735298,5.08625835 C43.0134803,3.16535668 41.0634049,2.80555306 40.0811622,3.54349785 C40.118885,3.51515727 40.0053892,3.74596524 39.8970824,4.16688017 C39.7606759,4.69699932 39.6571837,5.4006121 39.5885975,6.22667136 C39.4937152,7.36944278 39.4737219,8.59243521 39.4968497,9.66774624 C39.4998249,9.80607418 39.5027358,9.90241229 39.5026831,9.91307725 C39.5068008,9.97883708 39.5123567,10.092676 39.51771,10.2507571 C39.6093985,12.9583005 39.3511351,16.2358634 38.4368565,19.4323356 C36.9882462,24.4969218 35.9493443,26.2394758 32.9272176,28.2374737 C32.2870142,28.660727 31.6141635,29.0199736 30.9118477,29.3196469 C28.5418329,30.3309156 26.4717342,30.5632536 23.5435546,30.5171641 C23.1717534,30.5113119 23.1232773,30.5106659 23.0037537,30.5106659 C22.1753265,30.5106659 21.5037537,29.839093 21.5037537,29.0106659 C21.5037537,28.1822388 22.1753265,27.5106659 23.0037537,27.5106659 C23.146707,27.5106659 23.1963494,27.5113275 23.5907688,27.5175356 C26.12964,27.5574974 27.8500521,27.3644066 29.7344701,26.5603386 C30.2732786,26.3304328 30.786372,26.0564833 31.2727336,25.7349384 C33.5960746,24.198924 34.2824853,23.0476047 35.5525234,18.6073373 C36.3658772,15.7637148 36.6014441,12.7741894 36.5194287,10.3522912 C36.5150664,10.2234733 36.5109067,10.1382418 36.5066905,10.0636071 C36.5042853,10.0001199 36.5008822,9.88749347 36.4975434,9.73225529 C36.4723632,8.56152181 36.493925,7.2425883 36.5988849,5.97844091 C36.8022973,3.52852073 37.2086643,1.94924876 38.2791894,1.14497872 C40.5816608,-0.584834827 44.143538,0.0723583947 47.0733452,2.94364887 C48.0799402,3.9301393 48.8409722,5.22881536 49.407847,6.75878755 C49.828396,7.89383214 50.1194405,9.09375958 50.3077409,10.2912634 C50.4209106,11.0109702 50.47558,11.5786094 50.4949341,11.9989624 L50.4949341,21.0124512 Z" id="Combined-Shape" fill-rule="nonzero"></path>
                    <path d="M0,29.0000255 C0,26.7908724 1.78747387,25 4.00619478,25 L14.9938052,25 C17.2063655,25 19,26.7964248 19,29.0000255 L19,60.9999745 C19,63.2091276 17.2125261,65 14.9938052,65 L4.00619478,65 C1.7936345,65 0,63.2035752 0,60.9999745 L0,29.0000255 Z M3,29.9999204 L3,60.0000796 C3,61.1080589 3.89666625,62 5.00276013,62 L13.9972399,62 C15.1064574,62 16,61.1046051 16,60.0000796 L16,29.9999204 C16,28.8919411 15.1033337,28 13.9972399,28 L5.00276013,28 C3.89354265,28 3,28.8953949 3,29.9999204 Z M9.5,35 C8.67157288,35 8,34.3284271 8,33.5 C8,32.6715729 8.67157288,32 9.5,32 C10.3284271,32 11,32.6715729 11,33.5 C11,34.3284271 10.3284271,35 9.5,35 Z" id="Combined-Shape" opacity="0.5"></path>
                </g>
            </g>
        </g>
    </g>
</svg>