<svg width="70" height="45" viewBox="0 0 70 45" xmlns="http://www.w3.org/2000/svg">
  <title>
    Features icon no hardware
  </title>
  <g fill-rule="nonzero" fill="#DB881F">
    <path d="M55.207 13.36C53.237 5.96 46.552.5 38.624.5c-6.57 0-12.643 3.888-15.485 9.907l-.237.5c-.098-.062-.2-.124-.304-.185-2.49-1.462-5.24-1.933-8-.74-1.92.834-3.256 2.26-4.064 4.068-.413.923-.667 1.895-.795 2.876-.028.22-.05.43-.065.63l-.32.11C4.055 19.51.5 24.55.5 30.206c0 7.465 6 14.286 13.098 14.294h42.5l.515-.002c6.436-.034 11.887-6.33 11.887-13.115 0-5.043-3.075-9.383-7.432-11.19l-2.573 2.32c3.998.904 7.005 4.54 7.005 8.87 0 5.22-4.217 10.09-8.902 10.115l-.505.002H13.6c-5.35-.006-10.1-5.406-10.1-11.293 0-4.385 2.75-8.285 6.84-9.706l1.304-.452 1.083-.375-.08-1.174c-.01-.297.005-.706.068-1.183.093-.71.275-1.406.56-2.042.517-1.158 1.326-2.022 2.52-2.54 1.746-.756 3.545-.448 5.285.574.38.223.725.463 1.023.7.17.137.282.235.325.277l1.506 1.465 1.918-4.065C28.2 6.714 33.22 3.5 38.624 3.5c7.07 0 12.955 5.286 14.005 12.182l2.577-2.323z"/>
    <path d="M36.246 18.958l7.612 8.673 22.92-20.6c.618-.555 1.566-.504 2.12.112s.503 1.564-.113 2.118l-24.05 21.617c-.622.56-1.58.502-2.13-.126l-8.614-9.813c-.545-.622-.483-1.57.14-2.117.622-.546 1.57-.484 2.116.138zm-28.73 11.26c-.12-.818.445-1.58 1.265-1.702.82-.12 1.583.445 1.704 1.265.02.128.076.4.185.764.184.617.442 1.234.782 1.8.532.885 1.208 1.554 2.047 1.953.264.126.828.2 1.68.208.245.003.46 0 .89-.006.703-.012.967-.013 1.3.004.74.038 1.436.038 2.028.016.144-.006.242-.01.287-.014.827-.056 1.542.57 1.597 1.396.056.826-.57 1.54-1.396 1.597l-.374.017c-.676.026-1.457.026-2.294-.016-.24-.012-.473-.01-1.102 0-.453.006-.686.008-.964.005-1.264-.01-2.17-.13-2.943-.5-1.417-.674-2.513-1.758-3.33-3.117-.82-1.366-1.222-2.71-1.364-3.67z" fill-opacity=".5"/>
  </g>
</svg>
