<?xml version="1.0" encoding="UTF-8" standalone="no"?>
<svg width="70px" height="45px" viewBox="0 0 70 45" version="1.1" xmlns="http://www.w3.org/2000/svg" xmlns:xlink="http://www.w3.org/1999/xlink">
    <!-- Generator: Sketch 42 (36781) - http://www.bohemiancoding.com/sketch -->
    <title>Features icon no hardware</title>
    <desc>Created with Sketch.</desc>
    <defs></defs>
    <g id="Page-1" stroke="none" stroke-width="1" fill="none" fill-rule="evenodd">
        <g id="02-Features" transform="translate(-685.000000, -3900.000000)" fill-rule="nonzero" fill="#DB881F">
            <g id="Features-icon-no-hardware" transform="translate(685.000000, 3900.000000)">
                <path d="M55.2066674,13.3589854 C53.2356635,5.96131751 46.5524245,0.5 38.6238341,0.5 C32.052947,0.5 25.9805048,4.3882645 23.138868,10.4069751 L22.903368,10.9060593 C22.8052522,10.8447633 22.7038746,10.7832895 22.5993023,10.7218897 C20.1089926,9.2596978 17.3586708,8.78869674 14.6012973,9.98317209 C12.6785327,10.8161005 11.3441656,12.2416655 10.5355615,14.0502185 C10.1229551,14.9730686 9.86947728,15.94518 9.7405678,16.9255163 C9.71168283,17.145182 9.69012644,17.3557485 9.67485062,17.5557228 L9.35532741,17.6664481 C4.05567715,19.5093838 0.5,24.5494136 0.5,30.2067147 C0.5,37.6712335 6.50109512,44.4923781 13.5975108,44.4999991 L56.0992707,44.5 L56.6126241,44.4977427 C63.0491068,44.4642118 68.5,38.1674004 68.5,31.383402 C68.5,26.3404628 65.4250043,21.9995166 61.0678773,20.1923971 L58.4946531,22.5120899 C62.4926501,23.4165976 65.5,27.0530957 65.5,31.383402 C65.5,36.6019861 61.28304,41.4733715 56.5981712,41.4977777 L56.0926319,41.5000147 L13.5991217,41.5 C8.2506643,41.4942553 3.5,36.0944129 3.5,30.2067147 C3.5,25.8220686 6.25142328,21.9220364 10.3391536,20.5005412 L11.6436811,20.0484806 L12.7267844,19.6731498 C12.7267844,19.6731498 12.6496089,18.5388285 12.647899,18.4993882 C12.6372245,18.2034611 12.6522079,17.7938765 12.7149629,17.3166349 C12.8082992,16.6068269 12.9896431,15.9113558 13.2742901,15.2747043 C13.7917881,14.1172497 14.6010656,13.2526618 15.7937947,12.7359797 C17.541398,11.9789299 19.3396777,12.2868909 21.0803233,13.3089155 C21.4613112,13.5326135 21.8051861,13.7725848 22.1032489,14.0104864 C22.2739256,14.1467135 22.3846847,14.2452326 22.4277934,14.2871771 L23.9337406,15.7524524 L25.8518476,11.6874991 C28.2001087,6.71377987 33.219184,3.5 38.6238341,3.5 C45.6947219,3.5 51.5794914,8.78603336 52.6292276,15.6824785 L55.2066674,13.3589854 Z" id="Combined-Shape"></path>
                <path d="M36.2460324,18.9583025 L43.8580795,27.631462 L66.7794992,7.02894269 C67.3956217,6.47515166 68.3440241,6.52568134 68.8978151,7.14180388 C69.4516062,7.75792643 69.4010765,8.70632877 68.7849539,9.26011981 L44.734661,30.8773073 C44.1133748,31.4357396 43.1555922,31.3790232 42.6045535,30.7511702 L33.9912723,20.9372054 C33.4448133,20.3145705 33.5065661,19.3668328 34.1292009,18.8203738 C34.7518357,18.2739149 35.6995735,18.3356676 36.2460324,18.9583025 Z M7.5161153,30.2192857 C7.39500718,29.3997588 7.96118745,28.6372234 8.78071434,28.5161153 C9.60024123,28.3950072 10.3627766,28.9611875 10.4838847,29.7807143 C10.502729,29.9082322 10.560423,30.1797589 10.6692756,30.5441199 C10.8536813,31.1613792 11.1123078,31.7778522 11.4516537,32.3427777 C11.9837095,33.2285166 12.6602356,33.8976808 13.4985762,34.2967342 C13.7635806,34.4228773 14.3283895,34.4975998 15.1795649,34.5054726 C15.4254415,34.5077468 15.6397543,34.5058017 16.0691419,34.4990547 C16.7734186,34.4879883 17.0373455,34.4874349 17.3706685,34.5043748 C18.1111018,34.5420044 18.8058399,34.5420044 19.3984153,34.5195436 C19.5418728,34.514106 19.6397277,34.5088749 19.6851046,34.5058228 C20.5116642,34.4502288 21.2267911,35.0752198 21.2823852,35.9017794 C21.3379793,36.7283391 20.7129882,37.4434659 19.8864286,37.49906 C19.8126712,37.5040209 19.6856905,37.5108091 19.5120448,37.5173909 C18.836207,37.5430077 18.0546597,37.5430077 17.2184015,37.5005081 C16.9783865,37.4883102 16.7454108,37.4887987 16.1162755,37.4986844 C15.6626276,37.5058126 15.4303633,37.5079207 15.151818,37.5053443 C13.8875756,37.4936508 12.9833742,37.3740278 12.2091874,37.0055119 C10.7928381,36.3313241 9.6965149,35.2469309 8.87995976,33.8875722 C8.05938061,32.5215145 7.65758238,31.1765796 7.5161153,30.2192857 Z" id="Combined-Shape" fill-opacity="0.5"></path>
            </g>
        </g>
    </g>
</svg>