<svg width="68" height="67" viewBox="0 0 68 67" xmlns="http://www.w3.org/2000/svg">
  <g fill-rule="nonzero" fill="#DB881F">
    <path d="M42.957 44H55.6l.513-.002C62.55 43.964 68 37.668 68 30.883c0-6.643-5.337-12.07-11.91-12.087l-.84-.003.02-.87c0-.067.004-.12.02-.354.004-.073.004-.073.006-.185C55.296 7.8 47.6 0 38.124 0 31.554 0 25.48 3.888 22.64 9.907l-.237.5c-.098-.062-.2-.124-.304-.185-2.49-1.462-5.24-1.933-8-.74-1.92.834-3.256 2.26-4.064 4.068-.413.923-.667 1.895-.795 2.876-.028.22-.05.43-.065.63l-.32.11C3.555 19.01 0 24.05 0 29.706 0 37.172 6 43.993 13.098 44h5.573l.984-3H13.1C7.75 40.994 3 35.594 3 29.707 3 25.322 5.75 21.422 9.84 20l1.304-.452 1.083-.375-.08-1.174c-.01-.297.005-.706.068-1.183.093-.71.275-1.406.56-2.042.517-1.158 1.326-2.022 2.52-2.54 1.746-.756 3.545-.448 5.285.574.38.223.725.463 1.023.7.17.137.282.235.325.277l1.506 1.465 1.918-4.065C27.7 6.214 32.72 3 38.124 3c7.8 0 14.158 6.434 14.172 14.367l-.01.13c-.01.168-.013.25-.015.362l-.058 2.39-.038 1.53 3.905.016c4.912.014 8.92 4.088 8.92 9.087 0 5.22-4.217 10.09-8.902 10.115l-.505.002h-10.28l-2.356 3z"/>
    <path d="M21 46.047L27.57 26h16.47l-5.43 9.033H47L21.892 67l5.23-20.953H21zm8.72-17.04L25.123 43.04h5.822l-2.78 11.136L40.84 38.04h-7.52l5.43-9.034h-9.027z" fill-opacity=".5"/>
  </g>
</svg>
