<?xml version="1.0" encoding="UTF-8" standalone="no"?>
<svg width="68px" height="67px" viewBox="0 0 68 67" version="1.1" xmlns="http://www.w3.org/2000/svg" xmlns:xlink="http://www.w3.org/1999/xlink">
    <g id="Page-1" stroke="none" stroke-width="1" fill="none" fill-rule="evenodd">
        <g id="02-Features" transform="translate(-286.000000, -1545.000000)" fill-rule="nonzero" fill="#DB881F">
            <g id="Features-icon-power-cloud" transform="translate(286.000000, 1545.000000)">
                <path d="M42.9573575,43.9999997 L55.5992707,44 L56.1126241,43.9977427 C62.5491068,43.9642118 68,37.6674004 68,30.883402 C68,24.2397559 62.663088,18.8144771 56.0886211,18.7960257 L55.2485924,18.7928003 L55.2699974,17.922332 C55.2711887,17.855934 55.2737764,17.8036145 55.2890909,17.5689808 C55.2941721,17.4974082 55.2941721,17.4974082 55.2964503,17.3845073 C55.2964503,7.80059853 47.5995326,0 38.1238341,0 C31.552947,0 25.4805048,3.8882645 22.638868,9.90697515 L22.403368,10.4060593 C22.3052522,10.3447633 22.2038746,10.2832895 22.0993023,10.2218897 C19.6089926,8.7596978 16.8586708,8.28869674 14.1012973,9.48317209 C12.1785327,10.3161005 10.8441656,11.7416655 10.0355615,13.5502185 C9.62295507,14.4730686 9.36947728,15.44518 9.2405678,16.4255163 C9.21168283,16.645182 9.19012644,16.8557485 9.17485062,17.0557228 L8.85532741,17.1664481 C3.55567715,19.0093838 0,24.0494136 0,29.7067147 C0,37.1712335 6.00109512,43.9923781 13.0975108,43.9999991 L18.6708708,43.9999992 L19.6539924,41.0000023 L13.0991217,41 C7.7506643,40.9942553 3,35.5944129 3,29.7067147 C3,25.3220686 5.75142328,21.4220364 9.8391536,20.0005412 L11.1436811,19.5484806 L12.2267844,19.1731498 C12.2267844,19.1731498 12.1496089,18.0388285 12.147899,17.9993882 C12.1372245,17.7034611 12.1522079,17.2938765 12.2149629,16.8166349 C12.3082992,16.1068269 12.4896431,15.4113558 12.7742901,14.7747043 C13.2917881,13.6172497 14.1010656,12.7526618 15.2937947,12.2359797 C17.041398,11.4789299 18.8396777,11.7868909 20.5803233,12.8089155 C20.9613112,13.0326135 21.3051861,13.2725848 21.6032489,13.5104864 C21.7739256,13.6467135 21.8846847,13.7452326 21.9277934,13.7871771 L23.4337406,15.2524524 L25.3518476,11.1874991 C27.7001087,6.21377987 32.719184,3 38.1238341,3 C45.9250375,3 52.2824533,9.4343579 52.2957357,17.3668621 C52.2937527,17.3910209 52.2937527,17.3910209 52.2868868,17.4961654 C52.2766718,17.6651162 52.2726301,17.7468348 52.2706764,17.8594361 L52.2118518,20.2500349 L52.1742046,21.7810184 L56.0786524,21.7960088 C60.9919052,21.8097987 65,25.8842582 65,30.883402 C65,36.1019861 60.78304,40.9733715 56.0981712,40.9977777 L55.5926319,41.0000147 L45.3136433,41.0000111 L42.9573575,43.9999997 Z" id="Combined-Shape"></path>
                <path d="M21,46.0471625 L27.5696061,26 L44.0401246,26 L38.6099285,35.0334103 L47,35.0334103 L21.8924312,67 L27.1224761,46.0471625 L21,46.0471625 Z M29.7210824,29.0063863 L25.1219071,43.0407763 L30.9439471,43.0407763 L28.164572,54.1756319 L40.8381665,38.0397966 L33.319302,38.0397966 L38.7494981,29.0063863 L29.7210824,29.0063863 Z" id="Path" fill-opacity="0.5"></path>
            </g>
        </g>
    </g>
</svg>