<svg width="64" height="59" viewBox="0 0 64 59" xmlns="http://www.w3.org/2000/svg">
  <g fill="#DB881F" fill-rule="evenodd">
    <path d="M55.072 34.58c-.54-.83-1.154-1.61-1.834-2.332C57.19 28.518 61 24.32 61 22.005 61 17.19 44.55 4.25 44.55 4.25 43.706 3.565 42.106 3 41.003 3H4.997C3.892 3 3 3.897 3 5.003v33.994C3 40.097 3.894 41 4.997 41h20.02c-.205 1.004-.32 2.007-.35 3H4.003C1.792 44 0 42.207 0 39.998V4.002C0 1.792 1.793 0 4.002 0h35.996c2.21 0 5.392 1.118 7.105 2.533 0 0 16.897 13.162 16.897 19.49 0 3.285-4.55 8.398-8.928 12.558zM18.22 18.39c0-4.63 3.76-8.39 8.387-8.39 4.626 0 8.39 3.76 8.393 8.387 0 4.63-3.762 8.39-8.39 8.39-.28 0-.558-.015-.845-.047L17.495 35H10v-7.496l.878-.88 7.388-7.39c-.03-.283-.047-.564-.047-.845zM13 28.745V32h3.253l8.05-8.05c.288-.29.703-.417 1.105-.32.437.1.83.148 1.2.148 2.972 0 5.392-2.418 5.392-5.39-.002-2.97-2.422-5.388-5.393-5.388-2.97 0-5.388 2.418-5.388 5.39 0 .38.05.773.146 1.198.093.4-.028.817-.318 1.107L13 28.745zM27.5 19c-.828 0-1.5-.672-1.5-1.5s.672-1.5 1.5-1.5 1.5.672 1.5 1.5-.672 1.5-1.5 1.5zM51 27c-2.76 0-5-2.24-5-5s2.24-5 5-5 5 2.24 5 5-2.24 5-5 5zm0-3c1.105 0 2-.895 2-2s-.895-2-2-2-2 .895-2 2 .895 2 2 2z"/>
    <path d="M48.53 53.835l.26.797c.217.662-.05 1.386-.647 1.748-2.142 1.3-4.58 2-7.067 2.005-.725 0-1.348-.517-1.478-1.23l-.152-.834c-.106-.606-.53-1.086-1.098-1.238-.567-.152-1.175.052-1.577.53l-.54.64c-.47.552-1.27.69-1.897.326-2.15-1.247-3.913-3.072-5.117-5.27-.335-.61-.205-1.37.312-1.836l.625-.562c.47-.417.68-1.082.522-1.708-.153-.606-.616-1.04-1.19-1.147l-.798-.154c-.706-.136-1.216-.756-1.215-1.476.004-1.255.168-2.507.497-3.733.327-1.226.81-2.392 1.436-3.48.36-.625 1.11-.907 1.79-.672l.78.27c.54.19 1.157.046 1.592-.402.45-.463.6-1.144.4-1.75l-.258-.79c-.216-.662.052-1.385.647-1.746 2.142-1.3 4.58-2 7.067-2.005.726 0 1.35.518 1.478 1.232l.15.83c.108.608.533 1.09 1.1 1.24.568.153 1.176-.05 1.578-.53l.542-.638c.47-.554 1.267-.692 1.895-.328 2.15 1.246 3.913 3.072 5.117 5.27.335.61.205 1.37-.313 1.836l-.623.562c-.47.417-.68 1.082-.522 1.708.153.605.616 1.04 1.19 1.146l.797.154c.707.137 1.218.757 1.216 1.477-.004 1.255-.168 2.507-.497 3.734-.327 1.225-.81 2.392-1.436 3.48-.36.625-1.11.907-1.79.672l-.78-.27c-.54-.19-1.157-.046-1.592.402-.45.463-.6 1.145-.402 1.74zm-1.815-3.906c1.132-1.165 2.75-1.63 4.257-1.282.24-.544.44-1.108.596-1.69.156-.58.265-1.17.33-1.76-1.484-.458-2.65-1.667-3.047-3.238-.4-1.58.05-3.236 1.13-4.385-.658-.946-1.455-1.777-2.367-2.46-1.133 1.09-2.753 1.542-4.303 1.127-1.55-.416-2.728-1.62-3.163-3.127-1.13.136-2.237.456-3.278.947.356 1.54-.082 3.195-1.216 4.36-1.132 1.165-2.75 1.63-4.257 1.282-.24.544-.44 1.11-.596 1.69-.155.58-.264 1.17-.328 1.762 1.483.456 2.65 1.666 3.046 3.237.4 1.58-.05 3.236-1.128 4.385.656.946 1.454 1.776 2.366 2.46 1.133-1.09 2.753-1.543 4.303-1.127 1.55.416 2.73 1.622 3.162 3.127 1.13-.135 2.237-.455 3.278-.946-.357-1.54.08-3.195 1.215-4.36zm-3.31-5.297c.285-1.067-.348-2.163-1.415-2.45-1.067-.285-2.163.348-2.45 1.415-.285 1.066.348 2.163 1.415 2.45 1.067.284 2.163-.348 2.45-1.415zm-6.76-1.812c.714-2.665 3.455-4.248 6.12-3.533 2.668.714 4.25 3.455 3.536 6.122-.714 2.666-3.454 4.248-6.12 3.534-2.668-.715-4.25-3.456-3.536-6.123z" fill-opacity=".5" fill-rule="nonzero"/>
  </g>
</svg>
