<?xml version="1.0" encoding="UTF-8" standalone="no"?>
<svg width="64px" height="59px" viewBox="0 0 64 59" version="1.1" xmlns="http://www.w3.org/2000/svg" xmlns:xlink="http://www.w3.org/1999/xlink">
    <g id="Page-1" stroke="none" stroke-width="1" fill="none" fill-rule="evenodd">
        <g id="02-Features" transform="translate(-1087.000000, -1548.000000)" fill="#DB881F">
            <g id="Features-icon-share-credentials" transform="translate(1087.000000, 1548.000000)">
                <path d="M55.0721907,34.5809744 C54.5311777,33.7504329 53.9178595,32.969144 53.2381559,32.2480286 C57.1905969,28.517369 61,24.3208942 61,22.0045624 C61,17.1911621 44.5502489,4.25059657 44.5502489,4.25059657 C43.7056213,3.56445051 42.1057821,3 41.0027084,3 L4.99729162,3 C3.89153983,3 3,3.89671062 3,5.00285922 L3,38.9971408 C3,40.0981492 3.89421792,41 4.99729162,41 L25.0168278,41 C24.8115593,42.0040956 24.697753,43.0070378 24.6676905,44 L4.00180999,44 C1.79167136,44 0,42.2069088 0,39.99819 L0,4.00180999 C0,1.79167136 1.79309123,0 4.00180999,0 L39.99819,0 C42.2083286,0 45.3904823,1.11767844 47.103056,2.53289915 C47.103056,2.53289915 64,15.6953125 64,22.0237427 C64,25.3076994 59.4500039,30.4211029 55.0721907,34.5809744 Z M18.2188847,18.3889387 C18.2188847,13.7610458 21.9793606,10 26.6070491,10 C31.2332623,10 34.9963572,13.7590537 35,18.3866008 C35,23.0162238 31.2377945,26.7777661 26.609498,26.7777661 C26.3311105,26.7777661 26.0517003,26.7621103 25.7649546,26.7301572 L17.4961292,35 L10,35 L10,27.5039418 L10.8782412,26.6253375 L18.2661514,19.2343721 C18.2347975,18.9508653 18.2188847,18.6699972 18.2188847,18.3889387 Z M13,28.7462192 L13,32 L16.2533804,32 L24.3036242,23.9487657 C24.5909261,23.6590905 25.0064621,23.5331786 25.4078611,23.6305906 C25.8447694,23.7303404 26.2365954,23.7777661 26.609498,23.7777661 C29.5802517,23.7777661 32,21.3600579 32,18.3866008 C31.9976624,15.4178195 29.5778028,13 26.6070491,13 C23.6362955,13 21.2188847,15.4178195 21.2188847,18.3889387 C21.2188847,18.7713501 21.2687535,19.163113 21.3661534,19.5882742 C21.4587669,19.9872735 21.3375457,20.4053098 21.0479061,20.694985 L13,28.7462192 Z M27.5,19 C26.6715729,19 26,18.3284271 26,17.5 C26,16.6715729 26.6715729,16 27.5,16 C28.3284271,16 29,16.6715729 29,17.5 C29,18.3284271 28.3284271,19 27.5,19 Z M51,27 C48.2385763,27 46,24.7614237 46,22 C46,19.2385763 48.2385763,17 51,17 C53.7614237,17 56,19.2385763 56,22 C56,24.7614237 53.7614237,27 51,27 Z M51,24 C52.1045695,24 53,23.1045695 53,22 C53,20.8954305 52.1045695,20 51,20 C49.8954305,20 49,20.8954305 49,22 C49,23.1045695 49.8954305,24 51,24 Z" id="Combined-Shape"></path>
                <path d="M48.5299838,53.835159 L48.7903751,54.6316831 C49.0068302,55.2938655 48.7388788,56.0179203 48.1434981,56.3796662 C46.0011384,57.6813369 43.5619001,58.3809723 41.0760805,58.3848954 C40.3505671,58.3860404 39.7282268,57.8677693 39.5980545,57.1540283 L39.4460727,56.3205297 C39.3395443,55.7142556 38.9148797,55.2340896 38.3478778,55.0821618 C37.7807639,54.9302041 37.1726067,55.1337544 36.7705589,55.6129616 L36.2285303,56.2510568 C35.7588943,56.803929 34.9609145,56.9415017 34.3332607,56.5778036 C32.1822559,55.33139 30.4198802,53.5061583 29.2157904,51.3078789 C28.8814412,50.6974652 29.0108914,49.9372447 29.5284225,49.471889 L30.1533665,48.9099959 C30.6231163,48.4933492 30.8336472,47.8279752 30.6751605,47.2016589 C30.5222568,46.5963759 30.0590899,46.1624553 29.4857001,46.055475 L28.6874855,45.9010344 C27.9805401,45.7642528 27.4705245,45.1444304 27.4724302,44.4243767 C27.4757524,43.1690788 27.6399531,41.9174661 27.9685135,40.691262 C28.2972668,39.4643379 28.7811066,38.29785 29.4060944,37.2093263 C29.764573,36.5849741 30.5160783,36.3033666 31.1965845,36.5383855 L31.9745266,36.8070898 C32.5149314,36.9977536 33.1327579,36.8536481 33.5682703,36.4056255 C34.0181279,35.9430509 34.1684496,35.2615052 33.9670048,34.655694 L33.7099271,33.8663012 C33.4943911,33.2044679 33.7624609,32.4813129 34.357314,32.1198866 C36.4989012,30.8186817 38.9382888,30.1192507 41.424161,30.1151914 C42.1501145,30.114006 42.7727286,30.6328576 42.9024633,31.3471256 L43.0534348,32.178424 C43.1604731,32.7852872 43.5854526,33.265692 44.1525227,33.417638 C44.71957,33.5695779 45.3275403,33.3659898 45.7296783,32.8865301 L46.27163,32.2487217 C46.7413022,31.6959772 47.5391977,31.5584902 48.1667798,31.9221646 C50.3175313,33.1684928 52.0795922,34.9935229 53.2841176,37.1920244 C53.6186248,37.8025673 53.4890885,38.5630227 52.9713108,39.0283871 L52.3468957,39.5895528 C51.8768881,40.0065669 51.6664327,40.6717196 51.824975,41.2981157 C51.9778452,41.9033522 52.4409926,42.3372589 53.0137508,42.4441171 L53.8120551,42.5982231 C54.5193175,42.7347542 55.0296727,43.3547472 55.0277362,44.0750646 C55.0243612,45.3304277 54.8600936,46.5823595 54.5314737,47.8087858 C54.202777,49.0354985 53.7189846,50.2018613 53.0939073,51.2908492 C52.7354706,51.9153052 51.9838973,52.1969907 51.3033258,51.9619492 L50.5245804,51.6929612 C49.9849472,51.5022249 49.3673459,51.6462748 48.9317611,52.0944022 C48.4818866,52.5569809 48.3315076,53.2387421 48.5299838,53.835159 Z M46.7152562,49.9293563 C47.846936,48.7650899 49.4653506,48.3009219 50.9716273,48.6483124 C51.2127914,48.1040323 51.4123387,47.539962 51.568121,46.9585746 C51.7239252,46.3771053 51.8331815,45.7886532 51.8965116,45.1965304 C50.4139504,44.7403471 49.2476708,43.5305124 48.8509269,41.9597427 C48.451081,40.3799642 48.9009942,38.7241526 49.9785007,37.5745675 C49.3222786,36.6285847 48.5245143,35.7981466 47.6129072,35.1155542 C46.4796302,36.2040804 44.859998,36.6568508 43.3104903,36.2416614 C41.7591602,35.8259838 40.5816988,34.6216196 40.1465437,33.1151894 C39.0157598,33.2506448 37.9096131,33.5709251 36.8687143,34.0618115 C37.2261115,35.6014362 36.7876908,37.2570384 35.6536043,38.4231843 C34.5220909,39.5872009 32.9040662,40.0512324 31.3971694,39.7042833 C31.1560614,40.248427 30.9565158,40.8125115 30.8007157,41.3939651 C30.6449385,41.9753337 30.5357172,42.5636505 30.4724248,43.1556779 C31.9549662,43.61186 33.1212403,44.8216847 33.5180653,46.3925522 C33.9178809,47.9725641 33.4677069,49.6288791 32.3902297,50.7779566 C33.0463122,51.723791 33.8441286,52.554231 34.7558393,53.2368549 C35.8893539,52.1481434 37.5092254,51.6954339 39.0587597,52.1106303 C40.6107368,52.5264814 41.788517,53.731679 42.2224162,55.2374416 C43.3529844,55.1020158 44.4590126,54.7817079 45.5001,54.2907087 C45.1426471,52.7513057 45.5811979,51.09544 46.7152562,49.9293563 Z M43.4037457,44.6326649 C43.689645,43.5656733 43.0568793,42.4697017 41.9898811,42.1838001 C40.9233994,41.8980369 39.8268489,42.530996 39.5410388,43.5976547 C39.2552338,44.6642946 39.8884029,45.7607512 40.954872,46.046511 C42.0218574,46.3324092 43.1178515,45.6996378 43.4037457,44.6326649 Z M36.6439811,42.821385 C37.3585389,40.1546164 40.0997916,38.5722902 42.7661392,39.2867367 C45.4331774,40.0013681 47.0154284,42.7418804 46.3007971,45.4089237 C45.5861725,48.0759416 42.8456311,49.6581912 40.1786032,48.9435625 C37.5122658,48.2291188 35.9294302,45.4881282 36.6439811,42.821385 Z" id="Fill-1" fill-opacity="0.5" fill-rule="nonzero"></path>
            </g>
        </g>
    </g>
</svg>