<?xml version="1.0" encoding="UTF-8" standalone="no"?>
<svg width="64px" height="60px" viewBox="0 0 64 60" version="1.1" xmlns="http://www.w3.org/2000/svg" xmlns:xlink="http://www.w3.org/1999/xlink">
    <g id="Page-1" stroke="none" stroke-width="1" fill="none" fill-rule="evenodd">
        <g id="02-Features" transform="translate(-688.000000, -1548.000000)" fill-rule="nonzero" fill="#DB881F">
            <g id="Features-icon-stack-updates" transform="translate(688.500000, 1548.000000)">
                <g id="Group-25">
                    <path d="M23.5293285,51.1966952 C23.6162056,50.3704851 24.3545042,49.7713383 25.1783645,49.8584631 C26.0022248,49.945588 26.5996677,50.6859923 26.5127906,51.5122023 C26.5126929,51.5131315 26.5108302,51.5357852 26.50841,51.5780566 C26.4917216,51.8695364 26.4984904,52.2440014 26.5471812,52.6651201 C26.6165419,53.2650091 26.7606549,53.8486658 26.9916202,54.381921 C27.4610923,55.4658437 28.2426792,56.2553905 29.4662314,56.7019972 C31.1229356,57.3067081 32.5736899,56.9064297 33.8903765,55.8127091 C34.2164295,55.5418694 34.5046941,55.2496716 34.7488743,54.9595537 C34.8886986,54.7934243 34.976804,54.6740681 35.0087358,54.6257274 C35.4662431,53.9331199 36.3969986,53.7435913 37.0876363,54.2024034 C37.7782741,54.6612156 37.9672637,55.5946257 37.5097564,56.2872332 C37.184664,56.7793814 36.6154412,57.4556922 35.8040594,58.1296757 C33.7350927,59.8482863 31.2175758,60.5428958 28.4401695,59.5291194 C26.4057461,58.7865379 25.0240278,57.3907475 24.2399797,55.5805286 C23.6118723,54.130347 23.4416344,52.6579873 23.5133387,51.4055972 C23.5185574,51.3144479 23.5243336,51.244197 23.5293285,51.1966952 Z M59.5018893,43.704376 C59.9047093,45.603928 59.4885961,47.5670912 58.3665564,49.1208669 C57.2505993,50.6658761 55.5283995,51.6792508 53.6081607,51.910581 C46.7272239,52.6155354 39.6583699,51.7470283 33.1590106,49.3982867 C26.6588344,47.049304 20.6818061,43.2027324 15.8663148,38.2689298 C14.5378925,36.8581383 13.8720448,34.9713696 14.0203865,33.0670859 C14.1690305,31.1599615 15.1215291,29.3947284 16.6427931,28.2120963 C22.2361416,23.7719923 26.317809,17.8284338 28.4433688,11.0191393 C30.0734717,5.02108186 35.3573168,0.646696584 41.5863724,0.137279946 C47.891065,-0.604796653 54.2487108,1.69237239 58.5942465,6.28308948 C63.0460498,10.6601877 64.2595694,17.3936809 61.6127671,23.0483614 C58.8299936,29.6087108 58.1025696,36.758749 59.5018893,43.704376 Z M34.1749485,46.5470607 C40.2515787,48.7430362 46.8692671,49.5561114 53.2771252,48.8998652 C54.3418476,48.7714647 55.3114599,48.2009266 55.9339794,47.339067 C56.554368,46.4799666 56.7844754,45.3943527 56.5705065,44.3846914 C55.0330519,36.7575047 55.8245349,28.9811556 58.8433963,21.8660998 C60.992255,17.2761771 60.0296998,11.9280483 56.4908102,8.44869957 C52.7251528,4.47304712 47.3038042,2.51418459 41.931134,3.14657443 C36.8570006,3.56325937 32.6391571,7.0551241 31.3424555,11.8248888 C29.0055796,19.3190827 24.5722384,25.7747343 18.5006137,30.5942947 C17.6305194,31.2710034 17.1011105,32.2521387 17.0191218,33.3040663 C16.9378291,34.3476318 17.3029069,35.3871912 18.0217352,36.1559473 C22.5177535,40.7591973 28.1047481,44.3534593 34.1749485,46.5470607 Z M49.7881289,11.7565999 C49.0370215,11.3510997 48.7772917,10.4491288 49.2080061,9.7419915 C49.6387205,9.03485423 50.5967764,8.79032909 51.3478838,9.19582931 C52.029191,9.56364654 53.0009762,10.1958978 53.9823412,11.0517308 C55.1763098,12.0929721 56.068784,13.2158032 56.5214949,14.4447524 C57.1483566,16.1464592 57.1143633,17.7896927 56.6794405,19.246746 C56.5564499,19.658782 56.4263718,19.9713821 56.3229873,20.1708819 C55.9433345,20.9034929 55.0047376,21.2076391 54.2265725,20.8502114 C53.4484073,20.4927836 53.1253492,19.6091326 53.505002,18.8765215 C53.529702,18.8288582 53.5917507,18.6797444 53.6608869,18.4481282 C53.9345142,17.5314379 53.9560668,16.4895877 53.5591087,15.4119877 C53.3020515,14.7141686 52.7012548,13.9583 51.8515937,13.2173239 C51.3968579,12.8207559 50.9037272,12.4562344 50.4107687,12.1355117 C50.1189159,11.9456299 49.8987675,11.8163303 49.7881289,11.7565999 Z" id="Combined-Shape"></path>
                    <path d="M3.99027233,22.9073066 C3.21493939,22.5553 2.87594575,21.6504852 3.23310883,20.8863461 C3.5902719,20.122207 4.50834131,19.7881076 5.28367424,20.1401141 L9.02731279,21.8397521 C9.80264572,22.1917586 10.1416394,23.0965735 9.78447629,23.8607126 C9.42731322,24.6248517 8.50924381,24.9589511 7.73391088,24.6069445 L3.99027233,22.9073066 Z M1.55284664,33.7463779 C0.699212733,33.7502907 0.00398725493,33.0714466 1.70771614e-05,32.2301369 C-0.00395310061,31.3888273 0.684835447,30.7036391 1.53846936,30.6997263 L5.66017849,30.6808333 C6.5138124,30.6769205 7.20903788,31.3557647 7.21300806,32.1970743 C7.21697823,33.0383839 6.52818969,33.7235721 5.67455577,33.7274849 L1.55284664,33.7463779 Z M4.26626606,44.0078154 C3.49428887,44.3669144 2.57310598,44.0412457 2.2087465,43.2804139 C1.84438702,42.5195821 2.17482646,41.6116987 2.94680365,41.2525997 L6.67423926,39.518716 C7.44621645,39.159617 8.36739934,39.4852857 8.73175882,40.2461175 C9.0961183,41.0069493 8.76567886,41.9148327 7.99370167,42.2739317 L4.26626606,44.0078154 Z M12.0082543,51.4503661 C11.4625903,52.0973618 10.4880653,52.1858938 9.83159183,51.6481078 C9.17511834,51.1103218 9.08528947,50.1498665 9.63095343,49.5028709 L12.2656521,46.3788993 C12.8113161,45.7319036 13.7858411,45.6433717 14.4423146,46.1811576 C15.0987881,46.7189436 15.1886169,47.6793989 14.642953,48.3263946 L12.0082543,51.4503661 Z" id="Combined-Shape" fill-opacity="0.5"></path>
                </g>
            </g>
        </g>
    </g>
</svg>