<svg width="64" height="60" viewBox="0 0 64 60" xmlns="http://www.w3.org/2000/svg">
  <g fill-rule="nonzero" fill="#DB881F">
    <path d="M24.03 51.197c.086-.827.825-1.426 1.648-1.34.824.09 1.422.83 1.335 1.655l-.005.066c-.016.292-.01.666.04 1.087.07.6.213 1.184.444 1.717.47 1.084 1.25 1.873 2.474 2.32 1.657.605 3.108.204 4.424-.89.326-.27.615-.562.86-.852.14-.167.227-.286.26-.334.456-.693 1.387-.882 2.078-.424.69.46.88 1.393.422 2.085-.325.492-.895 1.17-1.706 1.843-2.07 1.718-4.586 2.413-7.364 1.4-2.034-.743-3.416-2.14-4.2-3.95-.628-1.45-.798-2.922-.727-4.174.006-.092.01-.162.016-.21zM60 43.704c.403 1.9-.013 3.863-1.135 5.417-1.116 1.546-2.84 2.56-4.76 2.79-6.88.706-13.95-.163-20.448-2.512-6.5-2.35-12.478-6.195-17.294-11.13-1.328-1.41-1.994-3.297-1.846-5.2.15-1.908 1.102-3.673 2.623-4.856 5.593-4.44 9.675-10.384 11.8-17.193 1.63-6 6.914-10.373 13.143-10.883C48.39-.605 54.75 1.692 59.094 6.283c4.452 4.377 5.666 11.11 3.02 16.765-2.784 6.56-3.51 13.71-2.112 20.656zm-25.327 2.843c6.077 2.196 12.694 3.01 19.102 2.353 1.065-.13 2.034-.7 2.657-1.56.62-.86.85-1.946.637-2.955-1.537-7.627-.745-15.404 2.273-22.52 2.15-4.59 1.187-9.937-2.352-13.416-3.765-3.977-9.186-5.936-14.56-5.303-5.073.416-9.29 3.908-10.588 8.678-2.336 7.494-6.77 13.95-12.84 18.77-.87.676-1.4 1.657-1.483 2.71-.082 1.043.283 2.082 1.002 2.85 4.496 4.604 10.083 8.198 16.153 10.392zm15.613-34.79c-.75-.406-1.01-1.308-.58-2.015.43-.707 1.39-.952 2.14-.546.68.368 1.653 1 2.634 1.856 1.194 1.04 2.087 2.164 2.54 3.393.626 1.7.592 3.345.157 4.802-.124.412-.254.724-.357.924-.38.733-1.318 1.038-2.096.68-.78-.357-1.102-1.24-.722-1.973.025-.048.087-.197.156-.43.275-.916.296-1.957-.1-3.035-.258-.698-.86-1.454-1.708-2.195-.455-.396-.948-.76-1.44-1.08-.293-.19-.513-.32-.624-.38z"/>
    <path d="M4.49 22.907c-.775-.352-1.114-1.257-.757-2.02.357-.765 1.275-1.1 2.05-.747l3.744 1.7c.776.352 1.115 1.257.757 2.02-.357.765-1.275 1.1-2.05.747l-3.744-1.7zm-2.437 10.84C1.2 33.75.503 33.07.5 32.23c-.004-.84.685-1.526 1.538-1.53l4.122-.02c.854-.003 1.55.676 1.553 1.517.004.84-.685 1.527-1.538 1.53l-4.122.02zm2.713 10.26c-.772.36-1.693.034-2.057-.727-.366-.76-.035-1.668.737-2.027l3.727-1.734c.772-.36 1.693-.035 2.058.726.364.76.034 1.67-.738 2.028l-3.728 1.734zm7.742 7.443c-.545.647-1.52.736-2.176.198-.657-.538-.747-1.498-.2-2.145l2.634-3.124c.545-.648 1.52-.737 2.176-.2.657.54.747 1.5.2 2.146L12.51 51.45z" fill-opacity=".5"/>
  </g>
</svg>
