<?xml version="1.0" encoding="UTF-8" standalone="no"?>
<svg width="74px" height="60px" viewBox="0 0 74 60" version="1.1" xmlns="http://www.w3.org/2000/svg" xmlns:xlink="http://www.w3.org/1999/xlink">
    <!-- Generator: Sketch 42 (36781) - http://www.bohemiancoding.com/sketch -->
    <title>Features icon workflow</title>
    <desc>Created with Sketch.</desc>
    <defs></defs>
    <g id="Page-1" stroke="none" stroke-width="1" fill="none" fill-rule="evenodd">
        <g id="02-Features" transform="translate(-283.000000, -3895.000000)" fill="#DB881F">
            <g id="Features-icon-workflow" transform="translate(283.000000, 3895.000000)">
                <path d="M20,45.9947834 C20,43.7885255 21.7920319,42 24.0002124,42 L49.9997876,42 C52.2090439,42 54,43.7917156 54,45.9947834 L54,56.0052166 C54,58.2114745 52.2079681,60 49.9997876,60 L24.0002124,60 C21.7909561,60 20,58.2082844 20,56.0052166 L20,45.9947834 Z M23,47.0085302 L23,54.9914698 C23,56.0980496 23.8915104,57 24.9912443,57 L49.0087557,57 C50.1001025,57 51,56.1007504 51,54.9914698 L51,47.0085302 C51,45.9019504 50.1084896,45 49.0087557,45 L24.9912443,45 C23.8998975,45 23,45.8992496 23,47.0085302 Z M27.5,51 C26.6715729,51 26,50.3284271 26,49.5 C26,48.6715729 26.6715729,48 27.5,48 C28.3284271,48 29,48.6715729 29,49.5 C29,50.3284271 28.3284271,51 27.5,51 Z M33.5,51 C32.6715729,51 32,50.3284271 32,49.5 C32,48.6715729 32.6715729,48 33.5,48 C34.3284271,48 35,48.6715729 35,49.5 C35,50.3284271 34.3284271,51 33.5,51 Z M0,3.9947834 C0,1.78852545 1.79412025,0 3.99683887,0 L24.0031611,0 C26.2105543,0 28,1.79171562 28,3.9947834 L28,14.0052166 C28,16.2114745 26.2058797,18 24.0031611,18 L3.99683887,18 C1.78944571,18 0,16.2082844 0,14.0052166 L0,3.9947834 Z M3,5.0085302 L3,12.9914698 C3,14.0980496 3.89147046,15 4.991155,15 L23.008845,15 C24.1103261,15 25,14.1007504 25,12.9914698 L25,5.0085302 C25,3.90195036 24.1085295,3 23.008845,3 L4.991155,3 C3.88967395,3 3,3.8992496 3,5.0085302 Z M12.5019323,21 L15.5019323,21 C15.5019323,21 15.5005995,24.0576432 15.500444,24.0621596 C15.4879732,24.5346971 15.5876354,25.2175734 15.8872948,25.8477349 C16.3848332,26.8940212 17.2938261,27.489096 19.0039464,27.489096 C19.0039464,27.489096 31.9537126,27.4896476 31.9954761,27.4885468 C32.2832952,27.482107 32.6554973,27.4957131 33.0859012,27.5447243 C33.7449391,27.6197707 34.4012072,27.7640009 35.0301619,27.9990427 C37.1426298,28.7884769 38.5126134,30.4412874 38.5126134,32.9513762 L38.5126134,38.9678557 L35.5126134,38.9678557 L35.5126134,32.9513762 C35.5126134,31.8072292 35.0019437,31.1911341 33.9799893,30.8092273 C33.3107475,30.5591301 32.5822113,30.4761698 31.9975378,30.489096 L19.0039464,30.489096 C16.1167386,30.489096 14.1648344,29.2112764 13.1780169,27.1360723 C12.8685286,26.4852414 12.677457,25.8031537 12.5774878,25.1181734 C12.5121816,24.6707009 12.4935568,24.2835475 12.5019323,23.9947112 L12.5019323,21 Z" id="Combined-Shape"></path>
                <path d="M41.1875446,30.5307281 C41.4660189,30.4952154 41.7272282,30.4828111 41.9500307,30.4877962 C41.9604177,30.4880821 55.008667,30.489096 55.008667,30.489096 C57.8958748,30.489096 59.847779,29.2112764 60.8345965,27.1360723 C61.1440848,26.4852414 61.3351564,25.8031537 61.4351256,25.1181734 C61.5004319,24.6707009 61.5190566,24.2835475 61.5111252,23.9830136 C61.5098314,23.9413503 61.5098314,23.9413503 61.5087742,23.9190999 L61.5106812,21 L58.5106812,21 L58.5106812,23.9947112 C58.5120139,24.0576432 58.5120139,24.0576432 58.5121694,24.0621596 C58.5246402,24.5346971 58.424978,25.2175734 58.1253186,25.8477349 C57.6277802,26.8940212 56.7187874,27.489096 55.008667,27.489096 L42.0150757,27.489096 C41.7293182,27.482107 41.3571162,27.4957131 40.9267122,27.5447243 C40.5330017,27.5895571 40.1402797,27.659081 39.753779,27.7579069 C40.4076057,28.5619282 40.8939394,29.4936536 41.1875446,30.5307281 Z M46,3.9947834 C46,1.78852545 47.7941203,0 49.9968389,0 L70.0031611,0 C72.2105543,0 74,1.79171562 74,3.9947834 L74,14.0052166 C74,16.2114745 72.2058797,18 70.0031611,18 L49.9968389,18 C47.7894457,18 46,16.2082844 46,14.0052166 L46,3.9947834 Z M49,5.0085302 L49,12.9914698 C49,14.0980496 49.8914705,15 50.991155,15 L69.008845,15 C70.1103261,15 71,14.1007504 71,12.9914698 L71,5.0085302 C71,3.90195036 70.1085295,3 69.008845,3 L50.991155,3 C49.8896739,3 49,3.8992496 49,5.0085302 Z" id="Combined-Shape" fill-opacity="0.5"></path>
            </g>
        </g>
    </g>
</svg>