<svg width="74" height="60" viewBox="0 0 74 60" xmlns="http://www.w3.org/2000/svg">
  <title>
    Features icon workflow
  </title>
  <g fill="#DB881F" fill-rule="evenodd">
    <path d="M20 45.995C20 43.79 21.792 42 24 42h26c2.21 0 4 1.792 4 3.995v10.01C54 58.21 52.208 60 50 60H24c-2.21 0-4-1.792-4-3.995v-10.01zm3 1.014v7.98c0 1.108.892 2.01 1.99 2.01h24.02c1.09 0 1.99-.9 1.99-2.01v-7.98C51 45.9 50.108 45 49.01 45H24.99c-1.09 0-1.99.9-1.99 2.01zM27.5 51c-.828 0-1.5-.672-1.5-1.5s.672-1.5 1.5-1.5 1.5.672 1.5 1.5-.672 1.5-1.5 1.5zm6 0c-.828 0-1.5-.672-1.5-1.5s.672-1.5 1.5-1.5 1.5.672 1.5 1.5-.672 1.5-1.5 1.5zM0 3.995C0 1.79 1.794 0 3.997 0h20.006C26.21 0 28 1.792 28 3.995v10.01C28 16.21 26.206 18 24.003 18H3.997C1.79 18 0 16.208 0 14.005V3.995zM3 5.01v7.98C3 14.1 3.89 15 4.99 15h18.02c1.1 0 1.99-.9 1.99-2.01V5.01C25 3.9 24.11 3 23.01 3H4.99C3.89 3 3 3.9 3 5.01zM12.502 21h3s0 3.058-.002 3.062c-.012.473.088 1.156.387 1.786.498 1.046 1.407 1.64 3.117 1.64 0 0 12.95.002 12.99 0 .29-.006.66.008 1.092.057.66.075 1.315.22 1.944.454 2.113.788 3.483 2.44 3.483 4.95v6.018h-3V32.95c0-1.143-.51-1.76-1.533-2.14-.67-.25-1.398-.334-1.982-.32H19.004c-2.887 0-4.84-1.28-5.826-3.354-.31-.65-.5-1.333-.6-2.018-.066-.447-.084-.834-.076-1.123V21z"/>
    <path d="M41.188 30.53c.278-.035.54-.047.762-.042h13.06c2.886 0 4.838-1.277 5.825-3.352.31-.65.5-1.333.6-2.018.065-.447.084-.834.076-1.135V21h-3v2.995l.002.067c.013.473-.087 1.156-.387 1.786-.497 1.046-1.406 1.64-3.116 1.64H42.014c-.286-.006-.658.008-1.088.057-.394.045-.787.114-1.173.213.654.804 1.14 1.736 1.434 2.773zM46 3.996C46 1.79 47.794 0 49.997 0h20.006C72.21 0 74 1.792 74 3.995v10.01C74 16.21 72.206 18 70.003 18H49.997C47.79 18 46 16.208 46 14.005V3.995zm3 1.014v7.98c0 1.108.89 2.01 1.99 2.01h18.02c1.1 0 1.99-.9 1.99-2.01V5.01C71 3.9 70.11 3 69.01 3H50.99C49.89 3 49 3.9 49 5.01z" fill-opacity=".5"/>
  </g>
</svg>
