<?xml version="1.0" encoding="utf-8"?>
<!-- Generator: Adobe Illustrator 16.0.0, SVG Export Plug-In . SVG Version: 6.00 Build 0)  -->
<!DOCTYPE svg PUBLIC "-//W3C//DTD SVG 1.1//EN" "http://www.w3.org/Graphics/SVG/1.1/DTD/svg11.dtd">
<svg version="1.1" id="Layer_1" xmlns="http://www.w3.org/2000/svg" xmlns:xlink="http://www.w3.org/1999/xlink" x="0px" y="0px"
	 width="560px" height="420.08px" viewBox="0 0 560 420.08" enable-background="new 0 0 560 420.08" xml:space="preserve">
<rect x="326" y="124.5" fill="#D88B36" width="92.706" height="40"/>
<polygon fill="#D88B36" points="366.972,163.5 372.354,174.022 377.734,163.5 "/>
<path fill="#FFFFFF" d="M348.789,132.398c-6.771,0-12.26,5.489-12.26,12.26c0,6.771,5.488,12.259,12.26,12.259
	s12.26-5.488,12.26-12.259C361.049,137.887,355.562,132.398,348.789,132.398z M348.785,135.898c1.898,0,3.441,1.541,3.441,3.441
	c0,1.898-1.543,3.439-3.441,3.439c-1.901,0-3.441-1.541-3.441-3.439C345.344,137.439,346.884,135.898,348.785,135.898z
	 M341.896,152.081c0-4.375,3.31-7.923,6.854-7.923c3.547,0,6.855,3.546,6.855,7.923H341.896z"/>
<line fill="none" stroke="#ECF0F1" stroke-width="2.1903" stroke-miterlimit="10" x1="15.889" y1="137.956" x2="331.428" y2="109.125"/>
<g>
	
		<line fill="none" stroke="#7BB5D6" stroke-width="3.2855" stroke-miterlimit="10" stroke-dasharray="3.5126" x1="178.17" y1="110.427" x2="270.309" y2="231.322"/>
	<path fill="none" stroke="#7BB5D6" stroke-width="3.2855" stroke-miterlimit="10" stroke-dasharray="3.5126" d="M108.022,252.337
		c0,0,30.79-70.808,117.274-80.074c86.485-9.268,146.248,13.989,176.502,31.249"/>
</g>
<rect x="266" fill="#2980B9" width="174" height="50"/>
<polyline fill="#2980B9" points="251,50 269,50 269,43 "/>
<g>
	<g enable-background="new    ">
		<path fill="#FFFFFF" d="M337.949,14.087c0,1.62-0.439,2.858-1.32,3.716c-0.879,0.856-2.145,1.285-3.795,1.285h-2.719V9.274h3.007
			c1.526,0,2.712,0.423,3.558,1.269C337.525,11.389,337.949,12.57,337.949,14.087z M336.74,14.127c0-1.279-0.32-2.244-0.963-2.893
			c-0.645-0.649-1.599-0.974-2.863-0.974h-1.658v7.841h1.391c1.359,0,2.386-0.335,3.066-1.004
			C336.398,16.429,336.74,15.438,336.74,14.127z"/>
		<path fill="#FFFFFF" d="M339.875,9.737c0-0.255,0.062-0.442,0.188-0.562c0.127-0.119,0.282-0.178,0.473-0.178
			c0.179,0,0.333,0.061,0.463,0.181c0.13,0.121,0.193,0.307,0.193,0.561c0,0.25-0.063,0.438-0.193,0.561s-0.284,0.185-0.463,0.185
			c-0.188,0-0.346-0.062-0.473-0.185C339.938,10.175,339.875,9.987,339.875,9.737z M341.084,19.088h-1.115V11.73h1.115V19.088z"/>
		<path fill="#FFFFFF" d="M348.453,18.102h-0.061c-0.516,0.747-1.283,1.12-2.311,1.12c-0.963,0-1.712-0.328-2.246-0.986
			c-0.533-0.658-0.802-1.593-0.802-2.806c0-1.213,0.269-2.155,0.806-2.826s1.285-1.007,2.242-1.007c0.997,0,1.766,0.362,2.295,1.087
			h0.088l-0.047-0.53l-0.025-0.52V8.643h1.113v10.445h-0.904L348.453,18.102z M346.225,18.289c0.764,0,1.312-0.207,1.654-0.621
			c0.344-0.414,0.516-1.082,0.516-2.004V15.43c0-1.043-0.176-1.787-0.521-2.232c-0.349-0.445-0.897-0.668-1.661-0.668
			c-0.65,0-1.15,0.254-1.5,0.762c-0.347,0.509-0.521,1.226-0.521,2.152c0,0.939,0.173,1.648,0.518,2.128
			C345.053,18.05,345.559,18.289,346.225,18.289z"/>
		<path fill="#FFFFFF" d="M354.273,11.73h1.193l1.61,4.195c0.354,0.958,0.571,1.649,0.655,2.074h0.056
			c0.062-0.228,0.181-0.618,0.364-1.171c0.188-0.553,0.795-2.252,1.822-5.099h1.193l-3.16,8.378
			c-0.312,0.828-0.68,1.415-1.099,1.762c-0.419,0.347-0.933,0.521-1.54,0.521c-0.342,0-0.676-0.038-1.008-0.114v-0.893
			c0.246,0.054,0.521,0.08,0.826,0.08c0.766,0,1.311-0.43,1.638-1.288l0.409-1.048L354.273,11.73z"/>
		<path fill="#FFFFFF" d="M368.719,15.402c0,1.199-0.301,2.136-0.904,2.81s-1.438,1.01-2.504,1.01c-0.657,0-1.242-0.154-1.752-0.463
			c-0.512-0.309-0.903-0.752-1.184-1.329c-0.277-0.577-0.416-1.253-0.416-2.027c0-1.199,0.301-2.133,0.898-2.803
			c0.601-0.669,1.433-1.003,2.498-1.003c1.027,0,1.847,0.342,2.453,1.027C368.416,13.309,368.719,14.234,368.719,15.402z
			 M363.115,15.402c0,0.94,0.188,1.656,0.562,2.148c0.377,0.492,0.931,0.738,1.658,0.738c0.729,0,1.282-0.245,1.661-0.735
			c0.378-0.489,0.566-1.207,0.566-2.151c0-0.935-0.188-1.646-0.566-2.131c-0.379-0.485-0.938-0.729-1.675-0.729
			c-0.729,0-1.279,0.239-1.65,0.719C363.3,13.741,363.115,14.454,363.115,15.402z"/>
		<path fill="#FFFFFF" d="M371.721,11.73v4.773c0,0.6,0.137,1.047,0.408,1.342c0.271,0.296,0.7,0.443,1.282,0.443
			c0.771,0,1.332-0.21,1.688-0.631c0.354-0.421,0.531-1.107,0.531-2.062V11.73h1.114v7.357h-0.92l-0.159-0.986h-0.062
			c-0.229,0.362-0.545,0.64-0.949,0.832s-0.867,0.288-1.387,0.288c-0.896,0-1.565-0.212-2.014-0.638
			c-0.443-0.425-0.666-1.104-0.666-2.04V11.73H371.721z"/>
		<path fill="#FFFFFF" d="M388.703,11.73v0.705l-1.363,0.161c0.127,0.156,0.238,0.361,0.336,0.614
			c0.1,0.253,0.148,0.538,0.148,0.855c0,0.721-0.246,1.296-0.738,1.726c-0.492,0.43-1.168,0.645-2.025,0.645
			c-0.221,0-0.428-0.018-0.619-0.054c-0.475,0.251-0.711,0.566-0.711,0.946c0,0.201,0.084,0.351,0.248,0.446
			c0.166,0.097,0.449,0.145,0.854,0.145h1.304c0.795,0,1.407,0.168,1.836,0.503c0.428,0.336,0.643,0.824,0.643,1.464
			c0,0.814-0.326,1.438-0.98,1.862c-0.652,0.428-1.604,0.642-2.857,0.642c-0.963,0-1.704-0.179-2.227-0.537
			c-0.521-0.358-0.783-0.863-0.783-1.517c0-0.448,0.146-0.835,0.433-1.162c0.287-0.326,0.688-0.548,1.209-0.664
			c-0.188-0.085-0.349-0.217-0.476-0.396c-0.129-0.179-0.188-0.387-0.188-0.624c0-0.271,0.069-0.503,0.214-0.705
			c0.146-0.201,0.37-0.396,0.68-0.584c-0.382-0.156-0.689-0.423-0.931-0.799s-0.358-0.806-0.358-1.288
			c0-0.806,0.24-1.427,0.727-1.863c0.484-0.436,1.168-0.654,2.055-0.654c0.385,0,0.73,0.045,1.04,0.134L388.703,11.73L388.703,11.73
			z M382.836,20.323c0,0.396,0.168,0.7,0.504,0.906c0.336,0.205,0.816,0.309,1.443,0.309c0.936,0,1.627-0.14,2.076-0.42
			c0.451-0.279,0.676-0.658,0.676-1.138c0-0.398-0.123-0.675-0.369-0.829c-0.246-0.154-0.709-0.231-1.391-0.231h-1.336
			c-0.504,0-0.898,0.121-1.182,0.362C382.977,19.524,382.836,19.871,382.836,20.323z M383.439,14.087
			c0,0.515,0.146,0.904,0.438,1.168c0.291,0.265,0.695,0.396,1.215,0.396c1.09,0,1.633-0.528,1.633-1.585
			c0-1.104-0.553-1.657-1.649-1.657c-0.524,0-0.929,0.141-1.209,0.423C383.582,13.113,383.439,13.532,383.439,14.087z"/>
		<path fill="#FFFFFF" d="M391.26,11.73v4.773c0,0.6,0.139,1.047,0.41,1.342c0.271,0.296,0.7,0.443,1.282,0.443
			c0.771,0,1.332-0.21,1.688-0.631c0.354-0.421,0.531-1.107,0.531-2.062V11.73h1.114v7.357h-0.92l-0.161-0.986h-0.062
			c-0.229,0.362-0.545,0.64-0.949,0.832c-0.403,0.192-0.866,0.288-1.387,0.288c-0.896,0-1.563-0.212-2.012-0.638
			c-0.443-0.425-0.668-1.104-0.668-2.04V11.73H391.26z"/>
		<path fill="#FFFFFF" d="M397.483,11.73h1.192l1.61,4.195c0.354,0.958,0.573,1.649,0.658,2.074H401
			c0.059-0.228,0.182-0.618,0.366-1.171c0.185-0.553,0.793-2.252,1.821-5.099h1.193l-3.162,8.378
			c-0.312,0.828-0.68,1.415-1.098,1.762c-0.418,0.347-0.934,0.521-1.541,0.521c-0.34,0-0.676-0.038-1.006-0.114v-0.893
			c0.246,0.054,0.521,0.08,0.825,0.08c0.765,0,1.312-0.43,1.638-1.288l0.41-1.048L397.483,11.73z"/>
		<path fill="#FFFFFF" d="M410.324,17.081c0,0.685-0.254,1.213-0.767,1.584c-0.511,0.371-1.227,0.557-2.146,0.557
			c-0.977,0-1.736-0.154-2.283-0.463v-1.033c0.354,0.179,0.732,0.319,1.141,0.423c0.402,0.103,0.796,0.154,1.171,0.154
			c0.581,0,1.028-0.093,1.344-0.278c0.312-0.187,0.47-0.469,0.47-0.85c0-0.286-0.123-0.531-0.371-0.735
			c-0.25-0.203-0.732-0.443-1.455-0.722c-0.685-0.255-1.17-0.478-1.459-0.668c-0.289-0.189-0.504-0.405-0.646-0.647
			c-0.144-0.241-0.211-0.53-0.211-0.866c0-0.6,0.243-1.072,0.729-1.419c0.486-0.348,1.156-0.521,2.006-0.521
			c0.793,0,1.566,0.161,2.322,0.483l-0.396,0.906c-0.737-0.305-1.406-0.457-2.007-0.457c-0.527,0-0.929,0.083-1.194,0.249
			c-0.271,0.165-0.402,0.394-0.402,0.685c0,0.196,0.051,0.364,0.15,0.503c0.102,0.139,0.264,0.271,0.484,0.396
			c0.227,0.125,0.653,0.307,1.289,0.544c0.873,0.317,1.464,0.638,1.771,0.96C410.172,16.188,410.324,16.593,410.324,17.081z"/>
	</g>
	<g enable-background="new    ">
		<path fill="#FFFFFF" d="M321.967,30.85h-1.873v6.491h-1.115V30.85h-1.312v-0.503l1.312-0.403v-0.409
			c0-1.809,0.791-2.712,2.371-2.712c0.391,0,0.847,0.078,1.369,0.234l-0.289,0.894c-0.43-0.139-0.797-0.209-1.103-0.209
			c-0.42,0-0.729,0.141-0.933,0.42c-0.201,0.28-0.305,0.729-0.305,1.346v0.477h1.873v0.865H321.967z M323.215,27.99
			c0-0.255,0.062-0.442,0.188-0.562c0.125-0.119,0.283-0.178,0.473-0.178c0.179,0,0.333,0.061,0.464,0.181
			c0.129,0.121,0.193,0.307,0.193,0.558c0,0.25-0.064,0.438-0.193,0.561c-0.131,0.123-0.285,0.185-0.464,0.185
			c-0.188,0-0.348-0.062-0.473-0.185S323.215,28.24,323.215,27.99z M324.424,37.341h-1.115v-7.357h1.115V37.341z"/>
		<path fill="#FFFFFF" d="M331.82,37.341v-4.76c0-0.6-0.137-1.047-0.409-1.342c-0.271-0.296-0.7-0.443-1.282-0.443
			c-0.77,0-1.334,0.208-1.689,0.624c-0.357,0.416-0.536,1.104-0.536,2.062v3.859h-1.114v-7.357h0.904l0.183,1.007h0.058
			c0.228-0.362,0.547-0.643,0.959-0.842c0.41-0.199,0.869-0.299,1.377-0.299c0.886,0,1.553,0.214,2,0.641
			c0.445,0.428,0.67,1.111,0.67,2.051v4.8L331.82,37.341L331.82,37.341z"/>
		<path fill="#FFFFFF" d="M335.131,27.99c0-0.255,0.062-0.442,0.188-0.562c0.125-0.119,0.281-0.178,0.471-0.178
			c0.18,0,0.334,0.061,0.465,0.181c0.129,0.121,0.193,0.307,0.193,0.558c0,0.25-0.064,0.438-0.193,0.561
			c-0.131,0.123-0.285,0.185-0.465,0.185c-0.188,0-0.346-0.062-0.471-0.185C335.191,28.428,335.131,28.24,335.131,27.99z
			 M336.338,37.341h-1.111v-7.357h1.111V37.341z"/>
		<path fill="#FFFFFF" d="M343.447,35.334c0,0.685-0.256,1.213-0.766,1.584c-0.512,0.371-1.229,0.557-2.148,0.557
			c-0.975,0-1.736-0.154-2.281-0.463v-1.033c0.354,0.179,0.732,0.319,1.139,0.423c0.404,0.103,0.795,0.154,1.172,0.154
			c0.582,0,1.027-0.093,1.343-0.278c0.312-0.187,0.472-0.469,0.472-0.85c0-0.286-0.125-0.531-0.373-0.735
			c-0.248-0.203-0.73-0.443-1.453-0.722c-0.686-0.255-1.172-0.478-1.461-0.668c-0.287-0.188-0.502-0.405-0.646-0.646
			c-0.141-0.241-0.211-0.53-0.211-0.866c0-0.6,0.244-1.072,0.73-1.419c0.488-0.348,1.156-0.521,2.008-0.521
			c0.791,0,1.565,0.161,2.322,0.483l-0.396,0.906c-0.736-0.305-1.406-0.457-2.008-0.457c-0.526,0-0.927,0.083-1.192,0.249
			c-0.271,0.165-0.402,0.394-0.402,0.685c0,0.196,0.051,0.364,0.149,0.503c0.103,0.139,0.264,0.271,0.486,0.396
			c0.226,0.125,0.651,0.307,1.288,0.544c0.873,0.317,1.464,0.638,1.77,0.96C343.293,34.441,343.447,34.846,343.447,35.334z"/>
		<path fill="#FFFFFF" d="M350.293,37.341v-4.76c0-0.6-0.136-1.047-0.408-1.342c-0.271-0.296-0.699-0.443-1.281-0.443
			c-0.772,0-1.34,0.21-1.693,0.631c-0.355,0.421-0.533,1.11-0.533,2.067v3.847h-1.113V26.896h1.113v3.162
			c0,0.38-0.02,0.696-0.054,0.946h0.063c0.221-0.354,0.531-0.632,0.938-0.836c0.405-0.203,0.866-0.305,1.387-0.305
			c0.899,0,1.573,0.213,2.022,0.641c0.451,0.428,0.676,1.106,0.676,2.037v4.8H350.293z"/>
		<path fill="#FFFFFF" d="M356.1,29.983h1.195l1.61,4.195c0.354,0.958,0.571,1.649,0.657,2.074h0.054
			c0.06-0.228,0.181-0.618,0.366-1.171c0.188-0.553,0.793-2.252,1.82-5.099h1.194l-3.161,8.378c-0.312,0.828-0.68,1.415-1.098,1.762
			c-0.42,0.347-0.935,0.521-1.541,0.521c-0.342,0-0.678-0.038-1.008-0.114v-0.896c0.246,0.054,0.521,0.08,0.824,0.08
			c0.768,0,1.312-0.43,1.641-1.288l0.408-1.048L356.1,29.983z"/>
		<path fill="#FFFFFF" d="M370.547,33.655c0,1.199-0.303,2.136-0.906,2.81c-0.604,0.674-1.438,1.01-2.504,1.01
			c-0.656,0-1.24-0.154-1.752-0.463c-0.512-0.309-0.904-0.752-1.183-1.329c-0.278-0.577-0.416-1.253-0.416-2.027
			c0-1.199,0.3-2.133,0.899-2.803c0.6-0.669,1.432-1.003,2.495-1.003c1.028,0,1.849,0.342,2.454,1.027
			C370.241,31.562,370.547,32.487,370.547,33.655z M364.941,33.655c0,0.938,0.188,1.656,0.562,2.146
			c0.377,0.492,0.931,0.738,1.657,0.738c0.73,0,1.283-0.245,1.662-0.735c0.378-0.489,0.566-1.207,0.566-2.151
			c0-0.937-0.188-1.646-0.566-2.131c-0.379-0.485-0.938-0.729-1.676-0.729c-0.729,0-1.279,0.239-1.65,0.719
			C365.127,31.993,364.941,32.707,364.941,33.655z"/>
		<path fill="#FFFFFF" d="M373.547,29.983v4.773c0,0.6,0.139,1.047,0.409,1.342c0.272,0.296,0.7,0.443,1.282,0.443
			c0.77,0,1.332-0.21,1.688-0.631c0.356-0.421,0.535-1.107,0.535-2.061v-3.867h1.113v7.357h-0.92l-0.16-0.986h-0.061
			c-0.229,0.362-0.547,0.64-0.951,0.832s-0.866,0.288-1.387,0.288c-0.896,0-1.564-0.212-2.012-0.638
			c-0.443-0.425-0.668-1.104-0.668-2.04v-4.813L373.547,29.983L373.547,29.983z"/>
		<path fill="#FFFFFF" d="M384.293,29.85c0.327,0,0.621,0.026,0.881,0.08l-0.154,1.034c-0.305-0.067-0.571-0.101-0.807-0.101
			c-0.596,0-1.104,0.241-1.525,0.725c-0.422,0.483-0.635,1.085-0.635,1.806v3.947h-1.113v-7.357h0.92l0.128,1.363h0.054
			c0.271-0.479,0.604-0.849,0.987-1.107C383.41,29.979,383.832,29.85,384.293,29.85z"/>
		<path fill="#FFFFFF" d="M393.061,37.475c-1.062,0-1.891-0.327-2.475-0.983c-0.584-0.655-0.875-1.583-0.875-2.782
			c0-1.23,0.297-2.182,0.891-2.853s1.438-1.007,2.533-1.007c0.354,0,0.707,0.038,1.062,0.114c0.354,0.076,0.631,0.165,0.832,0.269
			l-0.344,0.946c-0.246-0.099-0.516-0.181-0.807-0.245s-0.549-0.098-0.771-0.098c-1.492,0-2.24,0.953-2.24,2.86
			c0,0.903,0.184,1.597,0.547,2.08c0.364,0.483,0.904,0.726,1.621,0.726c0.611,0,1.24-0.132,1.887-0.396v0.987
			C394.428,37.348,393.809,37.475,393.061,37.475z"/>
		<path fill="#FFFFFF" d="M403.016,33.655c0,1.199-0.303,2.136-0.904,2.81c-0.604,0.674-1.439,1.01-2.506,1.01
			c-0.656,0-1.24-0.154-1.752-0.463c-0.512-0.309-0.902-0.752-1.182-1.329c-0.278-0.577-0.416-1.253-0.416-2.027
			c0-1.199,0.299-2.133,0.897-2.803c0.601-0.669,1.433-1.003,2.498-1.003c1.026,0,1.847,0.342,2.452,1.027
			C402.713,31.562,403.016,32.487,403.016,33.655z M397.41,33.655c0,0.938,0.188,1.656,0.562,2.146
			c0.375,0.492,0.931,0.738,1.657,0.738c0.729,0,1.283-0.245,1.662-0.735c0.379-0.489,0.566-1.207,0.566-2.151
			c0-0.937-0.188-1.646-0.566-2.131s-0.938-0.729-1.675-0.729c-0.729,0-1.28,0.239-1.651,0.719
			C397.596,31.993,397.41,32.707,397.41,33.655z"/>
		<path fill="#FFFFFF" d="M409.977,36.354h-0.062c-0.515,0.747-1.284,1.12-2.31,1.12c-0.964,0-1.711-0.328-2.245-0.986
			c-0.535-0.658-0.805-1.593-0.805-2.806c0-1.213,0.271-2.155,0.809-2.826c0.536-0.671,1.282-1.007,2.241-1.007
			c0.998,0,1.763,0.362,2.296,1.087h0.088l-0.047-0.53l-0.027-0.517v-2.994h1.114V37.34h-0.906L409.977,36.354z M407.748,36.542
			c0.76,0,1.312-0.207,1.654-0.621s0.514-1.082,0.514-2.004v-0.234c0-1.043-0.174-1.787-0.521-2.232
			c-0.347-0.445-0.898-0.668-1.659-0.668c-0.654,0-1.154,0.254-1.5,0.762c-0.35,0.509-0.521,1.226-0.521,2.152
			c0,0.938,0.172,1.646,0.519,2.128C406.575,36.303,407.08,36.542,407.748,36.542z"/>
		<path fill="#FFFFFF" d="M416.502,37.475c-1.088,0-1.945-0.331-2.574-0.993s-0.94-1.582-0.94-2.759
			c0-1.186,0.291-2.128,0.875-2.826s1.368-1.047,2.354-1.047c0.922,0,1.649,0.303,2.188,0.909c0.538,0.606,0.807,1.406,0.807,2.4
			v0.704h-5.066c0.021,0.864,0.238,1.52,0.652,1.967c0.414,0.448,0.996,0.672,1.748,0.672c0.793,0,1.576-0.166,2.352-0.497v0.993
			c-0.396,0.171-0.768,0.292-1.116,0.366C417.426,37.438,416.998,37.475,416.502,37.475z M416.199,30.782
			c-0.591,0-1.062,0.192-1.413,0.577c-0.351,0.386-0.558,0.918-0.62,1.598h3.847c0-0.702-0.154-1.24-0.471-1.614
			C417.229,30.97,416.781,30.782,416.199,30.782z"/>
		<path fill="#FFFFFF" d="M421.864,34.636v-0.362c0-0.523,0.081-0.954,0.241-1.293c0.16-0.337,0.461-0.694,0.898-1.07
			c0.606-0.515,0.991-0.901,1.149-1.161c0.157-0.26,0.236-0.573,0.236-0.939c0-0.457-0.146-0.81-0.438-1.058
			s-0.715-0.373-1.267-0.373c-0.354,0-0.696,0.042-1.032,0.125c-0.336,0.082-0.723,0.233-1.154,0.453l-0.396-0.906
			c0.847-0.443,1.729-0.665,2.649-0.665c0.854,0,1.521,0.211,1.994,0.631c0.475,0.421,0.713,1.014,0.713,1.779
			c0,0.326-0.046,0.614-0.132,0.862c-0.088,0.248-0.217,0.483-0.387,0.705c-0.172,0.222-0.537,0.578-1.103,1.07
			c-0.452,0.385-0.752,0.705-0.896,0.96c-0.146,0.255-0.219,0.596-0.219,1.021v0.222L421.864,34.636L421.864,34.636z
			 M421.535,36.629c0-0.608,0.27-0.912,0.807-0.912c0.26,0,0.459,0.078,0.603,0.234c0.141,0.157,0.212,0.383,0.212,0.678
			c0,0.287-0.071,0.51-0.215,0.668c-0.146,0.159-0.345,0.238-0.6,0.238c-0.231,0-0.426-0.07-0.577-0.211
			C421.611,37.183,421.535,36.951,421.535,36.629z"/>
	</g>
</g>
<rect x="45" y="160" fill="#D88B36" width="92.706" height="40"/>
<polygon fill="#D88B36" points="85.972,199 91.353,209.522 96.734,199 "/>
<g enable-background="new    ">
	<path fill="#FFFFFF" d="M376.941,148.45h-5.474v-9.813h5.474v1.013h-4.33v3.162h4.065v1.007h-4.065v3.611h4.33V148.45
		L376.941,148.45z"/>
	<path fill="#FFFFFF" d="M383.473,148.45l-0.221-1.047h-0.054c-0.367,0.461-0.733,0.772-1.099,0.937
		c-0.363,0.163-0.818,0.244-1.365,0.244c-0.729,0-1.301-0.188-1.715-0.563s-0.621-0.91-0.621-1.604c0-1.485,1.188-2.264,3.562-2.336
		l1.248-0.04v-0.457c0-0.577-0.123-1.003-0.372-1.278c-0.248-0.275-0.646-0.413-1.189-0.413c-0.612,0-1.309,0.188-2.08,0.564
		l-0.342-0.853c0.359-0.197,0.76-0.352,1.188-0.464c0.432-0.111,0.864-0.167,1.299-0.167c0.877,0,1.527,0.194,1.949,0.584
		c0.424,0.389,0.635,1.014,0.635,1.872v5.021H383.473z M380.956,147.665c0.694,0,1.239-0.19,1.635-0.571
		c0.396-0.38,0.595-0.912,0.595-1.597v-0.665l-1.112,0.047c-0.888,0.031-1.525,0.169-1.916,0.413
		c-0.396,0.244-0.591,0.623-0.591,1.138c0,0.402,0.123,0.709,0.367,0.92C380.176,147.56,380.518,147.665,380.956,147.665z"/>
	<path fill="#FFFFFF" d="M391.341,146.443c0,0.685-0.255,1.213-0.765,1.584c-0.512,0.371-1.227,0.557-2.148,0.557
		c-0.976,0-1.736-0.154-2.283-0.463v-1.033c0.354,0.179,0.733,0.319,1.142,0.423c0.401,0.104,0.795,0.154,1.172,0.154
		c0.581,0,1.026-0.093,1.342-0.278c0.313-0.187,0.474-0.469,0.474-0.85c0-0.286-0.125-0.531-0.373-0.735
		c-0.248-0.203-0.732-0.443-1.453-0.722c-0.688-0.255-1.172-0.478-1.461-0.668c-0.288-0.189-0.504-0.405-0.646-0.647
		c-0.141-0.241-0.211-0.53-0.211-0.866c0-0.6,0.244-1.072,0.73-1.419c0.486-0.348,1.156-0.521,2.008-0.521
		c0.793,0,1.564,0.161,2.322,0.483l-0.396,0.906c-0.738-0.305-1.408-0.457-2.008-0.457c-0.527,0-0.928,0.083-1.195,0.249
		c-0.268,0.165-0.4,0.394-0.4,0.685c0,0.196,0.052,0.364,0.149,0.503c0.103,0.139,0.265,0.271,0.486,0.396s0.651,0.307,1.289,0.544
		c0.87,0.317,1.462,0.638,1.769,0.96S391.341,145.955,391.341,146.443z"/>
	<path fill="#FFFFFF" d="M391.984,141.093h1.192l1.611,4.195c0.354,0.958,0.571,1.649,0.658,2.074h0.053
		c0.062-0.229,0.183-0.618,0.366-1.171c0.187-0.553,0.794-2.252,1.82-5.099h1.194l-3.161,8.378c-0.312,0.828-0.68,1.415-1.098,1.762
		c-0.419,0.347-0.934,0.521-1.541,0.521c-0.34,0-0.676-0.038-1.007-0.114v-0.893c0.246,0.054,0.521,0.08,0.825,0.08
		c0.766,0,1.312-0.43,1.639-1.288l0.409-1.048L391.984,141.093z"/>
	<path fill="#FFFFFF" d="M399.92,147.738c0-0.608,0.27-0.912,0.805-0.912c0.263,0,0.461,0.078,0.604,0.234
		c0.141,0.157,0.211,0.383,0.211,0.678c0,0.287-0.071,0.51-0.215,0.668c-0.146,0.159-0.345,0.238-0.601,0.238
		c-0.229,0-0.424-0.07-0.573-0.211C399.996,148.292,399.92,148.061,399.92,147.738z M401.088,145.745h-0.705l-0.342-7.108h1.389
		L401.088,145.745z"/>
</g>
<g>
	<g>
		<g>
			<path fill="#C4C4C4" d="M470.619,268.181c0,2.512-2.037,4.965-4.549,5.48l-128.327,26.918c-2.513,0.515-4.863-1.732-4.863-4.243
				l0.627-85.657c0-2.513,2.038-4.966,4.55-5.479l127.699-26.291c2.514-0.516,5.177,1.104,5.177,3.617L470.619,268.181z"/>
			<path fill="#A8A8A8" d="M338.004,210.877l-4.301-1.563c-0.126,0.446-0.197,0.904-0.197,1.365l-0.627,85.657
				c0,2.511,2.35,4.758,4.863,4.243l2.006-0.42l4.741-3.521L338.004,210.877z"/>
			<path fill="#474747" d="M471,268.808c0,2.512-1.6,4.967-4.112,5.48l-128.333,26.291c-2.513,0.516-4.556-1.105-4.556-3.617
				v-85.656c0-2.512,2.262-4.968,4.774-5.479l128.002-26.289c2.511-0.516,4.224,1.104,4.224,3.616L471,268.808L471,268.808z"/>
			<polygon fill="#E6E6E6" points="463,267.812 342,292.688 342,215.504 463,190.627 			"/>
			<path fill="#7AC943" d="M404.292,197.448c0,0.749-0.608,1.481-1.359,1.636c-0.75,0.153-1.354-0.33-1.354-1.08
				c0-0.751,0.604-1.482,1.354-1.636C403.684,196.212,404.292,196.697,404.292,197.448z"/>
			<g>
				<g>
					<polygon fill="#292621" points="445,266.583 362,283.812 362,217.608 445,200.38 					"/>
					<polygon fill="#FCFCFC" points="445,266.583 378,280.147 378,222.415 445,208.853 					"/>
				</g>
				<path fill="#FF9300" d="M375.918,229.886c0,3.346-2.711,6.611-6.055,7.297c-3.344,0.688-6.055-1.47-6.055-4.812
					c0-3.349,2.711-6.61,6.055-7.296C373.208,224.388,375.918,226.542,375.918,229.886z"/>
				<g>
					<g>
						<path fill="#EADBCA" d="M400.188,231.504c0,3.862-3.132,7.638-6.996,8.431c-3.862,0.791-6.998-1.701-6.998-5.562
							c0-3.865,3.136-7.64,6.998-8.433C397.055,225.149,400.188,227.64,400.188,231.504z"/>
						<path fill="#F4EAE1" d="M419.796,227.485c0,3.863-3.132,7.638-6.996,8.429c-3.862,0.793-6.996-1.697-6.996-5.562
							c0-3.865,3.134-7.641,6.996-8.434C416.665,221.132,419.796,223.622,419.796,227.485z"/>
						<path fill="#EADBCA" d="M439.406,223.469c0,3.863-3.131,7.638-6.996,8.429c-3.862,0.793-6.996-1.694-6.996-5.562
							c0-3.862,3.133-7.638,6.996-8.429C436.273,217.114,439.406,219.604,439.406,223.469z"/>
					</g>
					<g>
						<path fill="#EADBCA" d="M400.188,248.134c0,3.862-3.132,7.637-6.996,8.428c-3.862,0.791-6.998-1.695-6.998-5.562
							s3.136-7.64,6.998-8.429C397.055,241.778,400.188,244.269,400.188,248.134z"/>
						<path fill="#F4EAE1" d="M419.796,244.114c0,3.863-3.132,7.639-6.996,8.43c-3.862,0.792-6.996-1.697-6.996-5.562
							c0-3.859,3.134-7.638,6.996-8.43C416.665,237.761,419.796,240.251,419.796,244.114z"/>
						<path fill="#EADBCA" d="M439.406,240.097c0,3.864-3.131,7.639-6.996,8.43c-3.862,0.793-6.996-1.694-6.996-5.562
							c0-3.862,3.133-7.639,6.996-8.43C436.273,233.741,439.406,236.233,439.406,240.097z"/>
					</g>
					<g>
						<path fill="#EADBCA" d="M400.188,264.763c0,3.863-3.132,7.637-6.996,8.428c-3.862,0.791-6.998-1.693-6.998-5.562
							c0-3.864,3.136-7.639,6.998-8.43C397.055,258.408,400.188,260.896,400.188,264.763z"/>
						<path fill="#F4EAE1" d="M419.796,260.743c0,3.865-3.132,7.64-6.996,8.431c-3.862,0.79-6.996-1.7-6.996-5.562
							c0-3.864,3.134-7.639,6.996-8.43C416.665,254.39,419.796,256.88,419.796,260.743z"/>
						<path fill="#EADBCA" d="M439.406,256.726c0,3.865-3.131,7.644-6.996,8.435c-3.862,0.791-6.996-1.698-6.996-5.562
							c0-3.865,3.133-7.642,6.996-8.435S439.406,252.862,439.406,256.726z"/>
					</g>
				</g>
				<g>
					<polygon fill="#FF9300" points="367,221.222 363,221.931 363,218.79 367,218.084 					"/>
					<polygon fill="#FFFFFF" points="377,219.164 368,220.964 368,217.826 377,216.026 					"/>
				</g>
				<g>
					<path fill="#FFE7CC" d="M370.184,231.119c-1.74,0.155-3.102,3.153-3.082,5.959c0.83,0.256,1.771,0.308,2.766,0.104
						c1.311-0.271,2.521-0.938,3.513-1.854C373.145,232.579,371.671,230.987,370.184,231.119z"/>
					<path fill="#FFE7CC" d="M370.068,226.447c-1.254,0.118-2.25,1.155-2.226,2.312c0.025,1.158,1.064,2,2.319,1.883
						c1.254-0.121,2.25-1.154,2.222-2.312C372.359,227.169,371.322,226.324,370.068,226.447z"/>
				</g>
			</g>
		</g>
		<g>
			<path fill="#C4C4C4" d="M466.344,277.237l-130.572,25.125c-0.791,2.08,0.578,4.043,2.731,5.413l72.118,45.937
				c2.152,1.372,5.938,2.067,8.453,1.552l54.906-11.236c-0.51-0.554-0.231-1.083,0.765-1.287l14.135-2.896
				c0.997-0.206,2.403-0.017,3.452,0.425l52.802-10.809c2.515-0.516,4.045-1.952,4.356-4.352l-74.691-46.32
				C472.645,277.418,468.86,276.722,466.344,277.237z"/>
			<g>
				<path fill="#A8A8A8" d="M492.331,340.27l0.332-0.066l-0.332-2.756l-2.716-0.503l0.084,2.816
					C490.562,339.751,491.547,339.938,492.331,340.27z"/>
				<path fill="#A8A8A8" d="M338.503,307.775l72.118,45.937c0.838,0.535,1.927,0.965,3.09,1.262l0.204-2.771l-67.174-51.948
					l-10.97,2.109C334.98,304.442,336.35,306.405,338.503,307.775z"/>
			</g>
			<path fill="#E8E8E8" d="M466.344,274.414l-128.479,26.299c-2.516,0.517-2.809,2.046-0.655,3.416l73.41,46.761
				c2.153,1.371,5.938,2.064,8.453,1.553l54.907-11.24c-0.511-0.55-0.232-1.083,0.764-1.287l14.135-2.896
				c0.997-0.202,2.403-0.017,3.452,0.426l55.222-11.307c2.519-0.515,2.812-2.045,0.655-3.417l-73.41-46.758
				C472.645,274.594,468.86,273.899,466.344,274.414z"/>
			<polygon fill="#383838" points="438.001,282.933 372.35,296.37 369.122,294.315 434.775,280.877 			"/>
			<path fill="#AAAAAA" d="M501.747,302.821c1.073,0.683,0.927,1.443-0.326,1.699L392.572,326.8
				c-1.254,0.257-3.137-0.089-4.21-0.771l-30.283-19.29c-1.072-0.688-0.926-1.443,0.327-1.701l108.849-22.282
				c1.252-0.256,3.138,0.093,4.209,0.772L501.747,302.821z"/>
			<path fill="#AAAAAA" d="M492.032,329.245c1.114,0.707,0.962,1.5-0.34,1.767l-32.669,6.688c-1.305,0.267-3.263-0.093-4.372-0.802
				l-15.327-9.767c-1.114-0.712-0.961-1.5,0.339-1.768l32.668-6.688c1.302-0.266,3.259,0.096,4.372,0.807L492.032,329.245z"/>
		</g>
	</g>
	<g>
		<g>
			<path fill="#C4C4C4" d="M321.584,297.673c0,2.512-2.038,4.967-4.55,5.48l-128.327,26.92c-2.513,0.515-4.863-1.733-4.863-4.245
				l0.628-85.656c0-2.512,2.037-4.967,4.549-5.481l127.7-26.29c2.512-0.516,5.176,1.103,5.176,3.616L321.584,297.673z"/>
			<path fill="#A8A8A8" d="M188.969,240.37l-4.3-1.562c-0.127,0.444-0.197,0.902-0.197,1.364l-0.628,85.656
				c0,2.512,2.35,4.76,4.863,4.245l2.006-0.422l4.74-3.521L188.969,240.37z"/>
			<path fill="#474747" d="M322,298.299c0,2.515-1.618,4.97-4.129,5.482l-128.325,26.292c-2.512,0.515-4.546-1.105-4.546-3.617
				V240.8c0-2.514,2.243-4.967,4.756-5.482l128.01-26.291c2.517-0.516,4.233,1.104,4.233,3.619L322,298.299L322,298.299z"/>
			<polygon fill="#E6E6E6" points="314,297.306 192,322.181 192,244.997 314,220.12 			"/>
			<path fill="#7AC943" d="M255.257,226.94c0,0.748-0.608,1.479-1.358,1.637c-0.751,0.152-1.359-0.33-1.359-1.081
				s0.608-1.481,1.359-1.636C254.649,225.707,255.257,226.188,255.257,226.94z"/>
			<g>
				<polygon fill="#292621" points="296,296.078 213,313.304 213,247.101 296,229.875 				"/>
				<polygon fill="#FCFCFC" points="296,296.078 230,309.641 230,251.91 296,238.345 				"/>
				<path fill="#FF9300" d="M226.883,259.38c0,3.346-2.709,6.609-6.054,7.295c-3.344,0.686-6.055-1.47-6.055-4.814
					c0-3.342,2.711-6.606,6.055-7.295C224.173,253.88,226.883,256.036,226.883,259.38z"/>
				<g>
					<polygon fill="#FF9300" points="218,250.716 213,251.422 213,248.285 218,247.577 					"/>
					<polygon fill="#FFFFFF" points="228,248.657 220,250.458 220,247.319 228,245.521 					"/>
				</g>
				<g>
					<path fill="#FFE7CC" d="M221.148,260.61c-1.741,0.156-3.102,3.158-3.082,5.959c0.83,0.257,1.766,0.31,2.762,0.104
						c1.312-0.268,2.522-0.938,3.513-1.849C224.11,262.071,222.637,260.481,221.148,260.61z"/>
					<path fill="#FFE7CC" d="M221.034,255.94c-1.253,0.117-2.25,1.15-2.223,2.312c0.026,1.155,1.065,1.998,2.318,1.882
						c1.255-0.118,2.25-1.155,2.223-2.313C223.324,256.661,222.287,255.817,221.034,255.94z"/>
				</g>
				<polygon fill="#E6E6E6" points="291,249.231 235,260.832 235,255.375 291,243.772 				"/>
				<polygon fill="#F1C40F" points="279,258.463 235,267.577 235,263.29 279,254.175 				"/>
				<polygon fill="#2ECC71" points="271,266.11 235,273.539 235,270.045 271,262.614 				"/>
				<polygon fill="#CCCCCC" points="271,277.091 235,284.521 235,281.024 271,273.597 				"/>
				<polygon fill="#CCCCCC" points="259,284.622 235,289.854 235,286.358 259,281.127 				"/>
				<polygon fill="#CCCCCC" points="273,286.817 235,295.187 235,291.692 273,283.323 				"/>
				<polygon fill="#CCCCCC" points="271,293.093 235,300.521 235,297.026 271,289.599 				"/>
				<polygon fill="#CCCCCC" points="288,268.306 235,279.187 235,275.69 288,264.812 				"/>
			</g>
		</g>
		<g>
			<path fill="#C4C4C4" d="M317.311,306.732l-130.57,25.123c-0.791,2.077,0.577,4.044,2.729,5.411l72.118,45.938
				c2.153,1.372,5.938,2.066,8.453,1.551l54.908-11.238c-0.507-0.551-0.234-1.085,0.762-1.287l14.137-2.896
				c0.995-0.201,2.401-0.013,3.451,0.426l52.803-10.808c2.518-0.517,4.046-1.952,4.356-4.354l-74.692-46.316
				C323.609,306.91,319.824,306.217,317.311,306.732z"/>
			<g>
				<path fill="#A8A8A8" d="M343.296,369.761l0.332-0.063l-0.332-2.76l-2.716-0.504l0.084,2.822
					C341.528,369.245,342.513,369.434,343.296,369.761z"/>
				<path fill="#A8A8A8" d="M189.468,337.271l72.118,45.935c0.839,0.535,1.927,0.966,3.09,1.263l0.205-2.771l-67.174-51.949
					l-10.97,2.111C185.946,333.938,187.313,335.899,189.468,337.271z"/>
			</g>
			<path fill="#E8E8E8" d="M317.311,303.907l-128.479,26.299c-2.516,0.516-2.809,2.046-0.655,3.418l73.41,46.758
				c2.153,1.371,5.938,2.066,8.453,1.551l54.908-11.236c-0.507-0.554-0.234-1.083,0.762-1.286l14.137-2.896
				c0.995-0.205,2.401-0.017,3.451,0.424l55.224-11.304c2.516-0.516,2.811-2.043,0.653-3.416l-73.409-46.76
				C323.609,304.086,319.824,303.394,317.311,303.907z"/>
			<polygon fill="#383838" points="288.966,312.425 223.313,325.863 220.085,323.811 285.74,310.37 			"/>
			<path fill="#AAAAAA" d="M352.712,332.315c1.072,0.682,0.926,1.439-0.327,1.695l-108.849,22.282
				c-1.253,0.255-3.137-0.091-4.209-0.771l-30.283-19.29c-1.072-0.687-0.926-1.443,0.327-1.7l108.851-22.281
				c1.253-0.257,3.136,0.09,4.208,0.772L352.712,332.315z"/>
			<path fill="#AAAAAA" d="M342.997,358.738c1.114,0.709,0.961,1.5-0.34,1.767l-32.669,6.688c-1.301,0.267-3.258-0.097-4.373-0.807
				l-15.326-9.761c-1.114-0.711-0.962-1.502,0.339-1.769l32.669-6.688c1.301-0.268,3.26,0.093,4.372,0.801L342.997,358.738z"/>
		</g>
	</g>
	<g>
		<g>
			<path fill="#C4C4C4" d="M172.548,327.166c0,2.513-2.036,4.967-4.548,5.48L39.672,359.565c-2.513,0.516-4.863-1.732-4.863-4.245
				l0.628-85.656c0-2.511,2.037-4.967,4.549-5.481l127.699-26.289c2.513-0.516,5.178,1.104,5.178,3.616L172.548,327.166z"/>
			<path fill="#A8A8A8" d="M39.935,269.864l-4.3-1.565c-0.128,0.447-0.198,0.906-0.198,1.365l-0.628,85.656
				c0,2.513,2.35,4.761,4.863,4.245l2.007-0.421l4.739-3.521L39.935,269.864z"/>
			<path fill="#474747" d="M172,327.794c0,2.512-1.136,4.966-3.647,5.48L39.787,359.565c-2.512,0.516-4.787-1.104-4.787-3.617
				v-85.655c0-2.513,2.726-4.968,5.238-5.481l127.77-26.291c2.513-0.515,3.992,1.104,3.992,3.617V327.794z"/>
			<polygon fill="#E6E6E6" points="166,326.799 44,351.675 44,274.489 166,249.613 			"/>
			<path fill="#7AC943" d="M106.221,256.435c0,0.75-0.604,1.482-1.354,1.64c-0.75,0.149-1.357-0.331-1.357-1.08
				c0-0.75,0.608-1.481,1.357-1.64C105.614,255.199,106.221,255.685,106.221,256.435z"/>
			<g>
				<polygon fill="#292621" points="147,325.57 62,342.797 62,276.595 147,259.367 				"/>
				<polygon fill="#FCFCFC" points="147,325.57 81,339.134 81,281.401 147,267.84 				"/>
				<path fill="#FF9300" d="M77.849,288.872c0,3.345-2.711,6.611-6.055,7.297s-6.054-1.471-6.054-4.814
					c0-3.345,2.71-6.606,6.054-7.295C75.138,283.374,77.849,285.528,77.849,288.872z"/>
				<g>
					<polygon fill="#FF9300" points="67,280.208 63,280.915 63,277.776 67,277.071 					"/>
					<polygon fill="#FFFFFF" points="79,278.151 68,279.95 68,276.813 79,275.013 					"/>
				</g>
				<g>
					<path fill="#FFE7CC" d="M72.113,290.104c-1.741,0.153-3.104,3.152-3.082,5.959c0.829,0.256,1.766,0.31,2.762,0.104
						c1.312-0.271,2.522-0.938,3.512-1.852C75.076,291.563,73.602,289.974,72.113,290.104z"/>
					<path fill="#FFE7CC" d="M71.998,285.435c-1.253,0.119-2.248,1.154-2.222,2.314c0.026,1.158,1.066,2,2.32,1.881
						c1.255-0.121,2.25-1.156,2.222-2.314C74.289,286.153,73.252,285.312,71.998,285.435z"/>
				</g>
				<polygon points="147,325.67 86,338.192 86,285.829 147,273.308 				"/>
				<g>
					<path fill="#00F411" d="M90.861,290.472c0-0.673,0.454-1.236,1.09-1.367c0.635-0.131,1.072,0.252,1.072,0.924
						c0,0.654-0.417,1.229-1.09,1.369C91.297,291.526,90.861,291.125,90.861,290.472z"/>
					<path fill="#00F411" d="M94.62,289.7c0-0.672,0.455-1.239,1.09-1.369c0.635-0.131,1.071,0.253,1.071,0.925
						c0,0.654-0.417,1.229-1.089,1.367C95.056,290.753,94.62,290.354,94.62,289.7z"/>
					<path fill="#00F411" d="M98.38,288.927c0-0.67,0.453-1.236,1.088-1.365c0.636-0.131,1.072,0.25,1.072,0.922
						c0,0.654-0.418,1.229-1.089,1.369C98.815,289.981,98.38,289.581,98.38,288.927z"/>
					<path fill="#00F411" d="M102.138,288.155c0-0.672,0.453-1.238,1.089-1.368c0.635-0.131,1.072,0.252,1.072,0.925
						c0,0.654-0.418,1.229-1.09,1.368C102.573,289.211,102.138,288.81,102.138,288.155z"/>
					<path fill="#00F411" d="M105.896,287.383c0-0.672,0.454-1.237,1.089-1.368c0.636-0.131,1.072,0.254,1.072,0.926
						c0,0.652-0.417,1.229-1.089,1.367C106.332,288.438,105.896,288.037,105.896,287.383z"/>
					<path fill="#00F411" d="M109.656,286.612c0-0.672,0.454-1.238,1.089-1.369c0.635-0.13,1.071,0.253,1.071,0.925
						c0,0.654-0.417,1.229-1.089,1.368C110.091,287.665,109.656,287.267,109.656,286.612z"/>
					<path fill="#00F411" d="M113.414,285.839c0-0.672,0.455-1.236,1.089-1.367c0.636-0.13,1.072,0.252,1.072,0.924
						c0,0.654-0.418,1.229-1.089,1.369C113.85,286.896,113.414,286.493,113.414,285.839z"/>
					<path fill="#00F411" d="M117.173,285.067c0-0.672,0.454-1.238,1.089-1.369c0.636-0.131,1.071,0.254,1.071,0.926
						c0,0.652-0.417,1.229-1.088,1.366C117.609,286.121,117.173,285.722,117.173,285.067z"/>
					<path fill="#00F411" d="M120.932,284.294c0-0.67,0.454-1.236,1.09-1.367c0.636-0.13,1.072,0.252,1.072,0.924
						c0,0.654-0.418,1.229-1.09,1.368C121.367,285.351,120.932,284.949,120.932,284.294z"/>
					<path fill="#00F411" d="M124.691,283.522c0-0.67,0.454-1.236,1.09-1.366c0.635-0.132,1.071,0.251,1.071,0.923
						c0,0.652-0.418,1.23-1.089,1.369C125.126,284.578,124.691,284.177,124.691,283.522z"/>
					<path fill="#00F411" d="M128.45,282.751c0-0.672,0.454-1.238,1.089-1.368c0.635-0.131,1.071,0.253,1.071,0.925
						c0,0.652-0.417,1.229-1.089,1.367C128.885,283.806,128.45,283.405,128.45,282.751z"/>
					<path fill="#00F411" d="M132.209,281.979c0-0.672,0.454-1.238,1.088-1.369c0.637-0.131,1.072,0.252,1.072,0.924
						c0,0.654-0.417,1.229-1.089,1.367C132.644,283.033,132.209,282.632,132.209,281.979z"/>
					<path fill="#00F411" d="M135.967,281.207c0-0.672,0.454-1.237,1.089-1.368c0.635-0.131,1.072,0.251,1.072,0.924
						c0,0.654-0.419,1.23-1.089,1.369C136.403,282.263,135.967,281.86,135.967,281.207z"/>
					<path fill="#00F411" d="M139.726,280.435c0-0.672,0.454-1.233,1.09-1.367c0.635-0.129,1.072,0.252,1.072,0.928
						c0,0.648-0.418,1.229-1.09,1.363C140.162,281.489,139.726,281.089,139.726,280.435z"/>
				</g>
				<g>
					<path fill="#00F411" d="M90.861,297.374c0-0.672,0.454-1.238,1.09-1.368c0.635-0.131,1.072,0.253,1.072,0.925
						c0,0.654-0.417,1.229-1.09,1.367C91.297,298.431,90.861,298.028,90.861,297.374z"/>
					<path fill="#00F411" d="M96.29,296.259c0-0.672,0.455-1.236,1.09-1.367c0.636-0.131,1.072,0.252,1.072,0.924
						c0,0.654-0.418,1.229-1.09,1.369C96.727,297.313,96.29,296.913,96.29,296.259z"/>
					<path fill="#00F411" d="M101.72,295.144c0-0.672,0.454-1.232,1.09-1.367c0.635-0.131,1.072,0.257,1.072,0.928
						c0,0.648-0.419,1.229-1.09,1.365C102.156,296.198,101.72,295.798,101.72,295.144z"/>
					<path fill="#00F411" d="M107.15,294.028c0-0.672,0.454-1.238,1.089-1.367c0.635-0.131,1.072,0.252,1.072,0.924
						c0,0.652-0.418,1.229-1.09,1.366C107.585,295.082,107.15,294.681,107.15,294.028z"/>
					<path fill="#00F411" d="M112.579,292.913c0-0.672,0.455-1.236,1.09-1.367c0.636-0.13,1.071,0.252,1.071,0.924
						c0,0.654-0.417,1.229-1.089,1.366C113.015,293.967,112.579,293.567,112.579,292.913z"/>
					<path fill="#00F411" d="M118.009,291.799c0-0.672,0.454-1.237,1.09-1.368c0.635-0.131,1.072,0.252,1.072,0.924
						c0,0.654-0.417,1.229-1.09,1.369C118.444,292.853,118.009,292.453,118.009,291.799z"/>
					<path fill="#00F411" d="M123.439,290.685c0-0.673,0.454-1.235,1.088-1.369c0.637-0.131,1.072,0.252,1.072,0.925
						c0,0.651-0.417,1.229-1.089,1.368C123.875,291.739,123.439,291.338,123.439,290.685z"/>
					<path fill="#00F411" d="M128.869,289.567c0-0.672,0.454-1.238,1.089-1.368s1.071,0.252,1.071,0.925
						c0,0.654-0.418,1.229-1.09,1.368C129.304,290.623,128.869,290.222,128.869,289.567z"/>
					<path fill="#00F411" d="M134.297,288.451c0-0.67,0.455-1.235,1.09-1.366c0.635-0.131,1.071,0.251,1.071,0.924
						c0,0.653-0.417,1.229-1.09,1.368C134.733,289.507,134.297,289.106,134.297,288.451z"/>
					<path fill="#00F411" d="M139.728,287.338c0-0.672,0.454-1.237,1.088-1.368c0.636-0.131,1.071,0.254,1.071,0.926
						c0,0.651-0.417,1.229-1.09,1.365C140.163,288.392,139.728,287.99,139.728,287.338z"/>
				</g>
				<g>
					<path fill="#00F411" d="M90.861,304.713c0-0.672,0.454-1.237,1.09-1.368c0.635-0.131,1.072,0.25,1.072,0.924
						c0,0.653-0.417,1.229-1.09,1.367C91.297,305.767,90.861,305.366,90.861,304.713z"/>
					<path fill="#00F411" d="M94.62,303.938c0-0.672,0.455-1.235,1.09-1.365c0.635-0.131,1.071,0.251,1.071,0.923
						c0,0.653-0.417,1.229-1.089,1.369C95.056,304.995,94.62,304.594,94.62,303.938z"/>
					<path fill="#00F411" d="M98.38,303.168c0-0.672,0.453-1.237,1.088-1.368c0.636-0.131,1.072,0.251,1.072,0.924
						c0,0.655-0.418,1.23-1.089,1.368C98.815,304.222,98.38,303.822,98.38,303.168z"/>
					<path fill="#00F411" d="M102.138,302.396c0-0.672,0.453-1.233,1.089-1.367c0.635-0.131,1.072,0.255,1.072,0.927
						c0,0.651-0.418,1.229-1.09,1.364C102.573,303.45,102.138,303.049,102.138,302.396z"/>
					<path fill="#00F411" d="M105.896,301.624c0-0.672,0.454-1.236,1.089-1.367c0.636-0.131,1.072,0.25,1.072,0.924
						c0,0.652-0.417,1.229-1.089,1.368C106.332,302.678,105.896,302.278,105.896,301.624z"/>
					<path fill="#00F411" d="M109.656,300.853c0-0.672,0.454-1.234,1.089-1.369c0.635-0.131,1.071,0.257,1.071,0.929
						c0,0.651-0.417,1.229-1.089,1.364C110.091,301.906,109.656,301.506,109.656,300.853z"/>
					<path fill="#00F411" d="M113.414,300.078c0-0.672,0.455-1.236,1.089-1.366c0.636-0.133,1.072,0.253,1.072,0.925
						c0,0.652-0.418,1.229-1.089,1.366C113.85,301.134,113.414,300.731,113.414,300.078z"/>
					<path fill="#00F411" d="M117.173,299.308c0-0.672,0.454-1.232,1.089-1.367c0.636-0.129,1.071,0.252,1.071,0.927
						c0,0.651-0.417,1.229-1.088,1.362C117.609,300.36,117.173,299.962,117.173,299.308z"/>
					<path fill="#00F411" d="M120.932,298.534c0-0.671,0.454-1.236,1.09-1.367c0.636-0.13,1.072,0.253,1.072,0.924
						c0,0.654-0.418,1.231-1.09,1.368C121.367,299.59,120.932,299.188,120.932,298.534z"/>
					<path fill="#00F411" d="M124.691,297.763c0-0.671,0.454-1.236,1.09-1.367c0.635-0.131,1.071,0.252,1.071,0.924
						c0,0.654-0.418,1.229-1.089,1.369C125.126,298.817,124.691,298.417,124.691,297.763z"/>
					<path fill="#00F411" d="M128.45,296.991c0-0.672,0.454-1.237,1.089-1.367c0.635-0.131,1.071,0.251,1.071,0.923
						c0,0.654-0.417,1.229-1.089,1.369C128.885,298.046,128.45,297.646,128.45,296.991z"/>
					<path fill="#00F411" d="M132.209,296.22c0-0.672,0.454-1.238,1.088-1.367c0.637-0.131,1.072,0.252,1.072,0.924
						c0,0.651-0.417,1.229-1.089,1.367C132.644,297.272,132.209,296.874,132.209,296.22z"/>
					<path fill="#00F411" d="M135.967,295.446c0-0.67,0.454-1.236,1.089-1.367c0.635-0.13,1.072,0.252,1.072,0.924
						c0,0.654-0.419,1.23-1.089,1.368C136.403,296.502,135.967,296.101,135.967,295.446z"/>
					<path fill="#00F411" d="M139.726,294.675c0-0.672,0.454-1.236,1.09-1.369c0.635-0.13,1.072,0.254,1.072,0.926
						c0,0.653-0.418,1.229-1.09,1.367C140.162,295.729,139.726,295.329,139.726,294.675z"/>
				</g>
				<g>
					<path fill="#00F411" d="M90.861,311.614c0-0.672,0.454-1.237,1.09-1.368c0.635-0.131,1.072,0.253,1.072,0.925
						c0,0.653-0.417,1.229-1.09,1.368C91.297,312.67,90.861,312.27,90.861,311.614z"/>
					<path fill="#00F411" d="M96.29,310.501c0-0.672,0.455-1.239,1.09-1.37c0.636-0.13,1.072,0.252,1.072,0.924
						c0,0.654-0.418,1.229-1.09,1.368C96.727,311.554,96.29,311.152,96.29,310.501z"/>
					<path fill="#00F411" d="M101.72,309.384c0-0.672,0.454-1.237,1.09-1.368c0.635-0.131,1.072,0.251,1.072,0.928
						c0,0.65-0.419,1.229-1.09,1.364C102.156,310.438,101.72,310.037,101.72,309.384z"/>
					<path fill="#00F411" d="M107.15,308.27c0-0.673,0.454-1.234,1.089-1.365c0.635-0.135,1.072,0.253,1.072,0.925
						c0,0.651-0.418,1.229-1.09,1.367C107.585,309.322,107.15,308.923,107.15,308.27z"/>
					<path fill="#00F411" d="M112.579,307.153c0-0.671,0.455-1.236,1.09-1.367c0.636-0.13,1.071,0.252,1.071,0.924
						c0,0.653-0.417,1.229-1.089,1.368C113.015,308.209,112.579,307.808,112.579,307.153z"/>
					<path fill="#00F411" d="M118.009,306.038c0-0.672,0.454-1.237,1.09-1.368c0.635-0.13,1.072,0.253,1.072,0.924
						c0,0.654-0.417,1.231-1.09,1.368C118.444,307.093,118.009,306.691,118.009,306.038z"/>
					<path fill="#00F411" d="M123.439,304.923c0-0.672,0.454-1.236,1.088-1.367c0.637-0.132,1.072,0.252,1.072,0.924
						c0,0.654-0.417,1.229-1.089,1.367C123.875,305.978,123.439,305.577,123.439,304.923z"/>
					<path fill="#00F411" d="M128.869,303.808c0-0.672,0.454-1.232,1.089-1.367c0.635-0.129,1.071,0.252,1.071,0.928
						c0,0.65-0.418,1.229-1.09,1.365C129.304,304.863,128.869,304.462,128.869,303.808z"/>
					<path fill="#00F411" d="M134.297,302.692c0-0.672,0.455-1.236,1.09-1.367c0.635-0.131,1.071,0.252,1.071,0.924
						c0,0.652-0.417,1.229-1.09,1.368C134.733,303.747,134.297,303.347,134.297,302.692z"/>
					<path fill="#00F411" d="M139.728,301.577c0-0.672,0.454-1.237,1.088-1.368c0.636-0.131,1.071,0.253,1.071,0.925
						c0,0.654-0.417,1.23-1.09,1.367C140.163,302.631,139.728,302.231,139.728,301.577z"/>
				</g>
				<g>
					<path fill="#00F411" d="M90.861,318.953c0-0.673,0.454-1.238,1.09-1.369c0.635-0.13,1.072,0.252,1.072,0.924
						c0,0.654-0.417,1.231-1.09,1.368C91.297,320.007,90.861,319.605,90.861,318.953z"/>
					<path fill="#00F411" d="M94.62,318.18c0-0.673,0.455-1.232,1.09-1.369c0.635-0.129,1.071,0.257,1.071,0.929
						c0,0.65-0.417,1.229-1.089,1.368C95.056,319.234,94.62,318.833,94.62,318.18z"/>
					<path fill="#00F411" d="M98.38,317.408c0-0.672,0.453-1.237,1.088-1.368c0.636-0.131,1.072,0.252,1.072,0.924
						c0,0.652-0.418,1.23-1.089,1.367C98.815,318.462,98.38,318.062,98.38,317.408z"/>
					<path fill="#00F411" d="M102.138,316.637c0-0.672,0.453-1.234,1.089-1.368c0.635-0.131,1.072,0.253,1.072,0.927
						c0,0.649-0.418,1.229-1.09,1.364C102.573,317.69,102.138,317.289,102.138,316.637z"/>
					<path fill="#00F411" d="M105.896,315.863c0-0.672,0.454-1.236,1.089-1.367c0.636-0.13,1.072,0.252,1.072,0.924
						c0,0.654-0.417,1.229-1.089,1.366C106.332,316.919,105.896,316.518,105.896,315.863z"/>
					<path fill="#00F411" d="M109.656,315.091c0-0.672,0.454-1.237,1.089-1.368c0.635-0.13,1.071,0.253,1.071,0.93
						c0,0.649-0.417,1.228-1.089,1.362C110.091,316.146,109.656,315.745,109.656,315.091z"/>
					<path fill="#00F411" d="M113.414,314.32c0-0.672,0.455-1.237,1.089-1.368c0.636-0.131,1.072,0.25,1.072,0.924
						c0,0.652-0.418,1.229-1.089,1.368C113.85,315.374,113.414,314.974,113.414,314.32z"/>
					<path fill="#00F411" d="M117.173,313.547c0-0.672,0.454-1.236,1.089-1.366c0.636-0.131,1.071,0.251,1.071,0.923
						c0,0.654-0.417,1.229-1.088,1.367C117.609,314.601,117.173,314.201,117.173,313.547z"/>
					<path fill="#00F411" d="M120.932,312.775c0-0.672,0.454-1.238,1.09-1.368c0.636-0.131,1.072,0.253,1.072,0.925
						c0,0.654-0.418,1.229-1.09,1.368C121.367,313.831,120.932,313.43,120.932,312.775z"/>
					<path fill="#00F411" d="M124.691,312.005c0-0.673,0.454-1.238,1.09-1.369c0.635-0.13,1.071,0.252,1.071,0.925
						c0,0.652-0.418,1.229-1.089,1.366C125.126,313.058,124.691,312.657,124.691,312.005z"/>
					<path fill="#00F411" d="M128.45,311.23c0-0.676,0.454-1.235,1.089-1.366s1.071,0.251,1.071,0.923
						c0,0.653-0.417,1.229-1.089,1.369C128.885,312.286,128.45,311.885,128.45,311.23z"/>
					<path fill="#00F411" d="M132.209,310.459c0-0.672,0.454-1.237,1.088-1.368c0.637-0.131,1.072,0.253,1.072,0.925
						c0,0.654-0.417,1.229-1.089,1.367C132.644,311.513,132.209,311.113,132.209,310.459z"/>
					<path fill="#00F411" d="M135.967,309.688c0-0.672,0.454-1.235,1.089-1.365c0.635-0.135,1.072,0.253,1.072,0.923
						c0,0.651-0.419,1.229-1.089,1.368C136.403,310.741,135.967,310.34,135.967,309.688z"/>
					<path fill="#00F411" d="M139.726,308.915c0-0.672,0.454-1.236,1.09-1.367c0.635-0.13,1.072,0.252,1.072,0.924
						c0,0.653-0.418,1.229-1.09,1.368C140.162,309.971,139.726,309.569,139.726,308.915z"/>
				</g>
				<g>
					<path fill="#00F411" d="M90.861,332.178c0-0.672,0.454-1.233,1.09-1.368c0.635-0.131,1.072,0.253,1.072,0.929
						c0,0.648-0.417,1.229-1.09,1.363C91.297,333.232,90.861,332.832,90.861,332.178z"/>
					<path fill="#00F411" d="M94.62,331.406c0-0.672,0.455-1.238,1.09-1.368c0.635-0.131,1.071,0.251,1.071,0.923
						c0,0.654-0.417,1.23-1.089,1.368C95.056,332.46,94.62,332.059,94.62,331.406z"/>
					<path fill="#00F411" d="M98.38,330.634c0-0.671,0.453-1.232,1.088-1.367c0.636-0.131,1.072,0.253,1.072,0.927
						c0,0.65-0.418,1.229-1.089,1.364C98.815,331.688,98.38,331.288,98.38,330.634z"/>
					<path fill="#00F411" d="M102.138,329.862c0-0.673,0.453-1.238,1.089-1.369c0.635-0.13,1.072,0.253,1.072,0.926
						c0,0.654-0.418,1.229-1.09,1.366C102.573,330.916,102.138,330.516,102.138,329.862z"/>
					<path fill="#00F411" d="M105.896,329.089c0-0.671,0.454-1.235,1.089-1.367c0.636-0.131,1.072,0.253,1.072,0.925
						c0,0.654-0.417,1.229-1.089,1.367C106.332,330.145,105.896,329.743,105.896,329.089z"/>
					<path fill="#00F411" d="M109.656,328.317c0-0.671,0.454-1.237,1.089-1.367c0.635-0.131,1.071,0.251,1.071,0.923
						c0,0.654-0.417,1.229-1.089,1.369C110.091,329.372,109.656,328.971,109.656,328.317z"/>
					<path fill="#00F411" d="M113.414,327.546c0-0.672,0.455-1.238,1.089-1.367c0.636-0.13,1.072,0.252,1.072,0.925
						c0,0.65-0.418,1.229-1.089,1.366C113.85,328.599,113.414,328.2,113.414,327.546z"/>
					<path fill="#00F411" d="M117.173,326.774c0-0.677,0.454-1.238,1.089-1.369c0.636-0.13,1.071,0.252,1.071,0.924
						c0,0.655-0.417,1.229-1.088,1.368C117.609,327.828,117.173,327.429,117.173,326.774z"/>
					<path fill="#00F411" d="M120.932,326.002c0-0.673,0.454-1.237,1.09-1.368s1.072,0.251,1.072,0.924
						c0,0.653-0.418,1.229-1.09,1.368C121.367,327.057,120.932,326.655,120.932,326.002z"/>
					<path fill="#00F411" d="M124.691,325.229c0-0.672,0.454-1.233,1.09-1.363c0.635-0.132,1.071,0.251,1.071,0.923
						c0,0.654-0.418,1.229-1.089,1.367C125.126,326.283,124.691,325.883,124.691,325.229z"/>
					<path fill="#00F411" d="M128.45,324.458c0-0.672,0.454-1.238,1.089-1.368c0.635-0.131,1.071,0.251,1.071,0.923
						c0,0.653-0.417,1.231-1.089,1.368C128.885,325.512,128.45,325.112,128.45,324.458z"/>
					<path fill="#00F411" d="M132.209,323.685c0-0.671,0.454-1.232,1.088-1.363c0.637-0.134,1.072,0.252,1.072,0.924
						c0,0.653-0.417,1.229-1.089,1.368C132.644,324.74,132.209,324.339,132.209,323.685z"/>
					<path fill="#00F411" d="M135.967,322.913c0-0.672,0.454-1.236,1.089-1.367c0.635-0.131,1.072,0.251,1.072,0.924
						c0,0.654-0.419,1.229-1.089,1.366C136.403,323.967,135.967,323.567,135.967,322.913z"/>
					<path fill="#00F411" d="M139.726,322.142c0-0.672,0.454-1.233,1.09-1.364c0.635-0.135,1.072,0.253,1.072,0.923
						c0,0.65-0.418,1.229-1.09,1.369C140.162,323.194,139.726,322.796,139.726,322.142z"/>
				</g>
				<g>
					<path fill="#00F411" d="M90.861,325.854c0-0.67,0.454-1.233,1.09-1.364c0.635-0.132,1.072,0.253,1.072,0.925
						c0,0.653-0.417,1.229-1.09,1.369C91.297,326.909,90.861,326.508,90.861,325.854z"/>
					<path fill="#00F411" d="M96.29,324.738c0-0.67,0.455-1.236,1.09-1.366c0.636-0.131,1.072,0.253,1.072,0.923
						c0,0.653-0.418,1.231-1.09,1.368C96.727,325.794,96.29,325.393,96.29,324.738z"/>
					<path fill="#00F411" d="M101.72,323.625c0-0.673,0.454-1.237,1.09-1.369c0.635-0.13,1.072,0.253,1.072,0.925
						c0,0.653-0.419,1.23-1.09,1.367C102.156,324.679,101.72,324.278,101.72,323.625z"/>
					<path fill="#00F411" d="M107.15,322.509c0-0.672,0.454-1.232,1.089-1.367c0.635-0.131,1.072,0.251,1.072,0.927
						c0,0.65-0.418,1.229-1.09,1.363C107.585,323.562,107.15,323.162,107.15,322.509z"/>
					<path fill="#00F411" d="M112.579,321.393c0-0.672,0.455-1.232,1.09-1.362c0.636-0.134,1.071,0.251,1.071,0.923
						c0,0.65-0.417,1.229-1.089,1.368C113.015,322.448,112.579,322.047,112.579,321.393z"/>
					<path fill="#00F411" d="M118.009,320.279c0-0.674,0.454-1.238,1.09-1.369c0.635-0.13,1.072,0.253,1.072,0.926
						c0,0.653-0.417,1.229-1.09,1.366C118.444,321.333,118.009,320.933,118.009,320.279z"/>
					<path fill="#00F411" d="M123.439,319.163c0-0.672,0.454-1.236,1.088-1.367c0.637-0.131,1.072,0.251,1.072,0.923
						c0,0.654-0.417,1.231-1.089,1.37C123.875,320.218,123.439,319.817,123.439,319.163z"/>
					<path fill="#00F411" d="M128.869,318.047c0-0.671,0.454-1.236,1.089-1.366c0.635-0.131,1.071,0.251,1.071,0.923
						c0,0.654-0.418,1.229-1.09,1.368C129.304,319.104,128.869,318.701,128.869,318.047z"/>
					<path fill="#00F411" d="M134.297,316.934c0-0.673,0.455-1.234,1.09-1.365c0.635-0.134,1.071,0.253,1.071,0.926
						c0,0.648-0.417,1.229-1.09,1.366C134.733,317.987,134.297,317.586,134.297,316.934z"/>
					<path fill="#00F411" d="M139.728,315.817c0-0.676,0.454-1.235,1.088-1.368c0.636-0.131,1.071,0.253,1.071,0.925
						c0,0.654-0.417,1.229-1.09,1.367C140.163,316.872,139.728,316.472,139.728,315.817z"/>
				</g>
			</g>
		</g>
		<g>
			<path fill="#C4C4C4" d="M168.275,336.225L37.703,361.348c-0.793,2.081,0.576,4.044,2.729,5.415L112.55,412.7
				c2.152,1.373,5.938,2.063,8.453,1.552l54.908-11.238c-0.507-0.551-0.234-1.084,0.763-1.287l14.135-2.895
				c0.997-0.203,2.403-0.015,3.453,0.425l52.801-10.808c2.516-0.518,4.046-1.953,4.357-4.354l-74.692-46.316
				C174.575,336.404,170.79,335.709,168.275,336.225z"/>
			<g>
				<path fill="#A8A8A8" d="M194.262,399.254l0.331-0.068l-0.331-2.755l-2.716-0.505l0.084,2.822
					C192.494,398.737,193.477,398.926,194.262,399.254z"/>
				<path fill="#A8A8A8" d="M40.433,366.763l72.118,45.938c0.839,0.535,1.927,0.966,3.09,1.264l0.204-2.771L48.67,359.238
					l-10.967,2.105C36.91,363.429,38.279,365.392,40.433,366.763z"/>
			</g>
			<path fill="#E8E8E8" d="M168.275,333.401L39.796,359.699c-2.516,0.516-2.811,2.045-0.656,3.417l73.41,46.758
				c2.152,1.371,5.938,2.067,8.453,1.552l54.908-11.238c-0.507-0.55-0.234-1.082,0.763-1.285l14.135-2.896
				c0.997-0.205,2.403-0.016,3.453,0.424l55.221-11.303c2.515-0.516,2.809-2.045,0.656-3.417l-73.411-46.76
				C174.575,333.58,170.79,332.886,168.275,333.401z"/>
			<polygon fill="#383838" points="139.931,341.919 74.279,355.357 71.051,353.304 136.705,339.864 			"/>
			<path fill="#AAAAAA" d="M203.677,361.808c1.072,0.688,0.926,1.443-0.327,1.701L94.502,385.79
				c-1.253,0.257-3.137-0.091-4.209-0.773L60.01,365.729c-1.073-0.685-0.926-1.441,0.327-1.698l108.849-22.281
				c1.252-0.258,3.136,0.089,4.208,0.771L203.677,361.808z"/>
			<path fill="#AAAAAA" d="M193.961,388.23c1.115,0.709,0.963,1.501-0.338,1.767l-32.669,6.688c-1.301,0.271-3.26-0.095-4.373-0.802
				l-15.327-9.763c-1.115-0.712-0.962-1.503,0.338-1.771l32.669-6.688c1.302-0.267,3.259,0.093,4.374,0.803L193.961,388.23z"/>
		</g>
	</g>
</g>
<g>
	<g>
		<path fill="#C9C9C9" d="M241.646,106.23l1.048-3.192l-61.538-40.104L67.168,62.173c0,0,0.091,2.425-0.38,2.66
			c-2.278,1.139,51.965,51.112,51.965,51.112L241.646,106.23z"/>
	</g>
	<g>
		<path fill="#E8E8E8" d="M118.753,110.624c0,0-53.864-47.311-51.585-48.451c2.281-1.14,113.989-10.036,113.989-10.036
			l62.009,50.293"/>
	</g>
	<g>
		<path fill="#CCCCCC" d="M154.293,73.897l-16.222-11.725c0,0-29.229,0.894-29.822,1.193c-0.597,0.298,13.495,12.677,13.495,12.677
			L154.293,73.897z"/>
	</g>
	<g>
		<path fill="#AAAAAA" d="M176.019,99.733L148.798,80.06c0,0-49.036,1.5-50.036,2.001s22.646,21.269,22.646,21.269L176.019,99.733z"
			/>
	</g>
	<g>
		<polygon fill="#C9C9C9" points="135.669,12.583 118.753,110.624 243.167,102.43 260.083,4.389 		"/>
	</g>
	<polyline opacity="0.5" fill="#FFFFFF" enable-background="new    " points="258.502,5.968 255.945,18.875 131.582,46.744 
		137.662,13.981 	"/>
</g>
<g>
	<g>
		<circle fill="#292621" cx="225.825" cy="171.221" r="30.952"/>
	</g>
	<g>
		<circle fill="#ECF0F1" cx="225.825" cy="171.22" r="26.494"/>
	</g>
	<g opacity="0.3">
		<path fill="#FFFFFF" d="M248.009,149.645l-47.646,39.161c0.229,0.333,0.46,0.665,0.705,0.99
			c10.26,13.674,29.661,16.44,43.333,6.183c13.673-10.261,16.441-29.662,6.182-43.334
			C249.78,151.574,248.916,150.579,248.009,149.645z"/>
	</g>
	<g>
		<g>
			<g>
				<path fill-rule="evenodd" clip-rule="evenodd" fill="#3D3D3D" d="M212.947,164.723v2.595h25.184v-2.595H212.947z
					 M230.619,169.789h-17.672v2.596h17.672V169.789z M212.947,177.371h25.184v-2.593h-25.184V177.371z M212.947,182.36h25.184
					v-2.518h-25.184V182.36z M212.947,187.425h15.14v-2.515h-15.14V187.425z"/>
			</g>
		</g>
		<path fill="#E67E22" d="M213.131,155.94h25v6h-25V155.94z"/>
	</g>
</g>
<g enable-background="new    ">
	<path fill="#FFFFFF" d="M99.246,179.226c0,1.62-0.44,2.858-1.319,3.716c-0.879,0.856-2.145,1.285-3.796,1.285h-2.719v-9.813h3.007
		c1.526,0,2.712,0.423,3.558,1.269C98.823,176.527,99.246,177.709,99.246,179.226z M98.038,179.266c0-1.279-0.321-2.244-0.963-2.893
		c-0.642-0.649-1.596-0.974-2.863-0.974h-1.658v7.841h1.39c1.36,0,2.383-0.335,3.068-1.004
		C97.697,181.567,98.038,180.577,98.038,179.266z"/>
	<path fill="#FFFFFF" d="M107.617,180.541c0,1.199-0.302,2.136-0.906,2.81c-0.604,0.674-1.439,1.01-2.504,1.01
		c-0.658,0-1.242-0.154-1.752-0.463c-0.51-0.309-0.904-0.752-1.182-1.329c-0.278-0.577-0.416-1.253-0.416-2.027
		c0-1.199,0.3-2.133,0.899-2.803c0.6-0.669,1.432-1.003,2.497-1.003c1.029,0,1.847,0.342,2.454,1.027
		C107.314,178.448,107.617,179.373,107.617,180.541z M102.012,180.541c0,0.94,0.188,1.656,0.563,2.148
		c0.375,0.492,0.929,0.738,1.658,0.738s1.283-0.245,1.662-0.735c0.378-0.489,0.567-1.207,0.567-2.151
		c0-0.935-0.189-1.646-0.567-2.131c-0.378-0.485-0.937-0.729-1.675-0.729c-0.729,0-1.28,0.239-1.651,0.719
		C102.198,178.879,102.012,179.593,102.012,180.541z"/>
	<path fill="#FFFFFF" d="M114.605,184.227v-4.76c0-0.6-0.136-1.047-0.409-1.342c-0.273-0.296-0.701-0.443-1.282-0.443
		c-0.77,0-1.333,0.208-1.692,0.624c-0.358,0.416-0.537,1.104-0.537,2.062v3.859h-1.114v-7.357h0.906l0.181,1.007h0.054
		c0.228-0.362,0.548-0.643,0.96-0.842c0.412-0.199,0.87-0.299,1.376-0.299c0.886,0,1.553,0.214,2,0.641
		c0.447,0.428,0.671,1.111,0.671,2.051v4.8L114.605,184.227L114.605,184.227z"/>
	<path fill="#FFFFFF" d="M121.116,184.36c-1.087,0-1.946-0.331-2.574-0.993c-0.629-0.662-0.943-1.582-0.943-2.759
		c0-1.186,0.292-2.128,0.876-2.826c0.584-0.698,1.368-1.047,2.353-1.047c0.922,0,1.651,0.303,2.188,0.909
		c0.537,0.606,0.806,1.406,0.806,2.4v0.704h-5.068c0.022,0.864,0.24,1.52,0.654,1.967c0.414,0.448,0.997,0.672,1.749,0.672
		c0.792,0,1.575-0.166,2.35-0.497v0.993c-0.394,0.171-0.767,0.292-1.118,0.366C122.037,184.324,121.613,184.36,121.116,184.36z
		 M120.814,177.668c-0.591,0-1.062,0.192-1.413,0.577c-0.351,0.386-0.558,0.918-0.621,1.598h3.846c0-0.702-0.157-1.24-0.47-1.614
		C121.843,177.855,121.396,177.668,120.814,177.668z"/>
	<path fill="#FFFFFF" d="M125.56,183.515c0-0.3,0.068-0.526,0.205-0.681c0.136-0.154,0.332-0.231,0.587-0.231
		c0.259,0,0.462,0.077,0.607,0.231c0.145,0.154,0.218,0.381,0.218,0.681c0,0.291-0.074,0.515-0.222,0.672
		c-0.147,0.156-0.349,0.234-0.604,0.234c-0.229,0-0.417-0.07-0.567-0.211C125.635,184.068,125.56,183.837,125.56,183.515z"/>
</g>
<path fill="#FFFFFF" d="M67.79,167.898c-6.771,0-12.261,5.489-12.261,12.26c0,6.771,5.489,12.259,12.261,12.259
	s12.26-5.488,12.26-12.259C80.05,173.387,74.562,167.898,67.79,167.898z M67.785,171.398c1.899,0,3.441,1.541,3.441,3.441
	c0,1.898-1.542,3.439-3.441,3.439c-1.901,0-3.441-1.541-3.441-3.439C64.344,172.939,65.884,171.398,67.785,171.398z M60.896,187.581
	c0-4.375,3.309-7.923,6.855-7.923c3.547,0,6.857,3.546,6.857,7.923H60.896z"/>
<path fill="#FFFFFF" d="M291.289,11.398c-6.771,0-12.26,5.489-12.26,12.26c0,6.771,5.488,12.259,12.26,12.259
	s12.26-5.488,12.26-12.259C303.549,16.887,298.062,11.398,291.289,11.398z M291.285,14.898c1.898,0,3.441,1.541,3.441,3.441
	c0,1.898-1.543,3.439-3.441,3.439c-1.901,0-3.441-1.541-3.441-3.439C287.844,16.439,289.384,14.898,291.285,14.898z M284.396,31.081
	c0-4.375,3.31-7.923,6.854-7.923c3.547,0,6.855,3.546,6.855,7.923H284.396z"/>
</svg>
