<svg width="70" height="71" viewBox="0 0 70 71" xmlns="http://www.w3.org/2000/svg">
  <g fill="#07AEC2" fill-rule="evenodd">
    <path d="M59.715 34.188c-.944-.336-1.92-.604-2.922-.796.137-1.1.207-2.222.207-3.36 0-14.91-12.088-27-27-27s-27 12.09-27 27c0 14.912 12.088 27 27 27 1.138 0 2.26-.07 3.36-.206.192 1.002.46 1.978.795 2.92-1.358.19-2.745.287-4.155.287-16.57 0-30-13.432-30-30 0-16.57 13.43-30 30-30s30 13.43 30 30c0 1.41-.097 2.797-.285 4.155zm-6.73-5.155L53 32.02l-2.985.013L50 29.046l2.984-.013zm-43 0L10 32.02l-2.985.013L7 29.046l2.984-.013zm22 21L32 53.02l-2.985.013L29 50.046l2.984-.013zm0-43L32 10.02l-2.985.013L29 7.046l2.984-.013zm-8.135 15.97l6.56 5.498 14.527-14.796c.58-.59 1.53-.6 2.12-.02.592.58.6 1.53.02 2.122L30.608 32.58l-8.684-7.278c-.635-.532-.718-1.478-.186-2.113.532-.636 1.478-.72 2.113-.187zM13.166 19.16l-1.48 2.593-2.59-1.48 1.48-2.595 2.59 1.48zm8.553 29.185l-1.48 2.595-2.593-1.48 1.48-2.595 2.592 1.48zm21.5-37.24l-1.48 2.596-2.593-1.48 1.48-2.594 2.592 1.48zM20.857 12.2l-2.578 1.506-1.504-2.58 2.58-1.505 1.502 2.58zm-7.186 29.55l-2.58 1.508L9.59 40.68l2.578-1.507 1.504 2.578zm37.24-21.5l-2.58 1.508-1.504-2.578 2.58-1.507 1.503 2.578z"/>
    <path d="M55 56.033h4l-5.5 6-5.5-6h4v-10.5h3v10.5zm-2 14c-9.39 0-17-7.61-17-17s7.61-17 17-17 17 7.61 17 17-7.61 17-17 17zm0-3c7.732 0 14-6.268 14-14s-6.268-14-14-14-14 6.268-14 14 6.268 14 14 14z" fill-opacity=".5"/>
  </g>
</svg>
