<?xml version="1.0" encoding="UTF-8" standalone="no"?>
<svg width="70px" height="71px" viewBox="0 0 70 71" version="1.1" xmlns="http://www.w3.org/2000/svg" xmlns:xlink="http://www.w3.org/1999/xlink">
    <g id="Page-1" stroke="none" stroke-width="1" fill="none" fill-rule="evenodd">
        <g id="03-Pricing" transform="translate(-268.000000, -3884.000000)" fill="#07AEC2">
            <g id="pricing-icon-reduce-time" transform="translate(268.000000, 3884.032715)">
                <path d="M59.714588,34.1550449 C58.7713873,33.8189505 57.7955353,33.5516582 56.7930729,33.3592092 C56.9296533,32.2586452 57,31.1375378 57,30 C57,15.0883118 44.9116882,3 30,3 C15.0883118,3 3,15.0883118 3,30 C3,44.9116882 15.0883118,57 30,57 C31.1375378,57 32.2586452,56.9296533 33.3592092,56.7930729 C33.5516582,57.7955353 33.8189505,58.7713873 34.1550449,59.714588 C32.7969726,59.9027485 31.4098434,60 30,60 C13.4314575,60 0,46.5685425 0,30 C0,13.4314575 13.4314575,0 30,0 C46.5685425,0 60,13.4314575 60,30 C60,31.4098434 59.9027485,32.7969726 59.714588,34.1550449 Z M52.984456,29 L53,31.9866149 L50.0153886,32 L50,29.0132412 L52.984456,29 Z M9.98445596,29 L10,31.9866149 L7.0153886,32 L7,29.0132412 L9.98445596,29 Z M31.984456,50 L32,52.9866149 L29.0153886,53 L29,50.0132412 L31.984456,50 Z M31.984456,7 L32,9.98661485 L29.0153886,10 L29,7.01324122 L31.984456,7 Z M23.8499207,22.9701898 L30.4102528,28.4678136 L44.9369675,13.6717821 C45.5173492,13.0806404 46.4670567,13.0719178 47.0581984,13.6522995 C47.6493401,14.2326813 47.6580627,15.1823887 47.077681,15.7735304 L30.608485,32.5480556 L21.9230285,25.2695563 C21.288076,24.7374598 21.2046947,23.7913795 21.7367913,23.156427 C22.2688879,22.5214744 23.2149681,22.4380932 23.8499207,22.9701898 Z M13.1660304,19.1262026 L11.6861845,21.7204589 L9.09474263,20.2397451 L10.5747951,17.6454418 L13.1660304,19.1262026 Z M21.7185893,48.3127361 L20.2387434,50.9069924 L17.6473015,49.4262786 L19.127354,46.8319753 L21.7185893,48.3127361 Z M43.2185893,11.0736437 L41.7387434,13.6679 L39.1473015,12.1871862 L40.627354,9.59288295 L43.2185893,11.0736437 Z M20.8582534,12.1660304 L18.2795411,13.6727994 L16.7756435,11.0947426 L19.3545582,9.58803632 L20.8582534,12.1660304 Z M13.6717199,41.7185893 L11.0930076,43.2253582 L9.58911001,40.6473015 L12.1680247,39.1405952 L13.6717199,41.7185893 Z M50.9108123,20.2185893 L48.3321,21.7253582 L46.8282024,19.1473015 L49.4071171,17.6405952 L50.9108123,20.2185893 Z" id="Combined-Shape"></path>
                <path d="M55,56 L59,56 L53.5,62 L48,56 L52,56 L52,45.5 L55,45.5 L55,56 Z M53,70 C43.6111593,70 36,62.3888407 36,53 C36,43.6111593 43.6111593,36 53,36 C62.3888407,36 70,43.6111593 70,53 C70,62.3888407 62.3888407,70 53,70 Z M53,67 C60.7319865,67 67,60.7319865 67,53 C67,45.2680135 60.7319865,39 53,39 C45.2680135,39 39,45.2680135 39,53 C39,60.7319865 45.2680135,67 53,67 Z" id="Combined-Shape" fill-opacity="0.5"></path>
            </g>
        </g>
    </g>
</svg>