<?xml version="1.0" encoding="UTF-8" standalone="no"?>
<svg width="56px" height="74px" viewBox="0 0 56 74" version="1.1" xmlns="http://www.w3.org/2000/svg" xmlns:xlink="http://www.w3.org/1999/xlink">
    <g id="Page-1" stroke="none" stroke-width="1" fill="none" fill-rule="evenodd">
        <g id="03-Pricing" transform="translate(-675.000000, -3869.000000)">
            <g id="pricing-icon-reduce-onboarding" transform="translate(675.000000, 3869.032715)">
                <path d="M24.3088358,69.5710571 C23.3610086,70.9863831 21.7562404,71.9141132 19.9242968,71.9141132 L15.0088025,71.9141132 L15.0088025,68.9141132 L18.0066662,68.9141132 L18.0066662,71.9141132 L13.0580713,71.9141132 C10.1939798,71.9141132 7.96375135,69.6784009 7.76887168,66.8011634 C7.69304642,66.2865336 7.56709368,65.3105591 7.43155928,64.0803163 C7.18545105,61.846397 6.96008422,59.2598571 6.77776247,56.3479281 C6.5525371,52.7507693 6.41047194,48.9667884 6.36628096,45.0129773 C5.05079928,44.8295147 3.89929562,44.2124414 2.97199696,43.1938312 C0.453354141,40.4332314 -0.384961971,34.7226141 0.157757606,27.0773626 C0.552006941,21.5227708 4.48298508,18.5811498 10.2845223,17.4618461 C12.6032058,17.0144973 17.8745117,16.7004902 22.7025689,17.4552562 C28.8303117,18.6461281 32.4829573,21.8572128 32.8245109,27.0859691 C33.0109642,29.9403349 33.0728582,31.9823487 32.9321007,34.3578553 C32.8781156,35.2689404 32.7961496,36.1281303 32.6800638,36.9344547 C31.5057507,37.3255314 30.379849,37.8225454 29.313695,38.4141602 C30.3203982,34.7525329 29.96864,29.3769791 29.830972,27.2827553 C29.548239,22.9544707 25.9561942,20.5102785 19.1551748,20.0155985 C18.5579483,19.9723817 14.4267533,19.9747606 13.8293971,20.0203563 C9.16721877,20.3737558 3.53122545,21.921894 3.1502294,27.2897599 C2.66267371,34.1579216 3.40535026,39.2177193 5.18821475,41.1718573 C5.54106152,41.5594481 5.9261096,41.8131085 6.36334991,41.9492506 L6.54755143,30.320481 C6.5606722,29.4921578 7.24279732,28.8313057 8.07112053,28.8444264 C8.89944375,28.8575472 9.5602959,29.5396723 9.54717513,30.3679955 L9.35342012,42.5998839 C9.38996575,55.411531 10.7341647,66.3516378 10.7567981,66.4955603 C10.8048925,67.9177487 11.8095606,68.9141132 13.0580713,68.9141132 L15.0088025,68.9141132 L15.0088025,42.9201252 C15.0088025,41.5886791 15.4527753,40.9366505 16.4911841,40.9366505 C17.5294296,40.9366505 18.0066662,41.6067455 18.0066662,42.9201252 L18.0066662,68.9141132 L19.9242968,68.9141132 C21.1044644,68.9141132 22.0667545,68.0238446 22.1974745,66.8522179 C22.8232816,67.8191649 23.5302858,68.7286618 24.3088358,69.5710571 Z M23.7074737,43.1098391 L23.5001881,30.0237573 C23.4870674,29.195434 24.1479195,28.5133089 24.9762427,28.5001881 C25.804566,28.4870674 26.4866911,29.1479195 26.4998119,29.9762427 L26.6626693,40.2575469 C25.5827243,41.1050821 24.5921643,42.061341 23.7074737,43.1098391 Z M16.5,16 C13.0057102,16 9,11.4857327 9,7.5 C9,3.35786438 12.3578644,0 16.5,0 C20.6421356,0 24,3.35786438 24,7.5 C24,11.4857327 19.9942898,16 16.5,16 Z M16.5,13 C18.2522779,13 21,9.90343248 21,7.5 C21,5.01471863 18.9852814,3 16.5,3 C14.0147186,3 12,5.01471863 12,7.5 C12,9.90343248 14.7477221,13 16.5,13 Z" id="Combined-Shape" fill="#09AEC2" fill-rule="nonzero"></path>
                <path d="M38,48.132568 L38,46 L41,46 L41,48.1300291 C42.6625,48.4388236 43.8392935,49.2829899 44.477762,50.5052176 C44.9028825,51.3190308 45.0192257,52.1288343 44.9764962,52.8274955 C44.9706857,52.9087304 44.9706857,52.9087304 44.9661333,52.9512457 L41.684782,52.6443415 C41.697706,52.4192765 41.6491755,52.0814816 41.4982567,51.792576 C41.2369614,51.2923752 40.7126447,51 39.5071371,51 C38.2998606,51 37.7707634,51.2942445 37.5054595,51.7974432 C37.3518629,52.088768 37.3020248,52.4282862 37.3160407,52.6684541 C37.3225312,52.7277841 37.3243063,52.8051743 37.3195159,52.8823432 C37.3181027,52.9452919 37.4722516,53.2697509 38.1737299,53.7473209 C38.6327311,54.0598113 39.2529683,54.3531277 40.0576337,54.6122436 C41.2009221,54.9804019 42.1398171,55.4333159 42.8880294,55.9620075 C44.3760714,57.0134677 44.9635314,58.2155938 44.9756345,59.2183471 C45.0476642,59.9595154 44.9534337,60.7453317 44.5535756,61.5302141 C43.9295824,62.7550518 42.7253605,63.5848963 41,63.8803173 L41,66 L38,66 L38,63.8779788 C36.2830342,63.5809269 35.0822785,62.7540361 34.4552972,61.5352972 C34.0502999,60.7480554 33.9531343,59.9599114 34.0188157,59.2598597 C34.0260494,59.1827614 34.0326405,59.1333509 34.0426328,59.0713168 L37.3029855,59.527177 C37.2847341,59.7365677 37.3203306,60.0253029 37.4431027,60.2639498 C37.6754942,60.7156771 38.2104307,61 39.5071371,61 C40.8020384,61 41.3320798,60.7175281 41.5605656,60.2690328 C41.6810578,60.0325185 41.7154931,59.7453522 41.6939634,59.5230549 C41.680103,59.4400623 41.6736112,59.3452046 41.6770013,59.25046 C41.675092,59.2794416 41.6666777,59.2392528 41.6243323,59.1463 C41.5121971,58.9001506 41.280347,58.6250712 40.8641915,58.331013 C40.4066396,58.0077038 39.7795262,57.7051903 38.9566405,57.4402072 C37.8495012,57.0836895 36.9339324,56.6507079 36.196934,56.1489556 C34.6324655,55.0838573 34.0220392,53.8548351 34.022704,52.8374835 C33.9812719,52.129236 34.1005019,51.3169901 34.5310629,50.5003504 C35.172292,49.2841391 36.3457034,48.4430307 38,48.132568 Z M39,73 C29.6111593,73 22,65.3888407 22,56 C22,46.6111593 29.6111593,39 39,39 C48.3888407,39 56,46.6111593 56,56 C56,65.3888407 48.3888407,73 39,73 Z M39,70 C46.7319865,70 53,63.7319865 53,56 C53,48.2680135 46.7319865,42 39,42 C31.2680135,42 25,48.2680135 25,56 C25,63.7319865 31.2680135,70 39,70 Z" id="Combined-Shape-Copy-8" fill-opacity="0.5" fill="#07AEC2"></path>
            </g>
        </g>
    </g>
</svg>