<svg width="56" height="74" viewBox="0 0 56 74" xmlns="http://www.w3.org/2000/svg">
  <g fill="none" fill-rule="evenodd">
    <path d="M24.31 69.604c-.95 1.415-2.554 2.343-4.386 2.343H15.01v-3h2.997v3h-4.95c-2.863 0-5.093-2.236-5.288-5.113-.077-.515-.203-1.49-.338-2.72-.247-2.235-.472-4.82-.654-7.733-.225-3.597-.368-7.38-.412-11.334-1.315-.184-2.467-.8-3.394-1.82-2.52-2.76-3.357-8.47-2.814-16.116.394-5.555 4.325-8.496 10.127-9.615 2.318-.448 7.59-.762 12.418-.007 6.127 1.19 9.78 4.402 10.122 9.63.186 2.855.248 4.897.107 7.273-.054.912-.136 1.77-.252 2.577-1.174.39-2.3.888-3.366 1.48 1.006-3.662.655-9.037.517-11.132-.282-4.328-3.874-6.772-10.675-7.267-.597-.043-4.728-.04-5.326.005-4.663.353-10.3 1.902-10.68 7.27-.487 6.868.255 11.927 2.038 13.882.353.387.738.64 1.175.777l.185-11.63c.013-.827.695-1.488 1.523-1.475.83.013 1.49.695 1.477 1.524l-.194 12.233c.037 12.81 1.38 23.75 1.404 23.895.048 1.422 1.053 2.42 2.3 2.42h1.952V42.952c0-1.332.443-1.984 1.48-1.984 1.04 0 1.517.67 1.517 1.983v25.994h1.917c1.18 0 2.143-.89 2.273-2.062.626.967 1.333 1.876 2.112 2.72zm-.603-26.46L23.5 30.055c-.013-.828.648-1.51 1.476-1.523.83-.013 1.51.648 1.524 1.476l.163 10.28c-1.08.848-2.07 1.804-2.956 2.853zM16.5 16.033c-3.494 0-7.5-4.516-7.5-8.5 0-4.143 3.358-7.5 7.5-7.5 4.142 0 7.5 3.357 7.5 7.5 0 3.984-4.006 8.5-7.5 8.5zm0-3c1.752 0 4.5-3.098 4.5-5.5 0-2.487-2.015-4.5-4.5-4.5S12 5.046 12 7.533c0 2.402 2.748 5.5 4.5 5.5z" fill="#09AEC2" fill-rule="nonzero"/>
    <path d="M38 48.165v-2.132h3v2.13c1.663.31 2.84 1.153 3.478 2.375.425.814.54 1.624.498 2.322-.005.08-.005.08-.01.124l-3.28-.307c.012-.225-.037-.563-.188-.852-.26-.5-.785-.792-1.99-.792-1.208 0-1.737.294-2.003.797-.153.29-.203.63-.19.87.008.06.01.138.005.215-.002.063.152.387.854.865.46.313 1.08.606 1.884.865 1.143.368 2.082.82 2.83 1.35 1.488 1.05 2.076 2.253 2.088 3.256.072.742-.023 1.528-.422 2.313-.624 1.225-1.83 2.055-3.554 2.35v2.12h-3V63.91c-1.717-.296-2.918-1.123-3.545-2.342-.405-.787-.502-1.575-.436-2.275.006-.078.013-.127.023-.19l3.26.457c-.018.21.017.498.14.737.232.45.767.736 2.064.736 1.295 0 1.825-.283 2.054-.73.12-.238.155-.525.134-.747-.014-.083-.02-.178-.017-.273-.002.03-.01-.01-.053-.104-.112-.247-.344-.522-.76-.816-.457-.324-1.084-.626-1.907-.89-1.107-.358-2.023-.79-2.76-1.292-1.565-1.065-2.175-2.294-2.174-3.312-.042-.708.078-1.52.508-2.337.642-1.216 1.816-2.057 3.47-2.368zm1 24.868c-9.39 0-17-7.61-17-17s7.61-17 17-17 17 7.61 17 17-7.61 17-17 17zm0-3c7.732 0 14-6.268 14-14s-6.268-14-14-14-14 6.268-14 14 6.268 14 14 14z" fill-opacity=".5" fill="#07AEC2"/>
  </g>
</svg>
