<?xml version="1.0" standalone="no"?>
<!DOCTYPE svg PUBLIC "-//W3C//DTD SVG 20010904//EN"
 "http://www.w3.org/TR/2001/REC-SVG-20010904/DTD/svg10.dtd">
<svg version="1.0" xmlns="http://www.w3.org/2000/svg"
 width="16.000000pt" height="16.000000pt" viewBox="0 0 16.000000 16.000000"
 preserveAspectRatio="xMidYMid meet">
<metadata>
Created by potrace 1.11, written by Peter Selinger 2001-2013
</metadata>
<g transform="translate(0.000000,16.000000) scale(0.002286,-0.002286)"
fill="#000000" stroke="none">
<path d="M4587 6514 c-1 -1 -40 -5 -87 -9 -124 -10 -186 -15 -325 -30 -22 -2
-71 -7 -110 -10 -38 -4 -88 -8 -110 -10 -22 -2 -65 -6 -95 -9 -68 -6 -185 -17
-225 -22 -16 -1 -64 -6 -105 -9 -41 -4 -95 -8 -120 -11 -25 -2 -72 -6 -105 -9
-79 -7 -138 -14 -140 -17 -1 -2 60 -129 136 -283 76 -154 184 -374 240 -490
57 -115 174 -356 262 -535 88 -179 192 -392 232 -475 40 -82 141 -289 225
-460 233 -475 320 -655 320 -664 0 -5 -25 -60 -56 -122 -31 -63 -82 -168 -114
-234 -32 -66 -108 -223 -170 -350 -62 -126 -143 -293 -180 -370 -37 -77 -111
-230 -165 -340 -54 -110 -128 -263 -165 -340 -37 -77 -116 -239 -175 -360
-293 -601 -355 -729 -351 -732 4 -4 64 -11 149 -18 43 -4 88 -8 100 -10 12 -2
58 -6 102 -10 105 -9 159 -14 220 -20 57 -6 134 -13 215 -19 85 -7 182 -17
217 -21 17 -3 64 -7 105 -11 40 -3 89 -7 108 -9 19 -2 69 -7 110 -11 41 -4
104 -8 138 -8 l64 -1 66 146 c37 80 78 170 91 200 58 129 86 190 170 373 23
48 41 89 41 91 0 2 23 51 50 110 28 59 50 108 50 110 0 1 20 45 44 96 24 52
61 135 84 184 22 50 54 122 72 160 18 39 51 113 75 165 45 101 57 128 129 283
26 53 46 99 46 101 0 2 17 42 39 88 39 83 73 158 76 168 1 3 13 30 27 60 14
30 57 125 96 210 38 85 86 191 107 235 63 136 115 252 115 258 0 2 -40 87 -88
188 -49 101 -104 216 -122 254 -18 39 -57 120 -86 182 -29 61 -74 155 -100
210 -25 54 -72 152 -104 218 -98 205 -257 538 -305 640 -18 39 -74 155 -124
258 -50 104 -91 190 -91 192 0 2 -43 92 -96 201 -52 110 -106 222 -119 249
-13 28 -62 130 -109 228 l-85 178 -46 -2 c-25 -2 -46 -4 -48 -5z"/>
<path d="M1465 4814 c-89 -19 -234 -90 -306 -151 -222 -189 -312 -475 -245
-779 20 -95 98 -234 174 -316 136 -146 304 -225 492 -233 248 -11 472 99 617
303 44 61 104 188 117 247 3 17 9 41 12 55 11 48 12 205 3 264 -14 84 -53 190
-101 271 -49 83 -171 206 -252 254 -49 30 -156 72 -221 88 -50 12 -225 10
-290 -3z"/>
<path d="M1465 2396 c-169 -38 -340 -153 -436 -293 -43 -62 -93 -167 -115
-243 -29 -99 -26 -309 5 -410 86 -278 288 -466 562 -523 65 -14 192 -15 259
-3 213 39 413 191 513 391 67 133 89 232 83 379 -5 118 -26 199 -83 316 -39
81 -60 108 -137 185 -76 75 -107 98 -186 138 -52 26 -123 53 -158 61 -81 18
-231 18 -307 2z"/>
</g>
</svg>
