<svg id="Layer_1" data-name="Layer 1" xmlns="http://www.w3.org/2000/svg" xmlns:xlink="http://www.w3.org/1999/xlink" viewBox="0 0 120 147.46"><defs><style>.cls-1{fill:#fff;}.cls-2{fill:#f2f2f2;}.cls-3{mask:url(#mask);}.cls-4{fill:#d4d4d4;}</style><mask id="mask" x="0" y="0" width="120" height="147.46" maskUnits="userSpaceOnUse"><g id="mask-2"><rect id="path-1" class="cls-1" width="120" height="120"/></g></mask></defs><title>User Square XL</title><g id="Page-1"><g id="User-Square-XL"><g id="Mask-2-2" data-name="Mask"><rect id="path-1-2" data-name="path-1" class="cls-2" width="120" height="120"/></g><g class="cls-3"><path id="Combined-Shape" class="cls-4" d="M71.23,81.09c1.71-.9,4.78-6.62,5.3-11.46,1.35-.11,3.47-1.42,4.09-6.61.34-2.78-1-4.35-1.81-4.84,2.19-6.59,6.74-27-8.41-29.06C68.83,26.39,64.84,25,59.65,25c-20.76.38-23.26,15.67-18.71,33.19-.81.49-2.14,2.06-1.81,4.84.62,5.18,2.74,6.5,4.09,6.61.52,4.83,3.7,10.56,5.42,11.46A96.93,96.93,0,0,1,48.43,91c-3,7.95-18.14,8.57-26.9,16.23C12.59,115,9.06,121.1,3.5,135.46s36.76,11.83,47.2,11.83,59.92-5.67,65.41-9.62-10.32-23.47-17.79-30.39C89.62,99.54,74.4,98.94,71.44,91A96.91,96.91,0,0,1,71.23,81.09Z"/></g></g></g></svg>