<svg xmlns="http://www.w3.org/2000/svg" viewBox="0 0 105.39 52.41"><defs><style>.a{isolation:isolate;}.b{fill:#f2778a;}.c,.f,.g{fill:#272525;}.c{opacity:0.2;mix-blend-mode:color-burn;}.d{fill:#fff;}.e{fill:none;stroke:#fff;stroke-linecap:round;stroke-miterlimit:10;}.g{opacity:0.16;mix-blend-mode:multiply;}</style></defs><title>alien_holding</title><g class="a"><path class="b" d="M685.8,872s-0.05-1.63-.09-2.38c-0.48-9.72,4.79-18.65,14.39-20.3a17.56,17.56,0,0,1,20.37,14.28,46.61,46.61,0,0,1,.4,8.4H685.8Z" transform="translate(-649.85 -830.96)"/><polygon class="b" points="7.77 36.42 10.62 41.03 6.83 41.03 7.77 36.42"/><path class="b" d="M752.43,867.91c-1.19,2.55-2.1,4.09-2.56,4.09h-6.49C743.76,870,747.49,866.38,752.43,867.91Z" transform="translate(-649.85 -830.96)"/><path class="c" d="M750.93,869a3.54,3.54,0,0,1,3.62,3.46c0,1.89-2.72,6.55-4.74,6.53s-3.06-4.82-3-6.71S748.91,869,750.93,869Z" transform="translate(-649.85 -830.96)"/><path class="c" d="M655.53,868.41a3.54,3.54,0,0,1,3.62,3.46c0,1.89-2.72,6.55-4.74,6.53s-3.06-4.82-3-6.71S653.51,868.39,655.53,868.41Z" transform="translate(-649.85 -830.96)"/><path class="b" d="M655.5,866.77a3.54,3.54,0,0,1,3.23,3.83c-0.22,1.88-3.41,6.22-5.41,6s-3.66-5.12-3.44-7S653.5,866.53,655.5,866.77Z" transform="translate(-649.85 -830.96)"/><path class="b" d="M752.43,868.33a3.54,3.54,0,0,1,2.72,4.2c-0.46,1.83-3.31,5.12-5.27,4.63s-2.28-4.56-1.83-6.39A3.54,3.54,0,0,1,752.43,868.33Z" transform="translate(-649.85 -830.96)"/><polyline class="b" points="42.95 24.66 32.5 4.38 46.92 21.38"/><polyline class="b" points="60.15 21.77 71.45 3.47 65.05 26.25"/><ellipse class="d" cx="710.62" cy="863.05" rx="3.17" ry="3.78" transform="translate(-894.22 613.32) rotate(-81.86)"/><ellipse class="d" cx="701.31" cy="863.05" rx="3.78" ry="3.7" transform="translate(-663.67 -819.55) rotate(-0.92)"/><ellipse class="d" cx="692.03" cy="862.47" rx="3.14" ry="3.78" transform="translate(-868.4 658.89) rotate(-85.82)"/><path class="e" d="M716.89,860.5a18.07,18.07,0,0,1,1.7,6.25" transform="translate(-649.85 -830.96)"/><circle class="b" cx="681.94" cy="834.75" r="2.27" transform="translate(-846.87 -620.15) rotate(-15.38)"/><circle class="b" cx="722" cy="833.24" r="2.27" transform="translate(-845.03 -609.57) rotate(-15.38)"/><circle class="f" cx="51.33" cy="30.93" r="1.14"/><circle class="f" cx="42.06" cy="32.2" r="1.14"/><circle class="f" cx="61.33" cy="33.2" r="1.14"/><path class="g" d="M703.83,869.51l0.51,10.24a3.36,3.36,0,0,1-3.09,3.61h0a3.36,3.36,0,0,1-3.61-3.09l0-10.11" transform="translate(-649.85 -830.96)"/><path class="b" d="M704.28,868.71l-1.94,10.07a3.36,3.36,0,0,1-3.86,2.78h0a3.36,3.36,0,0,1-2.78-3.86l2.44-9.82" transform="translate(-649.85 -830.96)"/></g></svg>