<svg xmlns="http://www.w3.org/2000/svg" xmlns:xlink="http://www.w3.org/1999/xlink" viewBox="0 0 114.17 141.01"><defs><style>.a{fill:url(#a);}.b{fill:#525266;opacity:0.3;}.c,.f,.n{fill:#fff;}.c{opacity:0.1;}.d{opacity:0.2;fill:url(#b);}.e{opacity:0.14;}.g{opacity:0.27;}.h{opacity:0.4;}.i{opacity:0.6;}.j,.l,.m,.n,.o{opacity:0.81;}.k{fill:#3c3c59;}.l{fill:#18cd7a;}.m{fill:#b2b2b2;}.o{fill:#8f8f8f;}</style><linearGradient id="a" x1="57.17" y1="-34.38" x2="57.17" y2="115.26" gradientUnits="userSpaceOnUse"><stop offset="0" stop-color="#3c3c59"/><stop offset="0.13" stop-color="#3f415e"/><stop offset="0.29" stop-color="#4a4e6e"/><stop offset="0.47" stop-color="#5a6587"/><stop offset="0.65" stop-color="#7184ab"/><stop offset="0.85" stop-color="#8facd8"/><stop offset="1" stop-color="#a8ceff"/></linearGradient><linearGradient id="b" x1="1.33" y1="135.19" x2="112.85" y2="135.19" gradientUnits="userSpaceOnUse"><stop offset="0.01"/><stop offset="1" stop-opacity="0"/></linearGradient></defs><title>Koding_website_homepage_5</title><polygon class="a" points="57.17 1.75 109.17 32.01 109.17 92.51 57.17 122.77 5.17 92.51 5.17 32.01 57.17 1.75"/><polygon class="b" points="109.64 92.51 57.24 122.77 4.83 92.51 57.24 62.41 109.64 92.51"/><polygon class="c" points="57.17 1.75 5.17 32.01 5.17 92.51 57.17 62.41 57.17 1.75"/><ellipse class="d" cx="57.09" cy="135.19" rx="55.76" ry="4.08"/><g class="e"><polygon class="f" points="20.17 37.34 60.17 14.56 60.17 62.98 20.17 85.76 20.17 37.34"/></g><g class="g"><polygon class="f" points="30.17 42.94 70.17 20.15 70.17 68.57 30.17 91.36 30.17 42.94"/></g><g class="h"><polygon class="f" points="38.17 47.96 78.17 25.18 78.17 73.59 38.17 96.38 38.17 47.96"/></g><g class="i"><polygon class="f" points="47.17 53.17 87.17 30.39 87.17 78.81 47.17 101.59 47.17 53.17"/></g><g class="j"><polygon class="k" points="54.17 57.24 94.17 34.46 94.17 82.88 54.17 105.66 54.17 57.24"/></g><g class="j"><polygon class="k" points="66.17 50.85 66.17 99.27 55.17 105.66 55.17 57.24 66.17 50.85"/></g><g class="j"><polygon class="l" points="67.17 58.84 73.17 55.67 73.17 57.84 67.17 61.03 67.17 58.84"/><polygon class="m" points="82.17 50.89 82.17 53.06 75.17 57.38 75.17 55.2 82.17 50.89"/></g><g class="j"><polygon class="n" points="67.17 65.91 81.17 57.95 81.17 60.12 67.17 68.08 67.17 65.91"/></g><g class="j"><polygon class="n" points="75.17 68.88 75.17 71.05 67.17 75.14 67.17 72.96 75.17 68.88"/></g><g class="j"><polygon class="l" points="67.17 80.02 81.17 72.06 81.17 74.24 67.17 82.2 67.17 80.02"/></g><g class="j"><polygon class="n" points="77.17 81.37 77.17 83.53 67.17 89.26 67.17 87.07 77.17 81.37"/></g><polygon class="o" points="54.17 57.24 94.17 34.46 94.17 40.69 54.17 63.47 54.17 57.24"/></svg>