<svg xmlns="http://www.w3.org/2000/svg" xmlns:xlink="http://www.w3.org/1999/xlink" viewBox="0 0 117.01 143.47"><defs><style>.a{fill:url(#a);}.b{fill:#525266;opacity:0.3;}.c,.f,.g,.h,.i,.j{fill:#fff;}.c{opacity:0.1;}.d{opacity:0.2;fill:url(#b);}.e{opacity:0.03;}.f{opacity:0.21;}.g{opacity:0.32;}.h{opacity:0.56;}.i{opacity:0.66;}.j{opacity:0.83;}</style><linearGradient id="a" x1="58.01" y1="-34.4" x2="58.01" y2="116.88" gradientUnits="userSpaceOnUse"><stop offset="0" stop-color="#3c3c59"/><stop offset="0.13" stop-color="#3f415e"/><stop offset="0.29" stop-color="#4a4e6e"/><stop offset="0.47" stop-color="#5a6587"/><stop offset="0.65" stop-color="#7184ab"/><stop offset="0.85" stop-color="#8facd8"/><stop offset="1" stop-color="#a8ceff"/></linearGradient><linearGradient id="b" x1="2.14" y1="137.22" x2="114.88" y2="137.22" gradientUnits="userSpaceOnUse"><stop offset="0.01"/><stop offset="1" stop-opacity="0"/></linearGradient></defs><title>icon_stacks</title><polygon class="a" points="58.01 2.13 111.01 32.72 111.01 93.89 58.01 124.47 5.01 93.89 5.01 32.72 58.01 2.13"/><polygon class="b" points="110.67 93.89 57.7 124.47 4.72 93.89 57.7 63.45 110.67 93.89"/><polygon class="c" points="58.01 2.13 5.01 32.72 5.01 93.89 58.01 63.45 58.01 2.13"/><ellipse class="d" cx="58.51" cy="137.22" rx="56.37" ry="4.12"/><polygon class="e" points="91.97 91.34 57.52 111.7 23.07 91.34 57.52 70.98 91.97 91.34"/><polygon class="f" points="91.97 80.16 57.52 100.52 23.07 80.16 57.52 59.8 91.97 80.16"/><polygon class="g" points="91.97 71.29 57.52 91.65 23.07 71.29 57.52 50.93 91.97 71.29"/><polygon class="h" points="91.97 62.42 57.52 82.78 23.07 62.42 57.52 42.06 91.97 62.42"/><polygon class="i" points="91.97 53.55 57.52 73.91 23.07 53.55 57.52 33.19 91.97 53.55"/><polygon class="j" points="91.97 44.68 57.52 65.04 23.07 44.68 57.52 24.32 91.97 44.68"/></svg>