<?xml version="1.0" encoding="utf-8"?>
<!-- Generator: Adobe Illustrator 19.1.0, SVG Export Plug-In . SVG Version: 6.00 Build 0)  -->
<svg version="1.1" id="Layer_1" xmlns="http://www.w3.org/2000/svg" xmlns:xlink="http://www.w3.org/1999/xlink" x="0px" y="0px"
	 viewBox="0 0 869.3 302.9" style="enable-background:new 0 0 869.3 302.9;" xml:space="preserve" preserveAspectRatio="xMinYMid">
<style type="text/css">
	.st0{fill:#FFFFFF;}
	.st1{display:none;fill:#FFFFFF;}
</style>
<g>
	<g>
		<g>
			<g>
				<g>
					<g>
						<path class="st0" d="M318.2,145.6l42.9,89.3h-32.6l-30.5-64.4l-18.2,22.4l0.1,42h-29.2V83.8l29.2-2.6l-0.4,67.5l54.5-66.2
							l22.2,18.1L318.2,145.6z"/>
					</g>
					<g>
						<path class="st0" d="M467.1,180.6c0,31.3-21,55.5-53.3,55.5c-32.5,0-53.5-24.2-53.5-55.5s21-55.5,53.5-55.5
							C446.2,125.1,467.1,149.3,467.1,180.6z M413.9,153.9c-15.7,0-24.7,14.8-24.7,26.7c0,14,10.8,26.6,24.7,26.6
							c14.9,0,24.5-13.6,24.5-26.6C438.3,167.2,428.8,153.9,413.9,153.9z"/>
					</g>
					<g>
						<path class="st0" d="M605.1,235.1V131.4l28.9-2.6v106.3H605.1z M636.3,100.3c0,9.3-7.5,16.8-16.8,16.8s-16.8-7.5-16.8-16.8
							s7.5-16.8,16.8-16.8S636.3,91,636.3,100.3z"/>
					</g>
					<g>
						<path class="st0" d="M555.5,85.2V132c-7.3-4-15.5-6.3-24.8-6.3c-30.9,0-53,25.2-53,55c0,29.8,22.1,55.2,53,55.2
							c9.2,0,17.4-2.3,24.8-6.4v5.6h28.9V82.6L555.5,85.2z M530.8,207.2c-13.2,0-24.2-12.1-24.2-26.4c0-12.1,8.7-27,24.2-27
							c17.4,0,25,15.1,25,27C555.8,193.6,545.8,207.2,530.8,207.2z"/>
					</g>
					<g>
						<path class="st0" d="M709.4,125.1c-9.1,0-20.5,2.5-26.1,9.3l0.3-9.6l-29.1,2.6v107.8h28.8l0-60.8c0-9.5,6-20.5,19.8-20.5
							c15,0,19.3,8.3,19.7,18.5l0,0v62.8h28.9v-70.3C751.8,144.3,735.4,125.1,709.4,125.1z"/>
					</g>
					<g>
						<g>
							<path class="st0" d="M857,216c7.1-9.3,11.2-21.1,11.2-34.2c0-9.2-2-17.8-5.7-25.4h6.8l-0.2-28.6l-52.4-1.8
								c-0.1,0-1.2,0-1.6,0c-32.2,0-53.4,24.7-53.4,55.7c0,31,21.2,55,53.4,55c7,0,19-2.6,19-2.6c0,0,0,0,0.1,0
								c5,3.1,6.8,8.1,6.8,14.7c0,12.5-9.8,25-24,25c-13.1,0-22.4-9.4-25-21.9l-28.3,2.5c1.7,11.8,7.1,22.7,15.6,31.3
								c10.5,10.6,22.8,16.4,37.6,16.4c14.9,0,27.4-5.3,37.9-15.9c0.9-0.9,14.5-13.6,14.5-37.4C869.3,236.9,864.2,225.1,857,216z
								 M815,208.2c-14.5,0-24.6-13.2-24.6-26.4c0-12.7,9-27,24.6-27c14.9,0,24.4,13.7,24.4,27C839.4,193.6,830.6,208.2,815,208.2z"
								/>
						</g>
					</g>
				</g>
			</g>
		</g>
		<g>
			<g>
				<g>
					<g>
						<g>
							<g>
								<g>
									<polygon class="st0" points="127.6,97.7 99.1,100.4 125.7,155.5 99.7,209.7 128.4,212.4 154.4,154.6 									"/>
								</g>
							</g>
							<g>
								<g>
									<path class="st0" d="M69.7,174.6c-7.6,0-13.7,6.3-13.7,14.1c0,7.8,6.1,14.1,13.7,14.1c7.6,0,13.7-6.3,13.7-14.1
										C83.4,180.9,77.2,174.6,69.7,174.6z"/>
								</g>
							</g>
							<g>
								<g>
									<path class="st0" d="M69.7,129.2c-7.6,0-13.7,6.3-13.7,14.1c0,7.8,6.1,14.1,13.7,14.1c7.6,0,13.7-6.3,13.7-14.1
										C83.4,135.5,77.2,129.2,69.7,129.2z"/>
								</g>
							</g>
						</g>
					</g>
				</g>
			</g>
			<g>
				<path class="st0" d="M159.9,303.2H49.6C22.3,303.2,0,280.9,0,253.5V50.1C0,22.7,22.3,0.5,49.6,0.5h110.3
					c27.4,0,49.6,22.3,49.6,49.6v203.4C209.5,280.9,187.3,303.2,159.9,303.2z M52.4,28.7c-13.2,0-23.9,11-23.9,24.4v197.3
					c0,13.5,10.7,24.4,23.9,24.4h104.8c13.2,0,23.9-11,23.9-24.4V53.2c0-13.5-10.7-24.4-23.9-24.4H52.4z"/>
			</g>
			<path id="Original_9_" class="st1" d="M158.7,291.1H44.1c-21.1,0-38.3-17.2-38.3-38.3V51.2c0-21.1,17.2-38.3,38.3-38.3h114.7
				c21.1,0,38.3,17.2,38.3,38.3v201.6C197.1,273.9,179.8,291.1,158.7,291.1z"/>
		</g>
	</g>
</g>
</svg>
