<?xml version="1.0" encoding="UTF-8" standalone="no"?>
<svg width="49px" height="41px" viewBox="0 0 49 41" version="1.1" xmlns="http://www.w3.org/2000/svg" xmlns:xlink="http://www.w3.org/1999/xlink">
    <!-- Generator: Sketch 3.8.3 (29802) - http://www.bohemiancoding.com/sketch -->
    <title>Page 1</title>
    <desc>Created with Sketch.</desc>
    <defs></defs>
    <g id="Page-1" stroke="none" stroke-width="1" fill="none" fill-rule="evenodd" opacity="1">
        <g id="02" transform="translate(-684.000000, -369.000000)" fill="#FFFFFF">
            <g id="Group-14" transform="translate(648.000000, 330.000000)">
                <g id="Page-1" opacity="0.4" transform="translate(36.135352, 39.146631)">
                    <path d="M25.784079,30.7205068 C26.6121808,30.7205068 27.2897186,30.0429689 27.2897186,29.2148671 L27.2897186,24.3222911 C27.2897186,23.4945657 26.6121808,22.8170278 25.784079,22.8170278 L22.3963898,22.8170278 C21.568288,22.8170278 20.8907501,23.4945657 20.8907501,24.3222911 L20.8907501,29.2148671 C20.8907501,30.0429689 21.568288,30.7205068 22.3963898,30.7205068 L25.784079,30.7205068 Z" id="Fill-1"></path>
                    <g id="Group-5" transform="translate(1.505640, 23.662821)">
                        <path d="M28.0425385,5.55205561 C28.0425385,7.62663884 26.3530226,9.31615473 24.2784393,9.31615473 L20.8907501,9.31615473 C18.8161669,9.31615473 17.126651,7.62663884 17.126651,5.55205561 L17.126651,4.50375401 C10.8853982,3.92878787 5.07137075,2.38230774 0,0.0852662553 L0,12.515639 C0,15.0001326 2.03317814,17.0325579 4.51691895,17.0325579 L40.6522705,17.0325579 C43.1360113,17.0325579 45.1691895,14.9993798 45.1691895,12.515639 L45.1691895,0.0852662553 C40.0976305,2.38249595 34.2834148,3.92878787 28.0425385,4.50375401 L28.0425385,5.55205561 Z" id="Fill-3"></path>
                    </g>
                    <path d="M30.9038184,6.06565753 L30.9038184,6.06584573 L17.2764621,6.06584573 L17.2764621,3.76428733 C17.2764621,3.55876751 17.3615308,3.37093897 17.4987322,3.23392576 C17.6359336,3.09653614 17.8239504,3.0114675 18.0294702,3.0114675 L30.1509986,3.0114675 C30.3559538,3.0114675 30.5441587,3.09672435 30.6813601,3.23392576 C30.8185616,3.37112717 30.9038184,3.55914392 30.9038184,3.76428733 L30.9038184,6.06565753 Z M43.6697606,6.06584573 L36.926377,6.06584573 L36.926377,4.936616 C36.926377,4.31516323 36.4184118,3.80719806 35.7971473,3.80719806 L33.9150977,3.80719806 L33.9150977,3.76409912 C33.9150977,2.72784263 33.492013,1.78606503 32.8105228,1.10457489 C32.1290327,0.423084741 31.1876315,0 30.1509986,0 L18.0294702,0 C16.9924609,0 16.0510597,0.423084741 15.3695695,1.10457489 C14.6882676,1.78587683 14.2653711,2.72746622 14.2653711,3.76409912 L14.2653711,3.80719806 L12.3829451,3.80719806 C11.7620569,3.80719806 11.2539036,4.50336819 11.2539036,5.12463275 L11.2539036,6.06565753 L4.51033177,6.06565753 C2.02960225,6.06565753 0,8.09375414 0,10.5716606 L0,20.499472 C5.32413,23.3251812 11.6922329,25.2358379 18.6322906,25.898884 L18.6322906,24.3222911 C18.6322906,22.2480843 20.3218065,20.5585684 22.3963898,20.5585684 L25.784079,20.5585684 C27.8586622,20.5585684 29.5481781,22.2480843 29.5481781,24.3222911 L29.5481781,25.898884 C36.4882359,25.2358379 42.8559623,23.324993 48.1804688,20.499472 L48.1804688,10.5716606 C48.1804688,8.09337773 46.1506783,6.06584573 43.6697606,6.06584573 L43.6697606,6.06584573 Z" id="Fill-6"></path>
                </g>
            </g>
        </g>
    </g>
</svg>