<?xml version="1.0" encoding="utf-8"?>
<!-- Generator: Adobe Illustrator 19.1.0, SVG Export Plug-In . SVG Version: 6.00 Build 0)  -->
<svg version="1.1" id="Layer_1" xmlns="http://www.w3.org/2000/svg" xmlns:xlink="http://www.w3.org/1999/xlink" x="0px" y="0px"
	 viewBox="0 0 932.5 306.2" style="enable-background:new 0 0 932.5 306.2;" xml:space="preserve">
<style type="text/css">
	.st0{fill:#fff;}
	.st1{display:none;fill:#fff;}
</style>
<g>
	<g>
		<g>
			<g>
				<g>
					<g>
						<path class="st0" d="M338.7,146.8l43.4,90.3h-33l-30.8-65.2l-18.4,22.7l0.1,42.5h-29.6V84.2l29.6-2.7l-0.4,68.2l55.1-67
							l22.4,18.3L338.7,146.8z"/>
					</g>
					<g>
						<path class="st0" d="M496.8,182.2c0,31.6-21.2,56.2-53.9,56.2c-32.9,0-54.1-24.5-54.1-56.2S410,126,442.9,126
							C475.5,126,496.8,150.5,496.8,182.2z M442.9,155.1c-15.9,0-25,15-25,27.1c0,14.2,10.9,26.9,25,26.9
							c15.1,0,24.8-13.8,24.8-26.9C467.6,168.7,458,155.1,442.9,155.1z"/>
					</g>
					<g>
						<path class="st0" d="M651.3,237.3V132.4l29.2-2.6v107.5H651.3z M682.7,101c0,9.4-7.6,17-17,17c-9.4,0-17-7.6-17-17
							s7.6-17,17-17C675.1,84,682.7,91.6,682.7,101z"/>
					</g>
					<g>
						<path class="st0" d="M593.6,85.7v47.4c-7.4-4-15.7-6.4-25-6.4c-31.3,0-53.6,25.5-53.6,55.6c0,30.1,22.4,55.9,53.6,55.9
							c9.3,0,17.6-2.3,25-6.4v5.6h29.3V83.1L593.6,85.7z M568.6,209.1c-13.3,0-24.5-12.3-24.5-26.8c0-12.3,8.8-27.3,24.5-27.3
							c17.6,0,25.3,15.2,25.3,27.3C593.9,195.3,583.8,209.1,568.6,209.1z"/>
					</g>
					<g>
						<path class="st0" d="M764.2,126c-9.2,0-20.7,2.6-26.4,9.4l0.3-9.7l-29.4,2.7v109h29.1l0-61.5c0-9.6,6.1-20.7,20-20.7
							c15.2,0,19.5,8.4,20,18.7l0,0v63.5H807v-71.1C807,145.4,790.5,126,764.2,126z"/>
					</g>
					<g>
						<g>
							<path class="st0" d="M920,218c7.2-9.4,11.4-21.4,11.4-34.6c0-9.3-2.1-18-5.8-25.6h6.9l-0.2-28.9l-53-1.8c-0.1,0-1.2,0-1.7,0
								c-32.6,0-54,25-54,56.4c0,31.3,21.4,55.6,54,55.6c7.1,0,19.2-2.7,19.2-2.7c0,0,0.1,0,0.1,0c5.1,3.1,6.8,8.2,6.8,14.9
								c0,12.6-9.9,25.3-24.2,25.3c-13.2,0-22.6-9.5-25.3-22.2l-28.6,2.5c1.7,11.9,7.2,22.9,15.8,31.6c10.6,10.7,23,16.6,38.1,16.6
								c15,0,27.7-5.4,38.3-16.1c0.9-0.9,14.7-13.8,14.7-37.8C932.5,239.1,927.4,227.2,920,218z M877.6,210.1
								c-14.7,0-24.9-13.3-24.9-26.7c0-12.9,9.1-27.3,24.9-27.3c15.1,0,24.7,13.8,24.7,27.3C902.3,195.3,893.4,210.1,877.6,210.1z"
								/>
						</g>
					</g>
				</g>
			</g>
		</g>
		<g>
			<g>
				<g>
					<g>
						<g>
							<g>
								<g>
									<polygon class="st0" points="129,98.3 100.2,101 127.2,156.8 100.9,211.6 129.9,214.4 156.1,155.9 									"/>
								</g>
							</g>
							<g>
								<g>
									<path class="st0" d="M70.5,176.1c-7.6,0-13.9,6.4-13.9,14.2c0,7.8,6.2,14.2,13.9,14.2c7.6,0,13.9-6.4,13.9-14.2
										C84.3,182.5,78.1,176.1,70.5,176.1z"/>
								</g>
							</g>
							<g>
								<g>
									<path class="st0" d="M70.5,130.1c-7.6,0-13.9,6.4-13.9,14.2c0,7.8,6.2,14.2,13.9,14.2c7.6,0,13.9-6.4,13.9-14.2
										C84.3,136.5,78.1,130.1,70.5,130.1z"/>
								</g>
							</g>
						</g>
					</g>
				</g>
			</g>
			<g>
				<path class="st0" d="M161.7,306.2H50.2C22.5,306.2,0,283.6,0,256V50.2C0,22.5,22.5,0,50.2,0h111.5c27.7,0,50.2,22.5,50.2,50.2
					V256C211.9,283.6,189.4,306.2,161.7,306.2z M53,28.6c-13.3,0-24.2,11.1-24.2,24.7v199.6c0,13.6,10.9,24.7,24.2,24.7h106
					c13.3,0,24.2-11.1,24.2-24.7V53.3c0-13.6-10.9-24.7-24.2-24.7H53z"/>
			</g>
			<path id="Original_9_" class="st1" d="M160.6,294h-116c-21.3,0-38.8-17.4-38.8-38.8V51.3c0-21.3,17.4-38.8,38.8-38.8h116
				c21.3,0,38.8,17.4,38.8,38.8v203.9C199.3,276.5,181.9,294,160.6,294z"/>
		</g>
	</g>
</g>
</svg>
