<svg id="Layer_1" data-name="Layer 1" xmlns="http://www.w3.org/2000/svg" viewBox="0 0 139.42 53.39"><defs><style>.cls-1{fill:#aab2b9;}</style></defs><title>aws logo</title><polygon class="cls-1" points="18.98 31.61 27.29 34.41 27.29 22.83 18.98 20.17 18.98 31.61"/><polygon class="cls-1" points="28.48 34.41 36.78 31.61 36.78 20.17 28.48 22.83 28.48 34.41"/><polygon class="cls-1" points="9.49 34.41 17.8 31.61 17.8 20.17 9.49 22.83 9.49 34.41"/><polygon class="cls-1" points="18.68 33.22 10.68 35.4 18.68 37.97 26.1 35.53 18.68 33.22"/><polygon class="cls-1" points="9.49 48.22 17.8 51.02 17.8 39.44 9.49 36.78 9.49 48.22"/><polygon class="cls-1" points="37.66 0 29.66 2.18 37.66 4.75 45.09 2.31 37.66 0"/><polygon class="cls-1" points="28.48 15 36.78 17.8 36.78 6.22 28.48 3.56 28.48 15"/><polygon class="cls-1" points="18.98 51.02 27.29 48.22 27.29 36.78 18.98 39.44 18.98 51.02"/><polygon class="cls-1" points="28.17 16.61 20.17 18.79 28.17 21.36 35.59 18.92 28.17 16.61"/><polygon class="cls-1" points="46.27 3.56 37.97 6.22 37.97 17.8 46.27 15 46.27 3.56"/><polygon class="cls-1" points="55.76 6.22 47.46 3.56 47.46 15 55.76 17.8 55.76 6.22"/><polygon class="cls-1" points="56.95 17.8 65.25 15 65.25 3.56 56.95 6.22 56.95 17.8"/><polygon class="cls-1" points="9.19 16.61 1.19 18.79 9.19 21.36 16.61 18.92 9.19 16.61"/><polygon class="cls-1" points="64.07 2.31 56.65 0 48.64 2.18 56.65 4.75 64.07 2.31"/><polygon class="cls-1" points="0 31.61 8.3 34.41 8.3 22.83 0 20.17 0 31.61"/><polygon class="cls-1" points="52.03 43.21 50.83 43.21 48.7 50.2 46.83 43.9 46.74 43.9 46.53 43.21 45.44 43.21 43.53 49.96 41.78 43.9 41.58 43.9 41.37 43.21 39.9 43.21 42.76 52.6 42.9 52.6 43.14 53.39 44.33 53.39 46.21 46.49 48.09 52.6 48.11 52.6 48.34 53.39 49.51 53.39 52.2 43.9 51.83 43.9 52.03 43.21"/><path class="cls-1" d="M80.39,47.19l-1.86-.34Q77,46.59,77,45.55a1.15,1.15,0,0,1,.58-1,2.76,2.76,0,0,1,1.49-.37,2.33,2.33,0,0,1,2.41,1.46l1.36-.29Q82.16,43,79,43a3.9,3.9,0,0,0-2.57.79,2.47,2.47,0,0,0-1,2,2.24,2.24,0,0,0,.7,1.72,3.7,3.7,0,0,0,1.88.87l2,.38q1.64.3,1.64,1.4a1.29,1.29,0,0,1-.64,1.15,2.88,2.88,0,0,1-1.57.41q-2.52,0-3-1.77l-1.42.29q.8,2.69,4.2,2.7a4.79,4.79,0,0,0,2.9-.8A2.47,2.47,0,0,0,83.31,50Q83.31,47.72,80.39,47.19Z"/><path class="cls-1" d="M91.62,44.22a3.85,3.85,0,0,0-3-1.27,4.09,4.09,0,0,0-3.16,1.38,5.83,5.83,0,0,0,0,7.18,4,4,0,0,0,3.17,1.35,4.3,4.3,0,0,0,2.58-.79,3.83,3.83,0,0,0,1.47-2l-1.39-.28a2.62,2.62,0,0,1-2.57,1.85,3,3,0,0,1-1.92-.74A3.61,3.61,0,0,1,85.84,48h6.94A5.65,5.65,0,0,0,91.62,44.22Zm-5.71,2.72a3.2,3.2,0,0,1,.86-2.1,2.54,2.54,0,0,1,1.88-.78,2.31,2.31,0,0,1,1.41.43,2.4,2.4,0,0,1,.83,1,4,4,0,0,1,.26,1.4Z"/><path class="cls-1" d="M97.08,43.41a4.66,4.66,0,0,0-1.39,2V43.21H94.39v9.39h1.49v-5a3.59,3.59,0,0,1,.87-2.36,2.64,2.64,0,0,1,2-.9h.3V43l-.59,0A2.56,2.56,0,0,0,97.08,43.41Z"/><polygon class="cls-1" points="104.39 50.85 101.73 43.21 100.08 43.21 103.5 52.6 105.04 52.6 108.34 43.21 107.02 43.21 104.39 50.85"/><rect class="cls-1" x="109.6" y="43.21" width="1.49" height="9.39"/><rect class="cls-1" x="109.53" y="39.92" width="1.59" height="1.62"/><path class="cls-1" d="M116.59,44.17q1.91,0,2.29,2.33l1.34-.25A4.08,4.08,0,0,0,119,43.87a3.43,3.43,0,0,0-2.5-.92,3.55,3.55,0,0,0-3,1.42,5.66,5.66,0,0,0-1.09,3.56,5.82,5.82,0,0,0,1,3.5A3.85,3.85,0,0,0,119,52a4.18,4.18,0,0,0,1.26-2.44l-1.34-.23q-.49,2.34-2.33,2.34a2.09,2.09,0,0,1-1.85-1,5.07,5.07,0,0,1-.66-2.8,4.84,4.84,0,0,1,.66-2.66A2.12,2.12,0,0,1,116.59,44.17Z"/><path class="cls-1" d="M129,44.22A3.85,3.85,0,0,0,126,43a4.09,4.09,0,0,0-3.16,1.38,5.83,5.83,0,0,0,0,7.18A4,4,0,0,0,126,52.87a4.3,4.3,0,0,0,2.58-.79,3.83,3.83,0,0,0,1.47-2l-1.39-.28a2.62,2.62,0,0,1-2.57,1.85,3,3,0,0,1-1.92-.74,3.61,3.61,0,0,1-.91-2.87h6.94A5.65,5.65,0,0,0,129,44.22Zm-5.71,2.72a3.2,3.2,0,0,1,.86-2.1,2.53,2.53,0,0,1,1.88-.78,2.31,2.31,0,0,1,1.41.43,2.4,2.4,0,0,1,.83,1,4,4,0,0,1,.26,1.4Z"/><path class="cls-1" d="M136.28,47.19l-1.86-.34q-1.49-.27-1.49-1.3a1.15,1.15,0,0,1,.58-1,2.76,2.76,0,0,1,1.49-.37,2.33,2.33,0,0,1,2.41,1.46l1.36-.29Q138,43,134.93,43a3.89,3.89,0,0,0-2.57.79,2.47,2.47,0,0,0-1,2,2.24,2.24,0,0,0,.7,1.72,3.7,3.7,0,0,0,1.88.87l2,.38q1.64.3,1.64,1.4a1.29,1.29,0,0,1-.64,1.15,2.88,2.88,0,0,1-1.57.41q-2.52,0-3-1.77l-1.42.29q.8,2.69,4.2,2.7a4.8,4.8,0,0,0,2.9-.8A2.47,2.47,0,0,0,139.2,50Q139.2,47.72,136.28,47.19Z"/><path class="cls-1" d="M108.66,33a11.59,11.59,0,0,0-5.87-1.24l5.33-7.48c.49-.67.77-1.1.78-1.42V20.88a.57.57,0,0,0-.59-.57H98a.56.56,0,0,0-.58.57v2.26a.57.57,0,0,0,.59.57h5.38l-6.18,8.71A2.68,2.68,0,0,0,96.84,34v2.29c0,.33.37.71.73.52a12.05,12.05,0,0,1,10.88,0,.55.55,0,0,0,.76-.52V33.83A1,1,0,0,0,108.66,33Z"/><path class="cls-1" d="M78,36.66v-10c0-1.69.2-3.62-.79-5a4.67,4.67,0,0,0-8,1.2C68.34,21,67.11,20,65.15,20A4.13,4.13,0,0,0,61,22.94H61V20.88a.59.59,0,0,0-.57-.53H57.48a.59.59,0,0,0-.6.57V36.71a.59.59,0,0,0,.56.52h3.13a.59.59,0,0,0,.6-.57V28.29c0-1.83-.09-4.35,2.16-4.35s1.93,2.59,1.93,4.35v8.37a.58.58,0,0,0,.56.57H69a.59.59,0,0,0,.6-.57V28.29a9.38,9.38,0,0,1,.29-3A2.08,2.08,0,0,1,71.73,24a1.63,1.63,0,0,1,1.84,1.36,19.83,19.83,0,0,1,.09,3v8.37a.58.58,0,0,0,.56.57h3.13A.59.59,0,0,0,78,36.66Z"/><path class="cls-1" d="M138.6,21.88A4.13,4.13,0,0,0,134.95,20c-2.16,0-3.39,1-4.27,3.19h-.06V20.79a.59.59,0,0,0-.56-.44h-2.91a.59.59,0,0,0-.6.52v15.8a.58.58,0,0,0,.56.57h3.12a.6.6,0,0,0,.61-.57v-8.5a6.91,6.91,0,0,1,.5-3,2,2,0,0,1,1.81-1.26c2.16,0,2,2.53,2,4.25v8.57a.59.59,0,0,0,.56.5h3.14a.59.59,0,0,0,.6-.5V26.8C139.42,25.27,139.42,23.14,138.6,21.88Z"/><path class="cls-1" d="M48.86,26.56A22,22,0,0,0,43,27.63a5.23,5.23,0,0,0-3.34,5,4.4,4.4,0,0,0,4.69,4.79,6.26,6.26,0,0,0,5.16-2.24,7.55,7.55,0,0,0,1.8,2.05.66.66,0,0,0,.74-.07h0c.63-.55,1.76-1.52,2.4-2a.57.57,0,0,0,0-.82,4.16,4.16,0,0,1-1.18-2.85V26.69c0-2,.15-3.9-1.38-5.29a7.19,7.19,0,0,0-4.72-1.53c-3,0-6.31,1.09-7,4.71a.54.54,0,0,0,.47.64l3,.32A.66.66,0,0,0,44.2,25a2.38,2.38,0,0,1,2.52-1.85,2.11,2.11,0,0,1,1.76.8,3.88,3.88,0,0,1,.38,2.23ZM48.27,33a2.55,2.55,0,0,1-2.17,1.4c-1.2,0-1.9-.9-1.9-2.23,0-2.62,2.39-3.1,4.66-3.1v.67A5.94,5.94,0,0,1,48.27,33Z"/><path class="cls-1" d="M89.57,26.56a22,22,0,0,0-5.89,1.07,5.23,5.23,0,0,0-3.34,5A4.41,4.41,0,0,0,85,37.45a6.26,6.26,0,0,0,5.17-2.24A7.55,7.55,0,0,0,92,37.26a.66.66,0,0,0,.74-.07h0c.63-.55,1.76-1.52,2.4-2a.57.57,0,0,0,0-.82A4.16,4.16,0,0,1,94,31.49V26.69c0-2,.15-3.9-1.38-5.29a7.19,7.19,0,0,0-4.72-1.53c-3,0-6.31,1.09-7,4.71a.54.54,0,0,0,.47.64l3,.32a.66.66,0,0,0,.54-.57,2.38,2.38,0,0,1,2.52-1.85,2.11,2.11,0,0,1,1.76.8,3.88,3.88,0,0,1,.38,2.23ZM89,33a2.55,2.55,0,0,1-2.17,1.4c-1.2,0-1.9-.9-1.9-2.23,0-2.62,2.39-3.1,4.66-3.1v.67A5.94,5.94,0,0,1,89,33Z"/><path class="cls-1" d="M116.46,20c-4.5,0-7,3.82-7,8.74s2.47,8.8,7,8.8c4.35,0,7.11-3.82,7.11-8.64C123.57,23.94,121.07,20,116.46,20Zm0,14.29c-2.44,0-2.41-3.71-2.41-5.64s.14-5,2.44-5a1.94,1.94,0,0,1,2,1.53,14.46,14.46,0,0,1,.46,4.19C119,31.39,118.87,34.31,116.46,34.31Z"/><path class="cls-1" d="M60,44.22A3.84,3.84,0,0,0,57,43a4.09,4.09,0,0,0-3.16,1.38,5.84,5.84,0,0,0,0,7.18A4,4,0,0,0,57,52.87a4.3,4.3,0,0,0,2.58-.79,3.83,3.83,0,0,0,1.47-2l-1.39-.28a2.62,2.62,0,0,1-2.57,1.85,3,3,0,0,1-1.92-.74A3.6,3.6,0,0,1,54.26,48H61.2A5.65,5.65,0,0,0,60,44.22Zm-5.71,2.72a3.21,3.21,0,0,1,.86-2.1,2.53,2.53,0,0,1,1.88-.78,2.31,2.31,0,0,1,1.41.43,2.4,2.4,0,0,1,.83,1,4,4,0,0,1,.26,1.4Z"/><path class="cls-1" d="M67.46,43a3.12,3.12,0,0,0-2.81,1.83V39.92H63.16V52.61h.72l.53-1.55a3.27,3.27,0,0,0,3,1.81,3.42,3.42,0,0,0,2.84-1.42,5.59,5.59,0,0,0,1.09-3.51,5.49,5.49,0,0,0-1.11-3.7A3.5,3.5,0,0,0,67.46,43Zm1.61,7.76a2.15,2.15,0,0,1-1.83,1A2.63,2.63,0,0,1,65.55,51a2.84,2.84,0,0,1-.9-2.1V46.81a3.11,3.11,0,0,1,.89-1.91,2.35,2.35,0,0,1,1.69-.74,2.11,2.11,0,0,1,1.86,1,5.21,5.21,0,0,1,.67,2.85A4.47,4.47,0,0,1,69.07,50.71Z"/></svg>