<svg id="Layer_1" xmlns="http://www.w3.org/2000/svg" viewBox="0 0 180 15">
  <style>
    .st0{fill:#AAB2B9;}
  </style>
  <title>
    Softlayer
  </title>
  <g id="Page-1">
    <g id="_x30_2-Features">
      <path id="Softlayer" class="st0" d="M3.8 2.6v3.1h9.6c2.9 0 3.9.7 3.9 3.4v2c0 2.7-.9 3.4-3.7 3.4H3.8c-2.7 0-3.7-.7-3.7-3.3v-1.1h3.1v1.7h10.9V8.5H4.5C1.6 8.5.7 7.8.7 5.1V3.5C.7.8 1.6.1 4.5.1h8.8c2.7 0 3.8.7 3.8 3.2v1h-3.2V2.6H3.8zM24.5 0h11c2.8 0 3.7.7 3.7 3.5v7.9c0 2.8-.9 3.5-3.7 3.5h-11c-2.8 0-3.7-.7-3.7-3.5V3.5c0-2.8.9-3.5 3.7-3.5zM43 .1h15.2v2.5H46.5v3.8h6.3V9h-6.3v5.5H43V.1zm28.2 14.5h-3.6V2.7h-7.1V.1h17.8v2.6h-7.1v11.9zm9-14.5h3.5v11.7h11.2v2.7H80.2V.1zm26.5-.1h3.4l8.7 15h-4l-1.8-3.3h-9.6l-1.8 3.3h-3.5l8.6-15zm15.5 8.3l-8-8.3h4.8l5.3 5.8 5.3-5.8h4.2l-8 8.2V15h-3.6V8.3zm32 6.3V.1H167c2.3 0 3.3.8 3.3 2.8v3.4c0 2-1.1 2.8-3.3 2.8h-2l6.9 5.5h-5l-6-5.5h-3.3v5.5h-3.4zm-18-12.3V0h15v2.3h-15zm0 6.9V6.9h15v2.3h-15zm0 5.8v-2.3h15V15h-15zM174.7.6v2.8h-.7V.6h-1V0h2.7v.6h-1zM180 0v3.5h-.7V1.6.7v.1l-.1.2c-.1.2-.1.4-.2.5l-.7 1.9h-.6l-.8-1.9c0-.1-.1-.3-.2-.5l-.1-.2V.7 3.4h-.6V-.1h1.1l.6 1.6c0 .1.1.3.2.5l.1.2.1.2.1-.2c.1-.3.2-.6.2-.7l.6-1.6h1zm-22.4 6.6h7.8c1.1 0 1.6-.2 1.6-1.1V3.8c0-1-.5-1.1-1.6-1.1h-7.8v3.9zm-46 2.4l-3.3-6.1-3.4 6.1h6.7zm-87.3 3.2h11.5V2.7H24.3v9.5z"/>
    </g>
  </g>
</svg>
