<?xml version="1.0" encoding="UTF-8"?>
<svg width="101px" height="75px" viewBox="0 0 101 75" version="1.1" xmlns="http://www.w3.org/2000/svg" xmlns:xlink="http://www.w3.org/1999/xlink">
    <!-- Generator: Sketch 41.2 (35397) - http://www.bohemiancoding.com/sketch -->
    <title>Page 1</title>
    <desc>Created with Sketch.</desc>
    <defs></defs>
    <g id="Page-1" stroke="none" stroke-width="1" fill="none" fill-rule="evenodd">
        <g id="Newly-Editted" transform="translate(-362.000000, -3465.000000)" fill="#AAB2B9">
            <g id="logos" transform="translate(120.000000, 3465.000000)">
                <g id="Page-1" transform="translate(242.500000, 0.000000)">
                    <path d="M49.9998832,40.5063291 L49.9998832,49.3670886 C66.1624309,49.3670886 78.7465507,33.753044 73.4595241,16.8169519 C71.1488292,9.41566916 65.2678239,3.5346151 57.8668824,1.22390109 C40.9306508,-4.0628894 25.3164557,8.52161458 25.3164557,24.6837365 L34.8738591,24.6837365 C34.8752587,24.6837365 34.8760984,24.6814971 34.8760984,24.6814971 C34.8777779,14.5384283 44.9157947,6.6965564 55.5797004,10.5661276 C59.5301349,11.999862 62.6814132,15.1503267 64.1159754,19.1010738 C67.9082009,29.5435522 60.4678823,39.3873681 50.6329114,39.7942937 L50.6329114,30.3803417 C50.6329114,30.3803417 50.6320192,30.3797468 50.631127,30.3797468 L40.5081135,30.3797468 C40.5072213,30.3797468 40.5063291,30.381234 40.5063291,30.381234 L40.5063291,40.5063291 L49.9998832,40.5063291 Z M40.5045876,48.1012658 L32.913134,48.1012658 L32.9113924,48.0995241 L32.9113924,40.5063291 L40.5063291,40.5063291 L40.5063291,48.0995241 C40.5063291,48.0995241 40.5054583,48.1012658 40.5045876,48.1012658 Z M32.9113924,40.5063291 L26.5866056,40.5063291 C26.5840093,40.5063291 26.5822785,40.504021 26.5822785,40.504021 L26.5822785,34.1815429 C26.5822785,34.1815429 26.5840093,34.1772152 26.5866056,34.1772152 L32.9067768,34.1772152 C32.9093731,34.1772152 32.9113924,34.1789463 32.9113924,34.1789463 L32.9113924,40.5063291 Z" id="Combined-Shape"></path>
                    <path d="M8.90027264,59.6711613 C7.60387537,58.8236103 5.98995131,58.3940561 4.10436222,58.3940561 L-0.00011684518,58.3940561 L-0.00011684518,70.66153 L4.10436222,70.66153 C5.98527751,70.66153 7.59978578,70.2080352 8.90202532,69.3142543 C9.61069133,68.8406714 10.1674586,68.1785911 10.5568452,67.3472757 C10.9444791,66.5200881 11.1413632,65.544579 11.1413632,64.4482664 C11.1413632,63.3640616 10.9444791,62.4012108 10.5568452,61.5858558 C10.1671665,60.7669235 9.609815,60.1224546 8.90027264,59.6711613 Z M13.923921,58.2278481 C13.5735929,58.2278481 13.2720151,58.3528515 13.0287821,58.597639 C12.7829561,58.8332927 12.6582278,59.1323614 12.6582278,59.4857114 C12.6582278,59.8382784 12.7824374,60.1415227 13.0272263,60.3881369 C13.2720151,60.6347512 13.5735929,60.7594937 13.923921,60.7594937 C14.2739898,60.7594937 14.5755675,60.6347512 14.8206157,60.3881369 C15.0656638,60.1412617 15.1898734,59.8377565 15.1898734,59.4857114 C15.1898734,59.1328833 15.0651452,58.8338146 14.8206157,58.5994658 C14.5755675,58.3528515 14.2739898,58.2278481 13.923921,58.2278481 Z M12.6582278,70.8860759 L15.1898734,70.8860759 L15.1898734,62.0253165 L12.6582278,62.0253165 L12.6582278,70.8860759 Z M23.0732912,62.9701705 C22.3863256,62.3734058 21.6188969,62.0253165 20.7894624,62.0253165 C19.531756,62.0253165 18.486311,62.4500079 17.682544,63.287281 C16.868683,64.1175134 16.4556962,65.1862827 16.4556962,66.463455 C16.4556962,67.7119015 16.8620499,68.7770097 17.6652401,69.6308986 C18.474775,70.4574699 19.525988,70.8762472 20.7894624,70.8762472 C21.6679246,70.8762472 22.4229522,70.6374287 23.0383949,70.1657057 L23.0383949,70.3693211 C23.0383949,71.1029559 22.8370927,71.6735294 22.4402562,72.0658339 C22.0442848,72.4572936 21.4945971,72.655558 20.8070547,72.655558 C19.7552649,72.655558 19.0962741,72.2519885 18.2936607,71.1925128 L16.742076,72.6485174 L16.7838938,72.7056874 C17.1190131,73.1650188 17.6323626,73.614775 18.309811,74.0420011 C18.9875478,74.4672558 19.8394773,74.6835443 20.8422394,74.6835443 C22.1948289,74.6835443 23.2893017,74.2763136 24.0950875,73.4733989 C24.9054876,72.6662598 25.3164557,71.5853806 25.3164557,70.2620217 L25.3164557,62.2314664 L23.0732912,62.2314664 L23.0732912,62.9701705 Z M26.5822785,70.8860759 L29.1139241,70.8860759 L29.1139241,62.0253165 L26.5822785,62.0253165 L26.5822785,70.8860759 Z M27.8481013,58.2278481 C27.4977373,58.2278481 27.1958693,58.3528515 26.9528707,58.597639 C26.7070195,58.8332927 26.5822785,59.1323614 26.5822785,59.4857114 C26.5822785,59.8382784 26.7065008,60.1415227 26.9513147,60.3881369 C27.1958693,60.6347512 27.4977373,60.7594937 27.8481013,60.7594937 C28.1979466,60.7594937 28.4998146,60.6347512 28.7448878,60.3881369 C28.9899611,60.1412617 29.1139241,59.8377565 29.1139241,59.4857114 C29.1139241,59.1328833 28.9891831,58.8338146 28.7448878,58.5994658 C28.4998146,58.3528515 28.1979466,58.2278481 27.8481013,58.2278481 Z M33.5479116,59.4936709 L31.5435204,59.4936709 L31.5435204,61.913163 L30.3797468,61.913163 L30.3797468,63.9670074 L31.5435204,63.9670074 L31.5435204,67.687087 C31.5435204,68.8510558 31.753546,69.6838881 32.1681854,70.1619111 C32.5841133,70.642501 33.3221663,70.8860759 34.3622438,70.8860759 C34.692873,70.8860759 35.0258215,70.8738116 35.3512967,70.8504239 L35.443038,70.8438639 L35.443038,68.7914455 L34.7449285,68.8319463 C34.2601946,68.8319463 33.9365233,68.7375396 33.7826764,68.5524341 C33.6270255,68.3639059 33.5479116,67.9648879 33.5479116,67.3673592 L33.5479116,63.9670074 L35.443038,63.9670074 L35.443038,61.913163 L33.5479116,61.913163 L33.5479116,59.4936709 Z M46.835443,70.8860759 L49.3670886,70.8860759 L49.3670886,58.2278481 L46.835443,58.2278481 L46.835443,70.8860759 Z M71.8610811,67.6664841 C71.4329065,68.0939638 70.9947321,68.4645003 70.6571621,68.65719 L70.6571621,68.6577297 C70.3265616,68.8466412 69.9086899,68.9427162 69.4159709,68.9427162 C68.7105283,68.9427162 68.1429621,68.7138634 67.6811517,68.2426642 C67.2214625,67.7738937 66.9884361,67.1715359 66.9884361,66.4512433 C66.9884361,65.7312206 67.2184322,65.1296723 67.672364,64.6644103 C68.1281139,64.1961796 68.6923468,63.9684063 69.3971833,63.9684063 C70.1683824,63.9684063 70.981399,64.3956162 71.6780539,65.1291326 L73.2604514,63.7776057 C72.2286507,62.5817958 70.9126123,62.0253165 69.3420328,62.0253165 C68.0275095,62.0253165 66.8881348,62.4517167 65.9554233,63.2923729 C65.0275601,64.1268221 64.556962,65.1898541 64.556962,66.4512433 C64.556962,67.7129023 65.0269541,68.7783632 65.9539081,69.6184797 C66.8814682,70.4596757 68.021449,70.8860759 69.3420328,70.8860759 C71.0753368,70.8860759 72.4741011,70.2194882 73.4177215,68.9985801 L71.8610811,67.6664841 Z M81.2659534,63.4067993 C80.9240768,62.9855267 80.4594049,62.6465655 79.8832117,62.3985516 C79.3091515,62.1508077 78.6397193,62.0253165 77.8941114,62.0253165 C76.5503717,62.0253165 75.4506991,62.4646707 74.625259,63.3312347 C73.8238904,64.1915917 73.4177215,65.260561 73.4177215,66.5092661 C73.4177215,67.7930548 73.8635018,68.8563567 74.7419602,69.6684063 C75.6164574,70.4764078 76.7862118,70.8860759 78.2195341,70.8860759 C79.842991,70.8860759 81.1751519,70.3047682 82.1788432,69.1575356 L82.2330803,69.0957346 L80.662337,67.7590507 C80.5169937,67.9147678 80.3110146,68.0912651 80.1227082,68.2483315 C79.8847353,68.4469585 79.6613881,68.6007864 79.4228057,68.7057672 C79.0626469,68.8647228 78.6592203,68.9429861 78.2076507,68.9429861 C77.5406561,68.9429861 76.9882298,68.7691875 76.5662163,68.4264481 C76.1710167,68.1058383 75.9400519,67.6732309 75.8791113,67.1391511 L82.2568471,67.1391511 L82.278481,66.3611055 C82.278481,65.8102935 82.1937736,65.279722 82.0267964,64.7836944 C81.8598193,64.2865872 81.6035642,63.8234842 81.2659534,63.4067993 Z M88.8452402,62.856797 L88.8449573,62.856797 C88.1678027,62.3054452 87.231553,62.0253165 86.0627966,62.0253165 C85.3191711,62.0253165 84.6239138,62.1813034 83.9948445,62.4854509 C83.4127291,62.7669291 82.8416451,63.2332706 82.4787423,63.8434548 L82.5010878,63.8696326 L83.9320507,65.1766303 C84.5215203,64.2801103 85.1768951,63.9684063 86.0458253,63.9684063 C86.5125359,63.9684063 86.90033,64.0882302 87.1981762,64.3238298 C87.4943252,64.5578102 87.6385812,64.8554808 87.6385812,65.232764 L87.6385812,65.6440514 C87.0844685,65.4834766 86.53177,65.4017049 85.99378,65.4017049 C84.8818774,65.4017049 83.9767418,65.6516078 83.3043957,66.1435874 C82.6238468,66.6423138 82.278481,67.3553198 82.278481,68.2631746 C82.278481,69.0595715 82.5698216,69.7061886 83.1457141,70.1868335 C83.7266981,70.6504763 84.4525037,70.8860759 85.3036141,70.8860759 C86.1544416,70.8860759 86.9503953,70.5589892 87.6730895,69.9987316 L87.6730895,70.6966247 L89.8734177,70.6966247 L89.8734177,65.2492263 C89.8734177,64.2177695 89.5274862,63.4132763 88.8452402,62.856797 Z M99.0987717,63.0448374 C98.4983167,62.3686499 97.6541316,62.0253165 96.5896886,62.0253165 C95.7345862,62.0253165 95.039696,62.2735093 94.5200295,62.7632764 L94.5200295,62.22718 L92.4050633,62.22718 L92.4050633,70.8860759 L94.5615155,70.8860759 L94.5615155,66.1105703 C94.5615155,65.4542382 94.7159962,64.9335848 95.0208635,64.5618471 C95.3246392,64.1909367 95.7425012,64.010859 96.298195,64.010859 C96.786747,64.010859 97.1571186,64.1719086 97.4300527,64.5031081 C97.7046244,64.8359623 97.8432749,65.2942917 97.8432749,65.866514 L97.8432749,70.8860759 L100,70.8860759 L100,65.866514 C100,64.6674669 99.6967702,63.7182673 99.0987717,63.0448374 Z M43.2756199,62.856797 L43.2753371,62.856797 C42.5981825,62.3054452 41.6619328,62.0253165 40.4931764,62.0253165 C39.7495509,62.0253165 39.0542935,62.1813034 38.4252242,62.4854509 C37.8431089,62.7669291 37.271742,63.2332706 36.909122,63.8434548 L36.9314676,63.8696326 L38.3624305,65.1766303 C38.9519001,64.2801103 39.6072748,63.9684063 40.4762051,63.9684063 C40.9431985,63.9684063 41.3307097,64.0882302 41.6285559,64.3238298 C41.924705,64.5578102 42.068961,64.8554808 42.068961,65.232764 L42.068961,65.6440514 C41.5148482,65.4834766 40.9621498,65.4017049 40.4244426,65.4017049 C39.3122572,65.4017049 38.4071215,65.6516078 37.7350583,66.1435874 C37.0542266,66.6423138 36.7088608,67.3553198 36.7088608,68.2631746 C36.7088608,69.0595715 37.0002013,69.7061886 37.5760939,70.1868335 C38.1570778,70.6504763 38.8828835,70.8860759 39.7339938,70.8860759 C40.5848213,70.8860759 41.380775,70.5589892 42.1031864,69.9987316 L42.1031864,70.6966247 L44.3037975,70.6966247 L44.3037975,65.2492263 C44.3037975,64.2177695 43.9578659,63.4132763 43.2756199,62.856797 Z M56.9620253,70.8860759 C53.4720757,70.8860759 50.6329114,68.047187 50.6329114,64.556962 C50.6329114,61.0670124 53.4720757,58.2278481 56.9620253,58.2278481 C60.4522503,58.2278481 63.2911392,61.0670124 63.2911392,64.556962 C63.2911392,68.047187 60.4522503,70.8860759 56.9620253,70.8860759 Z M84.8773518,67.4586814 C85.1307897,67.2900104 85.488884,67.2050002 85.9420176,67.2050002 C86.4800076,67.2050002 87.0505259,67.3078221 87.6385812,67.5113067 L87.6385812,68.3425174 C87.1529194,68.7735055 86.5040502,68.9921031 85.709228,68.9921031 C85.3225654,68.9921031 85.0218906,68.9100615 84.8151237,68.7475976 C84.6123167,68.588912 84.5136004,68.3870465 84.5136004,68.1312064 C84.5136004,67.8405525 84.6326823,67.6203357 84.8773518,67.4586814 Z M76.0040395,65.4017049 C76.1198266,64.9966247 76.330681,64.6590128 76.6326415,64.3966957 C76.9589783,64.1125188 77.3834294,63.9684063 77.8947208,63.9684063 C78.4782268,63.9684063 78.9301012,64.1154874 79.2372417,64.4064111 C79.5221388,64.6752052 79.6827173,65.0098485 79.7165393,65.4017049 L76.0040395,65.4017049 Z M22.4757292,68.1926364 C22.0774507,68.6339438 21.5661199,68.8482609 20.9126086,68.8482609 C20.2590973,68.8482609 19.7509389,68.6339438 19.3584284,68.1929181 C18.9676483,67.7541453 18.7695184,67.1723067 18.7695184,66.463455 C18.7695184,65.7439015 18.9676483,65.154459 19.3587168,64.7125884 C19.7457478,64.2749421 20.2686145,64.0530211 20.9126086,64.0530211 C21.5655431,64.0530211 22.0771623,64.2684647 22.4757292,64.7134332 C22.8722773,65.1553039 23.0732912,65.7441831 23.0732912,66.463455 C23.0732912,67.1720251 22.8722773,67.7535821 22.4757292,68.1926364 Z M2.39725414,60.4678041 L3.68547225,60.4678041 C5.1188705,60.4678041 6.2987147,60.7333517 7.19345667,61.2578426 C8.1866407,61.8219593 8.69053554,62.895432 8.69053554,64.4482664 C8.69053554,66.0473308 8.18547225,67.169235 7.18995131,67.7828839 L7.18936709,67.7828839 C6.33230769,68.3167309 5.15976631,68.5877821 3.70329114,68.5877821 L2.39725414,68.5877821 L2.39725414,60.4678041 Z M56.9620253,60.4583643 C54.7020406,60.4583643 52.8634276,62.2969773 52.8634276,64.556962 C52.8634276,66.8172222 54.7020406,68.6558351 56.9620253,68.6558351 C59.22201,68.6558351 61.0608984,66.8172222 61.0608984,64.556962 C61.0608984,62.2969773 59.22201,60.4583643 56.9620253,60.4583643 Z M39.3077315,67.4586814 C39.5611695,67.2900104 39.9195466,67.2050002 40.3723973,67.2050002 C40.9103873,67.2050002 41.4809056,67.3078221 42.068961,67.5113067 L42.068961,68.3425174 C41.5830163,68.7735055 40.93443,68.9921031 40.1396077,68.9921031 C39.7529451,68.9921031 39.4522704,68.9100615 39.2455034,68.7475976 C39.0426965,68.588912 38.9439801,68.3870465 38.9439801,68.1312064 C38.9439801,67.8405525 39.063062,67.6203357 39.3077315,67.4586814 Z" id="Combined-Shape"></path>
                </g>
            </g>
        </g>
    </g>
</svg>