<svg id="Layer_1" xmlns="http://www.w3.org/2000/svg" viewBox="0 0 155 29">
  <style>
    .st0{fill:#AAB2B9;}
  </style>
  <title>
    Openstack
  </title>
  <g id="Page-1">
    <g id="_x30_2-Features">
      <path id="Openstack" class="st0" d="M26.4 0c1.5 0 2.7 1.2 2.7 2.7v6.5h-6.6V8.1c0-.8-.7-1.5-1.5-1.5H8c-.8 0-1.5.7-1.5 1.5v1.1H-.1V2.7C-.1 1.2 1.1 0 2.6 0h23.8zm-4.1 19.8v-1.1h6.5v6.6c0 1.6-1.2 2.8-2.7 2.8H2.6c-1.5 0-2.7-1.3-2.7-2.8v-6.6h6.5v1.1c0 .8.6 1.5 1.4 1.5h12.9c1 0 1.6-.7 1.6-1.5zM0 16.9v-6.1h6.1v6.1H0zm23 0v-6.1h6.1v6.1H23zm26.1-3c0 4.3-2.9 7.5-6.9 7.5s-6.9-3.1-6.9-7.5v-.3c0-4.3 2.9-7.6 6.9-7.6s6.9 3.2 6.9 7.5v.4zm15.3-.2c0 4.7-2.9 7.1-6 7.1-2.2 0-3.6-1.1-4.5-2.4v6.2h-3.3V6.5h3.3v2.3c1-1.4 2.3-2.5 4.5-2.5 3.1 0 6 2.4 6 7.1v.3zm13.3 5.5c-1.3 1.4-2.9 2.3-5.1 2.3-3.7 0-6.7-2.9-6.7-7.5v-.2c0-4.4 2.6-7.6 6.2-7.6 4 0 6.1 3.3 6.1 7.8v1.1h-9.1c.3 2.5 1.8 3.8 3.7 3.8 1.4 0 2.4-.6 3.4-1.6l1.5 1.9zm9.6-13.1c3 0 4.8 2 4.8 5.3v10.1h-3.3v-9.2c0-2.1-1-3.3-2.8-3.3-1.7 0-2.9 1.2-2.9 3.3v9.1h-3.3V6.3h3.3v2.2c.8-1.2 2.1-2.4 4.2-2.4zm17 10.9c0 2.9-2.2 4.5-5.1 4.5-1.8 0-3.9-.6-5.6-2.1l1.5-2.3c1.4 1.1 2.8 1.7 4.1 1.7 1.3 0 2.1-.7 2.1-1.6 0-1.1-1.2-1.5-3-2.3-2.2-1-4.1-2-4.1-4.4v-.1c0-2.7 2.2-4.3 5-4.3 1.7 0 3.5.6 4.9 1.6l-1.4 2.3c-1.1-.8-2.4-1.3-3.6-1.3s-1.9.6-1.9 1.5v.1c0 1 1.2 1.5 3 2.3 2.4 1 4.1 2 4.1 4.4zm9.2 3.9c-.7.4-1.5.6-2.5.6-2.1 0-3.6-.9-3.6-3.7V9.6h-1l-.5-2.6h1.5V3.1h3V7h3.1v2.6h-3.1v7.6c0 1.1.6 1.6 1.5 1.6.6 0 1.1-.1 1.6-.4v2.5zm12.3-13.2c1 1 1.5 2.4 1.5 4.3v9.2h-3.2v-1.8c-.9 1.3-2.3 2.1-4.3 2.1-2.6 0-4.7-1.7-4.7-4.6v-.1c0-3.2 2.2-4.8 5.5-4.8 1.5 0 2.5.3 3.6.6V12c0-2-1.2-3-3.3-3-1.5 0-2.7.4-3.7.9l-.9-2.5c1.5-.7 3-1.2 5.1-1.2 1.8-.1 3.4.5 4.4 1.5zm13.8 11.6c-1.1 1.3-2.5 2.2-4.6 2.2-3.6 0-6.2-3.1-6.2-7.5v-.3c0-4.4 2.7-7.6 6.3-7.6 2 0 3.3.8 4.4 2l-1.6 2.3c-.7-.8-1.5-1.5-2.8-1.5-1.9 0-3.3 2-3.3 4.8v.1c0 2.9 1.4 4.8 3.4 4.8 1.2 0 2-.6 2.8-1.5l1.6 2.2zm11.3-5.5l4.1 7.7h-3.4l-2.8-5.3 2.1-2.4zm.2-7h3.8l-9 10.4v4.2h-3.2V1.5h3.2v11.7l5.2-6.4zm-26.9 9.4v-1.5c-.8-.3-1.8-.5-2.9-.5-1.9 0-3 .9-3 2.5v.1c0 1.5 1.1 2.3 2.5 2.4 1.9-.1 3.4-1.3 3.4-3zm-52-7.4c-1.7 0-2.9 1.5-3.1 4h6.2c-.2-2.3-1.3-4-3.1-4zm-18.3 4.8c0 2.8 1.7 4.5 3.7 4.5s3.6-1.7 3.6-4.5v-.2c0-2.8-1.6-4.6-3.6-4.6s-3.7 1.8-3.7 4.5v.3zm-15.4.3c0 2.8 1.6 4.8 3.7 4.8 2.2 0 3.7-2.1 3.7-4.8v-.2c0-2.8-1.6-4.8-3.7-4.8-2.2 0-3.7 2-3.7 4.8v.2z"/>
    </g>
  </g>
</svg>
