<?xml version="1.0" encoding="UTF-8"?>
<svg width="180px" height="15px" viewBox="0 0 180 15" version="1.1" xmlns="http://www.w3.org/2000/svg" xmlns:xlink="http://www.w3.org/1999/xlink">
    <!-- Generator: Sketch 41.2 (35397) - http://www.bohemiancoding.com/sketch -->
    <title>Combined Shape</title>
    <desc>Created with Sketch.</desc>
    <defs></defs>
    <g id="Page-1" stroke="none" stroke-width="1" fill="none" fill-rule="evenodd">
        <g id="Newly-Editted" transform="translate(-565.000000, -3499.000000)" fill="#AAB2B9">
            <g id="logos" transform="translate(120.000000, 3465.000000)">
                <path d="M448.766143,36.6418807 L448.766143,39.7525364 L458.391291,39.7525364 C461.291423,39.7525364 462.248064,40.4542826 462.248064,43.1700093 L462.248064,45.1619618 C462.248064,47.8367795 461.319954,48.5589803 458.525557,48.5810082 L448.720829,48.5810082 C445.971746,48.5589803 445.03021,47.8588074 445,45.2878356 L445,45.1399339 L445.023496,44.156545 L448.168662,44.1502513 L448.168662,45.8621347 L459.079401,45.8621347 L459.079401,42.5548012 L449.454253,42.5548012 C446.554122,42.5548012 445.627691,41.8546284 445.627691,39.1341814 L445.627691,37.5387314 C445.627691,34.8198578 446.554122,34.119685 449.454253,34.119685 L458.21339,34.119685 C460.962473,34.119685 462.038274,34.7931097 462.038274,37.2869838 L462.034917,38.3034145 L458.869612,38.2955474 L458.869612,36.6418807 L448.766143,36.6418807 Z M469.485442,34 L480.515398,34 C483.331557,34 484.231163,34.7278839 484.231163,37.5463942 L484.231163,45.4551959 C484.231163,48.2737061 483.331557,48.999958 480.515398,48.999958 L469.485442,48.999958 C466.669283,48.999958 465.769676,48.2737061 465.769676,45.4551959 L465.769676,37.5463942 C465.769676,34.7278839 466.669283,34 469.485442,34 Z M487.960453,34.119685 L503.131973,34.119685 L503.131973,36.6418807 L491.44739,36.6418807 L491.44739,40.4542826 L497.755531,40.4542826 L497.755531,43.0881914 L491.44739,43.0881914 L491.44739,48.5810082 L487.960453,48.5810082 L487.960453,34.119685 Z M516.176584,48.5808508 L512.590021,48.5808508 L512.590021,36.6983666 L505.504166,36.6983666 L505.504166,34.1195276 L523.29097,34.1195276 L523.29097,36.6983666 L516.176584,36.6983666 L516.176584,48.5808508 Z M525.165384,34.119685 L528.653952,34.119685 L528.653952,45.8621347 L539.899609,45.8621347 L539.899609,48.5810082 L525.165384,48.5810082 L525.165384,34.119685 Z M551.691912,34 L555.113964,34 L563.846325,48.999958 L559.864421,48.999958 L558.034137,45.7159629 L548.387461,45.7159629 L546.616806,48.999958 L543.077152,48.999958 L551.691912,34 Z M567.242967,42.2841679 L559.230953,34 L564.012641,34 L569.306413,39.7561584 L574.630406,34 L578.846283,34 L570.861133,42.1960384 L570.861133,48.999958 L567.242967,48.999958 L567.242967,42.2841679 Z M599.181868,48.5808508 L602.589424,48.5808508 L602.589424,43.1147822 L605.881881,43.1147822 L611.886442,48.5808508 L616.851876,48.5808508 L609.980026,43.1147822 L611.944801,43.1147822 C614.225691,43.1147822 615.292376,42.331218 615.292376,40.3125173 L615.292376,36.9217925 C615.292376,34.9046653 614.225691,34.1195276 611.944801,34.1195276 L599.181868,34.1195276 L599.181868,48.5808508 Z M581.153969,36.3076859 L596.153927,36.3076859 L596.153927,34 L581.153969,34 L581.153969,36.3076859 Z M581.153969,43.2307434 L596.153927,43.2307434 L596.153927,40.9230576 L581.153969,40.9230576 L581.153969,43.2307434 Z M581.153969,48.999958 L596.153927,48.999958 L596.153927,46.6922722 L581.153969,46.6922722 L581.153969,48.999958 Z M619.746748,34.6230428 L619.746748,37.4615288 L619.050739,37.4615288 L619.050739,34.6230428 L618.076942,34.6230428 L618.076942,34 L620.74678,34 L620.74678,34.6230428 L619.746748,34.6230428 Z M625,34 L625,37.4615288 L624.30399,37.4615288 L624.30399,35.5762174 C624.30399,35.4240979 624.307077,35.2574137 624.31788,35.0729283 L624.331769,34.8188563 L624.334856,34.7201404 L624.30399,34.8140014 L624.228371,35.0502722 C624.160467,35.2638869 624.10491,35.4224796 624.066329,35.5260503 L623.319392,37.4615288 L622.700545,37.4615288 L621.950521,35.5389967 C621.90268,35.4176247 621.850209,35.2606503 621.788479,35.0680734 L621.711316,34.8318026 C621.70823,34.8253294 621.69897,34.7913453 621.677364,34.734705 L621.688167,34.8318026 C621.7036,35.176499 621.711316,35.4240979 621.711316,35.5762174 L621.711316,37.4615288 L621.013763,37.4615288 L621.013763,34 L622.100217,34 L622.708261,35.5972552 C622.751472,35.7040626 622.805486,35.8642736 622.870303,36.0697968 L622.945923,36.302831 L623.00611,36.4824615 L623.061667,36.3060676 C623.165066,35.9678443 623.245315,35.7331918 623.296243,35.5972552 L623.895027,34 L625,34 Z M602.589424,40.6492297 L602.589424,36.6134018 L610.385302,36.6134018 C611.453608,36.6134018 611.944801,36.8100796 611.944801,37.762 L611.944801,39.5006315 C611.944801,40.4525519 611.453608,40.6492297 610.385302,40.6492297 L602.589424,40.6492297 Z M556.559971,43.0114003 L553.285336,36.9085882 L549.891442,43.0114003 L556.559971,43.0114003 Z M469.254021,46.1798158 L480.748448,46.1798158 L480.748448,36.6748919 L469.254021,36.6748919 L469.254021,46.1798158 Z" id="Combined-Shape"></path>
            </g>
        </g>
    </g>
</svg>