<svg id="Layer_1" xmlns="http://www.w3.org/2000/svg" viewBox="0 0 190 27">
  <style>
    .st0{fill:#AAB2B9;}
  </style>
  <title>
    Microsoft Azure
  </title>
  <g id="Page-1">
    <g id="_x30_2-Features">
      <path id="Microsoft-Azure" class="st0" d="M26.1 0L11.9 2v10.5h14.2V0zM0 3.6v8.9h10.7V2.2L0 3.6zm11.9 10.2v10.4l14.2 2V13.9H11.9zm-1.2 0zM0 13.8h10.7V24L0 22.5v-8.7zm50.8 7.3h-2.5v-9.9c0-.8.1-1.8.1-3-.2.7-.3 1.1-.4 1.4L43.4 21h-1.7L37.1 9.7c-.1-.3-.3-.8-.4-1.5.1.6.1 1.6.1 3V21h-2.3V5.7h3.6l4 10.2c.3.8.5 1.4.6 1.7h.1c.3-.8.5-1.4.6-1.8l4.1-10.1h3.4l-.1 15.4zm3.5 0V10.2h2.5v10.9h-2.5zm1.2-13.2c-.4 0-.8-.1-1-.4-.3-.3-.4-.6-.4-1s.1-.7.4-1c.3-.3.6-.4 1-.4s.8.1 1.1.4c.3.3.4.6.4 1s-.1.7-.4 1c-.3.3-.6.4-1.1.4zm12.3 12.7c-.9.5-1.9.8-3.1.8-1.6 0-2.9-.5-3.9-1.5s-1.5-2.3-1.5-3.9c0-1.8.5-3.2 1.6-4.3 1.1-1.1 2.5-1.6 4.3-1.6 1 0 1.9.2 2.6.5v2.3c-.8-.6-1.6-.9-2.4-.9-1 0-1.9.4-2.6 1.1-.7.7-1 1.6-1 2.8 0 1.1.3 2 .9 2.7.6.7 1.5 1 2.5 1 .9 0 1.7-.3 2.5-.9l.1 1.9zm8.8-8c-.3-.2-.7-.4-1.3-.4-.7 0-1.3.3-1.8 1s-.7 1.6-.7 2.7v5.2h-2.5V10.2h2.5v2.2c.2-.8.6-1.4 1.1-1.8.5-.4 1.1-.6 1.7-.6.4 0 .8.1 1 .2v2.4zm6.6 8.8c-1.7 0-3-.5-4-1.5s-1.5-2.4-1.5-4c0-1.8.5-3.3 1.6-4.3 1-1 2.5-1.5 4.2-1.5 1.7 0 3 .5 4 1.5s1.4 2.4 1.4 4.2c0 1.7-.5 3.1-1.5 4.2-1.1.9-2.5 1.4-4.2 1.4zm7.5-.6v-2.3c.9.7 1.9 1.1 3.1 1.1 1.5 0 2.2-.4 2.2-1.3 0-.2-.1-.5-.2-.6-.1-.2-.3-.3-.5-.5-.2-.1-.5-.3-.8-.4-.3-.1-.6-.2-1-.4l-1.2-.6c-.4-.2-.7-.4-.9-.7-.2-.3-.4-.5-.5-.9-.1-.3-.2-.7-.2-1.1 0-.5.1-1 .4-1.4.2-.4.6-.7 1-1 .4-.3.9-.5 1.4-.6.5-.1 1.1-.2 1.6-.2 1 0 1.9.2 2.7.5v2.2c-.8-.5-1.6-.8-2.6-.8-.3 0-.6 0-.8.1-.3.1-.5.2-.6.3-.2.1-.3.2-.4.4-.1.2-.1.3-.1.5s0 .4.1.6c.1.2.2.3.4.4.2.1.4.2.7.3l.9.3c.5.2.9.4 1.3.6.4.2.7.4 1 .7.3.3.5.5.6.9.1.3.2.7.2 1.2 0 .6-.1 1-.4 1.4-.3.4-.6.8-1 1-.4.3-.9.5-1.5.6-.6.1-1.1.2-1.8.2-1.2.1-2.3-.1-3.1-.5zm14.9.6c-1.7 0-3-.5-4-1.5s-1.5-2.4-1.5-4c0-1.8.5-3.3 1.6-4.3 1-1 2.5-1.5 4.2-1.5 1.7 0 3 .5 4 1.5s1.4 2.4 1.4 4.2c0 1.7-.5 3.1-1.5 4.2-1.1.9-2.5 1.4-4.2 1.4zM119.9 7c-.3-.2-.7-.3-1.1-.3-1.2 0-1.8.7-1.8 2v1.5h2.5v1.9H117v9h-2.5v-9h-1.9v-1.9h1.9V8.4c0-1.1.4-2.1 1.1-2.7.8-.7 1.7-1 2.8-1 .6 0 1.1.1 1.4.2V7zm7.2 14c-.5.2-1.1.4-1.9.4-2.1 0-3.2-1-3.2-3v-6.2h-1.8v-1.9h1.8V7.8l2.5-.7v3.2h2.6v1.9h-2.6v5.4c0 .6.1 1.1.4 1.4.2.3.6.4 1.2.4.4 0 .8-.1 1.1-.4v2zm20.9.1h-2.8l-1.4-3.9h-6l-1.3 3.9h-2.8l5.7-15.3h2.9l5.7 15.3zm9.9-9.8l-5.9 7.9h5.9v1.9h-9.3v-.9l6-8h-5.4v-1.9h8.8v1zm11.6 9.8H167v-1.7c-.7 1.3-1.8 2-3.3 2-2.6 0-3.9-1.5-3.9-4.6v-6.5h2.5v6.3c0 2 .8 2.9 2.3 2.9.7 0 1.3-.3 1.8-.8s.7-1.2.7-2.1v-6.3h2.5l-.1 10.8zm9.5-8.5c-.3-.2-.7-.4-1.3-.4-.7 0-1.3.3-1.8 1s-.7 1.6-.7 2.7v5.2h-2.5V10.2h2.5v2.2c.2-.8.6-1.4 1.1-1.8.5-.4 1.1-.6 1.7-.6.4 0 .8.1 1 .2v2.4zm11 3.7h-7.4c0 1 .3 1.8.9 2.3.6.5 1.4.8 2.4.8 1.2 0 2.2-.3 3.2-1v2c-1 .6-2.3.9-3.9.9s-2.9-.5-3.8-1.5c-.9-1-1.4-2.4-1.4-4.2 0-1.7.5-3.1 1.5-4.1 1-1.1 2.2-1.6 3.7-1.6s2.6.5 3.5 1.4c.8 1 1.2 2.3 1.2 4l.1 1zm-2.4-1.7c0-.9-.2-1.6-.6-2.1-.4-.5-1-.7-1.7-.7s-1.3.3-1.8.8-.8 1.2-.9 2h5zm-44.4.6l-2.1-6.1c-.1-.2-.1-.5-.2-1-.1.4-.1.7-.2 1l-2.1 6.1h4.6zm-37.5-3.3c-1 0-1.7.3-2.3 1-.6.7-.8 1.6-.8 2.8 0 1.1.3 2 .9 2.7.6.7 1.3 1 2.3 1 1 0 1.7-.3 2.2-1 .5-.6.8-1.6.8-2.8 0-1.2-.3-2.1-.8-2.8-.6-.5-1.3-.9-2.3-.9zm-22.4 0c-1 0-1.7.3-2.3 1-.6.7-.8 1.6-.8 2.8 0 1.1.3 2 .9 2.7.6.7 1.3 1 2.3 1 1 0 1.7-.3 2.2-1 .5-.6.8-1.6.8-2.8 0-1.2-.3-2.1-.8-2.8-.6-.5-1.3-.9-2.3-.9z"/>
    </g>
  </g>
</svg>
