<?xml version="1.0" encoding="utf-8"?>
<!-- Generator: Adobe Illustrator 16.2.1, SVG Export Plug-In . SVG Version: 6.00 Build 0)  -->
<!DOCTYPE svg PUBLIC "-//W3C//DTD SVG 1.1//EN" "http://www.w3.org/Graphics/SVG/1.1/DTD/svg11.dtd">
<svg version="1.1" id="Layer_1" xmlns="http://www.w3.org/2000/svg" xmlns:xlink="http://www.w3.org/1999/xlink" x="0px" y="0px"
	 width="360px" height="82.944px" viewBox="-90.22 -19.972 360 82.944" enable-background="new -90.22 -19.972 360 82.944"
	 xml:space="preserve">
<title>Docker Logo</title>
<desc>Created with Sketch.</desc>
<g id="Page-1">
	<g id="Newly-Editted" transform="translate(-100.000000, -3344.000000)">
		<g id="Docker-Logo" transform="translate(99.000000, 3344.000000)">
			<path id="SVGID_1_" fill="#AAB2B9" d="M-66.067,46.86c-3.281,0-6.266-2.685-6.266-5.968c0-3.281,2.685-5.968,6.266-5.968
				c3.58,0,6.266,2.687,6.266,5.968C-59.802,44.176-62.785,46.86-66.067,46.86L-66.067,46.86z M10.91,14.339
				C10.312,9.565,7.33,5.688,3.451,2.703L1.959,1.51L0.766,3.001c-2.387,2.687-3.282,7.459-2.984,11.04
				c0.299,2.685,1.194,5.37,2.686,7.459c-1.192,0.596-2.686,1.194-3.878,1.789c-2.685,0.895-5.37,1.193-8.055,1.193h-77.276
				l-0.298,1.793c-0.597,5.666,0.298,11.635,2.685,17.004l1.193,2.09v0.297c7.161,11.936,19.99,17.306,34.014,17.306
				c26.853,0,48.93-11.635,59.374-36.696c6.861,0.297,13.725-1.494,17.006-8.058l0.895-1.492l-1.491-0.895
				C20.756,13.444,15.385,13.146,10.91,14.339L10.91,14.339z M-27.579,9.565h-11.636v11.636h11.636V9.565z M-27.579-5.055h-11.636
				V6.582h11.636V-5.055z M-27.579-19.972h-11.636v11.636h11.636V-19.972z M-13.257,9.565h-11.636v11.636h11.636V9.565z
				 M-56.519,9.565h-11.636v11.636h11.636V9.565z M-41.9,9.565h-11.637v11.636H-41.9V9.565z M-70.841,9.565h-11.637v11.636h11.637
				V9.565L-70.841,9.565z M-41.9-5.055h-11.637V6.582H-41.9V-5.055z M-56.519-5.055h-11.636V6.582h11.636V-5.055z"/>
			<path id="docker_2_" fill="#AAB2B9" d="M212.006,39.7c5.069-4.477,10.144-8.654,15.216-13.128c1.789-1.492,3.58-2.983,5.37-4.774
				c-1.491-1.79-3.581-2.984-5.669-3.879c-3.879-1.491-7.757-0.895-11.636,1.194c-4.774,2.685-6.861,7.162-6.564,12.53
				c0,2.089,0.598,4.177,1.79,5.968C211.409,38.505,211.708,39.103,212.006,39.7L212.006,39.7z M217.973,43.877
				c2.385,0.895,5.37,0.895,8.056,0.299c1.193-0.597,4.773-2.09,5.967-1.792h0.298h0.299c0.896,0.3,1.491,0.896,1.789,1.792
				c0.895,1.789,0.597,3.58-1.192,4.475l-0.597,0.299c-6.563,3.877-13.426,3.281-19.99-0.299c-2.985-1.79-5.371-4.178-7.161-7.16
				l-0.298-0.598c-4.177-7.16-3.581-14.916,1.192-21.779c1.494-2.388,3.879-4.178,6.267-5.669l0.894-0.597
				c6.267-3.581,12.832-3.283,19.097-0.298c3.282,1.79,6.265,4.176,8.057,7.459l0.298,0.596c1.49,2.387-0.298,4.476-2.389,5.968
				c-2.087,1.789-4.177,3.58-6.265,5.369C226.923,36.119,222.448,39.998,217.973,43.877z M266.604,11.058h0.595
				c2.092,0,3.581,1.492,3.581,3.581c0,2.983-2.685,3.58-5.069,3.58c-2.985,0-5.969,1.791-8.057,3.878
				c-2.686,2.686-3.879,5.967-3.879,9.548v16.708c0,1.791-1.193,3.58-3.282,3.58h-0.597c-2.088,0-3.282-1.49-3.282-3.58V30.749
				c0-6.863,3.282-12.233,8.654-16.111C259.146,12.25,262.726,11.058,266.604,11.058z M181.272,22.694
				c2.687-2.686,5.373-5.371,8.057-8.056c0.896-0.598,3.58-3.879,4.775-3.879h1.19l0,0c1.494,0.299,2.687,1.194,2.687,2.984v0.596
				c0,1.194-1.491,2.387-2.088,3.282c-1.493,1.79-3.282,3.283-4.773,5.073l-8.354,8.352c3.581,3.58,7.161,7.161,10.742,10.743
				c0.893,0.895,2.086,2.088,2.982,2.982c0.299,0.299,0.896,0.895,1.195,1.193c0.296,0.598,0.595,0.896,0.595,1.493v0.598v0.296
				c-0.299,1.492-1.491,2.687-2.985,2.687H194.7c-1.192,0-2.388-1.194-3.282-2.089c-1.491-1.491-3.283-2.984-4.772-4.773
				l-5.373-5.073v8.355c0,1.788-1.192,3.58-3.28,3.58h-0.599c-2.087,0-3.281-1.493-3.281-3.58V1.51c0-1.79,1.194-3.282,3.281-3.282
				h0.599c2.088,0,3.28,1.492,3.28,3.282V22.694L181.272,22.694z M159.193,18.218c-0.894-0.597-2.982-0.597-4.175-0.597
				c-5.67-0.298-9.848,2.983-12.232,8.057c-0.896,1.787-1.195,3.58-1.195,5.667c0,5.968,2.984,10.146,8.355,12.532
				c1.79,0.895,4.477,1.193,6.563,1.193c1.79,0,4.476-1.193,5.967-1.791h0.298h1.194l0,0c1.492,0.3,2.685,1.193,2.685,2.984v0.597
				c0,4.178-7.756,5.071-10.442,5.37c-10.144,0.596-17.901-5.071-20.885-14.619c-0.597-1.791-0.597-3.281-0.597-5.072v-1.493
				c0-7.457,3.58-13.425,10.144-17.005c2.984-1.79,6.267-2.685,9.846-2.685h1.492c3.58,0,7.16,0.895,10.144,2.983l0.299,0.299
				l0.299,0.297c0.298,0.597,0.597,1.194,0.597,1.79v0.598c0,1.79-1.194,2.685-2.982,2.983l0,0h-0.299
				C162.179,19.71,159.791,18.516,159.193,18.218z M96.541,31.046c0,5.073,2.684,8.952,6.861,11.638
				c2.087,1.193,4.475,1.789,6.862,1.789c5.072,0,8.951-2.684,11.637-6.861c1.19-2.089,1.788-4.475,1.788-6.862
				c0-4.772-2.386-8.653-6.265-11.338c-2.088-1.491-4.774-2.087-7.16-2.087c-5.67,0-9.847,2.983-12.235,8.056
				C96.541,27.465,96.541,29.258,96.541,31.046z M109.069,10.759h0.896c8.057,0,14.023,3.879,17.9,10.741
				c1.493,2.684,2.387,5.669,2.387,8.951v1.49c0,7.46-3.58,13.428-10.144,17.008c-2.983,1.79-6.264,2.686-9.845,2.686h-1.493
				c-7.457,0-13.426-3.579-17.006-10.145c-1.791-2.985-2.686-6.267-2.686-9.847v-1.491c0-7.458,3.582-13.427,10.145-17.007
				C102.507,11.654,105.489,10.759,109.069,10.759z M51.188,31.046c0,5.372,2.685,9.55,7.459,11.936
				c1.79,0.896,3.879,1.491,6.266,1.491c5.37,0,9.249-2.387,11.934-6.861c1.193-2.089,1.791-4.475,1.791-6.862
				c0-4.772-2.089-8.354-5.968-11.039c-2.387-1.492-4.773-2.387-7.757-2.387c-5.669,0-9.846,2.983-12.233,8.056
				C51.785,27.465,51.188,29.258,51.188,31.046z M78.638,15.831V1.211c0-1.791,1.193-3.58,3.281-3.58h0.597
				c2.089,0,3.282,1.492,3.282,3.58v30.73c0,7.46-3.58,13.428-10.144,17.008c-2.984,1.79-6.266,2.686-9.846,2.686h-1.491
				c-7.459,0-13.427-3.579-17.007-10.145c-1.791-2.985-2.686-6.267-2.686-9.847v-1.491c0-7.458,3.581-13.427,10.145-17.007
				c2.984-1.79,6.266-2.686,9.845-2.686h1.493C70.582,10.759,75.058,12.549,78.638,15.831z"/>
		</g>
	</g>
</g>
</svg>
