<?xml version="1.0" encoding="UTF-8"?>
<svg width="181px" height="46px" viewBox="0 0 181 46" version="1.1" xmlns="http://www.w3.org/2000/svg" xmlns:xlink="http://www.w3.org/1999/xlink">
    <!-- Generator: Sketch 41.2 (35397) - http://www.bohemiancoding.com/sketch -->
    <title>Group 17</title>
    <desc>Created with Sketch.</desc>
    <defs></defs>
    <g id="Page-1" stroke="none" stroke-width="1" fill="none" fill-rule="evenodd">
        <g id="Newly-Editted" transform="translate(-847.000000, -3480.000000)" fill="#AAB2B9">
            <g id="logos" transform="translate(120.000000, 3465.000000)">
                <g id="Group-17" transform="translate(727.500000, 15.000000)">
                    <path d="M39.9969731,3.22480596 L39.9968745,3.22475133 L39.9978181,0.00373734631 L41.0447756,0.621569179 L42.7614615,1.63462184 L42.761603,1.63499558 L39.997016,3.22523643 L39.9970162,3.22478121 Z M17.1338345,6.56184578 L5.71127816,0 L0.00566127028,3.27064519 L0,3.26924368 L0,6.5968834 L3.55858014,15.0834625 L5.72071361,16.3448169 L5.72260071,20.214839 L14.2947074,40.8319099 L22.8611529,45.6862556 L22.8611529,45.7142857 L31.4172194,40.8118217 L45.7142857,6.529144 L45.6831487,3.27858705 C45.3533797,3.01136679 42.7628768,1.63508901 42.7628768,1.63508901 L41.3808192,2.43044302 L42.7628768,1.63508901 C42.7628768,1.63508901 45.3533797,3.01136679 45.6831487,3.27858705 C44.9037805,3.72987162 45.6831487,3.27858705 45.6831487,3.27858705 L37.1138726,8.1703062 L34.2771044,6.57072198 L31.4327879,8.1703062 L28.6342333,6.55437109 C28.6342333,6.55437109 32.168753,4.47033335 33.6104899,3.64671566 C34.7554818,2.99221289 37.1138726,1.62714715 37.1138726,1.62714715 C37.1138194,1.62717797 34.7549971,2.99222027 33.6104899,3.64624849 C32.168753,4.46986619 28.6337615,6.55437109 28.6337615,6.55437109 L28.6337615,9.63254294 L25.7215097,17.1460105 L25.7215097,21.2257912 L23.6773194,22.4067926 L22.8639836,24.5137216 L17.1328909,9.79044582 L17.1338345,6.56195133 L5.7114197,0.000186867315 L0.00580280203,3.27083206 L11.4118471,9.80558208 L17.133976,6.56203265 Z M5.72576158,9.84267524 L5.72623335,6.54820447 L2.81586866,8.17067993 L5.72576158,9.84267524 Z M11.393731,13.0663233 L14.2687128,11.4120804 L14.2687128,14.6845942 L11.393731,13.0663233 Z M14.3144275,24.4932596 L11.4257644,26.1587146 L8.56210517,24.4778431 L11.4408611,22.8376152 L14.3144275,24.4932596 Z M19.9572515,40.7962183 L22.8718622,42.4738196 L22.8827129,39.0980615 L19.9572515,40.7962183 Z M22.852378,32.6239967 L19.9476745,34.26002 L22.8132208,35.9436945 L25.7174525,34.2474065 L22.852378,32.6239967 Z M31.3924513,14.6886586 L34.2556388,13.0428247 L37.1141085,14.6956661 L34.2400703,16.3270178 L31.3924513,14.6886586 Z M28.5579005,35.9219712 L28.5579005,39.1977553 L31.447979,37.542578 L28.5579005,35.9219712 Z" id="Combined-Shape"></path>
                    <path d="M171.603907,32.0887221 L174.137476,32.0887221 L174.137476,14.9168464 L180,14.9168464 L180,12.6717977 L165.741849,12.6717977 L165.741849,14.9168464 L171.603907,14.9168464 L171.603907,32.0887221 Z M159.172109,32.0887221 L162.648012,32.0887221 L162.648012,12.6717977 L160.232934,12.6717977 L160.232934,29.290144 L151.688959,12.6717977 L148.213057,12.6717977 L148.213057,32.0887221 L150.628135,32.0887221 L150.628135,15.5585527 L159.172109,32.0887221 Z M140.052081,25.2376995 L133.04103,25.2376995 L136.547255,14.4796551 L140.052081,25.2376995 Z M138.255117,12.6717977 L134.837994,12.6717977 L128.209474,32.0887221 L130.772433,32.0887221 L132.36367,27.4241175 L140.700984,27.4241175 L142.321144,32.0887221 L144.884569,32.0887221 L138.255117,12.6717977 Z M121.669124,17.4822866 L121.669124,20.2813263 C121.669124,22.1759757 120.844349,22.8467665 118.428805,22.8467665 L113.56786,22.8467665 L113.56786,14.9168464 L118.428805,14.9168464 C120.844349,14.9168464 121.669124,15.5585527 121.669124,17.4822866 L121.669124,17.4822866 Z M123.259894,32.0887221 L126.176461,32.0887221 L121.079933,24.7709621 C123.348063,24.1301791 124.20316,22.5554596 124.20316,20.2522418 L124.20316,17.4536637 C124.20316,14.4796551 122.729482,12.6717977 118.516974,12.6717977 L111.03429,12.6717977 L111.03429,32.0887221 L113.567393,32.0887221 L113.567393,25.0627307 L118.370026,25.0627307 L123.259894,32.0887221 Z M96.0978465,18.2407926 C96.0978465,15.6162601 97.0700355,14.654624 100.310355,14.654624 C101.930514,14.654624 103.698555,14.8291311 105.584154,15.1504459 L105.878516,12.9935741 C104.052163,12.5845441 102.107785,12.3809524 100.42838,12.3809524 C95.5380447,12.3809524 93.5642771,14.1888098 93.5642771,18.1239929 L93.5642771,26.6665348 C93.5642771,30.2522418 95.0958014,32.3809524 100.104161,32.3809524 C102.137174,32.3809524 104.405304,32.0891838 106.320293,31.5356544 L106.320293,23.1680813 L103.874892,23.1680813 L103.874892,29.7564198 C102.520172,30.0191039 101.223765,30.1063575 100.192796,30.1063575 C96.8344523,30.1063575 96.0978465,28.9988371 96.0978465,26.5201888 L96.0978465,18.2407926 Z M86.0517376,25.2376995 L79.0402206,25.2376995 L82.5459791,14.4796551 L86.0517376,25.2376995 Z M84.2547739,12.6717977 L80.8371842,12.6717977 L74.2091315,32.0887221 L76.7720905,32.0887221 L78.3628605,27.4241175 L86.7001746,27.4241175 L88.3203342,32.0887221 L90.8837597,32.0887221 L84.2547739,12.6717977 Z M64.5754099,32.0887221 L67.9929996,32.0887221 L74.4741043,12.6717977 L72.0291702,12.6717977 L66.2842047,29.9023041 L60.5397057,12.6717977 L58.0952381,12.6717977 L64.5754099,32.0887221 Z" id="Fill-53"></path>
                </g>
            </g>
        </g>
    </g>
</svg>