<svg xmlns="http://www.w3.org/2000/svg" viewBox="0 0 189.45 26.57"><defs><style>.a{fill:#b2b2b2;}</style></defs><title>logo_uber</title><path class="a" d="M1187.08,4080.53v15.18c0,5.19-2.5,8.26-10,8.26s-10.07-3.07-10.07-8.26V4085a4.73,4.73,0,0,0-4.71-4.56v2.95A1.76,1.76,0,0,1,1164,4085v11.71c0,6,4.72,10.29,13,10.29s13-4.28,13-10.29v-16.21h-3" transform="translate(-1162.28 -4080.46)"/><path class="a" d="M1273.48,4103.54v-7.11a1.83,1.83,0,0,1,1.79-1.8h13v-3h-13a4.72,4.72,0,0,0-1.75.38v-8.57h21.14v-3h-24.14v26.06h25v-3h-22" transform="translate(-1162.28 -4080.46)"/><path class="a" d="M1349.91,4103.72a1.75,1.75,0,0,1-2.36-.2l-5.7-7.24a7.91,7.91,0,0,0-.25-15.82H1322.3v26.05h3l0-8.49a1.82,1.82,0,0,1,1.8-1.73h11l7.13,9.05a4.73,4.73,0,0,0,6.52.69l-1.82-2.32m-22.83-10.21a4.56,4.56,0,0,0-1.77.36l0-10.6h16.32a5.13,5.13,0,0,1,0,10.25h-14.53Z" transform="translate(-1162.28 -4080.46)"/><path class="a" d="M1240.52,4093.06a7,7,0,0,0-4.23-12.58h-19.49v26.06h19.43a7.42,7.42,0,0,0,4.29-13.47m-20.74-9.78,16.52,0a4.19,4.19,0,1,1,0,8.38h-15a4.79,4.79,0,0,0-1.56.37v-8.77Zm16.45,20.44-16.45,0v-7.39a1.86,1.86,0,0,1,1.81-1.83h14.64a4.62,4.62,0,0,1,0,9.24" transform="translate(-1162.28 -4080.46)"/></svg>