<?xml version="1.0" encoding="utf-8"?>
<!-- Generator: Adobe Illustrator 21.0.0, SVG Export Plug-In . SVG Version: 6.00 Build 0)  -->
<svg version="1.1" id="Layer_1" xmlns="http://www.w3.org/2000/svg" xmlns:xlink="http://www.w3.org/1999/xlink" x="0px" y="0px"
	 viewBox="0 0 360 82.9" style="enable-background:new 0 0 360 82.9;" xml:space="preserve">
<style type="text/css">
	.st0{fill:#AAB2B9;}
</style>
<title>Docker Logo</title>
<desc>Created with Sketch.</desc>
<g id="Page-1">
	<g id="Newly-Editted" transform="translate(-100.000000, -3344.000000)">
		<g id="Docker-Logo" transform="translate(99.000000, 3344.000000)">
			<path id="SVGID_1_" class="st0" d="M24.2,66.8c-3.3,0-6.3-2.7-6.3-6c0-3.3,2.7-6,6.3-6c3.6,0,6.3,2.7,6.3,6
				C30.4,64.1,27.4,66.8,24.2,66.8L24.2,66.8z M101.1,34.3c-0.6-4.8-3.6-8.7-7.5-11.6l-1.5-1.2L91,23c-2.4,2.7-3.3,7.5-3,11
				c0.3,2.7,1.2,5.4,2.7,7.5c-1.2,0.6-2.7,1.2-3.9,1.8c-2.7,0.9-5.4,1.2-8.1,1.2H1.5l-0.3,1.8c-0.6,5.7,0.3,11.6,2.7,17l1.2,2.1v0.3
				c7.2,11.9,20,17.3,34,17.3c26.9,0,48.9-11.6,59.4-36.7c6.9,0.3,13.7-1.5,17-8.1l0.9-1.5l-1.5-0.9C111,33.4,105.6,33.1,101.1,34.3
				L101.1,34.3z M62.6,29.5H51v11.6h11.6V29.5z M62.6,14.9H51v11.6h11.6V14.9z M62.6,0H51v11.6h11.6V0z M77,29.5H65.3v11.6H77V29.5z
				 M33.7,29.5H22.1v11.6h11.6C33.7,41.2,33.7,29.5,33.7,29.5z M48.3,29.5H36.7v11.6h11.6V29.5z M19.4,29.5H7.7v11.6h11.6V29.5
				L19.4,29.5z M48.3,14.9H36.7v11.6h11.6V14.9z M33.7,14.9H22.1v11.6h11.6C33.7,26.6,33.7,14.9,33.7,14.9z"/>
			<path id="docker_2_" class="st0" d="M302.2,59.7c5.1-4.5,10.1-8.7,15.2-13.1c1.8-1.5,3.6-3,5.4-4.8c-1.5-1.8-3.6-3-5.7-3.9
				c-3.9-1.5-7.8-0.9-11.6,1.2c-4.8,2.7-6.9,7.2-6.6,12.5c0,2.1,0.6,4.2,1.8,6C301.6,58.5,301.9,59.1,302.2,59.7L302.2,59.7z
				 M308.2,63.8c2.4,0.9,5.4,0.9,8.1,0.3c1.2-0.6,4.8-2.1,6-1.8h0.3h0.3c0.9,0.3,1.5,0.9,1.8,1.8c0.9,1.8,0.6,3.6-1.2,4.5l-0.6,0.3
				c-6.6,3.9-13.4,3.3-20-0.3c-3-1.8-5.4-4.2-7.2-7.2l-0.3-0.6c-4.2-7.2-3.6-14.9,1.2-21.8c1.5-2.4,3.9-4.2,6.3-5.7l0.9-0.6
				c6.3-3.6,12.8-3.3,19.1-0.3c3.3,1.8,6.3,4.2,8.1,7.5l0.3,0.6c1.5,2.4-0.3,4.5-2.4,6c-2.1,1.8-4.2,3.6-6.3,5.4
				C317.1,56.1,312.7,60,308.2,63.8z M356.8,31h0.6c2.1,0,3.6,1.5,3.6,3.6c0,3-2.7,3.6-5.1,3.6c-3,0-6,1.8-8.1,3.9
				c-2.7,2.7-3.9,6-3.9,9.5v16.7c0,1.8-1.2,3.6-3.3,3.6h-0.6c-2.1,0-3.3-1.5-3.3-3.6V50.7c0-6.9,3.3-12.2,8.7-16.1
				C349.4,32.2,352.9,31,356.8,31z M271.5,42.7c2.7-2.7,5.4-5.4,8.1-8.1c0.9-0.6,3.6-3.9,4.8-3.9h1.2l0,0c1.5,0.3,2.7,1.2,2.7,3v0.6
				c0,1.2-1.5,2.4-2.1,3.3c-1.5,1.8-3.3,3.3-4.8,5.1L273,51c3.6,3.6,7.2,7.2,10.7,10.7c0.9,0.9,2.1,2.1,3,3c0.3,0.3,0.9,0.9,1.2,1.2
				c0.3,0.6,0.6,0.9,0.6,1.5V68v0.3c-0.3,1.5-1.5,2.7-3,2.7h-0.6c-1.2,0-2.4-1.2-3.3-2.1c-1.5-1.5-3.3-3-4.8-4.8l-5.4-5.1v8.4
				c0,1.8-1.2,3.6-3.3,3.6h-0.6c-2.1,0-3.3-1.5-3.3-3.6V21.5c0-1.8,1.2-3.3,3.3-3.3h0.6c2.1,0,3.3,1.5,3.3,3.3L271.5,42.7
				L271.5,42.7z M249.4,38.2c-0.9-0.6-3-0.6-4.2-0.6c-5.7-0.3-9.8,3-12.2,8.1c-0.9,1.8-1.2,3.6-1.2,5.7c0,6,3,10.1,8.4,12.5
				c1.8,0.9,4.5,1.2,6.6,1.2c1.8,0,4.5-1.2,6-1.8h0.3h1.2l0,0c1.5,0.3,2.7,1.2,2.7,3v0.6c0,4.2-7.8,5.1-10.4,5.4
				c-10.1,0.6-17.9-5.1-20.9-14.6c-0.6-1.8-0.6-3.3-0.6-5.1V51c0-7.5,3.6-13.4,10.1-17c3-1.8,6.3-2.7,9.8-2.7h1.5
				c3.6,0,7.2,0.9,10.1,3l0.3,0.3l0.3,0.3c0.3,0.6,0.6,1.2,0.6,1.8v0.6c0,1.8-1.2,2.7-3,3l0,0h-0.3C252.4,39.7,250,38.5,249.4,38.2z
				 M186.8,51c0,5.1,2.7,9,6.9,11.6c2.1,1.2,4.5,1.8,6.9,1.8c5.1,0,9-2.7,11.6-6.9c1.2-2.1,1.8-4.5,1.8-6.9c0-4.8-2.4-8.7-6.3-11.3
				c-2.1-1.5-4.8-2.1-7.2-2.1c-5.7,0-9.8,3-12.2,8.1C186.8,47.4,186.8,49.2,186.8,51z M199.3,30.7h0.9c8.1,0,14,3.9,17.9,10.7
				c1.5,2.7,2.4,5.7,2.4,9v1.5c0,7.5-3.6,13.4-10.1,17c-3,1.8-6.3,2.7-9.8,2.7H199c-7.5,0-13.4-3.6-17-10.1c-1.8-3-2.7-6.3-2.7-9.8
				v-1.5c0-7.5,3.6-13.4,10.1-17C192.7,31.6,195.7,30.7,199.3,30.7z M141.4,51c0,5.4,2.7,9.6,7.5,11.9c1.8,0.9,3.9,1.5,6.3,1.5
				c5.4,0,9.2-2.4,11.9-6.9c1.2-2.1,1.8-4.5,1.8-6.9c0-4.8-2.1-8.4-6-11c-2.4-1.5-4.8-2.4-7.8-2.4c-5.7,0-9.8,3-12.2,8.1
				C142,47.4,141.4,49.2,141.4,51z M168.9,35.8V21.2c0-1.8,1.2-3.6,3.3-3.6h0.6c2.1,0,3.3,1.5,3.3,3.6v30.7c0,7.5-3.6,13.4-10.1,17
				c-3,1.8-6.3,2.7-9.8,2.7h-1.5c-7.5,0-13.4-3.6-17-10.1c-1.8-3-2.7-6.3-2.7-9.8v-1.5c0-7.5,3.6-13.4,10.1-17
				c3-1.8,6.3-2.7,9.8-2.7h1.5C160.8,30.7,165.3,32.5,168.9,35.8z"/>
		</g>
	</g>
</g>
</svg>
