<svg xmlns="http://www.w3.org/2000/svg" viewBox="0 0 204.42 32.32"><defs><style>.a{opacity:0.75;}.b,.c{fill:#b2b2b2;}.b{fill-rule:evenodd;}</style></defs><title>logo_digitalocean</title><g class="a"><path class="b" d="M1872.05,3278.82c10.52-6.76,22.45-1.9,28.39,1.36C1892.21,3276.92,1880.15,3276.16,1872.05,3278.82Z" transform="translate(-1868.53 -3247.86)"/><path class="b" d="M1890.53,3247.86a12.45,12.45,0,0,1,11.35,7.26h-4a9.6,9.6,0,0,0-14.8-.11l0.29-.22c4.13-3,9.65.3,9.65,0.3s-5.24-1.51-8.78,1-3,7.46-3,7.46l-0.06-.19,0,0.17a6,6,0,0,0-3-1.14,12.18,12.18,0,0,1-.2-2.22,12.36,12.36,0,0,1,12.44-12.28h0Zm-15.9,28.09v-1.06c3.29-2.43,9.34-5.59,16.62-3.31,11.06,3.47,18.1,8.18,26.64,6.06s9.3-6.79,9.3-6.79-1.51,6.59-9.93,8-16.18-.18-26-3.85c-6.66-2.48-13.1-.56-16.59.91h0Zm0-2.13a19,19,0,0,1,1.81-1.1,4.72,4.72,0,0,1-.78-0.61,5.5,5.5,0,0,1-1-1.41V3273l0.07,0.07a4.28,4.28,0,0,0,.34.29l-0.41-.22v0.7h0Zm0-10.65v-3.91a9.12,9.12,0,0,1,2.55-.48,13.27,13.27,0,0,0,.13,3.62A5.85,5.85,0,0,0,1874.62,3263.17Zm0-3.91v3.91a5.72,5.72,0,0,0,0,9.95v0.7c-0.7.47-1.38,1-1.94,1.41a8.9,8.9,0,0,1,1.94-16h0Zm0,11.43a8.34,8.34,0,0,1-.73-4.58s-1.88,4.3.73,6.87v-2.28h0Zm0,4.19a19.68,19.68,0,0,0-2.67,2.33s1-.56,2.67-1.27v-1.06Z" transform="translate(-1868.53 -3247.86)"/><path class="b" d="M1902.44,3273.2s5.28,2.7,10.24,2.26,6.47-2.2,6.47-2.2a7.83,7.83,0,0,1-6.6,3.55C1907.78,3277,1902.44,3273.33,1902.44,3273.2Z" transform="translate(-1868.53 -3247.86)"/><rect class="c" x="29.86" y="8.28" width="4.44" height="4.44"/><rect class="c" x="47.48" y="20.57" width="3.43" height="3.43"/><rect class="c" x="35.2" y="4.21" width="5.92" height="5.92"/><rect class="c" x="52.38" y="14.45" width="5.92" height="5.92"/><rect class="c" x="41.69" y="10.58" width="3.3" height="3.3"/><rect class="c" x="43.89" y="17.08" width="3.3" height="3.3"/><rect class="c" x="36.95" y="17.41" width="3.3" height="3.3"/><rect class="c" x="48.51" y="10.69" width="3.3" height="3.3"/><path class="c" d="M1953.66,3265.15a10.2,10.2,0,0,1-.69,3.81,8.55,8.55,0,0,1-5,4.93,10.59,10.59,0,0,1-3.9.69h-7.2v-18.87h7.2a10.51,10.51,0,0,1,3.9.7,8.83,8.83,0,0,1,3,1.94,8.68,8.68,0,0,1,1.94,3A10.21,10.21,0,0,1,1953.66,3265.15Zm-3.59,0a8.66,8.66,0,0,0-.42-2.79,5.91,5.91,0,0,0-1.19-2.09,5.12,5.12,0,0,0-1.87-1.31,6.45,6.45,0,0,0-2.49-.46h-3.67v13.28h3.67a6.44,6.44,0,0,0,2.49-.46,5.12,5.12,0,0,0,1.87-1.31,5.91,5.91,0,0,0,1.19-2.09A8.66,8.66,0,0,0,1950.07,3265.15Z" transform="translate(-1868.53 -3247.86)"/><path class="c" d="M1958.84,3257.3a1.84,1.84,0,0,1-.17.78,2.13,2.13,0,0,1-1.11,1.08,2,2,0,0,1-.81.16,1.94,1.94,0,0,1-.79-0.16,2.09,2.09,0,0,1-.65-0.44,2.11,2.11,0,0,1-.44-0.64,1.9,1.9,0,0,1-.16-0.78,2,2,0,0,1,.16-0.81,2.07,2.07,0,0,1,.44-0.65,2.1,2.1,0,0,1,.65-0.44,2,2,0,0,1,.79-0.16,2,2,0,0,1,.81.16,2.16,2.16,0,0,1,.66.44,2.11,2.11,0,0,1,.45.65A2,2,0,0,1,1958.84,3257.3Zm-0.48,3.9v13.39h-3.22V3261.2h3.22Z" transform="translate(-1868.53 -3247.86)"/><path class="c" d="M1965.33,3261a7.12,7.12,0,0,1,1.62.18,5.51,5.51,0,0,1,1.38.52h3.85v1.2a0.67,0.67,0,0,1-.16.47,0.93,0.93,0,0,1-.53.23l-1.2.22a4.17,4.17,0,0,1,.2.72,4.29,4.29,0,0,1,.07.8,3.94,3.94,0,0,1-1.49,3.16,5.08,5.08,0,0,1-1.66.87,6.79,6.79,0,0,1-2.08.31,7.49,7.49,0,0,1-1.47-.14,1.06,1.06,0,0,0-.63.85,0.63,0.63,0,0,0,.37.6,3,3,0,0,0,1,.27,10.8,10.8,0,0,0,1.38.08q0.77,0,1.58.07a12.41,12.41,0,0,1,1.58.23,4.62,4.62,0,0,1,1.38.52,2.76,2.76,0,0,1,1,1,3,3,0,0,1,.37,1.56,3.7,3.7,0,0,1-.44,1.73,4.65,4.65,0,0,1-1.27,1.49,6.63,6.63,0,0,1-2,1.05,8.67,8.67,0,0,1-2.74.4,10.56,10.56,0,0,1-2.65-.29,6.18,6.18,0,0,1-1.86-.78,3.39,3.39,0,0,1-1.1-1.13,2.65,2.65,0,0,1-.37-1.33,2.28,2.28,0,0,1,.57-1.58,3.94,3.94,0,0,1,1.59-1,2.21,2.21,0,0,1-.8-0.73,2.12,2.12,0,0,1-.3-1.19,2,2,0,0,1,.1-0.62,2.48,2.48,0,0,1,.32-0.63,3.11,3.11,0,0,1,.54-0.59,3.72,3.72,0,0,1,.77-0.5,4.22,4.22,0,0,1-1.6-1.46,3.9,3.9,0,0,1-.58-2.14,3.93,3.93,0,0,1,1.51-3.16,5.06,5.06,0,0,1,1.68-.87A7.16,7.16,0,0,1,1965.33,3261Zm3.54,14.18a0.92,0.92,0,0,0-.23-0.65,1.54,1.54,0,0,0-.64-0.39,4.65,4.65,0,0,0-.95-0.21,9.42,9.42,0,0,0-1.15-.07h-1.25a5.33,5.33,0,0,1-1.25-.14,2.92,2.92,0,0,0-.88.71,1.46,1.46,0,0,0-.33.95,1.3,1.3,0,0,0,.18.66,1.47,1.47,0,0,0,.56.53,3.33,3.33,0,0,0,1,.35,7.7,7.7,0,0,0,1.5.12,7.51,7.51,0,0,0,1.55-.14,3.69,3.69,0,0,0,1.08-.39,1.64,1.64,0,0,0,.62-0.59A1.46,1.46,0,0,0,1968.86,3275.15Zm-3.54-7.58a3,3,0,0,0,1-.16,2,2,0,0,0,.74-0.45,1.85,1.85,0,0,0,.44-0.69,2.53,2.53,0,0,0,.15-0.89,2.1,2.1,0,0,0-.59-1.57,3,3,0,0,0-3.56,0,2.1,2.1,0,0,0-.59,1.57,2.49,2.49,0,0,0,.15.87,1.92,1.92,0,0,0,.44.7,2,2,0,0,0,.74.46A3,3,0,0,0,1965.33,3267.57Z" transform="translate(-1868.53 -3247.86)"/><path class="c" d="M1976.81,3257.3a1.84,1.84,0,0,1-.17.78,2.13,2.13,0,0,1-1.11,1.08,2,2,0,0,1-.81.16,1.94,1.94,0,0,1-.79-0.16,2.09,2.09,0,0,1-.65-0.44,2.11,2.11,0,0,1-.44-0.64,1.9,1.9,0,0,1-.16-0.78,2,2,0,0,1,.16-0.81,2.07,2.07,0,0,1,.44-0.65,2.09,2.09,0,0,1,.65-0.44,1.94,1.94,0,0,1,.79-0.16,2,2,0,0,1,.81.16,2.15,2.15,0,0,1,.66.44,2.11,2.11,0,0,1,.45.65A2,2,0,0,1,1976.81,3257.3Zm-0.48,3.9v13.39h-3.22V3261.2h3.22Z" transform="translate(-1868.53 -3247.86)"/><path class="c" d="M1983.06,3274.8a3.52,3.52,0,0,1-2.67-1,3.78,3.78,0,0,1-.94-2.72v-7.48h-1.36a0.62,0.62,0,0,1-.64-0.68v-1.28l2.15-.35,0.68-3.65a0.65,0.65,0,0,1,.24-0.4,0.77,0.77,0,0,1,.48-0.14h1.67v4.21h3.52v2.3h-3.52v7.25a1.42,1.42,0,0,0,.31,1,1.06,1.06,0,0,0,.84.35,1.51,1.51,0,0,0,.5-0.07l0.35-.15,0.27-.15a0.45,0.45,0,0,1,.23-0.07,0.37,0.37,0,0,1,.23.07,1.11,1.11,0,0,1,.2.22l1,1.57a4.88,4.88,0,0,1-1.62.89A6,6,0,0,1,1983.06,3274.8Z" transform="translate(-1868.53 -3247.86)"/><path class="c" d="M1997.95,3274.59h-1.45a1.56,1.56,0,0,1-.72-0.14,0.88,0.88,0,0,1-.39-0.55l-0.29-1a11.08,11.08,0,0,1-1,.8,6.09,6.09,0,0,1-1,.58,5.17,5.17,0,0,1-1.11.35,6.69,6.69,0,0,1-1.3.12,5.14,5.14,0,0,1-1.57-.23,3.38,3.38,0,0,1-1.23-.69,3.12,3.12,0,0,1-.8-1.14,4.05,4.05,0,0,1-.29-1.58,3.13,3.13,0,0,1,.4-1.5,3.75,3.75,0,0,1,1.32-1.34,8.45,8.45,0,0,1,2.47-1,15.76,15.76,0,0,1,3.82-.39v-0.79a3,3,0,0,0-.57-2,2.07,2.07,0,0,0-1.65-.65,4,4,0,0,0-1.3.18,5.06,5.06,0,0,0-.91.41l-0.71.41a1.44,1.44,0,0,1-.72.18,0.93,0.93,0,0,1-.56-0.17,1.33,1.33,0,0,1-.38-0.42l-0.59-1A8,8,0,0,1,1993,3261a5.39,5.39,0,0,1,2.09.38,4.46,4.46,0,0,1,1.56,1.07,4.59,4.59,0,0,1,1,1.64,6.3,6.3,0,0,1,.33,2.09v8.46Zm-6.26-2a4.36,4.36,0,0,0,.91-0.09,3.51,3.51,0,0,0,.79-0.27,4.24,4.24,0,0,0,.72-0.44,6.49,6.49,0,0,0,.7-0.62v-2.24a13.09,13.09,0,0,0-2.36.18,6.23,6.23,0,0,0-1.52.45,2,2,0,0,0-.82.64,1.43,1.43,0,0,0-.24.8,1.41,1.41,0,0,0,.5,1.22A2.16,2.16,0,0,0,1991.68,3272.58Z" transform="translate(-1868.53 -3247.86)"/><path class="c" d="M2003.24,3255.2v19.39H2000V3255.2h3.22Z" transform="translate(-1868.53 -3247.86)"/><path class="c" d="M2023.86,3265.15a10.46,10.46,0,0,1-.69,3.84,9.11,9.11,0,0,1-1.94,3.06,8.8,8.8,0,0,1-3,2,10.89,10.89,0,0,1-7.81,0,8.85,8.85,0,0,1-3-2,9.05,9.05,0,0,1-2-3.06,11,11,0,0,1,0-7.69,9,9,0,0,1,2-3.06,8.85,8.85,0,0,1,3-2,10.22,10.22,0,0,1,3.91-.72,10.09,10.09,0,0,1,3.9.73,8.93,8.93,0,0,1,3,2,9,9,0,0,1,1.94,3.05A10.46,10.46,0,0,1,2023.86,3265.15Zm-3.6,0a8.79,8.79,0,0,0-.41-2.79,5.89,5.89,0,0,0-1.18-2.09,5.09,5.09,0,0,0-1.87-1.32,7,7,0,0,0-5,0,5.13,5.13,0,0,0-1.89,1.32,5.91,5.91,0,0,0-1.19,2.09,9.5,9.5,0,0,0,0,5.57,5.85,5.85,0,0,0,1.19,2.09,5.16,5.16,0,0,0,1.89,1.31,7,7,0,0,0,5,0,5.12,5.12,0,0,0,1.87-1.31,5.83,5.83,0,0,0,1.18-2.09A8.78,8.78,0,0,0,2020.26,3265.15Z" transform="translate(-1868.53 -3247.86)"/><path class="c" d="M2034.55,3264a1.62,1.62,0,0,1-.28.29,0.65,0.65,0,0,1-.4.1,0.88,0.88,0,0,1-.48-0.15l-0.56-.34a4.19,4.19,0,0,0-.78-0.34,3.57,3.57,0,0,0-1.12-.15,3.4,3.4,0,0,0-1.49.31,2.82,2.82,0,0,0-1.06.88,4,4,0,0,0-.63,1.39,7.46,7.46,0,0,0-.21,1.85,7.23,7.23,0,0,0,.23,1.91,4.07,4.07,0,0,0,.66,1.4,2.84,2.84,0,0,0,1,.86,3.17,3.17,0,0,0,1.38.29,3.43,3.43,0,0,0,1.25-.19,3.94,3.94,0,0,0,.8-0.42l0.57-.42a0.86,0.86,0,0,1,.54-0.19,0.66,0.66,0,0,1,.59.3l0.93,1.17a5.83,5.83,0,0,1-1.16,1.05,6.29,6.29,0,0,1-1.3.68,6.61,6.61,0,0,1-1.39.36,9.89,9.89,0,0,1-1.42.1,5.94,5.94,0,0,1-2.34-.46A5.45,5.45,0,0,1,2026,3273a6.51,6.51,0,0,1-1.29-2.17,8.39,8.39,0,0,1-.48-2.93,8.51,8.51,0,0,1,.42-2.73,6.19,6.19,0,0,1,1.25-2.18,5.71,5.71,0,0,1,2-1.44,7,7,0,0,1,2.79-.52,6.65,6.65,0,0,1,2.63.48,6.43,6.43,0,0,1,2,1.38Z" transform="translate(-1868.53 -3247.86)"/><path class="c" d="M2041.82,3261a6.5,6.5,0,0,1,2.33.4,5.1,5.1,0,0,1,1.83,1.18,5.4,5.4,0,0,1,1.2,1.91,7.2,7.2,0,0,1,.43,2.58,4.74,4.74,0,0,1,0,.61,1,1,0,0,1-.12.38,0.48,0.48,0,0,1-.23.2,1,1,0,0,1-.37.06h-8.27a4.61,4.61,0,0,0,1.11,3,3.46,3.46,0,0,0,2.56,1,4.43,4.43,0,0,0,1.35-.18,6.34,6.34,0,0,0,1-.4l0.74-.4a1.25,1.25,0,0,1,.62-0.18,0.7,0.7,0,0,1,.34.08,0.76,0.76,0,0,1,.25.22l0.94,1.17a5.38,5.38,0,0,1-1.2,1.05,6.74,6.74,0,0,1-1.39.68,7.61,7.61,0,0,1-1.47.36,10.58,10.58,0,0,1-1.46.1,7.16,7.16,0,0,1-2.6-.46,5.81,5.81,0,0,1-2.09-1.37,6.43,6.43,0,0,1-1.4-2.24,8.69,8.69,0,0,1-.51-3.1,7.41,7.41,0,0,1,.44-2.58,6.19,6.19,0,0,1,1.27-2.1,6,6,0,0,1,2-1.42A6.66,6.66,0,0,1,2041.82,3261Zm0.07,2.31a3,3,0,0,0-2.21.8,3.93,3.93,0,0,0-1,2.26h6.05a4,4,0,0,0-.17-1.18,2.73,2.73,0,0,0-.52-1,2.47,2.47,0,0,0-.89-0.66A3,3,0,0,0,2041.88,3263.3Z" transform="translate(-1868.53 -3247.86)"/><path class="c" d="M2059.42,3274.59H2058a1.56,1.56,0,0,1-.72-0.14,0.88,0.88,0,0,1-.39-0.55l-0.29-1a11.08,11.08,0,0,1-1,.8,6.09,6.09,0,0,1-1,.58,5.17,5.17,0,0,1-1.11.35,6.69,6.69,0,0,1-1.3.12,5.14,5.14,0,0,1-1.57-.23,3.38,3.38,0,0,1-1.23-.69,3.12,3.12,0,0,1-.8-1.14,4.05,4.05,0,0,1-.29-1.58,3.13,3.13,0,0,1,.4-1.5,3.75,3.75,0,0,1,1.32-1.34,8.45,8.45,0,0,1,2.47-1,15.76,15.76,0,0,1,3.82-.39v-0.79a3,3,0,0,0-.57-2,2.07,2.07,0,0,0-1.65-.65,4,4,0,0,0-1.3.18,5.06,5.06,0,0,0-.91.41l-0.71.41a1.44,1.44,0,0,1-.72.18,0.93,0.93,0,0,1-.56-0.17,1.33,1.33,0,0,1-.38-0.42l-0.59-1a8,8,0,0,1,5.57-2.11,5.39,5.39,0,0,1,2.09.38,4.46,4.46,0,0,1,1.56,1.07,4.59,4.59,0,0,1,1,1.64,6.3,6.3,0,0,1,.33,2.09v8.46Zm-6.26-2a4.36,4.36,0,0,0,.91-0.09,3.51,3.51,0,0,0,.79-0.27,4.24,4.24,0,0,0,.72-0.44,6.49,6.49,0,0,0,.7-0.62v-2.24a13.09,13.09,0,0,0-2.36.18,6.23,6.23,0,0,0-1.52.45,2,2,0,0,0-.82.64,1.43,1.43,0,0,0-.24.8,1.41,1.41,0,0,0,.5,1.22A2.16,2.16,0,0,0,2053.15,3272.58Z" transform="translate(-1868.53 -3247.86)"/><path class="c" d="M2061.28,3274.59V3261.2h2a0.79,0.79,0,0,1,.82.59l0.22,1.06a7.34,7.34,0,0,1,.85-0.76,6,6,0,0,1,1-.59,4.86,4.86,0,0,1,1.08-.38,5.66,5.66,0,0,1,1.25-.13,4.8,4.8,0,0,1,1.94.37,3.84,3.84,0,0,1,1.42,1,4.59,4.59,0,0,1,.86,1.6,6.82,6.82,0,0,1,.29,2.06v8.52h-3.22v-8.52a2.86,2.86,0,0,0-.57-1.9,2.1,2.1,0,0,0-1.7-.67,3.36,3.36,0,0,0-1.57.38,5.62,5.62,0,0,0-1.38,1v9.68h-3.22Z" transform="translate(-1868.53 -3247.86)"/></g></svg>