<svg xmlns="http://www.w3.org/2000/svg" viewBox="0 0 159.29 39.17"><defs><style>.a{opacity:0.75;}.b,.c{fill:none;stroke:#b2b2b2;stroke-miterlimit:10;stroke-width:1.46px;}.c,.d,.e{fill-rule:evenodd;}.d{fill:#d4edf1;}.e{fill:#b2b2b2;}</style></defs><title>logo_docker</title><g class="a"><line class="b" x1="7.94" y1="19.32" x2="44.55" y2="18.59"/><path class="c" d="M1532.89,3258h6v6.09h3a13,13,0,0,0,4.14-.69,10.61,10.61,0,0,0,2-.91,7.47,7.47,0,0,1-1.4-3.85,8.13,8.13,0,0,1,1.46-5.73l0.63-.72,0.75,0.6a9.48,9.48,0,0,1,3.73,6,9.1,9.1,0,0,1,6.91.64l0.82,0.47-0.43.84c-1.69,3.29-5.21,4.31-8.65,4.13-5.15,12.84-16.38,18.92-30,18.92-7,0-13.48-2.63-17.15-8.86l-0.06-.1-0.53-1.09a17.27,17.27,0,0,1-1.37-8.76l0.08-.9h5.09V3258h6v-6h11.91v-6h7.14V3258Z" transform="translate(-1494.49 -3245.38)"/><path class="d" d="M1519.67,3272.54a1.42,1.42,0,1,1-1.42,1.42,1.42,1.42,0,0,1,1.42-1.42" transform="translate(-1494.49 -3245.38)"/><path class="e" d="M1519.67,3272.94a1,1,0,0,1,.37.07,0.42,0.42,0,1,0,.57.56,1,1,0,1,1-.94-0.63" transform="translate(-1494.49 -3245.38)"/><path class="e" d="M1494.49,3269.59h66.21c-1.44-.37-4.56-0.86-4-2.75-2.62,3-8.94,2.13-10.54.63-1.78,2.58-12.12,1.6-12.84-.41-2.23,2.61-9.13,2.61-11.36,0-0.72,2-11.06,3-12.84.41-1.6,1.5-7.92,2.4-10.54-.63,0.51,1.89-2.61,2.38-4,2.75" transform="translate(-1494.49 -3245.38)"/><path class="e" d="M1630.28,3272.33l6.11-5.25c0.69-.6,1.46-1.22,2.14-1.85a5.43,5.43,0,0,0-2.26-1.5,5.41,5.41,0,0,0-7.23,5.46,4.82,4.82,0,0,0,.71,2.41,6.42,6.42,0,0,0,.53.73m2.36,1.66a6.42,6.42,0,0,0,3.16.12,7.15,7.15,0,0,1,2.36-.72h0.08l0.07,0a1.55,1.55,0,0,1,.74.66,1.31,1.31,0,0,1-.52,1.85l-0.24.14a7.83,7.83,0,0,1-8-.11,7.39,7.39,0,0,1-2.89-2.88l-0.16-.28a7.76,7.76,0,0,1,.44-8.69,7.5,7.5,0,0,1,2.49-2.26l0.38-.22a7.74,7.74,0,0,1,7.6-.08,7.43,7.43,0,0,1,3.21,3l0.14,0.24c0.55,1-.16,1.78-0.9,2.35s-1.71,1.45-2.53,2.15Zm19.51-13.17h0.27a1.3,1.3,0,0,1,1.37,1.37c0,1.14-1.09,1.43-2,1.43a4.93,4.93,0,0,0-3.26,1.58,5.23,5.23,0,0,0-1.52,3.85v6.64a1.26,1.26,0,0,1-1.26,1.37h-0.22a1.26,1.26,0,0,1-1.26-1.37v-7a7.71,7.71,0,0,1,3.5-6.45A7.55,7.55,0,0,1,1652.14,3260.81Zm-34.21,4.72c1.07-1.07,2.14-2.13,3.22-3.18,0.3-.29,1.44-1.53,1.89-1.53h0.55a1.22,1.22,0,0,1,1.1,1.2v0.27a2.51,2.51,0,0,1-.83,1.31c-0.63.67-1.29,1.31-1.94,2l-3.32,3.37q2.14,2.15,4.27,4.31l1.17,1.2a3,3,0,0,1,.45.52,1.13,1.13,0,0,1,.2.62v0.28l0,0.07a1.3,1.3,0,0,1-1.25,1.13h-0.22a2.41,2.41,0,0,1-1.28-.81c-0.64-.6-1.26-1.24-1.89-1.86l-2.11-2.07v3.31a1.27,1.27,0,0,1-1.26,1.37h-0.22a1.26,1.26,0,0,1-1.26-1.37V3257a1.26,1.26,0,0,1,1.26-1.37h0.22a1.26,1.26,0,0,1,1.26,1.37v8.52Zm-8.9-1.86a5.3,5.3,0,0,0-6.56,3,5,5,0,0,0-.49,2.21,5.29,5.29,0,0,0,3.33,5,6.26,6.26,0,0,0,2.59.44,6.8,6.8,0,0,0,2.43-.76l0.11-.05H1611a1.22,1.22,0,0,1,1.1,1.2v0.27c0,1.67-3.05,2.05-4.22,2.13a7.76,7.76,0,0,1-8.36-5.9,7.1,7.1,0,0,1-.3-2.07v-0.54a7.71,7.71,0,0,1,4-6.85,7.52,7.52,0,0,1,3.88-1.06h0.54a7,7,0,0,1,4,1.24l0.1,0.07,0.06,0.1a1.45,1.45,0,0,1,.24.72v0.27a1.24,1.24,0,0,1-1.16,1.2h-0.21A6.19,6.19,0,0,1,1609,3263.67Zm-25,5.22a5.28,5.28,0,0,0,2.79,4.7,5.08,5.08,0,0,0,2.7.74,5.25,5.25,0,0,0,4.65-2.79,5.1,5.1,0,0,0,.73-2.71,5.22,5.22,0,0,0-2.53-4.5,5.1,5.1,0,0,0-2.9-.88,5.22,5.22,0,0,0-4.95,3.23A5,5,0,0,0,1584,3268.89Zm5.16-8.18h0.38a7.78,7.78,0,0,1,7.13,4.32,7.38,7.38,0,0,1,.94,3.59v0.54a7.68,7.68,0,0,1-4,6.85,7.6,7.6,0,0,1-3.88,1.06h-0.54a7.69,7.69,0,0,1-6.85-4,7.55,7.55,0,0,1-1.06-3.88v-0.54a7.72,7.72,0,0,1,4-6.85A7.51,7.51,0,0,1,1589.17,3260.71Zm-23.14,8.18a5.21,5.21,0,0,0,2.93,4.8,5.08,5.08,0,0,0,2.46.64,5.29,5.29,0,0,0,4.75-2.78,5.15,5.15,0,0,0,.74-2.71,5.24,5.24,0,0,0-2.38-4.4,5.11,5.11,0,0,0-3.05-1,5.22,5.22,0,0,0-4.95,3.23A5,5,0,0,0,1566,3268.89Zm10.87-6.13V3257a1.27,1.27,0,0,1,1.26-1.37h0.22a1.26,1.26,0,0,1,1.26,1.37v12.2a7.69,7.69,0,0,1-4,6.85,7.59,7.59,0,0,1-3.88,1.06h-0.54a7.69,7.69,0,0,1-6.85-4,7.54,7.54,0,0,1-1.06-3.88v-0.54a7.7,7.7,0,0,1,4-6.85,7.55,7.55,0,0,1,3.88-1.06h0.54A7.66,7.66,0,0,1,1576.91,3262.75Z" transform="translate(-1494.49 -3245.38)"/></g></svg>