<svg id="Layer_1" xmlns="http://www.w3.org/2000/svg" viewBox="0 0 100 75">
  <style>
    .st0{fill:#AAB2B9;}
  </style>
  <title>
    Digital Ocean
  </title>
  <g id="Page-1">
    <g id="_x30_2-Features">
      <path id="Digital-Ocean" class="st0" d="M50 40.5h-9.5V30.4h10.1v9.4c9.8-.4 17.3-10.3 13.5-20.7-1.4-4-4.6-7.1-8.5-8.5-10.7-3.9-20.7 4-20.7 14.1h-9.6C25.3 8.5 40.9-4 57.9 1.2c7.4 2.3 13.3 8.2 15.6 15.6 5.3 16.9-7.3 32.6-23.5 32.6v-8.9zm-9.5 7.6h-7.6v-7.6h7.6v7.6zm-7.6-7.6h-6.3v-6.3h6.3v6.3zm-24 19.2c.7.5 1.3 1.1 1.7 1.9.4.8.6 1.8.6 2.9 0 1.1-.2 2.1-.6 2.9-.4.8-.9 1.5-1.7 2-1.3.9-2.9 1.3-4.8 1.3H0V58.4h4.1c1.9 0 3.5.4 4.8 1.3zm5-1.5c.4 0 .7.1.9.4.2.2.4.5.4.9s-.1.7-.4.9c-.2.2-.5.4-.9.4s-.7-.1-.9-.4-.4-.5-.4-.9.1-.7.4-.9c.3-.2.6-.4.9-.4zm-1.2 12.7V62h2.5v8.9h-2.5zM23.1 63v-.7h2.2v8c0 1.3-.4 2.4-1.2 3.2-.8.8-1.9 1.2-3.3 1.2-1 0-1.9-.2-2.5-.6-.7-.4-1.2-.9-1.5-1.3v-.1l1.6-1.5c.8 1.1 1.5 1.5 2.5 1.5.7 0 1.2-.2 1.6-.6.4-.4.6-1 .6-1.7v-.2c-.6.5-1.4.7-2.2.7-1.3 0-2.3-.4-3.1-1.2-.8-.9-1.2-1.9-1.2-3.2 0-1.3.4-2.3 1.2-3.2.8-.8 1.8-1.3 3.1-1.3.7 0 1.5.4 2.2 1zm3.5 7.9V62h2.5v8.9h-2.5zm1.2-12.7c.3 0 .7.1.9.4.2.2.4.5.4.9s-.1.7-.4.9c-.2.2-.5.4-.9.4s-.7-.1-.9-.4c-.2-.2-.4-.5-.4-.9s.1-.7.4-.9c.3-.2.6-.4.9-.4zm5.7 1.3v2.4h1.9V64h-1.9v3.4c0 .6.1 1 .2 1.2.2.2.5.3 1 .3h.7V71h-1.1c-1 0-1.8-.2-2.2-.7-.4-.5-.6-1.3-.6-2.5v-3.7h-1.2V62h1.2v-2.4h2zm13.3 11.4V58.2h2.5v12.7h-2.5zm25.1-3.2l1.6 1.3c-.9 1.2-2.3 1.9-4.1 1.9-1.3 0-2.5-.4-3.4-1.3-.9-.8-1.4-1.9-1.4-3.2 0-1.3.5-2.3 1.4-3.2.9-.8 2.1-1.3 3.4-1.3 1.6 0 2.9.6 3.9 1.8l-1.6 1.4c-.7-.7-1.5-1.2-2.3-1.2-.7 0-1.3.2-1.7.7-.5.5-.7 1.1-.7 1.8s.2 1.3.7 1.8c.5.5 1 .7 1.7.7.5 0 .9-.1 1.2-.3.4-.1.8-.5 1.3-.9zm9.4-4.3c.3.4.6.9.8 1.4.2.5.3 1 .3 1.6v.8H76c.1.5.3 1 .7 1.3.4.3 1 .5 1.6.5.5 0 .9-.1 1.2-.2.2-.1.5-.3.7-.5.2-.2.4-.3.5-.5l1.6 1.3-.1.1c-1 1.1-2.3 1.7-4 1.7-1.4 0-2.6-.4-3.5-1.2-.9-.8-1.3-1.9-1.3-3.2 0-1.2.4-2.3 1.2-3.2.8-.9 1.9-1.3 3.3-1.3.7 0 1.4.1 2 .4.6.2 1 .6 1.4 1zm7.5-.5c.7.6 1 1.4 1 2.4v5.4h-2.2V70c-.7.6-1.5.9-2.4.9-.9 0-1.6-.2-2.2-.7-.6-.5-.9-1.1-.9-1.9 0-.9.3-1.6 1-2.1s1.6-.7 2.7-.7c.5 0 1.1.1 1.6.2v-.4c0-.4-.1-.7-.4-.9-.3-.2-.7-.4-1.2-.4-.9 0-1.5.3-2.1 1.2l-1.4-1.3c.4-.6.9-1.1 1.5-1.4.6-.3 1.3-.5 2.1-.5 1.3 0 2.3.3 2.9.9zm10.3.1c.6.7.9 1.6.9 2.8v5h-2.2v-5c0-.6-.1-1-.4-1.4-.3-.3-.6-.5-1.1-.5-.6 0-1 .2-1.3.6-.3.4-.5.9-.5 1.5v4.8h-2.2v-8.7h2.1v.5c.5-.5 1.2-.7 2.1-.7 1.2.1 2 .5 2.6 1.1zm-55.8-.1c.7.6 1 1.4 1 2.4v5.4h-2.2V70c-.7.6-1.5.9-2.4.9-.9 0-1.6-.2-2.2-.7-.6-.5-.9-1.1-.9-1.9 0-.9.3-1.6 1-2.1s1.6-.7 2.7-.7c.5 0 1.1.1 1.6.2v-.4c0-.4-.1-.7-.4-.9-.3-.2-.7-.4-1.2-.4-.9 0-1.5.3-2.1 1.2l-1.4-1.3c.4-.6.9-1.1 1.5-1.4.6-.3 1.3-.5 2.1-.5 1.3 0 2.2.3 2.9.9zm13.7 8c-3.5 0-6.3-2.8-6.3-6.3s2.8-6.3 6.3-6.3 6.3 2.8 6.3 6.3c0 3.4-2.8 6.3-6.3 6.3zm27.9-3.4c-.2.2-.4.4-.4.7 0 .3.1.5.3.6.2.2.5.2.9.2.8 0 1.4-.2 1.9-.6v-.8c-.6-.2-1.2-.3-1.7-.3-.4-.1-.8 0-1 .2zM76 65.4h3.7c0-.4-.2-.7-.5-1-.3-.3-.8-.4-1.3-.4s-.9.1-1.3.4c-.3.3-.5.6-.6 1zm-53.5 2.8c.4-.4.6-1 .6-1.7s-.2-1.3-.6-1.8c-.4-.4-.9-.7-1.6-.7-.6 0-1.2.2-1.6.7-.4.4-.6 1-.6 1.8 0 .7.2 1.3.6 1.7.4.4.9.7 1.6.7s1.2-.3 1.6-.7zM2.4 60.5v8.1h1.3c1.5 0 2.6-.3 3.5-.8 1-.6 1.5-1.7 1.5-3.3 0-1.6-.5-2.6-1.5-3.2-.9-.5-2.1-.8-3.5-.8H2.4zm54.6 0c-2.3 0-4.1 1.8-4.1 4.1s1.8 4.1 4.1 4.1 4.1-1.8 4.1-4.1-1.9-4.1-4.1-4.1zm-17.7 7c-.2.2-.4.4-.4.7 0 .3.1.5.3.6.2.2.5.2.9.2.8 0 1.4-.2 1.9-.6v-.8c-.6-.2-1.2-.3-1.7-.3-.4-.1-.7 0-1 .2z"/>
    </g>
  </g>
</svg>
