<?xml version="1.0" encoding="UTF-8"?>
<svg width="300px" height="33px" viewBox="0 0 300 33" version="1.1" xmlns="http://www.w3.org/2000/svg" xmlns:xlink="http://www.w3.org/1999/xlink">
    <!-- Generator: Sketch 41.2 (35397) - http://www.bohemiancoding.com/sketch -->
    <title>Combined Shape</title>
    <desc>Created with Sketch.</desc>
    <defs></defs>
    <g id="Page-1" stroke="none" stroke-width="1" fill="none" fill-rule="evenodd">
        <g id="Newly-Editted" transform="translate(-120.000000, -3596.000000)" fill="#AAB2B9">
            <g id="logos" transform="translate(120.000000, 3465.000000)">
                <path d="M31.9864214,138.388212 L24.4683464,138.388212 L28.7225889,147.307656 L23.1097176,157.049838 L19.2976664,163.615311 L26.2625913,163.615311 C27.1091658,163.615311 27.9565622,163.192024 28.3798495,162.344627 L36.3220337,148.473134 C36.7461428,147.730943 36.7461428,146.778341 36.3220337,146.036972 L31.9864214,138.388212 Z M146.664311,155.143648 C142.746233,155.143648 139.463496,152.284199 139.463496,147.7316 C139.463496,143.177358 142.746233,140.318731 146.664311,140.318731 C148.782392,140.318731 150.58239,141.0601 151.853074,142.648044 L153.547866,141.0601 C151.853074,139.154074 149.523761,137.988596 146.664311,137.988596 C141.157467,137.988596 136.922129,142.224756 136.922129,147.7316 C136.922129,153.344472 141.157467,157.473783 146.664311,157.367756 C149.841021,157.367756 152.488415,155.991045 154.077181,154.085019 L152.382388,152.390226 C151.005677,154.085019 148.993624,155.143648 146.664311,155.143648 Z M155.876851,157.049674 L158.312191,157.049674 L158.312191,138.412705 L155.876851,138.412705 L155.876851,157.049674 Z M295.44658,143.919303 C293.434527,143.919303 291.951789,144.871905 290.999187,146.354643 C290.363023,144.871905 288.987134,143.919303 286.975081,143.919303 C285.492343,143.919303 283.798372,144.871905 283.057003,146.14341 L282.950975,146.14341 L282.950975,144.34259 L280.621662,144.34259 L280.409608,144.34259 L280.409608,157.367509 L282.844948,157.367509 L282.844948,150.272721 C282.844948,148.366696 284.221659,146.354643 286.127685,146.354643 C287.928505,146.354643 288.987134,147.202039 288.987134,149.849434 L288.987134,157.261482 L291.422474,157.261482 L291.422474,150.167516 C291.422474,148.260668 292.799185,146.248616 294.706032,146.248616 C296.505209,146.248616 297.56466,147.096012 297.56466,149.743407 L297.56466,157.155454 L300,157.155454 L300,149.319298 C300,146.14341 298.623289,143.919303 295.44658,143.919303 Z M273.84397,146.460506 L273.737943,146.460506 L273.737943,144.342426 L271.40863,144.342426 L271.40863,157.050085 L273.84397,157.050085 L273.84397,150.061324 C273.84397,147.731189 275.432736,146.354478 277.126707,146.354478 C277.656843,146.354478 278.079309,146.460506 278.397391,146.566533 L279.350814,144.342426 C278.8215,144.131193 278.291363,144.025166 277.550816,144.025166 C276.174105,144.025166 274.374107,144.977767 273.84397,146.460506 Z M262.936638,143.919385 C259.124587,143.919385 256.371165,146.778012 256.371165,150.696091 C256.371165,154.508964 259.124587,157.473618 262.936638,157.473618 C266.749511,157.473618 269.502111,154.614991 269.502111,150.696091 C269.502111,146.778012 266.749511,143.919385 262.936638,143.919385 Z M214.013261,138.413034 L207.659842,138.413034 L207.659842,156.943975 L210.095182,156.943975 L210.095182,149.4259 L214.013261,149.4259 C217.083943,149.4259 219.837365,147.096587 219.837365,143.919056 C219.837365,140.742347 217.083943,138.413034 214.013261,138.413034 Z M231.698613,143.919467 C228.521082,143.919467 226.933139,145.825493 226.509029,146.990149 L228.732315,147.942751 C229.156424,146.778094 230.427108,146.142753 231.803819,146.142753 C233.49779,146.142753 235.086555,147.307409 235.086555,149.213435 L235.086555,149.531516 C234.557241,149.319462 233.286557,148.790969 231.592586,148.790969 C228.62711,148.790969 225.979715,150.378913 225.979715,153.238362 C225.979715,155.884935 228.203822,157.473701 230.744368,157.579728 C232.968475,157.579728 234.239159,156.415072 234.980528,155.35562 L235.086555,155.35562 L235.086555,157.155619 L237.41669,157.155619 L237.41669,149.425489 C237.41669,145.825493 234.875323,143.919467 231.698613,143.919467 Z M221.531582,157.049674 L223.967744,157.049674 L223.967744,138.412705 L221.531582,138.412705 L221.531582,157.049674 Z M244.934765,155.249593 C243.876136,155.249593 243.239972,154.615073 243.239972,153.132335 L243.239972,146.566862 L246.417503,146.566862 L246.417503,144.342754 L243.239972,144.342754 L243.239972,140.424676 L240.805454,140.424676 L240.805454,144.342754 L238.581347,144.342754 L238.581347,146.566862 L240.805454,146.566862 L240.805454,153.238362 C240.805454,155.77973 242.28737,157.261646 244.934765,157.367673 C245.675312,157.367673 246.311476,157.261646 246.840791,157.049591 L245.993394,155.038361 C245.675312,155.249593 245.358874,155.249593 244.934765,155.249593 Z M252.347306,142.64829 C252.347306,141.165552 253.299908,140.424183 254.465386,140.424183 C254.888673,140.424183 255.206755,140.53021 255.524015,140.636237 L256.371412,138.624184 C255.842097,138.412952 255.311961,138.306925 254.571413,138.306925 C251.817991,138.306925 250.017993,140.000895 250.017993,142.64829 L250.017993,144.237056 L247.581831,144.237056 L247.581831,146.460341 L249.911966,146.460341 L249.911966,157.04992 L252.347306,157.04992 L252.347306,146.460341 L255.630043,146.460341 L255.630043,144.237056 L252.347306,144.237056 L252.347306,142.64829 Z M184.045508,151.331844 C184.045508,153.237869 182.774003,155.249922 180.656745,155.249922 C178.856746,155.249922 177.480035,154.296498 177.480035,151.649925 L177.480035,144.237056 L175.044695,144.237056 L175.044695,152.072391 C175.044695,155.249922 176.632639,157.474029 179.915375,157.474029 C181.609346,157.474029 183.198112,156.4154 183.939481,155.249922 L184.045508,155.249922 L184.045508,157.04992 L184.045508,157.155948 L186.480849,157.155948 L186.480849,144.343083 L184.045508,144.343083 L184.045508,151.331844 Z M166.678484,143.919385 C162.866433,143.919385 160.113011,146.778012 160.113011,150.696091 C160.113011,154.508964 162.866433,157.473618 166.678484,157.473618 C170.491357,157.473618 173.243957,154.614991 173.243957,150.696091 C173.243957,146.778012 170.491357,143.919385 166.678484,143.919385 Z M198.658864,144.342672 L198.764892,146.143492 L198.658864,146.143492 C197.917495,144.978014 196.329551,143.919385 194.316677,143.919385 C191.139967,143.919385 188.28134,146.778012 188.28134,150.696091 C188.28134,154.614991 191.139967,157.473618 194.422704,157.473618 C196.435579,157.473618 198.023522,156.414989 198.764892,155.249511 L198.870919,155.249511 L198.870919,157.050331 L201.095026,157.050331 L201.095026,138.412541 L198.658864,138.412541 L198.658864,144.342672 Z M75.3465716,143.73544 C71.5402739,143.73544 68.4465782,146.626122 68.4465782,150.614885 C68.4465782,154.583101 71.5402739,157.494331 75.3465716,157.494331 C79.1520474,157.494331 82.246565,154.583101 82.246565,150.614885 C82.246565,146.626122 79.1520474,143.73544 75.3465716,143.73544 Z M57.4357668,145.832068 L57.4357668,148.742476 L64.41713,148.742476 C64.2132946,150.370694 63.664254,151.571515 62.8291863,152.40576 C61.8116531,153.423294 60.2245313,154.543566 57.4357668,154.543566 C53.1412504,154.543566 49.7828975,151.083296 49.7828975,146.788779 C49.7828975,142.494263 53.1412504,139.033992 57.4357668,139.033992 C59.7560386,139.033992 61.4450781,139.949608 62.6869947,141.130703 L64.7631571,139.075088 C63.0124738,137.405775 60.6922021,136.123584 57.4357668,136.123584 C51.5335807,136.123584 46.588106,140.906319 46.588106,146.808505 C46.588106,152.690966 51.5335807,157.473701 57.4357668,157.473701 C60.6108323,157.473701 63.0124738,156.435619 64.9053487,154.481923 C66.8384976,152.5685 67.4294559,149.861927 67.4294559,147.664121 C67.4294559,146.972067 67.3678121,146.361383 67.2658944,145.832068 L57.4357668,145.832068 Z M90.4075434,143.73544 C86.6020676,143.73544 83.5075501,146.626122 83.5075501,150.614885 C83.5075501,154.583101 86.6020676,157.494331 90.4075434,157.494331 C94.2138412,157.494331 97.3075368,154.583101 97.3075368,150.614885 C97.3075368,146.626122 94.2138412,143.73544 90.4075434,143.73544 Z M108.888265,145.262562 L108.786348,145.262562 C108.114842,144.448042 106.812103,143.715714 105.163338,143.715714 C101.723615,143.715714 98.5690973,146.727218 98.5690973,150.614885 C98.5690973,154.461457 101.723615,157.473783 105.163338,157.473783 C106.812103,157.473783 108.114842,156.740633 108.786348,155.907209 L108.888265,155.907209 L108.888265,156.904194 C108.888265,159.529397 107.483609,160.934053 105.224159,160.934053 C103.37238,160.934053 102.232381,159.611589 101.764711,158.491316 L99.1395077,159.590219 C99.8923837,161.422272 101.906902,163.661174 105.244707,163.661174 C108.786348,163.661174 111.778126,161.585012 111.778126,156.496523 L111.778126,144.143111 L108.888265,144.143111 L108.888265,145.262562 Z M113.853877,157.066934 L116.866203,157.066934 L116.866203,136.856816 L113.853877,136.856816 L113.853877,157.066934 Z M130.70671,148.111901 C130.1363,146.565054 128.386439,143.735193 124.82425,143.735193 C121.283432,143.735193 118.331928,146.523958 118.331928,150.614639 C118.331928,154.46121 121.242336,157.494906 125.149729,157.494906 C128.305069,157.494906 130.116574,155.560935 130.889998,154.441484 L128.549178,152.874089 C127.755206,154.013266 126.697399,154.766964 125.149729,154.766964 C123.602881,154.766964 122.524526,154.054361 121.811924,152.690801 L131.011641,148.884503 L130.70671,148.111901 Z M12.7078645,137.565473 L23.9327853,137.565473 L31.4508603,137.565473 L28.3801783,132.270684 C27.956891,131.529315 27.2146999,131 26.2620981,131 L10.3777298,131 C9.53033333,131 8.6837588,131.423287 8.25964961,132.270684 L4.09746182,139.833964 L7.80841717,146.286013 L12.7078645,137.565473 Z M12.7078645,157.04992 L7.0949932,147.307738 L7.0999247,147.300341 L3.38896935,140.848292 L0.317465449,146.143081 C-0.105821816,146.884451 -0.105821816,147.837052 0.317465449,148.578422 L8.25964961,162.34471 C8.6837588,163.086079 9.53033333,163.615393 10.3777298,163.615393 L17.7585446,163.615393 L21.4645685,157.04992 L12.7078645,157.04992 Z M13.4527679,147.695436 C13.4527679,150.482557 15.7122178,152.741185 18.4985165,152.741185 C21.2856371,152.741185 23.545087,150.482557 23.545087,147.695436 C23.545087,144.908315 21.2856371,142.649687 18.4985165,142.649687 C15.7122178,142.649687 13.4527679,144.908315 13.4527679,147.695436 Z M121.323706,150.391077 C121.242336,147.745326 123.37932,146.381766 124.926168,146.381766 C126.126989,146.381766 127.144522,146.971902 127.470823,147.846422 L121.323706,150.391077 Z M105.427995,154.76721 C103.352654,154.76721 101.601971,153.016527 101.601971,150.614885 C101.601971,148.192696 103.352654,146.422287 105.427995,146.422287 C107.483609,146.422287 109.092101,148.192696 109.092101,150.614885 C109.111827,153.037075 107.483609,154.76721 105.427995,154.76721 Z M90.4075434,154.76721 C88.3313811,154.76721 86.5206979,153.057623 86.5206979,150.594337 C86.5206979,148.111326 88.311655,146.422287 90.4075434,146.422287 C92.5042538,146.422287 94.2952109,148.111326 94.2952109,150.594337 C94.2952109,153.057623 92.4837058,154.76721 90.4075434,154.76721 Z M75.3465716,154.76721 C73.2704092,154.76721 71.4589041,153.057623 71.4589041,150.594337 C71.4589041,148.111326 73.2498613,146.422287 75.3465716,146.422287 C77.422734,146.422287 79.2334172,148.111326 79.2334172,150.594337 C79.2334172,153.057623 77.422734,154.76721 75.3465716,154.76721 Z M194.846813,155.355538 C192.728733,155.355538 190.822707,153.55554 190.822707,150.696091 C190.822707,147.731436 192.728733,146.037465 194.846813,146.037465 C196.964071,146.037465 198.870919,147.731436 198.870919,150.696091 C198.870919,153.55554 196.858044,155.249511 194.846813,155.355538 Z M166.678484,155.355538 C164.560404,155.355538 162.549173,153.660745 162.549173,150.696091 C162.549173,147.731436 164.560404,146.037465 166.678484,146.037465 C168.796564,146.037465 170.807795,147.731436 170.807795,150.696091 C170.807795,153.55554 168.796564,155.249511 166.678484,155.355538 Z M231.168477,155.249593 C229.897793,155.249593 228.521082,154.615073 228.521082,153.238362 C228.521082,152.072884 229.473684,150.696173 232.015051,150.696173 C234.027926,150.696173 235.086555,151.543569 235.086555,151.543569 C235.086555,153.660828 233.074503,155.249593 231.168477,155.249593 Z M214.119288,147.201793 L210.095182,147.201793 L210.095182,140.63632 L214.119288,140.63632 C216.237368,140.63632 217.402024,142.43714 217.402024,143.919056 C217.402024,145.401794 216.237368,147.201793 214.119288,147.201793 Z M262.936638,155.355538 C260.81938,155.355538 258.807327,153.660745 258.807327,150.696091 C258.807327,147.731436 260.81938,146.037465 262.936638,146.037465 C265.054718,146.037465 267.065949,147.731436 267.065949,150.696091 C267.065949,153.55554 265.054718,155.249511 262.936638,155.355538 Z" id="Combined-Shape"></path>
            </g>
        </g>
    </g>
</svg>