<svg xmlns="http://www.w3.org/2000/svg" xmlns:xlink="http://www.w3.org/1999/xlink" viewBox="0 0 148.11 56.29"><defs><style>.a{fill:#fff;}.b{opacity:0.75;}.c{fill:#b2b2b2;}.d{mask:url(#a);}.e{opacity:0.5;}.f{mask:url(#b);}.g{fill:#909090;}.h{fill:#707070;}.i{fill:#b0b0b0;}</style><mask id="a" x="-65.52" y="-44.85" width="248.35" height="145.67" maskUnits="userSpaceOnUse"><g transform="translate(-2119.29 -3237)"><path class="a" d="M2053.76,3192.15h248.35v145.67H2053.76V3192.15h0Z"/></g></mask><mask id="b" x="-44.62" y="-44.65" width="248.15" height="145.58" maskUnits="userSpaceOnUse"><g transform="translate(-2119.29 -3237)"><path class="a" d="M2074.67,3192.35h248.15v145.58H2074.67V3192.35h0Z"/></g></mask></defs><title>logo_gitlab</title><g class="b"><path class="c" d="M2229.93,3254.9h-2.71v20.17h11v-2.49h-8.26V3254.9h0Z" transform="translate(-2119.29 -3237)"/><g class="d"><path class="c" d="M2248.63,3271.53a4.62,4.62,0,0,1-3.36,1.42c-2.06,0-2.9-1-2.9-2.34,0-2,1.39-3,4.34-3a12.3,12.3,0,0,1,1.91.15v3.73h0Zm-2.8-12.23a9,9,0,0,0-5.76,2.07l1,1.66a8.3,8.3,0,0,1,4.41-1.29c2.22,0,3.2,1.14,3.2,3v1a11.6,11.6,0,0,0-1.88-.15c-4.74,0-7.15,1.66-7.15,5.14,0,3.11,1.91,4.68,4.81,4.68,2,0,3.82-.89,4.47-2.34l0.49,2h1.91v-10.32c0-3.26-1.42-5.45-5.45-5.45h0Z" transform="translate(-2119.29 -3237)"/><path class="c" d="M2260,3273a6.41,6.41,0,0,1-2.59-.43v-9.33A5.35,5.35,0,0,1,2261,3262c2.62,0,3.63,1.85,3.63,4.84,0,4.25-1.63,6.25-4.56,6.25m1.14-13.74a5,5,0,0,0-3.73,1.65v-6.05h-2.65v19.68a13.74,13.74,0,0,0,5.11.86c5.05,0,7.49-3.23,7.49-8.81,0-4.4-2.25-7.33-6.22-7.33" transform="translate(-2119.29 -3237)"/><path class="c" d="M2200.46,3257.09a7.67,7.67,0,0,1,5,1.6l1.16-2a9.06,9.06,0,0,0-6-2.14c-5.76,0-9.8,3.51-9.8,10.59,0,7.42,4.35,10.32,9.33,10.32a15.8,15.8,0,0,0,6-1.17l-0.06-7.93v-2.49h-7.39v2.49h4.71l0.06,6a7.42,7.42,0,0,1-3.14.55c-4,0-6.68-2.52-6.68-7.82s2.77-8,6.84-8" transform="translate(-2119.29 -3237)"/><path class="c" d="M2219.52,3254.9h-2.65V3270c0,3.26,1.42,5.45,5.45,5.45a9.13,9.13,0,0,0,1.63-.15v-2.38a8.11,8.11,0,0,1-1.23.09c-2.22,0-3.2-1.14-3.2-3v-8.07H2224v-2.22h-4.44v-4.77h0Z" transform="translate(-2119.29 -3237)"/><path class="c" d="M2210.15,3275.07h2.65v-15.4h-2.65v15.4h0Z" transform="translate(-2119.29 -3237)"/><path class="c" d="M2210.15,3257.55h2.65v-2.65h-2.65v2.65h0Z" transform="translate(-2119.29 -3237)"/></g><g class="e"><g class="f"><path class="g" d="M2180.28,3269.19l-3.42-10.52-6.78-20.86a1.16,1.16,0,0,0-2.22,0l-6.78,20.86h-22.5l-6.78-20.86a1.16,1.16,0,0,0-2.22,0l-6.78,20.86-3.42,10.52a2.33,2.33,0,0,0,.85,2.6l29.59,21.5,29.59-21.5a2.33,2.33,0,0,0,.85-2.6" transform="translate(-2119.29 -3237)"/><path class="h" d="M2149.84,3293.29h0l11.25-34.63h-22.5l11.25,34.63h0Z" transform="translate(-2119.29 -3237)"/><path class="g" d="M2149.84,3293.29l-11.25-34.63h-15.77l27,34.63h0Z" transform="translate(-2119.29 -3237)"/><path class="i" d="M2122.82,3258.66h0l-3.42,10.52a2.33,2.33,0,0,0,.85,2.6l29.59,21.5-27-34.63h0Z" transform="translate(-2119.29 -3237)"/><path class="h" d="M2122.82,3258.66h15.77l-6.78-20.86a1.16,1.16,0,0,0-2.22,0l-6.78,20.86h0Z" transform="translate(-2119.29 -3237)"/><path class="g" d="M2149.84,3293.29l11.25-34.63h15.77l-27,34.63h0Z" transform="translate(-2119.29 -3237)"/><path class="i" d="M2176.86,3258.66h0l3.42,10.52a2.33,2.33,0,0,1-.85,2.6l-29.59,21.5,27-34.63h0Z" transform="translate(-2119.29 -3237)"/><path class="h" d="M2176.86,3258.66h-15.77l6.78-20.86a1.16,1.16,0,0,1,2.22,0l6.78,20.86h0Z" transform="translate(-2119.29 -3237)"/></g></g></g></svg>