<svg id="Layer_1" xmlns="http://www.w3.org/2000/svg" viewBox="0 0 360 82.9">
  <style>
    .st0{fill:#AAB2B9;}
  </style>
  <title>
    Docker Logo
  </title>
  <g id="Page-1">
    <g id="Newly-Editted">
      <g id="Docker-Logo">
        <path id="SVGID_1_" class="st0" d="M23.2 66.8c-3.3 0-6.3-2.7-6.3-6s2.7-6 6.3-6c3.6 0 6.3 2.7 6.3 6-.1 3.3-3.1 6-6.3 6zm76.9-32.5c-.6-4.8-3.6-8.7-7.5-11.6l-1.5-1.2L90 23c-2.4 2.7-3.3 7.5-3 11 .3 2.7 1.2 5.4 2.7 7.5-1.2.6-2.7 1.2-3.9 1.8-2.7.9-5.4 1.2-8.1 1.2H.5l-.3 1.8c-.6 5.7.3 11.6 2.7 17l1.2 2.1v.3c7.2 11.9 20 17.3 34 17.3C65 83 87 71.4 97.5 46.3c6.9.3 13.7-1.5 17-8.1l.9-1.5-1.5-.9c-3.9-2.4-9.3-2.7-13.8-1.5zm-38.5-4.8H50v11.6h11.6V29.5zm0-14.6H50v11.6h11.6V14.9zm0-14.9H50v11.6h11.6V0zM76 29.5H64.3v11.6H76V29.5zm-43.3 0H21.1v11.6h11.6V29.5zm14.6 0H35.7v11.6h11.6V29.5zm-28.9 0H6.7v11.6h11.6V29.5h.1zm28.9-14.6H35.7v11.6h11.6V14.9zm-14.6 0H21.1v11.6h11.6V14.9z"/>
        <path id="docker_2_" class="st0" d="M301.2 59.7c5.1-4.5 10.1-8.7 15.2-13.1 1.8-1.5 3.6-3 5.4-4.8-1.5-1.8-3.6-3-5.7-3.9-3.9-1.5-7.8-.9-11.6 1.2-4.8 2.7-6.9 7.2-6.6 12.5 0 2.1.6 4.2 1.8 6 .9.9 1.2 1.5 1.5 2.1zm6 4.1c2.4.9 5.4.9 8.1.3 1.2-.6 4.8-2.1 6-1.8h.6c.9.3 1.5.9 1.8 1.8.9 1.8.6 3.6-1.2 4.5l-.6.3c-6.6 3.9-13.4 3.3-20-.3-3-1.8-5.4-4.2-7.2-7.2l-.3-.6c-4.2-7.2-3.6-14.9 1.2-21.8 1.5-2.4 3.9-4.2 6.3-5.7l.9-.6c6.3-3.6 12.8-3.3 19.1-.3 3.3 1.8 6.3 4.2 8.1 7.5l.3.6c1.5 2.4-.3 4.5-2.4 6l-6.3 5.4c-5.5 4.2-9.9 8.1-14.4 11.9zM355.8 31h.6c2.1 0 3.6 1.5 3.6 3.6 0 3-2.7 3.6-5.1 3.6-3 0-6 1.8-8.1 3.9-2.7 2.7-3.9 6-3.9 9.5v16.7c0 1.8-1.2 3.6-3.3 3.6h-.6c-2.1 0-3.3-1.5-3.3-3.6V50.7c0-6.9 3.3-12.2 8.7-16.1 4-2.4 7.5-3.6 11.4-3.6zm-85.3 11.7l8.1-8.1c.9-.6 3.6-3.9 4.8-3.9h1.2c1.5.3 2.7 1.2 2.7 3v.6c0 1.2-1.5 2.4-2.1 3.3-1.5 1.8-3.3 3.3-4.8 5.1L272 51l10.7 10.7 3 3 1.2 1.2c.3.6.6.9.6 1.5V68.3c-.3 1.5-1.5 2.7-3 2.7h-.6c-1.2 0-2.4-1.2-3.3-2.1-1.5-1.5-3.3-3-4.8-4.8l-5.4-5.1v8.4c0 1.8-1.2 3.6-3.3 3.6h-.6c-2.1 0-3.3-1.5-3.3-3.6V21.5c0-1.8 1.2-3.3 3.3-3.3h.6c2.1 0 3.3 1.5 3.3 3.3l.1 21.2zm-22.1-4.5c-.9-.6-3-.6-4.2-.6-5.7-.3-9.8 3-12.2 8.1-.9 1.8-1.2 3.6-1.2 5.7 0 6 3 10.1 8.4 12.5 1.8.9 4.5 1.2 6.6 1.2 1.8 0 4.5-1.2 6-1.8h1.5c1.5.3 2.7 1.2 2.7 3v.6c0 4.2-7.8 5.1-10.4 5.4-10.1.6-17.9-5.1-20.9-14.6-.6-1.8-.6-3.3-.6-5.1V51c0-7.5 3.6-13.4 10.1-17 3-1.8 6.3-2.7 9.8-2.7h1.5c3.6 0 7.2.9 10.1 3l.3.3.3.3c.3.6.6 1.2.6 1.8v.6c0 1.8-1.2 2.7-3 3h-.3c-2.1-.6-4.5-1.8-5.1-2.1zM185.8 51c0 5.1 2.7 9 6.9 11.6 2.1 1.2 4.5 1.8 6.9 1.8 5.1 0 9-2.7 11.6-6.9 1.2-2.1 1.8-4.5 1.8-6.9 0-4.8-2.4-8.7-6.3-11.3-2.1-1.5-4.8-2.1-7.2-2.1-5.7 0-9.8 3-12.2 8.1-1.5 2.1-1.5 3.9-1.5 5.7zm12.5-20.3h.9c8.1 0 14 3.9 17.9 10.7 1.5 2.7 2.4 5.7 2.4 9v1.5c0 7.5-3.6 13.4-10.1 17-3 1.8-6.3 2.7-9.8 2.7H198c-7.5 0-13.4-3.6-17-10.1-1.8-3-2.7-6.3-2.7-9.8v-1.5c0-7.5 3.6-13.4 10.1-17 3.3-1.6 6.3-2.5 9.9-2.5zM140.4 51c0 5.4 2.7 9.6 7.5 11.9 1.8.9 3.9 1.5 6.3 1.5 5.4 0 9.2-2.4 11.9-6.9 1.2-2.1 1.8-4.5 1.8-6.9 0-4.8-2.1-8.4-6-11-2.4-1.5-4.8-2.4-7.8-2.4-5.7 0-9.8 3-12.2 8.1-.9 2.1-1.5 3.9-1.5 5.7zm27.5-15.2V21.2c0-1.8 1.2-3.6 3.3-3.6h.6c2.1 0 3.3 1.5 3.3 3.6v30.7c0 7.5-3.6 13.4-10.1 17-3 1.8-6.3 2.7-9.8 2.7h-1.5c-7.5 0-13.4-3.6-17-10.1-1.8-3-2.7-6.3-2.7-9.8v-1.5c0-7.5 3.6-13.4 10.1-17 3-1.8 6.3-2.7 9.8-2.7h1.5c4.4.2 8.9 2 12.5 5.3z"/>
      </g>
    </g>
  </g>
</svg>
