<?xml version="1.0" encoding="utf-8"?>
<!-- Generator: Adobe Illustrator 21.0.0, SVG Export Plug-In . SVG Version: 6.00 Build 0)  -->
<svg version="1.1" id="Layer_1" xmlns="http://www.w3.org/2000/svg" xmlns:xlink="http://www.w3.org/1999/xlink" x="0px" y="0px"
	 viewBox="0 0 300 33" style="enable-background:new 0 0 300 33;" xml:space="preserve">
<style type="text/css">
	.st0{fill:#AAB2B9;}
</style>
<title>Google Cloud</title>
<desc>Created with Sketch.</desc>
<g id="Page-1">
	<g id="_x30_2-Features" transform="translate(-733.000000, -2265.000000)">
		<path id="Google-Cloud" class="st0" d="M765,2272.4l4.3,7.6c0.4,0.7,0.4,1.7,0,2.4l-7.9,13.9c-0.4,0.8-1.3,1.3-2.1,1.3h-7l3.8-6.6
			l5.6-9.7l-4.3-8.9H765z M879.7,2289.1c2.3,0,4.3-1.1,5.7-2.8l1.7,1.7c-1.6,1.9-4.2,3.3-7.4,3.3c-5.5,0.1-9.7-4-9.7-9.6
			c0-5.5,4.2-9.7,9.7-9.7c2.9,0,5.2,1.2,6.9,3.1l-1.7,1.6c-1.3-1.6-3.1-2.3-5.2-2.3c-3.9,0-7.2,2.9-7.2,7.4
			C872.5,2286.3,875.7,2289.1,879.7,2289.1z M888.9,2291v-18.6h2.4v18.6H888.9z M1028.4,2277.9c3.2,0,4.6,2.2,4.6,5.4v7.8h-2.4v-7.4
			c0-2.6-1.1-3.5-2.9-3.5c-1.9,0-3.3,2-3.3,3.9v7.1h-2.4v-7.4c0-2.6-1.1-3.5-2.9-3.5c-1.9,0-3.3,2-3.3,3.9v7.1h-2.4v-13h0.2h2.3v1.8
			h0.1c0.7-1.3,2.4-2.2,3.9-2.2c2,0,3.4,1,4,2.4C1025,2278.9,1026.4,2277.9,1028.4,2277.9z M1006.8,2280.5c0.5-1.5,2.3-2.4,3.7-2.4
			c0.7,0,1.3,0.1,1.8,0.3l-1,2.2c-0.3-0.1-0.7-0.2-1.3-0.2c-1.7,0-3.3,1.4-3.3,3.7v7h-2.4v-12.7h2.3v2.1H1006.8z M995.9,2277.9
			c3.8,0,6.6,2.9,6.6,6.8c0,3.9-2.8,6.8-6.6,6.8c-3.8,0-6.6-3-6.6-6.8C989.4,2280.8,992.1,2277.9,995.9,2277.9z M947,2272.4
			c3.1,0,5.8,2.3,5.8,5.5c0,3.2-2.8,5.5-5.8,5.5h-3.9v7.5h-2.4v-18.5H947z M964.7,2277.9c3.2,0,5.7,1.9,5.7,5.5v7.7h-2.3v-1.8H968
			c-0.7,1.1-2,2.2-4.2,2.2c-2.5-0.1-4.8-1.7-4.8-4.3c0-2.9,2.6-4.4,5.6-4.4c1.7,0,3,0.5,3.5,0.7v-0.3c0-1.9-1.6-3.1-3.3-3.1
			c-1.4,0-2.6,0.6-3.1,1.8l-2.2-1C959.9,2279.8,961.5,2277.9,964.7,2277.9z M954.5,2291v-18.6h2.4v18.6H954.5z M977.9,2289.2
			c0.4,0,0.7,0,1.1-0.2l0.8,2c-0.5,0.2-1.2,0.3-1.9,0.3c-2.6-0.1-4.1-1.6-4.1-4.1v-6.7h-2.2v-2.2h2.2v-3.9h2.4v3.9h3.2v2.2h-3.2v6.6
			C976.2,2288.6,976.9,2289.2,977.9,2289.2z M985.3,2276.6v1.6h3.3v2.2h-3.3v10.6h-2.4v-10.6h-2.3v-2.2h2.4v-1.6
			c0-2.6,1.8-4.3,4.6-4.3c0.7,0,1.3,0.1,1.8,0.3l-0.8,2c-0.3-0.1-0.6-0.2-1.1-0.2C986.3,2274.4,985.3,2275.2,985.3,2276.6z
			 M917,2285.3v-7h2.4v12.8H917v-0.1v-1.8h-0.1c-0.7,1.2-2.3,2.2-4,2.2c-3.3,0-4.9-2.2-4.9-5.4v-7.8h2.4v7.4c0,2.6,1.4,3.6,3.2,3.6
			C915.8,2289.2,917,2287.2,917,2285.3z M899.7,2277.9c3.8,0,6.6,2.9,6.6,6.8c0,3.9-2.8,6.8-6.6,6.8c-3.8,0-6.6-3-6.6-6.8
			C893.1,2280.8,895.9,2277.9,899.7,2277.9z M931.7,2278.3v-5.9h2.4v18.6h-2.2v-1.8h-0.1c-0.7,1.2-2.3,2.2-4.3,2.2
			c-3.3,0-6.1-2.9-6.1-6.8c0-3.9,2.9-6.8,6-6.8c2,0,3.6,1.1,4.3,2.2h0.1L931.7,2278.3z M808.3,2277.7c3.8,0,6.9,2.9,6.9,6.9
			c0,4-3.1,6.9-6.9,6.9c-3.8,0-6.9-2.9-6.9-6.9C801.4,2280.6,804.5,2277.7,808.3,2277.7z M790.4,2279.8h9.8c0.1,0.5,0.2,1.1,0.2,1.8
			c0,2.2-0.6,4.9-2.5,6.8c-1.9,2-4.3,3-7.5,3c-5.9,0-10.8-4.8-10.8-10.7c0-5.9,4.9-10.7,10.8-10.7c3.3,0,5.6,1.3,7.3,3l-2.1,2.1
			c-1.2-1.2-2.9-2.1-5.3-2.1c-4.3,0-7.7,3.5-7.7,7.8c0,4.3,3.4,7.8,7.7,7.8c2.8,0,4.4-1.1,5.4-2.1c0.8-0.8,1.4-2,1.6-3.7h-7V2279.8z
			 M823.4,2277.7c3.8,0,6.9,2.9,6.9,6.9c0,4-3.1,6.9-6.9,6.9c-3.8,0-6.9-2.9-6.9-6.9C816.5,2280.6,819.6,2277.7,823.4,2277.7z
			 M841.9,2279.3v-1.1h2.9v12.4c0,5.1-3,7.2-6.5,7.2c-3.3,0-5.4-2.2-6.1-4.1l2.6-1.1c0.5,1.1,1.6,2.4,3.5,2.4c2.3,0,3.7-1.4,3.7-4
			v-1h-0.1c-0.7,0.8-2,1.6-3.6,1.6c-3.4,0-6.6-3-6.6-6.9c0-3.9,3.2-6.9,6.6-6.9c1.6,0,3,0.7,3.6,1.5H841.9z M846.9,2291.1v-20.2h3
			v20.2H846.9z M863.7,2282.1l0.3,0.8l-9.2,3.8c0.7,1.4,1.8,2.1,3.3,2.1c1.5,0,2.6-0.8,3.4-1.9l2.3,1.6c-0.8,1.1-2.6,3.1-5.7,3.1
			c-3.9,0-6.8-3-6.8-6.9c0-4.1,3-6.9,6.5-6.9C861.4,2277.7,863.1,2280.6,863.7,2282.1z M745.7,2271.6l-4.9,8.7l-3.7-6.5l4.2-7.6
			c0.4-0.8,1.3-1.3,2.1-1.3h15.9c1,0,1.7,0.5,2.1,1.3l3.1,5.3h-7.5H745.7z M745.7,2291h8.8l-3.7,6.6h-7.4c-0.8,0-1.7-0.5-2.1-1.3
			l-7.9-13.8c-0.4-0.7-0.4-1.7,0-2.4l3.1-5.3l3.7,6.5l0,0L745.7,2291z M746.5,2281.7c0-2.8,2.3-5,5-5c2.8,0,5,2.3,5,5
			c0,2.8-2.3,5-5,5C748.7,2286.7,746.5,2284.5,746.5,2281.7z M854.3,2284.4l6.1-2.5c-0.3-0.9-1.3-1.5-2.5-1.5
			C856.4,2280.4,854.2,2281.7,854.3,2284.4z M838.4,2288.8c2.1,0,3.7-1.7,3.7-4.2c0-2.4-1.6-4.2-3.7-4.2c-2.1,0-3.8,1.8-3.8,4.2
			C834.6,2287,836.4,2288.8,838.4,2288.8z M823.4,2288.8c2.1,0,3.9-1.7,3.9-4.2c0-2.5-1.8-4.2-3.9-4.2c-2.1,0-3.9,1.7-3.9,4.2
			C819.5,2287.1,821.3,2288.8,823.4,2288.8z M808.3,2288.8c2.1,0,3.9-1.7,3.9-4.2c0-2.5-1.8-4.2-3.9-4.2c-2.1,0-3.9,1.7-3.9,4.2
			C804.5,2287.1,806.3,2288.8,808.3,2288.8z M927.8,2289.4c2-0.1,4-1.8,4-4.7c0-3-1.9-4.7-4-4.7c-2.1,0-4,1.7-4,4.7
			C923.8,2287.6,925.7,2289.4,927.8,2289.4z M899.7,2289.4c2.1-0.1,4.1-1.8,4.1-4.7c0-3-2-4.7-4.1-4.7c-2.1,0-4.1,1.7-4.1,4.7
			S897.6,2289.4,899.7,2289.4z M964.2,2289.2c1.9,0,3.9-1.6,3.9-3.7c0,0-1.1-0.8-3.1-0.8c-2.5,0-3.5,1.4-3.5,2.5
			C961.5,2288.6,962.9,2289.2,964.2,2289.2z M947.1,2281.2c2.1,0,3.3-1.8,3.3-3.3c0-1.5-1.2-3.3-3.3-3.3h-4v6.6H947.1z
			 M995.9,2289.4c2.1-0.1,4.1-1.8,4.1-4.7c0-3-2-4.7-4.1-4.7c-2.1,0-4.1,1.7-4.1,4.7S993.8,2289.4,995.9,2289.4z"/>
	</g>
</g>
</svg>
