<svg id="Layer_1" xmlns="http://www.w3.org/2000/svg" viewBox="0 0 140 54">
  <style>
    .st0{fill:#AAB2B9;}
  </style>
  <title>
    AWS
  </title>
  <g id="Page-1">
    <g id="_x30_2-Features">
      <path id="AWS" class="st0" d="M91.2 46.9c0-.5-.1-1-.3-1.4-.2-.4-.4-.8-.8-1-.4-.3-.9-.4-1.4-.4-.7 0-1.4.3-1.9.8s-.8 1.2-.9 2.1h5.3zm37.3 0c0-.5-.1-1-.3-1.4-.2-.4-.4-.8-.8-1-.4-.3-.9-.4-1.4-.4-.7 0-1.4.3-1.9.8s-.8 1.2-.9 2.1h5.3zm-80.4 5.7l.2.8h1.2l2.7-9.5h-.4l.2-.7h-1.2l-2.1 7-1.9-6.3h-.1l-.2-.7h-1.1l-1.9 6.7-1.7-6.1h-.2l-.2-.7h-1.5l2.9 9.4h.1l.2.8h1.2l1.9-6.9 1.9 6.2zM17.8 51l-8.3-2.8V36.8l8.3 2.7V51zm1.2 0V39.4l8.3-2.7v11.4L19 51zm-8.3-15.6l8-2.2 7.4 2.3-7.4 2.4-8-2.5zM0 31.6V20.2l8.3 2.7v11.6L0 31.6zm9.5 2.8V22.8l8.3-2.7v11.4l-8.3 2.9zM1.2 18.8l8-2.2 7.4 2.3-7.4 2.4-8-2.5zm26.1 15.6L19 31.6V20.2l8.3 2.7v11.5zm1.2 0V22.8l8.3-2.7v11.4l-8.3 2.9zm-8.3-15.6l8-2.2 7.4 2.3-7.4 2.4-8-2.5zm16.6-1L28.5 15V3.6l8.3 2.7v11.5zm1.2 0V6.2l8.3-2.7v11.4L38 17.8zM37.7 0l7.4 2.3-7.4 2.4-8-2.6 8-2.1zm18.1 17.8L47.5 15V3.6l8.3 2.7v11.5zm1.1 0V6.2l8.3-2.7v11.4l-8.3 2.9zM56.6 0L64 2.3l-7.4 2.4-8-2.6 8-2.1zm3.1 49.8l1.4.3c-.3.8-.7 1.5-1.5 2-.7.5-1.6.8-2.6.8-1.3 0-2.4-.5-3.2-1.4-.8-.9-1.2-2.1-1.2-3.6s.4-2.7 1.3-3.6c.8-.9 1.9-1.4 3.2-1.4 1.2 0 2.3.4 3 1.3.8.8 1.1 2.1 1.2 3.8h-6.9c0 1.4.3 2.4.9 2.9.6.5 1.2.7 1.9.7 1.1.1 2-.6 2.5-1.8zm4.2 2.8h-.7V39.9h1.5v4.9c.7-1.2 1.6-1.8 2.8-1.8 1.1 0 2 .4 2.8 1.3.7.9 1.1 2.1 1.1 3.7 0 1.4-.4 2.6-1.1 3.5-.7.9-1.7 1.4-2.8 1.4-1.3 0-2.3-.6-3-1.8l-.6 1.5zm11.2-2.4l1.4-.3c.3 1.2 1.3 1.8 3 1.8.6 0 1.1-.1 1.6-.4.4-.3.6-.7.6-1.2 0-.7-.5-1.2-1.6-1.4l-2-.4c-.8-.1-1.4-.4-1.9-.9-.5-.4-.7-1-.7-1.7 0-.8.3-1.4 1-2 .6-.5 1.5-.8 2.6-.8 2.1 0 3.4.8 3.8 2.4l-1.4.3c-.4-1-1.2-1.5-2.4-1.5-.6 0-1.1.1-1.5.4-.4.2-.6.6-.6 1 0 .7.5 1.1 1.5 1.3l1.9.3c1.9.3 2.9 1.3 2.9 2.8 0 .9-.4 1.6-1.1 2.1-.7.5-1.7.8-2.9.8-2.2.1-3.6-.8-4.2-2.6zm16.1-.4l1.4.3c-.3.8-.7 1.5-1.5 2-.7.5-1.6.8-2.6.8-1.3 0-2.4-.5-3.2-1.4-.8-.9-1.2-2.1-1.2-3.6s.4-2.7 1.3-3.6c.8-.9 1.9-1.4 3.2-1.4 1.2 0 2.3.4 3 1.3.8.8 1.1 2.1 1.2 3.8h-6.9c0 1.4.3 2.4.9 2.9.6.5 1.2.7 1.9.7 1.2.1 2-.6 2.5-1.8zm4.7 2.8h-1.5v-9.4h1.3v2.2c.5-1 .9-1.7 1.4-2 .5-.3.9-.5 1.4-.5h.6v1.4h-.3c-.8 0-1.5.3-2 .9-.5.6-.8 1.4-.9 2.4v5zm12.4-9.4l-3.3 9.4h-1.5l-3.4-9.4h1.6l2.7 7.6 2.6-7.6h1.3zm1.3 9.4v-9.4h1.5v9.4h-1.5zm-.1-11.1v-1.6h1.6v1.6h-1.6zm9.4 7.8l1.3.2c-.2 1-.6 1.9-1.3 2.4-.6.6-1.5.9-2.4.9-1.3 0-2.3-.5-3-1.4-.7-1-1-2.1-1-3.5s.4-2.6 1.1-3.6c.7-.9 1.7-1.4 3-1.4 1 0 1.9.3 2.5.9.6.6 1 1.4 1.2 2.4l-1.3.3c-.3-1.5-1-2.3-2.3-2.3-.8 0-1.4.3-1.9 1-.4.7-.7 1.6-.7 2.7 0 1.2.2 2.1.7 2.8.4.7 1.1 1 1.8 1 1.2 0 1.9-.8 2.3-2.4zm9.7.5l1.4.3c-.3.8-.7 1.5-1.5 2-.7.5-1.6.8-2.6.8-1.3 0-2.4-.5-3.2-1.4-.8-.9-1.2-2.1-1.2-3.6s.4-2.7 1.3-3.6c.8-.9 1.9-1.4 3.2-1.4 1.2 0 2.3.4 3 1.3.8.8 1.1 2.1 1.2 3.8h-6.9c0 1.4.3 2.4.9 2.9.6.5 1.2.7 1.9.7 1.2.1 2-.6 2.5-1.8zm2.4.4l1.4-.3c.3 1.2 1.3 1.8 3 1.8.6 0 1.1-.1 1.6-.4.4-.3.6-.7.6-1.2 0-.7-.5-1.2-1.6-1.4l-2-.4c-.8-.1-1.4-.4-1.9-.9-.5-.4-.7-1-.7-1.7 0-.8.3-1.4 1-2 .6-.5 1.5-.8 2.6-.8 2.1 0 3.4.8 3.8 2.4l-1.4.3c-.4-1-1.2-1.5-2.4-1.5-.6 0-1.1.1-1.5.4-.4.2-.6.6-.6 1 0 .7.5 1.1 1.5 1.3l1.9.3c1.9.3 2.9 1.3 2.9 2.8 0 .9-.4 1.6-1.1 2.1-.7.5-1.7.8-2.9.8-2.3.1-3.7-.8-4.2-2.6zM97.4 23.1v-2.3c0-.3.3-.6.6-.6h10.3c.3 0 .6.2.6.6v1.9c0 .3-.3.7-.8 1.4l-5.3 7.5c2 0 4.1.2 5.9 1.2.4.2.5.6.5.9v2.4c0 .3-.4.7-.8.5-3.2-1.6-7.4-1.8-10.9 0-.4.2-.7-.2-.7-.5v-2.3c0-.4 0-1 .4-1.6l6.2-8.7H98c-.3.2-.6 0-.6-.4zM60.6 37.2h-3.1c-.3 0-.5-.2-.6-.5V20.9c0-.3.3-.6.6-.6h2.9c.3 0 .6.2.6.5v2.1h.1c.8-2 2.2-2.9 4.1-2.9 2 0 3.2.9 4.1 2.9.8-2 2.5-2.9 4.3-2.9 1.3 0 2.7.5 3.6 1.7 1 1.3.8 3.3.8 5v10c0 .3-.3.6-.6.6h-3.1c-.3 0-.6-.3-.6-.6v-8.4c0-.7.1-2.3-.1-3-.2-1.1-.9-1.4-1.8-1.4-.8 0-1.6.5-1.9 1.3-.3.8-.3 2.1-.3 3v8.4c0 .3-.3.6-.6.6h-3.1c-.3 0-.6-.3-.6-.6v-8.4c0-1.8.3-4.4-1.9-4.4-2.3 0-2.2 2.5-2.2 4.4v8.4c0 .4-.3.6-.6.6zM116.5 20c4.6 0 7.1 3.9 7.1 8.9 0 4.8-2.8 8.6-7.1 8.6-4.5 0-7-3.9-7-8.8s2.5-8.7 7-8.7zm13.7 17.2h-3.1c-.3 0-.6-.3-.6-.6V20.8c0-.3.3-.5.6-.5h2.9c.3 0 .5.2.6.4v2.4h.1c.9-2.2 2.1-3.2 4.3-3.2 1.4 0 2.8.5 3.7 1.9.8 1.3.8 3.4.8 4.9v9.9c0 .3-.3.5-.6.5h-3.1c-.3 0-.5-.2-.6-.5V28c0-1.7.2-4.3-2-4.3-.8 0-1.5.5-1.8 1.3-.4 1-.5 1.9-.5 3v8.5c-.1.5-.3.7-.7.7zm-37.5 0c-.2.2-.5.2-.7.1-1-.8-1.2-1.2-1.8-2.1-1.7 1.7-2.9 2.2-5.2 2.2-2.6 0-4.7-1.6-4.7-4.8 0-2.5 1.4-4.2 3.3-5 1.7-.7 4.1-.9 5.9-1.1v-.4c0-.7.1-1.6-.4-2.2-.4-.6-1.1-.8-1.8-.8-1.2 0-2.3.6-2.5 1.8-.1.3-.3.6-.5.6l-3-.3c-.3-.1-.5-.3-.5-.6.7-3.6 4-4.7 7-4.7 1.5 0 3.5.4 4.7 1.5 1.5 1.4 1.4 3.3 1.4 5.3v4.8c0 1.4.6 2.1 1.2 2.9.2.3.2.6 0 .8-.6.5-1.7 1.5-2.4 2zm-40.7 0c-.2.2-.5.2-.7.1-1-.8-1.2-1.2-1.8-2.1-1.7 1.7-2.9 2.2-5.2 2.2-2.6 0-4.7-1.6-4.7-4.8 0-2.5 1.4-4.2 3.3-5 1.7-.7 4.1-.9 5.9-1.1v-.4c0-.7.1-1.6-.4-2.2-.4-.6-1.1-.8-1.8-.8-1.2 0-2.3.6-2.5 1.8-.1.3-.3.6-.5.6l-3-.3c-.3-.1-.5-.3-.5-.6.7-3.6 4-4.7 7-4.7 1.5 0 3.5.4 4.7 1.5 1.5 1.4 1.4 3.3 1.4 5.3v4.8c0 1.4.6 2.1 1.2 2.9.2.3.2.6 0 .8l-2.4 2zm-3.1-7.5V29c-2.3 0-4.7.5-4.7 3.1 0 1.3.7 2.2 1.9 2.2.9 0 1.7-.5 2.2-1.4.6-1 .6-2 .6-3.2zm40.7 0V29c-2.3 0-4.7.5-4.7 3.1 0 1.3.7 2.2 1.9 2.2.9 0 1.7-.5 2.2-1.4.6-1 .6-2 .6-3.2zm26.9-6.1c-2.3 0-2.4 3.1-2.4 5s0 5.6 2.4 5.6 2.5-2.9 2.5-4.9c0-1.3-.1-2.9-.5-4.2-.3-1-1-1.5-2-1.5zM59.6 46.9c0-.5-.1-1-.3-1.4-.2-.4-.4-.8-.8-1-.4-.3-.9-.4-1.4-.4-.7 0-1.4.3-1.9.8s-.8 1.2-.9 2.1h5.3zm5 2c.1 1 .4 1.7.9 2.1.5.4 1.1.7 1.7.7.8 0 1.4-.3 1.8-1 .5-.6.7-1.5.7-2.7 0-1.2-.2-2.2-.7-2.9-.4-.7-1.1-1-1.9-1-.6 0-1.2.2-1.7.7-.5.5-.8 1.1-.9 1.9v2.2z"/>
    </g>
  </g>
</svg>
