<?xml version="1.0" encoding="UTF-8"?>
<svg width="240px" height="33px" viewBox="0 0 240 33" version="1.1" xmlns="http://www.w3.org/2000/svg" xmlns:xlink="http://www.w3.org/1999/xlink">
    <!-- Generator: Sketch 41.2 (35397) - http://www.bohemiancoding.com/sketch -->
    <title>Page 1</title>
    <desc>Created with Sketch.</desc>
    <defs></defs>
    <g id="Page-1" stroke="none" stroke-width="1" fill="none" fill-rule="evenodd">
        <g id="Newly-Editted" transform="translate(-817.000000, -3596.000000)" fill="#AAB2B9">
            <g id="logos" transform="translate(120.000000, 3465.000000)">
                <g id="Page-1" transform="translate(697.000000, 131.000000)">
                    <path d="M65.8536088,12.603279 L65.7376399,12.603279 L59.638758,0.396999205 L58.4622446,0.396999205 L58.4622446,21.5913553 L60.3318674,21.5913553 L60.3318674,5.46844197 L65.3173278,15.3493045 L66.3030633,15.3493045 L71.2596817,5.46844197 L71.2596817,21.5913553 L73.1293044,21.5913553 L73.1293044,0.396999205 L71.9527911,0.396999205 L65.8536088,12.603279 Z M80.0682096,21.5913553 L92.1133511,21.5913553 L92.1133511,19.773589 L81.9937138,19.773589 L81.9937138,11.9105127 L90.187847,11.9105127 L90.187847,10.0927464 L81.9937138,10.0927464 L81.9937138,2.21506359 L92.1133511,2.21506359 L92.1133511,0.396999205 L80.0682096,0.396999205 L80.0682096,21.5913553 Z M108.10534,12.1400437 C107.627645,11.701252 107.088059,11.3319157 106.485982,11.0305445 C105.883605,10.7303657 105.264103,10.4552266 104.627776,10.2030405 C103.990848,9.95264308 103.371647,9.70612083 102.769269,9.46406995 C102.167193,9.22291335 101.627306,8.93763911 101.149611,8.60645866 C100.672516,8.27676868 100.289458,7.88149841 100.000738,7.41766693 C99.7120171,6.95353736 99.5678071,6.38269078 99.5678071,5.70304054 L99.5678071,5.30389507 C99.5678071,4.83082273 99.6573375,4.38994436 99.8363982,3.98185612 C100.015459,3.57257552 100.261517,3.21546105 100.575174,2.90961844 C100.888831,2.60377583 101.25206,2.36261924 101.664861,2.18555246 C102.077362,2.0081876 102.523211,1.91935612 103.000907,1.91935612 L104.194545,1.91935612 C104.672241,1.91935612 105.11779,2.0081876 105.530591,2.18555246 C105.943392,2.36261924 106.304518,2.60377583 106.612767,2.90961844 C106.921016,3.21546105 107.164971,3.57257552 107.344332,3.98185612 C107.523092,4.38994436 107.612923,4.83082273 107.612923,5.30389507 L107.612923,6.16120827 L109.538127,6.17372814 L109.538127,5.30389507 C109.538127,4.58430048 109.401428,3.90882353 109.127729,3.27895469 C108.85373,2.64908585 108.478484,2.09642289 108.000788,1.62394674 C107.523092,1.1508744 106.965781,0.779153418 106.329154,0.507293323 C105.692527,0.236625596 105.010533,0.101291733 104.284376,0.101291733 L102.911076,0.101291733 C102.184918,0.101291733 101.500522,0.236625596 100.858787,0.507293323 C100.217053,0.779153418 99.6573375,1.1508744 99.1796418,1.62394674 C98.7019461,2.09642289 98.3266997,2.64908585 98.0527006,3.27895469 C97.7787016,3.90882353 97.6426034,4.58430048 97.6426034,5.30389507 L97.6426034,5.70304054 C97.6426034,6.61043323 97.786513,7.3729531 98.0752334,7.99387917 C98.3636535,8.61450715 98.7467113,9.13855326 99.224407,9.56840223 C99.7021027,9.99586645 100.241688,10.3529809 100.844066,10.6394475 C101.446143,10.9259141 102.065344,11.1861486 102.701971,11.4228339 C103.338899,11.659221 103.958401,11.8956081 104.560178,12.1319952 C105.162555,12.3686804 105.702141,12.6563394 106.179836,12.997655 C106.657532,13.3359897 107.040289,13.747655 107.32931,14.2308625 C107.618031,14.714368 107.76194,15.318899 107.76194,16.0489269 L107.76194,16.6844595 C107.76194,17.1572337 107.664899,17.5984102 107.470816,18.0064984 C107.276734,18.4160771 107.015653,18.7752782 106.687275,19.0867846 C106.358897,19.3959062 105.980646,19.6403418 105.553124,19.8180048 C105.125301,19.9947734 104.672241,20.083903 104.194545,20.083903 L102.851289,20.083903 C102.373894,20.083903 101.918731,19.9947734 101.4858,19.8180048 C101.05287,19.6403418 100.672516,19.3959062 100.343837,19.0867846 C100.015459,18.7752782 99.7540784,18.4160771 99.5602962,18.0064984 C99.3662135,17.5984102 99.2691722,17.1572337 99.2691722,16.6844595 L99.2691722,15.5317369 L97.3436681,15.5236884 L97.3436681,16.6844595 C97.3436681,17.4040541 97.4908825,18.079531 97.7841095,18.7091017 C98.0776369,19.3389706 98.4706092,19.8916335 98.9633268,20.3647059 C99.4557439,20.8377782 100.028077,21.2094992 100.679726,21.4810612 C101.331075,21.7517289 102.02088,21.8870628 102.747037,21.8870628 L104.284376,21.8870628 C105.010533,21.8870628 105.700038,21.7517289 106.351386,21.4810612 C107.003035,21.2094992 107.575369,20.8377782 108.068086,20.3647059 C108.560503,19.8916335 108.953776,19.3389706 109.247303,18.7091017 C109.54053,18.079531 109.687444,17.4040541 109.687444,16.6844595 L109.687444,16.0489269 C109.687444,15.1418323 109.543234,14.3730525 109.254514,13.7431836 C108.965793,13.1133148 108.582736,12.5779412 108.10534,12.1400437 L108.10534,12.1400437 Z M126.073608,5.30389507 C126.073608,4.83082273 125.984077,4.38994436 125.805017,3.98185612 C125.625655,3.57257552 125.382001,3.21546105 125.073451,2.90961844 C124.765503,2.60377583 124.404377,2.36261924 123.991576,2.18555246 C123.578775,2.0081876 123.133226,1.91935612 122.65553,1.91935612 L121.312274,1.91935612 C120.834578,1.91935612 120.38933,2.0081876 119.976228,2.18555246 C119.563727,2.36261924 119.200198,2.60377583 118.886842,2.90961844 C118.573485,3.21546105 118.327126,3.57257552 118.148066,3.98185612 C117.969005,4.38994436 117.879475,4.83082273 117.879475,5.30389507 L117.879475,16.6844595 C117.879475,17.1572337 117.969005,17.5984102 118.148066,18.0064984 C118.327126,18.4160771 118.573485,18.7752782 118.886842,19.0867846 C119.200198,19.3959062 119.563727,19.6403418 119.976228,19.8180048 C120.38933,19.9947734 120.834578,20.083903 121.312274,20.083903 L122.65553,20.083903 C123.133226,20.083903 123.578775,19.9947734 123.991576,19.8180048 C124.404377,19.6403418 124.765503,19.3959062 125.073451,19.0867846 C125.382001,18.7752782 125.625655,18.4160771 125.805017,18.0064984 C125.984077,17.5984102 126.073608,17.1572337 126.073608,16.6844595 L126.073608,5.30389507 Z M127.588414,3.27895469 C127.862713,3.90882353 127.999112,4.58430048 127.999112,5.30389507 L127.999112,16.6844595 C127.999112,17.4040541 127.862713,18.079531 127.588414,18.7091017 C127.314715,19.3389706 126.939168,19.8916335 126.461473,20.3647059 C125.984077,20.8377782 125.426465,21.2094992 124.790139,21.4810612 C124.153512,21.7517289 123.471518,21.8870628 122.74506,21.8870628 L121.222743,21.8870628 C120.496586,21.8870628 119.81249,21.7517289 119.170455,21.4810612 C118.52872,21.2094992 117.969005,20.8377782 117.491309,20.3647059 C117.013614,19.8916335 116.638067,19.3389706 116.364368,18.7091017 C116.09067,18.079531 115.95397,17.4040541 115.95397,16.6844595 L115.95397,5.30389507 C115.95397,4.58430048 116.09067,3.90882353 116.364368,3.27895469 C116.638067,2.64908585 117.013614,2.09642289 117.491309,1.62394674 C117.969005,1.1508744 118.52872,0.779153418 119.170455,0.507293323 C119.81249,0.236625596 120.496586,0.101291733 121.222743,0.101291733 L122.74506,0.101291733 C123.471518,0.101291733 124.153512,0.236625596 124.790139,0.507293323 C125.426465,0.779153418 125.984077,1.1508744 126.461473,1.62394674 C126.939168,2.09642289 127.314715,2.64908585 127.588414,3.27895469 L127.588414,3.27895469 Z M144.915547,12.1400437 C144.437852,11.701252 143.898566,11.3319157 143.296189,11.0305445 C142.694112,10.7303657 142.07461,10.4552266 141.437983,10.2030405 C140.801356,9.95264308 140.181854,9.70612083 139.579777,9.46406995 C138.9777,9.22291335 138.438114,8.93763911 137.960419,8.60645866 C137.482723,8.27676868 137.099966,7.88149841 136.810945,7.41766693 C136.522224,6.95353736 136.378014,6.38269078 136.378014,5.70304054 L136.378014,5.30389507 C136.378014,4.83082273 136.467545,4.38994436 136.646906,3.98185612 C136.825666,3.57257552 137.072325,3.21546105 137.385682,2.90961844 C137.699038,2.60377583 138.062567,2.36261924 138.475068,2.18555246 C138.88817,2.0081876 139.333418,1.91935612 139.811114,1.91935612 L141.005353,1.91935612 C141.482748,1.91935612 141.928297,2.0081876 142.341098,2.18555246 C142.753599,2.36261924 143.114725,2.60377583 143.422974,2.90961844 C143.731523,3.21546105 143.975478,3.57257552 144.154539,3.98185612 C144.3336,4.38994436 144.42313,4.83082273 144.42313,5.30389507 L144.42313,6.16120827 L146.348635,6.17372814 L146.348635,5.30389507 C146.348635,4.58430048 146.211935,3.90882353 145.938237,3.27895469 C145.664238,2.64908585 145.288691,2.09642289 144.811296,1.62394674 C144.3336,1.1508744 143.776288,0.779153418 143.139361,0.507293323 C142.503034,0.236625596 141.82074,0.101291733 141.094583,0.101291733 L139.721583,0.101291733 C138.995126,0.101291733 138.311029,0.236625596 137.668994,0.507293323 C137.02726,0.779153418 136.467545,1.1508744 135.989849,1.62394674 C135.512153,2.09642289 135.136907,2.64908585 134.862908,3.27895469 C134.589209,3.90882353 134.452811,4.58430048 134.452811,5.30389507 L134.452811,5.70304054 C134.452811,6.61043323 134.597021,7.3729531 134.885441,7.99387917 C135.174161,8.61450715 135.557219,9.13855326 136.034915,9.56840223 C136.51261,9.99586645 137.051896,10.3529809 137.654273,10.6394475 C138.25665,10.9259141 138.876152,11.1861486 139.512479,11.4228339 C140.149106,11.659221 140.768608,11.8956081 141.370685,12.1319952 C141.972762,12.3686804 142.512648,12.6563394 142.990344,12.997655 C143.468039,13.3359897 143.850797,13.747655 144.139517,14.2308625 C144.428538,14.714368 144.572448,15.318899 144.572448,16.0489269 L144.572448,16.6844595 C144.572448,17.1572337 144.475407,17.5984102 144.281324,18.0064984 C144.087241,18.4160771 143.826161,18.7752782 143.497783,19.0867846 C143.169405,19.3959062 142.791154,19.6403418 142.363331,19.8180048 C141.935808,19.9947734 141.482748,20.083903 141.005353,20.083903 L139.661796,20.083903 C139.184101,20.083903 138.728637,19.9947734 138.296308,19.8180048 C137.863377,19.6403418 137.482723,19.3959062 137.154345,19.0867846 C136.825666,18.7752782 136.564586,18.4160771 136.370804,18.0064984 C136.176721,17.5984102 136.07968,17.1572337 136.07968,16.6844595 L136.07968,15.5317369 L134.154176,15.5236884 L134.154176,16.6844595 C134.154176,17.4040541 134.30109,18.079531 134.594617,18.7091017 C134.887844,19.3389706 135.281117,19.8916335 135.773834,20.3647059 C136.266251,20.8377782 136.838284,21.2094992 137.490234,21.4810612 C138.141582,21.7517289 138.831087,21.8870628 139.557244,21.8870628 L141.094583,21.8870628 C141.82074,21.8870628 142.510245,21.7517289 143.161894,21.4810612 C143.813242,21.2094992 144.386177,20.8377782 144.878293,20.3647059 C145.371011,19.8916335 145.763983,19.3389706 146.057511,18.7091017 C146.351038,18.079531 146.497652,17.4040541 146.497652,16.6844595 L146.497652,16.0489269 C146.497652,15.1418323 146.353742,14.3730525 146.065021,13.7431836 C145.776301,13.1133148 145.393243,12.5779412 144.915547,12.1400437 L144.915547,12.1400437 Z M163.197772,5.61420906 C163.197772,5.14113672 163.107941,4.70025835 162.928881,4.29097774 C162.74982,3.88288951 162.503461,3.52249603 162.189804,3.2133744 C161.876448,2.90186804 161.513219,2.65832671 161.100418,2.48096184 C160.687316,2.30359698 160.242068,2.21506359 159.764372,2.21506359 L155.003338,2.21506359 L155.003338,11.6297099 L159.764372,11.6297099 C160.242068,11.6297099 160.687316,11.5411765 161.100418,11.3635135 C161.513219,11.1861486 161.876448,10.9440978 162.189804,10.6394475 C162.503461,10.3347973 162.74982,9.97649046 162.928881,9.56840223 C163.107941,9.15912162 163.197772,8.71824324 163.197772,8.24517091 L163.197772,5.61420906 Z M164.712578,3.58122019 C164.986277,4.21824324 165.122976,4.89580684 165.122976,5.61420906 L165.122976,8.24517091 C165.122976,8.96357313 164.986277,9.63905008 164.712578,10.2701113 C164.43888,10.9011725 164.063333,11.452345 163.585637,11.9251192 C163.107941,12.3981916 162.548527,12.7699126 161.906492,13.0405803 C161.264757,13.3121423 160.58036,13.4474762 159.854203,13.4474762 L155.003338,13.4474762 L155.003338,21.5913553 L153.077834,21.5913553 L153.077834,0.396999205 L159.854203,0.396999205 C160.58036,0.396999205 161.264757,0.532333068 161.906492,0.803000795 C162.548527,1.0745628 163.107941,1.44658188 163.585637,1.91935612 C164.063333,2.39242846 164.43888,2.94717806 164.712578,3.58122019 L164.712578,3.58122019 Z M181.360122,10.0927464 L173.165989,10.0927464 L173.165989,0.396999205 L171.240184,0.396999205 L171.240184,21.5913553 L173.165989,21.5913553 L173.165989,11.9105127 L181.360122,11.9105127 L181.360122,21.5913553 L183.285326,21.5913553 L183.285326,0.396999205 L181.360122,0.396999205 L181.360122,10.0927464 Z M190.901718,21.5913553 L202.946859,21.5913553 L202.946859,19.773589 L192.826921,19.773589 L192.826921,11.9105127 L201.021355,11.9105127 L201.021355,10.0927464 L192.826921,10.0927464 L192.826921,2.21506359 L202.946859,2.21506359 L202.946859,0.396999205 L190.901718,0.396999205 L190.901718,21.5913553 Z M215.727472,10.728279 C216.204867,10.728279 216.650416,10.6394475 217.063217,10.4620827 C217.475718,10.2847178 217.836844,10.0414746 218.144792,9.7299682 C218.453642,9.42054849 218.697297,9.06015501 218.876357,8.65206677 C219.055719,8.24278617 219.145249,7.80190779 219.145249,7.32883545 L219.145249,5.61420906 C219.145249,5.14113672 219.055719,4.70025835 218.876357,4.29097774 C218.697297,3.88288951 218.453642,3.52249603 218.144792,3.2133744 C217.836844,2.90186804 217.475718,2.65832671 217.063217,2.48096184 C216.650416,2.30359698 216.204867,2.21506359 215.727472,2.21506359 L210.950815,2.21506359 L210.950815,10.728279 L215.727472,10.728279 Z M215.816401,12.5460453 L221.622957,21.5913553 L219.398818,21.5913553 L213.592863,12.5460453 L210.950815,12.5460453 L210.950815,21.5913553 L209.025612,21.5913553 L209.025612,0.396999205 L215.816401,0.396999205 C216.542859,0.396999205 217.224852,0.532333068 217.861479,0.803000795 C218.498107,1.0745628 219.055719,1.44658188 219.533414,1.91935612 C220.01081,2.39242846 220.386356,2.94717806 220.660355,3.58122019 C220.934054,4.21824324 221.070753,4.89580684 221.070753,5.61420906 L221.070753,7.32883545 C221.070753,8.04753577 220.934054,8.72480127 220.660355,9.36152623 C220.386356,9.99586645 220.01081,10.5509141 219.533414,11.0236884 C219.055719,11.4967607 218.498107,11.8684817 217.861479,12.1400437 C217.224852,12.4107114 216.542859,12.5460453 215.816401,12.5460453 L215.816401,12.5460453 Z M229.66537,2.21506359 L229.66537,10.0927464 L237.860104,10.0927464 L237.860104,11.9105127 L229.66537,11.9105127 L229.66537,19.773589 L239.785307,19.773589 L239.785307,21.5913553 L227.740166,21.5913553 L227.740166,0.396999205 L239.785307,0.396999205 L239.785307,2.21506359 L229.66537,2.21506359 Z" id="Fill-1"></path>
                    <path d="M4.84603842,2.79126333 L24.2680072,12.2390368 L39.8058223,2.79126333 L4.84603842,2.79126333 Z M26.2082833,13.1824783 L32.1968788,16.0956284 L39.8964586,4.85982848 L26.2082833,13.1824783 Z M3.60984394,4.20553491 L13.5717287,18.743083 L22.4264706,13.3588169 L3.60984394,4.20553491 Z M33.8553421,16.9025113 L41.8007203,20.7674151 C42.0195078,20.8739901 42.0807323,20.8407411 42.0810324,20.8398505 C42.0801321,20.8339131 42.1230492,20.7481187 42.1230492,20.569702 L42.1230492,4.83696976 L33.8553421,16.9025113 Z M1.83163265,4.83696976 L1.83163265,25.6924288 C1.83163265,25.7618955 1.83763505,25.8171127 1.84543818,25.8574865 C1.88295318,25.8432369 1.93277311,25.8200814 1.99459784,25.7826762 L12.0108043,19.6918681 L1.83163265,4.83696976 Z M1.75540216,25.8803452 L1.75540216,26.7843035 L1.75540216,25.8803452 Z M14.5987395,20.2422584 L21.7094838,30.6189269 C21.8139256,30.7709225 21.9192677,30.8392018 21.9771909,30.8392018 C22.0354142,30.8392018 22.1404562,30.7709225 22.244898,30.6189269 L31.1608643,17.607569 L24.3667467,14.3025553 L14.5987395,20.2422584 Z M21.9771909,32.6471182 C21.285114,32.6471182 20.6347539,32.2772226 20.1926771,31.6321319 L13.0381152,21.1910434 L2.95528211,27.3219285 C2.55552221,27.565359 2.15156062,27.6885585 1.75540216,27.6885585 C0.909963986,27.6885585 0,27.0639516 0,25.6924288 L0,3.69522155 C0,2.69893788 0.565726291,1.77508961 1.45258103,1.30455635 C1.83313325,1.0204552 2.35984394,0.983346894 2.7469988,0.983346894 L41.207383,0.983346894 L41.2097839,0.983346894 L41.2121849,0.983346894 L41.2166867,0.983346894 C41.7340936,0.984237493 42.1314526,1.07685981 42.42497,1.26536998 C43.3571429,1.72254426 43.9546819,2.66628257 43.9546819,3.69522155 L43.9546819,20.569702 C43.9546819,21.1429511 43.7842137,21.6440616 43.4621849,22.0190038 C43.112545,22.4260077 42.6128451,22.6504387 42.0555222,22.6504387 L42.0555222,22.6504387 C41.7052821,22.6504387 41.3472389,22.5625662 40.9912965,22.3894931 L32.8193277,18.414155 L23.7617047,31.6321319 C23.319928,32.2772226 22.6692677,32.6471182 21.9771909,32.6471182 L21.9771909,32.6471182 Z" id="Fill-4"></path>
                </g>
            </g>
        </g>
    </g>
</svg>