<svg xmlns="http://www.w3.org/2000/svg" xmlns:xlink="http://www.w3.org/1999/xlink" viewBox="0 0 177.64 41.47"><defs><style>.a{fill:#b2b2b2;}.b{opacity:0.75;}.c{isolation:isolate;}.d{clip-path:url(#a);}.e,.g{fill:#fff;}.e{stroke:#b2b2b2;stroke-miterlimit:10;stroke-width:1.46px;}.f{clip-path:url(#b);}</style><clipPath id="a" transform="translate(-1271.34 -3247.12)"><path class="a" d="M1283.3,3280.07l-0.23-.23-4.39-4.34a1.06,1.06,0,0,0,.85.29l4.62,4.57A1.06,1.06,0,0,1,1283.3,3280.07Z"/></clipPath><clipPath id="b" transform="translate(-1271.34 -3247.12)"><path class="a" d="M1297.61,3254.91l4.62,4.57a1.06,1.06,0,0,1,.31.76l-4.62-4.57A1.06,1.06,0,0,0,1297.61,3254.91Z"/></clipPath></defs><title>logo_openstack</title><g class="b"><path class="a" d="M1339.94,3267.69c0,6.83-3.4,9.14-6.37,9.14-3.44,0-6.21-2.89-6.21-9.1,0-6.43,3.13-9.13,6.41-9.13C1337.21,3258.59,1339.94,3261.55,1339.94,3267.69Zm-9.53,0c0,2.92.55,6.91,3.32,6.91,2.61,0,3.16-4.13,3.16-6.91s-0.55-6.87-3.24-6.87S1330.4,3265,1330.4,3267.69Z" transform="translate(-1271.34 -3247.12)"/><path class="a" d="M1343.3,3264.37c0-2.7-.12-4.27-0.16-5.52h2.69l0.16,2.27h0.08a4.53,4.53,0,0,1,4.08-2.52c3.36,0,5.54,3.25,5.54,9.06,0,6.58-2.93,9.17-5.93,9.17a3.64,3.64,0,0,1-3.36-2h-0.08v8.77h-3v-19.19Zm3,5.7a5.83,5.83,0,0,0,.16,1.46c0.59,2.52,2,3,2.81,3,2.53,0,3.36-3.22,3.36-6.76s-1-6.72-3.4-6.72c-1.38,0-2.65,1.57-2.81,3.18a7.27,7.27,0,0,0-.12,1.35v4.53Z" transform="translate(-1271.34 -3247.12)"/><path class="a" d="M1361.25,3267.95c0,5.44,2.34,6.58,4.51,6.58a7.27,7.27,0,0,0,3.16-.66l0.51,2a10.52,10.52,0,0,1-4.23.84c-4.59,0-7-3.47-7-8.88,0-5.7,2.65-9.28,6.49-9.28s5.46,3.8,5.46,7.75c0,0.69,0,1.17-.08,1.61h-8.86Zm6-2.08c0-3.51-1.38-5.08-2.85-5.08-2,0-3,2.67-3.13,5.08h6Z" transform="translate(-1271.34 -3247.12)"/><path class="a" d="M1373.48,3263.41c0-2.08-.12-3.14-0.16-4.57H1376l0.16,2.15h0.08a4.93,4.93,0,0,1,4.39-2.41c2.65,0,4.63,1.79,4.63,6.07v11.88h-3v-11.36c0-2.12-.43-4.2-2.65-4.2-1.27,0-2.49,1-2.85,2.85a6.46,6.46,0,0,0-.16,1.61v11.11h-3v-13.12Z" transform="translate(-1271.34 -3247.12)"/><path class="a" d="M1389,3273.61a6.4,6.4,0,0,0,3.09.91,2.52,2.52,0,0,0,2.81-2.56c0-1.35-.51-2.27-2.45-3.47-2.49-1.46-3.84-3-3.84-5a4.94,4.94,0,0,1,5.26-4.9,6.81,6.81,0,0,1,3.4.91l-0.79,2.12a4.6,4.6,0,0,0-2.57-.8,2.25,2.25,0,0,0-2.45,2.26c0,1.17.47,1.83,2.37,3,2.21,1.31,4,2.92,4,5.37,0,3.54-2.61,5.26-5.78,5.26a6.89,6.89,0,0,1-3.76-1Z" transform="translate(-1271.34 -3247.12)"/><path class="a" d="M1404.64,3254.72v4.13h3.68V3261h-3.68v10.53c0,2.3.87,2.92,2,2.92a5.48,5.48,0,0,0,1.23-.11l0.16,2.16a7.2,7.2,0,0,1-2.25.29,4,4,0,0,1-3-1.06c-0.79-.8-1.15-2-1.15-4.46V3261h-2.33v-2.12h2.33v-3Z" transform="translate(-1271.34 -3247.12)"/><path class="a" d="M1421.1,3272.51a31.78,31.78,0,0,0,.2,4h-2.73l-0.2-1.86h-0.12a4.37,4.37,0,0,1-3.84,2.16c-2.53,0-4.51-2-4.51-5,0-4.46,3.84-6.39,8.15-6.43v-0.55c0-2.38-.67-4-3-4a5.78,5.78,0,0,0-3.16.91l-0.67-2a8.86,8.86,0,0,1,4.47-1.17c3.84,0,5.46,2.3,5.46,6.25v7.67Zm-3-5.15c-1.58,0-5.26.29-5.26,4.13,0,2.34,1.27,3.14,2.33,3.14A2.91,2.91,0,0,0,1418,3272a4.5,4.5,0,0,0,.12-1v-3.58Z" transform="translate(-1271.34 -3247.12)"/><path class="a" d="M1434.75,3276.1a7,7,0,0,1-3.17.66c-4.19,0-7-3.11-7-9,0-5.08,2.77-9.21,7.56-9.21a6.63,6.63,0,0,1,2.69.55l-0.59,2.3a5.3,5.3,0,0,0-2.17-.48c-3.09,0-4.43,3.36-4.43,6.83,0,4.13,1.7,6.61,4.51,6.61a4.83,4.83,0,0,0,2.18-.48Z" transform="translate(-1271.34 -3247.12)"/><path class="a" d="M1440.32,3267.07h0.08c0.36-.69.67-1.39,1-2l3.8-6.25h3.28l-5.06,7.45,5.54,10.23h-3.4l-4.15-8.33-1.11,1.64v6.69h-3v-25.29h3v15.82Z" transform="translate(-1271.34 -3247.12)"/><g class="c"><g class="c"><g class="c"><path class="a" d="M1301.37,3278.85l-4.62-4.57h0.06l4.62,4.57h-0.06" transform="translate(-1271.34 -3247.12)"/><path class="a" d="M1301.43,3278.85l-4.62-4.57,0.17,0,4.62,4.57-0.17,0" transform="translate(-1271.34 -3247.12)"/><path class="a" d="M1301.6,3278.81l-4.62-4.57a1.28,1.28,0,0,0,.25-0.1l4.62,4.57a1.06,1.06,0,0,1-.25.1" transform="translate(-1271.34 -3247.12)"/><path class="a" d="M1301.85,3278.7l-4.62-4.57,0.15-.1,4.62,4.57-0.15.09" transform="translate(-1271.34 -3247.12)"/><path class="a" d="M1302,3278.61l-4.62-4.57,0.09-.07,4.62,4.57-0.09.07" transform="translate(-1271.34 -3247.12)"/><path class="a" d="M1302.16,3278.47l-4.62-4.57,0.06-.06,4.62,4.57-0.06.06" transform="translate(-1271.34 -3247.12)"/></g></g><polygon class="a" points="31.2 28.86 26.57 24.29 33.56 23.68 38.33 28.1 31.2 28.86"/><polygon class="a" points="12.81 33.24 8.19 28.66 25.41 27.16 30.03 31.73 12.81 33.24"/><g class="c"><path class="a" d="M1283.3,3280.07l-0.23-.23-4.39-4.34a1.06,1.06,0,0,0,.85.29l4.62,4.57A1.06,1.06,0,0,1,1283.3,3280.07Z" transform="translate(-1271.34 -3247.12)"/><g class="d"><g class="c"><path class="a" d="M1283.3,3280.07l-4.62-4.57,0,0,4.62,4.57,0,0" transform="translate(-1271.34 -3247.12)"/><path class="a" d="M1283.35,3280.11l-4.62-4.57,0.07,0.06,4.62,4.57-0.07-.06" transform="translate(-1271.34 -3247.12)"/><path class="a" d="M1283.42,3280.17l-4.62-4.57,0.07,0,4.62,4.57-0.07,0" transform="translate(-1271.34 -3247.12)"/><path class="a" d="M1283.49,3280.21l-4.62-4.57,0.07,0,4.62,4.57-0.07,0" transform="translate(-1271.34 -3247.12)"/><path class="a" d="M1283.56,3280.25l-4.62-4.57,0.07,0,4.62,4.57-0.07,0" transform="translate(-1271.34 -3247.12)"/><path class="a" d="M1283.63,3280.29l-4.62-4.57,0.07,0,4.62,4.57-0.07,0" transform="translate(-1271.34 -3247.12)"/><path class="a" d="M1283.7,3280.31l-4.62-4.57,0.07,0,4.62,4.57-0.07,0" transform="translate(-1271.34 -3247.12)"/><path class="a" d="M1283.77,3280.33l-4.62-4.57,0.07,0,4.62,4.57-0.07,0" transform="translate(-1271.34 -3247.12)"/><path class="a" d="M1283.84,3280.35l-4.62-4.57h0.08l4.62,4.57h-0.08" transform="translate(-1271.34 -3247.12)"/><path class="a" d="M1283.92,3280.36l-4.62-4.57h0.08l4.62,4.57h-0.08" transform="translate(-1271.34 -3247.12)"/><path class="a" d="M1284,3280.37l-4.62-4.57h0.09l4.62,4.57H1284" transform="translate(-1271.34 -3247.12)"/><path class="a" d="M1284.1,3280.36l-4.62-4.57h0.05l4.62,4.57h-0.05" transform="translate(-1271.34 -3247.12)"/></g></g></g><g class="c"><g class="c"><path class="a" d="M1276,3286l-4.62-4.57c0-.06,0-0.12,0-0.17l4.62,4.57c0,0.06,0,.12,0,0.17" transform="translate(-1271.34 -3247.12)"/></g></g><path class="e" d="M1309.53,3275.37v7.53a2.48,2.48,0,0,1-2.22,2.41l-29.08,2.55a2,2,0,0,1-2.21-2v-7.53l7-.61v1.61a1,1,0,0,0,1.16,1.06l17.22-1.51a1.3,1.3,0,0,0,1.16-1.26V3276Z" transform="translate(-1271.34 -3247.12)"/><polygon class="a" points="4.66 31.18 0.04 26.61 7.03 26 11.66 30.57 4.66 31.18"/><polygon class="a" points="4.65 38.71 0.03 34.14 0.04 26.61 4.66 31.18 4.65 38.71"/></g><g class="c"><polygon class="e" points="38.15 15.55 38.19 26.62 31.2 27.23 31.16 16.16 38.15 15.55"/><polygon class="a" points="31.2 27.23 26.58 22.66 26.53 11.59 31.16 16.16 31.2 27.23"/><polygon class="a" points="31.16 16.14 26.54 11.57 33.53 10.96 38.28 15.39 31.16 16.14"/></g><g class="c"><polygon class="e" points="11.62 17.87 11.66 28.95 4.67 29.56 4.62 18.48 11.62 17.87"/><polygon class="a" points="4.67 29.56 0.04 24.99 0 13.91 4.62 18.48 4.67 29.56"/><polygon class="a" points="4.62 18.48 0 13.91 6.99 13.3 11.62 17.87 4.62 18.48"/></g><g class="c"><polygon class="a" points="31.19 14.51 26.57 9.93 26.57 8.54 31.2 13.12 31.19 14.51"/><g class="c"><path class="a" d="M1297.61,3254.91l4.62,4.57a1.06,1.06,0,0,1,.31.76l-4.62-4.57A1.06,1.06,0,0,0,1297.61,3254.91Z" transform="translate(-1271.34 -3247.12)"/><g class="f"><g class="c"><path class="a" d="M1302.54,3260.24l-4.62-4.57s0-.06,0-0.09l4.62,4.57s0,0.06,0,.09" transform="translate(-1271.34 -3247.12)"/><path class="a" d="M1302.53,3260.15l-4.62-4.57a1,1,0,0,0-.3-0.67l4.62,4.57a1,1,0,0,1,.31.67" transform="translate(-1271.34 -3247.12)"/></g></g></g><polygon class="a" points="4.66 16.81 0.03 12.24 0.06 4.94 4.68 9.51 4.66 16.81"/><polygon class="a" points="6.9 7.1 2.28 2.53 31.36 0 35.99 4.57 6.9 7.1"/><path class="a" d="M1278.24,3254.23l29.08-2.53a2,2,0,0,1,2.22,2l0,7.3-7,.61v-1.39a1,1,0,0,0-1.16-1.06l-17.22,1.5a1.29,1.29,0,0,0-1.16,1.26v1.39l-7,.61,0-7.3A2.47,2.47,0,0,1,1278.24,3254.23Z" transform="translate(-1271.34 -3247.12)"/><g class="c"><path class="a" d="M1276,3256.63l-4.62-4.57a2.47,2.47,0,0,1,2.23-2.41l4.62,4.57A2.47,2.47,0,0,0,1276,3256.63Z" transform="translate(-1271.34 -3247.12)"/></g></g><path class="g" d="M1276.07,3265.72s-0.36-.23-0.86-0.61a20.15,20.15,0,0,1-3.24-3.24c-0.38-.5-0.61-0.86-0.61-0.86s0.36,0.23.86,0.61a20.09,20.09,0,0,1,3.23,3.24C1275.85,3265.36,1276.07,3265.72,1276.07,3265.72Z" transform="translate(-1271.34 -3247.12)"/><path class="g" d="M1302,3279.56s-0.45-.29-1.07-0.76-1.42-1.15-2.19-1.86-1.49-1.46-2-2.05-0.83-1-.83-1,0.45,0.29,1.07.76,1.42,1.15,2.19,1.86,1.49,1.46,2,2.05S1302,3279.56,1302,3279.56Z" transform="translate(-1271.34 -3247.12)"/><path class="g" d="M1302.62,3263.44s-0.35-.22-0.84-0.59a18.93,18.93,0,0,1-3.14-3.14c-0.37-.48-0.59-0.84-0.59-0.84s0.35,0.22.84,0.59a18.93,18.93,0,0,1,3.14,3.14C1302.4,3263.08,1302.62,3263.44,1302.62,3263.44Z" transform="translate(-1271.34 -3247.12)"/><path class="g" d="M1276.17,3278.44s-0.37-.23-0.87-0.61a20.62,20.62,0,0,1-3.3-3.25c-0.39-.5-0.63-0.86-0.63-0.86s0.37,0.23.87,0.61a20.62,20.62,0,0,1,3.3,3.25C1275.93,3278.08,1276.17,3278.44,1276.17,3278.44Z" transform="translate(-1271.34 -3247.12)"/><path class="e" d="M1278.24,3254.23l29.08-2.53a2,2,0,0,1,2.22,2l0,7.3-7,.61v-1.39a1,1,0,0,0-1.16-1.06l-17.22,1.5a1.29,1.29,0,0,0-1.16,1.26v1.39l-7,.61,0-7.3A2.47,2.47,0,0,1,1278.24,3254.23Z" transform="translate(-1271.34 -3247.12)"/></g></svg>