<?xml version="1.0" encoding="UTF-8"?>
<svg width="190px" height="27px" viewBox="0 0 190 27" version="1.1" xmlns="http://www.w3.org/2000/svg" xmlns:xlink="http://www.w3.org/1999/xlink">
    <!-- Generator: Sketch 41.2 (35397) - http://www.bohemiancoding.com/sketch -->
    <title>Page 1</title>
    <desc>Created with Sketch.</desc>
    <defs></defs>
    <g id="Page-1" stroke="none" stroke-width="1" fill="none" fill-rule="evenodd">
        <g id="Newly-Editted" transform="translate(-1130.000000, -3484.000000)" fill="#AAB2B9">
            <g id="logos" transform="translate(120.000000, 3465.000000)">
                <g id="Page-1" transform="translate(1010.000000, 19.000000)">
                    <path d="M26.1221425,0 L11.8852054,1.95916045 L11.8852054,12.4599172 L26.125,12.4599172 L26.125,0 L26.1221425,0 Z M0,3.59465484 L0.000816431763,12.4599172 L10.7017876,12.4599172 L10.7017876,2.12181082 L0,3.59465484 Z M11.8852054,13.7831882 L11.8852054,24.1670656 L26.125,26.125 L26.125,13.7831882 L11.8852054,13.7831882 Z M10.7017876,13.7840056 L10.7017876,13.7831882 L10.7017876,13.7840056 Z M0.000816431763,13.7840056 L0.00163286353,22.5340232 L10.7017876,24.0044152 L10.7017876,13.7840056 L0.000816431763,13.7840056 Z" id="Fill-1"></path>
                    <path d="M50.8217034,21.120131 L48.3106191,21.120131 L48.3106191,11.2489069 C48.3106191,10.4400664 48.3607579,9.45176446 48.4597924,8.28063084 L48.417941,8.28063084 C48.2608947,8.9470817 48.1229093,9.42564565 48.0027419,9.71758652 L43.4492262,21.120131 L41.7043127,21.120131 L37.139609,9.80310455 C37.0119829,9.47030039 36.8773126,8.96266873 36.7355979,8.28189466 L36.6933322,8.28189466 C36.7505153,8.89231646 36.7786924,9.88820131 36.7786924,11.270813 L36.7786924,21.120131 L34.4375,21.120131 L34.4375,5.86674752 L38.0019137,5.86674752 L42.013433,16.0252785 C42.3179952,16.8050513 42.516893,17.3872479 42.6084688,17.769762 L42.6615082,17.769762 C42.9238046,16.9685044 43.136791,16.3719846 43.3000529,15.9823088 L47.3857445,5.86674752 L50.8225321,5.86674752 L50.8217034,21.120131 Z M54.2904804,21.1202574 L56.7580558,21.1202574 L56.7580558,10.2274509 L54.2904804,10.2274509 L54.2904804,21.1202574 Z M55.5352489,7.94079146 C55.1312378,7.94079146 54.7844099,7.81019742 54.4980799,7.54774553 C54.2105069,7.28529365 54.0671348,6.95122568 54.0671348,6.54764798 C54.0671348,6.14364901 54.2105069,5.80621087 54.4980799,5.53659737 C54.785653,5.26740515 55.1312378,5.1325984 55.5352489,5.1325984 C55.9533486,5.1325984 56.308464,5.26740515 56.599352,5.53659737 C56.8902399,5.80621087 57.0360983,6.14238519 57.0360983,6.54764798 C57.0360983,6.92974085 56.8902399,7.25791103 56.599352,7.53131596 C56.3080496,7.80429963 55.9533486,7.94079146 55.5352489,7.94079146 Z M67.7922822,20.6198716 C66.920447,21.1232905 65.8878361,21.3747894 64.696107,21.3747894 C63.0788196,21.3747894 61.773553,20.8696853 60.7807217,19.8594773 C59.7878903,18.8496905 59.2906459,17.5395374 59.2906459,15.929018 C59.2906459,14.1348245 59.8243549,12.6944986 60.8921873,11.6055129 C61.9591909,10.5169484 63.3866967,9.97266616 65.1747048,9.97266616 C66.1675361,9.97266616 67.043515,10.1462298 67.8018128,10.4941998 L67.8018128,12.791391 C67.0426863,12.2243601 66.2342497,11.9400021 65.3765031,11.9400021 C64.3339474,11.9400021 63.4795157,12.2934486 62.8127938,12.9986564 C62.1464863,13.7042854 61.8125038,14.6272904 61.8125038,15.768935 C61.8125038,16.8966777 62.1257678,17.7868235 62.7531245,18.4393724 C63.3808956,19.0915001 64.2237248,19.4175639 65.2803692,19.4175639 C66.1675361,19.4175639 67.0037355,19.1024531 67.7910391,18.471389 L67.7922822,20.6198716 Z M76.5693091,12.5786912 C76.2709625,12.3440432 75.8420892,12.2277724 75.2814461,12.2277724 C74.5509112,12.2277724 73.9405436,12.5567851 73.4511723,13.2173382 C72.9618009,13.8757849 72.7164937,14.7735136 72.7164937,15.9071541 L72.7164937,21.1199625 L70.2480895,21.1199625 L70.2480895,10.227156 L72.7164937,10.227156 L72.7164937,12.4716884 L72.7587594,12.4716884 C72.9995086,11.7062388 73.3699557,11.1088764 73.8705151,10.6796012 C74.3706601,10.2511685 74.9292313,10.0363202 75.5462287,10.0363202 C75.9933343,10.0363202 76.3339468,10.1041449 76.5684804,10.2381091 L76.5693091,12.5786912 Z M83.166375,21.375 C81.4852746,21.375 80.143129,20.8661045 79.1386953,19.8487349 C78.1350903,18.8309439 77.6324591,17.4820339 77.6324591,15.8015835 C77.6324591,13.9720032 78.1553945,12.5430517 79.202094,11.514729 C80.2492078,10.4864062 81.658067,9.97245552 83.4319864,9.97245552 C85.1346342,9.97245552 86.4602049,10.4725043 87.4107705,11.4730231 C88.3617504,12.4731207 88.8362044,13.8586813 88.8362044,15.6309687 C88.8362044,17.3691332 88.3240427,18.7597491 87.2984761,19.8057652 C86.274567,20.8522026 84.8972,21.375 83.166375,21.375 Z M90.6781221,20.7799125 L90.6781221,18.493253 C91.6009248,19.1950906 92.6186184,19.5464307 93.7312028,19.5464307 C95.2212785,19.5464307 95.9654876,19.1066237 95.9654876,18.227431 C95.9654876,17.9793023 95.9016746,17.7686667 95.7744629,17.5942605 C95.6468369,17.4206968 95.4748732,17.2660903 95.2581575,17.1325474 C95.040613,16.9981619 94.7857753,16.8772571 94.4919867,16.7702543 C94.196955,16.6636727 93.8696024,16.5436104 93.5074428,16.4088037 C93.0603372,16.2314486 92.6583979,16.0435616 92.2995532,15.8447217 C91.9411229,15.6458817 91.6440193,15.4213443 91.4061708,15.1698454 C91.1687365,14.9183466 90.9893142,14.6327248 90.8691468,14.31298 C90.7481506,13.9949204 90.6888957,13.6220954 90.6888957,13.1966117 C90.6888957,12.6717079 90.8132068,12.2091522 91.061829,11.8085234 C91.3100368,11.4078946 91.6427762,11.0708778 92.0608759,10.7987366 C92.4802187,10.5253317 92.9542584,10.3201727 93.4871386,10.1819958 C94.0187758,10.0438188 94.5686452,9.97473039 95.1359182,9.97473039 C96.1428382,9.97473039 97.0436793,10.1268092 97.8376129,10.4318095 L97.8376129,12.5908238 C97.0718565,12.0654988 96.1925626,11.8030469 95.1993169,11.8030469 C94.887296,11.8030469 94.6055242,11.835906 94.353587,11.8982542 C94.1020642,11.9618661 93.8865916,12.050333 93.7096555,12.1640762 C93.5327194,12.2769769 93.3943197,12.4134687 93.2944564,12.5735517 C93.1954219,12.7327922 93.1456975,12.908041 93.1456975,13.099298 C93.1456975,13.3335248 93.1954219,13.5323647 93.2944564,13.6958179 C93.3943197,13.8584285 93.5410068,14.002082 93.7365896,14.1263569 C93.9313436,14.2506319 94.1654629,14.3643751 94.4389473,14.466744 C94.7124317,14.5695341 95.0256957,14.6815922 95.3812255,14.8016545 C95.8490496,14.9929116 96.2692211,15.1883813 96.6421544,15.3868 C97.0146734,15.58564 97.3324954,15.8101775 97.5943775,16.0620976 C97.8570883,16.3135964 98.059301,16.6042735 98.2006013,16.93455 C98.3423159,17.263984 98.4135876,17.6561874 98.4135876,18.1098963 C98.4135876,18.6630253 98.2859616,19.1445381 98.0302951,19.55612 C97.7754573,19.9672805 97.4340161,20.3076676 97.0092865,20.5768598 C96.5837282,20.8468946 96.0918706,21.0465771 95.5357856,21.1771711 C94.9780431,21.3090289 94.3917091,21.3739047 93.7747116,21.3739047 C92.5817394,21.3747472 91.5499573,21.1771711 90.6781221,20.7799125 Z M105.595164,21.375 C103.91365,21.375 102.57109,20.8661045 101.56707,19.8487349 C100.563465,18.8309439 100.062492,17.4820339 100.062492,15.8015835 C100.062492,13.9720032 100.585427,12.5430517 101.632126,11.514729 C102.677997,10.4864062 104.087685,9.97245552 105.860776,9.97245552 C107.563424,9.97245552 108.888994,10.4725043 109.839974,11.4730231 C110.79054,12.4731207 111.265823,13.8586813 111.265823,15.6309687 C111.265823,17.3691332 110.753661,18.7597491 109.728509,19.8057652 C108.703356,20.8522026 107.324746,21.375 105.595164,21.375 Z M119.947917,7.00548539 C119.615178,6.81422832 119.234786,6.71775724 118.809227,6.71775724 C117.609625,6.71775724 117.011275,7.39516115 117.011275,8.74996896 L117.011275,10.2282092 L119.543906,10.2282092 L119.543906,12.1639498 L117.022048,12.1639498 L117.022048,21.1201731 L114.55323,21.1201731 L114.55323,12.1639498 L112.691878,12.1639498 L112.691878,10.2282092 L114.55323,10.2282092 L114.55323,8.46224081 C114.55323,7.31301329 114.929892,6.40812299 115.68156,5.7450423 C116.433642,5.08196162 117.373434,4.75 118.50135,4.75 C119.111303,4.75 119.593631,4.81740337 119.947917,4.95221012 L119.947917,7.00548539 Z M127.065432,21.0033125 C126.58352,21.2442796 125.94829,21.3651844 125.160572,21.3651844 C123.047697,21.3651844 121.991053,20.3511849 121.991053,18.3240284 L121.991053,12.1650451 L120.171553,12.1650451 L120.171553,10.2297258 L121.991053,10.2297258 L121.991053,7.70841833 L124.459872,7.00615943 L124.459872,10.2297258 L127.066675,10.2297258 L127.066675,12.1650451 L124.459872,12.1650451 L124.459872,17.6108165 C124.459872,18.2557825 124.57631,18.7166531 124.810843,18.9934282 C125.045377,19.269782 125.434885,19.4083802 125.981025,19.4083802 C126.399125,19.4083802 126.76087,19.2883179 127.065432,19.0460871 L127.065432,21.0033125 Z M148.00456,21.1200467 L145.227864,21.1200467 L143.85547,17.2367699 L137.855387,17.2367699 L136.536032,21.1200467 L133.769281,21.1200467 L139.482205,5.86666327 L142.333488,5.86666327 L148.00456,21.1200467 Z M157.878177,11.2597757 L151.994118,19.1944166 L157.856215,19.1944166 L157.856215,21.1200467 L148.535783,21.1200467 L148.535783,20.1945142 L154.547054,12.1528704 L149.110929,12.1528704 L149.110929,10.2272403 L157.878177,10.2272403 L157.878177,11.2597757 Z M169.46393,21.120131 L166.996355,21.120131 L166.996355,19.3962897 L166.954089,19.3962897 C166.238057,20.7148682 165.124229,21.3745787 163.61385,21.3745787 C161.038952,21.3745787 159.751504,19.8293564 159.751504,16.7372266 L159.751504,10.2273245 L162.220322,10.2273245 L162.220322,16.4819363 C162.220322,18.4391618 162.975305,19.4177745 164.486514,19.4177745 C165.217048,19.4177745 165.817885,19.1485823 166.289853,18.6097766 C166.761821,18.0709709 166.997598,17.3657631 166.997598,16.4928894 L166.997598,10.2273245 L169.466416,10.2273245 L169.46393,21.120131 Z M179.008205,12.5786912 C178.709858,12.3440432 178.280985,12.2277724 177.720342,12.2277724 C176.990222,12.2277724 176.37944,12.5567851 175.890483,13.2173382 C175.400697,13.8757849 175.15539,14.7735136 175.15539,15.9071541 L175.15539,21.1199625 L172.687814,21.1199625 L172.687814,10.227156 L175.15539,10.227156 L175.15539,12.4716884 L175.197655,12.4716884 C175.438819,11.7062388 175.808852,11.1088764 176.309411,10.6796012 C176.809556,10.2511685 177.368127,10.0363202 177.985125,10.0363202 C178.430987,10.0363202 178.772843,10.1041449 179.005719,10.2381091 L179.008205,12.5786912 Z M189.998757,16.3439701 L182.572412,16.3439701 C182.600174,17.3503867 182.910538,18.1272106 183.503502,18.6735992 C184.095637,19.2191452 184.90946,19.4921289 185.945386,19.4921289 C187.108938,19.4921289 188.176356,19.1445802 189.14764,18.4503255 L189.14764,20.4383037 C188.154809,21.0630488 186.842084,21.3747894 185.210708,21.3747894 C183.607094,21.3747894 182.351138,20.8802171 181.439109,19.8910726 C180.527494,18.9015068 180.072515,17.5104697 180.072515,15.7162761 C180.072515,14.0215026 180.573903,12.6405759 181.578752,11.573075 C182.582356,10.5059954 183.828782,9.97266616 185.318858,9.97266616 C186.808934,9.97266616 187.960469,10.4508088 188.77595,11.4079367 C189.591845,12.3646434 190,13.6945962 190,15.3969527 L189.998757,16.3439701 Z M187.615713,14.5994865 C187.604939,13.7131321 187.399826,13.0239326 186.987942,12.5310455 C186.576058,12.0385796 186.009199,11.7925572 185.285294,11.7925572 C184.576307,11.7925572 183.974641,12.051639 183.481954,12.5689599 C182.989683,13.0862808 182.685949,13.7636847 182.572412,14.6007503 L187.615713,14.6007503 L187.615713,14.5994865 Z M143.185019,15.1742266 L141.068415,9.09022961 C141.004602,8.89138966 140.936645,8.57248745 140.866202,8.13310171 L140.824351,8.13310171 C140.760538,8.53710068 140.689266,8.85684543 140.611365,9.09022961 L138.515479,15.1742266 L143.185019,15.1742266 Z M105.711602,11.9402128 C104.746948,11.9402128 103.984092,12.2772296 103.423449,12.9499996 C102.862392,13.6240333 102.582692,14.552936 102.582692,15.7371291 C102.582692,16.8787737 102.86695,17.7769237 103.434223,18.4328427 C104.001496,19.0883405 104.760622,19.4165107 105.711602,19.4165107 C106.682887,19.4165107 107.429582,19.0933958 107.951274,18.448851 C108.472966,17.8030425 108.733605,16.8850928 108.733605,15.6937381 C108.733605,14.4956432 108.472966,13.5701106 107.951274,12.9175617 C107.429582,12.2662766 106.682887,11.9402128 105.711602,11.9402128 Z M83.2828131,11.9402128 C82.3181589,11.9402128 81.5553031,12.2772296 80.9954888,12.9499996 C80.4348457,13.6240333 80.1551458,14.552936 80.1551458,15.7371291 C80.1551458,16.8787737 80.4394038,17.7769237 81.0062624,18.4328427 C81.5735354,19.0883405 82.3330763,19.4165107 83.2840562,19.4165107 C84.2565834,19.4165107 85.0028644,19.0933958 85.5237279,18.448851 C86.0445914,17.8030425 86.3056448,16.8850928 86.3056448,15.6937381 C86.3056448,14.4956432 86.0454202,13.5701106 85.5237279,12.9175617 C85.0016213,12.2662766 84.2553403,11.9402128 83.2828131,11.9402128 Z" id="Combined-Shape"></path>
                </g>
            </g>
        </g>
    </g>
</svg>