<svg xmlns="http://www.w3.org/2000/svg" viewBox="0 0 146.02 32.89"><defs><style>.a{fill:#b2b2b2;fill-rule:evenodd;}</style></defs><title>logo_mit</title><polygon class="a" points="31.82 6.27 31.82 0.11 38.37 0.11 38.37 6.27 31.82 6.27 31.82 6.27"/><polygon class="a" points="42.48 30.94 42.48 9.87 48.99 9.87 48.99 30.94 42.48 30.94 42.48 30.94"/><polygon class="a" points="0 0.11 6.51 0.11 6.51 30.94 0 30.94 0 0.11 0 0.11"/><polygon class="a" points="21.24 30.94 21.24 0.11 27.75 0.11 27.75 30.94 21.24 30.94 21.24 30.94"/><polygon class="a" points="10.62 21.18 10.62 0.11 17.13 0.11 17.13 21.18 10.62 21.18 10.62 21.18"/><polygon class="a" points="42.44 6.27 42.44 0.11 59.61 0.11 59.61 6.27 42.44 6.27 42.44 6.27"/><path class="a" d="M1877.31,4085.7v7.42h-1.78l0.12-5.29,0-.75-0.06.26c-0.09.42-.11,0.47-0.19,0.79l-1.4,5h-1.6l-1.35-4.77-0.33-1.32c0,0.59,0,.71.06,1.42l0.09,4.68h-1.8v-7.42h2.71l1.14,4.16,0.26,1.19c0.11-.51.12-0.57,0.2-0.91l1.19-4.44h2.7Z" transform="translate(-1796.64 -4085.69)"/><path class="a" d="M1878.73,4089.19a1.53,1.53,0,0,1,.58-1.22,2.82,2.82,0,0,1,1.8-.48c0.67,0,2.3.16,2.3,1.58v3.2a1.22,1.22,0,0,0,.16.86H1882v-0.5a2.58,2.58,0,0,1-1.68.65,1.67,1.67,0,0,1-1.8-1.67,1.77,1.77,0,0,1,1.16-1.58,14.14,14.14,0,0,1,2.17-.51v-0.29a0.58,0.58,0,0,0-.62-0.67,0.74,0.74,0,0,0-.85.64h-1.62Zm2.05,1.65a0.84,0.84,0,0,0-.69.68,0.59,0.59,0,0,0,.61.56,1.06,1.06,0,0,0,.56-0.18,1.45,1.45,0,0,0,.57-1.41l-1,.35h0Z" transform="translate(-1796.64 -4085.69)"/><path class="a" d="M1885.17,4091.28a2.34,2.34,0,0,0,1.6.76,0.86,0.86,0,0,0,1-.54,0.33,0.33,0,0,0-.21-0.32,3.49,3.49,0,0,0-.94-0.21,6.19,6.19,0,0,1-.74-0.17,2.06,2.06,0,0,1-.91-0.47,1.48,1.48,0,0,1-.41-1c0-.9.78-1.84,2.31-1.84a4,4,0,0,1,2.45.82l-1,.92a2.3,2.3,0,0,0-1.38-.55c-0.63,0-.78.25-0.78,0.41,0,0.32.35,0.38,0.87,0.47,1.1,0.2,2.39.49,2.39,1.8s-1.3,1.92-2.6,1.92a3.62,3.62,0,0,1-2.66-1.06l1-.93h0Z" transform="translate(-1796.64 -4085.69)"/><path class="a" d="M1890.64,4091.28a2.34,2.34,0,0,0,1.6.76,0.86,0.86,0,0,0,1-.54,0.33,0.33,0,0,0-.21-0.32,3.49,3.49,0,0,0-.94-0.21,6.19,6.19,0,0,1-.74-0.17,2.06,2.06,0,0,1-.91-0.47,1.48,1.48,0,0,1-.41-1c0-.9.78-1.84,2.31-1.84a4,4,0,0,1,2.45.82l-1,.92a2.3,2.3,0,0,0-1.38-.55c-0.63,0-.78.25-0.78,0.41,0,0.32.35,0.38,0.87,0.47,1.1,0.2,2.39.49,2.39,1.8s-1.3,1.92-2.6,1.92a3.62,3.62,0,0,1-2.66-1.06l1-.93h0Z" transform="translate(-1796.64 -4085.69)"/><path class="a" d="M1895.82,4089.19a1.53,1.53,0,0,1,.58-1.22,2.82,2.82,0,0,1,1.8-.48c0.67,0,2.3.16,2.3,1.58v3.2a1.22,1.22,0,0,0,.16.86h-1.59v-0.5a2.58,2.58,0,0,1-1.68.65,1.67,1.67,0,0,1-1.8-1.67,1.77,1.77,0,0,1,1.16-1.58,14.1,14.1,0,0,1,2.17-.51v-0.29a0.58,0.58,0,0,0-.62-0.67,0.74,0.74,0,0,0-.85.64h-1.62Zm2.05,1.65a0.84,0.84,0,0,0-.69.68,0.59,0.59,0,0,0,.61.56,1.06,1.06,0,0,0,.56-0.18,1.45,1.45,0,0,0,.57-1.41l-1,.35h0Z" transform="translate(-1796.64 -4085.69)"/><path class="a" d="M1906.76,4091.83a3.13,3.13,0,0,1-.86,1,2.73,2.73,0,0,1-1.58.49,2.65,2.65,0,0,1-2.72-2.87,2.69,2.69,0,0,1,2.76-2.94,2.63,2.63,0,0,1,2.35,1.31l-1.2.68a1.34,1.34,0,0,0-.46-0.58,1.08,1.08,0,0,0-.61-0.19c-0.87,0-1.17,1-1.17,1.66a1.45,1.45,0,0,0,1.22,1.64,1.08,1.08,0,0,0,.82-0.38,1.17,1.17,0,0,0,.24-0.44l1.22,0.63h0Z" transform="translate(-1796.64 -4085.69)"/><path class="a" d="M1908.64,4085.69v2.52a2.1,2.1,0,0,1,1.58-.73,1.84,1.84,0,0,1,1.17.39,1.9,1.9,0,0,1,.57,1.64v3.61h-1.61v-2.87a2.67,2.67,0,0,0-.07-0.84,0.76,0.76,0,0,0-.76-0.55,0.84,0.84,0,0,0-.66.32,2.13,2.13,0,0,0-.21,1.21v2.73H1907v-7.43h1.62Z" transform="translate(-1796.64 -4085.69)"/><path class="a" d="M1916.65,4087.64h1.62v5.49h-1.62v-0.53a1.5,1.5,0,0,1-.55.43,2.27,2.27,0,0,1-1,.25,1.67,1.67,0,0,1-1.4-.58,2.4,2.4,0,0,1-.34-1.62v-3.45H1915V4091a1.09,1.09,0,0,0,.13.65,0.8,0.8,0,0,0,.64.27,1.09,1.09,0,0,0,.56-0.14,0.79,0.79,0,0,0,.37-0.78v-3.42h0Z" transform="translate(-1796.64 -4085.69)"/><path class="a" d="M1920,4091.28a2.34,2.34,0,0,0,1.6.76,0.86,0.86,0,0,0,1-.54,0.33,0.33,0,0,0-.21-0.32,3.48,3.48,0,0,0-.94-0.21,6.2,6.2,0,0,1-.74-0.17,2.06,2.06,0,0,1-.91-0.47,1.48,1.48,0,0,1-.41-1c0-.9.78-1.84,2.31-1.84a4,4,0,0,1,2.45.82l-1,.92a2.3,2.3,0,0,0-1.38-.55c-0.63,0-.78.25-0.78,0.41,0,0.32.35,0.38,0.87,0.47,1.1,0.2,2.39.49,2.39,1.8s-1.3,1.92-2.6,1.92a3.62,3.62,0,0,1-2.66-1.06l1-.93h0Z" transform="translate(-1796.64 -4085.69)"/><path class="a" d="M1930.33,4091.73a4.28,4.28,0,0,1-.66.82,3,3,0,0,1-2.07.78,2.62,2.62,0,0,1-2.78-2.84,2.75,2.75,0,0,1,2.82-3,2.66,2.66,0,0,1,2,.79,3.67,3.67,0,0,1,.78,2.46h-3.92a1.24,1.24,0,0,0,1.25,1.37,1.45,1.45,0,0,0,1.39-1l1.22,0.62h0Zm-1.61-2a1.31,1.31,0,0,0-.31-0.78,1.14,1.14,0,0,0-.79-0.3,1.11,1.11,0,0,0-.82.36,1.44,1.44,0,0,0-.33.73h2.24Z" transform="translate(-1796.64 -4085.69)"/><path class="a" d="M1931.53,4086.05h1.61v1.71h1.06v1h-1.07v2.47c0,0.34,0,.62.42,0.62l0.58,0v1.26a5.12,5.12,0,0,1-.85.08,1.68,1.68,0,0,1-1.51-.54,2.12,2.12,0,0,1-.23-1.24v-2.65h-0.8v-1h0.8v-1.7h0Z" transform="translate(-1796.64 -4085.69)"/><path class="a" d="M1934.62,4086.05h1.61v1.71h1.06v1h-1.07v2.47c0,0.34,0,.62.42,0.62l0.58,0v1.26a5.13,5.13,0,0,1-.85.08,1.68,1.68,0,0,1-1.51-.54,2.12,2.12,0,0,1-.23-1.24v-2.65h-0.8v-1h0.8v-1.7h0Z" transform="translate(-1796.64 -4085.69)"/><path class="a" d="M1938.43,4091.28a2.34,2.34,0,0,0,1.6.76,0.86,0.86,0,0,0,1-.54,0.33,0.33,0,0,0-.21-0.32,3.49,3.49,0,0,0-.94-0.21,6.15,6.15,0,0,1-.74-0.17,2.06,2.06,0,0,1-.91-0.47,1.48,1.48,0,0,1-.41-1,2,2,0,0,1,2.31-1.84,4,4,0,0,1,2.45.82l-1,.92a2.3,2.3,0,0,0-1.38-.55c-0.63,0-.78.25-0.78,0.41,0,0.32.35,0.38,0.87,0.47,1.1,0.2,2.39.49,2.39,1.8s-1.3,1.92-2.6,1.92a3.62,3.62,0,0,1-2.66-1.06l1-.93h0Z" transform="translate(-1796.64 -4085.69)"/><polygon class="a" points="74.38 11.7 74.38 19.12 72.53 19.12 72.53 11.7 74.38 11.7 74.38 11.7"/><path class="a" d="M1874.13,4099.82a1.58,1.58,0,0,1,.55-0.43,2.67,2.67,0,0,1,1-.2,2.08,2.08,0,0,1,1,.22,1.57,1.57,0,0,1,.73,1.65v3.75h-1.61v-3.09a2.19,2.19,0,0,0-.07-0.82,0.74,0.74,0,0,0-.73-0.42c-0.85,0-.85.68-0.85,1.37v3h-1.62v-5.48h1.63v0.48h0Z" transform="translate(-1796.64 -4085.69)"/><path class="a" d="M1879.11,4103a2.35,2.35,0,0,0,1.6.76,0.86,0.86,0,0,0,1-.54,0.34,0.34,0,0,0-.21-0.32,3.49,3.49,0,0,0-.94-0.21,6.3,6.3,0,0,1-.74-0.17,2.06,2.06,0,0,1-.91-0.47,1.48,1.48,0,0,1-.41-1c0-.9.78-1.84,2.31-1.84a4,4,0,0,1,2.45.82l-1,.93a2.3,2.3,0,0,0-1.38-.55c-0.63,0-.78.25-0.78,0.41,0,0.32.35,0.38,0.87,0.47,1.1,0.2,2.39.49,2.39,1.8s-1.3,1.92-2.6,1.92a3.62,3.62,0,0,1-2.66-1.06l1-.93h0Z" transform="translate(-1796.64 -4085.69)"/><path class="a" d="M1884.51,4097.74h1.61v1.71h1.06v1h-1.07v2.47c0,0.34,0,.62.42,0.62l0.58,0v1.26a5.22,5.22,0,0,1-.85.08,1.68,1.68,0,0,1-1.51-.54,2.12,2.12,0,0,1-.23-1.24v-2.65h-0.8v-1h0.8v-1.7h0Z" transform="translate(-1796.64 -4085.69)"/><path class="a" d="M1888,4097.38h1.6v1.25H1888v-1.25h0Zm0,1.93h1.6v5.5H1888v-5.5h0Z" transform="translate(-1796.64 -4085.69)"/><path class="a" d="M1891.3,4097.74h1.61v1.71H1894v1h-1.07v2.47c0,0.34,0,.62.42,0.62l0.58,0v1.26a5.21,5.21,0,0,1-.85.08,1.68,1.68,0,0,1-1.51-.54,2.13,2.13,0,0,1-.23-1.24v-2.65h-0.8v-1h0.8v-1.7h0Z" transform="translate(-1796.64 -4085.69)"/><path class="a" d="M1898.1,4099.32h1.62v5.49h-1.62v-0.53a1.49,1.49,0,0,1-.55.43,2.26,2.26,0,0,1-1,.25,1.67,1.67,0,0,1-1.4-.58,2.4,2.4,0,0,1-.34-1.62v-3.45h1.63v3.41a1.09,1.09,0,0,0,.13.65,0.8,0.8,0,0,0,.64.27,1.08,1.08,0,0,0,.56-0.14,0.79,0.79,0,0,0,.37-0.78v-3.42h0Z" transform="translate(-1796.64 -4085.69)"/><path class="a" d="M1901.37,4097.74H1903v1.71H1904v1H1903v2.47c0,0.34,0,.62.42,0.62l0.58,0v1.26a5.2,5.2,0,0,1-.85.08,1.68,1.68,0,0,1-1.51-.54,2.12,2.12,0,0,1-.23-1.24v-2.65h-0.8v-1h0.8v-1.7h0Z" transform="translate(-1796.64 -4085.69)"/><path class="a" d="M1910,4103.42a4.3,4.3,0,0,1-.66.82,3,3,0,0,1-2.07.78,2.62,2.62,0,0,1-2.78-2.84,2.75,2.75,0,0,1,2.82-3,2.67,2.67,0,0,1,2,.79,3.68,3.68,0,0,1,.78,2.46h-3.92a1.24,1.24,0,0,0,1.25,1.37,1.45,1.45,0,0,0,1.39-1l1.22,0.62h0Zm-1.61-2a1.31,1.31,0,0,0-.3-0.78,1.14,1.14,0,0,0-.79-0.3,1.12,1.12,0,0,0-.82.36,1.44,1.44,0,0,0-.33.73h2.24Z" transform="translate(-1796.64 -4085.69)"/><path class="a" d="M1919.39,4102.06a2.95,2.95,0,1,1-2.73-2.9,2.74,2.74,0,0,1,2.73,2.9h0Zm-4-1.08a2,2,0,0,0-.27,1.07,1.42,1.42,0,0,0,1.33,1.64,1.36,1.36,0,0,0,1.3-1.57,1.86,1.86,0,0,0-.45-1.38,1.18,1.18,0,0,0-.95-0.31,1.09,1.09,0,0,0-1,.54h0Z" transform="translate(-1796.64 -4085.69)"/><path class="a" d="M1920.71,4098.78a1.59,1.59,0,0,1,.23-0.94,1.69,1.69,0,0,1,1.41-.56,7.3,7.3,0,0,1,1,.1v1.21h-0.39c-0.61,0-.64.13-0.63,0.86h1.08v1h-1.07v4.37h-1.61v-4.37h-0.86v-1h0.87v-0.67h0Z" transform="translate(-1796.64 -4085.69)"/><polygon class="a" points="70.5 23.49 76.22 23.49 76.22 24.96 74.29 24.96 74.29 30.92 72.43 30.92 72.43 24.96 70.5 24.96 70.5 23.49 70.5 23.49"/><path class="a" d="M1878,4115.22a4.3,4.3,0,0,1-.66.82,3,3,0,0,1-2.07.78,2.62,2.62,0,0,1-2.78-2.84,2.75,2.75,0,0,1,2.82-3,2.66,2.66,0,0,1,2,.79,3.67,3.67,0,0,1,.78,2.46h-3.92a1.24,1.24,0,0,0,1.25,1.37,1.45,1.45,0,0,0,1.39-1l1.22,0.62h0Zm-1.61-2a1.3,1.3,0,0,0-.3-0.78,1.14,1.14,0,0,0-.79-0.31,1.12,1.12,0,0,0-.82.36,1.44,1.44,0,0,0-.33.73h2.24Z" transform="translate(-1796.64 -4085.69)"/><path class="a" d="M1883.76,4115.32a3.13,3.13,0,0,1-.86,1,2.73,2.73,0,0,1-1.58.49,2.65,2.65,0,0,1-2.72-2.87,2.69,2.69,0,0,1,2.76-2.94,2.62,2.62,0,0,1,2.34,1.31l-1.2.68a1.34,1.34,0,0,0-.46-0.58,1.08,1.08,0,0,0-.61-0.19c-0.87,0-1.17,1-1.17,1.66a1.45,1.45,0,0,0,1.22,1.64,1.08,1.08,0,0,0,.82-0.38,1.16,1.16,0,0,0,.24-0.44l1.22,0.63h0Z" transform="translate(-1796.64 -4085.69)"/><path class="a" d="M1885.63,4109.18v2.52a2.11,2.11,0,0,1,1.58-.73,1.84,1.84,0,0,1,1.17.39,1.9,1.9,0,0,1,.57,1.64v3.61h-1.61v-2.87a2.66,2.66,0,0,0-.07-0.84,0.76,0.76,0,0,0-.76-0.55,0.84,0.84,0,0,0-.66.32,2.12,2.12,0,0,0-.21,1.21v2.73H1884v-7.43h1.62Z" transform="translate(-1796.64 -4085.69)"/><path class="a" d="M1892,4111.62a1.58,1.58,0,0,1,.55-0.43,2.67,2.67,0,0,1,1-.2,2.08,2.08,0,0,1,1,.22,1.57,1.57,0,0,1,.73,1.65v3.75h-1.61v-3.09a2.19,2.19,0,0,0-.07-0.82,0.74,0.74,0,0,0-.73-0.42c-0.85,0-.85.68-0.85,1.37v3h-1.62v-5.48H1892v0.48h0Z" transform="translate(-1796.64 -4085.69)"/><path class="a" d="M1902.23,4113.86a2.95,2.95,0,1,1-2.73-2.9,2.74,2.74,0,0,1,2.73,2.9h0Zm-4-1.08a2,2,0,0,0-.27,1.07,1.42,1.42,0,0,0,1.33,1.64,1.36,1.36,0,0,0,1.3-1.57,1.86,1.86,0,0,0-.45-1.38,1.17,1.17,0,0,0-.95-0.3,1.09,1.09,0,0,0-1,.54h0Z" transform="translate(-1796.64 -4085.69)"/><polygon class="a" points="108.26 23.5 108.26 30.92 106.64 30.92 106.64 23.5 108.26 23.5 108.26 23.5"/><path class="a" d="M1911.87,4113.86a2.95,2.95,0,1,1-2.73-2.9,2.74,2.74,0,0,1,2.73,2.9h0Zm-4-1.08a2,2,0,0,0-.27,1.07,1.42,1.42,0,0,0,1.33,1.64,1.36,1.36,0,0,0,1.3-1.57,1.86,1.86,0,0,0-.45-1.38,1.17,1.17,0,0,0-.95-0.3,1.09,1.09,0,0,0-1,.54h0Z" transform="translate(-1796.64 -4085.69)"/><path class="a" d="M1916.26,4115.89a2.33,2.33,0,0,1-1.45.46,2.23,2.23,0,0,1-1.25-.36,2.54,2.54,0,0,1-1-2.27,2.4,2.4,0,0,1,2.33-2.69,1.91,1.91,0,0,1,1.47.6v-0.51h1.51v5.28a1.81,1.81,0,0,1-.84,1.77,4,4,0,0,1-1.87.42,3,3,0,0,1-2.1-.68,1.69,1.69,0,0,1-.42-1.28h1.67a0.81,0.81,0,0,0,.47.79,1.11,1.11,0,0,0,.52.1,0.84,0.84,0,0,0,1-1v-0.59h0Zm-2.05-2.18a1.15,1.15,0,0,0,1,1.42c0.82,0,1-.64,1-1.42a2.28,2.28,0,0,0-.2-1.07,1,1,0,0,0-.88-0.4c-0.77,0-1,.69-1,1.47h0Z" transform="translate(-1796.64 -4085.69)"/><path class="a" d="M1923.82,4111.13l-1.94,5.93a2.72,2.72,0,0,1-.52,1,1.4,1.4,0,0,1-1.17.44H1919v-1.28h0.57c0.26,0,.67,0,0.67-0.4a1.49,1.49,0,0,0-.07-0.39l-1.64-5.3h1.72l0.9,3.93,0.91-3.93h1.72Z" transform="translate(-1796.64 -4085.69)"/><polygon class="a" points="31.87 30.91 31.87 9.84 38.38 9.84 38.38 30.91 31.87 30.91 31.87 30.91"/></svg>