<?xml version="1.0" encoding="utf-8"?>
<!-- Generator: Adobe Illustrator 21.0.0, SVG Export Plug-In . SVG Version: 6.00 Build 0)  -->
<svg version="1.1" id="Layer_1" xmlns="http://www.w3.org/2000/svg" xmlns:xlink="http://www.w3.org/1999/xlink" x="0px" y="0px"
	 viewBox="0 0 100 75" style="enable-background:new 0 0 100 75;" xml:space="preserve">
<style type="text/css">
	.st0{fill:#AAB2B9;}
</style>
<title>Digital Ocean</title>
<desc>Created with Sketch.</desc>
<g id="Page-1">
	<g id="_x30_2-Features" transform="translate(-947.000000, -2019.000000)">
		<path id="Digital-Ocean" class="st0" d="M997,2059.5h-9.5v-10.1c0,0,0,0,0,0h10.1c0,0,0,0,0,0v9.4c9.8-0.4,17.3-10.3,13.5-20.7
			c-1.4-4-4.6-7.1-8.5-8.5c-10.7-3.9-20.7,4-20.7,14.1c0,0,0,0,0,0h-9.6c0-16.2,15.6-28.7,32.6-23.5c7.4,2.3,13.3,8.2,15.6,15.6
			c5.3,16.9-7.3,32.6-23.5,32.6V2059.5z M987.5,2067.1h-7.6l0,0v-7.6h7.6L987.5,2067.1C987.5,2067.1,987.5,2067.1,987.5,2067.1z
			 M979.9,2059.5h-6.3c0,0,0,0,0,0v-6.3c0,0,0,0,0,0h6.3c0,0,0,0,0,0V2059.5z M955.9,2078.7c0.7,0.5,1.3,1.1,1.7,1.9
			c0.4,0.8,0.6,1.8,0.6,2.9c0,1.1-0.2,2.1-0.6,2.9c-0.4,0.8-0.9,1.5-1.7,2c-1.3,0.9-2.9,1.3-4.8,1.3H947v-12.3h4.1
			C953,2077.4,954.6,2077.8,955.9,2078.7z M960.9,2077.2c0.4,0,0.7,0.1,0.9,0.4c0.2,0.2,0.4,0.5,0.4,0.9c0,0.4-0.1,0.7-0.4,0.9
			c-0.2,0.2-0.5,0.4-0.9,0.4c-0.4,0-0.7-0.1-0.9-0.4s-0.4-0.5-0.4-0.9c0-0.4,0.1-0.7,0.4-0.9
			C960.3,2077.4,960.6,2077.2,960.9,2077.2z M959.7,2089.9v-8.9h2.5v8.9H959.7z M970.1,2082v-0.7h2.2v8c0,1.3-0.4,2.4-1.2,3.2
			c-0.8,0.8-1.9,1.2-3.3,1.2c-1,0-1.9-0.2-2.5-0.6c-0.7-0.4-1.2-0.9-1.5-1.3l0-0.1l1.6-1.5c0.8,1.1,1.5,1.5,2.5,1.5
			c0.7,0,1.2-0.2,1.6-0.6c0.4-0.4,0.6-1,0.6-1.7v-0.2c-0.6,0.5-1.4,0.7-2.2,0.7c-1.3,0-2.3-0.4-3.1-1.2c-0.8-0.9-1.2-1.9-1.2-3.2
			c0-1.3,0.4-2.3,1.2-3.2c0.8-0.8,1.8-1.3,3.1-1.3C968.6,2081,969.4,2081.4,970.1,2082z M973.6,2089.9v-8.9h2.5v8.9H973.6z
			 M974.8,2077.2c0.3,0,0.7,0.1,0.9,0.4c0.2,0.2,0.4,0.5,0.4,0.9c0,0.4-0.1,0.7-0.4,0.9c-0.2,0.2-0.5,0.4-0.9,0.4
			c-0.4,0-0.7-0.1-0.9-0.4c-0.2-0.2-0.4-0.5-0.4-0.9c0-0.4,0.1-0.7,0.4-0.9C974.2,2077.4,974.5,2077.2,974.8,2077.2z M980.5,2078.5
			v2.4h1.9v2.1h-1.9v3.4c0,0.6,0.1,1,0.2,1.2c0.2,0.2,0.5,0.3,1,0.3l0.7,0v2.1l-0.1,0c-0.3,0-0.7,0-1,0c-1,0-1.8-0.2-2.2-0.7
			c-0.4-0.5-0.6-1.3-0.6-2.5v-3.7h-1.2v-2.1h1.2v-2.4H980.5z M993.8,2089.9v-12.7h2.5v12.7H993.8z M1018.9,2086.7l1.6,1.3
			c-0.9,1.2-2.3,1.9-4.1,1.9c-1.3,0-2.5-0.4-3.4-1.3c-0.9-0.8-1.4-1.9-1.4-3.2c0-1.3,0.5-2.3,1.4-3.2c0.9-0.8,2.1-1.3,3.4-1.3
			c1.6,0,2.9,0.6,3.9,1.8l-1.6,1.4c-0.7-0.7-1.5-1.2-2.3-1.2c-0.7,0-1.3,0.2-1.7,0.7c-0.5,0.5-0.7,1.1-0.7,1.8
			c0,0.7,0.2,1.3,0.7,1.8c0.5,0.5,1,0.7,1.7,0.7c0.5,0,0.9-0.1,1.2-0.3v0C1018,2087.5,1018.4,2087.1,1018.9,2086.7z M1028.3,2082.4
			c0.3,0.4,0.6,0.9,0.8,1.4c0.2,0.5,0.3,1,0.3,1.6l0,0.8h-6.4c0.1,0.5,0.3,1,0.7,1.3c0.4,0.3,1,0.5,1.6,0.5c0.5,0,0.9-0.1,1.2-0.2
			c0.2-0.1,0.5-0.3,0.7-0.5c0.2-0.2,0.4-0.3,0.5-0.5l1.6,1.3l-0.1,0.1c-1,1.1-2.3,1.7-4,1.7c-1.4,0-2.6-0.4-3.5-1.2
			c-0.9-0.8-1.3-1.9-1.3-3.2c0-1.2,0.4-2.3,1.2-3.2c0.8-0.9,1.9-1.3,3.3-1.3c0.7,0,1.4,0.1,2,0.4
			C1027.5,2081.6,1027.9,2082,1028.3,2082.4z M1035.8,2081.9c0.7,0.6,1,1.4,1,2.4v5.4h-2.2v-0.7c-0.7,0.6-1.5,0.9-2.4,0.9
			c-0.9,0-1.6-0.2-2.2-0.7c-0.6-0.5-0.9-1.1-0.9-1.9c0-0.9,0.3-1.6,1-2.1c0.7-0.5,1.6-0.7,2.7-0.7c0.5,0,1.1,0.1,1.6,0.2v-0.4
			c0-0.4-0.1-0.7-0.4-0.9c-0.3-0.2-0.7-0.4-1.2-0.4c-0.9,0-1.5,0.3-2.1,1.2l-1.4-1.3l0,0c0.4-0.6,0.9-1.1,1.5-1.4
			c0.6-0.3,1.3-0.5,2.1-0.5C1034.2,2081,1035.2,2081.3,1035.8,2081.9L1035.8,2081.9z M1046.1,2082c0.6,0.7,0.9,1.6,0.9,2.8v5h-2.2
			v-5c0-0.6-0.1-1-0.4-1.4c-0.3-0.3-0.6-0.5-1.1-0.5c-0.6,0-1,0.2-1.3,0.6c-0.3,0.4-0.5,0.9-0.5,1.5v4.8h-2.2v-8.7h2.1v0.5
			c0.5-0.5,1.2-0.7,2.1-0.7C1044.7,2081,1045.5,2081.4,1046.1,2082z M990.3,2081.9c0.7,0.6,1,1.4,1,2.4v5.4h-2.2v-0.7
			c-0.7,0.6-1.5,0.9-2.4,0.9c-0.9,0-1.6-0.2-2.2-0.7c-0.6-0.5-0.9-1.1-0.9-1.9c0-0.9,0.3-1.6,1-2.1c0.7-0.5,1.6-0.7,2.7-0.7
			c0.5,0,1.1,0.1,1.6,0.2v-0.4c0-0.4-0.1-0.7-0.4-0.9c-0.3-0.2-0.7-0.4-1.2-0.4c-0.9,0-1.5,0.3-2.1,1.2l-1.4-1.3l0,0
			c0.4-0.6,0.9-1.1,1.5-1.4c0.6-0.3,1.3-0.5,2.1-0.5C988.7,2081,989.6,2081.3,990.3,2081.9L990.3,2081.9z M1004,2089.9
			c-3.5,0-6.3-2.8-6.3-6.3c0-3.5,2.8-6.3,6.3-6.3c3.5,0,6.3,2.8,6.3,6.3C1010.3,2087,1007.5,2089.9,1004,2089.9z M1031.9,2086.5
			c-0.2,0.2-0.4,0.4-0.4,0.7c0,0.3,0.1,0.5,0.3,0.6c0.2,0.2,0.5,0.2,0.9,0.2c0.8,0,1.4-0.2,1.9-0.6v-0.8c-0.6-0.2-1.2-0.3-1.7-0.3
			C1032.5,2086.2,1032.1,2086.3,1031.9,2086.5z M1023,2084.4h3.7c0-0.4-0.2-0.7-0.5-1c-0.3-0.3-0.8-0.4-1.3-0.4
			c-0.5,0-0.9,0.1-1.3,0.4C1023.3,2083.7,1023.1,2084,1023,2084.4z M969.5,2087.2c0.4-0.4,0.6-1,0.6-1.7c0-0.7-0.2-1.3-0.6-1.8
			c-0.4-0.4-0.9-0.7-1.6-0.7c-0.6,0-1.2,0.2-1.6,0.7c-0.4,0.4-0.6,1-0.6,1.8c0,0.7,0.2,1.3,0.6,1.7c0.4,0.4,0.9,0.7,1.6,0.7
			S969.1,2087.6,969.5,2087.2z M949.4,2079.5v8.1h1.3c1.5,0,2.6-0.3,3.5-0.8h0c1-0.6,1.5-1.7,1.5-3.3c0-1.6-0.5-2.6-1.5-3.2
			c-0.9-0.5-2.1-0.8-3.5-0.8H949.4z M1004,2079.5c-2.3,0-4.1,1.8-4.1,4.1c0,2.3,1.8,4.1,4.1,4.1c2.3,0,4.1-1.8,4.1-4.1
			C1008.1,2081.3,1006.2,2079.5,1004,2079.5z M986.3,2086.5c-0.2,0.2-0.4,0.4-0.4,0.7c0,0.3,0.1,0.5,0.3,0.6
			c0.2,0.2,0.5,0.2,0.9,0.2c0.8,0,1.4-0.2,1.9-0.6v-0.8c-0.6-0.2-1.2-0.3-1.7-0.3C986.9,2086.2,986.6,2086.3,986.3,2086.5z"/>
	</g>
</g>
</svg>
