<?xml version="1.0" encoding="utf-8"?>
<!-- Generator: Adobe Illustrator 21.0.0, SVG Export Plug-In . SVG Version: 6.00 Build 0)  -->
<svg version="1.1" id="Layer_1" xmlns="http://www.w3.org/2000/svg" xmlns:xlink="http://www.w3.org/1999/xlink" x="0px" y="0px"
	 viewBox="0 0 180 46" style="enable-background:new 0 0 180 46;" xml:space="preserve">
<style type="text/css">
	.st0{fill:#AAB2B9;}
</style>
<title>Combined Shape</title>
<desc>Created with Sketch.</desc>
<g id="Page-1">
	<g id="_x30_2-Features" transform="translate(-776.000000, -2150.000000)">
		<path id="Combined-Shape" class="st0" d="M816,2150l1,0.6l1.7,1l0,0l-2.8,1.6v0h0L816,2150L816,2150z M793.1,2156.6l0,3.2
			l5.7,14.7l0.8-2.1l2-1.2v-4.1l2.9-7.5v-3.1c0,0,3.5-2.1,5-2.9c1.1-0.6,3.5-2,3.5-2c0,0-2.4,1.4-3.5,2c-1.4,0.8-5,2.9-5,2.9
			l2.8,1.6l2.8-1.6l2.8,1.6l8.6-4.9c0,0-0.8,0.5,0,0c-0.3-0.3-2.9-1.6-2.9-1.6l-1.4,0.8l1.4-0.8c0,0,2.6,1.4,2.9,1.6l0,3.3
			l-14.3,34.3l-8.6,4.9v0l-8.6-4.9l-8.6-20.6l0-3.9l-2.2-1.3l-3.6-8.5v-3.3l0,0l5.7-3.3L793.1,2156.6l-11.4-6.6l-5.7,3.3l11.4,6.5
			L793.1,2156.6L793.1,2156.6z M813.1,2151.6C813.1,2151.6,813.1,2151.6,813.1,2151.6C813.1,2151.6,813.1,2151.6,813.1,2151.6z
			 M781.7,2159.8l0-3.3l-2.9,1.6L781.7,2159.8z M787.4,2163.1l2.9,1.6v-3.3L787.4,2163.1z M790.3,2174.5l-2.9-1.7l-2.9,1.6l2.9,1.7
			L790.3,2174.5z M796,2190.8l2.9,1.7l0-3.4L796,2190.8z M798.9,2182.6l-2.9,1.6l2.9,1.7l2.9-1.7L798.9,2182.6z M807.4,2164.7
			l2.8,1.6l2.9-1.6l-2.9-1.7L807.4,2164.7z M804.6,2185.9v3.3l2.9-1.7L804.6,2185.9z M947.6,2182.1v-17.2h-5.9v-2.2H956v2.2h-5.9
			v17.2H947.6z M935.2,2182.1l-8.5-16.5v16.5h-2.4v-19.4h3.5l8.5,16.6v-16.6h2.4v19.4H935.2z M914.3,2162.7l6.6,19.4h-2.6l-1.6-4.7
			h-8.3l-1.6,4.7h-2.6l6.6-19.4H914.3z M916.1,2175.2l-3.5-10.8l-3.5,10.8H916.1z M899.3,2182.1l-4.9-7h-4.8v7H887v-19.4h7.5
			c4.2,0,5.7,1.8,5.7,4.8v2.8c0,2.3-0.9,3.9-3.1,4.5l5.1,7.3H899.3z M897.7,2167.5c0-1.9-0.8-2.6-3.2-2.6h-4.9v7.9h4.9
			c2.4,0,3.2-0.7,3.2-2.6V2167.5z M872.1,2168.2v8.3c0,2.5,0.7,3.6,4.1,3.6c1,0,2.3-0.1,3.7-0.4v-6.6h2.4v8.4
			c-1.9,0.6-4.2,0.8-6.2,0.8c-5,0-6.5-2.1-6.5-5.7v-8.5c0-3.9,2-5.7,6.9-5.7c1.7,0,3.6,0.2,5.5,0.6l-0.3,2.2
			c-1.9-0.3-3.7-0.5-5.3-0.5C873.1,2164.7,872.1,2165.6,872.1,2168.2z M860.3,2162.7l6.6,19.4h-2.6l-1.6-4.7h-8.3l-1.6,4.7h-2.6
			l6.6-19.4H860.3z M862.1,2175.2l-3.5-10.8l-3.5,10.8H862.1z M840.6,2182.1l-6.5-19.4h2.4l5.7,17.2l5.7-17.2h2.4l-6.5,19.4H840.6z"
			/>
	</g>
</g>
</svg>
