<?xml version="1.0" encoding="utf-8"?>
<!-- Generator: Adobe Illustrator 21.0.0, SVG Export Plug-In . SVG Version: 6.00 Build 0)  -->
<svg version="1.1" id="Layer_1" xmlns="http://www.w3.org/2000/svg" xmlns:xlink="http://www.w3.org/1999/xlink" x="0px" y="0px"
	 viewBox="0 0 155 29" style="enable-background:new 0 0 155 29;" xml:space="preserve">
<style type="text/css">
	.st0{fill:#AAB2B9;}
</style>
<title>Openstack</title>
<desc>Created with Sketch.</desc>
<g id="Page-1">
	<g id="_x30_2-Features" transform="translate(-1114.000000, -2042.000000)">
		<path id="Openstack" class="st0" d="M1140.4,2042c1.5,0,2.7,1.2,2.7,2.7v6.5h-6.6v-1.1c0-0.8-0.7-1.5-1.5-1.5H1122
			c-0.8,0-1.5,0.7-1.5,1.5v1.1h-6.6v-6.5c0-1.5,1.2-2.7,2.7-2.7H1140.4z M1136.3,2061.8v-1.1h6.5v6.6c0,1.6-1.2,2.8-2.7,2.8h-23.5
			c-1.5,0-2.7-1.3-2.7-2.8v-6.6h6.5v1.1c0,0.8,0.6,1.5,1.4,1.5h12.9C1135.7,2063.3,1136.3,2062.6,1136.3,2061.8z M1114,2058.9v-6.1
			h6.1v6.1H1114z M1137,2058.9v-6.1h6.1v6.1H1137z M1163.1,2055.9c0,4.3-2.9,7.5-6.9,7.5c-4,0-6.9-3.1-6.9-7.5v-0.3
			c0-4.3,2.9-7.6,6.9-7.6c4,0,6.9,3.2,6.9,7.5V2055.9z M1178.4,2055.7c0,4.7-2.9,7.1-6,7.1c-2.2,0-3.6-1.1-4.5-2.4v6.2h-3.3v-18.1
			h3.3v2.3c1-1.4,2.3-2.5,4.5-2.5c3.1,0,6,2.4,6,7.1V2055.7z M1191.7,2061.2c-1.3,1.4-2.9,2.3-5.1,2.3c-3.7,0-6.7-2.9-6.7-7.5v-0.2
			c0-4.4,2.6-7.6,6.2-7.6c4,0,6.1,3.3,6.1,7.8c0,0.2,0,0.6,0,1.1h-9.1c0.3,2.5,1.8,3.8,3.7,3.8c1.4,0,2.4-0.6,3.4-1.6L1191.7,2061.2
			z M1201.3,2048.1c3,0,4.8,2,4.8,5.3v10.1h-3.3v-9.2c0-2.1-1-3.3-2.8-3.3c-1.7,0-2.9,1.2-2.9,3.3v9.1h-3.3v-15.1h3.3v2.2
			C1197.9,2049.3,1199.2,2048.1,1201.3,2048.1z M1218.3,2059c0,2.9-2.2,4.5-5.1,4.5c-1.8,0-3.9-0.6-5.6-2.1l1.5-2.3
			c1.4,1.1,2.8,1.7,4.1,1.7c1.3,0,2.1-0.7,2.1-1.6v0c0-1.1-1.2-1.5-3-2.3c-2.2-1-4.1-2-4.1-4.4v-0.1c0-2.7,2.2-4.3,5-4.3
			c1.7,0,3.5,0.6,4.9,1.6l-1.4,2.3c-1.1-0.8-2.4-1.3-3.6-1.3s-1.9,0.6-1.9,1.5v0.1c0,1,1.2,1.5,3,2.3
			C1216.6,2055.6,1218.3,2056.6,1218.3,2059L1218.3,2059z M1227.5,2062.9c-0.7,0.4-1.5,0.6-2.5,0.6c-2.1,0-3.6-0.9-3.6-3.7v-8.2h-1
			l-0.5-2.6h1.5v-3.9h3v3.9h3.1v2.6h-3.1v7.6c0,1.1,0.6,1.6,1.5,1.6c0.6,0,1.1-0.1,1.6-0.4V2062.9z M1239.8,2049.7
			c1,1,1.5,2.4,1.5,4.3v9.2h-3.2v-1.8c-0.9,1.3-2.3,2.1-4.3,2.1c-2.6,0-4.7-1.7-4.7-4.6v-0.1c0-3.2,2.2-4.8,5.5-4.8
			c1.5,0,2.5,0.3,3.6,0.6v-0.6c0-2-1.2-3-3.3-3c-1.5,0-2.7,0.4-3.7,0.9l-0.9-2.5c1.5-0.7,3-1.2,5.1-1.2
			C1237.2,2048.1,1238.8,2048.7,1239.8,2049.7z M1253.6,2061.3c-1.1,1.3-2.5,2.2-4.6,2.2c-3.6,0-6.2-3.1-6.2-7.5v-0.3
			c0-4.4,2.7-7.6,6.3-7.6c2,0,3.3,0.8,4.4,2l-1.6,2.3c-0.7-0.8-1.5-1.5-2.8-1.5c-1.9,0-3.3,2-3.3,4.8v0.1c0,2.9,1.4,4.8,3.4,4.8
			c1.2,0,2-0.6,2.8-1.5L1253.6,2061.3z M1264.9,2055.8l4.1,7.7h-3.4l-2.8-5.3L1264.9,2055.8z M1265.1,2048.8h3.8l-9,10.4v4.2h-3.2
			v-19.9h3.2v11.7L1265.1,2048.8z M1238.2,2058.2v-1.5c-0.8-0.3-1.8-0.5-2.9-0.5c-1.9,0-3,0.9-3,2.5v0.1c0,1.5,1.1,2.3,2.5,2.4
			C1236.7,2061.1,1238.2,2059.9,1238.2,2058.2z M1186.2,2050.8c-1.7,0-2.9,1.5-3.1,4h6.2C1189.1,2052.5,1188,2050.8,1186.2,2050.8z
			 M1167.9,2055.6c0,2.8,1.7,4.5,3.7,4.5c2,0,3.6-1.7,3.6-4.5v-0.2c0-2.8-1.6-4.6-3.6-4.6c-2,0-3.7,1.8-3.7,4.5V2055.6z
			 M1152.5,2055.9c0,2.8,1.6,4.8,3.7,4.8c2.2,0,3.7-2.1,3.7-4.8v-0.2c0-2.8-1.6-4.8-3.7-4.8c-2.2,0-3.7,2-3.7,4.8V2055.9z"/>
	</g>
</g>
</svg>
