<svg xmlns="http://www.w3.org/2000/svg" viewBox="0 0 104.39 41.73"><defs><style>.a{fill:#b2b2b2;}</style></defs><title>logo_ibm</title><polygon class="a" points="0 0 20.32 0 20.32 2.86 0 2.86 0 0 0 0"/><polygon class="a" points="45.08 0 45.83 0 46.54 0.11 47.26 0.25 47.98 0.4 48.7 0.64 49.36 0.91 50.02 1.23 50.7 1.58 51.31 2 51.9 2.43 52.35 2.86 23.23 2.86 23.23 0 45.08 0 45.08 0"/><polygon class="a" points="58.07 0 74.59 0 75.61 2.86 58.07 2.86 58.07 0 58.07 0"/><polygon class="a" points="88.03 0 104.39 0 104.39 2.86 87.01 2.86 88.03 0 88.03 0"/><polygon class="a" points="0 5.57 20.32 5.57 20.32 8.39 0 8.39 0 5.57 0 5.57"/><polygon class="a" points="5.81 11.09 14.49 11.09 14.49 13.97 5.81 13.97 5.81 11.09 5.81 11.09"/><polygon class="a" points="5.81 16.62 14.49 16.62 14.49 19.51 5.81 19.51 5.81 16.62 5.81 16.62"/><polygon class="a" points="54.41 5.57 54.56 5.84 54.88 6.51 55.15 7.25 55.49 8.39 23.23 8.39 23.23 5.57 54.41 5.57 54.41 5.57"/><polygon class="a" points="29.04 11.09 37.72 11.09 37.72 13.97 29.04 13.97 29.04 11.09 29.04 11.09"/><polygon class="a" points="55.76 11.09 55.74 11.54 55.66 12.28 55.54 13.01 55.37 13.72 55.28 13.97 46.46 13.97 46.46 11.09 55.76 11.09 55.76 11.09"/><polygon class="a" points="54.05 16.62 53.79 17.03 53.33 17.61 52.86 18.17 52.35 18.7 51.79 19.19 51.31 19.51 29.04 19.51 29.04 16.62 54.05 16.62 54.05 16.62"/><polygon class="a" points="58.07 5.57 76.54 5.57 77.55 8.39 58.07 8.39 58.07 5.57 58.07 5.57"/><polygon class="a" points="104.39 5.57 104.39 8.39 85.09 8.39 86.07 5.57 104.39 5.57 104.39 5.57"/><polygon class="a" points="63.89 11.09 78.46 11.09 79.47 13.97 63.89 13.97 63.89 11.09 63.89 11.09"/><polygon class="a" points="98.73 11.09 98.73 13.97 83.14 13.97 84.13 11.09 98.73 11.09 98.73 11.09"/><polygon class="a" points="73.51 19.51 89.14 19.51 90.02 16.94 90.02 19.51 98.73 19.51 98.73 16.62 82.22 16.62 81.31 19.19 80.4 16.62 63.89 16.62 63.89 19.51 72.6 19.51 72.6 16.92 73.51 19.51 73.51 19.51"/><polygon class="a" points="0 38.83 20.32 38.83 20.32 41.73 0 41.73 0 38.83 0 38.83"/><polygon class="a" points="0 33.25 20.32 33.25 20.32 36.15 0 36.15 0 33.25 0 33.25"/><polygon class="a" points="5.81 22.19 14.49 22.19 14.49 25.04 5.81 25.04 5.81 22.19 5.81 22.19"/><polygon class="a" points="5.81 27.73 14.49 27.73 14.49 30.61 5.81 30.61 5.81 27.73 5.81 27.73"/><polygon class="a" points="51.31 22.19 51.79 22.54 52.35 23.02 52.86 23.56 53.33 24.11 53.79 24.7 54.05 25.04 29.04 25.04 29.04 22.19 51.31 22.19 51.31 22.19"/><polygon class="a" points="29.04 27.73 37.72 27.73 37.72 30.61 29.04 30.61 29.04 27.73 29.04 27.73"/><polygon class="a" points="55.28 27.73 55.37 28.01 55.54 28.72 55.66 29.43 55.74 30.18 55.76 30.61 46.46 30.61 46.46 27.73 55.28 27.73 55.28 27.73"/><polygon class="a" points="55.49 33.25 55.37 33.84 55.15 34.53 54.88 35.22 54.56 35.89 54.41 36.15 23.23 36.15 23.23 33.25 55.49 33.25 55.49 33.25"/><polygon class="a" points="52.35 38.83 51.79 39.29 51.2 39.75 50.59 40.15 49.93 40.5 49.26 40.82 48.6 41.08 47.88 41.33 47.15 41.48 46.46 41.62 45.72 41.7 44.97 41.73 23.23 41.73 23.23 38.83 52.35 38.83 52.35 38.83"/><polygon class="a" points="63.89 22.19 72.6 22.19 72.6 25.04 63.89 25.04 63.89 22.19 63.89 22.19"/><polygon class="a" points="87.2 25.04 75.39 25.04 74.41 22.19 88.2 22.19 87.2 25.04 87.2 25.04"/><polygon class="a" points="90.02 22.19 98.73 22.19 98.73 25.04 90.02 25.04 90.02 22.19 90.02 22.19"/><polygon class="a" points="63.89 27.73 72.6 27.73 72.6 30.61 63.89 30.61 63.89 27.73 63.89 27.73"/><polygon class="a" points="86.32 27.73 85.33 30.61 77.29 30.61 76.3 27.73 86.32 27.73 86.32 27.73"/><polygon class="a" points="90.02 27.73 98.73 27.73 98.73 30.61 90.02 30.61 90.02 27.73 90.02 27.73"/><polygon class="a" points="58.07 33.25 72.6 33.25 72.6 36.15 58.07 36.15 58.07 33.25 58.07 33.25"/><polygon class="a" points="84.42 33.25 83.44 36.15 79.18 36.15 78.19 33.25 84.42 33.25 84.42 33.25"/><polygon class="a" points="90.02 33.25 104.39 33.25 104.39 36.15 90.02 36.15 90.02 33.25 90.02 33.25"/><polygon class="a" points="58.07 38.83 72.6 38.83 72.6 41.73 58.07 41.73 58.07 38.83 58.07 38.83"/><polygon class="a" points="90.02 38.83 104.39 38.83 104.39 41.73 90.02 41.73 90.02 38.83 90.02 38.83"/><polygon class="a" points="81.52 41.73 82.51 38.83 80.11 38.83 81.09 41.73 81.52 41.73 81.52 41.73"/></svg>