<svg xmlns="http://www.w3.org/2000/svg" viewBox="0 0 117.57 48.87"><defs><style>.a{fill:#b2b2b2;}</style></defs><title>logo_hp</title><path class="a" d="M1638.84,4083.75h-40.39v-11.61h40.39v11.61Zm-37.73-2.65h35.08v-6.3h-35.08v6.3Z" transform="translate(-1598.45 -4072.15)"/><path class="a" d="M1608.22,4091.07v11.16h-2.33v-4.69h-5.05v4.69h-2.33v-11.16h2.33v4.44h5.05v-4.44h2.33Z" transform="translate(-1598.45 -4072.15)"/><path class="a" d="M1611.93,4098.68a2.11,2.11,0,0,0,2.34,1.87,3.94,3.94,0,0,0,2.33-.71v1.85a4.47,4.47,0,0,1-2.67.71,3.92,3.92,0,0,1-4.16-4.18c0-2.54,1.6-4.31,3.82-4.31s3.58,1.64,3.58,4v0.73h-5.24Zm0.07-1.47h3.07a1.41,1.41,0,0,0-1.44-1.49A1.7,1.7,0,0,0,1612,4097.21Z" transform="translate(-1598.45 -4072.15)"/><path class="a" d="M1625.92,4099.28l1.45-5.18h2.18l-2.47,8.12H1625l-1.33-5-1.33,5h-2.07l-2.47-8.12h2.25l1.45,5.18,1.33-5.18h1.73Z" transform="translate(-1598.45 -4072.15)"/><path class="a" d="M1637.75,4098.68a2.11,2.11,0,0,0,2.34,1.87,3.94,3.94,0,0,0,2.33-.71v1.85a4.47,4.47,0,0,1-2.67.71,3.92,3.92,0,0,1-4.16-4.18c0-2.54,1.6-4.31,3.82-4.31s3.58,1.64,3.58,4v0.73h-5.24Zm0.07-1.47h3.07a1.41,1.41,0,0,0-1.44-1.49A1.7,1.7,0,0,0,1637.82,4097.21Z" transform="translate(-1598.45 -4072.15)"/><path class="a" d="M1661.3,4098.36v3.87H1659v-11.16h4.54c2.36,0,3.93,1.27,3.93,3.65s-1.56,3.64-3.93,3.64h-2.24Zm2.09-5.31h-2.09v3.33h2.09A1.67,1.67,0,1,0,1663.39,4093Z" transform="translate(-1598.45 -4072.15)"/><path class="a" d="M1673,4097.16c0-.78-0.67-1.27-1.82-1.27a4,4,0,0,0-2.22.65v-1.94a5.54,5.54,0,0,1,2.71-.67c2.24,0,3.49,1.15,3.49,3.13v5.18H1673v-0.44a3.17,3.17,0,0,1-2,.58,2.7,2.7,0,0,1-3-2.64c0-1.54,1.36-2.6,3.14-2.6a3.63,3.63,0,0,1,1.82.47v-0.45Zm0,2.27a1.56,1.56,0,0,0-1.44-.71,1.23,1.23,0,0,0-1.44,1,1.21,1.21,0,0,0,1.44,1,1.56,1.56,0,0,0,1.44-.71v-0.58Z" transform="translate(-1598.45 -4072.15)"/><path class="a" d="M1680.9,4093.92a3.57,3.57,0,0,1,2.2.64v2.05a2.8,2.8,0,0,0-1.93-.73,2.3,2.3,0,0,0,0,4.58,2.89,2.89,0,0,0,1.93-.73v2a3.57,3.57,0,0,1-2.2.64A4.25,4.25,0,0,1,1680.9,4093.92Z" transform="translate(-1598.45 -4072.15)"/><path class="a" d="M1692.76,4102.23h-2.64l-2.93-3.74v3.74h-2.25v-11.82h2.25v6.91l2.78-3.22h2.71l-3.38,3.73Z" transform="translate(-1598.45 -4072.15)"/><path class="a" d="M1698,4097.16c0-.78-0.67-1.27-1.82-1.27a4,4,0,0,0-2.22.65v-1.94a5.54,5.54,0,0,1,2.71-.67c2.24,0,3.49,1.15,3.49,3.13v5.18H1698v-0.44a3.17,3.17,0,0,1-2,.58,2.7,2.7,0,0,1-3-2.64c0-1.54,1.36-2.6,3.14-2.6a3.63,3.63,0,0,1,1.82.47v-0.45Zm0,2.27a1.56,1.56,0,0,0-1.44-.71,1.23,1.23,0,0,0-1.44,1,1.21,1.21,0,0,0,1.44,1,1.56,1.56,0,0,0,1.44-.71v-0.58Z" transform="translate(-1598.45 -4072.15)"/><path class="a" d="M1707.28,4096.32a2.25,2.25,0,0,0-1.13-.27,1.47,1.47,0,0,0-1.55,1.15v5h-2.25v-8.12h2.25v0.8a2.09,2.09,0,0,1,1.82-1,2.12,2.12,0,0,1,.85.15v2.25Z" transform="translate(-1598.45 -4072.15)"/><path class="a" d="M1713.75,4101.56a2.8,2.8,0,0,1-2,.85c-2.36,0-3.69-1.91-3.69-4.24s1.33-4.25,3.69-4.25a2.8,2.8,0,0,1,2,.85v-4.36H1716v11.82h-2.27v-0.67Zm0-4.73a1.72,1.72,0,0,0-1.53-.95,2.31,2.31,0,0,0,0,4.56,1.67,1.67,0,0,0,1.53-.95v-2.67Z" transform="translate(-1598.45 -4072.15)"/><path class="a" d="M1634.38,4100.84a1,1,0,0,1-1.11-1.09h0v-8.6h-2.25v8.71a2.67,2.67,0,0,0,2.87,2.89,3,3,0,0,0,1.25-.22v-1.91A1.4,1.4,0,0,1,1634.38,4100.84Z" transform="translate(-1598.45 -4072.15)"/><path class="a" d="M1653,4096.29H1655v-1.84H1653v-3.31h-2.25v3.31h-3.25v-3.31h-2.25v3.31h-1.48v1.84h1.48v3.57a2.67,2.67,0,0,0,2.87,2.89,3,3,0,0,0,1.25-.22v-1.91a1.4,1.4,0,0,1-.8.22,1,1,0,0,1-1.11-1.09h0v-3.46h3.25v3.57a2.67,2.67,0,0,0,2.87,2.89,3,3,0,0,0,1.25-.22v-1.91a1.4,1.4,0,0,1-.8.22,1,1,0,0,1-1.11-1.09h0v-3.46Z" transform="translate(-1598.45 -4072.15)"/><path class="a" d="M1605.8,4106.66v1.28h-5.73v3.55h5.2v1.28h-5.2v3.83h5.73v1.3h-7.16v-11.25h7.16Z" transform="translate(-1598.45 -4072.15)"/><path class="a" d="M1608,4109.77h1.37v1a3,3,0,0,1,2.4-1.19,2.69,2.69,0,0,1,2.86,3v5.33h-1.39v-5.11a1.69,1.69,0,0,0-1.79-1.92,2.21,2.21,0,0,0-2.07,1.52v5.51H1608v-8.13Z" transform="translate(-1598.45 -4072.15)"/><path class="a" d="M1623.37,4114.07a2.6,2.6,0,0,0,2.73,2.78,3.51,3.51,0,0,0,2.31-.77v1.26a3.91,3.91,0,0,1-2.47.71c-2.34,0-3.92-1.59-3.92-4.16s1.47-4.3,3.63-4.3,3.33,1.59,3.33,4v0.49h-5.6Zm0.07-1.08h4.19a2,2,0,0,0-2-2.22A2.28,2.28,0,0,0,1623.44,4113Z" transform="translate(-1598.45 -4072.15)"/><path class="a" d="M1635,4111.14a1.74,1.74,0,0,0-.92-0.22,2,2,0,0,0-1.89,1.52v5.46h-1.37v-8.13h1.37v1.06a2.27,2.27,0,0,1,2-1.23,2,2,0,0,1,.79.13v1.41Z" transform="translate(-1598.45 -4072.15)"/><path class="a" d="M1637.82,4121h-1.37v-11.25h1.37v1a2.89,2.89,0,0,1,2.29-1.12c2.4,0,3.66,2,3.66,4.23s-1.26,4.23-3.66,4.23a2.89,2.89,0,0,1-2.29-1.12V4121Zm0-5.53a2.34,2.34,0,0,0,2.09,1.34c1.56,0,2.47-1.26,2.47-3s-0.92-3-2.47-3a2.34,2.34,0,0,0-2.09,1.34v3.3Z" transform="translate(-1598.45 -4072.15)"/><path class="a" d="M1650.09,4111.14a1.74,1.74,0,0,0-.92-0.22,2,2,0,0,0-1.89,1.52v5.46h-1.37v-8.13h1.37v1.06a2.27,2.27,0,0,1,2-1.23,2,2,0,0,1,.79.13v1.41Z" transform="translate(-1598.45 -4072.15)"/><path class="a" d="M1652.47,4108.19a0.89,0.89,0,0,1-.88-0.88,0.89,0.89,0,0,1,1.78,0A0.9,0.9,0,0,1,1652.47,4108.19Zm0.7,9.71h-1.37v-8.13h1.37v8.13Z" transform="translate(-1598.45 -4072.15)"/><path class="a" d="M1655.14,4115.8a3.93,3.93,0,0,0,2.67,1.1c0.9,0,1.69-.33,1.69-1.14a1.33,1.33,0,0,0-1.17-1.17l-1.12-.38c-1.23-.4-2.05-1-2.05-2.31s1.26-2.29,2.88-2.29a4.23,4.23,0,0,1,2.42.71v1.43a3.64,3.64,0,0,0-2.42-1c-0.84,0-1.54.37-1.54,1.06s0.44,0.88,1.21,1.15l1.25,0.42a2.35,2.35,0,0,1,1.9,2.29c0,1.5-1.34,2.36-3,2.36a4.51,4.51,0,0,1-2.67-.81v-1.47Z" transform="translate(-1598.45 -4072.15)"/><path class="a" d="M1663.59,4114.07a2.6,2.6,0,0,0,2.73,2.78,3.51,3.51,0,0,0,2.31-.77v1.26a3.91,3.91,0,0,1-2.47.71c-2.34,0-3.92-1.59-3.92-4.16s1.47-4.3,3.63-4.3,3.33,1.59,3.33,4v0.49h-5.6Zm0.07-1.08h4.19a2,2,0,0,0-2-2.22A2.28,2.28,0,0,0,1663.66,4113Z" transform="translate(-1598.45 -4072.15)"/><path class="a" d="M1620.23,4116.86a1.3,1.3,0,0,1-1.34-1.48v-0.7h0v-3.74h2.16v-1.15h-2.16v-2h-1.39v2h-1.87v1.15h1.87v4.55a2.39,2.39,0,0,0,2.49,2.58,2.63,2.63,0,0,0,1.06-.18v-1.25A1.59,1.59,0,0,1,1620.23,4116.86Z" transform="translate(-1598.45 -4072.15)"/></svg>