<?xml version="1.0" encoding="utf-8"?>
<!-- Generator: Adobe Illustrator 21.0.0, SVG Export Plug-In . SVG Version: 6.00 Build 0)  -->
<svg version="1.1" id="Layer_1" xmlns="http://www.w3.org/2000/svg" xmlns:xlink="http://www.w3.org/1999/xlink" x="0px" y="0px"
	 viewBox="0 0 190 27" style="enable-background:new 0 0 190 27;" xml:space="preserve">
<style type="text/css">
	.st0{fill:#AAB2B9;}
</style>
<title>Microsoft Azure</title>
<desc>Created with Sketch.</desc>
<g id="Page-1">
	<g id="_x30_2-Features" transform="translate(-1038.000000, -2161.000000)">
		<path id="Microsoft-Azure" class="st0" d="M1064.1,2161l-14.2,2v10.5h14.2L1064.1,2161L1064.1,2161z M1038,2164.6l0,8.9h10.7
			v-10.3L1038,2164.6z M1049.9,2174.8v10.4l14.2,2v-12.3H1049.9z M1048.7,2174.8L1048.7,2174.8L1048.7,2174.8z M1038,2174.8h10.7
			v10.2l-10.7-1.5L1038,2174.8z M1088.8,2182.1h-2.5v-9.9c0-0.8,0.1-1.8,0.1-3h0c-0.2,0.7-0.3,1.1-0.4,1.4l-4.6,11.4h-1.7l-4.6-11.3
			c-0.1-0.3-0.3-0.8-0.4-1.5h0c0.1,0.6,0.1,1.6,0.1,3v9.8h-2.3v-15.3h3.6l4,10.2c0.3,0.8,0.5,1.4,0.6,1.7h0.1
			c0.3-0.8,0.5-1.4,0.6-1.8l4.1-10.1h3.4L1088.8,2182.1z M1092.3,2182.1v-10.9h2.5v10.9H1092.3z M1093.5,2168.9
			c-0.4,0-0.8-0.1-1-0.4c-0.3-0.3-0.4-0.6-0.4-1c0-0.4,0.1-0.7,0.4-1c0.3-0.3,0.6-0.4,1-0.4c0.4,0,0.8,0.1,1.1,0.4
			c0.3,0.3,0.4,0.6,0.4,1c0,0.4-0.1,0.7-0.4,1C1094.3,2168.8,1094,2168.9,1093.5,2168.9z M1105.8,2181.6c-0.9,0.5-1.9,0.8-3.1,0.8
			c-1.6,0-2.9-0.5-3.9-1.5c-1-1-1.5-2.3-1.5-3.9c0-1.8,0.5-3.2,1.6-4.3c1.1-1.1,2.5-1.6,4.3-1.6c1,0,1.9,0.2,2.6,0.5v2.3
			c-0.8-0.6-1.6-0.9-2.4-0.9c-1,0-1.9,0.4-2.6,1.1c-0.7,0.7-1,1.6-1,2.8c0,1.1,0.3,2,0.9,2.7c0.6,0.7,1.5,1,2.5,1
			c0.9,0,1.7-0.3,2.5-0.9L1105.8,2181.6z M1114.6,2173.6c-0.3-0.2-0.7-0.4-1.3-0.4c-0.7,0-1.3,0.3-1.8,1c-0.5,0.7-0.7,1.6-0.7,2.7
			v5.2h-2.5v-10.9h2.5v2.2h0c0.2-0.8,0.6-1.4,1.1-1.8c0.5-0.4,1.1-0.6,1.7-0.6c0.4,0,0.8,0.1,1,0.2L1114.6,2173.6z M1121.2,2182.4
			c-1.7,0-3-0.5-4-1.5c-1-1-1.5-2.4-1.5-4c0-1.8,0.5-3.3,1.6-4.3c1-1,2.5-1.5,4.2-1.5c1.7,0,3,0.5,4,1.5c1,1,1.4,2.4,1.4,4.2
			c0,1.7-0.5,3.1-1.5,4.2C1124.3,2181.9,1122.9,2182.4,1121.2,2182.4z M1128.7,2181.8v-2.3c0.9,0.7,1.9,1.1,3.1,1.1
			c1.5,0,2.2-0.4,2.2-1.3c0-0.2-0.1-0.5-0.2-0.6c-0.1-0.2-0.3-0.3-0.5-0.5c-0.2-0.1-0.5-0.3-0.8-0.4c-0.3-0.1-0.6-0.2-1-0.4
			c-0.4-0.2-0.8-0.4-1.2-0.6c-0.4-0.2-0.7-0.4-0.9-0.7c-0.2-0.3-0.4-0.5-0.5-0.9c-0.1-0.3-0.2-0.7-0.2-1.1c0-0.5,0.1-1,0.4-1.4
			c0.2-0.4,0.6-0.7,1-1c0.4-0.3,0.9-0.5,1.4-0.6c0.5-0.1,1.1-0.2,1.6-0.2c1,0,1.9,0.2,2.7,0.5v2.2c-0.8-0.5-1.6-0.8-2.6-0.8
			c-0.3,0-0.6,0-0.8,0.1c-0.3,0.1-0.5,0.2-0.6,0.3c-0.2,0.1-0.3,0.2-0.4,0.4c-0.1,0.2-0.1,0.3-0.1,0.5c0,0.2,0,0.4,0.1,0.6
			c0.1,0.2,0.2,0.3,0.4,0.4c0.2,0.1,0.4,0.2,0.7,0.3c0.3,0.1,0.6,0.2,0.9,0.3c0.5,0.2,0.9,0.4,1.3,0.6c0.4,0.2,0.7,0.4,1,0.7
			c0.3,0.3,0.5,0.5,0.6,0.9c0.1,0.3,0.2,0.7,0.2,1.2c0,0.6-0.1,1-0.4,1.4c-0.3,0.4-0.6,0.8-1,1c-0.4,0.3-0.9,0.5-1.5,0.6
			c-0.6,0.1-1.1,0.2-1.8,0.2C1130.6,2182.4,1129.5,2182.2,1128.7,2181.8z M1143.6,2182.4c-1.7,0-3-0.5-4-1.5c-1-1-1.5-2.4-1.5-4
			c0-1.8,0.5-3.3,1.6-4.3c1-1,2.5-1.5,4.2-1.5c1.7,0,3,0.5,4,1.5c1,1,1.4,2.4,1.4,4.2c0,1.7-0.5,3.1-1.5,4.2
			C1146.7,2181.9,1145.3,2182.4,1143.6,2182.4z M1157.9,2168c-0.3-0.2-0.7-0.3-1.1-0.3c-1.2,0-1.8,0.7-1.8,2v1.5h2.5v1.9h-2.5v9
			h-2.5v-9h-1.9v-1.9h1.9v-1.8c0-1.1,0.4-2.1,1.1-2.7c0.8-0.7,1.7-1,2.8-1c0.6,0,1.1,0.1,1.4,0.2V2168z M1165.1,2182
			c-0.5,0.2-1.1,0.4-1.9,0.4c-2.1,0-3.2-1-3.2-3v-6.2h-1.8v-1.9h1.8v-2.5l2.5-0.7v3.2h2.6v1.9h-2.6v5.4c0,0.6,0.1,1.1,0.4,1.4
			c0.2,0.3,0.6,0.4,1.2,0.4c0.4,0,0.8-0.1,1.1-0.4V2182z M1186,2182.1h-2.8l-1.4-3.9h-6l-1.3,3.9h-2.8l5.7-15.3h2.9L1186,2182.1z
			 M1195.9,2172.3l-5.9,7.9h5.9v1.9h-9.3v-0.9l6-8h-5.4v-1.9h8.8V2172.3z M1207.5,2182.1h-2.5v-1.7h0c-0.7,1.3-1.8,2-3.3,2
			c-2.6,0-3.9-1.5-3.9-4.6v-6.5h2.5v6.3c0,2,0.8,2.9,2.3,2.9c0.7,0,1.3-0.3,1.8-0.8c0.5-0.5,0.7-1.2,0.7-2.1v-6.3h2.5L1207.5,2182.1
			z M1217,2173.6c-0.3-0.2-0.7-0.4-1.3-0.4c-0.7,0-1.3,0.3-1.8,1c-0.5,0.7-0.7,1.6-0.7,2.7v5.2h-2.5v-10.9h2.5v2.2h0
			c0.2-0.8,0.6-1.4,1.1-1.8c0.5-0.4,1.1-0.6,1.7-0.6c0.4,0,0.8,0.1,1,0.2L1217,2173.6z M1228,2177.3h-7.4c0,1,0.3,1.8,0.9,2.3
			c0.6,0.5,1.4,0.8,2.4,0.8c1.2,0,2.2-0.3,3.2-1v2c-1,0.6-2.3,0.9-3.9,0.9c-1.6,0-2.9-0.5-3.8-1.5c-0.9-1-1.4-2.4-1.4-4.2
			c0-1.7,0.5-3.1,1.5-4.1c1-1.1,2.2-1.6,3.7-1.6s2.6,0.5,3.5,1.4c0.8,1,1.2,2.3,1.2,4L1228,2177.3z M1225.6,2175.6
			c0-0.9-0.2-1.6-0.6-2.1c-0.4-0.5-1-0.7-1.7-0.7c-0.7,0-1.3,0.3-1.8,0.8c-0.5,0.5-0.8,1.2-0.9,2L1225.6,2175.6L1225.6,2175.6z
			 M1181.2,2176.2l-2.1-6.1c-0.1-0.2-0.1-0.5-0.2-1h0c-0.1,0.4-0.1,0.7-0.2,1l-2.1,6.1H1181.2z M1143.7,2172.9c-1,0-1.7,0.3-2.3,1
			c-0.6,0.7-0.8,1.6-0.8,2.8c0,1.1,0.3,2,0.9,2.7c0.6,0.7,1.3,1,2.3,1c1,0,1.7-0.3,2.2-1c0.5-0.6,0.8-1.6,0.8-2.8
			c0-1.2-0.3-2.1-0.8-2.8C1145.4,2173.3,1144.7,2172.9,1143.7,2172.9z M1121.3,2172.9c-1,0-1.7,0.3-2.3,1c-0.6,0.7-0.8,1.6-0.8,2.8
			c0,1.1,0.3,2,0.9,2.7c0.6,0.7,1.3,1,2.3,1c1,0,1.7-0.3,2.2-1c0.5-0.6,0.8-1.6,0.8-2.8c0-1.2-0.3-2.1-0.8-2.8
			C1123,2173.3,1122.3,2172.9,1121.3,2172.9z"/>
	</g>
</g>
</svg>
