<?xml version="1.0" encoding="utf-8"?>
<!-- Generator: Adobe Illustrator 21.0.0, SVG Export Plug-In . SVG Version: 6.00 Build 0)  -->
<svg version="1.1" id="Layer_1" xmlns="http://www.w3.org/2000/svg" xmlns:xlink="http://www.w3.org/1999/xlink" x="0px" y="0px"
	 viewBox="0 0 140 54" style="enable-background:new 0 0 140 54;" xml:space="preserve">
<style type="text/css">
	.st0{fill:#AAB2B9;}
</style>
<title>AWS</title>
<desc>Created with Sketch.</desc>
<g id="Page-1">
	<g id="_x30_2-Features" transform="translate(-735.000000, -2030.000000)">
		<path id="AWS" class="st0" d="M826.2,2076.9c0-0.5-0.1-1-0.3-1.4c-0.2-0.4-0.4-0.8-0.8-1c-0.4-0.3-0.9-0.4-1.4-0.4
			c-0.7,0-1.4,0.3-1.9,0.8c-0.5,0.5-0.8,1.2-0.9,2.1H826.2z M863.5,2076.9c0-0.5-0.1-1-0.3-1.4c-0.2-0.4-0.4-0.8-0.8-1
			c-0.4-0.3-0.9-0.4-1.4-0.4c-0.7,0-1.4,0.3-1.9,0.8c-0.5,0.5-0.8,1.2-0.9,2.1H863.5z M783.1,2082.6l0.2,0.8h1.2l2.7-9.5h-0.4
			l0.2-0.7h-1.2l-2.1,7l-1.9-6.3h-0.1l-0.2-0.7h-1.1l-1.9,6.7l-1.7-6.1h-0.2l-0.2-0.7h-1.5l2.9,9.4h0.1l0.2,0.8h1.2l1.9-6.9
			L783.1,2082.6L783.1,2082.6z M752.8,2081l-8.3-2.8v-11.4l8.3,2.7V2081z M754,2081v-11.6l8.3-2.7v11.4L754,2081z M745.7,2065.4
			l8-2.2l7.4,2.3l-7.4,2.4L745.7,2065.4z M735,2061.6v-11.4l8.3,2.7v11.6L735,2061.6z M744.5,2064.4v-11.6l8.3-2.7v11.4
			L744.5,2064.4z M736.2,2048.8l8-2.2l7.4,2.3l-7.4,2.4L736.2,2048.8z M762.3,2064.4l-8.3-2.8v-11.4l8.3,2.7V2064.4z M763.5,2064.4
			v-11.6l8.3-2.7v11.4L763.5,2064.4z M755.2,2048.8l8-2.2l7.4,2.3l-7.4,2.4L755.2,2048.8z M771.8,2047.8l-8.3-2.8v-11.4l8.3,2.7
			V2047.8z M773,2047.8v-11.6l8.3-2.7v11.4L773,2047.8z M772.7,2030l7.4,2.3l-7.4,2.4l-8-2.6L772.7,2030z M790.8,2047.8l-8.3-2.8
			v-11.4l8.3,2.7V2047.8z M791.9,2047.8v-11.6l8.3-2.7v11.4L791.9,2047.8z M791.6,2030l7.4,2.3l-7.4,2.4l-8-2.6L791.6,2030z
			 M794.7,2079.8l1.4,0.3c-0.3,0.8-0.7,1.5-1.5,2c-0.7,0.5-1.6,0.8-2.6,0.8c-1.3,0-2.4-0.5-3.2-1.4c-0.8-0.9-1.2-2.1-1.2-3.6
			c0-1.5,0.4-2.7,1.3-3.6c0.8-0.9,1.9-1.4,3.2-1.4c1.2,0,2.3,0.4,3,1.3c0.8,0.8,1.1,2.1,1.2,3.8h-6.9c0,1.4,0.3,2.4,0.9,2.9
			c0.6,0.5,1.2,0.7,1.9,0.7C793.3,2081.7,794.2,2081,794.7,2079.8z M798.9,2082.6h-0.7v-12.7h1.5v4.9c0.7-1.2,1.6-1.8,2.8-1.8
			c1.1,0,2,0.4,2.8,1.3c0.7,0.9,1.1,2.1,1.1,3.7c0,1.4-0.4,2.6-1.1,3.5c-0.7,0.9-1.7,1.4-2.8,1.4c-1.3,0-2.3-0.6-3-1.8L798.9,2082.6
			z M810.1,2080.2l1.4-0.3c0.3,1.2,1.3,1.8,3,1.8c0.6,0,1.1-0.1,1.6-0.4c0.4-0.3,0.6-0.7,0.6-1.2c0-0.7-0.5-1.2-1.6-1.4l-2-0.4
			c-0.8-0.1-1.4-0.4-1.9-0.9c-0.5-0.4-0.7-1-0.7-1.7c0-0.8,0.3-1.4,1-2c0.6-0.5,1.5-0.8,2.6-0.8c2.1,0,3.4,0.8,3.8,2.4l-1.4,0.3
			c-0.4-1-1.2-1.5-2.4-1.5c-0.6,0-1.1,0.1-1.5,0.4c-0.4,0.2-0.6,0.6-0.6,1c0,0.7,0.5,1.1,1.5,1.3l1.9,0.3c1.9,0.3,2.9,1.3,2.9,2.8
			c0,0.9-0.4,1.6-1.1,2.1c-0.7,0.5-1.7,0.8-2.9,0.8C812.1,2082.9,810.7,2082,810.1,2080.2z M826.2,2079.8l1.4,0.3
			c-0.3,0.8-0.7,1.5-1.5,2c-0.7,0.5-1.6,0.8-2.6,0.8c-1.3,0-2.4-0.5-3.2-1.4c-0.8-0.9-1.2-2.1-1.2-3.6c0-1.5,0.4-2.7,1.3-3.6
			c0.8-0.9,1.9-1.4,3.2-1.4c1.2,0,2.3,0.4,3,1.3c0.8,0.8,1.1,2.1,1.2,3.8h-6.9c0,1.4,0.3,2.4,0.9,2.9c0.6,0.5,1.2,0.7,1.9,0.7
			C824.9,2081.7,825.7,2081,826.2,2079.8z M830.9,2082.6h-1.5v-9.4h1.3v2.2c0.5-1,0.9-1.7,1.4-2c0.5-0.3,0.9-0.5,1.4-0.5
			c0.2,0,0.3,0,0.6,0v1.4h-0.3c-0.8,0-1.5,0.3-2,0.9c-0.5,0.6-0.8,1.4-0.9,2.4V2082.6z M843.3,2073.2l-3.3,9.4h-1.5l-3.4-9.4h1.6
			l2.7,7.6l2.6-7.6H843.3z M844.6,2082.6v-9.4h1.5v9.4H844.6z M844.5,2071.5v-1.6h1.6v1.6H844.5z M853.9,2079.3l1.3,0.2
			c-0.2,1-0.6,1.9-1.3,2.4c-0.6,0.6-1.5,0.9-2.4,0.9c-1.3,0-2.3-0.5-3-1.4c-0.7-1-1-2.1-1-3.5c0-1.4,0.4-2.6,1.1-3.6
			c0.7-0.9,1.7-1.4,3-1.4c1,0,1.9,0.3,2.5,0.9c0.6,0.6,1,1.4,1.2,2.4l-1.3,0.3c-0.3-1.5-1-2.3-2.3-2.3c-0.8,0-1.4,0.3-1.9,1
			c-0.4,0.7-0.7,1.6-0.7,2.7c0,1.2,0.2,2.1,0.7,2.8c0.4,0.7,1.1,1,1.8,1C852.8,2081.7,853.5,2080.9,853.9,2079.3z M863.6,2079.8
			l1.4,0.3c-0.3,0.8-0.7,1.5-1.5,2c-0.7,0.5-1.6,0.8-2.6,0.8c-1.3,0-2.4-0.5-3.2-1.4c-0.8-0.9-1.2-2.1-1.2-3.6
			c0-1.5,0.4-2.7,1.3-3.6c0.8-0.9,1.9-1.4,3.2-1.4c1.2,0,2.3,0.4,3,1.3c0.8,0.8,1.1,2.1,1.2,3.8h-6.9c0,1.4,0.3,2.4,0.9,2.9
			c0.6,0.5,1.2,0.7,1.9,0.7C862.3,2081.7,863.1,2081,863.6,2079.8z M866,2080.2l1.4-0.3c0.3,1.2,1.3,1.8,3,1.8
			c0.6,0,1.1-0.1,1.6-0.4c0.4-0.3,0.6-0.7,0.6-1.2c0-0.7-0.5-1.2-1.6-1.4l-2-0.4c-0.8-0.1-1.4-0.4-1.9-0.9c-0.5-0.4-0.7-1-0.7-1.7
			c0-0.8,0.3-1.4,1-2c0.6-0.5,1.5-0.8,2.6-0.8c2.1,0,3.4,0.8,3.8,2.4l-1.4,0.3c-0.4-1-1.2-1.5-2.4-1.5c-0.6,0-1.1,0.1-1.5,0.4
			c-0.4,0.2-0.6,0.6-0.6,1c0,0.7,0.5,1.1,1.5,1.3l1.9,0.3c1.9,0.3,2.9,1.3,2.9,2.8c0,0.9-0.4,1.6-1.1,2.1c-0.7,0.5-1.7,0.8-2.9,0.8
			C867.9,2082.9,866.5,2082,866,2080.2z M832.4,2053.1v-2.3c0-0.3,0.3-0.6,0.6-0.6l10.3,0c0.3,0,0.6,0.2,0.6,0.6l0,1.9
			c0,0.3-0.3,0.7-0.8,1.4l-5.3,7.5c2,0,4.1,0.2,5.9,1.2c0.4,0.2,0.5,0.6,0.5,0.9v2.4c0,0.3-0.4,0.7-0.8,0.5c-3.2-1.6-7.4-1.8-10.9,0
			c-0.4,0.2-0.7-0.2-0.7-0.5v-2.3c0-0.4,0-1,0.4-1.6l6.2-8.7l-5.4,0C832.7,2053.7,832.4,2053.5,832.4,2053.1z M795.6,2067.2h-3.1
			c-0.3,0-0.5-0.2-0.6-0.5l0-15.8c0-0.3,0.3-0.6,0.6-0.6l2.9,0c0.3,0,0.6,0.2,0.6,0.5v2.1h0.1c0.8-2,2.2-2.9,4.1-2.9
			c2,0,3.2,0.9,4.1,2.9c0.8-2,2.5-2.9,4.3-2.9c1.3,0,2.7,0.5,3.6,1.7c1,1.3,0.8,3.3,0.8,5l0,10c0,0.3-0.3,0.6-0.6,0.6h-3.1
			c-0.3,0-0.6-0.3-0.6-0.6l0-8.4c0-0.7,0.1-2.3-0.1-3c-0.2-1.1-0.9-1.4-1.8-1.4c-0.8,0-1.6,0.5-1.9,1.3c-0.3,0.8-0.3,2.1-0.3,3v8.4
			c0,0.3-0.3,0.6-0.6,0.6h-3.1c-0.3,0-0.6-0.3-0.6-0.6l0-8.4c0-1.8,0.3-4.4-1.9-4.4c-2.3,0-2.2,2.5-2.2,4.4l0,8.4
			C796.2,2067,795.9,2067.2,795.6,2067.2z M851.5,2050c4.6,0,7.1,3.9,7.1,8.9c0,4.8-2.8,8.6-7.1,8.6c-4.5,0-7-3.9-7-8.8
			C844.5,2053.8,847,2050,851.5,2050z M865.2,2067.2h-3.1c-0.3,0-0.6-0.3-0.6-0.6l0-15.8c0-0.3,0.3-0.5,0.6-0.5l2.9,0
			c0.3,0,0.5,0.2,0.6,0.4v2.4h0.1c0.9-2.2,2.1-3.2,4.3-3.2c1.4,0,2.8,0.5,3.7,1.9c0.8,1.3,0.8,3.4,0.8,4.9v9.9
			c0,0.3-0.3,0.5-0.6,0.5h-3.1c-0.3,0-0.5-0.2-0.6-0.5v-8.6c0-1.7,0.2-4.3-2-4.3c-0.8,0-1.5,0.5-1.8,1.3c-0.4,1-0.5,1.9-0.5,3v8.5
			C865.8,2067,865.6,2067.2,865.2,2067.2z M827.7,2067.2c-0.2,0.2-0.5,0.2-0.7,0.1c-1-0.8-1.2-1.2-1.8-2.1c-1.7,1.7-2.9,2.2-5.2,2.2
			c-2.6,0-4.7-1.6-4.7-4.8c0-2.5,1.4-4.2,3.3-5c1.7-0.7,4.1-0.9,5.9-1.1v-0.4c0-0.7,0.1-1.6-0.4-2.2c-0.4-0.6-1.1-0.8-1.8-0.8
			c-1.2,0-2.3,0.6-2.5,1.8c-0.1,0.3-0.3,0.6-0.5,0.6l-3-0.3c-0.3-0.1-0.5-0.3-0.5-0.6c0.7-3.6,4-4.7,7-4.7c1.5,0,3.5,0.4,4.7,1.5
			c1.5,1.4,1.4,3.3,1.4,5.3v4.8c0,1.4,0.6,2.1,1.2,2.9c0.2,0.3,0.2,0.6,0,0.8C829.5,2065.7,828.4,2066.7,827.7,2067.2L827.7,2067.2z
			 M787,2067.2c-0.2,0.2-0.5,0.2-0.7,0.1c-1-0.8-1.2-1.2-1.8-2.1c-1.7,1.7-2.9,2.2-5.2,2.2c-2.6,0-4.7-1.6-4.7-4.8
			c0-2.5,1.4-4.2,3.3-5c1.7-0.7,4.1-0.9,5.9-1.1v-0.4c0-0.7,0.1-1.6-0.4-2.2c-0.4-0.6-1.1-0.8-1.8-0.8c-1.2,0-2.3,0.6-2.5,1.8
			c-0.1,0.3-0.3,0.6-0.5,0.6l-3-0.3c-0.3-0.1-0.5-0.3-0.5-0.6c0.7-3.6,4-4.7,7-4.7c1.5,0,3.5,0.4,4.7,1.5c1.5,1.4,1.4,3.3,1.4,5.3
			v4.8c0,1.4,0.6,2.1,1.2,2.9c0.2,0.3,0.2,0.6,0,0.8C788.8,2065.7,787.6,2066.7,787,2067.2L787,2067.2z M783.9,2059.7v-0.7
			c-2.3,0-4.7,0.5-4.7,3.1c0,1.3,0.7,2.2,1.9,2.2c0.9,0,1.7-0.5,2.2-1.4C783.9,2061.9,783.9,2060.9,783.9,2059.7z M824.6,2059.7
			v-0.7c-2.3,0-4.7,0.5-4.7,3.1c0,1.3,0.7,2.2,1.9,2.2c0.9,0,1.7-0.5,2.2-1.4C824.6,2061.9,824.6,2060.9,824.6,2059.7z
			 M851.5,2053.6c-2.3,0-2.4,3.1-2.4,5c0,1.9,0,5.6,2.4,5.6c2.4,0,2.5-2.9,2.5-4.9c0-1.3-0.1-2.9-0.5-4.2
			C853.2,2054.1,852.5,2053.6,851.5,2053.6z M794.6,2076.9c0-0.5-0.1-1-0.3-1.4c-0.2-0.4-0.4-0.8-0.8-1c-0.4-0.3-0.9-0.4-1.4-0.4
			c-0.7,0-1.4,0.3-1.9,0.8c-0.5,0.5-0.8,1.2-0.9,2.1H794.6z M799.6,2078.9c0.1,1,0.4,1.7,0.9,2.1c0.5,0.4,1.1,0.7,1.7,0.7
			c0.8,0,1.4-0.3,1.8-1c0.5-0.6,0.7-1.5,0.7-2.7c0-1.2-0.2-2.2-0.7-2.9c-0.4-0.7-1.1-1-1.9-1c-0.6,0-1.2,0.2-1.7,0.7
			c-0.5,0.5-0.8,1.1-0.9,1.9V2078.9z"/>
	</g>
</g>
</svg>
