<svg id="Layer_1" xmlns="http://www.w3.org/2000/svg" viewBox="0 0 180 46">
  <style>
    .st0{fill:#AAB2B9;}
  </style>
  <title>
    Combined Shape
  </title>
  <g id="Page-1">
    <g id="_x30_2-Features">
      <path id="Combined-Shape" class="st0" d="M40 0l1 .6 1.7 1-2.8 1.6L40 0zM17.1 6.6v3.2l5.7 14.7.8-2.1 2-1.2v-4.1l2.9-7.5V6.5s3.5-2.1 5-2.9c1.1-.6 3.5-2 3.5-2s-2.4 1.4-3.5 2c-1.4.8-5 2.9-5 2.9l2.8 1.6 2.8-1.6 2.8 1.6 8.6-4.9s-.8.5 0 0c-.3-.3-2.9-1.6-2.9-1.6l-1.4.8 1.4-.8s2.6 1.4 2.9 1.6v3.3L31.2 40.8l-8.6 4.9-8.6-4.9-8.6-20.6v-3.9L3.2 15-.4 6.5V3.2L5.3-.1l11.8 6.7L5.7 0 0 3.3l11.4 6.5 5.7-3.2zm20-5zM5.7 9.8V6.5L2.8 8.1l2.9 1.7zm5.7 3.3l2.9 1.6v-3.3l-2.9 1.7zm2.9 11.4l-2.9-1.7-2.9 1.6 2.9 1.7 2.9-1.6zM20 40.8l2.9 1.7v-3.4L20 40.8zm2.9-8.2L20 34.2l2.9 1.7 2.9-1.7-2.9-1.6zm8.5-17.9l2.8 1.6 2.9-1.6-2.9-1.7-2.8 1.7zm-2.8 21.2v3.3l2.9-1.7-2.9-1.6zm143-3.8V14.9h-5.9v-2.2H180v2.2h-5.9v17.2h-2.5zm-12.4 0l-8.5-16.5v16.5h-2.4V12.7h3.5l8.5 16.6V12.7h2.4v19.4h-3.5zm-20.9-19.4l6.6 19.4h-2.6l-1.6-4.7h-8.3l-1.6 4.7h-2.6l6.6-19.4h3.5zm1.8 12.5l-3.5-10.8-3.5 10.8h7zm-16.8 6.9l-4.9-7h-4.8v7H111V12.7h7.5c4.2 0 5.7 1.8 5.7 4.8v2.8c0 2.3-.9 3.9-3.1 4.5l5.1 7.3h-2.9zm-1.6-14.6c0-1.9-.8-2.6-3.2-2.6h-4.9v7.9h4.9c2.4 0 3.2-.7 3.2-2.6v-2.7zm-25.6.7v8.3c0 2.5.7 3.6 4.1 3.6 1 0 2.3-.1 3.7-.4v-6.6h2.4v8.4c-1.9.6-4.2.8-6.2.8-5 0-6.5-2.1-6.5-5.7v-8.5c0-3.9 2-5.7 6.9-5.7 1.7 0 3.6.2 5.5.6l-.3 2.2c-1.9-.3-3.7-.5-5.3-.5-3.3 0-4.3.9-4.3 3.5zm-11.8-5.5l6.6 19.4h-2.6l-1.6-4.7h-8.3l-1.6 4.7h-2.6l6.6-19.4h3.5zm1.8 12.5l-3.5-10.8-3.5 10.8h7zm-21.5 6.9l-6.5-19.4h2.4l5.7 17.2 5.7-17.2h2.4l-6.5 19.4h-3.2z"/>
    </g>
  </g>
</svg>
