<svg xmlns="http://www.w3.org/2000/svg" width="360" height="83" viewBox="-90.2 -20 360 82.9"><style>.a{fill:#AAB2B9;}</style><title>  Docker Logo</title><desc>  Created with Sketch.</desc><path d="M-67.1 46.9c-3.3 0-6.3-2.7-6.3-6 0-3.3 2.7-6 6.3-6 3.6 0 6.3 2.7 6.3 6C-60.8 44.2-63.8 46.9-67.1 46.9L-67.1 46.9zM9.9 14.3C9.3 9.6 6.3 5.7 2.5 2.7L1 1.5 -0.2 3c-2.4 2.7-3.3 7.5-3 11 0.3 2.7 1.2 5.4 2.7 7.5 -1.2 0.6-2.7 1.2-3.9 1.8 -2.7 0.9-5.4 1.2-8.1 1.2h-77.3l-0.3 1.8c-0.6 5.7 0.3 11.6 2.7 17l1.2 2.1v0.3c7.2 11.9 20 17.3 34 17.3 26.9 0 48.9-11.6 59.4-36.7 6.9 0.3 13.7-1.5 17-8.1l0.9-1.5 -1.5-0.9C19.8 13.4 14.4 13.1 9.9 14.3L9.9 14.3zM-28.6 9.6h-11.6v11.6h11.6V9.6zM-28.6-5.1h-11.6V6.6h11.6V-5.1zM-28.6-20h-11.6v11.6h11.6V-20zM-14.3 9.6h-11.6v11.6h11.6V9.6zM-57.5 9.6h-11.6v11.6h11.6V9.6zM-42.9 9.6h-11.6v11.6H-42.9V9.6zM-71.8 9.6h-11.6v11.6h11.6V9.6L-71.8 9.6zM-42.9-5.1h-11.6V6.6H-42.9V-5.1zM-57.5-5.1h-11.6V6.6h11.6V-5.1z" class="a"/><path d="M211 39.7c5.1-4.5 10.1-8.7 15.2-13.1 1.8-1.5 3.6-3 5.4-4.8 -1.5-1.8-3.6-3-5.7-3.9 -3.9-1.5-7.8-0.9-11.6 1.2 -4.8 2.7-6.9 7.2-6.6 12.5 0 2.1 0.6 4.2 1.8 6C210.4 38.5 210.7 39.1 211 39.7L211 39.7zM217 43.9c2.4 0.9 5.4 0.9 8.1 0.3 1.2-0.6 4.8-2.1 6-1.8h0.3 0.3c0.9 0.3 1.5 0.9 1.8 1.8 0.9 1.8 0.6 3.6-1.2 4.5l-0.6 0.3c-6.6 3.9-13.4 3.3-20-0.3 -3-1.8-5.4-4.2-7.2-7.2l-0.3-0.6c-4.2-7.2-3.6-14.9 1.2-21.8 1.5-2.4 3.9-4.2 6.3-5.7l0.9-0.6c6.3-3.6 12.8-3.3 19.1-0.3 3.3 1.8 6.3 4.2 8.1 7.5l0.3 0.6c1.5 2.4-0.3 4.5-2.4 6 -2.1 1.8-4.2 3.6-6.3 5.4C225.9 36.1 221.4 40 217 43.9zM265.6 11.1h0.6c2.1 0 3.6 1.5 3.6 3.6 0 3-2.7 3.6-5.1 3.6 -3 0-6 1.8-8.1 3.9 -2.7 2.7-3.9 6-3.9 9.5v16.7c0 1.8-1.2 3.6-3.3 3.6h-0.6c-2.1 0-3.3-1.5-3.3-3.6V30.7c0-6.9 3.3-12.2 8.7-16.1C258.1 12.3 261.7 11.1 265.6 11.1zM180.3 22.7c2.7-2.7 5.4-5.4 8.1-8.1 0.9-0.6 3.6-3.9 4.8-3.9h1.2l0 0c1.5 0.3 2.7 1.2 2.7 3v0.6c0 1.2-1.5 2.4-2.1 3.3 -1.5 1.8-3.3 3.3-4.8 5.1l-8.4 8.4c3.6 3.6 7.2 7.2 10.7 10.7 0.9 0.9 2.1 2.1 3 3 0.3 0.3 0.9 0.9 1.2 1.2 0.3 0.6 0.6 0.9 0.6 1.5v0.6 0.3c-0.3 1.5-1.5 2.7-3 2.7H193.7c-1.2 0-2.4-1.2-3.3-2.1 -1.5-1.5-3.3-3-4.8-4.8l-5.4-5.1v8.4c0 1.8-1.2 3.6-3.3 3.6h-0.6c-2.1 0-3.3-1.5-3.3-3.6V1.5c0-1.8 1.2-3.3 3.3-3.3h0.6c2.1 0 3.3 1.5 3.3 3.3V22.7L180.3 22.7zM158.2 18.2c-0.9-0.6-3-0.6-4.2-0.6 -5.7-0.3-9.8 3-12.2 8.1 -0.9 1.8-1.2 3.6-1.2 5.7 0 6 3 10.1 8.4 12.5 1.8 0.9 4.5 1.2 6.6 1.2 1.8 0 4.5-1.2 6-1.8h0.3 1.2l0 0c1.5 0.3 2.7 1.2 2.7 3v0.6c0 4.2-7.8 5.1-10.4 5.4 -10.1 0.6-17.9-5.1-20.9-14.6 -0.6-1.8-0.6-3.3-0.6-5.1v-1.5c0-7.5 3.6-13.4 10.1-17 3-1.8 6.3-2.7 9.8-2.7h1.5c3.6 0 7.2 0.9 10.1 3l0.3 0.3 0.3 0.3c0.3 0.6 0.6 1.2 0.6 1.8v0.6c0 1.8-1.2 2.7-3 3l0 0h-0.3C161.2 19.7 158.8 18.5 158.2 18.2zM95.5 31c0 5.1 2.7 9 6.9 11.6 2.1 1.2 4.5 1.8 6.9 1.8 5.1 0 9-2.7 11.6-6.9 1.2-2.1 1.8-4.5 1.8-6.9 0-4.8-2.4-8.7-6.3-11.3 -2.1-1.5-4.8-2.1-7.2-2.1 -5.7 0-9.8 3-12.2 8.1C95.5 27.5 95.5 29.3 95.5 31zM108.1 10.8h0.9c8.1 0 14 3.9 17.9 10.7 1.5 2.7 2.4 5.7 2.4 9v1.5c0 7.5-3.6 13.4-10.1 17 -3 1.8-6.3 2.7-9.8 2.7h-1.5c-7.5 0-13.4-3.6-17-10.1 -1.8-3-2.7-6.3-2.7-9.8v-1.5c0-7.5 3.6-13.4 10.1-17C101.5 11.7 104.5 10.8 108.1 10.8zM50.2 31c0 5.4 2.7 9.6 7.5 11.9 1.8 0.9 3.9 1.5 6.3 1.5 5.4 0 9.2-2.4 11.9-6.9 1.2-2.1 1.8-4.5 1.8-6.9 0-4.8-2.1-8.4-6-11 -2.4-1.5-4.8-2.4-7.8-2.4 -5.7 0-9.8 3-12.2 8.1C50.8 27.5 50.2 29.3 50.2 31zM77.6 15.8V1.2c0-1.8 1.2-3.6 3.3-3.6h0.6c2.1 0 3.3 1.5 3.3 3.6v30.7c0 7.5-3.6 13.4-10.1 17 -3 1.8-6.3 2.7-9.8 2.7h-1.5c-7.5 0-13.4-3.6-17-10.1 -1.8-3-2.7-6.3-2.7-9.8v-1.5c0-7.5 3.6-13.4 10.1-17 3-1.8 6.3-2.7 9.8-2.7h1.5C69.6 10.8 74.1 12.5 77.6 15.8z" class="a"/></svg>
