<svg xmlns="http://www.w3.org/2000/svg" viewBox="0 0 141.8 54.68"><defs><style>.a{opacity:0.75;}.b,.c{fill:#b2b2b2;}.b{fill-rule:evenodd;}</style></defs><title>logo_github</title><g class="a"><polygon class="b" points="18.26 52.64 9.93 49.65 9.93 37.43 18.26 40.27 18.26 52.64"/><polygon class="b" points="19.79 52.64 28.13 49.65 28.13 37.43 19.79 40.27 19.79 52.64"/><polygon class="b" points="10.78 36.51 19.22 34.14 27.04 36.66 19.22 39.32 10.78 36.51"/><polygon class="b" points="8.34 35.57 0 32.58 0 20.36 8.34 23.2 8.34 35.57"/><polygon class="b" points="9.87 35.57 18.2 32.58 18.2 20.36 9.87 23.2 9.87 35.57"/><polygon class="b" points="0.86 19.44 9.29 17.07 17.12 19.59 9.29 22.25 0.86 19.44"/><polygon class="b" points="27.79 35.57 19.45 32.58 19.45 20.36 27.79 23.2 27.79 35.57"/><polygon class="b" points="29.32 35.57 37.65 32.58 37.65 20.36 29.32 23.2 29.32 35.57"/><polygon class="b" points="20.31 19.44 28.75 17.07 36.57 19.59 28.75 22.25 20.31 19.44"/><polygon class="b" points="37.71 18.5 29.38 15.51 29.38 3.29 37.71 6.13 37.71 18.5"/><polygon class="b" points="39.24 18.5 47.58 15.51 47.58 3.29 39.24 6.13 39.24 18.5"/><polygon class="b" points="30.23 2.38 38.67 0 46.49 2.52 38.67 5.18 30.23 2.38"/><polygon class="b" points="57.16 18.5 48.83 15.51 48.83 3.29 57.16 6.13 57.16 18.5"/><polygon class="b" points="58.69 18.5 67.03 15.51 67.03 3.29 58.69 6.13 58.69 18.5"/><polygon class="b" points="49.69 2.38 58.12 0 65.94 2.52 58.12 5.18 49.69 2.38"/><path class="c" d="M1116.89,3278.43l-2.8,9.73h-1.22l-2.18-7.23-2,7.23h-1.24l-2.91-9.73h1.5l2.12,7.25,2-7.25h1.11l2.19,7.27,2.18-7.27h1.22Z" transform="translate(-1063.97 -3233.75)"/><path class="c" d="M1124.64,3285.26l1.41,0.29a4,4,0,0,1-1.5,2.07,4.32,4.32,0,0,1-2.63.82,4.08,4.08,0,0,1-3.22-1.4,6.13,6.13,0,0,1,0-7.43,4.12,4.12,0,0,1,3.21-1.43,3.88,3.88,0,0,1,3.06,1.32,5.93,5.93,0,0,1,1.19,3.94h-7.06a3.78,3.78,0,0,0,.92,3,3,3,0,0,0,2,.77A2.67,2.67,0,0,0,1124.64,3285.26Zm-0.08-3a4.22,4.22,0,0,0-.27-1.45,2.48,2.48,0,0,0-.85-1.08,2.32,2.32,0,0,0-1.43-.45,2.55,2.55,0,0,0-1.91.81,3.35,3.35,0,0,0-.88,2.18h5.33Z" transform="translate(-1063.97 -3233.75)"/><path class="c" d="M1128.93,3288.16h-0.73V3275h1.52v5a3.17,3.17,0,0,1,2.86-1.89,3.54,3.54,0,0,1,2.8,1.32,5.75,5.75,0,0,1,1.13,3.84,5.87,5.87,0,0,1-1.11,3.64,3.46,3.46,0,0,1-2.89,1.47,3.32,3.32,0,0,1-3-1.88Zm0.79-3.81a3,3,0,0,0,.92,2.17,2.65,2.65,0,0,0,1.72.68,2.18,2.18,0,0,0,1.86-1,4.69,4.69,0,0,0,.71-2.75,5.48,5.48,0,0,0-.68-3,2.14,2.14,0,0,0-1.9-1.07,2.38,2.38,0,0,0-1.72.76,3.25,3.25,0,0,0-.91,2v2.18Z" transform="translate(-1063.97 -3233.75)"/><path class="c" d="M1140.37,3285.64l1.44-.3q0.48,1.83,3,1.83a2.89,2.89,0,0,0,1.6-.42,1.34,1.34,0,0,0,.66-1.19q0-1.14-1.67-1.45l-2-.39a3.74,3.74,0,0,1-1.92-.91,2.34,2.34,0,0,1-.71-1.78,2.58,2.58,0,0,1,1-2,3.92,3.92,0,0,1,2.62-.82q3.17,0,3.91,2.47l-1.39.3a2.37,2.37,0,0,0-2.45-1.52,2.77,2.77,0,0,0-1.52.38,1.19,1.19,0,0,0-.59,1.06q0,1.07,1.51,1.35l1.89,0.35q3,0.54,3,2.88a2.57,2.57,0,0,1-1.11,2.17,4.81,4.81,0,0,1-2.95.83Q1141.19,3288.43,1140.37,3285.64Z" transform="translate(-1063.97 -3233.75)"/><path class="c" d="M1156.76,3285.26l1.41,0.29a4,4,0,0,1-1.5,2.07,4.32,4.32,0,0,1-2.62.82,4.08,4.08,0,0,1-3.22-1.4,6.13,6.13,0,0,1,0-7.43,4.12,4.12,0,0,1,3.21-1.43,3.88,3.88,0,0,1,3.06,1.32,5.93,5.93,0,0,1,1.19,3.94h-7.06a3.78,3.78,0,0,0,.92,3,3,3,0,0,0,2,.77A2.67,2.67,0,0,0,1156.76,3285.26Zm-0.08-3a4.23,4.23,0,0,0-.27-1.45,2.48,2.48,0,0,0-.85-1.08,2.32,2.32,0,0,0-1.43-.45,2.56,2.56,0,0,0-1.91.81,3.35,3.35,0,0,0-.88,2.18h5.33Z" transform="translate(-1063.97 -3233.75)"/><path class="c" d="M1161.48,3288.16H1160v-9.73h1.33v2.27a4.83,4.83,0,0,1,1.41-2.07,2.58,2.58,0,0,1,1.45-.47l0.6,0v1.44h-0.31a2.66,2.66,0,0,0-2.08.93,3.76,3.76,0,0,0-.88,2.44v5.15Z" transform="translate(-1063.97 -3233.75)"/><path class="c" d="M1174.16,3278.43l-3.36,9.73h-1.57l-3.47-9.73h1.68l2.7,7.91,2.68-7.91h1.34Z" transform="translate(-1063.97 -3233.75)"/><path class="c" d="M1177,3275v1.68h-1.62V3275H1177Zm0,3.41v9.73h-1.52v-9.73H1177Z" transform="translate(-1063.97 -3233.75)"/><path class="c" d="M1184.87,3284.75l1.36,0.24a4.35,4.35,0,0,1-1.28,2.52,3.86,3.86,0,0,1-5.54-.57,6.1,6.1,0,0,1-1.05-3.63,5.94,5.94,0,0,1,1.11-3.69,3.59,3.59,0,0,1,3-1.47,3.45,3.45,0,0,1,2.55,1,4.26,4.26,0,0,1,1.19,2.46l-1.36.26q-0.38-2.41-2.33-2.41a2.15,2.15,0,0,0-1.92,1.06,5.08,5.08,0,0,0-.67,2.76,5.33,5.33,0,0,0,.67,2.9,2.12,2.12,0,0,0,1.88,1Q1184.37,3287.17,1184.87,3284.75Z" transform="translate(-1063.97 -3233.75)"/><path class="c" d="M1194.78,3285.26l1.41,0.29a4,4,0,0,1-1.5,2.07,4.32,4.32,0,0,1-2.62.82,4.08,4.08,0,0,1-3.22-1.4,6.13,6.13,0,0,1,0-7.43,4.12,4.12,0,0,1,3.21-1.43,3.88,3.88,0,0,1,3.06,1.32,5.93,5.93,0,0,1,1.19,3.94h-7.06a3.78,3.78,0,0,0,.92,3,3,3,0,0,0,2,.77A2.67,2.67,0,0,0,1194.78,3285.26Zm-0.08-3a4.22,4.22,0,0,0-.27-1.45,2.48,2.48,0,0,0-.85-1.08,2.32,2.32,0,0,0-1.43-.45,2.55,2.55,0,0,0-1.91.81,3.34,3.34,0,0,0-.88,2.18h5.33Z" transform="translate(-1063.97 -3233.75)"/><path class="c" d="M1197.21,3285.64l1.45-.3q0.48,1.83,3,1.83a2.89,2.89,0,0,0,1.6-.42,1.34,1.34,0,0,0,.66-1.19q0-1.14-1.67-1.45l-2-.39a3.74,3.74,0,0,1-1.92-.91,2.34,2.34,0,0,1-.71-1.78,2.58,2.58,0,0,1,1-2,3.91,3.91,0,0,1,2.62-.82q3.17,0,3.91,2.47l-1.39.3a2.37,2.37,0,0,0-2.45-1.52,2.76,2.76,0,0,0-1.51.38,1.19,1.19,0,0,0-.59,1.06q0,1.07,1.51,1.35l1.89,0.35q3,0.54,3,2.88a2.57,2.57,0,0,1-1.11,2.17,4.82,4.82,0,0,1-2.95.83Q1198,3288.43,1197.21,3285.64Z" transform="translate(-1063.97 -3233.75)"/><path class="b" d="M1163.05,3257.64v-2.34a0.58,0.58,0,0,1,.59-0.59h10.47a0.58,0.58,0,0,1,.6.59v2a3.27,3.27,0,0,1-.79,1.47l-5.42,7.75a11.61,11.61,0,0,1,6,1.28,1.07,1.07,0,0,1,.56.91v2.49a0.56,0.56,0,0,1-.77.53,12.06,12.06,0,0,0-11.07,0,0.56,0.56,0,0,1-.75-0.54v-2.37a2.82,2.82,0,0,1,.39-1.61l6.29-9h-5.47A0.58,0.58,0,0,1,1163.05,3257.64Z" transform="translate(-1063.97 -3233.75)"/><path class="b" d="M1125.57,3272.24h-3.19a0.6,0.6,0,0,1-.57-0.54v-16.35a0.6,0.6,0,0,1,.61-0.59h3a0.6,0.6,0,0,1,.58.55v2.14H1126a4.2,4.2,0,0,1,4.19-3c2,0,3.24,1,4.13,3a4.71,4.71,0,0,1,8.09-1.24c1,1.38.8,3.37,0.8,5.13v10.32a0.6,0.6,0,0,1-.61.59h-3.18a0.6,0.6,0,0,1-.57-0.59V3263a20.91,20.91,0,0,0-.09-3.06,1.66,1.66,0,0,0-1.87-1.41,2.11,2.11,0,0,0-1.9,1.34,9.89,9.89,0,0,0-.3,3.13v8.67a0.6,0.6,0,0,1-.61.59h-3.18a0.6,0.6,0,0,1-.57-0.59V3263c0-1.82.3-4.51-2-4.51s-2.2,2.62-2.2,4.51v8.67A0.6,0.6,0,0,1,1125.57,3272.24Z" transform="translate(-1063.97 -3233.75)"/><path class="b" d="M1182.42,3254.41c4.69,0,7.23,4.06,7.23,9.22,0,5-2.8,8.95-7.23,8.95-4.6,0-7.11-4.06-7.11-9.12S1177.84,3254.41,1182.42,3254.41Zm0,3.76c-2.33,0-2.48,3.2-2.48,5.2s0,5.84,2.45,5.84,2.57-3,2.57-5.12a15.24,15.24,0,0,0-.47-4.34A2,2,0,0,0,1182.44,3258.17Z" transform="translate(-1063.97 -3233.75)"/><path class="b" d="M1196.43,3272.24h-3.17a0.6,0.6,0,0,1-.57-0.59v-16.36a0.6,0.6,0,0,1,.61-0.53h3a0.61,0.61,0,0,1,.57.46v2.5h0.06c0.89-2.24,2.14-3.3,4.34-3.3a4.18,4.18,0,0,1,3.72,1.93c0.83,1.31.83,3.51,0.83,5.09v10.29a0.61,0.61,0,0,1-.61.52H1202a0.6,0.6,0,0,1-.57-0.52v-8.88c0-1.79.21-4.4-2-4.4a2.08,2.08,0,0,0-1.84,1.31,7.27,7.27,0,0,0-.51,3.1v8.81A0.61,0.61,0,0,1,1196.43,3272.24Z" transform="translate(-1063.97 -3233.75)"/><path class="b" d="M1155.06,3264.43a6.25,6.25,0,0,1-.6,3.38,2.59,2.59,0,0,1-2.21,1.45c-1.22,0-1.94-.93-1.94-2.31,0-2.71,2.43-3.21,4.74-3.21v0.69Zm3.21,7.77a0.66,0.66,0,0,1-.75.07,7.78,7.78,0,0,1-1.83-2.12,6.32,6.32,0,0,1-5.25,2.32c-2.68,0-4.77-1.66-4.77-5a5.41,5.41,0,0,1,3.4-5.21,22,22,0,0,1,6-1.1v-0.41a4.08,4.08,0,0,0-.39-2.31,2.13,2.13,0,0,0-1.79-.83,2.43,2.43,0,0,0-2.56,1.91,0.67,0.67,0,0,1-.55.59l-3.09-.33a0.56,0.56,0,0,1-.48-0.67c0.71-3.75,4.09-4.88,7.13-4.88a7.23,7.23,0,0,1,4.8,1.59c1.55,1.45,1.4,3.38,1.4,5.48v5a4.35,4.35,0,0,0,1.2,3,0.6,0.6,0,0,1,0,.85c-0.65.55-1.81,1.55-2.44,2.12h0Z" transform="translate(-1063.97 -3233.75)"/><path class="b" d="M1113.66,3264.43a6.25,6.25,0,0,1-.6,3.38,2.59,2.59,0,0,1-2.21,1.45c-1.22,0-1.94-.93-1.94-2.31,0-2.71,2.43-3.21,4.74-3.21v0.69Zm3.21,7.77a0.66,0.66,0,0,1-.75.07,7.77,7.77,0,0,1-1.83-2.12,6.31,6.31,0,0,1-5.25,2.32c-2.68,0-4.77-1.66-4.77-5a5.41,5.41,0,0,1,3.4-5.21,22,22,0,0,1,6-1.1v-0.41a4.08,4.08,0,0,0-.39-2.31,2.13,2.13,0,0,0-1.79-.83,2.43,2.43,0,0,0-2.56,1.91,0.67,0.67,0,0,1-.55.59l-3.09-.33a0.56,0.56,0,0,1-.48-0.67c0.71-3.75,4.09-4.88,7.13-4.88a7.23,7.23,0,0,1,4.8,1.59c1.55,1.45,1.4,3.38,1.4,5.48v5a4.35,4.35,0,0,0,1.2,3,0.6,0.6,0,0,1,0,.85c-0.65.55-1.81,1.55-2.44,2.12h0Z" transform="translate(-1063.97 -3233.75)"/></g></svg>