<svg xmlns="http://www.w3.org/2000/svg" viewBox="0 0 109.92 29.73"><defs><style>.a{opacity:0.75;}.b{fill:#b2b2b2;}</style></defs><title>logo_github</title><g class="a"><path class="b" d="M1726.42,3261.31h-9.24a0.43,0.43,0,0,0-.43.43v4.52a0.43,0.43,0,0,0,.43.43h3.6v5.61a10.91,10.91,0,0,1-3,.28c-2.64,0-6.33-1-6.33-9.07s3.84-9.18,7.44-9.18a14.61,14.61,0,0,1,5.32.81,0.43,0.43,0,0,0,.52-0.42l1-4.36a0.4,0.4,0,0,0-.16-0.34c-0.35-.25-2.47-1.43-7.82-1.43-6.17,0-12.49,2.62-12.49,15.23s7.24,14.49,13.34,14.49a15,15,0,0,0,8.12-2.16,0.37,0.37,0,0,0,.14-0.33v-14.08A0.43,0.43,0,0,0,1726.42,3261.31Z" transform="translate(-1705.25 -3248.59)"/><path class="b" d="M1774,3250.1a0.43,0.43,0,0,0-.43-0.43h-5.2a0.43,0.43,0,0,0-.43.43v10.05h-8.11V3250.1a0.43,0.43,0,0,0-.43-0.43h-5.2a0.43,0.43,0,0,0-.43.43v27.21a0.43,0.43,0,0,0,.43.44h5.2a0.43,0.43,0,0,0,.43-0.44v-11.64H1768v11.64a0.43,0.43,0,0,0,.43.44h5.21a0.43,0.43,0,0,0,.43-0.44V3250.1Z" transform="translate(-1705.25 -3248.59)"/><ellipse class="b" cx="27.63" cy="5.08" rx="3.35" ry="3.39"/><path class="b" d="M1735.86,3271.57V3259a0.43,0.43,0,0,0-.43-0.43h-5.18a0.5,0.5,0,0,0-.45.48v18a0.64,0.64,0,0,0,.76.69h4.67a0.56,0.56,0,0,0,.64-0.69v-5.48Z" transform="translate(-1705.25 -3248.59)"/><path class="b" d="M1793.79,3258.62h-5.16a0.43,0.43,0,0,0-.43.44v13.34a5.83,5.83,0,0,1-3.17,1c-1.86,0-2.35-.84-2.35-2.67v-11.64a0.43,0.43,0,0,0-.43-0.44H1777a0.43,0.43,0,0,0-.43.44v12.52c0,5.41,3,6.74,7.17,6.74a12.1,12.1,0,0,0,6.15-1.88,10.93,10.93,0,0,0,.19,1.11,0.45,0.45,0,0,0,.38.24h3.33a0.43,0.43,0,0,0,.43-0.43v-18.27A0.43,0.43,0,0,0,1793.79,3258.62Z" transform="translate(-1705.25 -3248.59)"/><path class="b" d="M1807.89,3258a9.7,9.7,0,0,0-4.93,1.31v-9.22a0.43,0.43,0,0,0-.43-0.43h-5.22a0.43,0.43,0,0,0-.43.43v27.21a0.43,0.43,0,0,0,.43.44h3.62a0.43,0.43,0,0,0,.38-0.23,8.48,8.48,0,0,0,.22-1.25,9.33,9.33,0,0,0,6.17,2c4.74,0,7.46-2.4,7.46-10.79S1810.82,3258,1807.89,3258Zm-2,15.33a6.19,6.19,0,0,1-3-.87v-8.62a6.88,6.88,0,0,1,2.67-.87c1.86-.17,3.65.39,3.65,4.83C1809.17,3272.49,1808.36,3273.42,1805.86,3273.34Z" transform="translate(-1705.25 -3248.59)"/><path class="b" d="M1750.81,3258.57h-3.9v-5.15a0.27,0.27,0,0,0-.33-0.29h-5.32a0.27,0.27,0,0,0-.32.29v5.33l-2.84.7a0.43,0.43,0,0,0-.31.41v3.35a0.43,0.43,0,0,0,.43.43h2.73v8.05c0,6,4.19,6.57,7,6.57a11.87,11.87,0,0,0,3.1-.51,0.4,0.4,0,0,0,.24-0.39v-3.68a0.44,0.44,0,0,0-.43-0.43c-0.23,0-.81.09-1.41,0.09-1.92,0-2.57-.89-2.57-2s0-7.65,0-7.65h3.9a0.43,0.43,0,0,0,.43-0.43V3259A0.43,0.43,0,0,0,1750.81,3258.57Z" transform="translate(-1705.25 -3248.59)"/></g></svg>