<svg xmlns="http://www.w3.org/2000/svg" viewBox="0 0 134 41.24"><defs><style>.a{fill:#b2b2b2;}</style></defs><title>logo_berkeley</title><path class="a" d="M2033.69,4093.76c-1.37,0-1.76.2-1.76,1.27v8.75c0,0.44.15,3.18,0.59,3.67s2.1,0.93,3.67.93c3.71,0,6.45-2.54,6.45-6.79s-3.62-7.82-8.94-7.82m1.61-13.63c-3.22,0-3.37.44-3.37,1.42v10.6c0,0.78.63,0.68,1.81,0.68a39.37,39.37,0,0,1,5,.29c1.42-1.07,3-2,3-5.86,0-2.44-2.05-7.13-6.5-7.13m0.64,29.12c-2.05,0-4.1-.49-6.26-0.49s-3.13.2-4.69,0.2c-0.49,0-.83,0-0.83-0.54s0.29-.59,1.37-0.59c2.2,0,2.3-.1,2.3-0.83v-22.48c0-3.86-.78-4.3-2.15-4.3-2.2,0-2.39,0-2.39-.64,0-.34.15-0.39,1-0.39,1.52,0,3,0,4.74,0,1,0,3.37-.29,7.77-0.29,6.35,0,9.09,3.27,9.09,6.74a7.22,7.22,0,0,1-3.67,6.25,16.8,16.8,0,0,0-2,1.32c0,0.1.93,0.34,1.91,0.83,2.3,1.17,5.18,2.83,5.18,7.09,0,5.47-4.54,8.06-11.34,8.06" transform="translate(-2023.28 -4078.95)"/><path class="a" d="M2056.31,4092c-3.23,0-4.25,4.84-4.25,5.44,0,0.21,0,.25.51,0.25a53.68,53.68,0,0,0,7.69-1.06c0.47-.08.51-0.17,0.51-0.42,0-1.06-2.51-4.21-4.46-4.21m6.55,5.1a66,66,0,0,1-10.2,1.49c-0.68,0-.81.26-0.81,1.23,0,5.87,4.55,7.44,7.78,7.44a11.36,11.36,0,0,0,4.59-1,0.4,0.4,0,0,1,.34.34,12,12,0,0,1-7.06,2.89c-3.48,0-8.67-1.7-8.67-8.8,0-6,4-9.56,7.91-9.56a9.45,9.45,0,0,1,6.46,3.19,6.48,6.48,0,0,1,1.4,2.21c0,0.17-.59.34-1.74,0.6" transform="translate(-2023.28 -4078.95)"/><path class="a" d="M2078.41,4096c-0.6,0-1.11-1.74-3.23-1.74-2.46,0-3.4,1-3.4,2.8v8.76c0,2.08.13,2.08,3.27,2.08,1.11,0,1.15.13,1.15,0.51s0,0.43-1.15.43c-0.6,0-3.44-.21-4.8-0.21s-2.89.21-3.48,0.21c-1,0-1.06,0-1.06-.43s0-.51,1.06-0.51c1.74,0,1.87,0,1.87-.64v-11.65c0-2.89.08-3-2.29-3-0.77,0-.77,0-0.77-0.43s0-.64.68-0.64c1.44,0,2.25.08,3.1,0.08,0.68,0,1.49-.21,2.17-0.21a0.38,0.38,0,0,1,.34.47c0,0.21-.09,1.15-0.09,1.27,0,0.38,0,.68.21,0.68,0.64,0,2.63-2.21,4.63-2.21,0.77,0,2.72.94,2.72,2a5.2,5.2,0,0,1-.93,2.29" transform="translate(-2023.28 -4078.95)"/><path class="a" d="M2098.51,4109c-0.51,0-1.06,0-1.44,0s-1.79,0-2.38,0c-0.77,0-1.15-1.06-2.93-3.1s-3.57-4.72-3.83-4.72a7.85,7.85,0,0,0-1.49.89c-0.68.43-1.28,0.72-1.28,1.11v2.68c0,2-.08,2,2.55,2,1,0,1.15.21,1.15,0.55s-0.21.43-1.15,0.43c-0.64,0-2.59-.08-4-0.08s-3,.08-3.61.08c-1,0-1.23,0-1.23-.43s0.21-.55,1.23-0.55c1.44,0,1.83,0,1.83-.64,0-1.23.13-13.81,0.13-22.78,0-3-.34-3.4-1.49-3.4-1.74,0-1.91-.13-1.91-0.43s0.08-.6.55-0.6a26,26,0,0,0,6-.93c0.21,0,.3.13,0.3,0.38,0,0.55-.09,2.34-0.09,3.7,0,6.46-.26,11.22-0.26,18.15,0,0.17,0,.3.17,0.3,1.06,0,5.48-3.91,6.84-5.19,1.66-1.57,2-2.29,2-3.19,0-.68-0.13-0.76-2-0.76-0.64,0-.85-0.09-0.85-0.47s0.21-.43.77-0.43,1.23,0.13,1.74.13,3-.13,3.53-0.13c0.34,0,.51,0,0.51.17,0,0.38-1.44,2.21-2.76,3.49-2.13,2.08-4.76,4-4.76,4.25s0.76,1.19,3.74,4.76c1.45,1.74,2.81,3.82,4.25,3.82,1,0,1.36.21,1.36,0.55s-0.3.38-1.23,0.38" transform="translate(-2023.28 -4078.95)"/><path class="a" d="M2105.86,4092c-3.23,0-4.25,4.84-4.25,5.44,0,0.21,0,.25.51,0.25a53.71,53.71,0,0,0,7.69-1.06c0.47-.08.51-0.17,0.51-0.42,0-1.06-2.51-4.21-4.46-4.21m6.55,5.1a66,66,0,0,1-10.2,1.49c-0.68,0-.81.26-0.81,1.23,0,5.87,4.55,7.44,7.78,7.44a11.37,11.37,0,0,0,4.59-1,0.4,0.4,0,0,1,.34.34,12,12,0,0,1-7.06,2.89c-3.49,0-8.67-1.7-8.67-8.8,0-6,4-9.56,7.91-9.56a9.45,9.45,0,0,1,6.46,3.19,6.49,6.49,0,0,1,1.4,2.21c0,0.17-.59.34-1.74,0.6" transform="translate(-2023.28 -4078.95)"/><path class="a" d="M2121.77,4108.8c-0.64,0-1.57-.09-2.34-0.09-1.44,0-3.7.09-4.29,0.09-1,0-1.06-.09-1.06-0.42s0-.55,1.06-0.55c1.74,0,2.47,0,2.47-.72v-23.42c0-2.68-.25-2.68-2.17-2.68-0.77,0-1.19-.08-1.19-0.55s0.34-.47,1.06-0.51a22.57,22.57,0,0,0,5.19-.93c0.21,0,.42.21,0.42,0.68s-0.21,2-.21,3.32c0,16.19-.21,19.55-0.21,20.78,0,3.53.3,4,1.06,4,2.12,0,2,.25,2,0.6s-0.3.42-1.83,0.42" transform="translate(-2023.28 -4078.95)"/><path class="a" d="M2130.38,4092c-3.23,0-4.25,4.84-4.25,5.44,0,0.21,0,.25.51,0.25a53.68,53.68,0,0,0,7.69-1.06c0.47-.08.51-0.17,0.51-0.42,0-1.06-2.51-4.21-4.46-4.21m6.55,5.1a66,66,0,0,1-10.2,1.49c-0.68,0-.81.26-0.81,1.23,0,5.87,4.55,7.44,7.78,7.44a11.36,11.36,0,0,0,4.59-1,0.4,0.4,0,0,1,.34.34,12,12,0,0,1-7.05,2.89c-3.49,0-8.67-1.7-8.67-8.8,0-6,4-9.56,7.91-9.56a9.45,9.45,0,0,1,6.46,3.19,6.48,6.48,0,0,1,1.4,2.21c0,0.17-.6.34-1.74,0.6" transform="translate(-2023.28 -4078.95)"/><path class="a" d="M2156.18,4092.57c-0.94,0-2.81,5.1-6.16,13.26-2.68,6.5-4.59,9.95-6,12.75-0.47.94-1,1-1.91,1.11a21.84,21.84,0,0,1-2.51.51c-0.72,0-1.15-.21-1.15-0.42s2-.51,3.44-2.34,5.19-6.93,5.19-8.2c0-.47-3.4-8.33-5.74-13.86-1.06-2.55-1.36-2.76-2.12-2.76s-0.89,0-.89-0.42,0.13-.6.89-0.6c1.19,0,1.49.08,2.51,0.08,1.19,0,2.68-.13,4-0.13,0.89,0,1.06.17,1.06,0.64s-0.17.42-1.06,0.42-1.27.26-1.27,1.23c0,1.23,1.11,2.72,3.66,9.27a3.33,3.33,0,0,0,1,1.61c0.3,0,.55-0.6,1.23-2.59,1-3.06,2.55-7.48,2.55-8.08,0-1.27,0-1.53-1.44-1.53s-1.49,0-1.49-.43,0.13-.55.89-0.55c1.15,0,1.91.08,3.06,0.08,0.64,0,1.78-.17,2.38-0.17s0.89,0,.89.51a1,1,0,0,1-1.11.6" transform="translate(-2023.28 -4078.95)"/><path class="a" d="M2029.07,4119.57a1.88,1.88,0,0,1-2.1-2.07v-3.71h1v3.76a1.11,1.11,0,1,0,2.21,0v-3.77h1v3.7a1.88,1.88,0,0,1-2.09,2.07" transform="translate(-2023.28 -4078.95)"/><polygon class="a" points="12.66 40.53 10.27 36.71 10.25 36.71 10.25 40.53 9.26 40.53 9.26 34.94 10.22 34.84 12.53 38.58 12.56 38.58 12.56 34.84 13.54 34.84 13.54 40.53 12.66 40.53"/><rect class="a" x="14.95" y="34.85" width="0.99" height="5.68"/><path class="a" d="M2043.23,4119.48h-1.09l-2-5.68h1l1.09,3.17s0.11,0.33.38,1.3h0c0.28-1,.39-1.29.39-1.29l1.09-3.18h1Z" transform="translate(-2023.28 -4078.95)"/><polygon class="a" points="26.33 40.53 22.88 40.53 22.88 34.84 26.26 34.84 26.26 35.67 23.87 35.67 23.87 37.24 26 37.24 26 38.08 23.87 38.08 23.87 39.69 26.41 39.69 26.33 40.53"/><path class="a" d="M2052.8,4114.64H2052v1.73h0.83a0.79,0.79,0,0,0,.87-0.89,0.75,0.75,0,0,0-.89-0.85m1.18,4.84-0.79-1.6a0.93,0.93,0,0,0-.73-0.67H2052v2.27h-1v-5.68h1.83a1.64,1.64,0,0,1,1.87,1.68,1.55,1.55,0,0,1-1.07,1.54v0a0.9,0.9,0,0,1,.35.39l1.09,2H2054Z" transform="translate(-2023.28 -4078.95)"/><path class="a" d="M2057.61,4119.57a3.26,3.26,0,0,1-1.87-.63l0.41-.73a2.82,2.82,0,0,0,1.46.52,0.84,0.84,0,0,0,1-.79c0-1.06-2.51-.72-2.51-2.63a1.67,1.67,0,0,1,1.84-1.61,3.17,3.17,0,0,1,1.65.51l-0.36.71a2.74,2.74,0,0,0-1.29-.38,0.72,0.72,0,0,0-.83.73c0,1.29,2.51.71,2.51,2.64a1.83,1.83,0,0,1-2,1.66" transform="translate(-2023.28 -4078.95)"/><rect class="a" x="37.5" y="34.85" width="0.99" height="5.68"/><polygon class="a" points="43.55 35.68 42.11 35.68 42.11 40.53 41.13 40.53 41.13 35.69 39.62 35.69 39.62 34.84 43.62 34.84 43.55 35.68"/><path class="a" d="M2070.33,4117v2.43h-1V4117l-1.79-3.25h1.11l0.75,1.62s0.11,0.21.41,0.84h0c0.28-.63.38-0.84,0.38-0.84l0.8-1.62h1.09Z" transform="translate(-2023.28 -4078.95)"/><path class="a" d="M2078,4114.55c-1,0-1.46.85-1.46,2.08s0.48,2.11,1.46,2.11,1.45-.86,1.45-2.1-0.47-2.09-1.45-2.09m0,5c-1.72,0-2.47-1.31-2.47-2.94s0.76-2.93,2.47-2.93,2.47,1.22,2.47,2.93-0.75,2.94-2.47,2.94" transform="translate(-2023.28 -4078.95)"/><polygon class="a" points="59.4 35.67 59.4 37.24 61.49 37.24 61.49 38.08 59.4 38.08 59.4 40.53 58.42 40.53 58.42 34.84 61.73 34.84 61.73 35.67 59.4 35.67"/><path class="a" d="M2091.24,4119.57c-1.75,0-2.51-1.19-2.51-2.93s0.84-2.94,2.55-2.94a2.85,2.85,0,0,1,1.89.73l-0.51.66a2,2,0,0,0-1.38-.56c-1,0-1.53.75-1.53,2.09s0.5,2.1,1.55,2.1a2.28,2.28,0,0,0,1.5-.66l0.51,0.65a3,3,0,0,1-2.06.85" transform="translate(-2023.28 -4078.95)"/><path class="a" d="M2096.8,4116.15s-0.07-.18-0.46-1.36h0c-0.38,1.18-.45,1.36-0.45,1.36l-0.44,1.25h1.8Zm1.16,3.33-0.47-1.37h-2.29l-0.47,1.37h-0.92l2-5.6,1.15-.09,2,5.69h-1Z" transform="translate(-2023.28 -4078.95)"/><polygon class="a" points="79.86 40.53 76.5 40.53 76.5 34.84 77.48 34.84 77.48 39.69 79.93 39.69 79.86 40.53"/><rect class="a" x="80.89" y="34.85" width="0.99" height="5.68"/><polygon class="a" points="84.15 35.67 84.15 37.24 86.24 37.24 86.24 38.08 84.15 38.08 84.15 40.53 83.16 40.53 83.16 34.84 86.48 34.84 86.48 35.67 84.15 35.67"/><path class="a" d="M2112.87,4114.55c-1,0-1.46.85-1.46,2.08s0.48,2.11,1.46,2.11,1.45-.86,1.45-2.1-0.47-2.09-1.45-2.09m0,5c-1.72,0-2.47-1.31-2.47-2.94s0.76-2.93,2.47-2.93,2.47,1.22,2.47,2.93-0.75,2.94-2.47,2.94" transform="translate(-2023.28 -4078.95)"/><path class="a" d="M2118,4114.64h-0.81v1.73H2118a0.79,0.79,0,0,0,.87-0.89,0.75,0.75,0,0,0-.89-0.85m1.18,4.84-0.79-1.6a0.93,0.93,0,0,0-.73-0.67h-0.47v2.27h-1v-5.68H2118a1.64,1.64,0,0,1,1.87,1.68,1.55,1.55,0,0,1-1.07,1.54v0a0.89,0.89,0,0,1,.35.39l1.09,2h-1.09Z" transform="translate(-2023.28 -4078.95)"/><polygon class="a" points="101.15 40.53 98.75 36.71 98.74 36.71 98.74 40.53 97.75 40.53 97.75 34.94 98.7 34.84 101.02 38.58 101.04 38.58 101.04 34.84 102.03 34.84 102.03 40.53 101.15 40.53"/><rect class="a" x="103.27" y="34.85" width="0.99" height="5.68"/><path class="a" d="M2131.34,4116.15s-0.07-.18-0.46-1.36h0c-0.38,1.18-.45,1.36-0.45,1.36l-0.44,1.25h1.8Zm1.16,3.33-0.47-1.37h-2.29l-0.47,1.37h-0.92l2-5.6,1.15-.09,2,5.69h-1Z" transform="translate(-2023.28 -4078.95)"/></svg>