<?xml version="1.0" encoding="UTF-8"?>
<svg width="155px" height="29px" viewBox="0 0 155 29" version="1.1" xmlns="http://www.w3.org/2000/svg" xmlns:xlink="http://www.w3.org/1999/xlink">
    <!-- Generator: Sketch 41.2 (35397) - http://www.bohemiancoding.com/sketch -->
    <title>Page 1</title>
    <desc>Created with Sketch.</desc>
    <defs></defs>
    <g id="Page-1" stroke="none" stroke-width="1" fill="none" fill-rule="evenodd">
        <g id="Newly-Editted" transform="translate(-1165.000000, -3598.000000)" fill="#AAB2B9">
            <g id="logos" transform="translate(120.000000, 3465.000000)">
                <g id="Page-1" transform="translate(1045.000000, 133.000000)">
                    <path d="M26.4418981,0 L2.70827154,0 C1.21848832,0 0,1.23384873 0,2.74241235 L0,9.20531674 L6.58291071,9.20531674 L6.58291071,8.14942371 C6.58291071,7.33001553 7.2387628,6.66589569 8.04797001,6.66589569 L21.1025338,6.66589569 C21.9114069,6.66589569 22.567259,7.33001553 22.567259,8.14942371 L22.567259,9.20531674 L29.1501697,9.20531674 L29.1501697,2.74241235 C29.1501697,1.23384873 27.9313473,0 26.4418981,0 Z M22.3094866,19.7707586 C22.3094866,20.6128186 21.6611317,21.2952975 20.8611747,21.2952975 L7.95584006,21.2952975 C7.15621333,21.2952975 6.50785841,20.6128186 6.50785841,19.7707586 L6.50785841,18.6856763 L0.00019817267,18.6856763 L0.00019817267,25.3268945 C0.00019817267,26.877161 1.20508801,28.1454661 2.67751096,28.1454661 L26.1398341,28.1454661 C27.612257,28.1454661 28.8171469,26.877161 28.8171469,25.3268945 L28.8171469,18.6856763 L22.3094866,18.6856763 L22.3094866,19.7707586 Z M0,16.876414 L6.13687783,16.876414 L6.13687783,10.7395362 L0,10.7395362 L0,16.876414 Z M23.0132919,16.876414 L29.1501697,16.876414 L29.1501697,10.7395362 L23.0132919,10.7395362 L23.0132919,16.876414 Z" id="Combined-Shape"></path>
                    <path d="M49.0950226,13.9334903 L49.0950226,13.6827933 C49.0950226,9.31092955 46.1808413,6.13687783 42.2194925,6.13687783 C38.2296863,6.13687783 35.2870475,9.36693635 35.2870475,13.7107967 L35.2870475,13.9611604 C35.2870475,18.3323573 38.2015676,21.4790724 42.1629164,21.4790724 C46.1523838,21.4790724 49.0950226,18.2770173 49.0950226,13.9334903 Z M64.4372172,13.6505497 L64.4372172,13.2776414 C64.4372172,8.50798776 61.5241805,6.13687783 58.4364035,6.13687783 C56.2223283,6.13687783 54.8823035,7.30919439 53.9210572,8.66812461 L53.9210572,6.40324091 L50.6292421,6.40324091 L50.6292421,24.5475113 L53.9210572,24.5475113 L53.9210572,18.3930886 C54.8533545,19.6448356 56.1933793,20.7906754 58.4364035,20.7906754 C61.5531295,20.7906754 64.4372172,18.3930886 64.4372172,13.6505497 Z M77.7496424,19.1961288 L76.1259258,17.2468923 C75.163162,18.1933405 74.1447148,18.8060815 72.7687731,18.8060815 C70.8702635,18.8060815 69.3562664,17.469586 69.0811439,14.9916187 L78.2175153,14.9916187 C78.2451923,14.5462313 78.2451923,14.1001772 78.2451923,13.9054869 C78.2451923,9.47861656 76.1536028,6.13687783 72.1908512,6.13687783 C68.613271,6.13687783 65.9714367,9.31092955 65.9714367,13.7388001 L65.9714367,13.9611604 C65.9714367,18.5830544 68.888723,21.4790724 72.6313766,21.4790724 C74.8053381,21.4790724 76.4290547,20.6159677 77.7496424,19.1961288 Z M87.3010228,6.13687783 C85.2017575,6.13687783 83.948272,7.30194848 83.073869,8.63710243 L83.073869,6.42091695 L79.7794118,6.42091695 L79.7794118,21.4790724 L83.073869,21.4790724 L83.073869,12.3592055 C83.073869,10.2852097 84.269061,9.03509737 85.9892438,9.03509737 C87.7383988,9.03509737 88.7587102,10.1994877 88.7587102,12.3020575 L88.7587102,21.4790724 L92.0531674,21.4790724 L92.0531674,11.3931323 C92.0531674,8.18263984 90.2746911,6.13687783 87.3010228,6.13687783 Z M104.326923,16.9711777 L104.326923,16.9433553 C104.326923,14.6193492 102.565178,13.5560653 100.235687,12.5199334 C98.4742824,11.7358788 97.2806226,11.2320592 97.2806226,10.2525776 L97.2806226,10.1962625 C97.2806226,9.38405034 97.9912396,8.74044848 99.1845592,8.74044848 C100.377879,8.74044848 101.627667,9.30058323 102.764178,10.056145 L104.127923,7.7321389 C102.707369,6.72449974 100.91773,6.13687783 99.2413678,6.13687783 C96.4284944,6.13687783 94.2694296,7.81627643 94.2694296,10.4761623 L94.2694296,10.5324774 C94.2694296,12.967773 96.1444517,13.9760826 98.3888995,14.9274066 C100.178879,15.6836388 101.343624,16.1593008 101.343624,17.2232551 L101.343624,17.2514127 C101.343624,18.1752495 100.576539,18.8751665 99.2413678,18.8751665 C97.9058567,18.8751665 96.4567286,18.2312295 95.0929834,17.139788 L93.5873869,19.4074789 C95.3202176,20.8348001 97.3945798,21.4790724 99.1845592,21.4790724 C102.082475,21.4790724 104.326923,19.8831409 104.326923,16.9711777 Z M113.505637,20.8572818 L113.505637,18.3426066 C113.003035,18.6132036 112.474147,18.7481785 111.892053,18.7481785 C110.939737,18.7481785 110.384563,18.2888756 110.384563,17.1802693 L110.384563,9.55661818 L113.53224,9.55661818 L113.53224,6.93415729 L110.384563,6.93415729 L110.384563,3.06843891 L107.395552,3.06843891 L107.395552,6.93415729 L105.861143,6.93415729 L106.352344,9.55661818 L107.395552,9.55661818 L107.395552,17.8023835 C107.395552,20.5866848 108.956248,21.4790724 111.019229,21.4790724 C112.024433,21.4790724 112.817766,21.2356645 113.505637,20.8572818 Z M125.791606,7.65417488 C124.797922,6.67079145 123.249313,6.13687783 121.232553,6.13687783 C119.158061,6.13687783 117.609103,6.61494415 116.118575,7.31707252 L117.053479,9.84601309 C118.076554,9.39654327 119.303965,8.94673703 120.794492,8.94673703 C122.898374,8.94673703 124.125785,9.98664062 124.125785,11.9813311 L124.125785,12.5996886 C123.073669,12.2622498 122.021552,12.0099276 120.560766,12.0099276 C117.287555,12.0099276 115.066459,13.583072 115.066459,16.7865537 L115.066459,16.9268448 C115.066459,19.8211478 117.229123,21.4790724 119.800807,21.4790724 C121.817217,21.4790724 123.190532,20.6359801 124.096394,19.371678 L124.096394,21.1978173 L127.340215,21.1978173 L127.340215,11.9534075 C127.340215,10.0990081 126.814332,8.63755831 125.791606,7.65417488 Z M139.613971,19.2514688 L138.031786,17.1632155 C137.227338,18.0263202 136.423511,18.6667312 135.230195,18.6667312 C133.232431,18.6667312 131.831635,16.7454981 131.831635,13.8778169 L131.831635,13.7384667 C131.831635,10.9537955 133.232431,8.9772224 135.152235,8.9772224 C136.397421,8.9772224 137.201558,9.64563683 137.927736,10.4530681 L139.562411,8.14178772 C138.420965,6.91663909 137.123598,6.13687783 135.152235,6.13687783 C131.546196,6.13687783 128.874434,9.31092955 128.874434,13.7107967 L128.874434,13.9891638 C128.874434,18.3883641 131.468546,21.4790724 135.048495,21.4790724 C137.149689,21.4790724 138.524394,20.5606276 139.613971,19.2514688 Z M150.869866,13.8079751 L148.819287,16.1855979 L151.569693,21.4790724 L154.956165,21.4790724 L150.869866,13.8079751 Z M151.113385,6.83802958 L145.923296,13.2746378 L145.923296,1.53421946 L142.68241,1.53421946 L142.68241,21.4790724 L145.923296,21.4790724 L145.923296,17.2524954 L154.956165,6.83802958 L151.113385,6.83802958 Z M124.154826,16.1964564 C124.154826,17.8823046 122.693689,19.1190194 120.794492,19.0907594 C119.362746,19.0628357 118.281239,18.219407 118.281239,16.73037 L118.281239,16.6738498 C118.281239,15.100369 119.391787,14.1731693 121.290984,14.1731693 C122.401532,14.1731693 123.395217,14.3982407 124.154826,14.707083 L124.154826,16.1964564 Z M72.1908512,8.78253212 C74.0073183,8.78253212 75.0527836,10.4807381 75.2181865,12.8196886 L69.0537964,12.8196886 C69.2738944,10.3137179 70.4847626,8.78253212 72.1908512,8.78253212 Z M53.8628104,13.5969581 L53.8628104,13.330595 C53.8628104,10.559781 55.5526647,8.80146565 57.5330552,8.80146565 C59.5141434,8.80146565 61.1164531,10.5333042 61.1164531,13.3570719 L61.1164531,13.5969581 C61.1164531,16.4213638 59.5434412,18.1264065 57.5330552,18.1264065 C55.5526647,18.1264065 53.8628104,16.3677722 53.8628104,13.5969581 Z M38.4844485,13.8778169 L38.4844485,13.7107967 C38.4844485,10.9537955 39.9276492,8.92154898 42.1629164,8.92154898 C44.3416074,8.92154898 45.8979604,10.9821323 45.8979604,13.7388001 L45.8979604,13.9054869 C45.8979604,16.6621547 44.4547597,18.7224046 42.2194925,18.7224046 C40.0404628,18.7224046 38.4844485,16.6344847 38.4844485,13.8778169 Z" id="Combined-Shape"></path>
                </g>
            </g>
        </g>
    </g>
</svg>