<?xml version="1.0" encoding="utf-8"?>
<!-- Generator: Adobe Illustrator 21.0.0, SVG Export Plug-In . SVG Version: 6.00 Build 0)  -->
<svg version="1.1" id="Layer_1" xmlns="http://www.w3.org/2000/svg" xmlns:xlink="http://www.w3.org/1999/xlink" x="0px" y="0px"
	 viewBox="0 0 240 33" style="enable-background:new 0 0 240 33;" xml:space="preserve">
<style type="text/css">
	.st0{fill:#AAB2B9;}
</style>
<title>Mesosphere</title>
<desc>Created with Sketch.</desc>
<g id="Page-1">
	<g id="_x30_2-Features" transform="translate(-1017.000000, -2375.000000)">
		<path id="Mesosphere" class="st0" d="M1082.9,2387.6h-0.1l-6.1-12.2h-1.2v21.2h1.9v-16.1l5,9.9h1l5-9.9v16.1h1.9v-21.2h-1.2
			L1082.9,2387.6z M1097.1,2396.6h12v-1.8H1099v-7.9h8.2v-1.8h-8.2v-7.9h10.1v-1.8h-12V2396.6z M1125.1,2387.1
			c-0.5-0.4-1-0.8-1.6-1.1c-0.6-0.3-1.2-0.6-1.9-0.8c-0.6-0.3-1.3-0.5-1.9-0.7c-0.6-0.2-1.1-0.5-1.6-0.9c-0.5-0.3-0.9-0.7-1.1-1.2
			c-0.3-0.5-0.4-1-0.4-1.7v-0.4c0-0.5,0.1-0.9,0.3-1.3c0.2-0.4,0.4-0.8,0.7-1.1c0.3-0.3,0.7-0.5,1.1-0.7c0.4-0.2,0.9-0.3,1.3-0.3
			h1.2c0.5,0,0.9,0.1,1.3,0.3c0.4,0.2,0.8,0.4,1.1,0.7s0.6,0.7,0.7,1.1c0.2,0.4,0.3,0.8,0.3,1.3v0.9l1.9,0v-0.9c0-0.7-0.1-1.4-0.4-2
			c-0.3-0.6-0.6-1.2-1.1-1.7c-0.5-0.5-1-0.8-1.7-1.1c-0.6-0.3-1.3-0.4-2-0.4h-1.4c-0.7,0-1.4,0.1-2.1,0.4c-0.6,0.3-1.2,0.6-1.7,1.1
			c-0.5,0.5-0.9,1-1.1,1.7c-0.3,0.6-0.4,1.3-0.4,2v0.4c0,0.9,0.1,1.7,0.4,2.3c0.3,0.6,0.7,1.1,1.1,1.6c0.5,0.4,1,0.8,1.6,1.1
			c0.6,0.3,1.2,0.5,1.9,0.8c0.6,0.2,1.3,0.5,1.9,0.7c0.6,0.2,1.1,0.5,1.6,0.9c0.5,0.3,0.9,0.8,1.1,1.2c0.3,0.5,0.4,1.1,0.4,1.8v0.6
			c0,0.5-0.1,0.9-0.3,1.3c-0.2,0.4-0.5,0.8-0.8,1.1c-0.3,0.3-0.7,0.6-1.1,0.7c-0.4,0.2-0.9,0.3-1.4,0.3h-1.3c-0.5,0-0.9-0.1-1.4-0.3
			c-0.4-0.2-0.8-0.4-1.1-0.7c-0.3-0.3-0.6-0.7-0.8-1.1c-0.2-0.4-0.3-0.8-0.3-1.3v-1.2l-1.9,0v1.2c0,0.7,0.1,1.4,0.4,2
			c0.3,0.6,0.7,1.2,1.2,1.7c0.5,0.5,1.1,0.8,1.7,1.1c0.7,0.3,1.3,0.4,2.1,0.4h1.5c0.7,0,1.4-0.1,2.1-0.4c0.7-0.3,1.2-0.6,1.7-1.1
			c0.5-0.5,0.9-1,1.2-1.7c0.3-0.6,0.4-1.3,0.4-2v-0.6c0-0.9-0.1-1.7-0.4-2.3S1125.6,2387.6,1125.1,2387.1L1125.1,2387.1z
			 M1143.1,2380.3c0-0.5-0.1-0.9-0.3-1.3c-0.2-0.4-0.4-0.8-0.7-1.1c-0.3-0.3-0.7-0.5-1.1-0.7c-0.4-0.2-0.9-0.3-1.3-0.3h-1.3
			c-0.5,0-0.9,0.1-1.3,0.3c-0.4,0.2-0.8,0.4-1.1,0.7s-0.6,0.7-0.7,1.1c-0.2,0.4-0.3,0.8-0.3,1.3v11.4c0,0.5,0.1,0.9,0.3,1.3
			c0.2,0.4,0.4,0.8,0.7,1.1c0.3,0.3,0.7,0.6,1.1,0.7c0.4,0.2,0.9,0.3,1.3,0.3h1.3c0.5,0,0.9-0.1,1.3-0.3c0.4-0.2,0.8-0.4,1.1-0.7
			c0.3-0.3,0.6-0.7,0.7-1.1c0.2-0.4,0.3-0.8,0.3-1.3V2380.3z M1144.6,2378.3c0.3,0.6,0.4,1.3,0.4,2v11.4c0,0.7-0.1,1.4-0.4,2
			c-0.3,0.6-0.6,1.2-1.1,1.7c-0.5,0.5-1,0.8-1.7,1.1c-0.6,0.3-1.3,0.4-2,0.4h-1.5c-0.7,0-1.4-0.1-2.1-0.4c-0.6-0.3-1.2-0.6-1.7-1.1
			c-0.5-0.5-0.9-1-1.1-1.7c-0.3-0.6-0.4-1.3-0.4-2v-11.4c0-0.7,0.1-1.4,0.4-2s0.6-1.2,1.1-1.7c0.5-0.5,1-0.8,1.7-1.1
			c0.6-0.3,1.3-0.4,2.1-0.4h1.5c0.7,0,1.4,0.1,2,0.4c0.6,0.3,1.2,0.6,1.7,1.1C1143.9,2377.1,1144.3,2377.6,1144.6,2378.3
			L1144.6,2378.3z M1161.9,2387.1c-0.5-0.4-1-0.8-1.6-1.1c-0.6-0.3-1.2-0.6-1.9-0.8c-0.6-0.3-1.3-0.5-1.9-0.7
			c-0.6-0.2-1.1-0.5-1.6-0.9c-0.5-0.3-0.9-0.7-1.1-1.2c-0.3-0.5-0.4-1-0.4-1.7v-0.4c0-0.5,0.1-0.9,0.3-1.3c0.2-0.4,0.4-0.8,0.7-1.1
			c0.3-0.3,0.7-0.5,1.1-0.7c0.4-0.2,0.9-0.3,1.3-0.3h1.2c0.5,0,0.9,0.1,1.3,0.3c0.4,0.2,0.8,0.4,1.1,0.7c0.3,0.3,0.6,0.7,0.7,1.1
			c0.2,0.4,0.3,0.8,0.3,1.3v0.9l1.9,0v-0.9c0-0.7-0.1-1.4-0.4-2c-0.3-0.6-0.6-1.2-1.1-1.7c-0.5-0.5-1-0.8-1.7-1.1
			c-0.6-0.3-1.3-0.4-2-0.4h-1.4c-0.7,0-1.4,0.1-2.1,0.4c-0.6,0.3-1.2,0.6-1.7,1.1c-0.5,0.5-0.9,1-1.1,1.7c-0.3,0.6-0.4,1.3-0.4,2
			v0.4c0,0.9,0.1,1.7,0.4,2.3c0.3,0.6,0.7,1.1,1.1,1.6c0.5,0.4,1,0.8,1.6,1.1c0.6,0.3,1.2,0.5,1.9,0.8c0.6,0.2,1.3,0.5,1.9,0.7
			c0.6,0.2,1.1,0.5,1.6,0.9c0.5,0.3,0.9,0.8,1.1,1.2c0.3,0.5,0.4,1.1,0.4,1.8v0.6c0,0.5-0.1,0.9-0.3,1.3c-0.2,0.4-0.5,0.8-0.8,1.1
			c-0.3,0.3-0.7,0.6-1.1,0.7c-0.4,0.2-0.9,0.3-1.4,0.3h-1.3c-0.5,0-0.9-0.1-1.4-0.3c-0.4-0.2-0.8-0.4-1.1-0.7
			c-0.3-0.3-0.6-0.7-0.8-1.1c-0.2-0.4-0.3-0.8-0.3-1.3v-1.2l-1.9,0v1.2c0,0.7,0.1,1.4,0.4,2c0.3,0.6,0.7,1.2,1.2,1.7
			c0.5,0.5,1.1,0.8,1.7,1.1c0.7,0.3,1.3,0.4,2.1,0.4h1.5c0.7,0,1.4-0.1,2.1-0.4c0.7-0.3,1.2-0.6,1.7-1.1c0.5-0.5,0.9-1,1.2-1.7
			c0.3-0.6,0.4-1.3,0.4-2v-0.6c0-0.9-0.1-1.7-0.4-2.3C1162.8,2388.1,1162.4,2387.6,1161.9,2387.1L1161.9,2387.1z M1180.2,2380.6
			c0-0.5-0.1-0.9-0.3-1.3c-0.2-0.4-0.4-0.8-0.7-1.1c-0.3-0.3-0.7-0.6-1.1-0.7c-0.4-0.2-0.9-0.3-1.3-0.3h-4.8v9.4h4.8
			c0.5,0,0.9-0.1,1.3-0.3c0.4-0.2,0.8-0.4,1.1-0.7c0.3-0.3,0.6-0.7,0.7-1.1c0.2-0.4,0.3-0.9,0.3-1.3V2380.6z M1181.7,2378.6
			c0.3,0.6,0.4,1.3,0.4,2v2.6c0,0.7-0.1,1.4-0.4,2c-0.3,0.6-0.6,1.2-1.1,1.7c-0.5,0.5-1,0.8-1.7,1.1c-0.6,0.3-1.3,0.4-2.1,0.4h-4.9
			v8.1h-1.9v-21.2h6.8c0.7,0,1.4,0.1,2.1,0.4c0.6,0.3,1.2,0.6,1.7,1.1C1181.1,2377.4,1181.4,2377.9,1181.7,2378.6L1181.7,2378.6z
			 M1198.4,2385.1h-8.2v-9.7h-1.9v21.2h1.9v-9.7h8.2v9.7h1.9v-21.2h-1.9V2385.1z M1207.9,2396.6h12v-1.8h-10.1v-7.9h8.2v-1.8h-8.2
			v-7.9h10.1v-1.8h-12V2396.6z M1232.7,2385.7c0.5,0,0.9-0.1,1.3-0.3c0.4-0.2,0.8-0.4,1.1-0.7c0.3-0.3,0.6-0.7,0.7-1.1
			c0.2-0.4,0.3-0.9,0.3-1.3v-1.7c0-0.5-0.1-0.9-0.3-1.3c-0.2-0.4-0.4-0.8-0.7-1.1c-0.3-0.3-0.7-0.6-1.1-0.7
			c-0.4-0.2-0.9-0.3-1.3-0.3h-4.8v8.5H1232.7z M1232.8,2387.5l5.8,9h-2.2l-5.8-9h-2.6v9h-1.9v-21.2h6.8c0.7,0,1.4,0.1,2,0.4
			c0.6,0.3,1.2,0.6,1.7,1.1c0.5,0.5,0.9,1,1.1,1.7c0.3,0.6,0.4,1.3,0.4,2v1.7c0,0.7-0.1,1.4-0.4,2c-0.3,0.6-0.6,1.2-1.1,1.7
			c-0.5,0.5-1,0.8-1.7,1.1C1234.2,2387.4,1233.5,2387.5,1232.8,2387.5L1232.8,2387.5z M1246.7,2377.2v7.9h8.2v1.8h-8.2v7.9h10.1v1.8
			h-12v-21.2h12v1.8H1246.7z M1039,2407.6c-0.7,0-1.3-0.4-1.8-1l-7.2-10.4l-10.1,6.1c-0.4,0.2-0.8,0.4-1.2,0.4c-0.8,0-1.8-0.6-1.8-2
			v-22c0-1,0.6-1.9,1.5-2.4c0.4-0.3,0.9-0.3,1.3-0.3h38.5h0h0h0c0.5,0,0.9,0.1,1.2,0.3c0.9,0.5,1.5,1.4,1.5,2.4v16.9
			c0,0.6-0.2,1.1-0.5,1.4c-0.3,0.4-0.8,0.6-1.4,0.6c-0.4,0-0.7-0.1-1.1-0.3l-8.2-4l-9.1,13.2
			C1040.3,2407.3,1039.7,2407.6,1039,2407.6z M1031.6,2395.2l7.1,10.4c0.1,0.2,0.2,0.2,0.3,0.2c0.1,0,0.2-0.1,0.3-0.2l8.9-13
			l-6.8-3.3L1031.6,2395.2z M1021.8,2377.8l19.4,9.4l15.5-9.4H1021.8z M1043.2,2388.2l6,2.9l7.7-11.2L1043.2,2388.2z M1020.6,2379.2
			l10,14.5l8.9-5.4L1020.6,2379.2z M1050.9,2391.9l7.9,3.9c0.2,0.1,0.3,0.1,0.3,0.1c0,0,0-0.1,0-0.3v-15.7L1050.9,2391.9z
			 M1018.8,2379.8v20.9c0,0.1,0,0.1,0,0.2c0,0,0.1,0,0.1-0.1l10-6.1L1018.8,2379.8z"/>
	</g>
</g>
</svg>
