<?xml version="1.0" encoding="utf-8"?>
<!-- Generator: Adobe Illustrator 21.0.0, SVG Export Plug-In . SVG Version: 6.00 Build 0)  -->
<svg version="1.1" id="Layer_1" xmlns="http://www.w3.org/2000/svg" xmlns:xlink="http://www.w3.org/1999/xlink" x="0px" y="0px"
	 viewBox="0 0 180 15" style="enable-background:new 0 0 180 15;" xml:space="preserve">
<style type="text/css">
	.st0{fill:#AAB2B9;}
</style>
<title>Softlayer</title>
<desc>Created with Sketch.</desc>
<g id="Page-1">
	<g id="_x30_2-Features" transform="translate(-747.000000, -2381.000000)">
		<path id="Softlayer" class="st0" d="M750.8,2383.6v3.1h9.6c2.9,0,3.9,0.7,3.9,3.4v2c0,2.7-0.9,3.4-3.7,3.4h-9.8
			c-2.7,0-3.7-0.7-3.7-3.3v-0.1l0-1l3.1,0v1.7h10.9v-3.3h-9.6c-2.9,0-3.8-0.7-3.8-3.4v-1.6c0-2.7,0.9-3.4,3.8-3.4h8.8
			c2.7,0,3.8,0.7,3.8,3.2l0,1l-3.2,0v-1.7H750.8z M771.5,2381h11c2.8,0,3.7,0.7,3.7,3.5v7.9c0,2.8-0.9,3.5-3.7,3.5h-11
			c-2.8,0-3.7-0.7-3.7-3.5v-7.9C767.8,2381.7,768.7,2381,771.5,2381z M790,2381.1h15.2v2.5h-11.7v3.8h6.3v2.6h-6.3v5.5H790V2381.1z
			 M818.2,2395.6h-3.6v-11.9h-7.1v-2.6h17.8v2.6h-7.1V2395.6z M827.2,2381.1h3.5v11.7h11.2v2.7h-14.7V2381.1z M853.7,2381h3.4
			l8.7,15h-4l-1.8-3.3h-9.6l-1.8,3.3h-3.5L853.7,2381z M869.2,2389.3l-8-8.3h4.8l5.3,5.8l5.3-5.8h4.2l-8,8.2v6.8h-3.6V2389.3z
			 M901.2,2395.6v-14.5h12.8c2.3,0,3.3,0.8,3.3,2.8v3.4c0,2-1.1,2.8-3.3,2.8h-2l6.9,5.5h-5l-6-5.5h-3.3v5.5H901.2z M883.2,2383.3
			v-2.3h15v2.3H883.2z M883.2,2390.2v-2.3h15v2.3H883.2z M883.2,2396v-2.3h15v2.3H883.2z M921.7,2381.6v2.8h-0.7v-2.8h-1v-0.6h2.7
			v0.6H921.7z M927,2381v3.5h-0.7v-1.9c0-0.2,0-0.3,0-0.5l0-0.3l0-0.1l0,0.1l-0.1,0.2c-0.1,0.2-0.1,0.4-0.2,0.5l-0.7,1.9h-0.6
			l-0.8-1.9c0-0.1-0.1-0.3-0.2-0.5l-0.1-0.2c0,0,0,0,0-0.1l0,0.1c0,0.3,0,0.6,0,0.7v1.9H923v-3.5h1.1l0.6,1.6c0,0.1,0.1,0.3,0.2,0.5
			l0.1,0.2l0.1,0.2l0.1-0.2c0.1-0.3,0.2-0.6,0.2-0.7l0.6-1.6H927z M904.6,2387.6h7.8c1.1,0,1.6-0.2,1.6-1.1v-1.7
			c0-1-0.5-1.1-1.6-1.1h-7.8V2387.6z M858.6,2390l-3.3-6.1l-3.4,6.1H858.6z M771.3,2393.2h11.5v-9.5h-11.5V2393.2z"/>
	</g>
</g>
</svg>
