<?xml version="1.0" encoding="utf-8"?>
<!-- Generator: Adobe Illustrator 18.1.0, SVG Export Plug-In . SVG Version: 6.00 Build 0)  -->
<!DOCTYPE svg PUBLIC "-//W3C//DTD SVG 1.1//EN" "http://www.w3.org/Graphics/SVG/1.1/DTD/svg11.dtd">
<svg version="1.1" id="Layer_1" xmlns="http://www.w3.org/2000/svg" xmlns:xlink="http://www.w3.org/1999/xlink" x="0px" y="0px"
	 viewBox="0 0 88.703 12.744" enable-background="new 0 0 88.703 12.744" xml:space="preserve">
<g>
	<path fill="#676767" d="M0.048,9.744l2.639-7.712C2.758,1.84,3.022,1.78,3.37,1.78h0.624c0.348,0,0.612,0.06,0.684,0.252
		l2.639,7.712C7.34,9.828,7.352,9.9,7.352,9.96c0,0.168-0.18,0.264-0.6,0.264H6.225c-0.348,0-0.612-0.06-0.672-0.252L5.073,8.509
		H2.243L1.763,9.972c-0.06,0.18-0.264,0.252-0.552,0.252h-0.48C0.228,10.224,0,10.128,0,9.96C0,9.9,0.024,9.828,0.048,9.744z
		 M4.558,6.925L3.874,4.791c-0.06-0.156-0.18-0.768-0.18-0.768H3.646c0,0-0.108,0.564-0.18,0.768L2.758,6.925H4.558z"/>
	<path fill="#676767" d="M8.363,8.557c0.156,0,0.612,0.336,1.175,0.336c0.504,0,0.732-0.18,0.732-0.54
		c0-1.055-2.399-0.432-2.399-2.579c0-1.199,0.852-1.943,2.207-1.943c0.396,0,1.775,0.084,1.775,0.756
		c0,0.156-0.276,0.887-0.516,0.887c-0.12,0-0.48-0.251-1.02-0.251c-0.408,0-0.647,0.132-0.647,0.432c0,0.875,2.398,0.42,2.398,2.555
		c0,1.259-0.899,2.087-2.243,2.087c-1.043,0-2.099-0.276-2.099-0.852C7.728,9.204,8.111,8.557,8.363,8.557z"/>
	<path fill="#676767" d="M16.258,6.314V5.918c0-0.456-0.276-0.684-0.936-0.684c-0.875,0-1.391,0.384-1.535,0.384
		c-0.252,0-0.624-0.708-0.624-0.959c0-0.408,0.959-0.828,2.291-0.828c1.895,0,2.579,0.84,2.579,2.003v2.255
		c0,1.235,0.144,1.487,0.144,1.739c0,0.288-1.043,0.384-1.343,0.384c-0.384,0-0.408-0.504-0.479-0.828
		c-0.084,0.156-0.66,0.912-1.763,0.912c-1.295,0-1.775-0.768-1.775-1.751C12.816,7.561,13.211,6.314,16.258,6.314z M15.178,8.893
		c0.456,0,0.888-0.324,1.08-0.756v-0.66c-1.139,0-1.679,0.312-1.679,0.888C14.579,8.665,14.783,8.893,15.178,8.893z"/>
	<path fill="#676767" d="M19.691,6.038c0-1.199-0.144-1.451-0.144-1.691c0-0.288,1.043-0.384,1.343-0.384
		c0.384,0,0.408,0.48,0.479,0.768c0.276-0.516,0.864-0.899,1.607-0.899c1.295,0,2.243,1.151,2.243,3.238
		c0,1.955-0.912,3.227-2.531,3.227c-0.563,0-0.972-0.192-1.223-0.372v2.363c0,0.252-0.216,0.384-0.72,0.384h-0.336
		c-0.503,0-0.72-0.132-0.72-0.384V6.038z M22.306,8.893c0.755,0,1.115-0.624,1.115-1.823c0-1.163-0.312-1.787-0.971-1.787
		c-0.456,0-0.768,0.336-0.983,0.708v2.674C21.659,8.772,21.935,8.893,22.306,8.893z"/>
	<path fill="#676767" d="M31.667,9.852l2.843-7.88c0.048-0.144,0.24-0.192,0.479-0.192h0.348c0.24,0,0.432,0.048,0.479,0.192
		l2.842,7.892c0.024,0.06,0.036,0.108,0.036,0.156c0,0.12-0.156,0.204-0.516,0.204h-0.096c-0.24,0-0.432-0.048-0.479-0.192
		l-0.708-1.967h-3.526l-0.684,1.967c-0.048,0.144-0.24,0.192-0.479,0.192h-0.06c-0.36,0-0.516-0.072-0.516-0.204
		C31.632,9.972,31.644,9.924,31.667,9.852z M36.573,7.153l-1.259-3.574l-0.156-0.695l-0.192,0.695l-1.259,3.574H36.573z"/>
	<path fill="#676767" d="M39.683,8.952c0.084,0,0.564,0.456,1.416,0.456c0.768,0,1.187-0.372,1.187-1.031
		c0-0.564-0.312-0.888-1.211-1.14c-1.259-0.36-1.655-0.768-1.655-1.607c0-1.067,0.804-1.775,1.991-1.775
		c0.816,0,1.571,0.24,1.571,0.504c0,0.192-0.228,0.647-0.384,0.647c-0.06,0-0.444-0.288-1.091-0.288c-0.66,0-1.056,0.3-1.056,0.779
		c0,0.42,0.252,0.648,0.924,0.852c1.475,0.456,1.931,0.876,1.931,2.027c0,1.079-0.887,1.895-2.075,1.895
		c-1.091,0-1.967-0.443-1.967-0.719C39.263,9.42,39.515,8.952,39.683,8.952z"/>
	<path fill="#676767" d="M48.369,6.29V5.726c0-0.54-0.324-1.007-1.319-1.007c-1.091,0-1.751,0.504-1.871,0.504
		c-0.168,0-0.42-0.468-0.42-0.6c0-0.312,1.055-0.768,2.255-0.768c1.487,0,2.363,0.696,2.363,1.883v2.687
		c0,0.983,0.144,1.451,0.144,1.511c0,0.228-0.492,0.276-0.647,0.276c-0.288,0-0.348-0.504-0.42-0.84
		c-0.456,0.504-1.115,0.899-2.015,0.899c-1.164,0-2.051-0.563-2.051-1.799C44.387,6.446,46.534,6.314,48.369,6.29z M46.486,9.396
		c0.875,0,1.403-0.396,1.883-0.828V7.153c-1.247,0.012-2.902,0.012-2.902,1.259C45.466,9.048,45.814,9.396,46.486,9.396z"/>
	<path fill="#676767" d="M52.378,12.431c0,0.168-0.144,0.264-0.48,0.264h-0.048c-0.336,0-0.48-0.096-0.48-0.264V5.75
		c0-0.983-0.144-1.451-0.144-1.511c0-0.228,0.492-0.276,0.647-0.276c0.288,0,0.348,0.48,0.42,0.792c0.587-0.612,1.223-0.9,1.907-0.9
		c1.439,0,2.327,1.343,2.327,3.167v0.108c0,2.015-1.007,3.142-2.435,3.142c-0.744,0-1.247-0.251-1.715-0.611V12.431z M53.83,9.384
		h0.072c1.031-0.024,1.571-0.804,1.571-2.231c0-1.547-0.528-2.423-1.475-2.423c-0.528,0-1.127,0.288-1.619,0.828v3.286
		C52.81,9.204,53.314,9.384,53.83,9.384z"/>
	<path fill="#676767" d="M66.093,2.032c0.084-0.192,0.36-0.252,0.708-0.252h0.624c0.348,0,0.611,0.06,0.66,0.252l1.895,7.712
		c0.012,0.036,0.036,0.168,0.036,0.204c0,0.168-0.228,0.276-0.647,0.276H68.84c-0.36,0-0.6-0.06-0.647-0.252l-0.348-1.463h-2.902
		l-0.66,1.463c-0.084,0.18-0.288,0.252-0.576,0.252h-0.479c-0.468,0-0.696-0.084-0.696-0.24c0-0.072,0.024-0.144,0.072-0.24
		L66.093,2.032z M65.625,6.925h1.847l-0.48-2.135c-0.048-0.156-0.096-0.768-0.096-0.768h-0.048c0,0-0.168,0.564-0.264,0.768
		L65.625,6.925z"/>
	<path fill="#676767" d="M72.658,5.702c0,0.78,2.135,0.444,2.135,2.243c0,1.511-1.043,2.351-2.471,2.351
		c-0.372,0-1.727-0.084-1.727-0.732c0-1.043,0.192-1.079,0.264-1.079c0.108,0,0.611,0.408,1.319,0.408
		c0.527,0,0.792-0.204,0.792-0.6c0-0.924-2.135-0.468-2.135-2.243c0-1.463,1.019-2.219,2.375-2.219c0.66,0,1.751,0.156,1.751,0.732
		c0,0.228-0.396,0.899-0.636,0.899c-0.156,0-0.372-0.24-0.983-0.24C72.91,5.223,72.658,5.366,72.658,5.702z"/>
	<path fill="#676767" d="M79.149,9.396c-0.348,0.516-0.936,0.912-1.631,0.912c-1.164,0-1.943-0.912-1.943-2.603
		c0-2.303,1.092-3.862,2.663-3.862c0.684,0,1.2,0.396,1.451,0.636c0.132-0.432,0.168-0.552,0.78-0.564h0.144
		c0.479,0,0.695,0.108,0.695,0.3c0,0.048-0.443,4.09-0.443,4.294c0,0.276,0.108,0.384,0.359,0.384c0.168,0,0.3-0.072,0.348-0.072
		c0.072,0,0.096,0.024,0.096,0.132c0,0.024-0.012,0.3-0.084,0.72c-0.072,0.444-0.636,0.624-1.055,0.624
		C79.796,10.296,79.317,10.032,79.149,9.396z M79.125,8.161c0.192-2.135,0.144-1.763,0.312-2.59
		c-0.204-0.18-0.456-0.324-0.792-0.324c-0.803,0-1.271,0.815-1.271,2.351c0,0.828,0.264,1.259,0.815,1.259
		C78.573,8.856,78.885,8.533,79.125,8.161z"/>
	<path fill="#676767" d="M84.429,4.683C84.765,4.203,85.329,3.831,86,3.831c1.271,0,2.123,0.912,2.123,2.603
		c0,2.303-1.163,3.862-2.842,3.862c-0.563,0-0.996-0.252-1.283-0.48c-0.156,1.523-0.264,2.471-0.264,2.471
		c-0.024,0.252-0.288,0.384-0.755,0.384h-0.336c-0.479,0-0.684-0.18-0.684-0.372l0.672-6.38c0.036-0.348,0.048-0.647,0.048-0.852
		c0-0.288-0.024-0.492-0.024-0.671c0-0.264,0.612-0.432,1.391-0.432C84.345,3.963,84.405,4.299,84.429,4.683z M84.117,8.617
		c0.192,0.156,0.444,0.276,0.756,0.276c0.912,0,1.451-0.816,1.451-2.351c0-0.827-0.336-1.259-0.996-1.259
		c-0.408,0-0.72,0.336-0.959,0.732C84.309,6.709,84.213,7.645,84.117,8.617z"/>
</g>
</svg>
