<?xml version="1.0" encoding="utf-8"?>
<!-- Generator: Adobe Illustrator 18.1.1, SVG Export Plug-In . SVG Version: 6.00 Build 0)  -->
<svg version="1.1" id="Layer_1" xmlns="http://www.w3.org/2000/svg" xmlns:xlink="http://www.w3.org/1999/xlink" x="0px" y="0px"
	 viewBox="0 0 501 55" enable-background="new 0 0 501 55" xml:space="preserve">
<g>
	<path fill="#010101" d="M55.7,41.4v-36c0-1.2,1.1-1.8,3.4-1.8h2c2.3,0,3.4,0.6,3.4,1.8v15.1l0.2,0.1l9.8-15.8
		C74.8,4,76,3.7,77.8,3.7h2.7c2.1,0,3.1,0.3,3.1,0.8c0,0.3-0.2,0.8-0.5,1.2L72.2,22.4l12.4,18.9c0.3,0.5,0.5,0.8,0.5,1.2
		c0,0.5-1.1,0.8-3.1,0.8h-3.3c-1.9,0-3.1-0.4-3.4-1.1l-10.6-17l-0.2,0.1v16.3c0,1.2-1.1,1.8-3.4,1.8h-2
		C56.8,43.2,55.7,42.6,55.7,41.4z"/>
	<path fill="#010101" d="M90.2,39.6c-2.4-2.6-3.5-6.4-3.5-11.3s1.1-8.7,3.5-11.3c2.4-2.6,5.7-3.9,10.3-3.9s7.9,1.3,10.2,3.9
		s3.4,6.3,3.4,11.3s-1.1,8.7-3.4,11.3s-5.7,3.9-10.2,3.9C96,43.5,92.5,42.2,90.2,39.6z M95.2,28.4c0,5.7,1.8,8.6,5.2,8.6
		c3.4,0,5.2-2.9,5.2-8.6s-1.8-8.6-5.2-8.6C97,19.8,95.2,22.7,95.2,28.4z"/>
	<path fill="#010101" d="M129.4,43.5c-3.1,0-5.7-1.4-7.7-4c-2-2.7-2.9-6.4-2.9-11s1.1-8.4,3.1-11.1c2.1-2.7,5-4.1,8.8-4.1
		c2.2,0,4.1,0.6,5.7,1.7V2.5c0-1.2,1.1-1.8,3.4-1.8h1.6c2.3,0,3.4,0.6,3.4,1.8v30.6c0,2.4,0.1,4.3,0.3,5.9l0.3,2.3
		c0,0.6-0.8,1.1-2.3,1.4c-1.5,0.3-2.7,0.5-3.4,0.5s-1.2-0.1-1.5-0.2c-0.2-0.2-0.5-0.4-0.6-0.8c-0.2-0.3-0.2-0.6-0.3-0.8
		c-0.1-0.2-0.2-0.6-0.2-1.1c-0.1-0.5-0.2-0.8-0.2-0.9c-0.7,1.2-1.7,2.3-3.1,3C132.6,43.1,131.1,43.5,129.4,43.5z M131.9,36.7
		c1.8,0,3.4-1.1,4.7-3.3V20.9c-1.3-0.7-2.6-1.1-4-1.1c-3.5,0-5.3,2.8-5.3,8.4C127.3,33.9,128.9,36.7,131.9,36.7z"/>
	<path fill="#010101" d="M155.1,8.8c-2.3,0-3.4-0.6-3.4-1.8V2.4c0-1.2,1.1-1.8,3.4-1.8h1.6c2.3,0,3.4,0.6,3.4,1.8V7
		c0,1.2-1.1,1.8-3.4,1.8H155.1z M151.7,41.4v-26c0-1.2,1.1-1.8,3.4-1.8h1.6c2.3,0,3.4,0.6,3.4,1.8v26c0,1.2-1.1,1.8-3.4,1.8h-1.6
		C152.9,43.2,151.7,42.6,151.7,41.4z"/>
	<path fill="#010101" d="M166.9,41.4V23.6c0-2.8-0.1-4.8-0.3-5.9c-0.2-1.1-0.3-1.8-0.3-2.1c0-0.6,0.8-1.1,2.3-1.4s2.7-0.5,3.4-0.5
		s1.2,0.1,1.5,0.2c0.2,0.2,0.5,0.4,0.6,0.7c0.2,0.3,0.2,0.6,0.3,0.8c0.1,0.2,0.2,0.5,0.2,1.1c0.1,0.5,0.2,0.8,0.2,0.9
		c0.9-1.2,2.1-2.2,3.6-3c1.5-0.8,3.1-1.2,4.8-1.2c2.8,0,4.9,0.8,6.3,2.2c1.4,1.4,2.1,3.8,2.1,6.8v19c0,1.2-1.1,1.8-3.4,1.8h-1.6
		c-2.3,0-3.4-0.6-3.4-1.8V23.4c0-2.4-1.1-3.5-3.4-3.5c-1.9,0-3.4,1.1-4.5,3.3v18c0,1.2-1.1,1.8-3.4,1.8h-1.6
		C168,43.2,166.9,42.6,166.9,41.4z"/>
	<path fill="#010101" d="M196.2,47.2c0-3,1.7-5.2,5.1-6.5l0.1-0.2c-1.6-0.8-2.4-2.2-2.4-4.2s1.1-3.5,3.4-4.7c-3.1-1.7-4.6-4.3-4.6-8
		s1.1-6.3,3.4-7.9s5.2-2.4,8.8-2.4c1.5,0,2.9,0.2,4.4,0.5h9.1c1.1,0,1.7,0.9,1.7,2.8v1c0,1.7-0.5,2.7-1.4,2.7s-1.8-0.1-2.4-0.2
		l-0.1,0.2c0.6,0.8,0.9,1.8,0.9,3.1c0,3.3-1.1,5.9-3.2,7.5c-2.1,1.7-4.9,2.4-8.3,2.4c-2.3,0-3.4,0.5-3.4,1.5c0,1.1,1.5,1.7,4.4,2.1
		c3,0.3,5.7,0.9,8.3,1.8c1.2,0.5,2.3,1.3,3.1,2.5c0.8,1.2,1.3,2.7,1.3,4.3c0,2.9-1.3,5.2-4,6.9c-2.7,1.7-6.2,2.6-10.6,2.6
		C200.7,55,196.2,52.4,196.2,47.2z M204.3,45.9c0,1.7,2,2.5,5.9,2.5s5.9-0.9,5.9-2.7c0-0.8-0.6-1.5-1.9-1.9s-3.5-0.7-6.8-0.9
		C205.4,43.5,204.3,44.6,204.3,45.9z M206.9,26.2c0.8,0.7,1.8,1,3.1,1c1.2,0,2.3-0.3,3.1-1s1.2-1.7,1.2-3c0-1.3-0.4-2.4-1.2-3
		c-0.8-0.7-1.8-1-3.1-1c-1.2,0-2.3,0.3-3.1,1c-0.8,0.7-1.2,1.7-1.2,3C205.7,24.5,206,25.6,206.9,26.2z"/>
</g>
<g>
	<path fill="#353635" d="M331.5,41V5c0-1.2,1.1-1.8,3.4-1.8h2c2.3,0,3.4,0.6,3.4,1.8v15.1l0.2,0.1l9.8-15.8c0.4-0.7,1.5-1.1,3.4-1.1
		h2.7c2.1,0,3.1,0.3,3.1,0.8c0,0.3-0.2,0.8-0.5,1.2L348,22l12.4,18.9c0.3,0.5,0.5,0.8,0.5,1.2c0,0.5-1.1,0.8-3.1,0.8h-3.3
		c-1.9,0-3.1-0.4-3.4-1.1l-10.6-17l-0.2,0.1v16.3c0,1.2-1.1,1.8-3.4,1.8h-2C332.7,42.8,331.5,42.2,331.5,41z"/>
	<path fill="#353635" d="M366,39.3c-2.4-2.6-3.5-6.4-3.5-11.3s1.1-8.7,3.5-11.3s5.7-3.9,10.3-3.9c4.5,0,7.9,1.3,10.2,3.9
		c2.3,2.6,3.4,6.3,3.4,11.3c0,4.9-1.1,8.7-3.4,11.3c-2.3,2.6-5.7,3.9-10.2,3.9C371.7,43.1,368.3,41.8,366,39.3z M371,28
		c0,5.7,1.8,8.6,5.2,8.6s5.2-2.9,5.2-8.6s-1.8-8.6-5.2-8.6S371,22.3,371,28z"/>
	<path fill="#353635" d="M405.2,43.1c-3.1,0-5.7-1.4-7.6-4s-2.9-6.4-2.9-11c0-4.7,1.1-8.4,3.1-11.1c2.1-2.7,5-4.1,8.8-4.1
		c2.2,0,4.1,0.6,5.7,1.7V2.1c0-1.2,1.1-1.8,3.4-1.8h1.6c2.3,0,3.4,0.6,3.4,1.8v30.6c0,2.4,0.1,4.3,0.3,5.9l0.3,2.3
		c0,0.6-0.8,1.1-2.3,1.4c-1.5,0.3-2.7,0.5-3.4,0.5c-0.8,0-1.2-0.1-1.5-0.2c-0.2-0.2-0.5-0.4-0.6-0.8c-0.2-0.3-0.2-0.6-0.3-0.8
		c-0.1-0.2-0.2-0.6-0.2-1.1c-0.1-0.5-0.2-0.8-0.2-0.9c-0.7,1.2-1.7,2.3-3.1,3C408.4,42.8,406.9,43.1,405.2,43.1z M407.7,36.4
		c1.8,0,3.4-1.1,4.7-3.3V20.5c-1.3-0.7-2.6-1.1-4-1.1c-3.5,0-5.3,2.8-5.3,8.4C403.1,33.5,404.6,36.4,407.7,36.4z"/>
	<path fill="#353635" d="M430.9,8.5c-2.3,0-3.4-0.6-3.4-1.8V2.1c0-1.2,1.1-1.8,3.4-1.8h1.6c2.3,0,3.4,0.6,3.4,1.8v4.6
		c0,1.2-1.1,1.8-3.4,1.8H430.9z M427.5,41V15c0-1.2,1.1-1.8,3.4-1.8h1.6c2.3,0,3.4,0.6,3.4,1.8v26c0,1.2-1.1,1.8-3.4,1.8h-1.6
		C428.7,42.8,427.5,42.2,427.5,41z"/>
	<path fill="#353635" d="M442.7,41V23.2c0-2.8-0.1-4.8-0.3-5.9c-0.2-1.1-0.3-1.8-0.3-2.1c0-0.6,0.8-1.1,2.3-1.4
		c1.5-0.3,2.7-0.5,3.4-0.5c0.8,0,1.2,0.1,1.5,0.2c0.2,0.2,0.5,0.4,0.6,0.7s0.2,0.6,0.3,0.8c0.1,0.2,0.2,0.5,0.2,1.1
		c0.1,0.5,0.2,0.8,0.2,0.9c0.9-1.2,2.1-2.2,3.6-3c1.5-0.8,3.1-1.2,4.8-1.2c2.8,0,4.9,0.8,6.3,2.2s2.1,3.8,2.1,6.8v19
		c0,1.2-1.1,1.8-3.4,1.8h-1.8c-2.3,0-3.4-0.6-3.4-1.8V23.1c0-2.4-1.1-3.5-3.4-3.5c-1.9,0-3.4,1.1-4.5,3.3v18c0,1.2-1.1,1.8-3.4,1.8
		h-1.6C443.8,42.8,442.7,42.2,442.7,41z"/>
	<path fill="#353635" d="M472,46.9c0-3,1.7-5.2,5.1-6.5l0.1-0.2c-1.6-0.8-2.4-2.2-2.4-4.2s1.1-3.5,3.4-4.7c-3.1-1.7-4.6-4.3-4.6-8
		s1.1-6.3,3.4-7.9c2.2-1.6,5.2-2.4,8.8-2.4c1.5,0,2.9,0.2,4.4,0.5h9.1c1.1,0,1.7,0.9,1.7,2.8v1c0,1.7-0.5,2.7-1.4,2.7
		c-0.9,0-1.8-0.1-2.4-0.2l-0.1,0.2c0.6,0.8,0.9,1.8,0.9,3.1c0,3.3-1.1,5.9-3.2,7.5c-2.1,1.7-4.9,2.4-8.3,2.4c-2.3,0-3.4,0.5-3.4,1.5
		c0,1.1,1.5,1.7,4.4,2.1c3,0.2,5.7,0.9,8.3,1.8c1.2,0.5,2.3,1.3,3.1,2.5c0.8,1.2,1.3,2.7,1.3,4.3c0,2.9-1.3,5.2-4,6.9
		c-2.7,1.7-6.2,2.6-10.6,2.6C476.5,54.6,472,52,472,46.9z M480.1,45.5c0,1.7,2,2.5,5.9,2.5c3.9,0,5.9-0.9,5.9-2.7
		c0-0.8-0.6-1.5-1.9-1.9c-1.2-0.4-3.5-0.7-6.8-0.9C481.1,43.2,480.1,44.2,480.1,45.5z M482.7,25.8c0.8,0.7,1.8,1,3.1,1
		s2.3-0.3,3.1-1s1.2-1.7,1.2-3c0-1.3-0.4-2.4-1.2-3c-0.8-0.7-1.8-1-3.1-1s-2.3,0.3-3.1,1c-0.8,0.7-1.2,1.7-1.2,3
		C481.4,24.2,481.8,25.2,482.7,25.8z"/>
</g>
<g>
	<rect x="0" y="3.7" fill="#010101" width="38" height="9.8"/>
	<rect x="0" y="18.5" fill="#010101" width="29.1" height="9.8"/>
	<rect x="0" y="33.2" fill="#010101" width="38" height="9.8"/>
</g>
<g>
	<rect x="275.7" y="3.3" fill="#19AE5C" width="38" height="9.8"/>
	<rect x="275.7" y="18.1" fill="#19AE5C" width="29.1" height="9.8"/>
	<rect x="275.7" y="32.9" fill="#19AE5C" width="38" height="9.8"/>
</g>
</svg>
