<?xml version="1.0" encoding="utf-8"?>
<!-- Generator: Adobe Illustrator 17.0.2, SVG Export Plug-In . SVG Version: 6.00 Build 0)  -->
<!DOCTYPE svg PUBLIC "-//W3C//DTD SVG 1.1//EN" "http://www.w3.org/Graphics/SVG/1.1/DTD/svg11.dtd">
<svg version="1.1" id="Layer_1" xmlns="http://www.w3.org/2000/svg" xmlns:xlink="http://www.w3.org/1999/xlink" x="0px" y="0px"
	 width="40px" height="40px" viewBox="0 0 40 40" style="enable-background:new 0 0 40 40;" xml:space="preserve">
<style type="text/css">
	.st0{opacity:0.2;fill:url(#SVGID_1_);}
	.st1{fill:#CCCCCC;}
</style>
<radialGradient id="SVGID_1_" cx="20" cy="20" r="17.7589" gradientUnits="userSpaceOnUse">
	<stop  offset="0" style="stop-color:#DEDEDE"/>
	<stop  offset="0.311" style="stop-color:#F0F0F0"/>
	<stop  offset="0.6443" style="stop-color:#FBFBFB"/>
	<stop  offset="1" style="stop-color:#FFFFFF"/>
</radialGradient>
<circle class="st0" cx="20" cy="20" r="19"/>
<g id="Contact_6_">
	<path class="st1" d="M20,1C9.5,1,1,9.5,1,20s8.5,19,19,19s19-8.5,19-19S30.5,1,20,1z M32.2,32.9c-0.2-0.1-0.5-0.2-0.7-0.3
		c0,0,0,0-0.1,0.1c-0.4-0.2-1.2-0.6-2.2-0.9c-0.9-0.3-1.8-0.5-2.7-0.7c0,0,0,0,0,0c-0.9-0.2-1.6-0.3-1.6-0.3s-0.4-1.2-0.5-2.5
		c-0.1-1.3,0.1-2.1,0.1-2.1s0.8-0.4,1.1-0.9s0.5-3.6,0.5-3.6l1-0.5l0.7-3v-1.2L27,16.1c0,0,0.4-1.7,0.4-3.6S27,8.9,27,8.9
		s-1.7-1.8-3.4-2.6c-1.7-0.8-3.3-0.8-3.3-0.8s-0.1,0-0.3,0c-0.2,0-0.3,0-0.3,0s-1.6,0-3.3,0.8C14.7,7.1,13,8.9,13,8.9
		s-0.4,1.7-0.4,3.6s0.4,3.6,0.4,3.6l-0.7,0.8v1.2l0.7,3l1,0.5c0,0,0.2,3.1,0.5,3.6s1.1,0.9,1.1,0.9s0.2,0.8,0.1,2.1
		c-0.1,1.3-0.5,2.5-0.5,2.5s-0.7,0.1-1.6,0.3c0,0,0,0,0,0c-0.9,0.2-1.8,0.4-2.7,0.7c-1,0.4-1.8,0.7-2.2,0.9c0,0,0,0-0.1-0.1
		c-0.3,0.1-0.5,0.2-0.7,0.3C4.4,29.7,2.2,25.1,2.2,20c0-9.8,8-17.8,17.8-17.8s17.8,8,17.8,17.8C37.8,25.1,35.6,29.7,32.2,32.9z"/>
</g>
</svg>
