<svg xmlns="http://www.w3.org/2000/svg" xmlns:xlink="http://www.w3.org/1999/xlink" viewBox="0 0 1400 1109.02"><defs><style>.a{fill:none;}.b,.c{opacity:0.22;}.b{fill:url(#a);}.c{fill:url(#b);}.d{fill:url(#c);}.e{clip-path:url(#d);}.f{fill:url(#e);}.g{opacity:0.61;}.h{fill:url(#f);}</style><linearGradient id="a" x1="1159.51" y1="571.91" x2="1096.07" y2="609.5" gradientUnits="userSpaceOnUse"><stop offset="0"/><stop offset="0.87" stop-opacity="0.35"/><stop offset="1" stop-opacity="0"/></linearGradient><linearGradient id="b" x1="1399.28" y1="532.04" x2="1326.3" y2="575.29" xlink:href="#a"/><radialGradient id="c" cx="918.54" cy="70.59" r="103.64" gradientUnits="userSpaceOnUse"><stop offset="0" stop-color="#a8cefc"/><stop offset="1" stop-color="#2b2c40"/></radialGradient><clipPath id="d" transform="translate(0 0)"><path class="a" d="M1400,596c-59,22-23.23,1.14-28-11-11-28-305.07,101.32-231,39C1260,523.86,473,804,.62,804V0H1399S1400,564,1400,596Z"/></clipPath><linearGradient id="e" x1="700" y1="9.97" x2="700" y2="1107.06" gradientUnits="userSpaceOnUse"><stop offset="0.3" stop-color="#3c3d58"/><stop offset="0.48" stop-color="#3e3f5b"/><stop offset="0.59" stop-color="#434763"/><stop offset="0.68" stop-color="#4d5472"/><stop offset="0.76" stop-color="#5a6686"/><stop offset="0.84" stop-color="#6c7ea1"/><stop offset="0.91" stop-color="#829bc2"/><stop offset="0.97" stop-color="#9bbce8"/><stop offset="1" stop-color="#a8cefc"/></linearGradient><linearGradient id="f" x1="699.79" y1="100.02" x2="699.79" y2="783.04" gradientUnits="userSpaceOnUse"><stop offset="0"/><stop offset="1" stop-opacity="0"/></linearGradient></defs><title>hero</title><polygon class="b" points="1129 639.08 1091 570.02 1147.38 516.47 1184 620.02 1129 639.08"/><polygon class="c" points="1366 605.02 1332 555.02 1391.38 478.47 1389.27 596.23 1366 605.02"/><circle class="d" cx="891.46" cy="96.38" r="63.65"/><g class="e"><polygon class="f" points="1400 732.02 0 1109.02 0 0 1400 0 1400 732.02"/><g class="g"><polygon class="h" points="1398.96 621.68 0.62 982.02 0.62 0 1398.96 0 1398.96 621.68"/></g></g></svg>