<?xml version="1.0" encoding="UTF-8" standalone="no"?>
<svg width="48px" height="49px" viewBox="0 0 48 49" version="1.1" xmlns="http://www.w3.org/2000/svg" xmlns:xlink="http://www.w3.org/1999/xlink" xmlns:sketch="http://www.bohemiancoding.com/sketch/ns">
    <!-- Generator: Sketch 3.2.1 (9977) - http://www.bohemiancoding.com/sketch -->
    <title>Imported Layers</title>
    <desc>Created with Sketch.</desc>
    <defs></defs>
    <g id="Page-1" stroke="none" stroke-width="1" fill="none" fill-rule="evenodd" sketch:type="MSPage">
        <g id="ROWS" sketch:type="MSArtboardGroup" transform="translate(-1102.000000, -3566.000000)">
            <rect id="Rectangle-72" fill="#FAFAFA" sketch:type="MSShapeGroup" x="0" y="3407" width="1440" height="2358"></rect>
            <rect id="Rectangle-2" stroke="#DDDDDD" fill-opacity="0.25999999" fill="#FFFFFF" sketch:type="MSShapeGroup" x="939" y="3596.76511" width="359" height="224" rx="6"></rect>
            <circle id="Oval-6" stroke="#DCDCDC" fill="#FFFFFF" sketch:type="MSShapeGroup" cx="1126" cy="3587.70205" r="37"></circle>
            <path d="M1147.97518,3568.26583 C1146.97884,3567.26949 1145.62318,3566.72158 1144.15466,3566.72158 C1142.45006,3566.72158 1140.73357,3567.46401 1139.44175,3568.75731 C1139.31109,3568.88798 1139.19378,3569.03201 1139.08984,3569.18346 L1138.43354,3570.14713 C1138.15439,3570.11892 1137.87375,3570.10407 1137.58421,3570.10407 C1136.36663,3570.10407 1135.22775,3570.38767 1134.13491,3570.96528 C1133.62857,3570.61337 1133.03612,3570.43667 1132.44366,3570.43667 C1131.68342,3570.43667 1130.92466,3570.72622 1130.34557,3571.30531 L1126.63048,3575.01446 C1126.59781,3575.04713 1126.56663,3575.07831 1126.53545,3575.11098 C1126.25927,3575.06792 1125.97715,3575.04713 1125.69206,3575.04713 C1124.20721,3575.04713 1122.75948,3575.64404 1121.72157,3576.68492 L1103.54406,3594.86095 C1101.48606,3596.91895 1101.48457,3600.02525 1103.54406,3602.08622 L1114.15033,3612.69249 C1115.14815,3613.69031 1116.43403,3614.23822 1117.77633,3614.23822 C1119.10081,3614.23822 1120.38075,3613.69031 1121.37709,3612.69398 L1139.55757,3594.51498 C1140.86424,3593.20979 1141.39433,3591.37749 1141.133,3589.69516 C1141.16269,3589.66695 1141.19091,3589.64022 1141.2206,3589.61052 L1144.93569,3585.90137 C1145.494,3585.34455 1145.8073,3584.58876 1145.8073,3583.80179 C1145.8073,3583.18855 1145.61872,3582.5961 1145.27127,3582.10016 C1146.10427,3580.52919 1146.21563,3579.07849 1146.09388,3577.80598 L1147.05754,3577.15116 C1147.21197,3577.04573 1147.356,3576.92546 1147.48963,3576.79331 C1149.97081,3574.30619 1150.1876,3570.48122 1147.97518,3568.26583 L1147.97518,3568.26583 Z M1137.458,3592.4154 L1119.279,3610.59292 C1118.80681,3611.06213 1118.28415,3611.26852 1117.77633,3611.26852 C1117.21357,3611.26852 1116.67309,3611.01461 1116.24842,3610.59292 L1105.64512,3599.98813 C1104.83884,3599.18037 1104.65472,3597.94943 1105.64512,3596.95904 L1108.00454,3594.59813 L1111.24151,3597.83807 C1111.35584,3597.94795 1111.5073,3598.0014 1111.6736,3598.0014 C1111.69588,3598.0014 1111.72112,3597.99843 1111.74488,3597.99695 C1111.93345,3597.97764 1112.13242,3597.88707 1112.29278,3597.72522 C1112.61203,3597.40598 1112.66251,3596.93825 1112.40415,3596.67543 L1109.16421,3593.43846 L1114.08203,3588.52213 L1117.319,3591.75761 C1117.43481,3591.87195 1117.58924,3591.92689 1117.75109,3591.92689 C1117.77484,3591.92689 1117.7986,3591.92689 1117.82088,3591.92392 C1118.01094,3591.90313 1118.20842,3591.8081 1118.36878,3591.64773 C1118.691,3591.32849 1118.73851,3590.85928 1118.47569,3590.59795 L1115.24169,3587.36098 L1120.15951,3582.44464 L1123.395,3585.68161 C1123.51081,3585.79446 1123.66375,3585.84643 1123.8256,3585.84643 C1123.84936,3585.84643 1123.87312,3585.84643 1123.89836,3585.84346 C1124.08842,3585.82267 1124.28739,3585.7321 1124.4433,3585.56728 C1124.76551,3585.25101 1124.816,3584.78179 1124.55615,3584.52046 L1121.31918,3581.28498 L1123.82412,3578.78152 C1124.34381,3578.26034 1125.03575,3578.01683 1125.69206,3578.01683 C1126.29045,3578.01683 1126.86063,3578.21876 1127.24521,3578.60334 L1137.63915,3588.99728 C1138.44394,3589.80207 1138.45284,3591.42055 1137.458,3592.4154 L1137.458,3592.4154 Z M1139.12251,3587.50946 L1128.72857,3577.11552 L1132.44366,3573.40637 L1142.8376,3583.80031 L1139.12251,3587.50946 L1139.12251,3587.50946 Z M1145.38709,3574.69522 L1142.84206,3576.42655 C1143.25484,3578.30786 1143.49984,3579.72737 1142.09221,3581.57007 L1134.66797,3574.14583 C1135.72369,3573.33658 1136.63984,3573.07376 1137.58421,3573.07376 C1138.28803,3573.07376 1139.00818,3573.22076 1139.81297,3573.39598 L1141.5443,3570.8554 C1142.30603,3570.0907 1143.27118,3569.69128 1144.15466,3569.69128 C1144.80948,3569.69128 1145.42124,3569.91252 1145.87412,3570.36392 C1146.9343,3571.42558 1146.71454,3573.36479 1145.38709,3574.69522 L1145.38709,3574.69522 Z" id="Imported-Layers" fill="#384651" sketch:type="MSShapeGroup"></path>
        </g>
    </g>
</svg>