<?xml version="1.0" encoding="UTF-8" standalone="no"?>
<svg width="49px" height="49px" viewBox="0 0 49 49" version="1.1" xmlns="http://www.w3.org/2000/svg" xmlns:xlink="http://www.w3.org/1999/xlink" xmlns:sketch="http://www.bohemiancoding.com/sketch/ns">
    <!-- Generator: Sketch 3.2.1 (9977) - http://www.bohemiancoding.com/sketch -->
    <title>Imported Layers</title>
    <desc>Created with Sketch.</desc>
    <defs></defs>
    <g id="Page-1" stroke="none" stroke-width="1" fill="none" fill-rule="evenodd" sketch:type="MSPage">
        <g id="ROWS" sketch:type="MSArtboardGroup" transform="translate(-699.000000, -3566.000000)">
            <rect id="Rectangle-72" fill="#FAFAFA" sketch:type="MSShapeGroup" x="0" y="3407" width="1440" height="2358"></rect>
            <rect id="Rectangle-2" stroke="#DDDDDD" fill-opacity="0.25999999" fill="#FFFFFF" sketch:type="MSShapeGroup" x="540" y="3596.76511" width="359" height="224" rx="6"></rect>
            <circle id="Oval-6" stroke="#DCDCDC" fill="#FFFFFF" sketch:type="MSShapeGroup" cx="721" cy="3587.70205" r="37"></circle>
            <g id="Imported-Layers" sketch:type="MSLayerGroup" transform="translate(699.000000, 3566.721583)" fill="#384651">
                <path d="M47.3919091,20.3298485 L28.0918485,1.76924242 C27.538,1.23618182 26.8000303,0.94069697 26.0338485,0.94069697 C26.0086061,0.94069697 25.9833636,0.94069697 25.9581212,0.942181818 C25.1652121,0.96 24.4138788,1.29706061 23.8704242,1.87615152 L22.2073939,3.64460606 L20.6646364,2.10184848 C19.433697,0.873878788 17.7959091,0.198272727 16.0541818,0.198272727 C14.3139394,0.198272727 12.6776364,0.872393939 11.446697,2.09590909 L2.695,10.8520606 C1.4670303,12.0815152 0.789939394,13.719303 0.789939394,15.4654848 C0.789939394,17.2101818 1.46851515,18.8464848 2.6979697,20.0744545 L4.30309091,21.6780909 L3.26518182,22.7174848 C0.253909091,25.724303 0.0712727273,30.4461212 2.85981818,33.2420909 L15.3459091,45.7296667 C16.6243636,47.0081212 18.3631212,47.7134242 20.2399697,47.7134242 C22.3024242,47.7134242 24.3559697,46.8447879 25.872,45.3302424 L27.8305152,43.3702424 C27.9225758,43.3004545 28.0116667,43.2247273 28.096303,43.1430606 L47.3919091,24.6121515 C47.9754545,24.0523636 48.3036061,23.2802424 48.3036061,22.4724848 C48.3065758,21.6632424 47.9754545,20.8896364 47.3919091,20.3298485 L47.3919091,20.3298485 Z M26.0397879,41.0004242 L26.019,40.9811212 L23.7739091,43.2291818 C22.7701515,44.2314545 21.4753636,44.7437273 20.2399697,44.7437273 C19.1931515,44.7437273 18.1938485,44.3784545 17.4454848,43.6300909 L4.96236364,31.144 C3.33645455,29.5136364 3.51315152,26.665697 5.36475758,24.8170606 L8.00630303,22.1740303 L8.50372727,21.6780909 L4.79606061,17.9719091 C3.41366667,16.5939697 3.41366667,14.3325455 4.79606061,12.9531212 L13.5418182,4.20142424 C14.2337576,3.51245455 15.1424848,3.1679697 16.0541818,3.1679697 C16.9629091,3.1679697 17.8746061,3.51245455 18.5635758,4.20142424 L22.2727273,7.90909091 L26.0338485,3.91039394 L45.3353939,22.471 L26.0397879,41.0004242 L26.0397879,41.0004242 Z" id="Fill-1" sketch:type="MSShapeGroup"></path>
                <path d="M19.7573939,10.2789091 L16.0512121,6.42275758 L16.0541818,6.13766667 L16.0437879,6.13766667 L7.30693939,15.1744545 L11.0131212,19.168697 L17.365303,12.8165152 L19.7573939,10.2789091" id="Fill-2" sketch:type="MSShapeGroup"></path>
                <path d="M19.5673333,17.3245152 C16.0898182,20.8020303 17.2895758,28.9597879 17.4380606,29.8789091 L17.610303,30.9524545 L18.6868182,31.1113333 C18.7610606,31.1232121 20.5473333,31.3830606 22.7909394,31.3830606 C26.7926061,31.3830606 29.6316364,30.5738182 31.2248788,28.9790909 C33.1700303,27.0354242 33.8768182,23.4079394 31.781697,21.3098485 C30.9457273,20.4738788 29.841,19.9823939 28.6412424,19.9051818 C28.5625455,18.7291818 28.0844242,17.6110909 27.244,16.7706667 C26.4243636,15.9495455 25.2617273,15.4981515 23.9699091,15.4981515 C22.3558788,15.4981515 20.7091818,16.1811818 19.5673333,17.3245152 L19.5673333,17.3245152 Z M26.8980303,21.6498788 C27.3553636,21.4702121 27.8364545,21.3796364 28.3101212,21.3796364 C29.204,21.3796364 30.0741212,21.7018485 30.7319091,22.3581515 C32.114303,23.7435152 31.6688485,26.4355455 30.1750909,27.9278182 C28.5714545,29.5314545 25.3730909,29.8982121 22.7909394,29.8982121 C20.6319697,29.8982121 18.9036061,29.6428182 18.9036061,29.6428182 C18.9036061,29.6428182 17.5761515,21.4152727 20.6186061,18.374303 C21.491697,17.4997273 22.7775758,16.983 23.9699091,16.983 C24.8162727,16.983 25.6166061,17.2428485 26.1927273,17.8189697 C27.195,18.8242121 27.4177273,20.3268788 26.8980303,21.6498788 L26.8980303,21.6498788 Z" id="Fill-3" sketch:type="MSShapeGroup"></path>
            </g>
        </g>
    </g>
</svg>