<?xml version="1.0" encoding="UTF-8" standalone="no"?>
<svg width="51px" height="50px" viewBox="0 0 51 50" version="1.1" xmlns="http://www.w3.org/2000/svg" xmlns:xlink="http://www.w3.org/1999/xlink" xmlns:sketch="http://www.bohemiancoding.com/sketch/ns">
    <!-- Generator: Sketch 3.2.1 (9977) - http://www.bohemiancoding.com/sketch -->
    <title>Imported Layers</title>
    <desc>Created with Sketch.</desc>
    <defs></defs>
    <g id="Page-1" stroke="none" stroke-width="1" fill="none" fill-rule="evenodd" sketch:type="MSPage">
        <g id="ROWS" sketch:type="MSArtboardGroup" transform="translate(-296.000000, -3560.000000)">
            <rect id="Rectangle-72" fill="#FAFAFA" sketch:type="MSShapeGroup" x="0" y="3407" width="1440" height="2358"></rect>
            <rect id="Rectangle-2" stroke="#DDDDDD" fill-opacity="0.25999999" fill="#FFFFFF" sketch:type="MSShapeGroup" x="141" y="3596.72158" width="359" height="224" rx="6"></rect>
            <circle id="Oval-6" stroke="#DCDCDC" fill="#FFFFFF" sketch:type="MSShapeGroup" cx="320" cy="3587.70205" r="37"></circle>
            <g id="Imported-Layers" sketch:type="MSLayerGroup" transform="translate(296.000000, 3560.721583)" fill="#384651">
                <path d="M49.2907273,24.8598437 L25.0997273,0.8973125 C24.5109091,0.31390625 23.7227273,0 22.9144545,0 C22.6115455,0 22.3070909,0.042875 22.0072727,0.13475 C20.9146364,0.46703125 20.0955455,1.372 19.8791818,2.4836875 L14.8317273,28.4843125 L11.6604545,31.6203125 C10.3452727,31.084375 8.96672727,30.7980313 7.62063636,30.7980313 C5.30709091,30.7980313 3.18672727,31.6340937 1.64745455,33.1530937 C1.06636364,33.7273125 0.740272727,34.50825 0.740272727,35.3213437 C0.740272727,36.1359688 1.06636364,36.915375 1.64745455,37.4895937 L7.01481818,42.795375 L8.14763636,43.91625 L12.3868182,48.10575 C12.988,48.7029375 13.7792727,49 14.569,49 C15.3587273,49 16.15,48.7014062 16.7542727,48.1042188 C19.2486364,45.6343125 19.7771818,41.7495313 18.3043636,38.1955 L21.5080909,35.02275 L47.6880909,30.0324063 C48.8116364,29.8195625 49.725,29.0064687 50.0603636,27.923875 C50.3941818,26.83975 50.099,25.6622188 49.2907273,24.8598437 L49.2907273,24.8598437 Z M19.9950909,32.1914687 L14.4870909,37.64425 C16.49,40.443375 16.6043636,43.922375 14.569,45.9375 L10.3313636,41.7495313 L10.3313636,41.7510625 L9.19854545,40.627125 L3.83272727,35.3213438 C4.82645455,34.3382812 6.17254545,33.8605313 7.62063636,33.8605313 C9.13672727,33.8605313 10.7656364,34.38575 12.2137273,35.4009687 L17.6861818,29.9849375 L22.9144545,3.0625 L47.1039091,27.0250313 L19.9950909,32.1914687 L19.9950909,32.1914687 Z" id="Fill-1" sketch:type="MSShapeGroup"></path>
                <path d="M40.7969091,25.1094375 L32.4545455,16.84375 L23.3873636,16.84375 L21.0506364,28.87325 L40.7969091,25.1094375 L40.7969091,25.1094375 Z M27.7857273,19.90625 C29.0684545,19.90625 30.1039091,20.93525 30.1039091,22.203125 C30.1039091,23.471 29.0684545,24.5 27.7857273,24.5 C26.5045455,24.5 25.4675455,23.471 25.4675455,22.203125 C25.4675455,20.93525 26.5045455,19.90625 27.7857273,19.90625 L27.7857273,19.90625 Z" id="Fill-2" sketch:type="MSShapeGroup"></path>
            </g>
        </g>
    </g>
</svg>