<?xml version="1.0" encoding="UTF-8" standalone="no"?>
<svg width="73px" height="72px" viewBox="0 0 73 72" version="1.1" xmlns="http://www.w3.org/2000/svg" xmlns:xlink="http://www.w3.org/1999/xlink">
    <g id="Page-1" stroke="none" stroke-width="1" fill="none" fill-rule="evenodd">
        <g id="04-AboutUs" transform="translate(-684.000000, -754.000000)" fill-rule="nonzero" fill="#9B75B0">
            <g id="about-us-icon-1M-users" transform="translate(684.000000, 754.000000)">
                <g id="Group-21">
                    <path d="M46.6894996,41.9513647 C47.1793061,41.811594 47.6000605,41.5467478 47.9736973,41.1392134 C50.5542034,38.3264231 50.0105159,30.014002 49.830972,27.2827553 C49.548239,22.9544707 45.9561942,20.5102785 39.1551748,20.0155985 C38.5579483,19.9723817 34.4267533,19.9747606 33.8293971,20.0203563 C29.1672188,20.3737558 23.5312254,21.921894 23.1502294,27.2897599 C22.6626737,34.1579216 23.4053503,39.2177193 25.1882147,41.1718573 C25.5410615,41.5594481 25.9261096,41.8131085 26.3633499,41.9492506 L26.5475514,30.320481 C26.5606722,29.4921578 27.2427973,28.8313057 28.0711205,28.8444264 C28.8994437,28.8575472 29.5602959,29.5396723 29.5471751,30.3679955 L29.3534201,42.5998839 C29.3899658,55.411531 30.7341647,66.3516378 30.7567981,66.4955603 C30.8048925,67.9177487 31.8095606,68.9141132 33.0580713,68.9141132 L35.0088025,68.9141132 L35.0088025,42.9201252 C35.0088025,41.5886791 35.4527753,40.9366505 36.4911841,40.9366505 C37.5294296,40.9366505 38.0066662,41.6067455 38.0066662,42.9201252 L38.0066662,68.9141132 L39.9242968,68.9141132 C41.1728076,68.9141132 42.1774756,67.9177487 42.2116991,66.6459599 C43.6811829,53.5054932 43.4467281,43.3646623 43.6811829,42.0691007 C43.6844588,42.0691007 43.6877273,42.0691007 43.6909883,42.0691007 L43.5001881,30.0237573 C43.4870674,29.195434 44.1479195,28.5133089 44.9762427,28.5001881 C45.804566,28.4870674 46.4866911,29.1479195 46.4998119,29.9762427 L46.6894996,41.9513647 Z M35.0088025,68.9141132 L38.0066662,68.9141132 L38.0066662,71.9141132 L33.0580713,71.9141132 C30.1939798,71.9141132 27.9637513,69.6784009 27.7688717,66.8011634 C27.6930464,66.2865336 27.5670937,65.3105591 27.4315593,64.0803163 C27.185451,61.846397 26.9600842,59.2598571 26.7777625,56.3479281 C26.5525371,52.7507693 26.4104719,48.9667884 26.366281,45.0129773 C25.0507993,44.8295147 23.8992956,44.2124414 22.971997,43.1938312 C20.4533541,40.4332314 19.615038,34.7226141 20.1577576,27.0773626 C20.5520069,21.5227708 24.4829851,18.5811498 30.2845223,17.4618461 C32.6032058,17.0144973 37.8745117,16.7004902 42.7025689,17.4552562 C48.8303117,18.6461281 52.4829573,21.8572128 52.8245109,27.0859691 C53.0109642,29.9403349 53.0728582,31.9823487 52.9321007,34.3578553 C52.6995015,38.2833378 51.9474695,41.2454436 50.1849878,43.1665748 C49.2165542,44.222868 48.004784,44.8419276 46.6158732,45.018733 C46.5513674,50.4296687 46.3010706,55.5210013 45.9087577,60.235307 C45.7540241,62.0946942 45.5881484,63.7448057 45.4203573,65.1831873 C45.3491653,65.7934776 45.2420445,66.630292 45.2006312,66.9415481 C45.016702,69.7247 42.7385627,71.9141132 39.9242968,71.9141132 L35.0088025,71.9141132 L35.0088025,68.9141132 Z M36.5,16 C33.0057102,16 29,11.4857327 29,7.5 C29,3.35786438 32.3578644,0 36.5,0 C40.6421356,0 44,3.35786438 44,7.5 C44,11.4857327 39.9942898,16 36.5,16 Z M36.5,13 C38.2522779,13 41,9.90343248 41,7.5 C41,5.01471863 38.9852814,3 36.5,3 C34.0147186,3 32,5.01471863 32,7.5 C32,9.90343248 34.7477221,13 36.5,13 Z" id="Combined-Shape"></path>
                    <path d="M21.811128,67.9092364 C21.3997161,68.5191852 20.7103323,68.9141132 19.9242968,68.9141132 L18.0066662,68.9141132 L18.0066662,42.9201252 C18.0066662,41.6067455 17.5294296,40.9366505 16.4911841,40.9366505 C15.4527753,40.9366505 15.0088025,41.5886791 15.0088025,42.9201252 L15.0088025,68.9141132 L13.0580713,68.9141132 C11.8095606,68.9141132 10.8048925,67.9177487 10.7567981,66.4955603 C10.7341647,66.3516378 9.38996575,55.411531 9.35342012,42.5998839 L9.54717513,30.3679955 C9.5602959,29.5396723 8.89944375,28.8575472 8.07112053,28.8444264 C7.24279732,28.8313057 6.5606722,29.4921578 6.54755143,30.320481 L6.36334991,41.9492506 C5.9261096,41.8131085 5.54106152,41.5594481 5.18821475,41.1718573 C3.40535026,39.2177193 2.66267371,34.1579216 3.1502294,27.2897599 C3.53122545,21.921894 9.16721877,20.3737558 13.8293971,20.0203563 C14.4267533,19.9747606 18.5579483,19.9723817 19.1551748,20.0155985 C19.3107058,20.0269112 19.4645586,20.0392435 19.6167319,20.0525945 C20.38277,19.0486905 21.3156141,18.1674021 22.4016012,17.4096619 C17.6571106,16.7135736 12.5551124,17.023776 10.2845223,17.4618461 C4.48298508,18.5811498 0.552006941,21.5227708 0.157757606,27.0773626 C-0.384961971,34.7226141 0.453354141,40.4332314 2.97199696,43.1938312 C3.89929562,44.2124414 5.05079928,44.8295147 6.36628096,45.0129773 C6.41047194,48.9667884 6.5525371,52.7507693 6.77776247,56.3479281 C6.96008422,59.2598571 7.18545105,61.846397 7.43155928,64.0803163 C7.56709368,65.3105591 7.69304642,66.2865336 7.76887168,66.8011634 C7.96375135,69.6784009 10.1939798,71.9141132 13.0580713,71.9141132 L18.0066662,71.9141132 L18.0066662,68.9141132 L15.0088025,68.9141132 L15.0088025,71.9141132 L19.9242968,71.9141132 C21.416692,71.9141132 22.7583206,71.2984189 23.7168306,70.3049884 L21.811128,67.9092364 Z M53.3453468,20.0611484 C53.5076792,20.0460678 53.6691136,20.032506 53.8293971,20.0203563 C54.4267533,19.9747606 58.5579483,19.9723817 59.1551748,20.0155985 C65.9561942,20.5102785 69.548239,22.9544707 69.830972,27.2827553 C70.0105159,30.014002 70.5542034,38.3264231 67.9736973,41.1392134 C67.6000605,41.5467478 67.1793061,41.811594 66.6894996,41.9513647 L66.4998119,29.9762427 C66.4866911,29.1479195 65.804566,28.4870674 64.9762427,28.5001881 C64.1479195,28.5133089 63.4870674,29.195434 63.5001881,30.0237573 L63.6909883,42.0691007 L63.6811829,42.0691007 C63.4467281,43.3646623 63.6811829,53.5054932 62.2116991,66.6459599 C62.1774756,67.9177487 61.1728076,68.9141132 59.9242968,68.9141132 L58.0066662,68.9141132 L58.0066662,42.9201252 C58.0066662,41.6067455 57.5294296,40.9366505 56.4911841,40.9366505 C55.4527753,40.9366505 55.0088025,41.5886791 55.0088025,42.9201252 L55.0088025,68.9141132 L53.0580713,68.9141132 C52.1854379,68.9141132 51.4319256,68.4273728 51.0408917,67.6486994 L51.0408917,67.6486994 L49.0937989,70.096485 C50.053884,71.2153944 51.4569282,71.9141132 53.0580713,71.9141132 L58.0066662,71.9141132 L58.0066662,68.9141132 L55.0088025,68.9141132 L55.0088025,71.9141132 L59.9242968,71.9141132 C62.7385627,71.9141132 65.016702,69.7247 65.2006312,66.9415481 C65.2420445,66.630292 65.3491653,65.7934776 65.4203573,65.1831873 C65.5881484,63.7448057 65.7540241,62.0946942 65.9087577,60.235307 C66.3010706,55.5210013 66.5513674,50.4296687 66.6158732,45.018733 C68.004784,44.8419276 69.2165542,44.222868 70.1849878,43.1665748 C71.9474695,41.2454436 72.6995015,38.2833378 72.9321007,34.3578553 C73.0728582,31.9823487 73.0109642,29.9403349 72.8245109,27.0859691 C72.4829573,21.8572128 68.8303117,18.6461281 62.7025689,17.4552562 C58.0442181,16.7270202 52.9732313,16.9937431 50.5398244,17.415208 C51.6363437,18.1786765 52.5753933,19.0623058 53.3453468,20.0611484 Z M56.5,16 C53.0057102,16 49,11.4857327 49,7.5 C49,3.35786438 52.3578644,0 56.5,0 C60.6421356,0 64,3.35786438 64,7.5 C64,11.4857327 59.9942898,16 56.5,16 Z M56.5,13 C58.2522779,13 61,9.90343248 61,7.5 C61,5.01471863 58.9852814,3 56.5,3 C54.0147186,3 52,5.01471863 52,7.5 C52,9.90343248 54.7477221,13 56.5,13 Z M16.5,16 C13.0057102,16 9,11.4857327 9,7.5 C9,3.35786438 12.3578644,0 16.5,0 C20.6421356,0 24,3.35786438 24,7.5 C24,11.4857327 19.9942898,16 16.5,16 Z M16.5,13 C18.2522779,13 21,9.90343248 21,7.5 C21,5.01471863 18.9852814,3 16.5,3 C14.0147186,3 12,5.01471863 12,7.5 C12,9.90343248 14.7477221,13 16.5,13 Z" id="Combined-Shape" fill-opacity="0.5"></path>
                </g>
            </g>
        </g>
    </g>
</svg>