<svg width="73" height="72" viewBox="0 0 73 72" xmlns="http://www.w3.org/2000/svg"><g fill-rule="nonzero" fill="#9B75B0"><path d="M46.69 41.95c.49-.138.91-.403 1.284-.81 2.58-2.814 2.037-11.126 1.857-13.857-.282-4.33-3.874-6.773-10.675-7.267-.597-.044-4.728-.04-5.326.004-4.663.354-10.3 1.902-10.68 7.27-.487 6.868.255 11.928 2.038 13.882.353.387.738.64 1.175.777l.185-11.63c.013-.828.695-1.49 1.523-1.476.83.014 1.49.696 1.477 1.524L29.353 42.6c.037 12.812 1.38 23.752 1.404 23.896.048 1.422 1.053 2.418 2.3 2.418h1.952V42.92c0-1.33.443-1.983 1.48-1.983 1.04 0 1.517.67 1.517 1.983v25.994h1.917c1.25 0 2.253-.996 2.288-2.268 1.47-13.14 1.235-23.28 1.47-24.577h.01L43.5 30.023c-.013-.83.648-1.51 1.476-1.524.83-.013 1.51.648 1.524 1.476l.19 11.975zM35.01 68.915h2.997v3h-4.95c-2.863 0-5.093-2.236-5.288-5.113-.077-.513-.203-1.49-.338-2.72-.247-2.234-.472-4.82-.654-7.732-.225-3.597-.368-7.38-.412-11.335-1.315-.183-2.467-.8-3.394-1.82-2.52-2.76-3.357-8.47-2.814-16.116.394-5.554 4.325-8.496 10.127-9.615 2.318-.448 7.59-.762 12.418-.007 6.127 1.19 9.78 4.402 10.122 9.63.186 2.855.248 4.897.107 7.273-.232 3.925-.985 6.887-2.747 8.81-.968 1.055-2.18 1.674-3.57 1.85-.064 5.412-.314 10.503-.706 15.217-.156 1.86-.322 3.51-.49 4.948-.07.61-.178 1.447-.22 1.76-.183 2.782-2.46 4.97-5.276 4.97H35.01v-3zM36.5 16c-3.494 0-7.5-4.514-7.5-8.5C29 3.358 32.358 0 36.5 0 40.642 0 44 3.358 44 7.5c0 3.986-4.006 8.5-7.5 8.5zm0-3c1.752 0 4.5-3.097 4.5-5.5C41 5.015 38.985 3 36.5 3S32 5.015 32 7.5c0 2.403 2.748 5.5 4.5 5.5z"/><path d="M21.81 67.91c-.41.61-1.1 1.004-1.886 1.004h-1.917V42.92c0-1.313-.478-1.983-1.516-1.983-1.037 0-1.48.652-1.48 1.983v25.994h-1.952c-1.248 0-2.253-.996-2.3-2.418-.024-.144-1.368-11.084-1.405-23.896l.194-12.232c.013-.828-.648-1.51-1.476-1.524-.827-.013-1.51.648-1.522 1.476l-.185 11.63c-.437-.137-.822-.39-1.175-.778-1.783-1.954-2.525-7.014-2.038-13.882.38-5.368 6.017-6.916 10.68-7.27.597-.045 4.728-.048 5.325-.004.156.01.31.023.462.037.766-1.004 1.7-1.886 2.785-2.643-4.745-.696-9.847-.386-12.117.052-5.802 1.12-9.733 4.06-10.127 9.615-.543 7.646.295 13.356 2.814 16.117.927 1.018 2.08 1.636 3.394 1.82.044 3.953.187 7.737.412 11.334.182 2.912.407 5.498.654 7.732.135 1.23.26 2.207.337 2.72.194 2.878 2.424 5.114 5.288 5.114h4.95v-3h-3v3h4.916c1.493 0 2.834-.616 3.793-1.61L21.81 67.91zm31.535-47.85l.484-.04c.597-.045 4.728-.048 5.325-.004 6.8.494 10.393 2.938 10.676 7.267.18 2.73.724 11.043-1.856 13.856-.374.407-.795.672-1.285.81l-.19-11.974c-.013-.828-.695-1.49-1.524-1.476-.828.013-1.49.695-1.476 1.524l.19 12.045h-.01c-.233 1.295 0 11.435-1.468 24.576-.035 1.272-1.04 2.268-2.288 2.268h-1.917V42.92c0-1.313-.478-1.983-1.516-1.983-1.037 0-1.48.652-1.48 1.983v25.994h-1.952c-.873 0-1.626-.487-2.017-1.265l-1.946 2.446c.96 1.12 2.363 1.818 3.964 1.818h4.95v-3h-3v3h4.916c2.815 0 5.093-2.19 5.277-4.972.042-.312.15-1.15.22-1.76.168-1.437.334-3.087.49-4.947.39-4.714.64-9.805.706-15.216 1.39-.178 2.6-.797 3.57-1.853 1.76-1.922 2.514-4.884 2.746-8.81.14-2.375.08-4.417-.107-7.27-.342-5.23-3.995-8.44-10.122-9.632-4.66-.728-9.73-.46-12.163-.04 1.096.764 2.035 1.647 2.805 2.646zM56.5 16c-3.494 0-7.5-4.514-7.5-8.5C49 3.358 52.358 0 56.5 0 60.642 0 64 3.358 64 7.5c0 3.986-4.006 8.5-7.5 8.5zm0-3c1.752 0 4.5-3.097 4.5-5.5C61 5.015 58.985 3 56.5 3S52 5.015 52 7.5c0 2.403 2.748 5.5 4.5 5.5zm-40 3C13.006 16 9 11.486 9 7.5 9 3.358 12.358 0 16.5 0 20.642 0 24 3.358 24 7.5c0 3.986-4.006 8.5-7.5 8.5zm0-3c1.752 0 4.5-3.097 4.5-5.5C21 5.015 18.985 3 16.5 3S12 5.015 12 7.5c0 2.403 2.748 5.5 4.5 5.5z" fill-opacity=".5"/></g></svg>