<?xml version="1.0" encoding="UTF-8" standalone="no"?>
<svg width="70px" height="63px" viewBox="0 0 70 63" version="1.1" xmlns="http://www.w3.org/2000/svg" xmlns:xlink="http://www.w3.org/1999/xlink">
    <g id="Page-1" stroke="none" stroke-width="1" fill="none" fill-rule="evenodd">
        <g id="04-AboutUs" transform="translate(-1085.000000, -760.000000)" fill="#9B75B0">
            <g id="about-us-icon-hours-saved" transform="translate(1085.000000, 759.000000)">
                <path d="M11.8204319,51.7614173 L13.9178143,49.5402233 C18.8050448,56.4720993 26.8737484,61 36,61 C50.9116882,61 63,48.9116882 63,34 C63,28.3766663 61.2809056,23.1548486 58.3395875,18.8314178 L60.4730203,16.6444349 C63.9536037,21.5435224 66,27.5327805 66,34 C66,50.5685425 52.5685425,64 36,64 C26.0783806,64 17.2816843,59.1836321 11.8204319,51.7614173 Z M7.45978549,43.2704989 C6.51214469,40.3510495 6,37.2353336 6,34 C6,17.4314575 19.4314575,4 36,4 C42.8530515,4 49.1694104,6.2978545 54.2206279,10.1651148 L52.1088745,12.3298743 C47.6120217,8.98159735 42.0374243,7 36,7 C21.0883118,7 9,19.0883118 9,34 C9,36.3275266 9.29451086,38.5862664 9.84829988,40.7409869 L7.45978549,43.2704989 Z M15.9908877,34.2357928 L14.3305888,35.9941017 L13.0153886,36 L13,33.0132412 L15.984456,33 L15.9908877,34.2357928 Z M16.7152008,46.5777029 L18.8525538,44.3141787 L19.6717199,45.7185893 L17.0930076,47.2253582 L16.7152008,46.5777029 Z M53.3151206,23.9820012 L55.4789903,21.7638174 L56.9108123,24.2185893 L54.3321,25.7253582 L53.3151206,23.9820012 Z M48.9176607,15.6011891 L47.2011865,17.3607476 L45.1473015,16.1871862 L46.627354,13.5928829 L49.2185893,15.0736437 L48.9176607,15.6011891 Z M58.984456,33 L59,35.9866149 L56.0153886,36 L56,33.0132412 L58.984456,33 Z M37.984456,54 L38,56.9866149 L35.0153886,57 L35,54.0132412 L37.984456,54 Z M37.984456,11 L38,13.9866149 L35.0153886,14 L35,11.0132412 L37.984456,11 Z M48.3582534,53.4051228 L45.7795411,54.9118917 L44.2756435,52.333835 L46.8545582,50.8271287 L48.3582534,53.4051228 Z M26.8582534,16.1660304 L24.2795411,17.6727994 L22.7756435,15.0947426 L25.3545582,13.5880363 L26.8582534,16.1660304 Z M56.4051228,44.6262026 L54.9252769,47.2204589 L52.333835,45.7397451 L53.8138875,43.1454418 L56.4051228,44.6262026 Z M19.1660304,23.1262026 L17.6861845,25.7204589 L15.0947426,24.2397451 L16.5747951,21.6454418 L19.1660304,23.1262026 Z M27.7185893,52.3127361 L26.2387434,54.9069924 L23.6473015,53.4262786 L25.127354,50.8319753 L27.7185893,52.3127361 Z" id="Combined-Shape"></path>
                <path d="M35.1930548,30.5864233 C35.8105079,30.272417 36.5099003,30.0953114 37.2508453,30.0953114 C39.7524394,30.0953114 41.7803822,32.1141151 41.7803822,34.6044357 C41.7803822,37.0947564 39.7524394,39.1135601 37.2508453,39.1135601 C34.7492511,39.1135601 32.7213084,37.0947564 32.7213084,34.6044357 C32.7213084,32.851721 33.7258494,31.332572 35.1930548,30.5864233 C34.2739196,31.0538503 33.536354,31.8246361 33.1135768,32.7661622 L29.202242,29.0886927 L2.69009825,57.4844341 C2.69009825,57.4844341 1.39745524,58.5799104 0.419847187,57.5732856 C-0.557760869,56.5666608 0.478266828,55.4378929 0.478266828,55.4378929 L29.0627101,24.8226222 L35.1930548,30.5864233 Z M61.686918,7.51550839 L59.0699655,5.00062727 L70.0008889,0.997790896 L66.1556147,11.8099085 L63.8595035,9.60335455 L41.3144261,32.6101738 C40.8569122,31.6880698 40.0920135,30.9441233 39.1529682,30.5109721 L61.686918,7.51550839 Z M37.2508453,36.1074772 C38.08471,36.1074772 38.7606909,35.4345426 38.7606909,34.6044357 C38.7606909,33.7743289 38.08471,33.1013943 37.2508453,33.1013943 C36.4169806,33.1013943 35.7409996,33.7743289 35.7409996,34.6044357 C35.7409996,35.4345426 36.4169806,36.1074772 37.2508453,36.1074772 Z" id="Combined-Shape" fill-opacity="0.5" fill-rule="nonzero"></path>
            </g>
        </g>
    </g>
</svg>