<svg width="70" height="63" viewBox="0 0 70 63" xmlns="http://www.w3.org/2000/svg">
  <g fill="#9B75B0" fill-rule="evenodd">
    <path d="M11.82 50.76l2.098-2.22C18.805 55.472 26.874 60 36 60c14.912 0 27-12.088 27-27 0-5.623-1.72-10.845-4.66-15.17l2.133-2.186C63.953 20.544 66 26.534 66 33c0 16.57-13.43 30-30 30-9.922 0-18.718-4.816-24.18-12.24zm-4.36-8.49C6.512 39.35 6 36.235 6 33 6 16.43 19.43 3 36 3c6.853 0 13.17 2.298 18.22 6.165l-2.11 2.165C47.61 7.982 42.036 6 36 6 21.088 6 9 18.088 9 33c0 2.328.295 4.586.848 6.74L7.46 42.27zm8.53-9.034l-1.66 1.758-1.315.006L13 32.013 15.984 32l.007 1.236zm.725 12.342l2.138-2.264.82 1.405-2.58 1.505-.378-.647zm36.6-22.596l2.164-2.218 1.43 2.455-2.578 1.505-1.017-1.743zm-4.397-8.38L47.2 16.36l-2.053-1.175 1.48-2.594 2.592 1.48-.302.528zM58.984 32L59 34.987 56.015 35 56 32.013 58.984 32zm-21 21L38 55.987 35.015 56 35 53.013 37.984 53zm0-43L38 12.987 35.015 13 35 10.013 37.984 10zm10.374 42.405l-2.578 1.507-1.504-2.578 2.58-1.507 1.502 2.578zm-21.5-37.24l-2.578 1.508-1.504-2.578 2.58-1.507 1.502 2.578zm29.547 28.46l-1.48 2.595-2.59-1.48 1.48-2.595 2.59 1.48zm-37.24-21.5l-1.48 2.595-2.59-1.48 1.48-2.595 2.59 1.48zm8.554 29.188l-1.48 2.594-2.593-1.48 1.48-2.595 2.592 1.48z"/>
    <path d="M35.193 29.586c.618-.314 1.317-.49 2.058-.49 2.502 0 4.53 2.018 4.53 4.508s-2.028 4.51-4.53 4.51c-2.5 0-4.53-2.02-4.53-4.51 0-1.752 1.006-3.27 2.473-4.018-.92.468-1.657 1.24-2.08 2.18l-3.91-3.677L2.69 56.483s-1.293 1.096-2.27.09c-.978-1.007.058-2.136.058-2.136l28.585-30.615 6.13 5.763zm26.494-23.07L59.07 4 70 0 66.157 10.81 63.86 8.603 41.314 31.61c-.457-.922-1.222-1.666-2.16-2.1L61.686 6.517zM37.25 35.106c.835 0 1.51-.67 1.51-1.502 0-.83-.675-1.503-1.51-1.503-.833 0-1.51.674-1.51 1.504s.677 1.503 1.51 1.503z" fill-opacity=".5" fill-rule="nonzero"/>
  </g>
</svg>
