<svg width="63" height="68" viewBox="0 0 63 68" xmlns="http://www.w3.org/2000/svg">
  <g fill="#9B75B0" fill-rule="evenodd">
    <path d="M30 53.15V45H4c-2.21 0-4-1.787-4-4.007v-8.986c0-.95.328-1.82.877-2.507C.327 28.815 0 27.943 0 26.993v-8.986c0-.95.328-1.82.877-2.507C.327 14.815 0 13.943 0 12.993V4.007C0 1.794 1.784 0 4 0h55c2.21 0 4 1.787 4 4.007v8.986c0 .95-.328 1.82-.877 2.507.55.685.877 1.557.877 2.507v8.986c0 .95-.328 1.82-.877 2.507.55.685.877 1.557.877 2.507v8.986C63 43.206 61.216 45 59 45H33v8.15c2.94.597 5.253 2.91 5.85 5.85h12.64c.835 0 1.51.666 1.51 1.5 0 .828-.666 1.5-1.51 1.5H38.85c-.695 3.423-3.722 6-7.35 6-3.628 0-6.655-2.577-7.35-6H11.51c-.835 0-1.51-.666-1.51-1.5 0-.828.666-1.5 1.51-1.5h12.64c.597-2.94 2.91-5.253 5.85-5.85zM3 4.992v7.016C3 13.1 3.893 14 4.995 14h53.01c1.1 0 1.995-.892 1.995-1.992V4.992C60 3.9 59.107 3 58.005 3H4.995C3.895 3 3 3.892 3 4.992zm0 14v7.016C3 27.1 3.893 28 4.995 28h53.01c1.1 0 1.995-.892 1.995-1.992v-7.016C60 17.9 59.107 17 58.005 17H4.995C3.895 17 3 17.892 3 18.992zm0 14v7.016C3 41.1 3.893 42 4.995 42h53.01c1.1 0 1.995-.892 1.995-1.992v-7.016C60 31.9 59.107 31 58.005 31H4.995C3.895 31 3 31.892 3 32.992zM31.5 65c2.485 0 4.5-2.015 4.5-4.5S33.985 56 31.5 56 27 58.015 27 60.5s2.015 4.5 4.5 4.5z"/>
    <path d="M6 8.5C6 7.672 6.666 7 7.5 7 8.328 7 9 7.666 9 8.5c0 .828-.666 1.5-1.5 1.5C6.672 10 6 9.334 6 8.5zm4 0c0-.828.666-1.5 1.5-1.5.828 0 1.5.666 1.5 1.5 0 .828-.666 1.5-1.5 1.5-.828 0-1.5-.666-1.5-1.5zm4 0c0-.828.666-1.5 1.5-1.5.828 0 1.5.666 1.5 1.5 0 .828-.666 1.5-1.5 1.5-.828 0-1.5-.666-1.5-1.5zm31 0c0-.828.68-1.5 1.496-1.5h9.008C56.33 7 57 7.666 57 8.5c0 .828-.68 1.5-1.496 1.5h-9.008C45.67 10 45 9.334 45 8.5zm-39 14c0-.828.666-1.5 1.5-1.5.828 0 1.5.666 1.5 1.5 0 .828-.666 1.5-1.5 1.5-.828 0-1.5-.666-1.5-1.5zm4 0c0-.828.666-1.5 1.5-1.5.828 0 1.5.666 1.5 1.5 0 .828-.666 1.5-1.5 1.5-.828 0-1.5-.666-1.5-1.5zm4 0c0-.828.666-1.5 1.5-1.5.828 0 1.5.666 1.5 1.5 0 .828-.666 1.5-1.5 1.5-.828 0-1.5-.666-1.5-1.5zm31 0c0-.828.68-1.5 1.496-1.5h9.008c.826 0 1.496.666 1.496 1.5 0 .828-.68 1.5-1.496 1.5h-9.008C45.67 24 45 23.334 45 22.5zm-39 14c0-.828.666-1.5 1.5-1.5.828 0 1.5.666 1.5 1.5 0 .828-.666 1.5-1.5 1.5-.828 0-1.5-.666-1.5-1.5zm4 0c0-.828.666-1.5 1.5-1.5.828 0 1.5.666 1.5 1.5 0 .828-.666 1.5-1.5 1.5-.828 0-1.5-.666-1.5-1.5zm4 0c0-.828.666-1.5 1.5-1.5.828 0 1.5.666 1.5 1.5 0 .828-.666 1.5-1.5 1.5-.828 0-1.5-.666-1.5-1.5zm31 0c0-.828.68-1.5 1.496-1.5h9.008c.826 0 1.496.666 1.496 1.5 0 .828-.68 1.5-1.496 1.5h-9.008C45.67 38 45 37.334 45 36.5zm9 24c0-.828.666-1.5 1.5-1.5.828 0 1.5.666 1.5 1.5 0 .828-.666 1.5-1.5 1.5-.828 0-1.5-.666-1.5-1.5zm4 0c0-.828.666-1.5 1.5-1.5.828 0 1.5.666 1.5 1.5 0 .828-.666 1.5-1.5 1.5-.828 0-1.5-.666-1.5-1.5zm-52 0c0-.828.666-1.5 1.5-1.5.828 0 1.5.666 1.5 1.5 0 .828-.666 1.5-1.5 1.5-.828 0-1.5-.666-1.5-1.5zm-4 0c0-.828.666-1.5 1.5-1.5.828 0 1.5.666 1.5 1.5 0 .828-.666 1.5-1.5 1.5-.828 0-1.5-.666-1.5-1.5z" fill-opacity=".5"/>
  </g>
</svg>
