<?xml version="1.0" encoding="UTF-8" standalone="no"?>
<svg width="63px" height="68px" viewBox="0 0 63 68" version="1.1" xmlns="http://www.w3.org/2000/svg" xmlns:xlink="http://www.w3.org/1999/xlink">
    <g id="Page-1" stroke="none" stroke-width="1" fill="none" fill-rule="evenodd">
        <g id="04-AboutUs" transform="translate(-289.000000, -758.000000)" fill="#9B75B0">
            <g id="about-us-icon-vms-spun" transform="translate(289.000000, 758.000000)">
                <path d="M30,53.1500272 L30,45 L4.00071403,45 C1.79118068,45 0,43.212833 0,40.9927643 L0,32.0072357 C0,31.058347 0.327948771,30.1864891 0.877344916,29.5000412 C0.328367445,28.8145106 0,27.9433182 0,26.9927643 L0,18.0072357 C0,17.058347 0.327948771,16.1864891 0.877344916,15.5000412 C0.328367445,14.8145106 0,13.9433182 0,12.9927643 L0,4.00723574 C0,1.79410055 1.78398548,0 4.00071403,0 L58.999286,0 C61.2088193,0 63,1.78716697 63,4.00723574 L63,12.9927643 C63,13.941653 62.6720512,14.8135109 62.1226551,15.4999588 C62.6716326,16.1854894 63,17.0566818 63,18.0072357 L63,26.9927643 C63,27.941653 62.6720512,28.8135109 62.1226551,29.4999588 C62.6716326,30.1854894 63,31.0566818 63,32.0072357 L63,40.9927643 C63,43.2058994 61.2160145,45 58.999286,45 L33,45 L33,53.1500272 C35.9386956,53.7465509 38.2534491,56.0613044 38.8499728,59 L51.4913634,59 C52.3245604,59 53,59.6657972 53,60.5 C53,61.3284271 52.3335799,62 51.4913634,62 L38.8499728,62 C38.1550673,65.4233605 35.1284369,68 31.5,68 C27.8715631,68 24.8449327,65.4233605 24.1500272,62 L11.5086366,62 C10.6754396,62 10,61.3342028 10,60.5 C10,59.6715729 10.6664201,59 11.5086366,59 L24.1500272,59 C24.7465509,56.0613044 27.0613044,53.7465509 30,53.1500272 Z M3,4.99201702 L3,12.007983 C3,13.0998238 3.89329855,14 4.99523815,14 L58.0047619,14 C59.1046661,14 60,13.1081436 60,12.007983 L60,4.99201702 C60,3.90017617 59.1067015,3 58.0047619,3 L4.99523815,3 C3.89533389,3 3,3.8918564 3,4.99201702 Z M3,18.992017 L3,26.007983 C3,27.0998238 3.89329855,28 4.99523815,28 L58.0047619,28 C59.1046661,28 60,27.1081436 60,26.007983 L60,18.992017 C60,17.9001762 59.1067015,17 58.0047619,17 L4.99523815,17 C3.89533389,17 3,17.8918564 3,18.992017 Z M3,32.992017 L3,40.007983 C3,41.0998238 3.89329855,42 4.99523815,42 L58.0047619,42 C59.1046661,42 60,41.1081436 60,40.007983 L60,32.992017 C60,31.9001762 59.1067015,31 58.0047619,31 L4.99523815,31 C3.89533389,31 3,31.8918564 3,32.992017 Z M31.5,65 C33.9852814,65 36,62.9852814 36,60.5 C36,58.0147186 33.9852814,56 31.5,56 C29.0147186,56 27,58.0147186 27,60.5 C27,62.9852814 29.0147186,65 31.5,65 Z" id="Combined-Shape"></path>
                <path d="M6,8.5 C6,7.67157288 6.66579723,7 7.5,7 C8.32842712,7 9,7.66579723 9,8.5 C9,9.32842712 8.33420277,10 7.5,10 C6.67157288,10 6,9.33420277 6,8.5 Z M10,8.5 C10,7.67157288 10.6657972,7 11.5,7 C12.3284271,7 13,7.66579723 13,8.5 C13,9.32842712 12.3342028,10 11.5,10 C10.6715729,10 10,9.33420277 10,8.5 Z M14,8.5 C14,7.67157288 14.6657972,7 15.5,7 C16.3284271,7 17,7.66579723 17,8.5 C17,9.32842712 16.3342028,10 15.5,10 C14.6715729,10 14,9.33420277 14,8.5 Z M45,8.5 C45,7.67157288 45.6795545,7 46.4955452,7 L55.5044548,7 C56.3304216,7 57,7.66579723 57,8.5 C57,9.32842712 56.3204455,10 55.5044548,10 L46.4955452,10 C45.6695784,10 45,9.33420277 45,8.5 Z M6,22.5 C6,21.6715729 6.66579723,21 7.5,21 C8.32842712,21 9,21.6657972 9,22.5 C9,23.3284271 8.33420277,24 7.5,24 C6.67157288,24 6,23.3342028 6,22.5 Z M10,22.5 C10,21.6715729 10.6657972,21 11.5,21 C12.3284271,21 13,21.6657972 13,22.5 C13,23.3284271 12.3342028,24 11.5,24 C10.6715729,24 10,23.3342028 10,22.5 Z M14,22.5 C14,21.6715729 14.6657972,21 15.5,21 C16.3284271,21 17,21.6657972 17,22.5 C17,23.3284271 16.3342028,24 15.5,24 C14.6715729,24 14,23.3342028 14,22.5 Z M45,22.5 C45,21.6715729 45.6795545,21 46.4955452,21 L55.5044548,21 C56.3304216,21 57,21.6657972 57,22.5 C57,23.3284271 56.3204455,24 55.5044548,24 L46.4955452,24 C45.6695784,24 45,23.3342028 45,22.5 Z M6,36.5 C6,35.6715729 6.66579723,35 7.5,35 C8.32842712,35 9,35.6657972 9,36.5 C9,37.3284271 8.33420277,38 7.5,38 C6.67157288,38 6,37.3342028 6,36.5 Z M10,36.5 C10,35.6715729 10.6657972,35 11.5,35 C12.3284271,35 13,35.6657972 13,36.5 C13,37.3284271 12.3342028,38 11.5,38 C10.6715729,38 10,37.3342028 10,36.5 Z M14,36.5 C14,35.6715729 14.6657972,35 15.5,35 C16.3284271,35 17,35.6657972 17,36.5 C17,37.3284271 16.3342028,38 15.5,38 C14.6715729,38 14,37.3342028 14,36.5 Z M45,36.5 C45,35.6715729 45.6795545,35 46.4955452,35 L55.5044548,35 C56.3304216,35 57,35.6657972 57,36.5 C57,37.3284271 56.3204455,38 55.5044548,38 L46.4955452,38 C45.6695784,38 45,37.3342028 45,36.5 Z M54,60.5 C54,59.6715729 54.6657972,59 55.5,59 C56.3284271,59 57,59.6657972 57,60.5 C57,61.3284271 56.3342028,62 55.5,62 C54.6715729,62 54,61.3342028 54,60.5 Z M58,60.5 C58,59.6715729 58.6657972,59 59.5,59 C60.3284271,59 61,59.6657972 61,60.5 C61,61.3284271 60.3342028,62 59.5,62 C58.6715729,62 58,61.3342028 58,60.5 Z M6,60.5 C6,59.6715729 6.66579723,59 7.5,59 C8.32842712,59 9,59.6657972 9,60.5 C9,61.3284271 8.33420277,62 7.5,62 C6.67157288,62 6,61.3342028 6,60.5 Z M2,60.5 C2,59.6715729 2.66579723,59 3.5,59 C4.32842712,59 5,59.6657972 5,60.5 C5,61.3284271 4.33420277,62 3.5,62 C2.67157288,62 2,61.3342028 2,60.5 Z" id="Combined-Shape" fill-opacity="0.5"></path>
            </g>
        </g>
    </g>
</svg>