<?xml version="1.0" encoding="UTF-8" standalone="no"?>
<svg width="1202px" height="455px" viewBox="0 0 1202 455" version="1.1" xmlns="http://www.w3.org/2000/svg" xmlns:xlink="http://www.w3.org/1999/xlink" xmlns:sketch="http://www.bohemiancoding.com/sketch/ns">
    <!-- Generator: Sketch 3.2.2 (9983) - http://www.bohemiancoding.com/sketch -->
    <title>wm_no_bg</title>
    <desc>Created with Sketch.</desc>
    <defs>
        <path id="path-1" d="M0,1173.3333 L1999.99995,1173.3333 L1999.99995,0 L0,0 L0,1173.3333 L0,1173.3333 Z"></path>
    </defs>
    <g id="Page-1" stroke="none" stroke-width="1" fill="none" fill-rule="evenodd" sketch:type="MSPage">
        <g id="gitlab_logo" sketch:type="MSLayerGroup" transform="translate(-439.000000, -360.000000)">
            <g id="g10" transform="translate(1000.000000, 587.333300) scale(1, -1) translate(-1000.000000, -587.333300) translate(0.000000, 0.333300)">
                <g id="g12" transform="translate(1316.014500, 505.244121)" fill="#8C929D" sketch:type="MSShapeGroup">
                    <path d="M22.6666661,162.666663 L0.835999979,162.666663 L0.905333311,0.178666662 L89.2199978,0.178666662 L89.2199978,20.2719995 L22.7359994,20.2719995 L22.6666661,162.666663 L22.6666661,162.666663 Z" id="path14"></path>
                </g>
                <g id="g16">
                    <g id="g18-Clipped">
                        <mask id="mask-2" sketch:name="path22" fill="white">
                            <use xlink:href="#path-1"></use>
                        </mask>
                        <g id="path22"></g>
                        <g id="g18" mask="url(#mask-2)">
                            <g transform="translate(438.666658, 358.666658)">
                                <g id="g24" stroke-width="1" fill="none" sketch:type="MSLayerGroup" transform="translate(977.327440, 143.284396)">
                                    <path d="M73.3333315,31.9999992 C67.8759983,26.294666 58.6973319,20.5879995 46.2933322,20.5879995 C29.6719993,20.5879995 22.9746661,28.7746659 22.9746661,39.4426657 C22.9746661,55.5666653 34.1373325,63.2573318 57.9533319,63.2573318 C62.4186651,63.2573318 69.6119983,62.7613318 73.3333315,62.0173318 L73.3333315,31.9999992 L73.3333315,31.9999992 Z M50.7586654,130.48533 C33.1293325,130.48533 16.9599996,124.235997 4.34266656,113.83333 L12.0586664,100.467997 C20.9893328,105.677331 31.9053325,110.887997 47.5333321,110.887997 C65.394665,110.887997 73.3333315,101.707997 73.3333315,86.3279978 L73.3333315,78.3893314 C69.8599983,79.1333314 62.6666651,79.6306647 58.2013319,79.6306647 C19.9973328,79.6306647 0.647999984,66.234665 0.647999984,38.2013324 C0.647999984,13.1466663 16.0279996,0.494666654 39.3466657,0.494666654 C55.0546653,0.494666654 70.1079982,7.68933314 75.3173315,19.3479995 L79.2866647,3.47199991 L94.6679976,3.47199991 L94.6679976,86.5759978 C94.6679976,112.871997 83.2559979,130.48533 50.7586654,130.48533 L50.7586654,130.48533 Z" id="path26" fill="#8C929D" sketch:type="MSShapeGroup"></path>
                                </g>
                                <g id="g28" stroke-width="1" fill="none" sketch:type="MSLayerGroup" transform="translate(1099.766904, 143.128930)">
                                    <path d="M42.6666656,19.9999995 C34.4799991,19.9999995 27.2853327,20.9919995 21.8279995,23.4733327 L21.8279995,90.8253311 L21.8279995,98.6386642 C29.2706659,104.841331 38.4493324,109.306664 50.1093321,109.306664 C71.1946649,109.306664 79.3813313,94.4226643 79.3813313,70.3586649 C79.3813313,36.1253324 66.2333317,19.9999995 42.6666656,19.9999995 M51.841332,130.64133 C32.3306659,130.64133 21.8279995,117.367997 21.8279995,117.367997 L21.8279995,138.330663 L21.7586661,166.114663 L11.9159997,166.114663 L0.425333323,166.114663 L0.494666654,7.59599981 C11.1613331,3.13066659 25.7973327,0.65066665 41.6746656,0.65066665 C82.3586646,0.65066665 101.955997,26.6973327 101.955997,71.5986649 C101.955997,107.073331 83.8426646,130.64133 51.841332,130.64133" id="path30" fill="#8C929D" sketch:type="MSShapeGroup"></path>
                                </g>
                                <g id="g32" stroke-width="1" fill="none" sketch:type="MSLayerGroup" transform="translate(584.042117, 143.630796)">
                                    <path d="M78.6666647,147.999996 C98.0159975,147.999996 110.419997,141.550663 118.606664,135.099997 L127.987997,151.350663 C115.20133,162.563996 98.0026642,168.590662 79.6586647,168.590662 C33.2693325,168.590662 0.771999981,140.30933 0.771999981,83.2533313 C0.771999981,23.4666661 35.8306658,0.147999996 75.9373314,0.147999996 C96.0319976,0.147999996 113.149331,4.86133321 124.311997,9.57466643 L123.854664,73.4533315 L123.854664,80.9893313 L123.854664,93.5479977 L64.3173317,93.5479977 L64.3173317,73.4533315 L102.271997,73.4533315 L102.729331,24.9559994 C97.7679976,22.4746661 89.0853311,20.4906662 77.4266647,20.4906662 C45.1773322,20.4906662 23.5946661,40.7773323 23.5946661,83.5013312 C23.5946661,126.91333 45.9213322,147.999996 78.6666647,147.999996" id="path34" fill="#8C929D" sketch:type="MSShapeGroup"></path>
                                </g>
                                <g id="g36" stroke-width="1" fill="none" sketch:type="MSLayerGroup" transform="translate(793.569045, 142.577463)">
                                    <path d="M22.6666661,166.666662 L1.33199997,166.666662 L1.4013333,139.378663 L1.4013333,128.214663 L1.4013333,121.707997 L1.4013333,110.353331 L1.4013333,45.3586655 L1.4013333,45.1106655 C1.4013333,18.8146662 12.813333,1.2013333 45.3106655,1.2013333 C49.7999988,1.2013333 54.193332,1.60933329 58.4586652,2.38399994 L58.4586652,21.5426661 C55.3706653,21.0693328 52.0746654,20.7999995 48.5359988,20.7999995 C30.6746659,20.7999995 22.7359994,29.9786659 22.7359994,45.3586655 L22.7359994,110.353331 L58.4586652,110.353331 L58.4586652,128.214663 L22.7359994,128.214663 L22.6666661,166.666662 L22.6666661,166.666662 Z" id="path38" fill="#8C929D" sketch:type="MSShapeGroup"></path>
                                </g>
                                <path d="M740.766646,146.755996 L762.101312,146.755996 L762.101312,270.793327 L740.766646,270.793327 L740.766646,146.755996 L740.766646,146.755996 Z" id="path40" fill="#8C929D" sketch:type="MSShapeGroup"></path>
                                <path d="M740.766646,287.909326 L762.101312,287.909326 L762.101312,309.243992 L740.766646,309.243992 L740.766646,287.909326 L740.766646,287.909326 Z" id="path42" fill="#8C929D" sketch:type="MSShapeGroup"></path>
                                <g id="g44" stroke-width="1" fill="none" sketch:type="MSLayerGroup" transform="translate(0.532000, 0.774933)">
                                    <path d="M491.999988,194.666662 L464.441322,279.481326 L409.82399,447.578655 C407.014656,456.226655 394.778657,456.226655 391.96799,447.578655 L337.349325,279.481326 L155.982663,279.481326 L101.362664,447.578655 C98.5533309,456.226655 86.3173312,456.226655 83.5066646,447.578655 L28.8893326,279.481326 L1.33199997,194.666662 C-1.18266664,186.930662 1.57199996,178.455996 8.1519998,173.674662 L246.665327,0.385333324 L485.179988,173.674662 C491.759988,178.455996 494.513321,186.930662 491.999988,194.666662" id="path46" fill="#FC6D26" sketch:type="MSShapeGroup"></path>
                                </g>
                                <g id="g48" stroke-width="1" fill="none" sketch:type="MSLayerGroup" transform="translate(155.197863, 1.160267)">
                                    <path d="M91.9999977,0 L91.9999977,0 L182.683995,279.095993 L1.31599997,279.095993 L91.9999977,0 L91.9999977,0 Z" id="path50" fill="#E24329" sketch:type="MSShapeGroup"></path>
                                </g>
                                <g id="g52" stroke-width="1" fill="none" sketch:type="MSLayerGroup" transform="translate(247.197860, 1.160267)">
                                    <g id="path54"></g>
                                </g>
                                <g id="g56" stroke-width="1" fill="none" sketch:type="MSLayerGroup" transform="translate(28.531199, 1.160800)">
                                    <path d="M218.666661,0 L127.982663,279.09466 L0.890666644,279.09466 L218.666661,0 L218.666661,0 Z" id="path58" fill="#FC6D26" sketch:type="MSShapeGroup"></path>
                                </g>
                                <g id="g60" stroke-width="1" fill="none" sketch:type="MSLayerGroup" transform="translate(247.197860, 1.160800)">
                                    <g id="path62"></g>
                                </g>
                                <g id="g64" stroke-width="1" fill="none" sketch:type="MSLayerGroup" transform="translate(0.088533, 0.255867)">
                                    <path d="M29.3333326,279.999993 L29.3333326,279.999993 L1.77466662,195.185328 C-0.738666648,187.449329 2.01466662,178.974662 8.59599979,174.194662 L247.109327,0.905333311 L29.3333326,279.999993 L29.3333326,279.999993 Z" id="path66" fill="#FCA326" sketch:type="MSShapeGroup"></path>
                                </g>
                                <g id="g68" stroke-width="1" fill="none" sketch:type="MSLayerGroup" transform="translate(247.197860, 1.160267)">
                                    <g id="path70"></g>
                                </g>
                                <g id="g72" stroke-width="1" fill="none" sketch:type="MSLayerGroup" transform="translate(29.421866, 280.255593)">
                                    <path d="M0,0 L127.091997,0 L72.4733315,168.097329 C69.6626649,176.746662 57.4266652,176.746662 54.617332,168.097329 L0,0 L0,0 Z" id="path74" fill="#E24329" sketch:type="MSShapeGroup"></path>
                                </g>
                                <g id="g76" stroke-width="1" fill="none" sketch:type="MSLayerGroup" transform="translate(247.197860, 1.160800)">
                                    <path d="M0,0 L90.6839977,279.09466 L217.775995,279.09466 L0,0 L0,0 Z" id="path78" fill="#FC6D26" sketch:type="MSShapeGroup"></path>
                                </g>
                                <g id="g80" stroke-width="1" fill="none" sketch:type="MSLayerGroup" transform="translate(246.307061, 0.255867)">
                                    <path d="M218.666661,279.999993 L218.666661,279.999993 L246.225327,195.185328 C248.73866,187.449329 245.985327,178.974662 239.403994,174.194662 L0.890666644,0.905333311 L218.666661,279.999993 L218.666661,279.999993 Z" id="path82" fill="#FCA326" sketch:type="MSShapeGroup"></path>
                                </g>
                                <g id="g84" stroke-width="1" fill="none" sketch:type="MSLayerGroup" transform="translate(336.973725, 280.255593)">
                                    <path d="M127.999997,0 L0.907999977,0 L55.5266653,168.097329 C58.3373319,176.746662 70.5733316,176.746662 73.3826648,168.097329 L127.999997,0 L127.999997,0 Z" id="path86" fill="#E24329" sketch:type="MSShapeGroup"></path>
                                </g>
                            </g>
                        </g>
                    </g>
                </g>
            </g>
        </g>
    </g>
</svg>