<svg xmlns="http://www.w3.org/2000/svg" viewBox="0 0 93.43 32.53"><defs><style>.a{opacity:0.5;}.b{fill:#3c3c59;}</style></defs><title>koding</title><g class="a"><path class="b" d="M558.77,31.61l4.61,9.6h-3.5l-3.28-6.93-2,2.41v4.52h-3.14V25l3.14-.28,0,7.25,5.85-7.12,2.39,1.94Z" transform="translate(-524.57 -16.02)"/><path class="b" d="M574.78,35.37a5.74,5.74,0,1,1-11.47,0A5.74,5.74,0,1,1,574.78,35.37Zm-5.73-2.87a2.88,2.88,0,0,0,0,5.73A2.88,2.88,0,0,0,569.05,32.5Z" transform="translate(-524.57 -16.02)"/><path class="b" d="M589.61,41.24V30.09l3.1-.28V41.24h-3.1ZM593,26.75a1.81,1.81,0,1,1-1.81-1.81A1.81,1.81,0,0,1,593,26.75Z" transform="translate(-524.57 -16.02)"/><path class="b" d="M584.28,25.12v5a5.46,5.46,0,0,0-2.66-.68,5.74,5.74,0,0,0-5.7,5.91,5.76,5.76,0,0,0,5.7,5.94,5.42,5.42,0,0,0,2.66-.68v0.6h3.11V24.84Zm-2.66,13.11a2.88,2.88,0,1,1,2.68-2.84A2.8,2.8,0,0,1,581.62,38.23Z" transform="translate(-524.57 -16.02)"/><path class="b" d="M600.82,29.41a3.8,3.8,0,0,0-2.81,1l0-1-3.12.28V41.24H598V34.71a2.09,2.09,0,0,1,2.13-2.2,1.85,1.85,0,0,1,2.12,2h0v6.75h3.11V33.68A4.34,4.34,0,0,0,600.82,29.41Z" transform="translate(-524.57 -16.02)"/><path class="b" d="M616.67,39.18a6,6,0,0,0,1.21-3.68,6.16,6.16,0,0,0-.62-2.73H618l0-3.07-5.64-.19h-0.18a5.68,5.68,0,0,0-5.74,6,5.61,5.61,0,0,0,5.74,5.91,12.52,12.52,0,0,0,2-.28h0a1.68,1.68,0,0,1,.73,1.58,2.66,2.66,0,0,1-2.58,2.69A2.76,2.76,0,0,1,609.68,43l-3,.27a6,6,0,0,0,1.68,3.36,5.6,5.6,0,0,0,8.12.05,5.6,5.6,0,0,0,1.56-4A5.81,5.81,0,0,0,616.67,39.18Zm-4.51-.84a2.88,2.88,0,1,1,2.62-2.84A2.77,2.77,0,0,1,612.17,38.34Z" transform="translate(-524.57 -16.02)"/><polygon class="b" points="13.71 10.45 10.65 10.74 13.51 16.66 10.72 22.49 13.8 22.78 16.59 16.57 13.71 10.45"/><ellipse class="b" cx="7.49" cy="20.22" rx="1.47" ry="1.51"/><ellipse class="b" cx="7.49" cy="15.34" rx="1.47" ry="1.51"/><path class="b" d="M541.76,48.55H529.9a5.34,5.34,0,0,1-5.33-5.33V21.35A5.34,5.34,0,0,1,529.9,16h11.85a5.34,5.34,0,0,1,5.33,5.33V43.21A5.34,5.34,0,0,1,541.76,48.55ZM530.2,19.05a2.6,2.6,0,0,0-2.57,2.63V42.89a2.6,2.6,0,0,0,2.57,2.63h11.26A2.6,2.6,0,0,0,544,42.89V21.68a2.6,2.6,0,0,0-2.57-2.63H530.2Z" transform="translate(-524.57 -16.02)"/></g></svg>