<svg xmlns="http://www.w3.org/2000/svg" xmlns:xlink="http://www.w3.org/1999/xlink" viewBox="0 0 550.92 550.92"><defs><style>.a{fill:none;}.b{fill:url(#a);}.c{fill:#fff;}</style><radialGradient id="a" cx="275.46" cy="275.46" r="217.5" gradientUnits="userSpaceOnUse"><stop offset="0" stop-color="#e55d40"/><stop offset="1" stop-color="#e76b4b"/></radialGradient></defs><title>square-logo-orange</title><rect class="a" width="550.92" height="550.92"/><rect class="b" x="57.96" y="57.96" width="435" height="435" rx="99.5" ry="99.5"/><path class="c" d="M393.46,65.46a92.31,92.31,0,0,1,92,92v236a92.31,92.31,0,0,1-92,92h-236a92.31,92.31,0,0,1-92-92v-236a92.31,92.31,0,0,1,92-92h236m0-15h-236c-58.85,0-107,48.15-107,107v236c0,58.85,48.15,107,107,107h236c58.85,0,107-48.15,107-107v-236c0-58.85-48.15-107-107-107h0Z"/><polygon class="c" points="322.55 160.24 262.64 165.93 318.72 281.96 264.05 395.89 324.4 401.62 378.93 280.04 322.55 160.24"/><path class="c" d="M200.82,322c-15.89,0-28.82,13.28-28.82,29.6s12.93,29.61,28.82,29.61,28.82-13.28,28.82-29.61S216.71,322,200.82,322Z"/><path class="c" d="M200.82,226.46c-15.89,0-28.82,13.28-28.82,29.61s12.93,29.6,28.82,29.6,28.82-13.28,28.82-29.6S216.71,226.46,200.82,226.46Z"/></svg>