<?xml version="1.0" encoding="UTF-8" standalone="no"?>
<svg width="121px" height="121px" viewBox="0 0 121 121" version="1.1" xmlns="http://www.w3.org/2000/svg" xmlns:xlink="http://www.w3.org/1999/xlink">
    <!-- Generator: Sketch 40.1 (33804) - http://www.bohemiancoding.com/sketch -->
    <title>User XL</title>
    <desc>Created with Sketch.</desc>
    <defs>
        <ellipse id="path-1" cx="60" cy="60" rx="60" ry="60"></ellipse>
        <path d="M97.9100977,106.517435 C87.5777206,114.945706 74.3845343,120 60.0108545,120 C45.5853677,120 32.3488994,114.909206 22,106.426169 C30.8187973,99.1229523 45.5396171,98.3903173 48.4457903,90.5776557 C48.7880523,86.7985806 48.6591603,84.1612179 48.6591603,80.7081502 C46.9430431,79.8102564 43.7546273,74.0829212 43.2390596,69.2489011 C41.8933636,69.1387821 39.7740871,67.8260531 39.1504607,62.642674 C38.8175852,59.8599359 40.1490871,58.2940018 40.957924,57.8017857 C36.4075577,40.289652 38.9114497,24.9975275 59.6680889,24.6154304 C64.8560468,24.6154304 68.8482629,26.0009615 70.4073288,28.7390568 C85.5563673,30.8443681 81.0082903,51.2163919 78.8187299,57.8017857 C79.6298563,58.2940018 80.9613581,59.8599359 80.6261933,62.642674 C80.0050852,67.8260531 77.8832903,69.1387821 76.5378233,69.2489011 C76.0197372,74.0854396 72.9533453,79.8102564 71.2418068,80.7081502 C71.2418068,84.1612179 71.1106255,86.7985806 71.4528874,90.5776557 C74.3681008,98.4239334 89.1440078,99.1318573 97.9100977,106.517435 Z" id="path-3"></path>
    </defs>
    <g id="Page-1" stroke="none" stroke-width="1" fill="none" fill-rule="evenodd">
        <g id="Artboard" transform="translate(-246.000000, -246.000000)">
            <g id="User-XL" transform="translate(246.500000, 246.500000)">
                <g id="avatar-copy">
                    <mask id="mask-2" fill="white">
                        <use xlink:href="#path-1"></use>
                    </mask>
                    <use id="Mask" fill="#F2F2F2" xlink:href="#path-1"></use>
                </g>
                <mask id="mask-4" fill="white">
                    <use xlink:href="#path-3"></use>
                </mask>
                <use id="Combined-Shape" fill="#D4D4D4" xlink:href="#path-3"></use>
            </g>
        </g>
    </g>
</svg>