<?xml version="1.0" encoding="utf-8"?>
<!-- Generator: Adobe Illustrator 16.0.0, SVG Export Plug-In . SVG Version: 6.00 Build 0)  -->
<!DOCTYPE svg PUBLIC "-//W3C//DTD SVG 1.1//EN" "http://www.w3.org/Graphics/SVG/1.1/DTD/svg11.dtd">
<svg version="1.1" id="Layer_1" xmlns="http://www.w3.org/2000/svg" xmlns:xlink="http://www.w3.org/1999/xlink" x="0px" y="0px"
	 width="217.507px" height="25.632px" viewBox="26.98 64.825 217.507 25.632" enable-background="new 26.98 64.825 217.507 25.632"
	 xml:space="preserve">
<g>
	<g>
		<path d="M31.912,55.679c-2.208,0-3.082-1.282-3.082-2.568c0-1.154,0.257-3.39,0.257-4.597c0-1.722-0.976-2.004-2.183-2.004H26.75
			c-0.283,0-0.514-0.232-0.514-0.512c0-0.283,0.231-0.516,0.514-0.516h0.154c1.207,0,2.183-0.281,2.183-2.029
			c0-1.564-0.257-2.389-0.257-4.597c0-1.258,0.874-2.543,3.082-2.543c0.335,0,0.617,0.282,0.617,0.616
			c0,0.335-0.282,0.615-0.617,0.615c-1.232,0-1.618,0.669-1.618,1.595c0,1.052,0.18,2.927,0.18,4.134
			c0,1.541-0.899,2.725-2.646,2.725c1.747,0,2.646,1.155,2.646,2.72c0,1.054-0.18,3.11-0.18,4.137c0,0.924,0.386,1.593,1.618,1.593
			c0.335,0,0.617,0.282,0.617,0.616S32.247,55.679,31.912,55.679z"/>
	</g>
	<g>
		<path d="M54.899,55.063c0-0.334,0.283-0.616,0.616-0.616c1.234,0,1.619-0.669,1.619-1.593c0-1.026-0.18-3.083-0.18-4.137
			c0-1.541,0.899-2.72,2.646-2.72c-1.747,0-2.646-1.184-2.646-2.725c0-1.207,0.18-3.082,0.18-4.134c0-0.926-0.385-1.595-1.619-1.595
			c-0.333,0-0.616-0.28-0.616-0.615c0-0.334,0.283-0.616,0.616-0.616c2.21,0,3.083,1.285,3.083,2.543
			c0,2.208-0.257,3.032-0.257,4.597c0,1.748,0.976,2.029,2.183,2.029h0.155c0.283,0,0.514,0.232,0.514,0.516
			c0,0.279-0.231,0.512-0.514,0.512h-0.155c-1.207,0-2.183,0.282-2.183,2.004c0,1.207,0.257,3.442,0.257,4.597
			c0,1.259-0.873,2.568-3.083,2.568C55.182,55.679,54.899,55.397,54.899,55.063z"/>
	</g>
	<path d="M48.375,40.475c1.542,0,2.774,1.26,2.774,2.773v4.032c0,1.541-1.258,2.774-2.774,2.774h-1.412l-2.621,3.339
		c0,0-0.205,0.231-0.411,0.231c-0.231,0-0.437-0.259-0.411-1.312c0.025-0.949,0.078-2.232,0.078-2.232h-4.418
		c-1.542,0-2.774-1.26-2.774-2.774v-4.059c0-1.54,1.259-2.773,2.774-2.773H48.375 M48.375,39.268h-9.195
		c-2.184,0-3.98,1.797-3.98,3.98v4.032c0,2.185,1.797,3.982,3.98,3.982h3.211c-0.026,0.333-0.026,0.693-0.052,1.001
		c-0.025,0.693,0.025,1.541,0.54,2.105c0.282,0.283,0.642,0.463,1.052,0.463c0.668,0,1.13-0.411,1.284-0.59l0.027-0.026l0.025-0.027
		l2.26-2.875h0.822c2.183,0,3.98-1.798,3.98-3.981v-4.084C52.357,41.064,50.559,39.268,48.375,39.268L48.375,39.268z"/>
	<path stroke="#FFFFFF" stroke-width="0.5" stroke-linecap="round" stroke-miterlimit="10" d="M46.653,42.269
		c1.146,0,2.075,0.967,2.075,2.157"/>
</g>
<g>
	<path d="M71.748,34.94h2.055v8.134c0.471-0.771,1.07-1.413,1.841-1.926c0.771-0.514,1.712-0.813,2.911-0.813
		c0.856,0,1.584,0.128,2.226,0.385s1.199,0.642,1.669,1.156c0.471,0.514,0.813,1.07,1.027,1.755
		c0.257,0.685,0.343,1.413,0.343,2.268v8.605h-2.055v-8.049c0-1.284-0.343-2.311-0.985-3.039c-0.642-0.771-1.626-1.113-2.868-1.113
		c-0.599,0-1.156,0.085-1.669,0.299c-0.514,0.214-0.942,0.514-1.327,0.899c-0.385,0.385-0.685,0.856-0.856,1.37
		c-0.214,0.557-0.3,1.113-0.3,1.755v7.92h-2.055V34.94H71.748z"/>
	<path d="M91.098,54.889c-0.642,0-1.284-0.086-1.926-0.257s-1.199-0.471-1.669-0.813c-0.471-0.385-0.856-0.813-1.156-1.369
		c-0.299-0.557-0.428-1.156-0.428-1.885v-0.042c0-0.771,0.128-1.413,0.428-1.97c0.3-0.557,0.685-1.027,1.242-1.412
		c0.514-0.386,1.156-0.643,1.883-0.856c0.728-0.214,1.542-0.3,2.397-0.3c0.899,0,1.669,0.043,2.312,0.172
		c0.642,0.128,1.284,0.256,1.926,0.428v-0.428c0-1.242-0.342-2.141-1.07-2.783c-0.728-0.642-1.712-0.941-3.04-0.941
		c-0.813,0-1.584,0.085-2.226,0.257c-0.685,0.171-1.327,0.428-1.969,0.728l-0.599-1.712c0.771-0.342,1.541-0.642,2.354-0.856
		c0.771-0.214,1.712-0.342,2.697-0.342c1.969,0,3.467,0.514,4.495,1.541c0.985,0.984,1.456,2.312,1.456,4.067v8.476h-2.055v-2.055
		c-0.471,0.642-1.113,1.198-1.969,1.669C93.324,54.632,92.339,54.889,91.098,54.889z M91.526,53.176
		c0.642,0,1.241-0.085,1.798-0.256c0.557-0.172,1.027-0.429,1.456-0.771c0.428-0.342,0.771-0.727,0.984-1.155
		c0.257-0.471,0.342-0.942,0.342-1.499v-1.283c-0.514-0.129-1.113-0.258-1.755-0.386s-1.413-0.171-2.269-0.171
		c-1.284,0-2.269,0.257-2.997,0.771c-0.685,0.514-1.07,1.198-1.07,2.012v0.043c0,0.429,0.085,0.813,0.299,1.155
		c0.171,0.343,0.428,0.643,0.771,0.856c0.343,0.214,0.685,0.429,1.113,0.514C90.627,53.134,91.055,53.176,91.526,53.176z"/>
	<path d="M107.45,54.889c-1.027,0-1.969-0.214-2.825-0.557c-0.856-0.385-1.627-0.898-2.269-1.541s-1.113-1.412-1.498-2.312
		c-0.342-0.856-0.557-1.798-0.557-2.782v-0.043c0-0.984,0.171-1.927,0.557-2.783c0.342-0.856,0.856-1.627,1.498-2.312
		c0.642-0.642,1.37-1.199,2.269-1.584c0.856-0.385,1.798-0.557,2.825-0.557c0.642,0,1.284,0.043,1.798,0.171
		c0.557,0.128,1.028,0.3,1.499,0.514c0.428,0.214,0.856,0.471,1.241,0.813c0.385,0.299,0.728,0.642,1.028,0.984l-1.37,1.456
		c-0.557-0.557-1.156-1.07-1.798-1.499c-0.642-0.428-1.456-0.599-2.397-0.599c-0.685,0-1.37,0.128-1.969,0.428
		c-0.599,0.257-1.156,0.642-1.583,1.156c-0.428,0.471-0.813,1.07-1.028,1.712c-0.257,0.643-0.385,1.369-0.385,2.098v0.043
		c0,0.77,0.128,1.455,0.385,2.098c0.257,0.642,0.6,1.241,1.07,1.712c0.471,0.514,0.985,0.899,1.627,1.155
		c0.599,0.258,1.284,0.429,2.012,0.429c0.899,0,1.669-0.214,2.397-0.6c0.685-0.386,1.327-0.899,1.883-1.498l1.327,1.241
		c-0.685,0.771-1.498,1.413-2.397,1.927C109.848,54.632,108.734,54.889,107.45,54.889z"/>
	<path d="M115.199,34.94h2.055v13.527l7.49-7.833h2.569l-5.822,5.95l6.036,7.92h-2.482l-4.967-6.465l-2.824,2.869v3.639h-2.055
		V34.94z"/>
	<path d="M128.897,51.764h2.482v2.825h-2.482V51.764z"/>
	<path d="M134.548,34.94h0.856v9.29c0.171-0.385,0.385-0.813,0.685-1.242c0.3-0.428,0.642-0.813,1.07-1.156
		c0.429-0.342,0.942-0.642,1.499-0.856c0.556-0.214,1.24-0.342,1.969-0.342c0.898,0,1.67,0.128,2.396,0.428
		c0.686,0.3,1.285,0.685,1.756,1.242c0.471,0.514,0.855,1.156,1.07,1.883c0.256,0.728,0.385,1.541,0.385,2.397v7.92h-0.855v-7.706
		c0-1.584-0.429-2.825-1.242-3.81c-0.812-0.984-2.012-1.455-3.596-1.455c-0.728,0-1.369,0.128-2.012,0.428
		c-0.6,0.257-1.156,0.642-1.627,1.156c-0.471,0.471-0.813,1.07-1.07,1.712s-0.385,1.371-0.385,2.14v7.62h-0.856V34.94H134.548z"/>
	<path d="M153.598,54.889c-0.643,0-1.284-0.086-1.884-0.257c-0.599-0.171-1.155-0.429-1.669-0.771s-0.856-0.771-1.156-1.327
		c-0.3-0.514-0.428-1.112-0.428-1.798v-0.043c0-0.685,0.171-1.327,0.471-1.883c0.299-0.557,0.728-1.027,1.241-1.371
		c0.514-0.385,1.155-0.642,1.884-0.855c0.728-0.172,1.541-0.3,2.396-0.3c0.942,0,1.842,0.085,2.654,0.214
		c0.814,0.129,1.541,0.343,2.184,0.557v-0.898c0-1.542-0.428-2.654-1.284-3.425c-0.856-0.728-2.055-1.113-3.554-1.113
		c-0.855,0-1.626,0.085-2.311,0.3c-0.729,0.214-1.413,0.471-2.098,0.813l-0.343-0.771c0.771-0.342,1.498-0.642,2.269-0.856
		s1.584-0.342,2.525-0.342c1.885,0,3.297,0.514,4.281,1.498c0.428,0.428,0.771,0.985,0.984,1.627
		c0.215,0.642,0.343,1.37,0.343,2.226v8.434h-0.856v-2.826c-0.171,0.385-0.428,0.729-0.771,1.113s-0.728,0.686-1.198,1.027
		c-0.471,0.3-1.027,0.557-1.67,0.728C155.053,54.803,154.368,54.889,153.598,54.889z M153.641,54.075
		c0.812,0,1.584-0.128,2.269-0.343c0.685-0.256,1.284-0.557,1.798-0.984s0.898-0.898,1.199-1.412
		c0.299-0.557,0.428-1.113,0.428-1.713v-1.67c-0.643-0.213-1.37-0.385-2.184-0.556c-0.77-0.128-1.712-0.214-2.697-0.214
		c-0.77,0-1.455,0.086-2.055,0.214c-0.599,0.171-1.155,0.386-1.584,0.685c-0.428,0.3-0.77,0.643-1.027,1.113
		c-0.256,0.428-0.385,0.941-0.385,1.498v0.043c0,0.557,0.129,1.027,0.342,1.455c0.215,0.428,0.557,0.771,0.942,1.07
		c0.386,0.3,0.856,0.514,1.37,0.643C152.527,53.99,153.084,54.075,153.641,54.075z"/>
	<path d="M163.529,41.019h0.855v3.21c0.172-0.385,0.386-0.813,0.686-1.242c0.3-0.428,0.643-0.813,1.07-1.156
		c0.428-0.342,0.941-0.642,1.498-0.856s1.242-0.342,1.969-0.342c0.899,0,1.67,0.128,2.398,0.428c0.684,0.3,1.283,0.685,1.754,1.242
		c0.471,0.514,0.856,1.156,1.07,1.883c0.258,0.728,0.386,1.541,0.386,2.397v7.92h-0.856v-7.706c0-1.584-0.428-2.825-1.241-3.81
		c-0.813-0.984-2.013-1.455-3.596-1.455c-0.728,0-1.37,0.128-2.013,0.428c-0.599,0.257-1.155,0.642-1.626,1.156
		c-0.472,0.471-0.813,1.07-1.07,1.712s-0.386,1.371-0.386,2.14v7.62h-0.855v-13.57H163.529z"/>
	<path d="M184.377,54.889c-0.899,0-1.799-0.172-2.611-0.514c-0.813-0.342-1.541-0.855-2.141-1.455c-0.6-0.643-1.07-1.37-1.455-2.227
		c-0.343-0.855-0.557-1.798-0.557-2.868v-0.042c0-1.027,0.171-1.97,0.557-2.826c0.342-0.856,0.855-1.626,1.455-2.226
		c0.6-0.642,1.327-1.113,2.141-1.455c0.812-0.343,1.67-0.514,2.611-0.514c0.771,0,1.455,0.085,2.055,0.299
		c0.643,0.214,1.198,0.514,1.713,0.856c0.514,0.385,0.941,0.813,1.326,1.284c0.385,0.471,0.686,0.984,0.898,1.541V34.94h0.857
		v19.607h-0.857v-3.725c-0.213,0.557-0.556,1.113-0.898,1.584c-0.385,0.514-0.812,0.898-1.326,1.283
		c-0.515,0.344-1.07,0.643-1.713,0.857C185.789,54.803,185.104,54.889,184.377,54.889z M184.463,54.075
		c0.812,0,1.584-0.171,2.311-0.471c0.729-0.343,1.371-0.771,1.885-1.327c0.556-0.557,0.941-1.241,1.283-1.969
		c0.3-0.771,0.471-1.584,0.471-2.44v-0.043c0-0.856-0.171-1.712-0.471-2.44c-0.299-0.771-0.728-1.413-1.283-1.969
		c-0.557-0.557-1.156-1.027-1.885-1.327c-0.727-0.342-1.498-0.471-2.311-0.471c-0.857,0-1.627,0.171-2.355,0.471
		c-0.727,0.3-1.326,0.728-1.84,1.284c-0.514,0.557-0.942,1.199-1.199,1.969c-0.299,0.771-0.428,1.583-0.428,2.483v0.043
		c0,0.899,0.129,1.712,0.428,2.483c0.3,0.77,0.686,1.412,1.242,1.969c0.514,0.557,1.155,0.984,1.84,1.327
		C182.836,53.904,183.648,54.075,184.463,54.075z"/>
	<path d="M199.146,54.803c-0.984,0-1.927-0.171-2.911-0.557c-0.984-0.342-1.84-0.855-2.611-1.498l0.514-0.685
		c0.771,0.599,1.541,1.027,2.44,1.37c0.899,0.342,1.755,0.471,2.611,0.471c0.557,0,1.027-0.086,1.498-0.215
		c0.472-0.128,0.899-0.342,1.241-0.556c0.343-0.257,0.6-0.557,0.813-0.899c0.214-0.342,0.3-0.728,0.3-1.156v-0.042
		c0-0.472-0.129-0.899-0.342-1.198c-0.215-0.344-0.557-0.6-0.942-0.814c-0.386-0.213-0.813-0.428-1.327-0.557
		c-0.514-0.128-0.984-0.299-1.498-0.471c-0.643-0.171-1.242-0.385-1.798-0.557c-0.557-0.213-1.07-0.428-1.499-0.685
		c-0.428-0.257-0.77-0.599-1.027-0.984c-0.256-0.385-0.385-0.856-0.385-1.456v-0.042c0-0.514,0.129-0.985,0.342-1.413
		c0.215-0.428,0.557-0.813,0.942-1.113c0.386-0.342,0.899-0.557,1.456-0.771c0.557-0.171,1.198-0.257,1.883-0.257
		c0.771,0,1.584,0.128,2.44,0.385c0.813,0.257,1.584,0.642,2.312,1.113l-0.471,0.728c-0.643-0.471-1.327-0.813-2.098-1.07
		c-0.729-0.257-1.455-0.342-2.184-0.342c-1.113,0-2.012,0.257-2.697,0.771c-0.685,0.514-0.984,1.156-0.984,1.883v0.043
		c0,0.428,0.129,0.771,0.343,1.07s0.514,0.556,0.899,0.771c0.385,0.214,0.812,0.428,1.283,0.557
		c0.472,0.171,1.027,0.342,1.584,0.471c0.6,0.172,1.199,0.342,1.756,0.557c0.557,0.214,1.07,0.428,1.498,0.728
		s0.771,0.642,1.027,1.027c0.257,0.429,0.385,0.899,0.385,1.499v0.042c0,0.557-0.128,1.07-0.385,1.499
		c-0.257,0.471-0.6,0.855-1.027,1.155c-0.428,0.343-0.941,0.557-1.498,0.771C200.473,54.717,199.83,54.803,199.146,54.803z"/>
	<path d="M213.357,58.313c-2.354-1.327-4.152-2.997-5.394-4.923c-1.198-1.927-1.841-4.109-1.841-6.55c0-2.44,0.6-4.581,1.841-6.55
		c1.198-1.926,2.997-3.596,5.394-4.923l0.386,0.599c-2.183,1.285-3.853,2.868-4.966,4.709s-1.713,3.896-1.713,6.208
		c0,2.312,0.557,4.366,1.713,6.207c1.113,1.841,2.783,3.382,4.966,4.709L213.357,58.313z"/>
	<path d="M221.748,57.757c2.184-1.284,3.854-2.868,4.966-4.709c1.113-1.841,1.712-3.896,1.712-6.207s-0.556-4.367-1.712-6.207
		c-1.112-1.841-2.782-3.382-4.966-4.709l0.386-0.6c2.354,1.327,4.152,2.997,5.394,4.923c1.199,1.927,1.841,4.11,1.841,6.55
		c0,2.44-0.599,4.581-1.841,6.55c-1.199,1.926-2.996,3.596-5.394,4.923L221.748,57.757z"/>
</g>
<g>
	<path fill="#FFFFFF" d="M71.706,67.208h2.054v8.136c0.427-0.774,1.085-1.354,1.821-1.898c0.775-0.542,1.745-0.812,2.907-0.812
		c0.853,0,1.588,0.115,2.209,0.387c0.658,0.271,1.201,0.659,1.666,1.123c0.426,0.467,0.814,1.086,1.047,1.745
		c0.232,0.697,0.348,1.396,0.348,2.247v8.602h-2.015v-8.061c0-1.277-0.311-2.285-1.008-3.021c-0.659-0.775-1.627-1.123-2.829-1.123
		c-0.62,0-1.124,0.117-1.666,0.31c-0.543,0.194-0.969,0.466-1.318,0.892c-0.349,0.349-0.659,0.853-0.891,1.355
		c-0.194,0.544-0.31,1.124-0.31,1.783v7.904h-2.054V67.208H71.706z"/>
	<path fill="#FFFFFF" d="M90.964,87.047c-0.659,0-1.279-0.076-1.899-0.271c-0.62-0.155-1.163-0.425-1.667-0.812
		c-0.464-0.35-0.89-0.814-1.162-1.318c-0.271-0.542-0.426-1.163-0.426-1.859v-0.078c0-0.775,0.155-1.394,0.426-1.977
		c0.271-0.581,0.698-1.047,1.202-1.394c0.542-0.35,1.162-0.661,1.859-0.854c0.737-0.193,1.55-0.271,2.365-0.271
		c0.891,0,1.666,0.039,2.285,0.155c0.66,0.116,1.279,0.232,1.899,0.426v-0.426c0-1.201-0.348-2.131-1.084-2.79
		c-0.737-0.659-1.744-0.929-3.023-0.929c-0.812,0-1.589,0.077-2.209,0.27c-0.697,0.155-1.317,0.389-1.975,0.736l-0.62-1.704
		c0.774-0.349,1.55-0.66,2.324-0.891c0.775-0.194,1.706-0.312,2.713-0.312c1.976,0,3.487,0.542,4.495,1.551
		c0.969,0.969,1.434,2.286,1.434,4.068v8.447h-2.014v-2.054c-0.466,0.62-1.124,1.162-1.938,1.666
		C93.211,86.814,92.205,87.047,90.964,87.047z M91.391,85.342c0.659,0,1.24-0.076,1.783-0.271c0.542-0.193,1.045-0.426,1.434-0.773
		c0.387-0.312,0.735-0.736,0.968-1.164c0.232-0.426,0.349-0.968,0.349-1.512v-1.278c-0.542-0.154-1.085-0.272-1.783-0.388
		c-0.658-0.114-1.395-0.191-2.247-0.191c-1.278,0-2.247,0.231-2.983,0.773c-0.698,0.542-1.046,1.163-1.046,2.016v0.038
		c0,0.428,0.078,0.815,0.271,1.161c0.194,0.351,0.427,0.659,0.775,0.854c0.31,0.233,0.697,0.389,1.084,0.543
		C90.5,85.303,90.926,85.342,91.391,85.342z"/>
	<path fill="#FFFFFF" d="M107.239,87.086c-1.008,0-1.938-0.194-2.829-0.582c-0.853-0.349-1.628-0.891-2.248-1.549
		c-0.659-0.658-1.124-1.395-1.511-2.286c-0.349-0.893-0.542-1.782-0.542-2.753v-0.037c0-0.968,0.154-1.899,0.542-2.791
		c0.388-0.891,0.853-1.666,1.511-2.286c0.659-0.659,1.356-1.163,2.248-1.588c0.853-0.388,1.821-0.581,2.829-0.581
		c0.658,0,1.239,0.076,1.782,0.193c0.543,0.116,1.008,0.271,1.434,0.541c0.426,0.234,0.853,0.467,1.201,0.815
		c0.349,0.31,0.737,0.619,1.047,0.968l-1.355,1.435c-0.582-0.581-1.164-1.047-1.822-1.435c-0.658-0.389-1.434-0.619-2.364-0.619
		c-0.697,0-1.318,0.117-1.938,0.387c-0.619,0.271-1.123,0.659-1.589,1.124c-0.426,0.466-0.813,1.046-1.046,1.705
		s-0.349,1.317-0.349,2.094v0.038c0,0.774,0.116,1.435,0.389,2.093c0.271,0.657,0.619,1.2,1.084,1.704
		c0.426,0.465,1.007,0.892,1.627,1.163s1.279,0.386,2.015,0.386c0.891,0,1.705-0.194,2.364-0.619
		c0.658-0.427,1.279-0.891,1.859-1.434l1.279,1.2c-0.697,0.776-1.51,1.396-2.363,1.938C109.642,86.93,108.518,87.086,107.239,87.086
		z"/>
	<path fill="#FFFFFF" d="M114.949,67.208h2.054v13.483l7.479-7.788h2.595l-5.811,5.929l5.967,7.904h-2.479l-4.96-6.47l-2.829,2.827
		v3.604h-2.054v-19.49H114.949z"/>
	<path fill="#FFFFFF" d="M128.59,83.947h2.479v2.828h-2.479V83.947z"/>
	<path fill="#FFFFFF" d="M138.432,87.009c-0.97,0-1.937-0.154-2.906-0.542c-0.968-0.349-1.821-0.854-2.596-1.436l0.542-0.697
		c0.735,0.621,1.552,1.047,2.403,1.358c0.851,0.309,1.742,0.463,2.596,0.463c0.542,0,1.046-0.077,1.512-0.192
		c0.464-0.117,0.891-0.311,1.201-0.582c0.349-0.232,0.619-0.581,0.812-0.892c0.195-0.349,0.271-0.737,0.271-1.123v-0.04
		c0-0.464-0.116-0.891-0.348-1.2c-0.232-0.31-0.542-0.62-0.931-0.812c-0.349-0.234-0.813-0.39-1.278-0.583
		c-0.465-0.155-1.008-0.309-1.512-0.426c-0.618-0.155-1.201-0.35-1.782-0.58c-0.581-0.196-1.046-0.428-1.512-0.699
		c-0.426-0.271-0.773-0.619-1.008-0.967c-0.232-0.351-0.349-0.854-0.349-1.396v-0.038c0-0.466,0.116-0.97,0.311-1.356
		c0.192-0.389,0.543-0.814,0.931-1.125c0.386-0.309,0.892-0.58,1.433-0.775c0.581-0.153,1.162-0.27,1.898-0.27
		c0.775,0,1.59,0.116,2.404,0.387c0.812,0.271,1.626,0.658,2.285,1.125l-0.466,0.734c-0.657-0.426-1.316-0.812-2.054-1.045
		c-0.735-0.234-1.434-0.349-2.17-0.349c-1.123,0-2.014,0.232-2.674,0.775c-0.657,0.542-1.007,1.122-1.007,1.898v0.038
		c0,0.426,0.117,0.813,0.31,1.085c0.234,0.271,0.545,0.582,0.893,0.775c0.348,0.232,0.812,0.389,1.278,0.581
		c0.464,0.154,1.008,0.31,1.588,0.466c0.621,0.155,1.202,0.31,1.782,0.542c0.582,0.193,1.047,0.426,1.512,0.735
		c0.427,0.272,0.775,0.659,1.008,1.047c0.232,0.387,0.386,0.892,0.386,1.513v0.038c0,0.579-0.113,1.045-0.348,1.511
		c-0.231,0.426-0.619,0.852-1.008,1.163c-0.426,0.309-0.93,0.58-1.51,0.773C139.748,86.892,139.13,87.009,138.432,87.009z"/>
	<path fill="#FFFFFF" d="M151.337,87.086c-0.894,0-1.705-0.156-2.365-0.427c-0.698-0.271-1.238-0.696-1.744-1.201
		c-0.465-0.542-0.852-1.161-1.086-1.86c-0.231-0.735-0.348-1.55-0.348-2.362V73.33h0.854v7.749c0,1.59,0.386,2.829,1.2,3.798
		c0.813,0.969,2.016,1.434,3.604,1.434c0.737,0,1.357-0.115,1.977-0.388c0.619-0.271,1.163-0.657,1.626-1.123
		c0.427-0.466,0.815-1.048,1.086-1.706c0.272-0.658,0.388-1.355,0.388-2.131V73.33h0.854v13.484h-0.854v-3.217
		c-0.155,0.388-0.388,0.813-0.697,1.202c-0.271,0.387-0.658,0.813-1.085,1.123c-0.427,0.349-0.93,0.659-1.512,0.853
		C152.731,86.971,152.072,87.086,151.337,87.086z"/>
	<path fill="#FFFFFF" d="M161.021,73.29h0.854v3.023c0.154-0.388,0.35-0.813,0.66-1.2c0.271-0.388,0.618-0.775,1.005-1.086
		c0.35-0.311,0.815-0.582,1.317-0.774c0.468-0.193,1.048-0.272,1.666-0.272c0.699,0,1.279,0.079,1.824,0.272
		c0.54,0.192,0.967,0.426,1.354,0.774c0.388,0.311,0.737,0.734,0.969,1.123c0.271,0.427,0.467,0.892,0.622,1.357
		c0.154-0.427,0.387-0.893,0.695-1.279c0.271-0.388,0.658-0.814,1.048-1.124c0.388-0.31,0.891-0.62,1.355-0.814
		c0.542-0.192,1.086-0.31,1.705-0.31c1.55,0,2.791,0.465,3.721,1.512c0.929,1.008,1.354,2.402,1.354,4.225v8.059h-0.853v-7.982
		c0-1.666-0.386-2.867-1.16-3.758c-0.776-0.853-1.823-1.279-3.14-1.279c-0.582,0-1.123,0.117-1.667,0.349
		c-0.541,0.233-1.006,0.621-1.435,1.046c-0.386,0.427-0.772,1.008-1.005,1.629c-0.233,0.619-0.35,1.316-0.35,2.092v7.827h-0.853
		v-7.905c0-1.627-0.388-2.867-1.163-3.72c-0.774-0.853-1.821-1.278-3.1-1.278c-0.62,0-1.163,0.117-1.705,0.388
		c-0.543,0.271-1.009,0.658-1.434,1.085c-0.388,0.426-0.773,1.006-1.008,1.627c-0.232,0.621-0.349,1.279-0.349,2.017v7.825h-0.852
		V73.29H161.021z"/>
	<path fill="#FFFFFF" d="M184.659,73.29h0.854v3.023c0.155-0.388,0.348-0.813,0.658-1.2c0.271-0.388,0.62-0.775,1.008-1.086
		c0.347-0.311,0.813-0.582,1.317-0.774c0.465-0.193,1.046-0.272,1.665-0.272c0.698,0,1.28,0.079,1.821,0.272
		c0.543,0.192,0.97,0.426,1.357,0.774c0.388,0.311,0.735,0.734,0.968,1.123c0.271,0.427,0.466,0.892,0.62,1.357
		c0.155-0.427,0.388-0.893,0.697-1.279c0.271-0.388,0.659-0.814,1.047-1.124c0.386-0.31,0.892-0.62,1.355-0.814
		c0.543-0.192,1.086-0.31,1.704-0.31c1.55,0,2.792,0.465,3.722,1.512c0.931,1.046,1.355,2.402,1.355,4.225v8.059h-0.813v-7.982
		c0-1.666-0.387-2.867-1.161-3.758c-0.775-0.853-1.823-1.279-3.139-1.279c-0.582,0-1.125,0.117-1.668,0.349
		c-0.542,0.233-1.007,0.621-1.432,1.046c-0.39,0.427-0.776,1.008-1.009,1.629c-0.233,0.619-0.35,1.316-0.35,2.092v7.827h-0.852
		v-7.905c0-1.627-0.388-2.867-1.163-3.72c-0.774-0.853-1.82-1.278-3.099-1.278c-0.62,0-1.163,0.117-1.706,0.388
		c-0.542,0.271-1.008,0.658-1.434,1.085c-0.387,0.426-0.775,1.006-1.009,1.627c-0.231,0.621-0.348,1.279-0.348,2.017v7.825h-0.853
		V73.291L184.659,73.29L184.659,73.29z"/>
	<path fill="#FFFFFF" d="M208.375,67.905h1.161v1.628h-1.161V67.905z M208.49,73.29h0.931v13.485h-0.931V73.29z"/>
	<path fill="#FFFFFF" d="M217.48,87.009c-1.085,0-1.938-0.311-2.636-0.931c-0.696-0.62-0.969-1.551-0.969-2.789v-9.225h-2.054V73.29
		h2.054v-4.571h0.854v4.571h4.882v0.774h-4.882v9.146c0,1.009,0.232,1.744,0.735,2.208c0.465,0.464,1.163,0.736,2.055,0.736
		c0.658,0,1.316-0.154,2.013-0.426v0.853C218.992,86.854,218.256,87.009,217.48,87.009z"/>
	<path fill="#FFFFFF" d="M228.601,90.457c-2.324-1.317-4.145-2.984-5.347-4.921c-1.202-1.938-1.822-4.108-1.822-6.511
		c0-2.401,0.62-4.572,1.822-6.51s2.983-3.565,5.347-4.921l0.351,0.62c-2.172,1.279-3.837,2.829-4.962,4.688
		c-1.124,1.822-1.704,3.876-1.704,6.161c0,2.286,0.58,4.342,1.704,6.16c1.125,1.822,2.79,3.372,4.962,4.69L228.601,90.457z"/>
	<path fill="#FFFFFF" d="M236.971,89.915c2.171-1.279,3.836-2.829,4.96-4.69c1.124-1.818,1.705-3.874,1.705-6.16
		c0-2.285-0.581-4.339-1.705-6.161c-1.124-1.82-2.789-3.37-4.96-4.688l0.351-0.62c2.323,1.317,4.143,2.983,5.345,4.921
		c1.201,1.938,1.821,4.108,1.821,6.51c0,2.402-0.62,4.572-1.821,6.511c-1.202,1.937-2.983,3.565-5.345,4.921L236.971,89.915z"/>
</g>
<g>
	<g>
		<g>
			<path fill="#FFFFFF" d="M40.409,64.825c-0.418,0-0.836,0.229-1.027,0.533L27.135,86.581c-0.304,0.533-0.152,1.218,0.38,1.483
				c0.533,0.305,1.217,0.114,1.483-0.38l11.296-19.588l4.906,8.443l1.255-2.206l-5.059-8.976
				C41.208,65.016,40.828,64.825,40.409,64.825z"/>
		</g>
	</g>
	<g>
		<g>
			<path fill="#FFFFFF" d="M51.744,74.601l7.607,13.122c0.304,0.494,1.027,0.723,1.483,0.38c0.228-0.152,0.418-0.38,0.532-0.685
				c0.114-0.304,0.038-0.57-0.114-0.837l-8.558-14.757c-0.19-0.343-0.532-0.532-0.951-0.532s-0.837,0.228-1.027,0.532l-8.368,14.757
				c-0.304,0.533-0.152,1.218,0.38,1.483c0.532,0.305,1.217,0.114,1.483-0.38L51.744,74.601z"/>
		</g>
	</g>
</g>
<g>
	<path d="M71.789,1.936h2.109v8.2c0.468-0.781,1.093-1.406,1.874-1.953c0.781-0.547,1.718-0.78,2.968-0.78
		c0.859,0,1.641,0.156,2.265,0.39c0.625,0.234,1.25,0.625,1.641,1.172c0.468,0.469,0.78,1.093,1.093,1.796
		c0.235,0.702,0.391,1.405,0.391,2.264v8.668h-2.11v-8.121c0-1.329-0.312-2.343-1.015-3.045c-0.703-0.781-1.64-1.172-2.889-1.172
		c-0.625,0-1.172,0.079-1.64,0.313c-0.547,0.234-0.938,0.468-1.328,0.859c-0.39,0.39-0.703,0.858-0.858,1.405
		c-0.234,0.548-0.313,1.172-0.313,1.798v7.964h-2.108V1.936H71.789z"/>
	<path d="M91.314,22.007c-0.624,0-1.327-0.078-1.952-0.234c-0.626-0.156-1.172-0.469-1.641-0.858s-0.859-0.858-1.171-1.405
		s-0.469-1.173-0.469-1.875v-0.078c0-0.781,0.157-1.406,0.469-1.952c0.312-0.547,0.703-1.015,1.25-1.406
		c0.546-0.39,1.171-0.704,1.874-0.859c0.703-0.156,1.562-0.312,2.421-0.312c0.937,0,1.718,0.078,2.343,0.156
		c0.625,0.078,1.328,0.234,1.952,0.47v-0.47c0-1.25-0.39-2.187-1.093-2.812c-0.703-0.624-1.718-0.936-3.046-0.936
		c-0.859,0-1.562,0.077-2.265,0.234c-0.703,0.156-1.328,0.39-1.953,0.702l-0.625-1.718c0.782-0.39,1.562-0.625,2.343-0.859
		c0.781-0.234,1.719-0.312,2.734-0.312c1.952,0,3.515,0.546,4.529,1.561c0.938,0.937,1.484,2.342,1.484,4.139v8.591h-2.03v-2.107
		c-0.469,0.623-1.172,1.17-1.953,1.639C93.579,21.772,92.564,22.007,91.314,22.007z M91.705,20.288c0.625,0,1.25-0.078,1.796-0.232
		c0.547-0.157,1.016-0.469,1.484-0.782c0.39-0.312,0.781-0.703,1.015-1.171c0.234-0.469,0.39-0.938,0.39-1.485v-1.326
		c-0.546-0.156-1.093-0.312-1.796-0.392c-0.703-0.157-1.406-0.157-2.264-0.157c-1.329,0-2.266,0.236-3.046,0.784
		c-0.703,0.545-1.093,1.17-1.093,2.029v0.078c0,0.469,0.078,0.858,0.312,1.172c0.157,0.313,0.469,0.624,0.781,0.859
		c0.312,0.233,0.703,0.391,1.093,0.545C90.846,20.288,91.236,20.288,91.705,20.288z"/>
	<path d="M107.793,22.086c-1.015,0-1.952-0.157-2.889-0.549c-0.859-0.39-1.64-0.937-2.265-1.561
		c-0.625-0.625-1.171-1.406-1.484-2.343c-0.391-0.859-0.546-1.796-0.546-2.812v-0.079c0-1.013,0.156-1.951,0.546-2.811
		c0.39-0.858,0.859-1.639,1.484-2.342s1.406-1.172,2.265-1.562c0.859-0.391,1.796-0.546,2.889-0.546c0.703,0,1.25,0.078,1.796,0.155
		c0.547,0.157,1.016,0.313,1.485,0.547c0.468,0.234,0.858,0.468,1.249,0.781c0.39,0.312,0.703,0.625,1.093,0.937l-1.406,1.483
		c-0.546-0.546-1.17-1.092-1.795-1.483c-0.625-0.391-1.484-0.625-2.422-0.625c-0.703,0-1.327,0.156-1.952,0.391
		c-0.625,0.312-1.172,0.625-1.562,1.17c-0.469,0.468-0.781,1.093-1.094,1.718c-0.235,0.625-0.39,1.406-0.39,2.109v0.076
		c0,0.784,0.155,1.485,0.39,2.111c0.234,0.624,0.625,1.249,1.094,1.717c0.468,0.47,1.015,0.859,1.64,1.172
		c0.625,0.313,1.328,0.389,2.031,0.389c0.937,0,1.718-0.232,2.421-0.622s1.327-0.858,1.874-1.485l1.328,1.25
		c-0.703,0.782-1.484,1.406-2.421,1.952C110.215,21.772,109.043,22.086,107.793,22.086z"/>
	<path d="M115.525,1.936h2.108v13.667l7.576-7.889h2.577l-5.857,6.015l6.093,7.964h-2.501l-4.998-6.559l-2.812,2.889v3.67h-2.108
		V1.936H115.525z"/>
	<path d="M129.349,18.883h2.499v2.811h-2.499V18.883z"/>
	<path d="M135.051,8.105h0.858v3.749c0.234-0.547,0.548-1.093,0.938-1.562c0.391-0.469,0.859-0.938,1.329-1.328
		c0.545-0.392,1.091-0.625,1.717-0.86c0.624-0.233,1.327-0.312,2.03-0.312c0.938,0,1.797,0.156,2.578,0.547
		c0.78,0.391,1.561,0.859,2.107,1.484s1.094,1.406,1.485,2.265c0.39,0.859,0.547,1.796,0.547,2.89v0.078
		c0,1.015-0.157,1.952-0.547,2.89c-0.392,0.859-0.859,1.641-1.485,2.264c-0.624,0.625-1.327,1.094-2.107,1.483
		c-0.859,0.393-1.718,0.548-2.578,0.548c-0.781,0-1.483-0.078-2.109-0.312c-0.624-0.235-1.171-0.469-1.717-0.859
		c-0.548-0.39-0.938-0.781-1.327-1.249c-0.392-0.469-0.704-1.015-0.938-1.561v7.809h-0.858V8.105H135.051z M141.923,21.226
		c0.86,0,1.641-0.156,2.42-0.469c0.705-0.312,1.328-0.701,1.876-1.327c0.547-0.547,0.937-1.249,1.249-1.952
		c0.313-0.781,0.47-1.562,0.47-2.499v-0.079c0-0.937-0.156-1.718-0.47-2.498c-0.312-0.781-0.702-1.406-1.249-2.032
		c-0.548-0.546-1.171-1.015-1.876-1.327C143.642,8.73,142.86,8.573,142,8.573c-0.858,0-1.64,0.157-2.342,0.469
		c-0.704,0.312-1.405,0.781-1.873,1.327c-0.548,0.547-0.938,1.251-1.251,1.953c-0.312,0.781-0.469,1.562-0.469,2.499v0.078
		c0,0.859,0.157,1.718,0.469,2.501c0.312,0.78,0.781,1.405,1.251,1.951c0.468,0.547,1.169,1.016,1.873,1.328
		C140.282,21.069,141.062,21.226,141.923,21.226z"/>
	<path d="M151.685,1.936h0.938v19.757h-0.938V1.936z"/>
	<path d="M162.229,22.086c-0.938,0-1.797-0.157-2.654-0.47c-0.859-0.312-1.562-0.781-2.188-1.406
		c-0.626-0.623-1.093-1.404-1.484-2.264c-0.391-0.859-0.547-1.875-0.547-2.968v-0.079c0-1.015,0.156-1.952,0.469-2.811
		s0.781-1.64,1.405-2.265c0.626-0.625,1.251-1.172,2.109-1.484c0.782-0.391,1.641-0.547,2.578-0.547
		c1.016,0,1.952,0.234,2.733,0.625c0.779,0.391,1.405,0.938,1.952,1.641c0.546,0.703,0.937,1.405,1.171,2.264
		c0.235,0.859,0.392,1.719,0.392,2.656v0.312h-11.871c0,0.937,0.234,1.718,0.546,2.5c0.313,0.779,0.78,1.405,1.327,1.874
		c0.548,0.466,1.172,0.936,1.875,1.17s1.406,0.391,2.187,0.391c1.094,0,2.03-0.234,2.89-0.701c0.858-0.469,1.562-1.095,2.03-1.796
		l0.625,0.545c-0.625,0.782-1.405,1.483-2.344,2.03C164.494,21.851,163.478,22.086,162.229,22.086z M167.305,14.432
		c0-0.702-0.156-1.484-0.39-2.188c-0.234-0.702-0.625-1.327-1.017-1.874c-0.469-0.546-1.015-1.015-1.64-1.327
		c-0.625-0.312-1.405-0.469-2.264-0.469c-0.78,0-1.484,0.157-2.187,0.469c-0.626,0.312-1.251,0.704-1.719,1.25
		c-0.47,0.546-0.86,1.17-1.172,1.874c-0.312,0.703-0.468,1.485-0.468,2.344h10.854V14.432z"/>
	<path d="M176.678,22.086c-0.938,0-1.797-0.157-2.577-0.549c-0.859-0.39-1.562-0.857-2.109-1.481
		c-0.546-0.626-1.093-1.405-1.484-2.265c-0.39-0.86-0.546-1.797-0.546-2.892v-0.078c0-1.014,0.156-1.952,0.546-2.89
		c0.392-0.858,0.86-1.639,1.484-2.264c0.625-0.625,1.328-1.095,2.109-1.484c0.858-0.391,1.718-0.547,2.577-0.547
		c0.779,0,1.484,0.078,2.107,0.312c0.625,0.235,1.173,0.469,1.719,0.86c0.546,0.391,0.938,0.781,1.329,1.25
		c0.39,0.469,0.701,1.015,0.936,1.562V1.936h0.86v19.757h-0.859v-3.747c-0.235,0.546-0.547,1.094-0.937,1.641
		c-0.392,0.469-0.861,0.938-1.329,1.248c-0.546,0.391-1.094,0.625-1.719,0.858C178.084,21.929,177.457,22.086,176.678,22.086z
		 M176.756,21.226c0.858,0,1.639-0.156,2.343-0.469c0.703-0.312,1.405-0.78,1.873-1.327c0.47-0.547,0.938-1.249,1.251-1.952
		c0.312-0.703,0.469-1.562,0.469-2.499v-0.079c0-0.858-0.157-1.718-0.469-2.498c-0.312-0.781-0.781-1.406-1.251-1.953
		c-0.545-0.546-1.17-1.015-1.873-1.328c-0.704-0.312-1.484-0.469-2.343-0.469c-0.86,0-1.641,0.157-2.422,0.469
		c-0.702,0.313-1.326,0.703-1.875,1.328c-0.546,0.547-0.936,1.25-1.248,1.953c-0.312,0.78-0.469,1.562-0.469,2.498v0.079
		c0,0.938,0.156,1.718,0.469,2.499c0.312,0.782,0.702,1.405,1.248,2.031c0.549,0.547,1.173,1.016,1.875,1.326
		C175.115,21.069,175.896,21.226,176.756,21.226z"/>
	<path d="M193.235,26.146c-2.266,0-4.374-0.702-6.249-2.108l0.546-0.703c1.719,1.327,3.671,1.952,5.703,1.952
		c0.858,0,1.639-0.156,2.343-0.391c0.702-0.234,1.328-0.625,1.796-1.093c0.469-0.469,0.859-1.094,1.171-1.797
		c0.313-0.703,0.391-1.562,0.391-2.498v-2.5c-0.545,1.015-1.328,1.953-2.342,2.578c-1.016,0.701-2.266,1.014-3.594,1.014
		c-0.859,0-1.719-0.155-2.499-0.47c-0.781-0.311-1.484-0.779-2.108-1.325c-0.626-0.546-1.094-1.25-1.484-2.031
		c-0.39-0.78-0.546-1.64-0.546-2.577V14.12c0-0.938,0.156-1.798,0.546-2.578c0.391-0.781,0.858-1.484,1.484-2.031
		c0.624-0.546,1.327-1.015,2.108-1.327c0.78-0.312,1.64-0.469,2.499-0.469c0.703,0,1.328,0.079,1.952,0.234
		c0.626,0.156,1.172,0.469,1.642,0.782c0.469,0.312,0.937,0.703,1.328,1.171c0.391,0.468,0.702,0.937,1.014,1.405V8.105h0.938v11.56
		c0,1.015-0.155,1.872-0.47,2.655c-0.312,0.779-0.701,1.483-1.327,2.03c-0.546,0.546-1.327,1.015-2.108,1.327
		C195.188,25.99,194.25,26.146,193.235,26.146z M193.078,19.898c0.781,0,1.563-0.156,2.265-0.469
		c0.704-0.311,1.328-0.701,1.874-1.17c0.548-0.469,0.938-1.095,1.328-1.798c0.313-0.703,0.468-1.405,0.468-2.187v-0.078
		c0-0.781-0.154-1.562-0.468-2.187c-0.312-0.704-0.78-1.249-1.328-1.795c-0.546-0.469-1.17-0.938-1.874-1.172
		c-0.701-0.312-1.483-0.469-2.265-0.469s-1.562,0.157-2.265,0.392c-0.702,0.234-1.329,0.703-1.875,1.171s-0.937,1.093-1.25,1.795
		c-0.312,0.703-0.468,1.406-0.468,2.266v0.078c0,0.781,0.155,1.562,0.468,2.187c0.313,0.703,0.704,1.25,1.25,1.798
		c0.546,0.469,1.173,0.937,1.875,1.17C191.517,19.665,192.297,19.898,193.078,19.898z"/>
	<path d="M209.401,22.086c-0.937,0-1.797-0.157-2.655-0.47c-0.86-0.312-1.562-0.781-2.188-1.406
		c-0.625-0.623-1.094-1.404-1.483-2.264c-0.392-0.859-0.547-1.875-0.547-2.968v-0.079c0-1.015,0.155-1.952,0.47-2.811
		c0.312-0.859,0.78-1.64,1.404-2.265c0.625-0.625,1.25-1.172,2.11-1.484c0.779-0.391,1.64-0.547,2.577-0.547
		c1.015,0,1.951,0.234,2.732,0.625c0.781,0.391,1.406,0.938,1.951,1.641c0.548,0.703,0.938,1.405,1.174,2.264
		c0.232,0.859,0.39,1.719,0.39,2.656v0.312h-11.872c0,0.937,0.235,1.718,0.547,2.5c0.312,0.779,0.782,1.405,1.328,1.874
		c0.546,0.466,1.173,0.936,1.875,1.17c0.703,0.234,1.406,0.391,2.187,0.391c1.094,0,2.03-0.234,2.89-0.701
		c0.859-0.469,1.562-1.095,2.03-1.796l0.626,0.545c-0.626,0.782-1.406,1.483-2.344,2.03S210.651,22.086,209.401,22.086z
		 M214.478,14.432c0-0.702-0.156-1.484-0.391-2.188c-0.234-0.702-0.624-1.327-1.015-1.874c-0.469-0.546-1.016-1.015-1.641-1.327
		c-0.625-0.312-1.405-0.469-2.265-0.469c-0.78,0-1.483,0.157-2.188,0.469c-0.624,0.312-1.249,0.704-1.717,1.25
		c-0.469,0.546-0.86,1.17-1.173,1.874c-0.312,0.703-0.469,1.485-0.469,2.344h10.856V14.432z"/>
	<path d="M224.631,25.521c-2.421-1.327-4.217-3.046-5.39-4.997c-1.249-1.954-1.875-4.14-1.875-6.562c0-2.421,0.626-4.608,1.875-6.56
		c1.25-1.954,3.047-3.592,5.39-4.999l0.391,0.624c-2.188,1.329-3.905,2.89-4.999,4.686c-1.093,1.796-1.719,3.906-1.719,6.249
		c0,2.343,0.548,4.373,1.719,6.247c1.172,1.876,2.812,3.438,4.999,4.687L224.631,25.521z"/>
	<path d="M233.065,24.896c2.188-1.328,3.905-2.89,4.998-4.687c1.171-1.874,1.719-3.904,1.719-6.247c0-2.342-0.548-4.374-1.719-6.249
		c-1.171-1.874-2.811-3.436-4.998-4.686l0.39-0.624c2.421,1.328,4.218,3.044,5.389,4.999c1.251,1.952,1.875,4.139,1.875,6.56
		c0,2.422-0.624,4.607-1.875,6.562c-1.25,1.951-3.046,3.592-5.389,4.997L233.065,24.896z"/>
</g>
<g>
	<path d="M54.511,0.141v12.826c0,0.654,0.49,1.145,1.144,1.145c0.654,0,1.144-0.49,1.144-1.145V0.141
		c0-0.654-0.49-1.145-1.144-1.145C55.001-1.004,54.511-0.432,54.511,0.141z M50.998-1.004v14.053c0,0.653,0.49,1.144,1.144,1.144
		c0.653,0,1.144-0.49,1.144-1.144V-1.004c0-0.653-0.49-1.144-1.144-1.144C51.488-2.147,50.998-1.657,50.998-1.004z M48.628,14.192
		c0.653,0,1.144-0.49,1.144-1.144V1.365c0-0.653-0.49-1.143-1.144-1.143c-0.654,0-1.144,0.489-1.144,1.143v11.684
		C47.484,13.702,48.057,14.192,48.628,14.192z M58.432,2.51v16.34c0,2.614-2.124,4.657-4.738,4.657H52.55
		c-2.696,0-5.311-1.961-5.882-4.33L45.524,8.393c-0.164-0.654-0.735-1.062-1.389-0.899c-0.653,0.163-1.062,0.735-0.898,1.389
		l1.144,10.785c0.735,3.431,4.412,6.209,8.17,6.209h1.144c3.84,0,7.026-3.187,7.026-7.026V2.51c0-0.654-0.49-1.145-1.144-1.145
		C58.922,1.365,58.432,1.855,58.432,2.51z"/>
</g>
</svg>
