<svg xmlns="http://www.w3.org/2000/svg" viewBox="737 467 148 153" xmlns:xlink="http://www.w3.org/1999/xlink">
  <defs>
    <path id="b" d="M95.6 19h-92l.2 120h91.8z"/>
    <filter id="a" width="200%" height="200%" x="-50%" y="-50%" filterUnits="objectBoundingBox">
      <feOffset dy="2" in="SourceAlpha" result="shadowOffsetOuter1"/>
      <feGaussianBlur stdDeviation="2.5" in="shadowOffsetOuter1" result="shadowBlurOuter1"/>
      <feColorMatrix values="0 0 0 0 0 0 0 0 0 0 0 0 0 0 0 0 0 0 0.03 0" in="shadowBlurOuter1"/>
    </filter>
    <path id="d" d="M100.6 4h-92l.2 120h91.8z"/>
    <filter id="c" width="200%" height="200%" x="-50%" y="-50%" filterUnits="objectBoundingBox">
      <feOffset dy="2" in="SourceAlpha" result="shadowOffsetOuter1"/>
      <feGaussianBlur stdDeviation="2.5" in="shadowOffsetOuter1" result="shadowBlurOuter1"/>
      <feColorMatrix values="0 0 0 0 0 0 0 0 0 0 0 0 0 0 0 0 0 0 0.03 0" in="shadowBlurOuter1"/>
    </filter>
    <path id="f" d="M92 0H0l.2 120H92z"/>
    <filter id="e" width="200%" height="200%" x="-50%" y="-50%" filterUnits="objectBoundingBox">
      <feOffset dy="2" in="SourceAlpha" result="shadowOffsetOuter1"/>
      <feGaussianBlur stdDeviation="5" in="shadowOffsetOuter1" result="shadowBlurOuter1"/>
      <feColorMatrix values="0 0 0 0 0 0 0 0 0 0 0 0 0 0 0 0 0 0 0.05 0" in="shadowBlurOuter1"/>
    </filter>
    <path id="g" d="M46 40.5V67s24.5 11.7 24.8 11.7c.2 0 14.3-3.8 15-5.7.5-2 1.2-68.3 1.2-68.3L54.7.7l-46 1.6-8 23 17 9.6L46 40z"/>
    <path id="i" d="M42.5 43.7V0H0v43.7z"/>
    <path id="k" d="M0 0v43.7h42.4V0z"/>
    <path id="m" d="M22.2 21.8V0H.2v22z"/>
  </defs>
  <g fill="none" fill-rule="evenodd">
    <g transform="rotate(3 -8572.8 14482.338)">
      <use fill="#000" filter="url(#a)" xlink:href="#b"/>
      <use fill="#FFF" xlink:href="#b"/>
    </g>
    <g transform="rotate(-5 5819.42 -8197.877)">
      <use fill="#000" filter="url(#c)" xlink:href="#d"/>
      <use fill="#FFF" xlink:href="#d"/>
    </g>
    <g transform="translate(752 482)">
      <use fill="#000" filter="url(#e)" xlink:href="#f"/>
      <use fill="#FFF" xlink:href="#f"/>
    </g>
    <path fill="#B3BECC" d="M761 497h45v-3h-45"/>
    <path fill="#CAD4E1" d="M761 505h75v-2h-75m0 7h75v-2h-75m0 7h75v-2h-75m0 7h75v-2h-75m0 6h32v-2h-32"/>
    <path fill="#B3BECC" d="M761 533h31.5v-2H761"/>
    <path fill="#CAD4E1" d="M761 538h75v-2h-75m0 7h75v-2h-75m0 7h75v-2h-75m0 7h75v-2h-75m0 7h56.3v-2H761m0 10h75v-2h-75m0 12h36v-2h-36m0-3h75v-2h-75"/>
    <path fill="#8EAFD0" d="M821.2 580.4c3.2-3.2 8.4-3.2 11.6 0 3.3 3.2 3.3 8.5 0 11.7-3.2 4-8.4 4-11.6 0-3.3-3-3.3-8 0-11m1 1c2.7-2 7-2 9.6 0 2.6 3 2.6 7 0 10-2.7 3-7 3-9.6 0-2.6-2-2.6-7 0-9"/>
    <path fill="#8EAFD0" d="M823.3 582.5c1-1 2.4-1.5 3.7-1.5 1.3 0 2.7.5 3.7 1.5s1.5 2.4 1.5 3.8c0 1.3-.5 2.6-1.5 3.7-1 1-2.4 1.5-3.7 1.5-1.3 0-2.7-.5-3.7-1.5s-1.6-2.4-1.6-3.7c0-1.4.6-2.7 1.6-3.8m3.7-.8c-1.2 0-2.3.5-3.2 1.4-1 1-1.3 2-1.3 4 0 1 .4 3 1.3 3 1 1 2 2 3.2 2 1.2 0 2.3 0 3.2-1 1-1 1.3-2 1.3-3s-.4-2-1.3-3c-1-1-2-1-3.2-1"/>
    <path fill="#2A68A6" d="M810.6 584.8c.3.2.3.5.2.7-.2.3-.5.3-.7.2 0 0-3-2-4-3.2v-1.7c0-.2 1-.4 2-.3l2 .4 3 1h5s.4 0 0-1v-1l-.3-1-2.3 1h-1c0-1 1-2 2-4-.6-.8-1-1.5-1-1.8-.3-1 0-1.6 1-1.8h1l1 .4c.8.3 1 .7.8 1 0 .4-.5 1-1 1.7l-.3.3c0 .7 0 1 .3 1l5.8-2.3c0-.7.5 0 .7 0v.4l-5 2.7v1l.4.7c0 1 0 1.5-1 2-.7.2-1.5.2-2.5 0-1 0-1.7 0-2.7-.6l-4-1-1.3-.5c1.3 1.4 4.4 3.3 4.4 3.3zm-5-3.5zm8.8-1.5s0-.3-.2-.4l-1 1 1.2-.6zm-.7-3.7c0 1 .3 1 .7 2h.2l1-1h-1.8s-.2 0 0 1zm2 0c.2 0 0 0 0 0z"/>
    <path fill="#000" fill-opacity=".1" d="M844 557v-10.7L823.7 534s-4.5-2.8-11.7 1c11 9 32 22 32 22z"/>
    <g transform="translate(798 516)">
      <mask id="h" fill="#fff">
        <use xlink:href="#g"/>
      </mask>
      <g mask="url(#h)">
        <path fill="#F2778A" d="M68.5 24.8L65 21.2 50.6 35.7l3.6 3.6M68.5 56L65 59.8 50.6 45.2l3.6-3.6"/>
        <path fill="#C35C6C" d="M59.5 47L56 50.4 50.7 45l3.6-3.5"/>
        <path fill="#F2778A" d="M65 56c-4.3 4.4-4.3 11.5 0 15.8 4.2 4.3 11 4.3 15.3 0 4.2-4.3 4.2-11.4 0-15.7-4.3-4-11-4-15.3 0m12 13c-2.4 3-6.4 3-8.8 0-2.5-2-2.5-6 0-9 2.4-2 6.4-2 8.8 0 2.5 3 2.5 7 0 9"/>
        <g transform="rotate(-90 31.73 16.596)">
          <mask id="j" fill="#fff">
            <use xlink:href="#i"/>
          </mask>
          <path fill="#DBDFE0" d="M4 42.3l-4-3.8L39.5 0c4 4 4 10.4 0 14.3L11 42.3c-2 2-5.2 2-7 0" mask="url(#j)"/>
        </g>
        <g transform="rotate(-90 45.066 29.934)">
          <mask id="l" fill="#fff">
            <use xlink:href="#k"/>
          </mask>
          <path fill="#C6CED0" d="M38.5 42.3l4-3.8L3 0c-4 4-4 10.4 0 14.3l28.6 28c2 2 5 2 7 0" mask="url(#l)"/>
        </g>
        <g transform="rotate(-90 44.847 -16.8)">
          <mask id="n" fill="#fff">
            <use xlink:href="#m"/>
          </mask>
          <path fill="#F2778A" d="M3.3 18.6c4.3 4.2 11.3 4.2 15.6 0 4-4.2 4-11 0-15.3C14-1 7-1 3 3.3c-4.3 4.2-4.3 11 0 15.3m3.3-3.2C4 13 4 9 6.5 6.4c2.6-2.4 6.7-2.4 9 0 2.7 2.6 2.7 6.5 0 9-2.3 2.5-6.4 2.5-9 0" mask="url(#n)"/>
        </g>
        <path fill="#788D9A" d="M52.7 38c1.4 0 2.5 1 2.5 2.4s-1 2.6-2.5 2.6c-1.4 0-2.5-1.2-2.5-2.6 0-1.4 1-2.5 2.5-2.5"/>
      </g>
    </g>
  </g>
</svg>
